<svg xmlns="http://www.w3.org/2000/svg" width="640" height="360" viewBox="0 0 640 360"><linearGradient id="a" gradientUnits="userSpaceOnUse" x1="-2479.183" y1="-863.955" x2="-1941.985" y2="-808.8" gradientTransform="matrix(.4413 0 0 -.4608 567.618 818.306)"><stop offset="0" stop-color="#bbb"/><stop offset="1" stop-color="#fff"/></linearGradient><linearGradient id="b" gradientUnits="userSpaceOnUse" x1="-2230.328" y1="-1111.99" x2="-2228.914" y2="-922.505" gradientTransform="matrix(.4413 0 0 -.4608 567.618 818.306)"><stop offset="0" stop-color="#c9c9c9"/><stop offset="1" stop-color="#c9c9c9" stop-opacity="0"/></linearGradient><title>Pedestrian Landscaping</title><path fill="#c5f8f1" d="M0 1h640v360H0z"/><path d="M540.479 198.948c-15.194 13.341-20.813-21.087-44.755 3.155-3.424 3.467-7.697 5.923-11.963 8.959h-4.609c-3.29-1.814-6.125-3.354-7.431-4.015-4.556-9.564-10.065-15.5-16.941-16.768-42.74-7.877-121.938 23.147-121.938 23.147s10.722 5.758 21.566 11.17c-54.665 1.069-101.711 4.758-101.711 4.758-6.833-.824-13.538-3.716-19.966-7.489-10.116-5.94-19.542-14.071-27.676-19.818-18.698 5.667-33.478 12.31-42.42 20.186-.031 1.532-6.668-16.988-10.625-15.017-.878.438-1.757.856-2.637 1.267-8.378 2.66-33.93 7.197-33.93 7.197-18.726-5.363-27.134-16.758-37.443-18.146-15.144-2.04-39.534 13.607-59.044 15.804-3.821.431-10.581 9.612-14.911 16.095H0V258h640v-35.254c-4.508-1.363-76.392-44.106-99.521-23.798z" fill="#60938c"/><path d="M621.044 219.13c-19.51-2.197-47.223-14.542-57.512-10.658-11.052 4.171-22.765 17.247-41.489 22.609 2.128-.61-2.059-7.964-2.947-8.872-3.048-3.113-7.731-4.314-11.905-4.895-4.566-.635-8.594-.726-13.013-2.298-5.898-2.099-7.378-1.229-11.941 2.094-2.849 2.075-3.674 1.811-7.828 1.585-3.897-.211-7.811-.29-11.565-1.482-5.272-1.674-10.368-3.862-15.689-5.445-6.302-1.875-10.935-4.214-16.728-.601-6.008 3.747-13.134 9.916-20.019 11.859a9274.726 9274.726 0 0 0-23.569 6.684c-4.807-1.109-9.529-2.919-14.108-5.107-4.394-2.1-8.646-4.538-12.73-7.006v-.691c-.786-.238-1.572-.489-2.359-.741-4.448-2.737-8.67-5.44-12.586-7.693-9.432 2.327-17.863 4.857-25.055 7.615-7.192-2.758-15.623-5.288-25.055-7.615-3.917 2.253-8.138 4.957-12.586 7.693-.787.252-1.573.503-2.359.741v.691c-4.084 2.468-8.336 4.906-12.73 7.006-4.579 2.188-9.301 3.998-14.108 5.107a9158.656 9158.656 0 0 0-23.569-6.684c-8.926-4.627-17.253-10.364-24.538-14.555-11.695 2.886-21.858 6.082-30.018 9.64-5.543.142-10.991.451-15.956 1.005-2.207-3.562-5.004-7.276-7.072-6.438a135.833 135.833 0 0 1-7.016 2.61c-1.665.57-3.33 1.113-4.993 1.617-25.452 0-22.041 14.175-22.041 14.175-18.726-5.361-30.439-18.438-41.491-22.609-10.289-3.884-38.002 8.461-57.512 10.658C13.023 219.798 0 241.567 0 241.567V258h640v-7-9.433s-13.023-21.769-18.956-22.437z" fill="#71be63"/><path d="M152.009 206.006l-.169.224c.094-.079.156-.154.169-.224z" fill="#2980b9"/><circle cx="585.801" cy="39.18" r="27.547" fill="#ffcb66"/><path d="M376.401 207.075c-1.907.634-3.023 1.028-3.023 1.028l8.326 14.998 1.938-.001-7.241-16.025z" fill="none"/><path d="M383.643 226.593l-1.938-3.492 1.938-.001-5.985-13.246c-11.375 3.863-24.043 10.76-34.546 17.184a1848.12 1848.12 0 0 1 40.531-.445z" fill="none"/><path d="M377.657 215.358l-.248-.888c-.729.133-1.405.259-2.005.374l.254 4.254.811 13.583c1.796-.518 3.663-1.053 5.571-1.6l-4.383-15.723z" fill="none"/><path d="M374.927 238.883l.455 3.634a987.71 987.71 0 0 1 8.261-.029l-1.938-5.659 1.938-.002-1.602-5.745c-1.908.547-3.775 1.082-5.571 1.6l.4 6.696c-.647-.167-1.296-.33-1.943-.495zM343.111 227.038c-6.84.146-13.509.321-19.927.515l2.359 10.992a350.067 350.067 0 0 1 17.568-11.507z" fill="#71be63"/><path fill="#43ab5f" d="M0 321h640v40H0z"/><path fill="#71be63" d="M0 291h640v31H0z"/><path d="M192.907 256.792H140v2.071h50.871c.675-.693 1.352-1.385 2.036-2.071z" fill="#94d75b"/><path fill="#94d75b" d="M0 256.792h640V291H0z"/><path d="M140.108 346.8a3.947 3.947 0 0 0 0-7.894c-.037 0-.071.01-.108.011v7.873c.037 0 .071.01.108.01z" fill="#43ab5f"/><path d="M140.108 346.8a3.947 3.947 0 0 0 0-7.894c-.037 0-.071.01-.108.011v7.873c.037 0 .071.01.108.01z" opacity=".63" fill="#71be63"/><path d="M142.745 280.545a2.73 2.73 0 0 0-1.93-3.344 2.7 2.7 0 0 0-.815-.078v5.439a2.725 2.725 0 0 0 2.745-2.017z" fill="#6fa144"/><path d="M200.863 243.25c0-4.185-3.339-20.498-5.452-20.498-2.111 0-5.451 16.314-5.451 20.498 0 3.737 1.952 5.799 4.514 6.199v5.129a.936.936 0 1 0 1.875 0v-5.129c2.562-.4 4.514-2.462 4.514-6.199z" fill="#43ab5f"/><path d="M187.182 243.373c0-5.317-4.245-26.054-6.929-26.054-2.685 0-6.929 20.737-6.929 26.054 0 4.75 2.481 7.371 5.737 7.879v6.52a1.192 1.192 0 0 0 2.383 0v-6.52c3.258-.508 5.738-3.129 5.738-7.879z" fill="#94d75b"/><path d="M242.546 269.422a4.735 4.735 0 0 1-4.737-4.736v-74.209a4.736 4.736 0 0 1 4.737-4.737 4.736 4.736 0 0 1 4.737 4.737v74.209a4.735 4.735 0 0 1-4.737 4.736z" fill="#674447"/><path d="M287.12 207.317a19.194 19.194 0 0 0 3.458-10.991c0-8.633-5.702-15.857-13.518-18.331-.069-.057-.125-.128-.195-.187.697-1.975 1.15-4.065 1.15-6.279 0-10.464-8.483-18.948-18.947-18.948-1.516 0-2.97.225-4.383.561-4.29-6.054-11.317-10.032-19.302-10.032-13.08 0-23.684 10.603-23.684 23.683 0 2.75.561 5.348 1.421 7.803-9.264 4.683-15.631 14.264-15.631 25.354 0 15.647 12.647 28.335 28.275 28.414 3.999 3.648 9.269 5.929 15.108 5.929 4.342 0 8.358-1.287 11.796-3.418a29.49 29.49 0 0 0 5.435.525c3.593 0 7.019-.675 10.202-1.849 9.261 1.286 18.596 2.364 19.183 1.583.471-.628-.583-8.689-2.023-18.167a29.53 29.53 0 0 0 1.655-5.65z" fill="#43ab5f"/><path d="M287.12 207.317a19.194 19.194 0 0 0 3.458-10.991c0-8.633-5.702-15.857-13.518-18.331-.069-.057-.125-.128-.195-.187.697-1.975 1.15-4.065 1.15-6.279 0-10.464-8.483-18.948-18.947-18.948-1.516 0-2.97.225-4.383.561-4.29-6.054-11.317-10.032-19.302-10.032-6.138 0-11.679 2.395-15.886 6.226 1.963-.527 3.988-.898 6.117-.898 7.984 0 15.012 3.98 19.302 10.033 1.413-.336 2.867-.559 4.382-.559 10.464 0 18.947 8.482 18.947 18.947 0 2.213-.452 4.306-1.149 6.279.07.057.126.128.195.187 7.815 2.473 13.517 9.698 13.517 18.331 0 4.09-1.289 7.869-3.458 10.991a29.605 29.605 0 0 1-1.656 5.65c.723 4.752 1.346 9.144 1.731 12.426 5.461.628 9.675.928 10.062.412.471-.628-.583-8.689-2.023-18.167a29.492 29.492 0 0 0 1.656-5.651z" fill="#71be63"/><path fill="#de7e68" d="M275.407 195.214l42.632-42.632 85.262 85.263v33.158H275.407z"/><path fill="#99645f" d="M306.443 269.424H407.84v4.784H306.443z"/><path fill="#ecf0f1" d="M303.828 271.003h-56.841v-37.896l28.42-14.209 28.421 14.209z"/><path d="M454.421 129.649c-2.603 0-5.066.511-7.421 1.257-7.471-10.74-19.861-17.801-33.935-17.801-14.069 0-26.46 7.061-33.931 17.801-2.359-.746-4.818-1.257-7.421-1.257-13.704 0-24.814 11.106-24.814 24.81H479.23c0-13.704-11.105-24.81-24.809-24.81zM140.617 52.628c-2.603 0-5.066.511-7.421 1.257-7.471-10.74-19.861-17.801-33.935-17.801-14.069 0-26.46 7.061-33.931 17.801-2.359-.746-4.818-1.257-7.421-1.257-13.704 0-24.814 11.106-24.814 24.81h132.331c.001-13.704-11.105-24.81-24.809-24.81z" fill="#ddfbfa"/><path d="M273.547 124.82c-.813 0-1.583.159-2.315.391-2.329-3.348-6.193-5.549-10.582-5.549-4.388 0-8.252 2.201-10.581 5.549-.735-.231-1.504-.391-2.314-.391a7.737 7.737 0 0 0-7.738 7.737h41.267a7.74 7.74 0 0 0-7.737-7.737zM182.567 58.665c-1.925 0-3.747.483-5.48 1.186-5.515-10.167-14.662-16.849-25.053-16.849-10.389 0-19.538 6.682-25.051 16.849-1.741-.703-3.561-1.186-5.479-1.186-10.119 0-18.32 10.519-18.32 23.494h97.703c-.007-12.975-8.211-23.494-18.32-23.494z" fill="#fff"/><path d="M148.113 79.95c-1.391 0-2.704.273-3.96.67-3.989-5.732-10.603-9.5-18.115-9.5-7.516 0-14.126 3.768-18.118 9.5-1.257-.397-2.57-.67-3.961-.67-7.314 0-13.248 5.931-13.248 13.248h70.649c0-7.317-5.932-13.248-13.247-13.248z" fill="#e4fcfb"/><path d="M79.383 111.156c-1.925 0-3.747.483-5.48 1.186-5.515-10.167-14.663-16.849-25.053-16.849-10.389 0-19.538 6.682-25.051 16.849-1.741-.703-3.561-1.186-5.479-1.186C8.201 111.156 0 121.675 0 134.649h97.703c-.007-12.974-8.212-23.493-18.32-23.493zM614.378 93.722c-.813 0-1.583.159-2.315.391-2.328-3.348-6.192-5.549-10.581-5.549-4.388 0-8.253 2.201-10.581 5.549-.735-.231-1.504-.391-2.314-.391a7.737 7.737 0 0 0-7.737 7.737h41.267c-.004-4.273-3.47-7.737-7.739-7.737zM444.35 17.674c-1.676 0-3.262.445-4.771 1.093-4.799-9.369-12.763-15.526-21.808-15.526-9.043 0-17.009 6.158-21.807 15.526-1.516-.647-3.1-1.093-4.771-1.093-8.808 0-15.946 9.693-15.946 21.65h85.05c-.005-11.956-7.148-21.65-15.947-21.65z" fill="#fff"/><path d="M519.521 105.851c-1.392 0-2.704.273-3.96.67-3.99-5.732-10.604-9.5-18.115-9.5-7.516 0-14.127 3.768-18.118 9.5-1.257-.397-2.569-.67-3.961-.67-7.314 0-13.247 5.931-13.247 13.248h70.648c0-7.318-5.932-13.248-13.247-13.248z" fill="#e4fcfb"/><path d="M316.31 24.933a5.42 5.42 0 0 0-1.638.278c-1.649-2.371-4.383-3.929-7.49-3.929-3.105 0-5.841 1.558-7.49 3.929-.521-.164-1.063-.278-1.638-.278a5.479 5.479 0 0 0-5.478 5.478h29.21a5.476 5.476 0 0 0-5.476-5.478zM591.175 49.599c-1.642 0-3.188.322-4.674.791-4.705-6.763-12.512-11.21-21.37-11.21-8.865 0-16.668 4.447-21.372 11.21-1.485-.469-3.034-.791-4.673-.791-8.629 0-15.63 6.997-15.63 15.627h83.345c0-8.63-6.996-15.627-15.626-15.627z" fill="#fff"/><path d="M386.062 28.919c-1.077 0-2.095.212-3.07.52-3.088-4.44-8.213-7.361-14.031-7.361-5.819 0-10.943 2.92-14.032 7.361-.975-.308-1.993-.52-3.069-.52-5.666 0-10.26 4.594-10.26 10.26h54.722c-.001-5.665-4.594-10.26-10.26-10.26z" fill="#ddfbfa"/><path fill="#99645f" d="M405.524 245.092l-87.485-87.487-44.856 44.857-5.024-5.023 49.88-49.879 92.51 92.509zM306.089 238.209l-30.682-15.341-30.682 15.341-3.174-6.355 33.856-16.928 33.856 16.928z"/><path fill="#63a0b5" d="M289.618 199.95h14.21v18.948h-14.21z"/><path d="M305.012 220.082h-16.579v-21.315h16.579v21.315zm-14.21-2.369h11.842v-16.58h-11.842v16.58z" fill="#556483"/><path fill="#556483" d="M289.618 203.503h14.21v2.368h-14.21z"/><path fill="#63a0b5" d="M313.302 199.95h14.21v18.948h-14.21z"/><path d="M328.696 220.082h-16.579v-21.315h16.579v21.315zm-14.21-2.369h11.842v-16.58h-11.842v16.58z" fill="#556483"/><path fill="#556483" d="M313.302 203.503h14.21v2.368h-14.21z"/><path fill="#63a0b5" d="M336.985 199.95h14.21v18.948h-14.21z"/><path d="M352.379 220.082h-16.578v-21.315h16.578v21.315zm-14.209-2.369h11.841v-16.58H338.17v16.58z" fill="#556483"/><path fill="#556483" d="M336.985 203.503h14.21v2.368h-14.21z"/><path fill="#63a0b5" d="M322.775 237.845h14.21v18.946h-14.21z"/><path d="M338.17 257.977h-16.578V236.66h16.578v21.317zm-14.211-2.37h11.843v-16.578h-11.843v16.578z" fill="#556483"/><path fill="#556483" d="M322.775 241.396h14.21v2.369h-14.21z"/><path fill="#63a0b5" d="M346.459 237.845h14.21v18.946h-14.21z"/><path d="M361.853 257.977h-16.578V236.66h16.578v21.317zm-14.209-2.37h11.842v-16.578h-11.842v16.578z" fill="#556483"/><path fill="#556483" d="M346.459 241.396h14.21v2.369h-14.21z"/><path fill="#63a0b5" d="M370.143 237.845h14.21v18.946h-14.21z"/><path d="M385.539 257.977H368.96V236.66h16.579v21.317zm-14.212-2.37h11.842v-16.578h-11.842v16.578z" fill="#556483"/><path fill="#556483" d="M370.143 241.396h14.21v2.369h-14.21z"/><path fill="#63a0b5" d="M256.46 237.845h14.209v18.946H256.46z"/><path d="M271.854 257.977h-16.579V236.66h16.579v21.317zm-14.21-2.37h11.842v-16.578h-11.842v16.578z" fill="#556483"/><path fill="#556483" d="M256.46 241.396h14.209v2.369H256.46z"/><path fill="#63a0b5" d="M280.145 237.845h14.21v18.946h-14.21z"/><path d="M295.538 257.977H278.96V236.66h16.578v21.317zm-14.21-2.37h11.842v-16.578h-11.842v16.578z" fill="#556483"/><path fill="#556483" d="M280.145 241.396h14.21v2.369h-14.21z"/><path d="M275.567 261.365c-1.831 0-3.563.36-5.222.884-5.256-7.555-13.974-12.522-23.875-12.522s-18.62 4.968-23.875 12.522c-1.659-.523-3.391-.884-5.223-.884-9.642 0-17.458 7.816-17.458 17.458h93.11c.001-9.641-7.815-17.458-17.457-17.458z" fill="#71be63"/><path d="M264.372 261.364c-1.832 0-3.563.36-5.222.884-4.229-6.08-10.75-10.335-18.277-11.824-7.526 1.489-14.048 5.744-18.277 11.824-1.66-.523-3.391-.884-5.223-.884-9.642 0-17.458 7.817-17.458 17.459h81.916c0-9.641-7.817-17.459-17.459-17.459z" fill="#43ab5f"/><path d="M274.708 278.737c0-5.607 4.546-10.153 10.154-10.153.847 0 1.656.133 2.442.33 2.649-2.861 6.405-4.682 10.613-4.682 8.011 0 14.505 6.494 14.505 14.505h-37.714z" fill="#71be63"/><path d="M295.379 264.504a14.496 14.496 0 0 0-8.076 4.41c-.787-.195-1.595-.33-2.442-.33-5.607 0-10.153 4.546-10.153 10.153h32.472c.001-7.085-5.085-12.964-11.801-14.233zM198.915 255.333c-.726 0-1.412.136-2.071.334-2.083-2.857-5.54-4.735-9.464-4.735-3.925 0-7.381 1.878-9.465 4.735-.658-.198-1.343-.334-2.07-.334-3.822 0-6.92 2.954-6.92 6.602h36.912c-.001-3.647-3.1-6.602-6.922-6.602z" fill="#43ab5f"/><path d="M162.945 46.289c0-16.31 13.223-29.533 29.535-29.533 2.462 0 4.816.39 7.102.956 7.707-8.321 18.633-13.613 30.87-13.613 23.303 0 42.191 18.891 42.191 42.19H162.945z" fill="#e4fcfb"/><path d="M377.489 69.294a7.4 7.4 0 0 1 7.4-7.4c.617 0 1.209.098 1.78.24 1.931-2.084 4.669-3.411 7.732-3.411 5.841 0 10.573 4.733 10.573 10.571h-27.485z" fill="#fff"/><circle cx="327.204" cy="350.435" r="3.947" fill="#94d75b"/><circle cx="373.337" cy="342.458" r="3.948" fill="#94d75b"/><circle cx="298.265" cy="346.011" r="3.948" fill="#71be63"/><circle cx="403.301" cy="291" r="3.948" fill="#71be63"/><circle cx="327.878" cy="306.025" r="3.948" fill="#94d75b"/><circle cx="472.468" cy="348.084" r="3.947" fill="#94d75b"/><circle cx="543.053" cy="271.002" r="3.948" fill="#71be63"/><circle cx="224.559" cy="338.765" r="3.948" fill="#71be63"/><circle cx="166.918" cy="270.813" r="2.272" fill="#71be63"/><circle cx="197.489" cy="333.28" r="3.948" fill="#94d75b"/><circle cx="417.771" cy="285.294" r="2.73" fill="#b0eb81"/><circle cx="268.342" cy="299.752" r="2.731" fill="#94d75b"/><circle cx="379.98" cy="310.968" r="2.731" fill="#94d75b"/><circle cx="576" cy="312.219" r="2.73" fill="#b0eb81"/><path d="M457.997 297.02a2.73 2.73 0 1 1 0 0zM457.997 297.02a2.73 2.73 0 1 1 0 0z" fill="#94d75b"/><circle cx="496.366" cy="306.1" r="2.73" fill="#b0eb81"/><circle cx="185.291" cy="308.83" r="2.73" fill="#94d75b"/><circle cx="185.291" cy="272.866" r="2.73" fill="#a9df7c"/><circle cx="483.618" cy="263.502" r="2.73" fill="#b0eb81"/><circle cx="21.997" cy="260.771" r="2.731" fill="#94d75b"/><path d="M18.049 336.819a3.947 3.947 0 0 0 0-7.894c-.037 0-.071.01-.108.011v7.873c.037.001.071.01.108.01z" fill="#43ab5f"/><path d="M18.049 336.819a3.947 3.947 0 0 0 0-7.894c-.037 0-.071.01-.108.011v7.873c.037.001.071.01.108.01z" opacity=".63" fill="#71be63"/><circle cx="42.053" cy="269.422" r="3.947" fill="#94d75b"/><circle cx="562" cy="342.853" r="3.948" fill="#94d75b"/><circle cx="75.431" cy="282.572" r="3.948" fill="#71be63"/><circle cx="205.819" cy="296.044" r="3.948" fill="#94d75b"/><circle cx="350.409" cy="338.104" r="3.947" fill="#94d75b"/><circle cx="595.053" cy="271.002" r="3.948" fill="#71be63"/><circle cx="75.431" cy="338.905" r="3.948" fill="#71be63"/><circle cx="75.43" cy="323.299" r="3.948" fill="#94d75b"/><circle cx="38.106" cy="273.369" r="2.731" fill="#94d75b"/><circle cx="257.921" cy="300.988" r="2.731" fill="#94d75b"/><circle cx="142.672" cy="299.508" r="2.73" fill="#b0eb81"/><path d="M335.938 287.039a2.73 2.73 0 1 1 0 0zM335.938 287.039a2.73 2.73 0 1 1 0 0z" fill="#94d75b"/><circle cx="374.307" cy="296.119" r="2.73" fill="#b0eb81"/><circle cx="609.73" cy="279.843" r="2.73" fill="#94d75b"/><circle cx="30.365" cy="304.375" r="2.731" fill="#94d75b"/><path d="M166.522 256.662h7.583c-2.064-4.421-6.299-.778-7.583 0z" fill="none"/><path d="M140 91.032c53.239-1.187 320.767-16.729 350.982-11.843 11.589 1.871 12.625 7.514-.513 13.03-20.281 8.503-104.413 37.895-132.845 43.23-28.436 5.325 33.579-5.889 68.235-32.57 9.036-6.964 1.297-10.378-6.262-11.717-25.152-4.458-279.597-.13-279.597-.13z" fill="#2bbe69"/><g fill="#3a6f81"><path d="M276.133 96.882l-.185.391-.43.433v.142c-.152.027-.297.124-.434.29-.03.067-.077.103-.145.103-.122.219-.417.385-.884.492a.879.879 0 0 1-.74.35h-.101v.124h-.413l-.247.187-.227.02c0 .109-.047.16-.142.16l-.185.148h-.474l-.287.266-.842.163-.103.085-.473-.042-.042.103-.141.247c-.068-.041-.27-.075-.596-.102l-.187.102-.288.103-.187.123-.266.084-.123.388.205.391-.103.49.146.555-.125.085.163.248v.413l.085.204v.37l.47-.04a.313.313 0 0 1 .103.225c0 .204-.144.31-.431.31h-.125l-.327.125-.287-.517-.372-.8v-.843l-.206-.412.144-.165-.083-.412.042-.286-.145-.187-.843-.142-.225-.333 1.027-.081-.104-.062c.029-.03.07-.043.124-.043.07 0 .115.014.146.043v-.472l.123-.247.062-1.237.124-.14-.04-.946.082-.513.04-1.128.125-.333.164-.102-.041-.31c.012-.136.095-.205.247-.205.463 0 .698.158.698.474 0 .094-.083.299-.247.616a1.322 1.322 0 0 0-.082.328c0 .113.076.296.225.556l-.185.187-.021.555-.268.246.083.432-.164.472.08.453-.08.35.043.267-.146.228c.013.217.11.347.287.387l.515-.306h.433a.94.94 0 0 1 .697-.286l.145-.126a.81.81 0 0 0 .287.037c.275 0 .549-.114.823-.346l.329-.022.268-.225h.268l.06-.105 1.09-.308c.193-.012.289-.063.289-.143a.383.383 0 0 0 .102-.185c.066.011.143.02.225.02.18 0 .294-.121.35-.372.218-.025.336-.065.35-.122.014-.055.068-.102.165-.143l.122.103.105-.31.144-.124.083-.453-.186-.455-.267-.366-.207-.04-.37-.33-.762-.33c-.493-.37-1.013-.577-1.562-.616v.143l-.35-.248-.473.02-.288-.184h-.328l-.287-.164h-.29a.816.816 0 0 1-.225-.04l-.125-.125-.801-.103a7.502 7.502 0 0 0-.616.226l-.474-.288-.287.164-.227-.144-.432.123v.063h-.185l-.412.226-.412.063-.267.163-.165-.226a1.783 1.783 0 0 1-.166-.512l.207-.288v-.14c.028-.055.146-.092.36-.112.213-.02.402-.072.565-.155.165.03.262.039.288.039a.254.254 0 0 0 .185-.08l.186.08.207-.039c.082 0 .143.039.185.124h.989l.594.02.679.125a.75.75 0 0 1 .31.206l.142-.144h.083c.15 0 .226.027.226.082a.136.136 0 0 1-.021.063h.289l.474.14.452.043.06.125h.556l.433.286.37.042.104.164h.102c.34 0 .589.135.739.411l.267-.142v.246l.205.083.31.227h.247l.185.286.66.436v.224l.43.63zM292.145 103.05c0 .042-.207.235-.618.578l-.226-.083-.268.413-.33.04-.306.14-.596-.14-.33.14-.103.189c-.193-.151-.316-.227-.37-.227-.028.013-.043.034-.043.063l-.102-.021-.186.187-.187-.227-.141.061c-.124-.095-.235-.142-.33-.142h-.66l-.185-.206-.226.04-.331-.186-.205.105-.143-.248h-.31l-.186-.224h-.247c-.013 0-.053-.053-.123-.159a.795.795 0 0 0-.287-.254l-.617-.331a1.712 1.712 0 0 1-.39-.245 2.19 2.19 0 0 1-.452-.66h-.25l-.328-.413-.596-.47-.678-.785-.186-.06-.37-.39-.368-.127a.49.49 0 0 1-.246.083.306.306 0 0 1-.207-.083v.022c0 .013-.013.02-.042.02h-.206l-.205-.287.104-.144.04-.267.247-.082v-.123l.267-.062a.394.394 0 0 1 .247-.104c.054 0 .11.016.173.053.063.034.1.05.113.05.027 0 .048-.021.062-.061.084.247.37.37.864.37.232 0 .52-.02.863-.064l.187-.062v-.062l1.539-.062.289-.143.369-.082.474-.041.122.041.35-.123.083-.126.246.021.309-.122h.227c.164 0 .247-.063.247-.186v-.08a.867.867 0 0 0 .247-.082l.33-.107c.299-.162.45-.356.45-.574 0-.152-.076-.301-.228-.453l-.676-.658h-.165a3.169 3.169 0 0 0-.596-.287h-.204l-.413-.187h-.246l-.268-.207h-.471l-.185-.083-1.133-.083-.185-.104-.122.063-.227-.063-.227.063-.597-.063-.614.104-.331-.104-.37.042-.33-.042-.245.104-.187-.062-.37.226-.287-.042-.143.29-.163.223.12.289-.061 1.19.143 1.028-.143.474-.081.412-.146 2.632.166 1.5-.122.804v.206c0 .109-.134.164-.394.164h-.081l.102-.803-.102-.31-.187-.841.124-.083c-.164-.206-.248-.343-.248-.411.014-.057.036-.134.063-.23l.163-.183-.163-.33h-.021a.067.067 0 0 1-.042-.02c0-.083.083-.273.247-.577a.53.53 0 0 1-.143-.39c0-.096.02-.206.063-.328v-.163c.096-.18.144-.322.144-.434 0-.124-.048-.281-.144-.475l.144-.345-.063-.31.125-.103a.392.392 0 0 1-.062-.207c0-.097.047-.263.142-.491l-.205.039-.123-.556.102-.39-.102-.842.102-.104c-.218-.22-.384-.331-.494-.331h-.062l-.143.144-.472-.04-.31.388a.75.75 0 0 0-.39-.204.646.646 0 0 1-.165-.33c0-.123.048-.233.145-.327l.328-.226.619-.063.84-.042.188-.142v-.052c0-.203.157-.31.474-.31h.244l.082.248c.084.125.178.188.289.188a.28.28 0 0 0 .102-.021l.33-.165.514.125.8-.125 1.068.125 1.503.04.759.142h.576l.228.187c.028-.083.068-.124.124-.124.054 0 .123.04.205.124a.36.36 0 0 0 .085.244l.204.042v-.267l.822.33.289.226.04-.062.205.104.332.042.14.164.186.04.269.413c.274.422.412.69.412.802a.723.723 0 0 1-.227.533l-.454.454-.328.369-.432.022-.288.144-.08.168h-.575l-.208.188-.453.14c-.19 0-.41.063-.658.188l-.267.246-.33-.226-.287.144a.277.277 0 0 0-.163-.064c-.083 0-.188.064-.311.187l-.286-.123-.268.123-.102-.123-.37.207-.248-.042c-.027 0-.067-.01-.124-.02h-.123a1.23 1.23 0 0 0-.307.04l.206.288.493.432.143.248.8.61.187.334.187.205.206.493.555.02.617.639.329.142.452.289.433.123.615.245.227-.038.104.082.04-.042.084.146.288-.063.062.205.228-.142.244.062.7-.062.289.062.986-.165.739-.208.042.126.142-.25h.309l.125-.285c.058.12.088.218.088.285zM304.919 98.61l-.185.452-.063.615-.186.185-.208.66a.899.899 0 0 1-.11.268c-.035.04-.136.081-.297.122l-1.212.965-.412.208-.29.262v-.121l-.842.659-.37.165-.881.473a.913.913 0 0 0-.37-.083c-.097 0-.17.035-.217.105a.311.311 0 0 1-.153.122l-.188-.041-.33.309-.165-.083-.082.105h-.347l-.186.184-.62-.042-.985.187a.654.654 0 0 0-.184-.02c-.07 0-.174.013-.312.042l-.35-.062-.082-.084-.862-.143-.411-.207h-.186v-.39l-.29.103-.222-.312-.434-.203-.143-.474-.042-.576-.103-.144-.04-.821.289-.885-.043-.432.186-.164-.143-.35.349-.287v-.287l.124-.268v-.227l.143-.245-.06-.084.102-.064.433-.985.8-1.277c.138-.041.262-.164.37-.372l.333-.246-.042-.184h.244l-.062-.124c.165-.163.379-.286.638-.37l.144-.164h-.021c.04-.013.33-.057.86-.125l.475-.062.597.083.453-.022h.535c.135.027.232.042.287.042.19 0 .335-.062.43-.185.07.066.146.1.229.1.027 0 .06-.006.103-.019.014.14.082.205.206.205.054.057.206.097.452.123l.143.146.312.04h.388l.556.29h-.123l.453.325.123.226.307.146.144.246.35.145.493.84.287.432c.344 1.03.515 1.53.515 1.502v.151zm-.66-.538l-.184-.469c0-.028.006-.054.02-.083v-.062a.457.457 0 0 0-.226-.41l-.247-.167-.146-.389-.124-.065-.061-.223-.575-.615-.515-.435-.163.065-.743-.473c-.19-.027-.498-.116-.923-.267 0 .011-.02.02-.062.02-.013 0-.116-.013-.31-.042l-.104.063-.308-.104-.206.104a1.99 1.99 0 0 0-.37-.082.548.548 0 0 0-.176.04.548.548 0 0 1-.174.04c-.068 0-.117-.012-.145-.04a1.345 1.345 0 0 0-.37.268c-.055.083-.178.162-.37.246l-.286-.066-.29.19-.327-.041-.185.08c-.18.18-.49.405-.927.681l-.206.37.019.286-.43.187-.185.227c-.098.22-.222.405-.37.555v.248l-.145.06-.144.186-.184.596-.35.227c-.04.838-.13 1.356-.267 1.563-.123.124-.207.39-.245.805l-.125.37.125.246.06.369.227.308.063.328.328.332c.52.285.96.437 1.315.453l.659-.163.143.14h.329v.147h.33l.082-.25.33-.038.82.1c.07-.136.154-.204.249-.204h.042a.049.049 0 0 0 .039.019c.315-.19.533-.285.659-.285h.082l.494-.311.35-.021.267-.227.473-.021a.838.838 0 0 0 .503-.184l.193-.165.268-.063.146-.387.06.019.042-.143.227-.083.163-.188.187.062.102-.203.33-.25.555-.616.328-.124.165-.347.267-.188-.063-.372.142-.327-.082-.595.13-.211zM316.928 96.882l-.182.391-.433.433v.142c-.153.027-.296.124-.433.29-.028.067-.075.103-.144.103-.123.219-.417.385-.884.492-.18.234-.425.35-.741.35h-.101v.124h-.412l-.246.187-.227.02c0 .109-.05.16-.146.16l-.185.149h-.473l-.286.265-.842.164-.105.084-.471-.04-.04.101-.146.248c-.067-.042-.266-.076-.596-.103l-.184.103-.286.102-.188.124-.267.083-.123.39.207.39-.103.49.144.555-.125.084.165.25v.411l.083.205v.37l.47-.04c.07.066.105.141.105.224 0 .205-.144.31-.431.31h-.125l-.328.126-.288-.518-.371-.8v-.842l-.206-.413.143-.164-.081-.413.04-.285-.144-.187-.841-.143-.228-.332 1.029-.082-.103-.061c.026-.03.068-.044.122-.044.07 0 .117.015.144.044v-.473l.123-.246.063-1.237.123-.14-.04-.946.082-.513.042-1.128.123-.333.164-.102-.04-.31c.013-.136.094-.205.247-.205.465 0 .699.158.699.474 0 .094-.084.299-.247.616a1.312 1.312 0 0 0-.084.328c0 .113.077.296.228.556l-.186.187-.021.555-.266.246.083.432-.163.472.08.453-.08.35.039.266-.141.229c.012.217.109.347.287.387l.513-.306h.432a.948.948 0 0 1 .7-.287l.143-.125a.828.828 0 0 0 .288.037c.274 0 .547-.115.824-.347l.328-.02.266-.227h.269l.06-.104 1.09-.309c.19-.011.288-.062.288-.142a.353.353 0 0 0 .102-.186c.067.012.145.021.228.021.178 0 .293-.122.35-.373.218-.024.334-.064.347-.12.014-.057.069-.104.166-.145l.123.104.104-.31.142-.124.083-.453-.185-.455-.267-.366-.206-.04-.37-.33-.762-.33c-.493-.37-1.013-.577-1.562-.616v.142l-.35-.247-.472.02-.288-.184h-.33l-.288-.164h-.287a.835.835 0 0 1-.228-.04l-.124-.125-.801-.104a7.248 7.248 0 0 0-.615.227l-.473-.289-.29.165-.224-.144-.431.122v.064h-.186l-.413.226-.412.063-.264.163-.165-.226a1.724 1.724 0 0 1-.166-.512l.208-.288v-.14c.026-.057.145-.094.36-.114a1.58 1.58 0 0 0 .565-.153c.163.03.26.037.287.037a.258.258 0 0 0 .186-.08l.186.08c.136-.023.206-.037.206-.037.083 0 .142.037.183.122h.988l.596.022.68.124a.76.76 0 0 1 .309.206l.143-.144h.083c.15 0 .227.027.227.082a.204.204 0 0 1-.02.063h.287l.473.14.452.043.063.125h.555l.43.286.37.042.105.164h.104c.342 0 .588.135.739.411l.267-.142v.246l.206.083.309.227h.246l.187.286.657.436v.224l.424.63zM328.789 93.573a.368.368 0 0 1-.104.226h-.225l-.145.103-.287-.104-.33.02a.988.988 0 0 1-.226-.02c-.083-.08-.151-.122-.206-.122-.054 0-.143.042-.267.122a.551.551 0 0 0-.266-.08c-.082 0-.205.034-.37.1a1.643 1.643 0 0 1-.434.124c-.053 0-.142-.005-.265-.017a3.057 3.057 0 0 0-.288-.023c-.082 0-.138.041-.164.123a.487.487 0 0 0-.328-.123c-.193 0-.392.083-.598.248l-.203-.105-.188.105-.472-.145-.328.188h-.372c-.15.04-.385.093-.697.162l-.331.165-.186-.122-.37.287-.368-.02-.27.494.105.39c-.14.04-.205.217-.205.534 0 .013.007.04.02.083v.083a3.544 3.544 0 0 0-.02.432l.06.083-.144.125.083.122c-.096.22-.144.405-.144.555 0 .3.18.453.537.453.054 0 .133-.014.235-.04.104-.027.183-.04.238-.04l.154.031c.102.02.21.04.318.05l.308-.12.33.102.208-.063.207.021.307-.06.188.038h.038c.084 0 .207-.042.37-.124.083.04.218.062.412.062.029 0 .083-.006.165-.02h.204l.267-.085c.274.057.428.084.453.084.042 0 .083-.042.124-.125.384.071.589.105.615.105a.914.914 0 0 0 .227-.02c.177 0 .412.014.699.041l.37-.084c.026-.083.109-.123.245-.123a2.7 2.7 0 0 1 .475.061l.186-.04.266.102.267-.062-.062.246c-.233.096-.41.145-.535.145a.934.934 0 0 1-.206-.042 2.63 2.63 0 0 0-.31-.06l-.534.265-.453-.04-.268.104-.183-.04-.332.185-.228-.062-.822.016a.373.373 0 0 0-.268.125l-.287-.083-.143.145-.267-.084-.143.145-.391-.186-.287.186-.33-.082a.444.444 0 0 0-.164-.02c-.207 0-.423.055-.658.161l-.74.064-.163-.083-.163.083-.452.083-.166.39.187 1.068-.101.145.12.331-.017.368.1.143.083.556.188.208-.102.348.205-.062.369.574c.52.397.975.598 1.359.598.053 0 .178.02.369.061l.27-.04.163-.04.08-.104h.188c.179 0 .3-.009.37-.019l.349-.229c.179 0 .287-.026.33-.083l.348-.08.39-.31.103-.146.206-.183.267-.024.514-.449c.397-.11.642-.33.74-.66l.144.082.062-.329.267-.018.042-.31h.06c.123 0 .215.081.268.245l-.697.905-.248.062-.163.246-.33.388-.514.351-.328.308-.144-.02-.247.268-.943.391-.228.287-.331-.102-.103.164-.083-.02-.163.142-.555-.122-.68.31-.494-.188-.842-.433c-.355-.176-.657-.513-.903-1.004-.163-.356-.37-.954-.616-1.79l.06-.287-.142-.39.143-.185-.143-.803-.041-.312-.325-.41a.698.698 0 0 1-.023-.188c0-.203.058-.35.174-.44.115-.089.173-.127.173-.113v-.12c0-.097.062-.16.184-.187l.064-.286-.064-.123v-.577l-.06-.247.227-.619.084-.327.082-.228-.268-.329-.491.042c-.191 0-.29-.096-.29-.289 0-.124.09-.286.267-.494a.315.315 0 0 0 .145-.103c.247-.095.383-.144.412-.144.04 0 .087.035.143.104.04-.097.097-.145.165-.145.205 0 .308-.06.308-.185 0-.04-.021-.089-.062-.143l.68.041.119.226c.223-.152.438-.226.66-.226h.06a.26.26 0 0 0 .086.018l.432-.102c.112 0 .248-.048.413-.145v.145c.123-.109.293-.164.513-.164h.186c.083.014.137.02.165.02h.062l1.953-.186.453.185.143-.247c.042.097.097.144.166.144.01 0 .076-.012.184-.039l.226.123.144-.123.37.142.248-.062.123.105.657-.062.103.062.372.083c.022.02.073.052.126.108zM345.27 103.05c0 .042-.207.235-.618.578l-.226-.083-.266.413-.331.04-.307.14-.598-.14-.328.14-.104.189c-.191-.151-.313-.227-.37-.227a.064.064 0 0 0-.04.063l-.105-.021-.183.187-.187-.227-.143.061c-.124-.095-.234-.142-.328-.142h-.66l-.187-.206-.225.04-.33-.186-.208.105-.142-.248h-.307l-.19-.225h-.242c-.014 0-.058-.052-.125-.158a.814.814 0 0 0-.288-.256l-.617-.332a1.58 1.58 0 0 1-.385-.243c-.167-.151-.317-.372-.456-.66h-.245l-.331-.414-.595-.47-.678-.783-.188-.064-.366-.386-.373-.126a.468.468 0 0 1-.245.082.31.31 0 0 1-.206-.082v.021c0 .014-.012.022-.042.022h-.206l-.207-.288.104-.143.04-.268.249-.082v-.124l.266-.063a.397.397 0 0 1 .246-.104.34.34 0 0 1 .176.053.452.452 0 0 0 .116.05c.026 0 .046-.021.058-.063.083.248.373.372.866.372.233 0 .519-.02.86-.062l.187-.063v-.06l1.542-.062.29-.141.37-.082.47-.042.125.042.348-.125.083-.125.248.02.308-.121h.226c.165 0 .249-.063.249-.185v-.083a.922.922 0 0 0 .247-.083l.327-.105c.302-.165.454-.36.454-.575 0-.153-.075-.303-.224-.455l-.68-.656h-.166a3.18 3.18 0 0 0-.594-.288h-.207l-.411-.186h-.248l-.268-.205h-.47l-.185-.083-1.131-.082-.188-.105-.123.063-.227-.063-.225.063-.597-.063-.615.105-.33-.105-.368.042-.333-.042-.245.105-.188-.063-.37.227-.288-.041-.144.29-.162.226.124.286-.062 1.19.144 1.029-.144.47-.082.415-.143 2.63.163 1.5-.123.804v.206c0 .11-.132.166-.391.166h-.083l.102-.803-.102-.311-.188-.84.125-.083c-.163-.208-.248-.345-.248-.413.013-.055.036-.132.063-.228l.165-.181-.165-.331h-.022c-.011 0-.028-.01-.041-.021 0-.084.084-.274.248-.577a.529.529 0 0 1-.143-.39c0-.096.018-.206.062-.328v-.163c.096-.18.144-.323.144-.433 0-.124-.048-.281-.144-.475l.144-.346-.063-.311.124-.103a.384.384 0 0 1-.061-.206c0-.096.046-.262.14-.492l-.204.04-.124-.554.105-.391-.105-.843.105-.103c-.218-.221-.387-.33-.495-.33h-.063l-.142.144-.473-.042-.31.39c-.135-.122-.265-.19-.388-.205a.634.634 0 0 1-.165-.33c0-.122.047-.233.144-.33l.328-.224.617-.063.84-.04.189-.145v-.056c0-.203.156-.307.473-.307h.246l.082.246c.083.125.178.188.289.188a.22.22 0 0 0 .102-.021l.333-.165.51.125.803-.125 1.069.125 1.5.04.764.142h.575l.227.189c.026-.087.067-.125.124-.125.055 0 .124.039.206.125a.38.38 0 0 0 .083.242l.203.041v-.266l.823.33.289.225.04-.06.207.102.33.042.142.163.188.041.264.412c.274.425.413.69.413.802a.73.73 0 0 1-.227.535l-.45.452-.33.368-.433.021-.29.146-.08.167h-.577l-.205.187-.452.142c-.19 0-.411.061-.657.187l-.268.246-.33-.226-.29.143a.282.282 0 0 0-.161-.062c-.085 0-.188.062-.312.184l-.29-.122-.265.122-.103-.122-.37.207-.25-.042c-.025 0-.066-.008-.121-.018h-.124c-.094 0-.198.011-.31.038l.206.286.496.434.144.247.8.614.185.331.185.204.207.495.556.02.616.638.33.141.45.29.433.123.617.246.227-.038.103.082.04-.044.085.147.288-.063.063.203.225-.14.247.06.7-.06.288.06.987-.164.74-.208.04.127.145-.25h.309l.125-.287a.824.824 0 0 1 .08.29zM358.002 94.189l-.104.227-.268.04h-.615l-.287.063-.245-.063-1.273.104-.434-.104c-.124.055-.378.123-.765.206h-.611l-.371-.142c0 .068-.056.107-.164.122-.11.013-.276.048-.504.104-.226.053-.4.082-.526.082l-.412-.164-.35.164-.04.124h-.185l-.104.206-.083 1.338.083.184-.042.227.02.596-.061.595v.188a.397.397 0 0 1-.104.264l-.04.248.163.266-.041.33-.143.101c0 .084.042.188.124.31l-.124.208v.228l-.163.246.102.575-.042.841-.142.535c.026.056.04.097.04.124a.36.36 0 0 1-.03.114.293.293 0 0 0-.03.112c0 .016.006.04.02.083a.354.354 0 0 1 .018.104.542.542 0 0 1-.092.245.574.574 0 0 0-.09.248c0 .012.009.021.022.021v.04l.06.29c-.066.178-.102.312-.102.41 0 .084.01.234.042.451a.776.776 0 0 1-.208-.03.678.678 0 0 0-.122-.029c-.112 0-.164-.202-.164-.598.028-.195.04-.295.04-.309 0-.11-.012-.275-.04-.494a4.898 4.898 0 0 1-.04-.47c0-.153.015-.264.04-.33l.083-1.112-.124-.203a.232.232 0 0 1-.041-.105c0-.083.035-.143.104-.185-.057-.069-.086-.132-.086-.188 0-.039.04-.08.126-.123a1.035 1.035 0 0 1-.084-.265c0 .083.049-.087.145-.512a1.663 1.663 0 0 1-.021-.33c.04-.097.104-.25.187-.455-.112 0-.164-.09-.164-.268 0-.313.04-.492.123-.533v-.843l-.123-.413.123-.862-.123-.617.123-.473c-.055-.192-.15-.289-.288-.289-.067 0-.13.033-.186.104l-.45.04-.167.103-.246-.019-.248.02v.062h-.163c-.221 0-.404-.042-.555-.124l-.042.124-.431-.124-1.193-.04-.47.142c-.36-.315-.536-.52-.536-.615 0-.028.027-.139.08-.33h.329l1.465.288.346-.124.967.04.904.084.596-.229h.164l.163-.47.288.082.063.205.123-.06.185.203.289.145.328-.105.37.083.209.188.122-.165c.52-.096.772-.143.759-.143l.474.041c.137.055.26.081.37.081h.104c.123-.039.226-.059.308-.059.042 0 .095.005.156.016a.623.623 0 0 0 .132.021c.068 0 .112-.02.125-.062l.408-.062.475.102c.053.057.1.084.142.084a.153.153 0 0 0 .062-.02h.04l.288-.08.37.057 1.03-.02.45.083.43-.003z"/><path d="M370.128 93.243l-.164.143v.333c-.22.038-.38.122-.474.245a.587.587 0 0 1-.31.226c-.024.15-.087.226-.185.226l-.513.455-.206.346h-.185c-.138.248-.248.408-.33.475-.15.066-.285.144-.413.225l-.431.511-.473.353-.288.102-.208.39-.41.246-.31.331-.206.535-.718.884-.268.393-.208.45.124.226-.124.329.105.391-.145.451.084.535.142.166c-.163.217-.244.435-.244.646 0 .212-.03.373-.082.483.038.288.06.515.06.68l-.143.963.02.472-.08.21.144.737-.186.31.123.393-.123.205c.137.233.206.412.206.536v.061c-.014.013-.021.028-.021.04l-.144.474.123.553-.207.516.228.327-.063.742c-.013.233-.103.374-.267.434l-.121-.7-.163-.615-.04-.575-.147-.084.105-.248-.105-.35.105-.636-.145-.676.064-.58-.021-.122.02-.453-.082-.967.083-.452-.064-.532.145-.947-.186-.349.08-.411-.04-.539-.102-.285c.11-.19.167-.367.167-.534 0-.111-.037-.25-.105-.413l-.063-.329-.144-.492-.248-.209-.186-.287a.417.417 0 0 1-.287-.185l-.618-.739-.31-.187-.266-.493-.783-.782-.143-.288-.39-.493-.493-.412v-.225l-.386-.288-.25-.454c-.04-.065-.151-.136-.33-.206-.395-.215-.593-.572-.593-1.068l.019-.184h.185c.014-.098.076-.145.188-.145.123 0 .293.036.513.104l.1.33.393.162.328.538.452.33.02.43c0 .112.103.18.31.206l.205.329.31.246.987 1.483-.041.163.224.084.289.39 1.028.988c.069.066.145.164.225.287.084.124.146.185.189.185a.41.41 0 0 0 .102-.104l.266-.287.244-.455c.04-.246.09-.369.146-.369h.144c.055 0 .083-.039.083-.122v-.062c0-.042.003-.07.01-.094.009-.016.1-.106.279-.257v-.043c-.014 0-.021-.006-.021-.016 0-.043.074-.138.229-.289l.225-.104.188-.288v-.038c0-.154.156-.235.473-.249.109-.055.163-.117.163-.185a.27.27 0 0 0-.021-.104c.246-.04.414-.129.494-.268l.287-.328.143-.287c.357-.385.568-.576.639-.576h.038l.269-.37.286-.208.086-.306a.366.366 0 0 0 .186.04c.123 0 .187-.103.187-.308v-.02c0-.057.102-.105.308-.144l-.063-.124.246-.105h.228l.123-.348.493.062.143-.062.123.266.162.081zM305.153 127.224l-.084.018-.123.31.123.063-.062.454a.343.343 0 0 0-.061.205c0 .068.02.159.06.269v.247l-.102.1.103.125-.142.369.039.35-.328.659.08.04a.652.652 0 0 0-.038.246c0 .054.006.117.019.188.014.066.02.108.02.123v.041l-.226.101.226.512h-.143l.062.186-.144.27.187.347-.042.145h-.103c-.041.013-.061.055-.061.124 0 .15.08.28.246.389a.381.381 0 0 0-.188.328l-.06.475.102.328-.102.246.02.763-.102.534.207.1c-.03.14-.06.239-.092.299a.407.407 0 0 0-.053.196c0 .11.069.256.207.433l-.145.042.267.266-.101.162.287.087a1.181 1.181 0 0 1-.224.492c-.125-.042-.187-.134-.187-.267l-.268-.35-.162-.043.08-.346-.327-.37.143-.188-.206-.308.063-.434-.083-.242a4.534 4.534 0 0 1-.082-.127c0-.027.025-.066.082-.123l.083-.123-.083-.266.083-.188-.27-.205.209-.308-.02-1.378.144-1.068-.062-1.05.1-.287-.1-.083.062-.246v-.37l.082-.144-.144-.042.103-.472c-.151 0-.246-.047-.288-.144h.288l.04-.33-.143-.042.103-.245c.11-.094.164-.193.164-.289a.454.454 0 0 0-.124-.309l.124-.042v-.184h.207l.124-.287.162-.062c.123 0 .269.035.433.103a.426.426 0 0 1 .14.227zM319.907 134.44c-.011.137-.094.245-.243.328 0 .015.004.019.017.019v.04c0 .059-.165.297-.491.718l-.04.208-.228.064-.02.204c-.096.179-.211.274-.35.289-.011.082-.047.124-.103.124h-.042c-.011.108-.087.163-.225.163l-.121.246-.288.06-.288.189-.534.1-.167-.018-.14.018-.063-.08-.185-.02-.225-.29h-.104c-.056-.052-.083-.131-.083-.226-.218-.235-.33-.416-.33-.557v-.161l-.144-.266v-.124l.104-.064-.083-.287-.144-.368.02-.558-.205-.327v-.511c-.193-1.015-.29-1.625-.29-1.832v-.081a1.179 1.179 0 0 1-.038-.227.28.28 0 0 1 .02-.124l-.204-.33-.042-.247-.104-.082-.433.452-.205.288-.718.863-.29.516-.142.326-.186.31-.307.309.06.185-.144.39-.163.022v.187h-.103c-.071.083-.198.239-.392.473-.013.216-.103.348-.268.388a1.586 1.586 0 0 0-.161.434c-.042.123-.116.19-.226.206l-.084.083-.184.33a5.448 5.448 0 0 1-.64.576c-.04.218-.122.356-.244.412l-.021.1c-.015.22-.145.363-.391.434l-.206.063c-.096-.03-.174-.145-.227-.35-.054-.207-.136-.338-.246-.393l-.063-.123.166-.263-.021-.248.104-.104-.104-.185.02-.248-.165-.45.145-.268-.083-.287.104-.246.04-.595v-.104c0-.027-.04-.113-.125-.247a.373.373 0 0 0 .167-.247l-.042-.329.123-.779-.081-.147.019-.327-.104-.185.085-.66-.042-.226.062-.37-.062-.535.144-.27.37.103c.068.07.102.303.102.7l.165.263-.061.392.08.845-.141.452.062.535v.247l-.185.31.123.433-.062.142-.083.41.102.248-.102.331-.062.474.02.737.062.106.249-.125h.203l.103-.454c.152-.039.248-.114.289-.225.028-.165.132-.248.309-.248.028-.148.077-.254.145-.307.054 0 .116-.099.183-.289l.188-.187.144-.247v-.288h.019c.059 0 .118-.046.186-.144a.318.318 0 0 1 .268-.142c.055-.18.116-.305.186-.37l.288-.348.268-.575a1.212 1.212 0 0 1-.041-.209c0-.04.02-.062.063-.062l.187-.123.164-.205.062-.207v-.247c.207-.082.31-.159.31-.227a.153.153 0 0 0-.021-.062.978.978 0 0 1-.042-.145c0-.069.028-.1.086-.1.054 0 .106.016.162.06.109-.369.26-.553.453-.553.04 0 .103.012.187.04 0-.19.062-.35.185-.473.027-.084.184-.187.474-.31l.102-.166h.08l.166.206.124.084.042.144.102.042.04.391.268.164-.082.35.142.637v.593l.145.7.062.741.206.676.04.677c.068.098.15.317.246.662l.084.062v.308l.184.207-.042.142.145.084v.105a.622.622 0 0 0 .33.121.628.628 0 0 0 .31-.082.32.32 0 0 0 .103.041c.053 0 .114-.056.185-.164.192-.029.288-.083.288-.165v-.04c.028-.042.164-.112.412-.208.042-.039.11-.109.205-.204l-.017-.042c.026-.066.162-.204.41-.412l.165-.327.12-.165.269-.41.289-.147h.186l.04.287zM327.7 134.298l-.328.347c-.013.34-.125.597-.33.763-.261.658-.67 1.109-1.233 1.355l-.266.247-.247.04-.31.247-.226.023-.472.346-.164-.104-.43.208-.415-.104-.123.143-.246-.04-.248.04-.063-.062-.451-.084-.456-.37-.307-.452a.804.804 0 0 1-.207-.557v-.081l-.225-.35v-.31l-.085-.121.042-.412-.083-.33.123-.33-.082-.143.206-.328-.062-.433.122-.434.123-.164.023-.47.14-.122-.06-.126.14-.205.042-.269.164-.474.227-.552.35-.35.103-.247.163-.29.044-.204.16-.247a.657.657 0 0 0 .412-.166c.014-.234.22-.348.618-.348.438.082.698.226.778.431.21 0 .312.075.312.227l.594.018.02.19.125.138-.018.25.14.183-.017.267.04.145-.04.412.1.143v.21l.063.43-.413.228-.432-.515-.041-.66-.082-.246v-.246l-.351-.434-.346-.225-.29.124h-.245c-.316.039-.576.234-.783.576-.288.452-.471.704-.554.76l-.022.288-.163.142v.412l-.208.27-.081.288a4.412 4.412 0 0 1-.267.76l.02.328-.185.435.04.306-.083.024-.02.779-.041.024.042.182-.084.085.352.412.06.268-.06.063.205.287.163.06.019.206.659.147.432.1c.098-.096.187-.144.269-.144a1.5 1.5 0 0 1 .207.043c.122-.085.218-.123.286-.123h.08a.2.2 0 0 0 .064.018c.112-.055.288-.116.535-.184.125-.235.27-.352.433-.352a.67.67 0 0 1 .166.018c.34-.148.51-.281.51-.388.086-.15.228-.225.437-.225h.08c.248-.263.514-.598.803-1.008.15-.138.266-.331.349-.578l.186-.123.02-.266c.106.085.155.27.155.56zM331.649 136.784l-.06.062.04.227-.103.063v.163l-.143.061-.247.29-.246.016-.227.063-.063.02a.146.146 0 0 1-.112-.104c-.021-.056-.052-.082-.093-.082h-.061c0-.057-.014-.084-.041-.084-.014 0-.036.016-.061.042l-.043-.086-.081-.017.022-.104-.083-.082.06-.123-.142-.04v-.537c0-.084.082-.168.246-.258.162-.087.26-.174.288-.258l.083-.062.144.062a.537.537 0 0 0 .225.042.65.65 0 0 1 .187.102l.163.162.229.122.119.34zM260.037 121.439c-.042.04-.144.088-.311.146l-.433-.291-.552-.7-.165-.412-.063-.387-.101-.267c-.15-.18-.227-.557-.227-1.13a.59.59 0 0 1 .082-.29l.062-.596-.205-.43.062-.208-.062-.39.019-.451-.141-.144.122-.31-.122-.186.122-.185-.143-.433v-.66l-.164-.39-.021-.411c-.028-.166-.158-.324-.39-.473l-.266.33-.228.101-.698.966-.596.718-.207.433-.575.66-.638.493-.145.084-.062.348-.414.141-.06.289-.473.228-.164.39-.33.123-.473.843c-.178 0-.287.172-.33.514a.595.595 0 0 1-.144.022l-.101-.208-.228-.328.042-.265-.144-.188.144-.19-.187-.204-.103-.366-.287-.27s-.165-.211-.493-.637l-.103-.387-.226-.27-.391-.78-.412-.473-.142-.286-.391-.433-.412-.64c-.235-.356-.418-.533-.555-.533a.695.695 0 0 0-.257.048.904.904 0 0 1-.154.054h-.021v.245c0 .453-.061.795-.186 1.03l-.432.801.104.514-.143.367-.412 1.379-.166.452-.061.31-.267.66-.33.573.04.454-.246.558c-.07.149-.103.243-.103.287 0 .11.06.2.186.265-.261.33-.44.494-.536.494-.055 0-.104-.056-.144-.164-.08-.067-.121-.191-.121-.367 0-.028.027-.115.082-.258.055-.145.095-.291.122-.442.042-.204.105-.37.187-.491.083-.124.122-.18.122-.163v-.496c0-.273.14-.487.413-.635v-.328l.124-.474a.294.294 0 0 1-.02-.124c0-.068.033-.21.104-.41a.567.567 0 0 0 .143-.372v-.454l.185-.33.37-1.233-.102-.558.184-.142.063-.247.02-.885.062-.331a9.05 9.05 0 0 1 .042-.451c0-.083-.014-.178-.042-.287l-.226-.473.165-.35-.083-.14c.057-.03.083-.09.083-.187.207 0 .337-.05.39-.145l.188.022.247.185v.186l.225.14.062.473.187.167.082.287h.103a.328.328 0 0 0-.042.145c0 .123.11.188.329.206.083.04.18.116.288.225l.042.268.227.246.143.472.925.987.164.559.31.246.288.802.699 1.254c.124.233.3.45.534.66l.042-.268h.37l.225-.513.433-.31c.066-.098.19-.235.37-.412v-.164c.465-.302.698-.445.698-.434 0-.013-.006-.018-.02-.018 0-.097.038-.207.124-.33h.206l.184-.268c.042.069.076.104.104.104.012 0 .02-.022.02-.063l-.04-.37c.3-.398.57-.603.803-.615v-.245c0-.14.115-.241.349-.312l.123.04.04-.122.434-.678.04-.146h.144c.19-.214.344-.47.452-.758l.124-.083a.929.929 0 0 1 .185-.022c.054 0 .089.022.104.063l.144-.31-.082-.616-.124-.288.206-.331.083-.33c.15.03.258.055.328.084.029.04.116.075.267.102l.042.33.328.287c.028.028.04.085.04.163 0 .07-.005.123-.02.167v.555l.124.187-.124.104.124.04-.04.225.083.104.06.432.103.083-.205.289.102.042-.06.43.142.37-.041.474.185.739c.042.137.076.342.103.614-.026.069-.108.192-.246.37l.123.25c.056.04.085.075.085.102a.583.583 0 0 1-.074.187 2.215 2.215 0 0 0-.113.266l.164.144-.063 1.129.208.699v.822l.14.166.125.287c.198.195.419.476.652.845zM274.913 116.034c0 .091-.048.161-.144.203l-.33-.104-.37.288-.432-.062-.247.144-.33.04c-.15 0-.252.036-.308.103a1.274 1.274 0 0 0-.472-.103c-.137 0-.226.05-.268.145.028.068.075.13.145.183l-.063.208.063.7.267.39.042.368.452.66-.062.308.31.29.472.798.308.375.124.245.37.185.144.33.145.1-.266.21-.33-.27h-.205l-.268-.205h-.206l-.185-.349-.207-.103-.245-.453-.29-.308v-.208l-.183-.16-.021-.334-.31-.33-.431-1.027-.146-.187-.082-.595-.246-.39v-.43h-.246l-.267.182-.414-.077-.287.182-.103-.104-.226.145-.063-.145a.999.999 0 0 0-.206.062.911.911 0 0 1-.328.063c-.112 0-.2-.007-.27-.02h-.35l-.347.227-.372-.083-.513.041v.103l-.186-.103-.245.145-.187-.145h-.328l-.33.145-.267-.288-.145.102-.285-.101-.247.143c-.207.206-.438.507-.7.904l-.328.085c-.261.41-.557.834-.885 1.272l-.186.104-.576.738h-.102l-.494.802-.535.33-.413-.103.083-.186v-.287l.145-.189-.063-.14.372-.043.246-.142a.7.7 0 0 0 .41-.515c.273-.082.438-.238.494-.473.316-.19.534-.5.656-.924l.288-.105.66-1.025v-.29a.56.56 0 0 1-.206-.307l.39-.351v-.146l.473.04.265-.162.063.083.267-.368c-.053-.013-.083-.041-.083-.084 0-.042.099-.123.29-.246l.082.123.04-.266.166-.33-.063-.041.249-.02.082-.27c.164-.023.244-.094.244-.205v-.245c.33-.287.494-.55.494-.782v-.042l.268-.04.063-.288.143-.04.206-.43.144.101-.104-.225c.207-.015.315-.146.33-.393l.143.083v-.413h.143v-.285c.084-.085.174-.17.279-.27a.653.653 0 0 0 .195-.387l.227-.229-.144-.33c.206-.244.384-.368.534-.368h.04l.125-.186.185.268.473.243.04.514.146.146.122.264.165.062.04.453.164.618.268.47.185.66.042.434.287.391-.083.162.227.249v.309l.04.288c-.025.082-.054.15-.082.206.04.136.11.26.208.367.123.248.293.37.51.37.084 0 .214-.023.392-.082h.472c.152.04.275.063.372.063a.551.551 0 0 0 .265-.051c.07-.035.135-.077.196-.126.063-.044.106-.07.135-.07a.21.21 0 0 1 .123.042l.247.14.46-.013zm-3.91-.517c-.094-.234-.203-.383-.328-.451l.103-.29-.267-.144-.083-.782-.248-.39-.04-.328-.14-.285v-.105h-.063l-.042-.511-.29-.433-.244-.19-.268-.12-.228.12-.14.249-.496.703-.163.328-.433.43-.082.328-.432.229c-.095.506-.302.81-.618.905l-.186.616-.412.164v.204l-.063.27.33.1.186.105.247-.023.414.104c.106.03.169.042.183.042.056 0 .152-.013.289-.042.013-.012.039-.02.082-.02.014 0 .063.013.156.04a.767.767 0 0 0 .238.042.66.66 0 0 0 .265-.062l.8-.061.662-.086.474.065c.107.009.217.02.327.02.314 0 .473-.072.473-.208 0-.094-.061-.213-.185-.347l.223-.185zM279.048 110.768l-.083.018-.123.31.123.063-.063.454a.33.33 0 0 0-.06.207c0 .065.018.16.06.264v.25l-.103.101.103.124-.143.368.04.351-.328.658.08.042a.657.657 0 0 0-.038.244c0 .057.007.118.019.188.013.07.02.11.02.123v.04l-.225.105.225.513h-.143l.062.186-.144.265.186.35-.041.142h-.104c-.041.017-.063.055-.063.126 0 .15.085.28.247.39a.375.375 0 0 0-.184.328l-.063.473.104.33-.104.245.02.76-.102.535.206.105a1.124 1.124 0 0 1-.091.3.377.377 0 0 0-.051.193c0 .11.066.253.205.434l-.145.041.268.263-.103.165.288.083a1.19 1.19 0 0 1-.226.493c-.125-.04-.187-.13-.186-.268l-.27-.35-.163-.04.083-.347-.327-.373.142-.185-.205-.31.063-.433-.084-.245c-.028-.04-.055-.085-.082-.123 0-.029.027-.068.082-.123l.084-.123-.084-.269.084-.186-.27-.207.209-.308-.022-1.379.145-1.067-.063-1.046.103-.288-.103-.084.063-.245v-.37l.082-.142-.143-.04.1-.473c-.15 0-.246-.05-.286-.144h.287l.042-.33-.143-.042.1-.243c.11-.098.167-.193.167-.292a.456.456 0 0 0-.124-.306l.124-.04v-.187h.204l.124-.288.166-.062c.122 0 .268.037.43.102a.461.461 0 0 1 .145.226zM294.852 112.434l-.268.413.04.33.103-.043c0 .11-.048.267-.143.476l-.125.265v1.047l-.205.472.04.31-.186.926.083.244-.163.74.042.329-.146.538.146.51-.331.513.084.29-.186.347.102.208.084.967.143.307-.143.102-.084.144-.186-.042-.103-1.004-.144-.044a17.148 17.148 0 0 1-.04-1.356l-.187-.372-.387-.061-.227-.266-.103.123-.188-.227-.328.104-.41-.33-.208.042-.412-.086-.247-.246-.144.042-1.253-.802-.145-.186-.432-.186-.266-.348-.247-.125-.331-.33-.923-.41-.66-.842-.287-.023-.144-.223c-.18-.083-.397-.27-.657-.556h.103l-.183-.186-.144-.286-.144-.04h-.04c-.206 0-.35.245-.433.737l-.186 1.049.186.638-.287 1.047.103.536.02.167v.082a.587.587 0 0 1-.133.399c-.088.103-.134.176-.134.22 0 .01.013.033.042.059l.226.08-.124.433v.513l-.102.558.102.227-.102.14-.041.437a1.845 1.845 0 0 1-.226.535h-.146c-.164 0-.246-.134-.246-.393v-.083l.246-.803-.102-.33.143-.432-.143-.161.164-.332-.228-.311a2.32 2.32 0 0 0 .042-.39c0-.108-.013-.26-.042-.45l.083.04.082-.206-.163-.308.163-.475-.102-.616.143-.66-.123-.452.144-.986-.021-.763.104-.698-.104-.225.02-.988.228-.06c-.18-.178-.267-.335-.267-.475 0-.013.012-.06.04-.142l.083-.083.368.083.103-.144c.124.097.186.209.186.334a.576.576 0 0 1-.1.284h.285l.04.474.249.205.042.312.328.205.143.554.187.228.678.493v.04c0 .11.068.234.203.37l.475.329.513.594 1.605 1.339h.184l.145.123c.04.109.123.233.248.368l.658.205.513.435.309.103.576.33.554.162c.302.303.59.472.864.512a.976.976 0 0 1 .31-.082h.063l.039-.575.289-.616-.145-.144.062-.964.227-.351-.042-.33-.185-.31.227-.801-.104-.762.208-1.46-.247-.265.287-.841-.1-.106.144-.184-.043-.146.31-.142.063.142.288-.062a1.334 1.334 0 0 0-.062.39c0 .138.033.259.103.36.068.104.103.169.103.194l-.144.392.264.482zM309.978 111.159l-.103.226-.267.04h-.616l-.29.064-.246-.063-1.273.103-.432-.103c-.124.055-.378.124-.761.204h-.618l-.37-.14c0 .066-.058.108-.163.122a5.045 5.045 0 0 0-.504.103 2.365 2.365 0 0 1-.526.082l-.413-.165-.35.165-.04.123h-.184l-.104.204-.082 1.339.082.184-.042.228.022.592-.063.6v.185a.417.417 0 0 1-.103.267l-.042.247.166.268-.042.327-.143.105c0 .082.04.185.124.31l-.124.205v.229l-.164.243.104.575-.042.842-.144.535c.027.057.04.094.04.124s-.01.064-.031.114a.345.345 0 0 0-.03.113.35.35 0 0 0 .02.083c.012.04.02.073.02.101 0 .057-.03.137-.09.247-.062.11-.094.192-.094.247 0 .013.008.021.02.021v.04l.064.29a1.24 1.24 0 0 0-.104.411c0 .083.016.234.04.452a.8.8 0 0 1-.206-.03.534.534 0 0 0-.124-.03c-.108 0-.162-.2-.162-.598a8.61 8.61 0 0 0 .04-.308 5.03 5.03 0 0 0-.04-.498 4.148 4.148 0 0 1-.042-.467c0-.153.014-.263.042-.332l.083-1.109-.124-.208a.177.177 0 0 1-.04-.103c0-.083.033-.145.102-.185-.056-.069-.084-.13-.084-.187 0-.04.04-.082.124-.123a.997.997 0 0 1-.083-.265c0 .08.048-.088.144-.515a1.552 1.552 0 0 1-.021-.329c.042-.097.104-.247.184-.452-.107 0-.161-.088-.161-.269 0-.312.04-.493.123-.534v-.844l-.123-.41.123-.864-.123-.615.123-.47c-.055-.193-.151-.29-.288-.29-.07 0-.132.035-.187.102l-.451.042-.164.102-.247-.02-.246.02v.063h-.164c-.22 0-.405-.042-.558-.123l-.04.122-.433-.122-1.193-.042-.47.146c-.358-.314-.534-.52-.534-.619 0-.025.026-.136.08-.326h.33l1.46.29.35-.124.966.039.904.084.597-.227h.165l.164-.475.288.085.062.207.123-.063.186.205.289.146.328-.105.37.083.207.186.123-.164c.52-.096.774-.144.764-.144l.469.04c.139.052.263.083.37.083h.105a1.03 1.03 0 0 1 .307-.063c.04 0 .095.01.156.021.063.011.106.02.134.02.068 0 .112-.02.125-.062l.41-.06.474.101c.054.054.102.083.142.083a.179.179 0 0 0 .062-.02h.04l.289-.086.37.064 1.027-.02.453.081.429-.005zM320.399 110.54a.409.409 0 0 1-.102.228h-.228l-.144.102-.287-.102-.331.018c-.093 0-.168-.004-.226-.018-.083-.084-.15-.123-.207-.123-.053 0-.141.04-.267.123a.51.51 0 0 0-.265-.084c-.084 0-.207.035-.372.102a1.535 1.535 0 0 1-.431.125c-.054 0-.142-.006-.265-.02a2.75 2.75 0 0 0-.288-.02c-.084 0-.138.04-.166.123a.483.483 0 0 0-.328-.124c-.193 0-.391.085-.597.25l-.205-.105-.187.104-.473-.145-.327.185h-.372c-.151.042-.384.098-.701.163l-.327.167-.188-.125-.368.29-.37-.024-.267.496.104.388c-.138.04-.207.22-.207.537 0 .012.007.04.02.081v.083a3.57 3.57 0 0 0-.02.432l.062.081-.144.126.082.123c-.095.22-.141.403-.141.555 0 .302.177.453.533.453a.892.892 0 0 0 .238-.043 1.26 1.26 0 0 1 .236-.04s.052.013.155.032c.104.02.21.038.317.052l.309-.124.33.106.204-.064.207.022.309-.064.185.04h.042c.083 0 .207-.04.368-.124.083.042.222.063.414.063.027 0 .083-.006.164-.02h.205l.268-.085c.273.058.423.084.45.084.042 0 .086-.038.125-.121.383.067.589.1.618.1.094 0 .17-.005.224-.018.18 0 .412.012.7.04l.37-.085c.028-.08.11-.122.247-.122.112 0 .266.02.47.064l.188-.044.267.102.266-.058-.061.245c-.234.093-.411.142-.536.142-.026 0-.095-.013-.207-.04a2.424 2.424 0 0 0-.308-.06l-.535.264-.453-.04-.268.103-.186-.04-.327.184-.227-.062-.824.02a.37.37 0 0 0-.266.123l-.29-.083-.141.141-.268-.079-.143.141-.39-.185-.29.185-.328-.082a.463.463 0 0 0-.164-.018c-.206 0-.425.053-.66.163l-.738.06-.166-.083-.161.083-.455.083-.162.391.186 1.069-.103.143.122.33-.02.367.1.146.085.555.185.205-.104.351.208-.063.37.576c.52.398.97.597 1.356.597.058 0 .18.02.37.062l.268-.04.165-.042.083-.104h.185c.18 0 .304-.005.37-.02l.35-.228c.179 0 .288-.025.33-.083l.349-.078.39-.31.104-.145.206-.186.267-.02.512-.454c.397-.112.643-.328.74-.656l.143.083.063-.332.266-.02.039-.309h.063c.123 0 .213.081.266.246l-.698.905-.246.063-.165.245-.328.391-.512.35-.33.307-.144-.017-.247.264-.946.392-.225.288-.33-.102-.103.164-.083-.02-.165.142-.556-.122-.678.31-.491-.188-.843-.43c-.358-.178-.66-.515-.906-1.009-.165-.357-.37-.954-.616-1.787l.062-.289-.145-.39.145-.187-.145-.799-.041-.31-.33-.413a.853.853 0 0 1-.02-.187c0-.205.06-.354.177-.438.115-.089.174-.127.174-.114v-.123c0-.094.063-.16.186-.186l.063-.288-.063-.123v-.574l-.061-.25.227-.616.08-.329.084-.225-.268-.33-.493.041c-.192 0-.286-.098-.286-.289 0-.124.088-.289.268-.49a.303.303 0 0 0 .143-.107c.246-.094.384-.143.412-.143.04 0 .088.035.142.103.042-.096.097-.142.165-.142.207 0 .309-.064.309-.186 0-.039-.02-.088-.062-.145l.678.042.124.225c.218-.15.439-.225.658-.225h.062c.03.015.055.021.084.021l.43-.104c.113 0 .248-.047.412-.142v.142c.125-.107.295-.163.514-.163h.187c.082.014.137.021.165.021h.063l1.95-.187.454.187.144-.246c.04.094.096.141.165.141.012 0 .074-.012.185-.042l.226.125.142-.125.37.147.248-.063.123.105.659-.063.1.063.37.082a.677.677 0 0 1 .14.108zM334.924 112.434l-.266.413.04.33.104-.043c0 .11-.05.267-.144.476l-.123.265v1.047l-.208.472.042.31-.187.926.083.244-.163.74.039.329-.142.538.142.51-.328.513.083.29-.186.347.102.208.083.967.14.307-.14.102-.083.144-.186-.042-.105-1.004-.142-.044a16.51 16.51 0 0 1-.041-1.356l-.186-.372-.39-.061-.228-.266-.102.123-.186-.227-.33.104-.412-.33-.207.042-.412-.086-.247-.246-.143.042-1.252-.802-.144-.186-.433-.186-.268-.348-.246-.125-.33-.33-.925-.41-.658-.842-.288-.023-.143-.223c-.181-.083-.398-.27-.661-.556h.104l-.188-.188-.141-.286-.143-.04h-.042c-.207 0-.352.245-.433.737l-.19 1.049.19.638-.287 1.047.1.536.023.165v.083a.578.578 0 0 1-.135.4c-.09.1-.134.175-.134.215 0 .013.014.036.04.062l.228.082-.123.432v.515l-.104.557.104.225-.104.143-.04.433a1.901 1.901 0 0 1-.225.538h-.145c-.165 0-.247-.134-.247-.395v-.08l.247-.806-.104-.33.144-.43-.144-.162.164-.33-.225-.311c.026-.165.04-.293.04-.392 0-.106-.014-.258-.04-.45l.08.039.084-.203-.165-.31.165-.472-.104-.618.144-.66-.123-.451.144-.985-.021-.764.103-.698-.103-.226.02-.99.227-.058c-.178-.18-.267-.337-.267-.475 0-.014.013-.061.04-.143l.084-.083.372.083.1-.144c.125.097.188.208.188.333 0 .08-.036.177-.101.284h.286l.04.475.247.205.042.312.326.205.145.555.187.228.679.492v.042c0 .11.066.232.205.369l.473.328.513.595 1.604 1.337h.187l.144.124c.039.11.124.235.247.367l.656.207.514.435.31.103.577.329.553.16c.303.307.59.474.865.516a.995.995 0 0 1 .309-.082h.062l.04-.577.29-.615-.145-.143.063-.964.227-.352-.042-.332-.185-.308.227-.801-.103-.763.206-1.458-.243-.268.288-.841-.105-.104.144-.186-.04-.145.308-.145.06.145.29-.061a1.49 1.49 0 0 0-.062.39c0 .139.035.259.103.36.067.105.104.17.104.194l-.145.393.269.483zM350.403 116.034c0 .091-.046.161-.142.203l-.333-.104-.367.288-.434-.062-.246.144-.33.04c-.148 0-.252.036-.306.103a1.275 1.275 0 0 0-.473-.103c-.136 0-.228.05-.27.145.03.068.078.13.146.183l-.063.208.063.7.268.39.039.368.453.66-.063.308.31.29.472.798.31.375.124.245.367.185.146.33.143.1-.267.21-.328-.27h-.206l-.267-.205h-.205l-.187-.349-.208-.103-.246-.453-.287-.308v-.208l-.184-.16-.021-.334-.31-.33-.433-1.027-.145-.187-.082-.595-.246-.39v-.43h-.247l-.265.182-.415-.077-.287.182-.103-.104-.226.145-.063-.145a.998.998 0 0 0-.205.062.933.933 0 0 1-.33.063c-.112 0-.198-.007-.268-.02h-.348l-.352.227-.368-.083-.514.041v.103l-.187-.103-.247.145-.187-.145h-.327l-.33.145-.268-.288-.143.102-.29-.101-.248.143c-.204.206-.436.507-.698.904l-.328.085c-.262.41-.558.834-.885 1.272l-.186.104-.577.738h-.104l-.494.802-.532.33-.413-.103.082-.186v-.287l.144-.189-.063-.14.37-.043.245-.142a.699.699 0 0 0 .413-.515c.276-.082.438-.238.493-.473.314-.19.536-.5.657-.924l.29-.105.659-1.025v-.29a.555.555 0 0 1-.207-.307l.39-.351v-.146l.473.04.268-.162.063.083.267-.368c-.056-.013-.083-.041-.083-.084 0-.042.095-.123.289-.246l.08.123.04-.266.169-.33-.066-.041.248-.02.084-.27c.164-.023.247-.094.247-.205v-.245c.328-.287.489-.55.489-.782v-.042l.267-.04.063-.288.144-.04.205-.43.145.101-.103-.225c.207-.015.313-.146.329-.393l.144.083v-.413h.142v-.285c.085-.085.175-.17.278-.27a.64.64 0 0 0 .193-.387l.228-.229-.144-.33c.207-.244.386-.368.537-.368h.04l.124-.186.186.268.475.243.038.514.143.146.125.264.163.062.04.453.165.618.269.47.185.66.037.434.289.391-.082.162.228.249v.309l.04.288c-.03.082-.053.15-.082.206.038.136.108.26.204.367.124.248.296.37.512.37.085 0 .214-.023.393-.082h.47c.152.04.278.063.37.063.112 0 .2-.014.268-.051.07-.035.134-.077.196-.126.06-.044.106-.07.133-.07.04 0 .082.014.123.042l.247.14.475-.013zm-3.906-.517c-.095-.234-.206-.383-.33-.451l.104-.29-.267-.144-.083-.782-.25-.39-.037-.328-.143-.287v-.105h-.063l-.041-.511-.288-.433-.246-.19-.267-.12-.228.12-.141.249-.497.703-.163.328-.431.43-.083.328-.431.229c-.095.506-.303.81-.617.905l-.185.616-.412.164v.204l-.063.27.328.1.187.105.247-.023.412.104c.109.03.17.042.185.042.055 0 .15-.013.286-.042.016-.012.044-.02.086-.02.01 0 .063.013.15.04a.79.79 0 0 0 .238.042c.086 0 .173-.02.268-.062l.804-.061.66-.086.47.065c.11.009.22.02.332.02.313 0 .47-.072.47-.208 0-.094-.062-.213-.184-.347l.223-.183z"/><path d="M364.96 112.434l-.266.413.04.33.104-.043c0 .11-.05.267-.145.476l-.122.265v1.047l-.206.472.04.31-.188.926.086.244-.167.74.043.329-.145.538.145.51-.33.513.083.29-.186.347.103.208.083.967.143.307-.143.102-.083.144-.185-.042-.102-1.004-.147-.044a19.35 19.35 0 0 1-.04-1.356l-.183-.372-.392-.061-.227-.266-.101.123-.188-.227-.331.104-.413-.33-.203.042-.412-.086-.247-.246-.143.042-1.255-.802-.143-.186-.434-.186-.267-.348-.244-.125-.331-.33-.924-.41-.657-.842-.292-.023-.142-.223c-.177-.083-.396-.27-.66-.556h.105l-.186-.188-.145-.286-.143-.04h-.041c-.206 0-.348.245-.431.737l-.187 1.049.187.638-.29 1.047.105.536.02.165v.083a.589.589 0 0 1-.136.4c-.088.1-.133.175-.133.215 0 .013.012.036.04.062l.228.082-.125.432v.515l-.102.557.102.225-.102.143-.041.433a1.782 1.782 0 0 1-.23.538h-.14c-.163 0-.25-.134-.25-.395v-.08l.25-.806-.105-.33.144-.43-.144-.162.164-.33-.226-.311c.027-.165.042-.293.042-.392 0-.106-.015-.258-.042-.45l.083.039.084-.203-.163-.31.163-.472-.105-.618.144-.66-.123-.451.143-.985-.021-.764.102-.698-.102-.226.02-.99.227-.058c-.18-.18-.268-.337-.268-.475 0-.014.014-.061.042-.143l.082-.083.37.083.105-.144c.122.097.187.208.187.333a.58.58 0 0 1-.104.284h.286l.042.475.247.205.04.312.33.205.144.555.186.228.677.492v.042c0 .11.07.232.206.369l.475.328.512.595 1.605 1.337h.183l.144.124c.042.11.123.235.247.367l.657.207.514.435.31.103.577.329.555.16c.3.307.589.474.864.516a.997.997 0 0 1 .31-.082h.063l.039-.577.289-.615-.146-.143.063-.964.226-.352-.041-.332-.185-.308.226-.801-.103-.763.207-1.458-.248-.268.286-.841-.102-.104.143-.186-.041-.145.31-.145.063.145.286-.061a1.449 1.449 0 0 0-.062.39c0 .139.035.259.104.36.067.105.104.17.104.194l-.146.393.275.483zM379.062 117.492l-.37.224.08.312c-.04.176-.212.265-.513.265l-.162.435-.68.452-.165.245-.225.25c-.207 0-.474.13-.802.384-.33.266-.62.415-.865.457l-.471.264a.59.59 0 0 1-.247.043h-.124c-.231 0-.48.094-.738.287l-.246.184-.311-.061-.245.084a1.403 1.403 0 0 1-.368.082c-.085 0-.184-.013-.3-.04a1.164 1.164 0 0 0-.216-.04h-.042c-.097.07-.178.102-.247.102-.067 0-.143-.042-.227-.126a6.286 6.286 0 0 1-.35-.04.495.495 0 0 0-.206.063l-.285-.104-.188.081-.412-.184-.266-.206-.391-.125-.105-.265-.491-.125c-.056-.013-.1-.099-.133-.255-.035-.16-.101-.273-.195-.339-.138-.082-.245-.302-.33-.658-.246-.33-.372-.639-.372-.924v-.065l.042-.637a.889.889 0 0 1-.122-.433l.122-.348v-.35l.127-.062.036-.329.249-.947.185-.45.083-.02.04-.312c.068-.026.116-.147.143-.367a.942.942 0 0 1 .249-.548c.138-.14.203-.256.203-.336a.408.408 0 0 0-.082-.269l.247-.082c.123-.192.254-.336.39-.43l.104-.435.268-.165.083-.328c.286-.055.48-.17.585-.348.104-.183.236-.289.403-.333l.184-.185.37-.123.063.041.228-.228.145.164.203.04c.207-.083.425-.124.66-.124.068.028.217.055.453.084.245.138.527.244.843.328l.225.188 1.13.7.104.264.187.167.123.388.123.31.063.331-.02.451c0 .082-.014.225-.04.431 0 .016.006.028.019.04 0 0-.11.153-.33.453l-.37.083-.205-.164-.122-.205-.082-.348v-.308l-.062-.349v-.493l.083-.37-.226-.35a3.842 3.842 0 0 0-.382-.309 1.067 1.067 0 0 0-.32-.145c-.108-.027-.162-.054-.162-.082v-.023a.284.284 0 0 0-.092-.08.299.299 0 0 1-.113-.105h-.433l-.288-.226c-.206 0-.312.04-.312.123l-.185-.124-.205.144-.267-.039-.206.145a1.06 1.06 0 0 0-.246-.022.917.917 0 0 0-.31.061l-.331.475-.554.556-.432.659-.187.083-.164.535-.287.228v.288l-.35.595-.164.68h-.142l.08.388-.205.39.063.144h-.124v.31l-.083.062.02.802-.081.597.205.33.02.207.185.142v.247l.145.226-.083.226.39.413.02.206.64.244-.064.269.844.064.268.265.433-.145.225.269.473-.165c.108-.095.199-.145.269-.145.04 0 .06.02.06.062l.313-.021.163.145.328-.123h.103c.208 0 .35-.052.43-.158.085-.101.23-.15.433-.15.06 0 .153.015.29.039.042-.15.185-.231.432-.247.11-.123.282-.217.514-.288.095 0 .294-.066.596-.204l.144-.245.186-.063.389-.186.227-.29.352-.142 1.087-1.153.37-.206.179.122zM390.83 110.54a.396.396 0 0 1-.103.228h-.227l-.145.102-.286-.102-.331.018a.973.973 0 0 1-.224-.018c-.082-.084-.152-.123-.207-.123-.057 0-.143.04-.268.123a.527.527 0 0 0-.268-.084c-.082 0-.205.035-.366.102a1.56 1.56 0 0 1-.434.125c-.058 0-.144-.006-.267-.02s-.22-.02-.29-.02c-.08 0-.135.04-.162.123a.483.483 0 0 0-.328-.124c-.191 0-.391.085-.596.25l-.207-.105-.185.104-.474-.145-.328.185h-.372c-.151.042-.383.098-.698.163l-.328.167-.187-.125-.368.29-.37-.024-.27.496.106.388c-.14.04-.21.22-.21.537 0 .012.012.04.022.081v.083a3.997 3.997 0 0 0-.021.432l.063.081-.143.126.082.123a1.4 1.4 0 0 0-.143.555c0 .302.178.453.534.453a.905.905 0 0 0 .238-.043 1.26 1.26 0 0 1 .236-.04s.052.013.153.032c.104.02.21.038.317.052l.31-.124.33.106.206-.064.207.022.31-.064.184.04h.04c.083 0 .206-.04.372-.124.083.042.217.063.409.063.03 0 .086-.006.165-.02h.205l.267-.085c.274.058.426.084.453.084.042 0 .086-.038.126-.121.382.067.587.1.614.1.094 0 .17-.005.227-.018.179 0 .412.012.698.04l.37-.085c.027-.08.11-.122.246-.122.112 0 .267.02.476.064l.183-.044.267.102.267-.058-.063.245c-.232.093-.41.142-.534.142-.026 0-.098-.013-.207-.04a2.472 2.472 0 0 0-.31-.06l-.536.264-.45-.04-.268.103-.185-.04-.33.184-.225-.062-.824.02a.373.373 0 0 0-.267.123l-.286-.083-.146.141-.267-.079-.144.141-.39-.185-.288.185-.328-.082a.47.47 0 0 0-.164-.018c-.207 0-.425.053-.658.163l-.741.06-.162-.083-.163.083-.453.083-.166.391.187 1.069-.101.143.123.33-.022.367.103.146.086.555.185.205-.104.351.207-.063.37.576c.52.398.972.597 1.356.597.055 0 .18.02.369.062l.268-.04.162-.042.085-.104h.185c.18 0 .302-.005.372-.02l.347-.228c.18 0 .289-.025.329-.083l.352-.078.39-.31.104-.145.205-.186.267-.02.513-.454c.397-.112.643-.328.738-.656l.143.083.064-.332.268-.02.038-.309h.063c.124 0 .21.081.268.246l-.701.905-.245.063-.166.245-.328.39-.514.35-.33.308-.143-.018-.245.265-.947.391-.226.288-.33-.1-.102.16-.083-.019-.163.142-.556-.123-.68.311-.492-.188-.845-.429c-.355-.178-.655-.514-.903-1.009-.165-.355-.371-.953-.614-1.79l.062-.287-.144-.389.144-.186-.144-.8-.041-.31-.328-.412a.77.77 0 0 1-.021-.187c0-.205.059-.354.175-.442s.174-.125.174-.112v-.119c0-.093.062-.159.188-.185l.06-.288-.06-.123v-.576l-.063-.249.226-.614.083-.33.08-.224-.27-.333-.492.044c-.19 0-.288-.098-.288-.289 0-.124.09-.289.267-.49a.31.31 0 0 0 .145-.106c.245-.093.385-.144.409-.144.042 0 .092.035.146.105.042-.098.097-.145.164-.145.206 0 .31-.062.31-.185 0-.04-.021-.089-.062-.146l.678.043.122.226c.222-.152.439-.226.66-.226h.062a.22.22 0 0 0 .08.02l.435-.105c.11 0 .249-.047.412-.142v.142c.124-.108.295-.163.516-.163h.183c.083.014.139.021.165.021h.063l1.954-.188.45.188.145-.246c.04.095.1.142.163.142.014 0 .075-.012.188-.042l.227.126.142-.126.372.147.246-.064.123.106.659-.063.102.062.369.083a.659.659 0 0 1 .135.105z"/></g><g fill="#3a6f81"><path d="M221.912 75.474c-.195.554-.811.992-1.852 1.313l-1.558-.973-1.509-1.705-.488-1.12-.146-.925-.193-.488c-.422-1.039-.634-1.981-.634-2.825 0-.195.048-.438.145-.731l.099-.097.094-.925-.583-1.072.194-.584-.097-.78.048-.684a4.403 4.403 0 0 1-.145-1.022v-.243c0-.586-.082-1.167-.245-1.755v-1.362l-.337-.875-.101-.685-.487.244-1.557 1.949-1.365 1.509-.535.975-1.511 1.658-1.658 1.117-.193.927-.974.34-.194.537-1.171.536-.386.925-.879.295-.973 1.557-.584.342-.196.925a3.28 3.28 0 0 1-1.559.388h-.292l-.487-.925-.732-.975.098-.535-.487-.684.243-.34-.049-.049-.242-.779-.389-.292c-.617-.618-1.104-1.188-1.462-1.705l-.291-.924-.487-.538-.928-1.704-.972-1.072-.34-.585-.925-.973-1.024-1.412c-.065-.264-.228-.521-.488-.781-.098 1.167-.309 2.03-.632 2.581l-.877 1.463.243 1.071-.438 1.072-.973 3.021-.388.976-.099.632-.779 1.609-.682 1.071.1.973c-.196.52-.474 1.087-.83 1.706l.292 1.168c-.942.942-1.657 1.411-2.144 1.411-.519 0-.908-.243-1.168-.732a1.871 1.871 0 0 1-.437-.874v-.197c.583-2.4.973-3.603 1.166-3.603.035 0 .05.017.05.048v-.83c0-.841.327-1.476.976-1.898v-.293l.289-.974-.047-.34c0-.162.147-.617.438-1.363l.194-.196.05-1.313.488-.826.729-2.438-.243-1.511.633-.537v-.142l.098-1.9.144-.827c.099-.262.148-.489.148-.683v-.193l-.826-1.562.24-.924.391-.097.34-.486-.049-.39.632-.585.439.194.585-.486.683.095 1.217.828v.341l.438.291.196 1.122.34.292.292.926-.094.196.437.34c.193-.097.371-.146.535-.146.194.096.454.309.778.633l.098.683.438.488.339 1.022 2.241 2.142.39 1.218.729.487.779 1.949 1.511 2.629c.032.033.131.148.292.342l.097.144h.488l.388-.827 1.169-.73c.747-.813 1.119-1.251 1.119-1.316 0-.033-.033-.048-.095-.048h-.047c.161-.13.372-.244.631-.34.063-.098.292-.243.683-.437.227-.489.614-.862 1.166-1.122l.196-.292v-.437c.78-.973 1.414-1.542 1.901-1.707 0-.519.503-.987 1.509-1.411l.877-1.219.292-.828h.536c.39-.65.666-1.136.828-1.462l.682-.291.339.046-.096-.972-.438-.975.681-1.023.39-1.218c.291 0 .567-.016.829-.046.259-.035.374-.051.34-.051.195 0 .65.163 1.363.488l.099.389.536.438.048.39.489.388-.245.244c.488.195.731.469.731.829 0 .128-.033.291-.098.486v.78c.065.098.262.389.587.878l-.292.243-.049.241.096.052.146.776.681.538-.534.682-.241 1.07.341.78-.097 1.121.436 1.462c.195.649.292 1.168.292 1.556 0 .228-.146.537-.438.927a.63.63 0 0 1 .34.586c0 .226-.096.519-.292.875l.196.195-.147 2.727.537 1.511v1.607c.195.291.357.617.487.975.064.096.423.488 1.072 1.169.358.39.551.746.583 1.072zM257.609 62.713l-.488 1.021-.196 1.611-.487.437c-.193 1.297-.697 2.126-1.51 2.484l-.339.145-2.922 2.044-.876.491-1.414 1.559-.876-.147-.535.387-.975.342-2.438 1.268c-.194-.065-.454-.215-.779-.438-.227.325-.583.534-1.072.634h-.195l-.971.777-.194-.099h-.926l-.439.342-1.849-.049-2.437.389h-.292c-.227 0-.504.032-.828.098l-1.364-.194-.241-.245-1.949-.292-.827-.39h-1.17v-.534l-.925-.976-1.217-.537-.537-1.51-.048-1.118-.291-.341-.05-2.191.632-1.949-.097-1.169.242-.242v-.925l.684-.682v-.488l.292-.536v-.488l.194-.243-.243-.536.78-.537.927-1.947 1.993-2.874.491-.244c.096-.163.243-.373.438-.634l.485-.389v-.781l.732-.144a5.169 5.169 0 0 1 1.605-.878l.244-.291c.292-.132 1.139-.291 2.533-.488l1.314-.194 1.559.194.926-.049h1.316l.291.049.147.05h.243l.291-.099 1.559.049-.098.292.731.194c.193-.063.291-.195.291-.389.163.291.519.438 1.073.438l.386.39h1.462l3.264 1.413.388 1.071.292.438.877.339 1.315 2.145.777.973c.878 2.045 1.316 3.262 1.316 3.651v.538h.005v.004zm-3.651.293l-.244-1.365.244-.389-.342-.828a.682.682 0 0 0 .049-.291.328.328 0 0 0-.099-.243l-.875-.587-.296-.779-.387-.145-.146-.683-1.219-1.123-.73-.584-.292.148c-.746-.685-2.125-1.252-4.14-1.707-.258 0-.421-.015-.487-.048l-.245.147-.874-.246-.489.246c-.487-.164-.781-.246-.878-.246-.032 0-.155.036-.365.099a1.972 1.972 0 0 1-.56.098c-.161 0-.291-.015-.389-.048-.228.422-.763.795-1.606 1.119l-.634-.097-.682.34-.877-.096c-.585.453-1.266.924-2.046 1.412l-.244.339-.241 1.073-1.122.488-.194.244a4.183 4.183 0 0 1-.779 1.072v.828l-.682.29-.147.097-.438 1.463-.68.389c-.099 1.658-.375 2.81-.829 3.459-.261.356-.406.843-.439 1.462l-.193.534.146.34.145.732.585.634.098.634.488.486c.909.522 1.719.798 2.434.832l2.046-.538.44.438h.585l.095-.098 1.461-.242 1.561.242c.259-.26.566-.387.924-.387.746-.457 1.379-.685 1.898-.685l1.022-.586.783-.047.633-.486 1.511-.05c.13-.033.277-.048.437-.048l.098-.144c.227-.326.567-.538 1.021-.636l.584-1.361.389.241.39-.194.683-.633.242.098.83-.585 1.46-1.459.634-.195.292-.732.391-.243-.099-.439.39-.731zM298.41 72.504c0 .323-.78 1.022-2.337 2.095l-.293-.099-.437.633-1.121.145-.973.342-1.364-.293-.244.098-.924.636a2.918 2.918 0 0 0-.826-.487l-.879.826-.682-.682-.292.097a6.949 6.949 0 0 0-.315-.291 5.243 5.243 0 0 1-.218-.196h-2.096l-.339-.389-.974-.244a17.54 17.54 0 0 1-1.414-.436h-.583l-.439-.488h-.193c-.261 0-.544-.162-.854-.488-.309-.324-.512-.504-.61-.539a58.353 58.353 0 0 1-1.996-1.045 3.825 3.825 0 0 1-1.558-1.534c-.682-.36-1.203-.748-1.56-1.169l-1.362-1.071-1.61-1.559-.339-.148-.928-.874-.34-.049-.143.049a1.856 1.856 0 0 1-.589.095c-.193 0-.404-.04-.631-.121-.229-.082-.391-.61-.487-1.585l.437-.485c.196-.683.518-1.235.975-1.657l1.363-.146v.097c0 .099.047.195.146.29h.683c.03.196.291.295.777.295.488 0 1.138-.05 1.95-.147v-.292c.388.064.974.099 1.753.099 1.039 0 1.916-.081 2.631-.244l.633-.291 1.071-.196 1.364-.146.194.049.242-.099c.263-.097.7-.21 1.315-.338l.389-.147.438-.242h.195l.536-.392 1.412-.436c.325-.163.486-.293.486-.39 0-.129-.08-.26-.243-.389l-1.217-1.073-.487-.095-.292-.195c-.196-.195-.47-.34-.829-.437h-.633l-1.022-.39h-.684l-.632-.486h-.973l-.489-.147-2.777-.195-.146-.049-.195.049-.681-.147-.438.099-1.51-.146-1.609.244-.827-.244-.779.099-.586-.099-.779.291-.391-.144-.729.439-.341-.048a2.746 2.746 0 0 0-.096.583c0 .064.015.13.046.194v.194l-.144 2.438a2.73 2.73 0 0 0-.146.877c0 .518.177 1.008.534 1.46l-.583.684.292 1.264-.341 1.266a8.323 8.323 0 0 0-.293 2.193c0 .258.035.683.099 1.265l-.099.975.342 2.872.098.392-.341 1.851v.387c0 .845-1.072 1.268-3.215 1.268l.341-2.584-.195-.486-.583-2.485a1.99 1.99 0 0 1-.147-.682c0-.26.083-.584.244-.974-.194-.194-.293-.405-.293-.635 0-.323.146-.746.438-1.264a2.497 2.497 0 0 1-.145-.877c0-.163.033-.438.098-.83v-.533c.259-.456.389-.714.389-.779 0-.065-.163-.373-.489-.925l.39-.974-.145-.826.195-.195.047-.488-.487-1.948.245-.876-.245-1.609h-1.169l-1.169 1.316c-.291-.456-.812-.845-1.558-1.173-.521-.419-.782-.875-.782-1.362 0-.422.229-.892.684-1.413l1.121-.729 1.752-.146 1.656-.098c.325-.746 1.008-1.12 2.046-1.12h1.315l.291.828.828-.292 1.364.243 1.85-.243 2.679.243 3.654.099 1.752.34h1.755l.146.146h.487v-.145l3.215 1.22 1.311.583 1.026.097.39.44c1.46 1.104 2.287 2.271 2.483 3.507l-.049.244a3.168 3.168 0 0 1-.878 1.606l-1.995 1.996-1.217.098-.243.098c-.521.292-1.153.487-1.899.584l-.391.342-1.51.386h-.243c-.326 0-.585.065-.781.195l-1.167 1.024-1.022-.586-.146.049-.538.292-.336-.343c-.063.163-.228.359-.488.588l-.926-.342-.875.342-.244-.196-.294.097.148.099.39.534 1.85 1.413.537.78.487.486.293.683 1.12.05 1.607 1.51.73.291 1.025.583.971.245 1.219.437.684-.048.583-.339.244.632.829-.146.145.291.584.147 1.66-.147.679.147 2.142-.39 1.562-.341.241-.438h.683l.927-1.117c.778.875 1.168 1.558 1.168 2.044.029.156.043.238.045.238zM335.509 72.504c0 .323-.78 1.022-2.337 2.095l-.292-.099-.436.633-1.12.145-.975.342-1.365-.293-.242.098-.927.636a2.923 2.923 0 0 0-.827-.487l-.878.826-.68-.682-.292.097a6.053 6.053 0 0 0-.316-.291 3.464 3.464 0 0 1-.219-.196h-2.095l-.338-.389c-.261-.064-.586-.146-.975-.244a17.127 17.127 0 0 1-1.412-.436h-.585l-.438-.488h-.194c-.26 0-.542-.162-.852-.488-.309-.324-.511-.504-.608-.539a60.374 60.374 0 0 1-2-1.045 3.847 3.847 0 0 1-1.557-1.534c-.682-.36-1.202-.748-1.558-1.169l-1.364-1.071-1.607-1.559-.341-.148-.927-.874-.34-.049-.145.049a1.849 1.849 0 0 1-.587.095c-.195 0-.405-.04-.634-.121-.226-.082-.389-.61-.486-1.585l.438-.485c.194-.683.519-1.235.972-1.657l1.366-.146v.097c0 .099.047.195.143.29h.683c.033.196.293.295.779.295.488 0 1.138-.05 1.95-.147v-.292c.388.064.977.099 1.754.099 1.038 0 1.916-.081 2.631-.244l.632-.291 1.072-.196 1.362-.146.193.049.245-.099c.259-.097.698-.21 1.314-.338l.388-.147.438-.242h.194l.538-.392 1.413-.436c.324-.163.486-.293.486-.39 0-.129-.082-.26-.243-.389l-1.219-1.073-.483-.095-.293-.195c-.197-.195-.471-.34-.832-.437h-.632l-1.022-.39h-.682l-.633-.486h-.974l-.488-.147-2.775-.197-.146-.049-.194.049-.684-.147-.437.098-1.511-.146-1.609.243-.828-.243-.778.099-.584-.099-.781.292-.389-.146-.729.439-.341-.049a2.698 2.698 0 0 0-.097.583c0 .065.016.13.049.194v.195l-.147 2.438a2.78 2.78 0 0 0-.145.877c0 .518.178 1.006.534 1.459l-.583.683.292 1.264-.342 1.267a8.32 8.32 0 0 0-.291 2.192c0 .259.034.682.096 1.265l-.096.976.34 2.871.099.392-.343 1.851v.389c0 .844-1.072 1.267-3.213 1.267l.338-2.583-.193-.487-.585-2.486a2 2 0 0 1-.146-.681c0-.262.081-.585.244-.976-.196-.194-.295-.405-.295-.633 0-.323.147-.745.44-1.265a2.484 2.484 0 0 1-.145-.878c0-.163.033-.436.098-.829v-.534c.258-.455.389-.714.389-.779 0-.065-.164-.373-.488-.924l.387-.975-.145-.826.196-.195.048-.489-.488-1.947.244-.876-.242-1.604h-1.169l-1.168 1.313c-.294-.454-.814-.844-1.558-1.17-.521-.42-.78-.875-.78-1.362 0-.422.227-.892.681-1.412l1.122-.732 1.751-.146 1.66-.097c.323-.747 1.005-1.12 2.044-1.12h1.315l.291.827.827-.291 1.364.242 1.852-.242 2.68.242 3.654.098 1.752.34h1.752l.146.146h.489v-.146l3.213 1.22 1.313.583 1.023.097.387.44c1.462 1.104 2.289 2.271 2.485 3.507l-.047.244a3.159 3.159 0 0 1-.877 1.606l-1.997 1.996-1.215.098-.243.098c-.521.292-1.154.487-1.902.584l-.388.342-1.508.386h-.242c-.326 0-.586.065-.78.195l-1.169 1.024-1.021-.586-.147.049-.536.292-.341-.341c-.063.163-.227.359-.487.587l-.924-.343-.876.343-.246-.196-.293.098.148.098.391.535 1.848 1.413.539.778.485.487.292.683 1.121.051 1.606 1.511.728.289 1.026.586.973.244 1.218.438.684-.048.583-.341.244.632.829-.146.145.291.587.147 1.657-.147.681.147 2.143-.39 1.559-.339.244-.439h.682l.925-1.117c.778.876 1.167 1.558 1.167 2.044l.043.241zM342.85 52.533l-.146.05-.292 1.85.051 1.072.193.146-.489 1.12.097.829-.436.925c-.129.421-.241.761-.339 1.021.099.194.146.407.146.634 0 .26-.064.502-.194.731l.438 1.656h-.586l-.048.097.343.684-.343 1.315h-.146l-.242.973c.162 0 .277-.016.341-.048l-.148.974.342.877-.342.681.049 1.511-.147.634c.295.324.44.632.44.926 0 .193-.073.404-.218.632-.149.228-.222.376-.222.439l.44.316c.291.212.566.495.829.852l-.588.487.733.387c-.13 1.301-.601 1.951-1.414 1.951-.809 0-1.344-.357-1.605-1.071l-.242-.343c-.518-.713-.782-1.214-.782-1.509l-.973-1.023.438-.487-.292-.39.099-1.021-.099-.342c-.098-.323-.146-.585-.146-.777a1.6 1.6 0 0 1 .146-.634l-.098-.39-.048-1.559.146-.194-.098-2.778.39-2.335-.193-2.438.145-.244-.243-.145.292-.973v-.342l-.339-.049.241-1.071c-.39-.455-.634-1.087-.732-1.9h.637l.581-1.461.101.097.292-.78-.246.292v-1.316h.829l.149-.439.922-.341c.811.064 1.445.197 1.9.392.486.452.732.989.732 1.605l-.006.244zM380.805 69.875c0 .387-.211.86-.633 1.412a5.646 5.646 0 0 1-1.898 1.607c-.261.229-.537.358-.828.391-.587.388-1.152.599-1.705.633-.229.228-.618.438-1.169.634l-.876-.049-.877.731-.927-.193-.292.045-.729.099c-.49.063-.895.096-1.22.096a1.93 1.93 0 0 1-.34-.047h-.391l-.681.242-.976.1-1.118-.051-.537.242.147.148c-.748 0-1.332.064-1.754.194l-.243-.046-1.996-.147-2.826-.097-.926-.147a2.469 2.469 0 0 1-1.022.196c-.453 0-.925-.146-1.412-.438l-.926.338-.486-.438c-1.364-.031-2.162-.163-2.389-.388l-.192-.098c.098 0-.18.032-.83.098l-1.898-1.265-.879-.193c-.551-.261-1.02-.714-1.411-1.366-.325-.553-.487-1.087-.487-1.607 0-.355.162-.987.487-1.898l.971-1.072 1.17.05c.263-.357.636-.536 1.121-.536 1.041 0 1.559.827 1.559 2.483-.683.164-1.087.291-1.214.39-.163.195-.409.406-.735.633v.146l.438.244.588.632 1.898-.099 1.608.489 2.534-.049.925.585.44-.243c.194 0 .438.048.731.146l1.265.146.097.242h.78c.746-.225 1.168-.337 1.263-.337.163 0 .361.047.588.145a5.389 5.389 0 0 1 1.119-.095c.323 0 .617.031.878.095.227-.128.486-.195.777-.195.358 0 .668.067.927.195l1.073-.292.534-.584 1.849.193c.943-.292 1.691-.438 2.243-.438h.242c.229-.164.422-.243.586-.243a.81.81 0 0 1 .341.096l.487-.194v-.39h1.021c.229-.292.634-.455 1.217-.487.457-.423.828-.647 1.123-.681l.386-.585c0-.292-1.037-.925-3.117-1.899l-.386-.291c-.685-.064-1.22-.18-1.608-.342-.23 0-.439-.013-.636-.049h-.096c-.163 0-.797-.192-1.901-.584-.356-.259-.731-.391-1.119-.391-.13 0-.325.035-.588.102h-.973l-.145-.15c-.519-.095-.928-.24-1.219-.436l-.583.195-1.511-.732h-.974l-.634-.39h-.976l-.143-.243h-.782l-.684-.779h-.336c-1.011 0-1.788-.194-2.339-.585l-.098-.096c-.715-.228-1.234-.588-1.559-1.072l-.827-.781-.537-1.266-.584-.777.243-1.999 1.169-1.362c.194-.033.34-.245.437-.634.099-.034.262-.114.489-.244l2.482-1.363c.327.063.552.098.684.098.455 0 .924-.164 1.412-.488h.293v.097l.487-.437h.242c1.039-.387 1.9-.583 2.582-.583h.242l.439.046.729-.437c.196-.034.455-.049.78-.049h.293c.227 0 .624-.033 1.192-.098a96.945 96.945 0 0 1 1.337-.146l.881-.05 1.313-.683c.097.066.308.31.636.732h1.071c.19 0 .549.096 1.066.292h.343c.778 0 1.428.162 1.946.485 1.72.423 2.584 1.284 2.584 2.582 0 1.105-.894 1.77-2.68 1.996l-.39-.583a19.19 19.19 0 0 1-.51-.195 5.424 5.424 0 0 0-.563-.195h-1.072l-.486-.536-.779.098-.438.487-1.171-.828-1.264.195-1.51-.343c-.942.066-1.737.262-2.389.586l-.096.049a1.86 1.86 0 0 1-.315.169.815.815 0 0 1-.22.075l-.682-.292-1.363.634-2.534.68-.583-.145-1.071.682h-.487l-.289.438-1.024.681.098.292.537.538.486.145.779.488 1.511.538.731.048 1.315.781.387-.147c.942.194 1.575.454 1.901.779l.146.146h.098l.975.584.34-.34 1.167.049.195.099h.683l.682.538h.341c.553 0 1.038.08 1.463.243.031 0 .192-.018.486-.049.586 0 1.233.259 1.948.78l.584-.147.439.195h.827l1.411.974 1.464.147.585.78c1.104.682 1.825 1.274 2.166 1.777.34.503.513 1.226.513 2.165 0 .065.015.165.049.293.002.118.002.232.002.33zM416.66 62.713l-.484 1.021-.196 1.611-.486.437c-.193 1.297-.698 2.126-1.51 2.484l-.34.145-2.924 2.046-.877.489-1.415 1.559-.875-.147-.535.389-.974.342-2.437 1.266c-.194-.065-.454-.212-.779-.438-.229.324-.586.534-1.073.634h-.191l-.977.777-.191-.096h-.926l-.438.338-1.851-.047-2.434.387h-.295c-.227 0-.504.032-.827.1l-1.363-.195-.242-.245-1.949-.292-.828-.389h-1.171v-.535l-.924-.976-1.217-.536-.536-1.511-.049-1.118-.29-.341-.05-2.192.635-1.948-.098-1.168.242-.243v-.926l.683-.682v-.487l.293-.538v-.487l.195-.242-.244-.537.779-.537.927-1.948 1.994-2.874.488-.244a8.09 8.09 0 0 1 .438-.633l.486-.389v-.78l.729-.144a5.174 5.174 0 0 1 1.609-.877l.243-.292c.29-.131 1.136-.292 2.533-.488l1.314-.193 1.56.193.926-.048h1.315l.289.048.145.049h.246l.289-.098 1.56.048-.098.293.731.194c.193-.063.293-.196.293-.39.16.291.518.436 1.069.436l.391.391h1.459l3.269 1.414.386 1.071.295.439.874.339 1.312 2.143.782.975c.877 2.044 1.313 3.262 1.313 3.651v.538h.002v.004zm-3.651.293l-.243-1.365.243-.389-.34-.828a.64.64 0 0 0 .048-.291.324.324 0 0 0-.098-.243l-.876-.587-.288-.779-.39-.146-.146-.684-1.22-1.121-.73-.584-.291.148c-.749-.685-2.129-1.252-4.141-1.707-.261 0-.424-.015-.487-.048l-.245.145-.874-.244-.487.244c-.487-.161-.779-.244-.877-.244-.034 0-.153.035-.365.099-.21.064-.395.097-.56.097-.163 0-.289-.014-.39-.049-.226.423-.763.797-1.606 1.121l-.633-.098-.687.34-.873-.095c-.586.453-1.267.922-2.047 1.412l-.242.339-.242 1.073-1.12.486-.195.244a4.26 4.26 0 0 1-.779 1.073v.828l-.684.289-.146.098-.437 1.463-.683.389c-.1 1.656-.377 2.811-.83 3.458-.262.357-.407.844-.438 1.461l-.193.536.144.341.146.731.587.633.096.635.489.487c.909.521 1.718.797 2.434.829l2.047-.538.437.438h.589l.096-.095 1.46-.244 1.563.244c.259-.261.566-.39.923-.39.747-.454 1.382-.683 1.9-.683l1.021-.586.782-.046.632-.488 1.511-.049c.132-.033.276-.05.438-.05l.098-.144c.225-.324.563-.539 1.021-.634l.584-1.363.389.242.392-.194.679-.634.247.097.825-.583 1.464-1.461.633-.194.294-.733.387-.243-.098-.439.382-.727zM452.883 55.652l-.143.243c-.26 1.558-.537 2.499-.828 2.822l-.099.292v2.29l-.487.975.15.585-.491 1.947.195.538-.342 1.704.049.83-.341 1.071.438 1.268-.825 1.116.192.635-.387.682.144.145.146 2.243.633 1.119-.827.631-.485.78-1.806-.485-.291-2.194-.292-.096a30.683 30.683 0 0 1-.191-3.508l-.147-.243-.83-.147-.242.293-.731-.83-.683.195-1.069-.778c-.78-.066-1.348-.131-1.706-.196l-.437-.389-.197.05-3.509-2.095-.289-.34-1.07-.391-.634-.827-.539-.242-.777-.683-2.29-.928-1.46-1.752-.779-.098-.486-.684a8.795 8.795 0 0 1-1.9-1.606v.437l-.389 2.096.437 1.411-.731 2.388.146.73c.132.228.197.521.197.877 0 .423-.065.78-.197 1.071l.44.099-.587 1.706v1.067l-.194 1.027.341.632-.634.828c.1.129.145.309.145.538a5.582 5.582 0 0 1-1.021 1.998h-.879c-1.006 0-1.527-.698-1.558-2.096l.537-1.657-.243-.779.291-.731a3.634 3.634 0 0 1-.048-.682c0-.227.015-.388.048-.486l-.341-.439v-.34c0-.163.015-.357.05-.585v-.537c0-.323-.13-.812-.39-1.462l.39-.585.243-.826-.243-1.365.388-1.412-.288-.926.386-2.289-.098-1.655.194-1.414-.194-.438.098-2.825c-.063-.324-.098-.552-.098-.683 0-.227.048-.437.148-.633.094-.519.485-.796 1.166-.829l.439.098.387-.49c.75.391 1.27.942 1.56 1.658h.44l.145 1.51.634.439.049.584.731.437.389 1.363.243.242 1.363.929c.324.161.517.453.581.875l.101.196 1.17.729 1.313 1.315 3.507 2.728c.683.129 1.233.538 1.656 1.216l1.458.439 1.22.969.587.15 1.463.681 1.409.439c.521.487 1.011.827 1.464 1.021l.146-.73.488-.974-.195-.195.241-2.68.438-.827v-.145l-.586-.781.586-1.997-.195-1.655.44-2.921-.634-.634.634-1.9-.389-.438.487-.632-.146-.537 2.338-1.122.242.537 1.462.245c-.261.615-.39 1.086-.39 1.411 0 .163.018.294.052.392.259.356.404.682.437.974l-.291.777.677 1.131z"/></g><path d="M50.621 109.477c-2.603 0-5.066.511-7.421 1.257-7.471-10.74-19.861-17.801-33.935-17.801A41.28 41.28 0 0 0 0 94v40.287h75.431c0-13.704-11.106-24.81-24.81-24.81z" fill="#ddfbfa"/></svg>