<svg xmlns="http://www.w3.org/2000/svg" xmlns:xlink="http://www.w3.org/1999/xlink" width="360" height="360" viewBox="0 0 360 360"><path fill="#B9E8E2" d="M-2-2h364v364H-2z"/><path fill="#B9E8E2" d="M0 0h360v360H0z"/><path fill="none" d="M0 0h360v360H0z"/><path fill="#FFF" d="M302.5 111.815c0 4.502-3.683 8.185-8.185 8.185H65.685c-4.502 0-8.185-3.683-8.185-8.185v-88.63c0-4.502 3.683-8.185 8.185-8.185h228.63c4.502 0 8.185 3.683 8.185 8.185v88.63z" opacity=".48"/><path fill="#F1DABF" d="M100.899 103.824c-9.606 0-17.421-7.816-17.421-17.424s7.815-17.424 17.421-17.424c9.607 0 17.424 7.816 17.424 17.424 0 9.607-7.817 17.424-17.424 17.424z"/><path fill="#D9C4AC" d="M100.899 70.452c8.793 0 15.947 7.154 15.947 15.948s-7.154 15.947-15.947 15.947c-8.792 0-15.945-7.154-15.945-15.947s7.153-15.948 15.945-15.948m0-2.953c-10.423 0-18.898 8.479-18.898 18.901 0 10.421 8.475 18.9 18.898 18.9 10.421 0 18.9-8.479 18.9-18.9 0-10.422-8.479-18.901-18.9-18.901z"/><g><path fill="#BA365D" d="M104.543 82.796s5.681-.623 4.066 4.723c4.778-7.15-4.066-7.647-4.066-7.647v-1.306l-4.519 2.798 4.519 2.798v-1.366z"/><g fill="#3D3356"><path d="M93.446 79.244c.87 0 1.502.503 1.547 1.212h-.508c-.052-.469-.446-.78-1.057-.78-.574 0-1.007.285-1.007.705 0 .338.256.534.804.665l.66.154c.861.208 1.189.509 1.189 1.099 0 .698-.691 1.183-1.658 1.183-.923 0-1.584-.507-1.646-1.21h.536c.063.474.492.784 1.143.784.644 0 1.092-.285 1.092-.723 0-.35-.22-.543-.805-.681l-.727-.177c-.742-.181-1.111-.521-1.111-1.067.001-.688.66-1.164 1.548-1.164zM96.297 82.558h-.01v.878h-.501v-5.795h.525v2.5h.011c.249-.556.8-.897 1.477-.897 1.079 0 1.819.853 1.819 2.119 0 1.271-.74 2.119-1.824 2.119-.687-.001-1.238-.34-1.497-.924zm.009-1.192c0 .977.571 1.657 1.394 1.657.827 0 1.38-.66 1.38-1.661 0-.997-.553-1.663-1.375-1.663-.828 0-1.399.685-1.399 1.667z"/></g><path fill="#3D3356" d="M97.388 90.894s-5.731.626-4.104-4.77c-4.818 7.215 4.104 7.719 4.104 7.719v1.317l4.56-2.825-4.56-2.822v1.381z"/><g fill="#BA365D"><path d="M105.097 91.502c-.123-.453-.553-.79-1.183-.79-.814 0-1.354.631-1.354 1.61 0 .993.544 1.605 1.36 1.605.601 0 1.031-.281 1.177-.752h.51c-.148.709-.802 1.198-1.687 1.198-1.134 0-1.879-.786-1.879-2.051 0-1.242.741-2.048 1.869-2.048.938 0 1.563.553 1.696 1.228h-.509zM106.131 92.007c0-2.323.574-3.229 2.187-3.271.087 0 .371-.012.436-.02.344-.021.707-.081.912-.18v.431c-.126.098-.49.178-.885.2a7.48 7.48 0 0 1-.443.02c-1.217.029-1.597.577-1.762 2.007h.021c.267-.545.817-.85 1.508-.85 1.121 0 1.836.776 1.836 1.981 0 1.258-.734 2.049-1.905 2.049-1.237 0-1.905-.829-1.905-2.367zm3.286.318c0-.963-.52-1.541-1.381-1.541s-1.38.578-1.38 1.541c0 1.006.519 1.609 1.38 1.609s1.381-.606 1.381-1.609z"/></g></g><path fill="none" d="M72.199 67.499h57.4V105.3h-57.4z"/><g><g fill="#6B647E"><path d="M136.254 68.954c.908 0 1.963.093 2.871.76 1.02.742 1.281 1.911 1.281 2.838 0 1.277-.483 2.448-1.558 3.207-1.188.834-2.541.91-3.321.91h-.887l-.648 5.266h-2.006l1.596-12.98h2.672zm-1.393 5.86h.892c1.889 0 2.649-1.039 2.649-2.189 0-1.798-1.761-1.817-2.207-1.817h-.851l-.483 4.006zM141.95 73.738h1.891l-.093.741a2.758 2.758 0 0 1 2.061-.962c.481 0 1.036.146 1.5.481l-1.075 1.724c-.334-.332-.776-.389-1.056-.389-.54 0-1.002.242-1.263.557-.333.388-.444 1.001-.5 1.408l-.574 4.637h-1.89l.999-8.197zM156.147 77.519c0 3.005-2.245 4.674-4.765 4.674-2.208 0-3.987-1.445-3.987-3.967 0-2.449 1.744-4.709 4.766-4.709 2.204 0 3.986 1.425 3.986 4.002zm-1.967.038c0-1.482-.868-2.335-2.094-2.335-1.557 0-2.726 1.129-2.726 2.929 0 1.483.872 2.335 2.097 2.335 1.559 0 2.723-1.13 2.723-2.929zM160.481 75.442l-.795 6.493h-1.892l.797-6.493h-1.04l.204-1.704h1.039l.333-2.595c.095-.741.279-1.762 1.114-2.466.631-.52 1.372-.613 1.853-.613.409 0 .799.073 1.337.296l-.243 1.928c-.534-.333-.928-.369-1.166-.369-.224 0-.503.056-.703.295-.207.241-.264.593-.3.89l-.334 2.633h2.079l-.205 1.704h-2.078zM170.858 79.8c-.26.521-.611.967-1.133 1.392-.685.556-1.591 1.001-2.872 1.001-2.132 0-3.652-1.426-3.652-3.747 0-2.799 1.632-4.93 4.411-4.93.948 0 2.209.221 2.951 1.484.407.684.479 1.463.479 2.13 0 .389-.019.815-.054 1.169h-5.86v.167c0 .851.427 2.02 2.004 2.02.464 0 .927-.148 1.334-.443a2.95 2.95 0 0 0 .909-1.133l1.483.89zm-1.648-3.058c-.093-.889-.779-1.52-1.743-1.52-1.02 0-1.799.612-2.06 1.52h3.803zM176.563 75.964c-.058-.389-.335-.742-.836-.742-.463 0-.703.278-.703.612 0 .518.463.685.947.946.592.313 1.277.721 1.648 1.166.353.41.591 1.002.591 1.688 0 1.3-.946 2.559-3.059 2.559-.481 0-2.3-.074-2.875-2.041l1.708-.722c.128.667.631 1.056 1.243 1.056.61 0 1.021-.369 1.021-.871 0-.667-.634-.982-.984-1.169-.426-.22-.814-.387-1.264-.777-.463-.391-.795-.798-.795-1.669 0-1.522 1.112-2.484 2.726-2.484 1.725 0 2.169 1.186 2.299 1.61l-1.667.838zM183.775 75.964c-.055-.389-.333-.742-.833-.742-.464 0-.707.278-.707.612 0 .518.464.685.947.946.593.313 1.279.721 1.649 1.166.351.41.594 1.002.594 1.688 0 1.3-.945 2.559-3.059 2.559-.483 0-2.302-.074-2.876-2.041l1.707-.722c.132.667.631 1.056 1.241 1.056.613 0 1.021-.369 1.021-.871 0-.667-.632-.982-.981-1.169-.43-.22-.817-.387-1.262-.777-.464-.391-.797-.798-.797-1.669 0-1.522 1.112-2.484 2.727-2.484 1.726 0 2.168 1.186 2.3 1.61l-1.671.838zM189.769 73.738l-1 8.197h-1.892l1-8.197h1.892zm.703-3.487c0 .91-.686 1.335-1.352 1.335-.65 0-1.095-.5-1.095-1.11 0-.779.576-1.337 1.335-1.337.65 0 1.112.408 1.112 1.112zM199.891 77.519c0 3.005-2.242 4.674-4.765 4.674-2.207 0-3.986-1.445-3.986-3.967 0-2.449 1.742-4.709 4.766-4.709 2.206 0 3.985 1.425 3.985 4.002zm-1.967.038c0-1.482-.869-2.335-2.095-2.335-1.556 0-2.725 1.129-2.725 2.929 0 1.483.873 2.335 2.099 2.335 1.556 0 2.721-1.13 2.721-2.929zM202.333 73.738h1.892l-.074.704c.816-.798 1.742-.925 2.316-.925 1.263 0 1.966.555 2.282 1.112.185.314.313.761.313 1.372 0 .295-.036.61-.073.91l-.611 5.024h-1.891l.612-5.024c.016-.151.036-.317.036-.465 0-.333-.095-.629-.259-.836-.279-.332-.687-.387-1.022-.387-.463 0-1 .092-1.446.537-.462.462-.574 1.037-.611 1.409l-.574 4.766h-1.891l1.001-8.197zM217.734 73.738h1.892l-1.002 8.197h-1.891l.093-.854c-.723.908-1.799 1.112-2.522 1.112-1.929 0-3.523-1.335-3.523-3.837 0-3.117 2.096-4.839 4.375-4.839 1.394 0 2.078.63 2.469 1.186l.109-.965zm-4.989 4.451c0 1.223.724 2.297 2.133 2.297 1.28 0 2.466-.982 2.466-2.892 0-1.558-.869-2.373-2.114-2.373-1.575.001-2.485 1.408-2.485 2.968zM224.581 68.306l-1.667 13.629h-1.892l1.668-13.629h1.891zM234.481 68.954c.888 0 1.964.093 2.873.76 1.112.816 1.279 2.078 1.279 2.8 0 1.688-.872 2.652-1.557 3.134-.538.389-1.187.63-1.761.742l3.374 5.545h-2.374l-3.059-5.324h-.371l-.649 5.324h-2.002l1.592-12.98h2.655zm-1.39 5.951h.89c1.612 0 2.65-.833 2.65-2.263 0-1.279-.871-1.835-2.097-1.835h-.926l-.517 4.098zM242.797 73.738l-.575 4.708c-.016.221-.056.427-.056.65 0 .5.166.796.334.983.205.222.575.407 1.094.407.593 0 1.038-.223 1.317-.536.371-.428.481-1.077.54-1.504l.574-4.708h1.889l-.574 4.746c-.129 1.132-.408 2.022-1.186 2.726-.854.779-2.003.983-2.709.983-.665 0-1.41-.186-1.891-.445-.52-.297-1.279-.928-1.279-2.28 0-.334.021-.647.055-.983l.574-4.746h1.893zM253.084 75.964c-.055-.389-.334-.742-.833-.742-.465 0-.707.278-.707.612 0 .518.465.685.947.946.593.313 1.281.721 1.651 1.166.353.41.591 1.002.591 1.688 0 1.3-.943 2.559-3.06 2.559-.48 0-2.3-.074-2.874-2.041l1.709-.722c.129.667.629 1.056 1.24 1.056.613 0 1.021-.369 1.021-.871 0-.667-.63-.982-.983-1.169-.426-.22-.816-.387-1.262-.777-.461-.391-.796-.798-.796-1.669 0-1.522 1.112-2.484 2.727-2.484 1.724 0 2.169 1.186 2.298 1.61l-1.669.838zM260.299 75.964c-.058-.389-.336-.742-.837-.742-.463 0-.704.278-.704.612 0 .518.465.685.948.946.593.313 1.276.721 1.65 1.166.35.41.592 1.002.592 1.688 0 1.3-.946 2.559-3.061 2.559-.48 0-2.298-.074-2.872-2.041l1.705-.722c.13.667.63 1.056 1.241 1.056s1.021-.369 1.021-.871c0-.667-.631-.982-.984-1.169-.426-.22-.815-.387-1.261-.777-.463-.391-.797-.798-.797-1.669 0-1.522 1.113-2.484 2.725-2.484 1.726 0 2.171 1.186 2.3 1.61l-1.666.838zM266.292 73.738l-1.003 8.197h-1.892l1.004-8.197h1.891zm.705-3.487c0 .91-.688 1.335-1.354 1.335-.649 0-1.097-.5-1.097-1.11 0-.779.574-1.337 1.335-1.337.65 0 1.116.408 1.116 1.112zM274.674 73.738h1.893l-1.004 8.197h-1.888l.09-.854c-.723.908-1.797 1.112-2.522 1.112-1.924 0-3.522-1.335-3.522-3.837 0-3.117 2.095-4.839 4.376-4.839 1.392 0 2.078.63 2.467 1.186l.11-.965zm-4.986 4.451c0 1.223.722 2.297 2.129 2.297 1.284 0 2.468-.982 2.468-2.892 0-1.558-.869-2.373-2.113-2.373-1.578.001-2.484 1.408-2.484 2.968zM278.963 73.738h1.891l-.075.704c.817-.798 1.745-.925 2.319-.925 1.262 0 1.966.555 2.28 1.112.186.314.316.761.316 1.372 0 .295-.036.61-.076.91l-.609 5.024h-1.893l.612-5.024c.019-.151.037-.317.037-.465 0-.333-.094-.629-.261-.836-.279-.332-.687-.387-1.019-.387-.463 0-1.004.092-1.446.537-.465.462-.576 1.037-.612 1.409l-.574 4.766h-1.892l1.002-8.197zM136.675 93.055l-1.374 11.125h-2l1.37-11.125h-2.968l.222-1.855h7.937l-.222 1.855h-2.965zM139.916 95.983h1.891l-.092.741a2.746 2.746 0 0 1 2.057-.963c.482 0 1.037.15 1.503.482l-1.076 1.725c-.335-.335-.778-.39-1.056-.39-.538 0-1.002.242-1.261.556-.336.389-.444 1-.503 1.41l-.574 4.634h-1.89l1.001-8.195zM152.345 95.983h1.892l-1.004 8.196h-1.891l.093-.853c-.721.909-1.797 1.113-2.521 1.113-1.926 0-3.522-1.335-3.522-3.838 0-3.115 2.096-4.839 4.375-4.839 1.391 0 2.076.63 2.468 1.186l.11-.965zm-4.989 4.451c0 1.224.723 2.298 2.131 2.298 1.278 0 2.466-.98 2.466-2.892 0-1.559-.87-2.374-2.111-2.374-1.576.001-2.486 1.41-2.486 2.968zM156.633 95.983h1.891l-.073.704c.814-.796 1.743-.926 2.317-.926 1.26 0 1.964.557 2.281 1.112.184.316.313.76.313 1.373 0 .296-.035.611-.074.907l-.612 5.025h-1.889l.609-5.025c.021-.148.038-.313.038-.463 0-.332-.093-.629-.261-.833-.275-.335-.686-.39-1.019-.39-.465 0-1.003.094-1.445.537-.465.465-.576 1.041-.613 1.411l-.574 4.765h-1.893l1.004-8.197zM168.903 98.21c-.058-.389-.335-.744-.839-.744-.46 0-.702.277-.702.611 0 .521.464.688.946.946.595.316 1.277.726 1.65 1.169.353.408.595 1.003.595 1.687 0 1.299-.947 2.56-3.063 2.56-.48 0-2.297-.074-2.871-2.04l1.704-.724c.133.669.633 1.056 1.244 1.056.612 0 1.02-.369 1.02-.87 0-.667-.631-.983-.982-1.167-.428-.225-.816-.39-1.263-.781-.463-.389-.796-.796-.796-1.667 0-1.522 1.112-2.485 2.723-2.485 1.727 0 2.172 1.186 2.301 1.611l-1.667.838zM175.518 90.552l-1.67 13.627h-1.89l1.668-13.627h1.892zM183.215 95.983h1.89l-.999 8.196h-1.891l.091-.853c-.723.909-1.799 1.113-2.52 1.113-1.928 0-3.525-1.335-3.525-3.838 0-3.115 2.098-4.839 4.375-4.839 1.393 0 2.079.63 2.469 1.186l.11-.965zm-4.987 4.451c0 1.224.724 2.298 2.133 2.298 1.279 0 2.465-.98 2.465-2.892 0-1.559-.872-2.374-2.115-2.374-1.575.001-2.483 1.41-2.483 2.968zM189.381 97.689l-.799 6.49h-1.892l.799-6.49h-.816l.204-1.706h.816l.37-2.929h1.895l-.374 2.929h1.446l-.203 1.706h-1.446zM194.337 95.983l-1.003 8.196h-1.891l1.003-8.196h1.891zm.704-3.485c0 .908-.686 1.334-1.353 1.334-.65 0-1.094-.5-1.094-1.113 0-.778.574-1.333 1.334-1.333.65.001 1.113.408 1.113 1.112zM204.459 99.766c0 3.002-2.242 4.673-4.764 4.673-2.205 0-3.987-1.445-3.987-3.969 0-2.446 1.742-4.708 4.764-4.708 2.208 0 3.987 1.428 3.987 4.004zm-1.965.037c0-1.482-.87-2.336-2.094-2.336-1.557 0-2.729 1.131-2.729 2.93 0 1.483.875 2.335 2.096 2.335 1.56 0 2.727-1.129 2.727-2.929zM206.901 95.983h1.894l-.075.704c.814-.796 1.742-.926 2.316-.926 1.26 0 1.967.557 2.28 1.112.187.316.314.76.314 1.373 0 .296-.035.611-.073.907l-.61 5.025h-1.893l.614-5.025c.017-.148.036-.313.036-.463 0-.332-.094-.629-.262-.833-.275-.335-.683-.39-1.017-.39-.464 0-1.004.094-1.445.537-.464.465-.574 1.041-.613 1.411l-.574 4.765H205.9l1.001-8.197zM227.166 94.074c-.094-.39-.298-.649-.631-.89a2.365 2.365 0 0 0-1.316-.39c-.89 0-1.874.447-1.874 1.633 0 .407.11 1.037 1.186 1.501l1.243.538c.873.37 2.579 1.241 2.579 3.671 0 2.521-1.782 4.302-4.508 4.302-1 0-2.186-.24-3.04-1.335-.557-.685-.833-1.613-.833-2.503l1.999-.425v.091c0 .556.149 1.169.411 1.559.442.666 1.112.778 1.687.778 1.464 0 2.279-.928 2.279-2.189 0-1.297-.926-1.891-1.613-2.204l-1.166-.539c-.816-.372-2.226-1.167-2.226-3.06 0-1.78 1.297-3.672 3.95-3.672 1.462 0 2.279.556 2.67.89.371.332.702.78.927 1.317l-1.724.927zM237.761 102.047c-.26.518-.611.965-1.132 1.39-.688.559-1.594 1.002-2.872 1.002-2.135 0-3.654-1.427-3.654-3.745 0-2.8 1.631-4.933 4.414-4.933.945 0 2.205.222 2.947 1.483.408.686.481 1.465.481 2.133 0 .389-.018.815-.056 1.168h-5.858v.166c0 .854.427 2.021 2.001 2.021.465 0 .928-.146 1.335-.445.354-.258.688-.65.91-1.129l1.484.889zm-1.652-3.059c-.091-.892-.777-1.521-1.74-1.521-1.021 0-1.8.611-2.061 1.521h3.801zM240.46 95.983h1.89l-.094.741a2.755 2.755 0 0 1 2.06-.963c.481 0 1.039.15 1.501.482l-1.075 1.725c-.334-.335-.779-.39-1.059-.39-.536 0-1 .242-1.26.556-.331.389-.444 1-.499 1.41l-.574 4.634h-1.892l1.002-8.195zM248.695 95.983l1.609 4.673 2.654-4.673h2.152l-5.306 8.753-3.189-8.753h2.08zM258.44 95.983l-1 8.196h-1.893l1.003-8.196h1.89zm.704-3.485c0 .908-.687 1.334-1.352 1.334-.649 0-1.097-.5-1.097-1.113 0-.778.574-1.333 1.336-1.333.65.001 1.113.408 1.113 1.112zM266.745 98.84c-.424-.854-1.223-1.374-2.223-1.374-1.596 0-2.745 1.224-2.745 2.948 0 1.337.743 2.317 2.113 2.317 1.15 0 2.041-.647 2.559-1.389l-.297 2.485c-.63.352-1.41.611-2.426.611-.761 0-2.098-.094-3.06-1.26-.391-.462-.854-1.299-.854-2.578 0-1.65.723-2.966 1.685-3.782.967-.814 2.003-1.057 3.153-1.057.945 0 1.705.185 2.411.592l-.316 2.487zM275.815 102.047a4.15 4.15 0 0 1-1.13 1.39c-.688.559-1.594 1.002-2.876 1.002-2.132 0-3.652-1.427-3.652-3.745 0-2.8 1.632-4.933 4.416-4.933.944 0 2.204.222 2.948 1.483.406.686.48 1.465.48 2.133 0 .389-.021.815-.057 1.168h-5.858v.166c0 .854.428 2.021 2.002 2.021a2.24 2.24 0 0 0 1.334-.445 2.95 2.95 0 0 0 .909-1.129l1.484.889zm-1.648-3.059c-.095-.892-.779-1.521-1.745-1.521-1.02 0-1.797.611-2.058 1.521h3.803zM281.521 98.21c-.06-.389-.335-.744-.838-.744-.462 0-.704.277-.704.611 0 .521.465.688.946.946.596.316 1.281.726 1.65 1.169.353.408.596 1.003.596 1.687 0 1.299-.948 2.56-3.063 2.56-.48 0-2.298-.074-2.872-2.04l1.705-.724c.131.669.631 1.056 1.242 1.056.613 0 1.019-.369 1.019-.87 0-.667-.63-.983-.981-1.167-.427-.225-.816-.39-1.261-.781-.465-.389-.798-.796-.798-1.667 0-1.522 1.111-2.485 2.724-2.485 1.727 0 2.173 1.186 2.301 1.611l-1.666.838z"/></g><path fill="none" d="M129.599 67.499h158.2V105.3h-158.2z"/><g><g fill="#3D3356"><path d="M83.035 41.658c-.077-1.086-.356-1.864-.834-2.331-.482-.468-1.036-.702-1.671-.702-1.567 0-2.349.897-2.349 2.694 0 .91.319 1.749.964 2.52.644.772 1.638 1.74 2.979 2.903.911.757 1.651 1.41 2.22 1.953a15.256 15.256 0 0 1 1.647 1.878 9.217 9.217 0 0 1 1.271 2.331c.317.848.475 1.764.475 2.75 0 2.199-.675 3.918-2.027 5.158-1.354 1.238-3.157 1.857-5.405 1.857-2.1 0-3.773-.726-5.026-2.181-1.253-1.453-1.928-3.255-2.028-5.403l4.474-.646c.102 1.34.399 2.364.893 3.072.494.709 1.131 1.063 1.915 1.063.835 0 1.499-.215 1.99-.646.493-.429.74-1.047.74-1.856 0-1.113-.336-2.079-1.006-2.901-.671-.822-1.712-1.814-3.125-2.978a60.213 60.213 0 0 1-2.167-1.935 15.112 15.112 0 0 1-1.589-1.801 8.39 8.39 0 0 1-1.216-2.296 8.404 8.404 0 0 1-.455-2.806c0-2.174.641-3.856 1.915-5.043 1.276-1.189 3.065-1.784 5.366-1.784 1.871 0 3.375.608 4.514 1.82 1.139 1.215 1.806 2.82 2.011 4.818l-4.476.492zM91.159 34.91h6.979c2.477 0 4.31.613 5.5 1.837 1.186 1.227 1.783 3.03 1.783 5.405 0 1.267-.271 2.428-.816 3.49-.546 1.062-1.358 1.808-2.447 2.238 1.238.557 2.182 1.354 2.825 2.391.646 1.036.968 2.402.968 4.094 0 2.429-.595 4.354-1.781 5.784-1.188 1.43-3.049 2.143-5.575 2.143h-7.436V34.91zm4.706 11.223h1.703c.938 0 1.697-.302 2.277-.91.582-.606.871-1.466.871-2.578 0-2.58-1.021-3.869-3.07-3.869h-1.781v7.357zm0 12.287h1.97c1.214 0 2.088-.346 2.619-1.042.53-.696.796-1.75.796-3.168 0-1.44-.295-2.503-.892-3.185-.595-.683-1.586-1.024-2.976-1.024h-1.518v8.419zM112.917 39.003h-4.551V34.91h13.806v4.094h-4.552v23.287h-4.703V39.003zM129.938 62.291h-4.705V34.91h6.597c2.707 0 4.712.632 6.012 1.896 1.305 1.264 1.955 3.325 1.955 6.182 0 1.995-.313 3.541-.93 4.625-.62 1.088-1.41 1.846-2.371 2.276l3.983 12.402h-4.778l-3.338-11.338c-.279.026-.653.051-1.12.074-.467.025-.902.039-1.305.039v11.225zm0-15.093h1.667c1.289 0 2.193-.304 2.709-.912.521-.607.779-1.707.779-3.298 0-1.618-.259-2.726-.779-3.32-.516-.594-1.42-.891-2.709-.891h-1.667v8.421zM147.684 62.291h-4.549l5.042-27.381h5.842l5.045 27.381h-4.552l-.836-6.068h-5.158l-.834 6.068zm1.517-10.164h3.794l-1.858-11.757h-.076l-1.86 11.757zM162.084 62.291V34.91h4.363l5.724 15.663h.079V34.91h4.247v27.381H172.4l-5.992-17.103h-.075v17.103h-4.249zM189.604 41.658c-.077-1.086-.355-1.864-.834-2.331-.481-.468-1.037-.702-1.671-.702-1.567 0-2.349.897-2.349 2.694 0 .91.323 1.749.968 2.52.643.772 1.636 1.74 2.976 2.903.91.757 1.65 1.41 2.22 1.953a15.35 15.35 0 0 1 1.649 1.878 9.28 9.28 0 0 1 1.271 2.331c.314.848.473 1.764.473 2.75 0 2.199-.677 3.918-2.029 5.158-1.353 1.238-3.156 1.857-5.403 1.857-2.099 0-3.774-.726-5.028-2.181-1.248-1.453-1.926-3.255-2.026-5.403l4.479-.646c.096 1.34.396 2.364.888 3.072.492.709 1.131 1.063 1.914 1.063.835 0 1.5-.215 1.994-.646.491-.429.738-1.047.738-1.856 0-1.113-.335-2.079-1.007-2.901-.668-.822-1.712-1.814-3.127-2.978a59.618 59.618 0 0 1-2.163-1.935 15.14 15.14 0 0 1-1.594-1.801 8.492 8.492 0 0 1-1.212-2.296c-.304-.858-.454-1.795-.454-2.806 0-2.174.639-3.856 1.916-5.043 1.273-1.189 3.063-1.784 5.364-1.784 1.871 0 3.375.608 4.513 1.82 1.139 1.215 1.808 2.82 2.013 4.818l-4.479.492zM197.628 62.291V34.91h4.7v23.285h7.397v4.096h-12.097zM216.572 62.291h-4.553l5.046-27.381h5.841l5.045 27.381h-4.553l-.832-6.068h-5.157l-.837 6.068zm1.518-10.164h3.791l-1.859-11.757h-.076l-1.856 11.757zM232.431 39.003h-4.551V34.91h13.804v4.094h-4.548v23.287h-4.705V39.003zM245.038 62.291V34.91h4.703v27.381h-4.703zM253.989 41.545c0-2.046.612-3.729 1.84-5.044 1.227-1.314 3.015-1.973 5.365-1.973 2.352 0 4.142.659 5.368 1.973 1.226 1.315 1.84 2.998 1.84 5.044v14.109c0 2.048-.614 3.73-1.84 5.043-1.227 1.316-3.017 1.973-5.368 1.973-2.351 0-4.139-.657-5.365-1.973-1.228-1.313-1.84-2.995-1.84-5.043V41.545zm4.702 13.997c0 1.061.189 1.831.569 2.312.38.48 1.024.721 1.934.721.935 0 1.587-.241 1.956-.721.361-.481.546-1.251.546-2.312V41.658c0-1.06-.185-1.832-.546-2.311-.369-.481-1.021-.722-1.956-.722-.909 0-1.554.241-1.934.722-.38.479-.569 1.251-.569 2.311v13.884zM272.337 62.291V34.91h4.36l5.728 15.663h.076V34.91h4.246v27.381h-4.096l-5.99-17.103h-.077v17.103h-4.247z"/></g><path fill="none" d="M72.199 29.699h215.6v37.8h-215.6z"/></g></g><g><defs><path id="a" d="M57.5 115h245v245h-245z"/></defs><clipPath id="b"><use xlink:href="#a" overflow="visible"/></clipPath><g clip-path="url(#b)"><path fill="#3EA3C1" d="M261.525 392.648h43.78v5.489h-43.78z"/><g fill="#C38482"><path d="M299.688 386.473H267.36l-5.842 3.731v28.232h22.187c1.47-4.236 5.14-7.253 9.469-7.253 3.9 0 7.242 2.463 8.952 6.041 1.083-1.086 2.114-2.214 3.17-3.326v-23.694l-5.608-3.731z"/><path d="M299.688 361.648h-32.327l-5.84 3.731v28.233h43.778v-28.233z"/></g><path fill="#D3A8A6" d="M267.361 361.648l-5.84 3.731v28.233h38.126l.041-31.964z"/><path fill="#CA8E8B" d="M283.465 361.648h-16.104l-5.84 3.731v28.233h22.066z"/><path fill="#C38482" d="M267.361 361.648l-5.84 3.731v28.233h6.081z"/><path fill="#D3A8A6" d="M267.361 386.473l-5.84 3.731v28.233h38.126l.041-31.964z"/><path fill="#CA8E8B" d="M283.465 386.473h-16.104l-5.84 3.731v28.233h22.066z"/><g fill="#C38482"><path d="M267.361 386.473l-5.84 3.731v28.233h6.081zM266.217 427.027l-6.257 3.994v17.885c11.303-6.183 21.852-13.547 31.556-21.879h-25.299z"/></g><path fill="#D3A8A6" d="M283.469 427.027l.022 6.524a188.554 188.554 0 0 0 8.025-6.524h-8.047z"/><path fill="#CA8E8B" d="M283.469 427.027h-17.252l.117 18.214a183.752 183.752 0 0 0 17.157-11.689l-.022-6.525z"/><path fill="#C38482" d="M266.217 427.027l-6.257 3.994v17.885a183.646 183.646 0 0 0 6.374-3.665l-.117-18.214z"/><path fill="#E4DCD9" d="M299.729 375.387s-9.241-.096-16.224-.096c-6.98 0-15.98.096-15.98.096l-6.003 1.746v1.803l5.956-1.544s9.894-.031 16.028-.031 16.026.031 16.026.031l5.764 1.544v-1.803l-5.567-1.746z"/><path fill="#E4DCD9" d="M283.505 375.291c-6.98 0-15.98.096-15.98.096l-6.003 1.746v1.801l5.956-1.544s9.894-.031 16.028-.031 16.224.031 16.224.031v-2.001c-.001-.002-9.243-.098-16.225-.098z"/><path fill="#E4DCD9" d="M261.521 377.133v1.8l5.954-1.545.049-2.001z"/><path fill="#CA8E8B" d="M283.587 381.021l-6.056 12.591h12.111z"/><path fill="#C38482" d="M283.587 381.021l-6.056 12.591h6.177z"/><g fill="#D3A8A6"><path d="M283.587 383.957l-4.644 9.655h9.286zM299.688 381.021l-5.53 12.591h11.06z"/></g><path fill="#3EA3C1" d="M294.158 393.612h5.459l.071-12.591z"/><path fill="#C38482" d="M299.688 383.957l-4.238 9.655h8.478z"/><path fill="#D3A8A6" d="M267.447 381.021l-5.735 12.591h11.461z"/><path fill="#3EA3C1" d="M267.447 381.021l.072 12.591h5.654z"/><path fill="#C38482" d="M267.447 383.957l-4.397 9.655h8.785z"/><g fill="#E4DCD9"><path d="M274.987 365.914l-6.047 3.443 6.047 3.445 6.052-3.445zM291.943 365.914l-6.053 3.443 6.053 3.445 6.049-3.445zM303.004 368.792l-2.293.998 1.596 1.921 2.291-.992zM263.917 368.771l-1.734 1.799 2.211 1.163 1.731-1.792z"/></g><path fill="#30A199" d="M310.224 332.914c-6.657-7.501-17.558-16.708-19.858-21.066-2.299-4.358-4.115-8.716-4.841-13.318h-4.039c-.724 4.6-2.54 8.958-4.839 13.318-2.303 4.358-13.209 13.565-19.858 21.066-13.318 15.012-2.785 25.062-2.785 25.062l4.478 4.842 6.781-3.148s11.259-.965 18.241-.965 18.239.965 18.239.965l6.785 3.148 4.478-4.842c.003.001 10.537-10.048-2.782-25.062z"/><path fill="#35A19A" d="M310.224 332.914c-6.657-7.501-46.785-7.501-53.434 0-13.319 15.012-2.786 25.062-2.786 25.062l4.48 4.842 6.779-3.148s11.261-.965 18.241-.965c6.982 0 18.241.965 18.241.965l6.783 3.148 4.48-4.842c.001.001 10.535-10.048-2.784-25.062z"/><path fill="#38A19A" d="M282.211 348.169c-28.091 0-28.21 9.808-28.21 9.808l4.48 4.841 6.781-3.146s11.259-.967 18.239-.967c6.984 0 18.241.967 18.241.967l6.783 3.146 4.48-4.841c.004 0-2.703-9.808-30.794-9.808z"/><path fill="#EAD063" d="M301.746 359.669s-11.259-.965-18.241-.965c-6.98 0-18.241.965-18.241.965l-6.728 3.126 2.981 3.224 5.959-2.766s9.892-.847 16.024-.847c6.137 0 16.028.847 16.028.847l5.956 2.766 2.982-3.224-6.72-3.126z"/><path fill="#E5C953" d="M301.746 359.669s-11.259-.965-18.241-.965c-6.98 0-18.241.965-18.241.965l2.217 3.581s9.89-.848 16.024-.848c6.137 0 16.026.848 16.026.848l5.956 2.766 2.983-3.225-6.724-3.122z"/><path fill="#D6BA47" d="M301.746 359.669l-2.215 3.584 5.958 2.766 2.983-3.224z"/><path fill="#E5C953" d="M283.505 267.295l-1.978 31.234h3.997z"/><path fill="#D6BA47" d="M283.505 267.295l.04 31.234h1.979z"/><ellipse fill="#E5C953" cx="283.545" cy="289.884" rx="2.901" ry="3.147"/><path fill="#EAD26C" d="M280.879 289.951c0 1.593 1.192 2.884 2.664 2.884 1.471 0 2.666-1.291 2.666-2.884-.001-1.596-5.33-1.596-5.33 0z"/><g fill="#EAD944"><path d="M307.064 362.143l1.465.674 2.503-2.706zM268.709 359.399c-2.08.154-3.447.271-3.447.271l-5.972 2.775-.674.463-.289 1.073a14.103 14.103 0 0 0 3.681 2.687l.313-1.172 6.101-4.175.024.015.014-.043.038-.03-.022-.014.233-1.85zM311.151 334.013c-.299-.362-.601-.728-.929-1.099a90.511 90.511 0 0 0-2.709-2.919l-.377 7.834-4.628 5.22-1.031 7.915-7.004 3.592-2.404 4.439c1.767.099 3.465.209 4.938.312l1.175-2.166 6.964-3.563.022.015.016-.047.038-.025-.02-.016 1.019-7.87 4.585-5.19.024.015.012-.046.04-.029-.024-.015.293-6.357zM315.86 341.9l-.052 1.032-4.627 5.22-1.031 7.918-7 3.592-.291.527 4.201 1.95 3.969-2.028 1.976-2.135s.491-.467 1.123-1.349l.76-5.888 2.062-2.332c.073-1.928-.216-4.108-1.09-6.507zM304.105 326.546c-1.22-1.21-2.458-2.417-3.665-3.598l-.279 5.747-4.627 5.22-1.027 7.915-7.004 3.595-3.409 6.285-7.63 3.158-.517 4.073c1.354-.07 2.729-.13 4.06-.174l.166-1.309 7.592-3.134.02.018.014-.047.038-.028-.02-.015 3.394-6.244 6.962-3.563.026.014.012-.043.04-.028-.022-.018 1.019-7.87 4.586-5.191.024.016.016-.044.036-.028-.024-.016.219-4.691zM284.213 298.529h-2.724c-.511 3.235-1.569 6.352-2.947 9.432l2.741-1.177.024.017.016-.044.036-.025-.018-.015 1.701-7.631 1.171-.557z"/><path d="M295.38 317.91a72.219 72.219 0 0 1-2.811-3.046l-2.708 1.372-.403 8.346-4.625 5.22-1.031 7.917-7 3.592-3.414 6.288-7.626 3.159-1.013 7.946-5.463 3.742 5.974-2.773s1.37-.117 3.447-.269l.764-6.056 7.59-3.133.024.015.014-.044.038-.029-.02-.015 3.392-6.243 6.964-3.563.026.017.014-.046.038-.026-.022-.015 1.015-7.871 4.589-5.19.024.016.014-.044.038-.029-.02-.015.389-8.304 1.802-.919z"/><path d="M289.49 310.141c-1.196-2.416-2.211-4.841-2.963-7.316l-.835 5.252-7.021 3.562-.407 8.345-4.625 5.22-1.031 7.915-7 3.593-3.409 6.287-7.632 3.16-1.011 7.947-1.593 1.091c1.011 1.804 2.034 2.781 2.034 2.781l.54.584 2.69-1.841.024.013.014-.044.036-.028-.018-.015.997-7.9 7.592-3.135.02.017.014-.044.038-.029-.02-.015 3.392-6.244 6.964-3.563.022.015.018-.047.038-.025-.024-.016 1.019-7.871 4.588-5.193.022.016.016-.047.038-.029-.02-.012.385-8.304 6.986-3.531.024.018.014-.046.038-.029-.02-.012.066-.48z"/><path d="M273.41 316.025c-2.596 2.843-6.241 6.313-9.813 9.832l-.437 2.26-3.2 1.394a102.178 102.178 0 0 0-3.174 3.403c-2.797 3.15-4.534 6.084-5.542 8.751l4.404-1.501.022.016.016-.044.042-.026-.026-.017 3.778-6.018 7.178-3.119.024.015.016-.043.042-.026-.024-.017 1.512-7.79 4.9-4.896.022.017.02-.043.038-.027-.022-.014.224-2.107z"/></g><path fill="#3EA3C1" d="M283.646 410.324c-9.537 0-23.553 3-23.553 3v11.061l2.638-1.225s12.82-1.1 20.77-1.1c3.872 0 8.891.262 13.029.528a185.793 185.793 0 0 0 9.59-9.552c-3.891-.753-14.769-2.712-22.474-2.712z"/><path fill="#D3A8A6" d="M275.571 391.731c-4.935 0-8.934 4.448-8.934 9.936h17.871c0-5.489-4-9.936-8.937-9.936z"/><path fill="#E4DCD9" d="M275.571 393.224c-4.093 0-7.415 3.688-7.415 8.239h14.822c.004-4.552-3.311-8.239-7.407-8.239z"/><path fill="#C38482" d="M275.596 394.123c-3.665 0-6.638 3.305-6.638 7.378h13.273c0-4.073-2.967-7.378-6.635-7.378z"/><path fill="#CA8E8B" d="M275.596 397.001c-3.665 0-6.638 2.017-6.638 4.504h13.273c0-2.487-2.967-4.504-6.635-4.504z"/><path fill="#D3A8A6" d="M292.002 391.731c-4.933 0-8.936 4.448-8.936 9.936h17.873c.004-5.489-3.998-9.936-8.937-9.936z"/><path fill="#E4DCD9" d="M292.002 393.224c-4.093 0-7.413 3.688-7.413 8.239h14.824c.003-4.552-3.317-8.239-7.411-8.239z"/><path fill="#C38482" d="M292.026 394.123c-3.668 0-6.635 3.305-6.635 7.378h13.273c0-4.073-2.971-7.378-6.638-7.378z"/><path fill="#CA8E8B" d="M292.026 397.001c-3.668 0-6.635 2.017-6.635 4.504h13.273c0-2.487-2.971-4.504-6.638-4.504z"/><path fill="#D3A8A6" d="M304.111 393.612c-2.53 0-4.576 3.813-4.576 8.521l8.937 2.729.217-2.729c0-4.705-2.052-8.521-4.578-8.521z"/><path fill="#E4DCD9" d="M304.111 394.892c-2.097 0-3.798 3.162-3.798 7.068l1.188 2.994h6.296l.108-2.994c.002-3.906-1.697-7.068-3.794-7.068z"/><path fill="#C38482" d="M304.125 395.666c-1.878 0-3.401 2.836-3.401 6.328h6.799c-.001-3.495-1.522-6.328-3.398-6.328z"/><path fill="#CA8E8B" d="M304.125 398.133c-1.878 0-3.401 1.729-3.401 3.861l-.066 1.401 6.779 1.346.084-2.747c.001-2.132-1.52-3.861-3.396-3.861z"/><path fill="#D3A8A6" d="M262.949 393.612c-2.53 0-4.578 3.813-4.578 8.521l.215 2.729 8.938-2.729c0-4.705-2.051-8.521-4.575-8.521z"/><path fill="#E4DCD9" d="M262.949 394.892c-2.1 0-3.8 3.162-3.8 7.068l.105 2.994h6.301l1.186-2.994c0-3.906-1.697-7.068-3.792-7.068z"/><path fill="#C38482" d="M262.935 395.666c-1.878 0-3.401 2.836-3.401 6.328h6.799c-.001-3.495-1.522-6.328-3.398-6.328z"/><path fill="#CA8E8B" d="M266.332 401.994c0-2.133-1.517-3.861-3.397-3.861s-3.401 1.729-3.401 3.861l.088 2.747 6.781-1.346-.071-1.401z"/><g fill="#3EA3C1"><path d="M301.746 401.723s-11.259-.967-18.241-.967c-6.98 0-18.241.967-18.241.967l-6.725 3.124 2.982 3.225 5.956-2.766s9.894-.848 16.028-.848 16.026.848 16.026.848l5.954 2.766 2.985-3.225-6.724-3.124z"/><path d="M283.505 400.759c-6.98 0-18.241.966-18.241.966l-6.725 3.124 2.982 3.225 5.956-2.766s9.894-.848 16.028-.848 16.026.848 16.026.848l2.213-3.583c.002-.002-11.257-.966-18.239-.966z"/><path d="M265.264 401.723l-6.728 3.124 2.985 3.223 5.954-2.764z"/></g><path fill="#E4DCD9" d="M301.232 402.447s-10.944-.94-17.727-.94c-6.787 0-17.725.94-17.725.94l-6.536 3.035 2.901 3.134 5.788-2.69s9.612-.823 15.572-.823c5.961 0 15.574.823 15.574.823l5.788 2.69 2.899-3.134-6.534-3.035z"/><path fill="#E4DCD9" d="M283.505 401.503c-6.787 0-17.725.941-17.725.941l-6.536 3.034 2.901 3.135 5.788-2.689s9.612-.824 15.572-.824c5.961 0 15.574.824 15.574.824l2.153-3.479c0 .002-10.944-.942-17.727-.942z"/><path fill="#E4DCD9" d="M265.778 402.447l-6.538 3.035 2.903 3.133 5.79-2.691z"/><path fill="#D3A8A6" d="M274.467 411.184c-5.621 0-10.172 5.063-10.172 11.313h20.351c-.004-6.255-4.559-11.313-10.179-11.313z"/><path fill="#E4DCD9" d="M274.467 412.88c-4.659 0-8.438 4.201-8.438 9.383h16.879c.001-5.178-3.778-9.383-8.441-9.383z"/><path fill="#C38482" d="M274.497 413.907c-4.173 0-7.557 3.76-7.557 8.402h15.113c0-4.641-3.381-8.402-7.556-8.402z"/><path fill="#CA8E8B" d="M274.497 417.183c-4.173 0-7.557 2.299-7.557 5.13h15.113c0-2.835-3.381-5.13-7.556-5.13z"/><g fill="#D3A8A6"><path d="M300.869 418.437l.006.011.008-.011zM285.648 422.31c0-.015.006-.032.006-.047h-.913c0-1.365.275-2.654.748-3.826h-1.778a12.372 12.372 0 0 0-.702 4.056h13.622l.191-.183h-11.174z"/><path d="M293.179 411.184c-4.326 0-7.999 3.018-9.47 7.253h1.778c1.32-3.27 4.259-5.556 7.688-5.556 3.43 0 6.37 2.286 7.692 5.556h.014c.415-.406.835-.804 1.244-1.216-1.705-3.577-5.048-6.037-8.946-6.037z"/></g><g fill="#E4DCD9"><path d="M285.487 418.437a10.163 10.163 0 0 0-.75 3.826h.915a8.95 8.95 0 0 1 .885-3.826h-1.05zM300.869 418.437h-.993c.102.221.224.429.311.664.224-.22.458-.433.684-.652l-.002-.012zM293.179 412.88c-3.433 0-6.368 2.287-7.69 5.556h1.051c1.262-2.681 3.758-4.528 6.667-4.528 2.913 0 5.409 1.848 6.673 4.528h.993c-1.324-3.269-4.267-5.556-7.694-5.556z"/></g><g fill="#C38482"><path d="M299.876 418.437h-1.767c.592.345 1.107.743 1.518 1.198.184-.18.375-.354.56-.534-.087-.232-.209-.441-.311-.664zM286.54 418.437a9.001 9.001 0 0 0-.885 3.826c.024-1.534 1.053-2.895 2.65-3.826h-1.765zM293.207 413.907c-2.911 0-5.405 1.848-6.667 4.528h1.765c1.322-.771 3.022-1.256 4.898-1.256 1.88 0 3.581.485 4.905 1.256h1.767c-1.259-2.676-3.757-4.528-6.668-4.528z"/></g><g fill="#CA8E8B"><path d="M285.654 422.263c0 .015-.006.032-.006.047h11.173a.573.573 0 0 0 .05-.047h-11.217z"/><path d="M298.109 418.437h-9.805c-1.597.932-2.626 2.292-2.65 3.826h11.213c.931-.863 1.848-1.746 2.759-2.628a6.317 6.317 0 0 0-1.517-1.198z"/><path d="M293.207 417.183c-1.878 0-3.577.485-4.901 1.256h9.808c-1.326-.774-3.027-1.256-4.907-1.256z"/></g><path fill="#D3A8A6" d="M260.092 413.324c-2.879 0-5.214 4.343-5.214 9.702l.247 3.106 10.176-3.106c0-5.358-2.328-9.702-5.209-9.702z"/><path fill="#E4DCD9" d="M260.092 414.781c-2.389 0-4.321 3.604-4.321 8.046l.12 3.408h7.168l1.357-3.408c0-4.443-1.934-8.046-4.324-8.046z"/><path fill="#C38482" d="M260.08 415.663c-2.137 0-3.87 3.227-3.87 7.207h7.744c0-3.98-1.739-7.207-3.874-7.207z"/><path fill="#CA8E8B" d="M263.954 422.87c0-2.429-1.739-4.398-3.874-4.398-2.137 0-3.87 1.97-3.87 4.398l.096 3.13 7.72-1.534-.072-1.596z"/><g fill="#3EA3C1"><path d="M283.501 426.27c-3.366 0-7.716.227-11.333.459h19.693c.064-.056.13-.113.191-.169-2.919-.162-6.015-.29-8.551-.29z"/><path d="M260.092 426.729v-2.344l-5.019 2.328 3.397 3.673 6.783-3.147s3.031-.258 6.917-.51h-12.078z"/><path d="M283.501 422.058c-7.949 0-20.77 1.1-20.77 1.1l-2.638 1.224v2.345h12.074c3.617-.231 7.967-.458 11.333-.458 2.536 0 5.632.129 8.551.29a177.992 177.992 0 0 0 4.48-3.975c-4.139-.266-9.158-.526-13.03-.526z"/><path d="M262.731 423.157l-7.66 3.557 3.398 3.674 6.782-3.15z"/><path d="M283.501 422.058c-7.949 0-20.77 1.1-20.77 1.1l-7.66 3.557 3.397 3.674.094-.044-2.688-2.907 7.439-3.453s12.461-1.07 20.186-1.07c3.615 0 8.256.235 12.182.485.289-.265.56-.542.847-.807-4.136-.275-9.155-.535-13.027-.535z"/></g><g fill="#E4DCD9"><path d="M283.501 426.27c-6.986 0-18.25.966-18.25.966l-6.689 3.104.614.664 6.59-3.061s10.944-.941 17.733-.941c2.301 0 5.08.111 7.752.254.267-.229.534-.465.797-.694-2.915-.164-6.011-.292-8.547-.292z"/><path d="M283.501 422.911c-7.722 0-20.184 1.07-20.184 1.07l-7.439 3.451 2.686 2.908 6.691-3.104s11.263-.966 18.25-.966c2.536 0 5.633.128 8.549.29 1.216-1.05 2.451-2.083 3.633-3.165-3.928-.249-8.569-.484-12.186-.484z"/></g><path fill="#E4DCD9" d="M263.317 423.981l-7.442 3.452 3.301 3.572 6.592-3.062z"/><path fill="#3EA3C1" d="M247.191 413.771h31.387v3.934h-31.387z"/><path fill="#C38482" d="M274.403 391.538h-23.178l-4.023 2.676v20.242h31.386v-20.242z"/><path fill="#D3A8A6" d="M274.403 391.538h-23.178l.028 22.918h27.335v-20.242z"/><path fill="#CA8E8B" d="M274.403 391.538h-11.546l-.088 22.918h15.819v-20.242z"/><g fill="#C38482"><path d="M274.403 391.538l-.174 22.918h4.359v-20.242z"/><path d="M274.403 409.337h-23.178l-4.023 2.676v20.245h31.386v-20.245z"/></g><path fill="#D3A8A6" d="M274.403 409.337h-23.178l.028 22.921h27.335v-20.245z"/><path fill="#CA8E8B" d="M274.403 409.337h-11.546l-.088 22.921h15.819v-20.245z"/><g fill="#C38482"><path d="M274.403 409.337l-.174 22.921h4.359v-20.245zM250.392 438.418l-4.307 2.864v14.433c1.448-.64 2.897-1.278 4.325-1.955l-.018-15.342z"/></g><path fill="#D3A8A6" d="M250.392 438.418l.018 15.342c4.235-2.004 8.366-4.189 12.414-6.501l.03-8.84-12.462-.001z"/><path fill="#CA8E8B" d="M262.853 438.418l-.028 8.84c4.233-2.417 8.378-4.961 12.392-7.696l.006-1.146h-12.37v.002z"/><path fill="#C38482" d="M275.223 438.418l-.006 1.146c.287-.196.562-.409.849-.606l-.843-.54z"/><path fill="#E4DCD9" d="M274.288 401.388s-6.456-.07-11.458-.07c-5.011 0-11.636.07-11.636.07l-3.994 1.251v1.291l4.137-1.108s7.092-.023 11.492-.023c4.398 0 11.49.023 11.49.023l4.271 1.108v-1.291l-4.302-1.251z"/><path fill="#E4DCD9" d="M274.288 401.388s-6.456-.07-11.458-.07c-5.011 0-11.636.07-11.636.07v1.437s7.235-.023 11.636-.023c4.398 0 11.49.023 11.49.023l4.271 1.109v-1.292l-4.303-1.254z"/><path fill="#E4DCD9" d="M274.288 401.388l.031 1.436 4.269 1.108v-1.29z"/><path fill="#CA8E8B" d="M262.769 405.427l-4.34 9.029h8.681z"/><path fill="#C38482" d="M262.769 405.427l-.083 9.029h4.424z"/><g fill="#D3A8A6"><path d="M262.769 407.536l-3.328 6.92h6.658zM251.225 405.427l-3.964 9.029h7.928z"/></g><path fill="#3EA3C1" d="M251.225 405.427l.052 9.029h3.912z"/><path fill="#C38482" d="M251.225 407.536l-3.04 6.92h6.081z"/><path fill="#D3A8A6" d="M274.347 405.427l-4.111 9.029h8.217z"/><path fill="#3EA3C1" d="M270.236 414.456h4.054l.057-9.029z"/><path fill="#C38482" d="M274.347 407.536l-3.152 6.92h6.301z"/><g fill="#E4DCD9"><path d="M268.934 394.596l-4.34 2.469 4.34 2.468 4.338-2.468zM256.78 394.596l-4.337 2.469 4.337 2.468 4.34-2.468zM248.844 396.658l-1.142 1.385 1.645.711 1.142-1.378zM276.872 396.645l-1.583.837 1.242 1.289 1.583-.838z"/></g><path fill="#30A199" d="M281.986 370.937c-4.773-5.38-12.589-11.981-14.238-15.105-1.647-3.124-2.953-6.249-3.474-9.549h-2.891c-.522 3.3-1.825 6.425-3.474 9.549-1.645 3.126-9.466 9.729-14.236 15.105-9.548 10.763-1.998 17.97-1.998 17.97l3.212 3.474 4.863-2.257s8.071-.694 13.08-.694 13.08.694 13.08.694l4.863 2.257 3.212-3.474c-.006-.001 7.547-7.208-1.999-17.97z"/><path fill="#35A19A" d="M281.986 370.937c-4.773-5.38-33.546-5.38-38.315 0-9.548 10.763-1.998 17.97-1.998 17.97l3.212 3.474 4.863-2.257s8.073-.694 13.08-.694c5.008 0 13.079.694 13.079.694l4.863 2.257 3.212-3.474c-.003-.001 7.55-7.208-1.996-17.97z"/><path fill="#38A19A" d="M263.756 381.874c-20.142 0-22.083 7.032-22.083 7.032l3.212 3.474 4.863-2.257s8.073-.694 13.08-.694c5.008 0 13.079.694 13.079.694l4.863 2.257 3.212-3.474c-.003 0-.086-7.032-20.226-7.032z"/><path fill="#EAD063" d="M275.906 390.123s-8.071-.694-13.079-.694c-5.009 0-13.08.694-13.08.694l-4.821 2.236 2.137 2.312 4.273-1.981s7.092-.609 11.49-.609c4.4 0 11.492.609 11.492.609l4.271 1.981 2.141-2.312-4.824-2.236z"/><path fill="#E5C953" d="M262.827 389.429c-5.006 0-13.08.694-13.08.694l-4.821 2.236 2.137 2.312 4.273-1.981s7.092-.609 11.49-.609c4.4 0 11.492.609 11.492.609l1.587-2.568c.001.001-8.073-.693-13.078-.693z"/><path fill="#D6BA47" d="M249.748 390.123l-4.821 2.236 2.137 2.314 4.273-1.983z"/><path fill="#E5C953" d="M262.829 323.885l-1.448 22.397h2.866z"/><path fill="#D6BA47" d="M261.381 346.282h1.418l.03-22.397z"/><ellipse fill="#E5C953" cx="262.801" cy="340.077" rx="2.083" ry="2.257"/><path fill="#EAD26C" d="M260.889 340.132c0 1.144.855 2.069 1.91 2.069s1.91-.926 1.91-2.069c0-1.143-3.82-1.143-3.82 0z"/><g fill="#EAD944"><path d="M243.092 390.436l1.793 1.942 1.051-.485zM280.674 392.44l-.484-.33-4.285-1.987s-.979-.084-2.466-.196l.166 1.323-.012.009.022.021.012.031.016-.008 4.375 2.991.225.843a10.135 10.135 0 0 0 2.638-1.926l-.207-.771zM254.961 386.452l-5.019-2.577-.744-5.676-3.315-3.742-.27-5.62a75.198 75.198 0 0 0-1.944 2.091c-.235.268-.453.528-.668.79l.213 4.558-.016.012.026.021.012.031.018-.008 3.29 3.719.73 5.643-.016.012.024.021.014.031.018-.008 4.992 2.553.846 1.553c1.053-.072 2.267-.153 3.539-.227l-1.73-3.177z"/><path d="M248.741 390.113l-5.019-2.577-.74-5.674-3.315-3.742-.038-.741c-.63 1.721-.835 3.287-.788 4.669l1.481 1.671.544 4.221c.457.63.804.967.804.967l1.419 1.529 2.841 1.455 3.011-1.397-.2-.381zM267.875 386.679l-5.473-2.267-2.444-4.506-5.019-2.577-.742-5.677-3.315-3.743-.2-4.12c-.865.848-1.752 1.712-2.626 2.579l.16 3.365-.016.013.028.02.008.032.018-.013 3.29 3.723.73 5.643-.016.012.03.021.008.032.016-.013 4.995 2.555 2.435 4.473-.014.012.026.021.012.031.014-.011 5.445 2.245.118.94c.949.03 1.94.074 2.909.124l-.377-2.914zM264.274 346.282h-1.956l.841.401 1.222 5.469-.018.012.032.018.012.031.014-.012 1.968.845c-.986-2.207-1.745-4.444-2.115-6.764z"/><path d="M276.275 389.427l-.726-5.698-5.473-2.268-2.442-4.508-5.019-2.577-.742-5.675-3.316-3.742-.293-5.985-1.938-.981a49.023 49.023 0 0 1-2.014 2.182l1.298.655.279 5.951-.016.012.024.02.012.032.016-.011 3.292 3.723.728 5.642-.016.018.032.017.008.032.016-.012 4.995 2.554 2.433 4.477-.016.008.026.02.016.032.016-.008 5.441 2.245.548 4.343c1.487.111 2.466.194 2.466.194l4.285 1.988-3.92-2.68z"/><path d="M284.296 386.127l-.726-5.697-5.469-2.266-2.444-4.507-5.019-2.576-.742-5.676-3.315-3.742-.293-5.985-5.032-2.555-.602-3.762c-.536 1.772-1.264 3.513-2.12 5.245l.058.345-.018.009.026.021.016.031.012-.011 5.013 2.532.279 5.954-.016.009.024.02.016.032.014-.011 3.288 3.723.734 5.643-.018.011.03.021.008.032.016-.009 4.997 2.553 2.432 4.475-.018.008.03.02.012.032.016-.012 5.443 2.245.71 5.666-.012.009.023.021.012.031.018-.009 1.926 1.321.385-.418s.74-.702 1.459-1.996l-1.153-.777z"/><path d="M281.986 370.937a83.91 83.91 0 0 0-2.279-2.44l-2.291-.998-.311-1.622c-2.562-2.523-5.176-5.011-7.042-7.051l.169 1.512-.016.012.03.019.012.031.016-.009 3.517 3.507 1.083 5.588-.018.012.026.018.016.031.014-.012 5.144 2.237 2.709 4.314-.012.009.026.021.016.031.012-.012 3.156 1.076c-.732-1.914-1.974-4.016-3.977-6.274z"/></g><path fill="#D3A8A6" d="M268.516 413.107c-3.539 0-6.406 3.188-6.406 7.122h12.816c0-3.932-2.874-7.122-6.41-7.122z"/><path fill="#E4DCD9" d="M268.516 414.18c-2.935 0-5.312 2.646-5.312 5.908h10.627c0-3.266-2.379-5.908-5.315-5.908z"/><path fill="#C38482" d="M268.5 414.828c-2.626 0-4.761 2.364-4.761 5.288h9.519c.003-2.925-2.131-5.288-4.758-5.288z"/><path fill="#CA8E8B" d="M268.5 416.888c-2.626 0-4.761 1.444-4.761 3.226h9.519c.003-1.782-2.131-3.226-4.758-3.226z"/><path fill="#D3A8A6" d="M256.734 413.107c-3.539 0-6.408 3.188-6.408 7.122h12.814c0-3.932-2.867-7.122-6.406-7.122z"/><path fill="#E4DCD9" d="M256.734 414.18c-2.935 0-5.315 2.646-5.315 5.908h10.627c-.001-3.266-2.375-5.908-5.312-5.908z"/><path fill="#C38482" d="M256.718 414.828c-2.632 0-4.761 2.364-4.761 5.288h9.516c.002-2.925-2.127-5.288-4.755-5.288z"/><path fill="#CA8E8B" d="M256.718 416.888c-2.632 0-4.761 1.444-4.761 3.226h9.516c.002-1.782-2.127-3.226-4.755-3.226z"/><path fill="#D3A8A6" d="M248.053 414.456c-1.812 0-3.284 2.735-3.284 6.11l.158 1.956 6.41-1.956c0-3.375-1.474-6.11-3.284-6.11z"/><path fill="#E4DCD9" d="M248.053 415.375c-1.505 0-2.721 2.269-2.721 5.069l.076 2.146h4.514l.854-2.146c-.002-2.802-1.22-5.069-2.723-5.069z"/><path fill="#C38482" d="M248.041 415.931c-1.346 0-2.433 2.03-2.433 4.538h4.873c0-2.509-1.09-4.538-2.44-4.538z"/><path fill="#CA8E8B" d="M250.481 420.467c0-1.528-1.091-2.77-2.44-2.77-1.346 0-2.433 1.238-2.433 2.77l.06 1.97 4.863-.965-.05-1.005z"/><path fill="#D3A8A6" d="M277.569 414.456c-1.814 0-3.282 2.735-3.282 6.11l6.41 1.956.155-1.956c.001-3.375-1.472-6.11-3.283-6.11z"/><path fill="#E4DCD9" d="M277.569 415.375c-1.507 0-2.722 2.269-2.722 5.069l.852 2.146h4.518l.076-2.146c-.002-2.802-1.222-5.069-2.724-5.069z"/><path fill="#C38482" d="M277.577 415.931c-1.346 0-2.437 2.03-2.437 4.538h4.877c.001-2.509-1.094-4.538-2.44-4.538z"/><path fill="#CA8E8B" d="M277.577 417.697c-1.346 0-2.437 1.238-2.437 2.77l-.05 1.005 4.863.965.062-1.97c.003-1.529-1.092-2.77-2.438-2.77z"/><g fill="#3EA3C1"><path d="M275.909 420.273s-8.073-.694-13.08-.694c-5.008 0-13.082.694-13.082.694l-4.821 2.236 2.137 2.313 4.273-1.985s7.092-.606 11.492-.606c4.398 0 11.49.606 11.49.606l4.271 1.985 2.141-2.313-4.821-2.236z"/><path d="M275.909 420.273s-8.073-.694-13.08-.694c-5.008 0-13.082.694-13.082.694l1.589 2.567s7.092-.605 11.492-.605c4.398 0 11.49.605 11.49.605l4.271 1.985 2.141-2.313-4.821-2.239z"/><path d="M275.909 420.273l-1.59 2.568 4.269 1.984 2.143-2.312z"/></g><path fill="#E4DCD9" d="M275.538 420.789s-7.842-.674-12.708-.674c-4.865 0-12.712.674-12.712.674l-4.684 2.176 2.08 2.246 4.153-1.93s6.889-.59 11.167-.59c4.277 0 11.164.59 11.164.59l4.151 1.93 2.083-2.246-4.694-2.176z"/><path fill="#E4DCD9" d="M275.538 420.789s-7.842-.674-12.708-.674c-4.865 0-12.712.674-12.712.674l1.545 2.492s6.893-.59 11.169-.59c4.275 0 11.164.59 11.164.59l4.151 1.93 2.083-2.246-4.692-2.176z"/><path fill="#E4DCD9" d="M275.538 420.789l-1.548 2.494 4.154 1.931 2.081-2.249z"/><path fill="#3EA3C1" d="M262.731 426.438c-6.839 0-17.165 2.153-17.165 2.153v9.612h31.564a172.35 172.35 0 0 0 2.486-1.771v-7.842c.001.001-10.05-2.152-16.885-2.152z"/><path fill="#D3A8A6" d="M269.309 427.053c-4.034 0-7.297 3.63-7.297 8.11l14.589.623c.002-4.479-3.265-8.733-7.292-8.733z"/><path fill="#E4DCD9" d="M269.309 428.272c-3.344 0-6.053 3.012-6.053 6.725h12.103c-.001-3.71-2.709-6.725-6.05-6.725z"/><path fill="#C38482" d="M269.285 429.009c-2.991 0-5.419 2.699-5.419 6.026h10.838c.004-3.328-2.422-6.026-5.419-6.026z"/><path fill="#CA8E8B" d="M269.285 431.358c-2.991 0-5.419 1.646-5.419 3.677h10.838c.004-2.031-2.422-3.677-5.419-3.677z"/><path fill="#D3A8A6" d="M255.891 427.053c-4.027 0-7.293 3.63-7.293 8.11h14.587c.001-4.477-3.265-8.11-7.294-8.11z"/><path fill="#E4DCD9" d="M255.891 428.272c-3.34 0-6.049 3.012-6.049 6.725h12.101c-.001-3.71-2.707-6.725-6.052-6.725z"/><path fill="#C38482" d="M255.871 429.009c-2.989 0-5.421 2.699-5.421 6.026h10.841c.001-3.328-2.428-6.026-5.42-6.026z"/><path fill="#D3A8A6" d="M246.007 428.591c-2.066 0-3.738 3.116-3.738 6.955l.179 2.228 7.299-2.228c-.003-3.839-1.674-6.955-3.74-6.955z"/><path fill="#E4DCD9" d="M246.007 429.636c-1.715 0-3.099 2.582-3.099 5.768l.084 2.445h5.138l.973-2.445c.001-3.186-1.383-5.768-3.096-5.768z"/><path fill="#C38482" d="M245.997 430.265c-1.533 0-2.777 2.313-2.777 5.167h5.553c-.001-2.851-1.245-5.167-2.776-5.167z"/><path fill="#CA8E8B" d="M248.772 435.432c0-1.74-1.244-3.149-2.775-3.149-1.533 0-2.777 1.409-2.777 3.149l.07 2.243 5.533-1.099-.051-1.144z"/><path fill="#D3A8A6" d="M279.617 428.591c-2.066 0-3.741 3.116-3.741 6.955l.79.24-.153-.383c0-3.189 1.39-5.768 3.103-5.768 1.493 0 2.735 1.964 3.028 4.581.191-.145.377-.302.566-.447-.419-2.972-1.86-5.178-3.593-5.178z"/><g fill="#E4DCD9"><path d="M276.666 435.786l.147.375.019-.322zM276.997 436.616l.493 1.232h.137c.407-.287.81-.576 1.218-.867l-1.848-.365z"/><path d="M279.617 429.636c-1.715 0-3.103 2.582-3.103 5.768l.153.383.166.053.02-.407c0-2.852 1.242-5.168 2.773-5.168 1.354 0 2.479 1.805 2.724 4.188.1-.076.195-.159.301-.235-.298-2.618-1.541-4.582-3.034-4.582z"/></g><path fill="#C38482" d="M279.625 430.265c-1.531 0-2.773 2.313-2.773 5.167 0-1.74 1.242-3.149 2.773-3.149 1.254 0 2.269.961 2.614 2.255.038-.027.07-.06.106-.084-.244-2.384-1.366-4.189-2.72-4.189z"/><g fill="#CA8E8B"><path d="M276.813 436.161l-.019.414.203.041zM276.832 435.839l-.018.321.184.455 1.848.366c.174-.126.349-.247.522-.372l-2.536-.77z"/><path d="M276.852 435.432l-.02.407 2.534.774c.548-.397 1.113-.777 1.655-1.178h-4.169v-.003zM279.625 432.282c-1.531 0-2.773 1.409-2.773 3.149h4.173c.407-.301.815-.594 1.218-.896-.349-1.292-1.364-2.253-2.618-2.253z"/></g><path fill="#3EA3C1" d="M277.725 435.642s-9.193-.786-14.892-.786c-5.704 0-14.896.786-14.896.786l-5.491 2.55 2.437 2.635.066-.032-1.928-2.083 5.335-2.478s8.932-.766 14.473-.766c5.537 0 14.469.766 14.469.766l1.573.728c.222-.159.447-.313.668-.476l-1.814-.844z"/><g fill="#E4DCD9"><path d="M275.915 438.566s-8.075-.694-13.082-.694c-5.01 0-13.089.694-13.089.694l-4.793 2.228.438.476 4.728-2.192s7.848-.675 12.716-.675c4.865 0 12.715.675 12.715.675l.217.102c.191-.134.383-.275.574-.413l-.424-.201z"/><path d="M277.302 436.229s-8.935-.766-14.469-.766c-5.541 0-14.475.766-14.475.766l-5.335 2.479 1.93 2.083 4.793-2.229s8.077-.693 13.087-.693c5.006 0 13.082.693 13.082.693l.425.197c.853-.588 1.694-1.198 2.536-1.802l-1.574-.728z"/></g><path fill="#3EA3C1" d="M277.725 435.642s-9.193-.786-14.892-.786c-5.704 0-14.896.786-14.896.786l1.808 2.925s.034-.004.056-.004l-1.443-2.329s8.934-.766 14.475-.766c5.535 0 14.469.766 14.469.766l1.573.728c.219-.159.446-.313.666-.476l-1.816-.844z"/><g fill="#E4DCD9"><path d="M275.915 438.566s-8.075-.694-13.082-.694c-4.825 0-12.473.642-13.034.688l.317.51s7.848-.674 12.716-.674c4.865 0 12.715.674 12.715.674l.217.103c.191-.134.383-.276.574-.413l-.423-.194z"/><path d="M277.302 436.229s-8.935-.766-14.469-.766c-5.541 0-14.475.766-14.475.766l1.443 2.331c.559-.05 8.207-.688 13.032-.688 5.006 0 13.082.694 13.082.694l.425.197c.853-.589 1.694-1.198 2.536-1.803l-1.574-.731z"/></g><path fill="#3EA3C1" d="M277.725 435.642l-.376.607 1.527.712c.219-.16.446-.313.666-.477l-1.817-.842z"/><g fill="#E4DCD9"><path d="M277.348 436.252l-.046-.021-1.754 2.84.217.103c.191-.134.383-.275.574-.412l-.425-.196 1.434-2.314z"/><path d="M277.348 436.252l-1.434 2.314.425.197c.853-.59 1.694-1.198 2.536-1.803l-1.527-.708z"/></g><g fill="#D3A8A6"><path d="M179.274 190.069h-13.773s-10.834 59.692-25.471 76.906h62.829c-12.685-18.952-23.585-76.906-23.585-76.906z"/><path d="M181.569 162.544h-20.248c4.715 6.163 4.177 27.525 4.177 27.525h13.773c.003 0-1.789-20.74 2.298-27.525z"/></g><path fill="#C38482" d="M187.248 226.36l-8.49-35.121s3.373 16.771 8.49 35.121zm0 0l9.815 40.618h5.796c-5.79-8.657-11.317-25.199-15.611-40.618z"/><path fill="#CA8E8B" d="M165.278 190.069s-10.611 59.692-25.248 76.906h32.137l.506-76.906h-7.395z"/><g fill="#C38482"><path d="M159.98 214.769c3.192-13.224 5.015-23.527 5.015-23.527l-5.015 23.527zm-11.117 52.207l11.117-52.21c-4.412 18.309-11.45 42.214-19.948 52.21h8.831z"/><path d="M197.063 266h-49.604l-8.96 5.726v175.67h67.169v-175.67z"/></g><path fill="#D3A8A6" d="M147.459 266l-8.96 5.726v175.593h58.496L197.063 266z"/><path fill="#CA8E8B" d="M172.167 266h-24.708l-8.96 5.726v175.976h33.853z"/><g fill="#C38482"><path d="M147.459 266l-8.96 5.726v175.593h9.331zM204.313 333.71l-.056 134.752c3.764-.67 7.487-1.439 11.165-2.333V339.828l-11.109-6.118z"/></g><path fill="#D3A8A6" d="M172.192 333.71l.171 137.641c10.886-.028 21.537-1.044 31.897-2.889l.056-134.754-32.124.002z"/><path fill="#CA8E8B" d="M172.192 333.71h-31.881l.333 134.952c10.161 1.74 20.588 2.701 31.247 2.701.16 0 .311-.012.471-.012l-.17-137.641z"/><path fill="#C38482" d="M140.309 333.71l-11.568 6.118v126.391c3.919.942 7.889 1.754 11.905 2.445l-.337-134.954z"/><g fill="#3EA3C1"><path d="M200.046 265.176s-17.311-1.487-28.045-1.487c-10.733 0-28.037 1.487-28.037 1.487l-10.338 4.8 4.583 4.954 9.158-4.25s15.205-1.306 24.632-1.306c9.433 0 24.637 1.306 24.637 1.306l9.156 4.25 4.588-4.954-10.334-4.8z"/><path d="M172.001 263.688c-10.733 0-28.037 1.487-28.037 1.487l-10.338 4.8 4.583 4.954 9.158-4.25s15.205-1.306 24.632-1.306c9.433 0 24.637 1.306 24.637 1.306l3.406-5.504c.004.001-17.307-1.487-28.041-1.487z"/><path d="M143.964 265.176l-10.336 4.8 4.583 4.955 9.158-4.251z"/></g><path fill="#E4DCD9" d="M199.254 266.285s-16.82-1.445-27.253-1.445c-10.428 0-27.25 1.445-27.25 1.445l-10.043 4.665 4.456 4.819 8.898-4.132s14.776-1.268 23.936-1.268c9.164 0 23.941 1.268 23.941 1.268l8.896 4.132 4.454-4.819-10.035-4.665z"/><path fill="#E4DCD9" d="M172.001 264.84c-10.428 0-27.25 1.445-27.25 1.445l-10.043 4.665 4.456 4.819 8.898-4.132s14.776-1.268 23.936-1.268c9.164 0 23.941 1.268 23.941 1.268l3.31-5.351c.005-.001-16.814-1.446-27.248-1.446z"/><path fill="#E4DCD9" d="M144.753 266.285l-10.043 4.665 4.457 4.82 8.898-4.135z"/><path fill="#D3A8A6" d="M161.163 280.919c-6.819 0-12.346 6.4-12.346 14.295h24.689c0-7.898-5.525-14.295-12.343-14.295z"/><path fill="#E4DCD9" d="M161.163 283.068c-5.653 0-10.24 5.31-10.24 11.855h20.484c-.004-6.547-4.594-11.855-10.244-11.855z"/><path fill="#C38482" d="M161.196 284.362c-5.063 0-9.166 4.756-9.166 10.619h18.333c.001-5.863-4.1-10.619-9.167-10.619z"/><path fill="#CA8E8B" d="M161.196 288.503c-5.063 0-9.166 2.901-9.166 6.479h18.333c.001-3.578-4.1-6.479-9.167-6.479z"/><path fill="#D3A8A6" d="M183.864 280.919c-6.821 0-12.346 6.4-12.346 14.295h24.691c.001-7.898-5.526-14.295-12.345-14.295z"/><path fill="#E4DCD9" d="M183.864 283.068c-5.655 0-10.238 5.31-10.238 11.855h20.479c-.005-6.547-4.588-11.855-10.241-11.855z"/><path fill="#C38482" d="M183.896 284.362c-5.063 0-9.167 4.756-9.167 10.619h18.337c-.001-5.863-4.104-10.619-9.17-10.619z"/><path fill="#CA8E8B" d="M183.896 288.503c-5.063 0-9.167 2.901-9.167 6.479h18.337c-.001-3.578-4.104-6.479-9.17-6.479z"/><path fill="#D3A8A6" d="M200.588 283.626c-3.491 0-6.324 5.489-6.324 12.261l12.35 3.926.303-3.926c-.004-6.771-2.834-12.261-6.329-12.261z"/><path fill="#E4DCD9" d="M200.588 285.465c-2.895 0-5.242 4.553-5.242 10.17l1.639 4.308h8.701l.146-4.308c-.002-5.614-2.345-10.17-5.244-10.17z"/><path fill="#C38482" d="M200.608 286.583c-2.596 0-4.695 4.076-4.695 9.104h9.391c0-5.028-2.106-9.104-4.696-9.104z"/><path fill="#CA8E8B" d="M200.608 290.131c-2.596 0-4.695 2.486-4.695 5.556l-.094 2.017 9.367 1.941.12-3.958c-.002-3.067-2.108-5.556-4.698-5.556z"/><path fill="#D3A8A6" d="M143.721 283.626c-3.491 0-6.327 5.489-6.327 12.261l.301 3.926 12.346-3.926c.002-6.771-2.829-12.261-6.32-12.261z"/><path fill="#E4DCD9" d="M143.721 285.465c-2.897 0-5.248 4.553-5.248 10.17l.147 4.308h8.699l1.643-4.308c.002-5.614-2.344-10.17-5.241-10.17z"/><path fill="#C38482" d="M143.701 286.583c-2.592 0-4.693 4.076-4.693 9.104h9.395c-.001-5.028-2.105-9.104-4.702-9.104z"/><path fill="#CA8E8B" d="M148.402 295.688c0-3.067-2.107-5.557-4.701-5.557-2.592 0-4.693 2.487-4.693 5.557l.118 3.958 9.369-1.942-.093-2.016z"/><g fill="#3EA3C1"><path d="M197.324 295.295s-15.554-1.389-25.204-1.389c-9.644 0-25.204 1.389-25.204 1.389l-9.287 4.495 4.123 4.64 8.227-3.978s13.667-1.222 22.142-1.222c8.478 0 22.139 1.222 22.139 1.222l8.234 3.978 4.119-4.64-9.289-4.495z"/><path d="M172.121 293.908c-9.644 0-25.204 1.39-25.204 1.39l-9.287 4.495 4.123 4.64 8.227-3.979s13.667-1.222 22.142-1.222c8.478 0 22.139 1.222 22.139 1.222l3.064-5.155c-.001-.004-15.558-1.391-25.204-1.391z"/><path d="M146.918 295.295l-9.289 4.498 4.123 4.636 8.227-3.978z"/><path d="M172.314 292.813c-13.012 0-32.145 4.261-32.145 4.261v19.053h64.809v-19.053c.001-.001-19.655-4.261-32.664-4.261z"/></g><path fill="#D3A8A6" d="M159.789 294.03c-7.67 0-13.885 7.198-13.885 16.078h27.77c.002-8.879-6.213-16.078-13.885-16.078z"/><path fill="#E4DCD9" d="M159.789 296.447c-6.356 0-11.518 5.971-11.518 13.337h23.032c.002-7.366-5.15-13.337-11.514-13.337z"/><path fill="#C38482" d="M159.827 297.903c-5.694 0-10.31 5.348-10.31 11.945h20.622c.002-6.597-4.614-11.945-10.312-11.945z"/><path fill="#CA8E8B" d="M159.827 302.561c-5.694 0-10.31 3.264-10.31 7.288h20.622c.002-4.025-4.614-7.288-10.312-7.288z"/><path fill="#D3A8A6" d="M185.323 294.03c-7.668 0-13.883 7.198-13.883 16.078h27.768c.002-8.879-6.216-16.078-13.885-16.078z"/><path fill="#E4DCD9" d="M185.323 296.447c-6.358 0-11.514 5.971-11.514 13.337h23.031c.002-7.366-5.154-13.337-11.517-13.337z"/><path fill="#C38482" d="M185.363 297.903c-5.694 0-10.314 5.348-10.314 11.945h20.626c0-6.597-4.615-11.945-10.312-11.945z"/><path fill="#CA8E8B" d="M185.363 302.561c-5.694 0-10.314 3.264-10.314 7.288h20.626c0-4.025-4.615-7.288-10.312-7.288z"/><path fill="#D3A8A6" d="M204.139 297.073c-3.928 0-7.114 6.175-7.114 13.79l13.889 4.416.337-4.416c0-7.612-3.184-13.79-7.112-13.79z"/><path fill="#E4DCD9" d="M204.139 299.148c-3.258 0-5.9 5.12-5.9 11.437l1.853 4.846h9.784l.167-4.846c-.002-6.318-2.646-11.437-5.904-11.437z"/><path fill="#C38482" d="M204.155 300.398c-2.915 0-5.282 4.584-5.282 10.242h10.569c-.004-5.658-2.368-10.242-5.287-10.242z"/><path fill="#CA8E8B" d="M204.155 304.394c-2.915 0-5.282 2.797-5.282 6.25l-.102 2.266 10.533 2.183.138-4.451c-.004-3.452-2.368-6.248-5.287-6.248z"/><path fill="#D3A8A6" d="M140.167 297.073c-3.926 0-7.112 6.175-7.112 13.79l.337 4.416 13.889-4.416c.003-7.612-3.179-13.79-7.114-13.79z"/><path fill="#E4DCD9" d="M140.167 299.148c-3.258 0-5.896 5.12-5.896 11.437l.166 4.846h9.786l1.848-4.846c0-6.318-2.644-11.437-5.904-11.437z"/><path fill="#C38482" d="M140.154 300.398c-2.919 0-5.284 4.584-5.284 10.242h10.565c-.002-5.658-2.369-10.242-5.281-10.242z"/><path fill="#CA8E8B" d="M145.433 310.644c0-3.453-2.365-6.25-5.279-6.25-2.919 0-5.284 2.797-5.284 6.25l.133 4.451 10.538-2.183-.108-2.268z"/><path fill="#3EA3C1" d="M172.32 307.498c-13.616 0-33.636 4.461-33.636 4.461v12.409h67.82v-12.409c0-.002-20.568-4.461-34.184-4.461z"/><path fill="#D3A8A6" d="M159.214 308.771c-8.027 0-14.531 7.535-14.531 16.828h29.064c.001-9.295-6.503-16.828-14.533-16.828z"/><path fill="#E4DCD9" d="M159.214 311.302c-6.655 0-12.048 6.246-12.048 13.955h24.103c-.002-7.709-5.399-13.955-12.055-13.955z"/><path fill="#C38482" d="M159.258 312.824c-5.965 0-10.796 5.595-10.796 12.496h21.585c-.002-6.898-4.833-12.496-10.789-12.496z"/><path fill="#CA8E8B" d="M159.258 317.696c-5.965 0-10.796 3.418-10.796 7.625h21.585c-.002-4.207-4.833-7.625-10.789-7.625z"/><path fill="#D3A8A6" d="M185.936 308.771c-8.025 0-14.529 7.535-14.529 16.828h29.06c-.001-9.295-6.506-16.828-14.531-16.828z"/><path fill="#E4DCD9" d="M185.936 311.302c-6.657 0-12.051 6.246-12.051 13.955h24.105c-.002-7.709-5.395-13.955-12.054-13.955z"/><path fill="#C38482" d="M185.976 312.824c-5.958 0-10.789 5.595-10.789 12.496h21.583c0-6.898-4.835-12.496-10.794-12.496z"/><path fill="#CA8E8B" d="M185.976 317.696c-5.958 0-10.789 3.418-10.789 7.625h21.583c0-4.207-4.835-7.625-10.794-7.625z"/><path fill="#D3A8A6" d="M205.625 311.957c-4.111 0-7.445 6.462-7.445 14.432l14.539 4.621.351-4.621c-.003-7.97-3.334-14.432-7.445-14.432z"/><path fill="#E4DCD9" d="M205.625 314.127c-3.41 0-6.175 5.358-6.175 11.968l1.936 5.072h10.236l.179-5.072c0-6.612-2.767-11.968-6.176-11.968z"/><path fill="#C38482" d="M205.648 315.437c-3.059 0-5.531 4.799-5.531 10.718h11.056c-.002-5.92-2.472-10.718-5.525-10.718z"/><path fill="#CA8E8B" d="M205.648 319.614c-3.059 0-5.531 2.928-5.531 6.54l-.108 2.373 11.026 2.283.138-4.653c-.002-3.615-2.472-6.543-5.525-6.543z"/><path fill="#D3A8A6" d="M138.684 311.957c-4.107 0-7.441 6.462-7.441 14.432l.353 4.621 14.533-4.621c-.002-7.97-3.334-14.432-7.445-14.432z"/><path fill="#E4DCD9" d="M138.684 314.127c-3.409 0-6.171 5.358-6.171 11.968l.173 5.072h10.24l1.932-5.072c.001-6.612-2.764-11.968-6.174-11.968z"/><path fill="#C38482" d="M138.668 315.437c-3.056 0-5.531 4.799-5.531 10.718h11.058c-.004-5.92-2.474-10.718-5.527-10.718z"/><path fill="#CA8E8B" d="M144.191 326.154c0-3.612-2.474-6.54-5.523-6.54-3.056 0-5.531 2.928-5.531 6.54l.14 4.653 11.028-2.284-.114-2.369z"/><g fill="#3EA3C1"><path d="M208.99 325.648s-22.827-1.961-36.989-1.961c-14.154 0-36.983 1.961-36.983 1.961l-13.632 6.331 6.049 6.539 12.077-5.61s20.058-1.721 32.491-1.721c12.439 0 32.497 1.721 32.497 1.721l12.073 5.61 6.051-6.539-13.634-6.331z"/><path d="M172.001 323.688c-14.154 0-36.983 1.961-36.983 1.961l-13.632 6.331 6.049 6.539 12.077-5.61s20.058-1.721 32.491-1.721c12.439 0 32.497 1.721 32.497 1.721l4.49-7.259c0-.002-22.827-1.962-36.989-1.962z"/><path d="M135.018 325.648l-13.634 6.331 6.049 6.54 12.079-5.611z"/></g><path fill="#E4DCD9" d="M207.945 327.114s-22.183-1.906-35.944-1.906c-13.753 0-35.938 1.906-35.938 1.906l-13.249 6.15 5.875 6.354 11.74-5.449s19.488-1.674 31.572-1.674c12.086 0 31.578 1.674 31.578 1.674l11.737 5.449 5.876-6.354-13.247-6.15z"/><path fill="#E4DCD9" d="M172.001 325.208c-13.753 0-35.938 1.906-35.938 1.906l-13.247 6.15 5.876 6.354 11.737-5.449s19.49-1.674 31.572-1.674c12.086 0 31.578 1.674 31.578 1.674l4.366-7.056c0 .001-22.187-1.905-35.944-1.905z"/><path fill="#E4DCD9" d="M136.063 327.114l-13.248 6.148 5.874 6.357 11.74-5.449z"/><path fill="#EAD26C" d="M183.272 149.457c-2.977-3.354-7.85-7.475-8.88-9.424-1.031-1.95-1.842-3.899-2.167-5.957h-1.806c-.323 2.058-1.139 4.007-2.164 5.957-1.029 1.949-5.906 6.069-8.886 9.424-5.958 6.716-1.244 11.21-1.244 11.21l2 2.167 3.035-1.408s5.037-.432 8.161-.432c3.126 0 8.163.432 8.163.432l3.029 1.408 2.004-2.167c.003 0 4.712-4.493-1.245-11.21z"/><path fill="#D6BA47" d="M183.272 149.457c-2.977-3.354-20.923-3.354-23.9 0-5.959 6.716-1.246 11.21-1.246 11.21l2 2.167 3.035-1.408s5.039-.432 8.163-.432c3.125 0 8.161.432 8.161.432l3.029 1.408 2.006-2.167s4.709-4.493-1.248-11.21z"/><path fill="#C1A73D" d="M171.899 156.281c-12.565 0-13.773 4.387-13.773 4.387l2 2.167 3.035-1.408s5.039-.432 8.163-.432c3.125 0 8.161.432 8.161.432l3.029 1.408 2.006-2.167c0-.001-.056-4.387-12.621-4.387z"/><path fill="#EAD063" d="M179.483 161.425s-5.036-.432-8.161-.432c-3.122 0-8.163.432-8.163.432l-3.004 1.396 1.333 1.442 2.664-1.236s4.424-.381 7.169-.381c2.744 0 7.172.381 7.172.381l2.664 1.236 1.33-1.442-3.004-1.396z"/><path fill="#E5C953" d="M171.323 160.993c-3.122 0-8.163.432-8.163.432l-3.004 1.396 1.333 1.442 2.664-1.236s4.424-.381 7.169-.381c2.744 0 7.172.381 7.172.381l.991-1.601c-.002-.001-5.038-.433-8.162-.433z"/><path fill="#D6BA47" d="M163.16 161.425l-3.004 1.399 1.333 1.441 2.664-1.236z"/><path fill="#E5C953" d="M171.323 120.104l-.905 13.973h1.788z"/><path fill="#D6BA47" d="M170.418 134.077h.887l.018-13.973z"/><ellipse fill="#E5C953" cx="171.293" cy="130.204" rx="1.296" ry="1.407"/><path fill="#EAD26C" d="M170.115 130.236c0 .714.534 1.291 1.19 1.291.656 0 1.188-.577 1.188-1.291.002-.711-2.378-.711-2.378 0z"/><path fill="#3EA3C1" d="M125.597 413.104h32.509v4.079h-32.509z"/><path fill="#C38482" d="M153.937 390.096h-24.008l-4.338 2.768v20.971H158.1v-20.971z"/><path fill="#D3A8A6" d="M129.929 390.096l-4.338 2.768v20.971h28.318l.028-23.739z"/><path fill="#CA8E8B" d="M141.884 390.096h-11.955l-4.338 2.768v20.971h16.387z"/><g fill="#C38482"><path d="M129.929 390.096l-4.338 2.768v20.971h4.518z"/><path d="M153.937 408.531h-24.008l-4.338 2.771v20.971H158.1v-20.971z"/></g><path fill="#D3A8A6" d="M129.929 408.531l-4.338 2.771v20.971h28.318l.028-23.742z"/><path fill="#CA8E8B" d="M141.884 408.531h-11.955l-4.338 2.771v20.971h16.387z"/><path fill="#C38482" d="M129.929 408.531l-4.338 2.771v20.971h4.518z"/><path fill="#E4DCD9" d="M153.967 400.297s-6.863-.069-12.049-.069c-5.186 0-11.869.069-11.869.069l-4.458 1.298v1.338l4.422-1.149s7.347-.022 11.903-.022c4.56 0 11.905.022 11.905.022l4.283 1.149v-1.338l-4.137-1.298z"/><path fill="#E4DCD9" d="M141.916 400.228c-5.184 0-11.869.069-11.869.069l-4.456 1.298v1.338l4.422-1.149s7.345-.022 11.903-.022c4.558 0 12.049.022 12.049.022v-1.488c.002.001-6.861-.068-12.049-.068z"/><path fill="#E4DCD9" d="M125.591 401.594v1.341l4.422-1.15.036-1.488z"/><path fill="#30A199" d="M161.759 368.754c-4.941-5.567-13.036-12.408-14.745-15.645-1.708-3.237-3.061-6.476-3.597-9.891h-2.995c-.546 3.415-1.888 6.653-3.601 9.891-1.707 3.236-9.808 10.077-14.744 15.645-9.891 11.15-2.069 18.615-2.069 18.615l3.326 3.595 5.036-2.339s8.362-.72 13.546-.72c5.188 0 13.55.72 13.55.72l5.03 2.339 3.328-3.595c.004 0 7.826-7.463-2.065-18.615z"/><path fill="#35A19A" d="M161.759 368.754c-4.941-5.567-34.747-5.567-39.685 0-9.889 11.15-2.068 18.615-2.068 18.615l3.326 3.595 5.036-2.339s8.362-.72 13.546-.72c5.188 0 13.55.72 13.55.72l5.031 2.339 3.328-3.595c.005 0 7.827-7.463-2.064-18.615z"/><path fill="#38A19A" d="M142.877 380.087c-20.861 0-22.871 7.285-22.871 7.285l3.326 3.594 5.036-2.338s8.362-.719 13.546-.719c5.188 0 13.55.719 13.55.719l5.031 2.338 3.328-3.594c.005-.003-.085-7.285-20.946-7.285z"/><path fill="#EAD063" d="M155.466 388.628s-8.362-.719-13.55-.719c-5.184 0-13.546.719-13.546.719l-4.997 2.318 2.217 2.394 4.422-2.055s7.345-.63 11.903-.63c4.558 0 11.903.63 11.903.63l4.426 2.055 2.213-2.394-4.991-2.318z"/><path fill="#E5C953" d="M141.916 387.909c-5.184 0-13.546.719-13.546.719l-4.997 2.318 2.217 2.394 4.422-2.055s7.345-.63 11.903-.63c4.558 0 11.903.63 11.903.63l1.645-2.66c.003.003-8.359-.716-13.547-.716z"/><path fill="#D6BA47" d="M128.37 388.628l-4.995 2.318 2.216 2.394 4.422-2.054z"/><path fill="#E5C953" d="M141.92 320.02l-1.499 23.199h2.965z"/><path fill="#D6BA47" d="M140.421 343.219h1.463l.036-23.199z"/><ellipse fill="#E5C953" cx="141.874" cy="336.798" rx="2.156" ry="2.338"/><path fill="#EAD26C" d="M139.908 336.848c0 1.185.887 2.146 1.98 2.146 1.097 0 1.978-.961 1.978-2.146s-3.958-1.185-3.958 0z"/><g fill="#E5C953"><path d="M121.474 388.953l1.86 2.013 1.088-.506zM160.401 391.031l-.499-.343-4.436-2.06s-1.019-.088-2.558-.2l.173 1.369-.018.009.03.022.012.032.014-.012 4.534 3.103.229.87a10.415 10.415 0 0 0 2.733-1.993l-.214-.797zM133.768 384.83l-5.202-2.669-.764-5.878-3.437-3.876-.285-5.817a77.11 77.11 0 0 0-2.008 2.167c-.243.275-.469.548-.69.818l.217 4.721-.014.012.026.02.012.032.02-.012 3.405 3.855.754 5.847-.016.012.028.02.014.036.016-.009 5.174 2.645.873 1.608c1.093-.079 2.353-.16 3.667-.234l-1.79-3.298z"/><path d="M127.325 388.619l-5.196-2.666-.768-5.877-3.437-3.877-.038-.766c-.652 1.781-.867 3.403-.812 4.834l1.529 1.729.566 4.372c.466.656.831 1.005.831 1.005l1.468 1.584 2.949 1.507 3.118-1.449-.21-.396zM147.146 385.06l-5.667-2.348-2.534-4.665-5.198-2.669-.766-5.877-3.438-3.876-.203-4.27c-.899.877-1.816 1.773-2.722 2.67l.162 3.487-.018.012.03.023.012.031.016-.009 3.406 3.856.757 5.846-.02.012.032.021.012.034.014-.011 5.174 2.646 2.522 4.636-.018.013.026.02.012.032.02-.013 5.639 2.327.118.975c.987.028 2.008.076 3.017.128l-.385-3.031zM143.417 343.219h-2.022l.868.416 1.268 5.668-.018.013.03.017.014.032.018-.011 2.031.873c-1.022-2.289-1.812-4.606-2.189-7.008z"/><path d="M155.847 387.909l-.753-5.901-5.667-2.347-2.53-4.669-5.2-2.666-.768-5.878-3.436-3.879-.299-6.198-2.006-1.019a53.709 53.709 0 0 1-2.087 2.261l1.342.678.291 6.166-.02.012.032.021.012.035.014-.013 3.409 3.856.758 5.846-.018.012.026.021.012.031.018-.012 5.172 2.646 2.518 4.64-.016.013.028.02.012.032.018-.013 5.636 2.327.566 4.5c1.539.117 2.558.2 2.558.2l4.436 2.061-4.058-2.783z"/><path d="M164.155 384.494l-.752-5.901-5.666-2.351-2.532-4.665-5.2-2.669-.766-5.878-3.435-3.876-.301-6.197-5.218-2.646-.62-3.899c-.554 1.836-1.31 3.638-2.199 5.435l.058.356-.016.008.028.024.008.034.018-.012 5.19 2.623.287 6.166-.016.009.03.023.01.031.016-.012 3.407 3.859.756 5.844-.016.012.028.02.012.035.018-.011 5.172 2.646 2.518 4.637-.016.005.026.021.012.031.02-.008 5.641 2.327.737 5.865-.018.013.028.02.01.032.016-.009 1.998 1.366.399-.429s.764-.729 1.511-2.068l-1.183-.811z"/><path d="M161.759 368.754a78.127 78.127 0 0 0-2.359-2.527l-2.373-1.032-.325-1.677c-2.652-2.613-5.359-5.193-7.287-7.303l.171 1.566-.016.012.03.02.01.032.02-.012 3.643 3.637 1.119 5.787-.016.012.028.02.014.032.018-.012 5.327 2.315 2.808 4.468-.016.012.032.021.012.031.016-.011 3.268 1.11c-.759-1.984-2.047-4.159-4.124-6.501zM159.386 390.46l1.089.506 1.86-2.013zM130.9 388.428c-1.542.117-2.558.2-2.558.2l-4.436 2.06-.499.342-.213.798c.883.888 1.81 1.531 2.731 1.994l.231-.871 4.536-3.102.014.011.012-.031.028-.022-.016-.009.17-1.37z"/></g><g fill="#D6BA47"><path d="M162.422 369.574c-.219-.27-.446-.542-.694-.817a64.867 64.867 0 0 0-2.008-2.167l-.281 5.816-3.438 3.876-.766 5.878-5.2 2.669-1.789 3.296c1.314.072 2.576.157 3.67.235l.874-1.607 5.17-2.646.02.008.008-.034.03-.021-.018-.011.757-5.847 3.406-3.855.02.011.012-.032.024-.02-.016-.011.219-4.721zM165.917 375.43l-.038.766-3.439 3.876-.766 5.878-5.198 2.667-.213.395 3.12 1.449 2.947-1.507 1.467-1.584s.363-.349.833-1.005l.562-4.372 1.531-1.729c.058-1.43-.153-3.052-.806-4.834zM157.189 364.025a375.527 375.527 0 0 0-2.722-2.67l-.206 4.27-3.435 3.876-.766 5.877-5.2 2.669-2.536 4.665-5.662 2.348-.387 3.023c1.011-.052 2.03-.099 3.015-.129l.126-.974 5.634-2.327.02.012.012-.031.026-.021-.018-.012 2.522-4.637 5.174-2.646.014.011.012-.034.032-.02-.02-.012.756-5.846 3.407-3.856.016.008.012-.031.03-.015-.022-.009.166-3.489zM142.417 343.219h-2.026c-.376 2.402-1.164 4.719-2.187 7.008l2.036-.873.018.011.014-.032.028-.017-.016-.013 1.268-5.668.865-.416z"/><path d="M150.705 357.613a52.975 52.975 0 0 1-2.086-2.261l-2.005 1.019-.301 6.198-3.436 3.876-.77 5.878-5.196 2.666-2.534 4.668-5.663 2.348-.751 5.9-4.06 2.779 4.437-2.06s1.019-.087 2.558-.199l.562-4.5 5.641-2.327.014.013.012-.032.032-.02-.016-.013 2.518-4.64 5.174-2.646.016.012.012-.031.026-.021-.016-.011.755-5.846 3.408-3.856.016.011.012-.033.032-.021-.02-.012.289-6.166 1.34-.673z"/><path d="M146.336 351.843c-.887-1.794-1.643-3.599-2.201-5.435l-.62 3.899-5.218 2.646-.299 6.197-3.435 3.876-.766 5.878-5.202 2.669-2.534 4.665-5.663 2.35-.751 5.902-1.183.81c.746 1.34 1.511 2.067 1.511 2.067l.399.429 1.998-1.366.018.008.012-.031.026-.021-.018-.012.742-5.865 5.637-2.327.02.009.012-.032.024-.02-.016-.012 2.518-4.637 5.174-2.646.014.012.016-.036.028-.02-.016-.013.756-5.844 3.407-3.857.016.011.012-.031.026-.023-.016-.008.289-6.167 5.192-2.622.014.011.012-.035.028-.023-.016-.008.053-.348z"/><path d="M134.394 356.215c-1.93 2.112-4.636 4.688-7.288 7.303l-.325 1.677-2.375 1.032a84.004 84.004 0 0 0-2.358 2.527c-2.08 2.342-3.368 4.518-4.115 6.499l3.266-1.11.018.012.012-.032.032-.02-.018-.013 2.81-4.468 5.325-2.314.018.012.014-.032.03-.021-.018-.011 1.121-5.788 3.641-3.636.02.011.012-.032.028-.02-.014-.012.164-1.564z"/></g><path fill="#D3A8A6" d="M134.816 411.153c-4.415 0-7.996 4.527-7.996 10.111h15.993c0-5.586-3.583-10.111-7.997-10.111z"/><path fill="#E4DCD9" d="M134.816 412.675c-3.663 0-6.632 3.751-6.632 8.382h13.265c.001-4.631-2.972-8.382-6.633-8.382z"/><path fill="#C38482" d="M134.838 413.588c-3.282 0-5.936 3.363-5.936 7.509h11.875c-.004-4.143-2.661-7.509-5.939-7.509z"/><path fill="#CA8E8B" d="M134.838 416.519c-3.282 0-5.936 2.052-5.936 4.582h11.875c-.004-2.534-2.661-4.582-5.939-4.582z"/><path fill="#D3A8A6" d="M149.519 411.153c-4.417 0-7.995 4.527-7.995 10.111h15.988c0-5.586-3.577-10.111-7.993-10.111z"/><path fill="#E4DCD9" d="M149.519 412.675c-3.665 0-6.629 3.751-6.629 8.382h13.263c-.003-4.631-2.974-8.382-6.634-8.382z"/><path fill="#C38482" d="M149.539 413.588c-3.278 0-5.939 3.363-5.939 7.509h11.879c-.001-4.143-2.659-7.509-5.94-7.509z"/><path fill="#CA8E8B" d="M149.539 416.519c-3.278 0-5.939 2.052-5.939 4.582h11.879c-.001-2.534-2.659-4.582-5.94-4.582z"/><path fill="#D3A8A6" d="M160.351 413.068c-2.259 0-4.095 3.883-4.095 8.67l7.999 2.776.193-2.776c0-4.787-1.836-8.67-4.097-8.67z"/><path fill="#E4DCD9" d="M160.351 414.369c-1.876 0-3.397 3.217-3.397 7.191l1.064 3.047h5.633l.096-3.047c0-3.97-1.52-7.191-3.396-7.191z"/><path fill="#C38482" d="M160.361 415.158c-1.683 0-3.042 2.881-3.042 6.438h6.083c-.001-3.554-1.358-6.438-3.041-6.438z"/><path fill="#CA8E8B" d="M160.361 417.668c-1.683 0-3.042 1.758-3.042 3.928l-.062 1.425 6.065 1.372.076-2.797c.003-2.17-1.354-3.928-3.037-3.928z"/><path fill="#D3A8A6" d="M123.519 413.068c-2.259 0-4.095 3.883-4.095 8.67l.195 2.776 7.995-2.776c-.002-4.787-1.834-8.67-4.095-8.67z"/><path fill="#E4DCD9" d="M123.519 414.369c-1.874 0-3.397 3.217-3.397 7.191l.094 3.047h5.635l1.064-3.047c.002-3.97-1.518-7.191-3.396-7.191z"/><path fill="#C38482" d="M123.509 415.158c-1.683 0-3.041 2.881-3.041 6.438h6.081c.001-3.554-1.361-6.438-3.04-6.438z"/><path fill="#CA8E8B" d="M126.55 421.599c0-2.173-1.362-3.928-3.041-3.928-1.683 0-3.041 1.759-3.041 3.928l.072 2.798 6.069-1.373-.059-1.425z"/><g fill="#3EA3C1"><path d="M158.233 421.32s-10.073-.983-16.319-.983-16.319.983-16.319.983l-6.021 3.178 2.67 3.28 5.332-2.813s8.851-.864 14.339-.864c5.489 0 14.337.864 14.337.864l5.328 2.813 2.672-3.28-6.019-3.178z"/><path d="M141.914 420.34c-6.247 0-16.319.984-16.319.984l-6.021 3.177 2.67 3.28 5.332-2.813s8.849-.865 14.337-.865c5.491 0 14.339.865 14.339.865l1.982-3.645c-.001-.003-10.073-.983-16.32-.983z"/><path d="M125.595 421.32l-6.022 3.18 2.67 3.281 5.332-2.814z"/><path d="M142.056 421.428c-10.053 0-24.829 3.598-24.829 3.598v16.071h50.067v-16.071c-.002-.001-15.186-3.598-25.238-3.598z"/></g><path fill="#D3A8A6" d="M132.384 422.458c-5.922 0-10.727 6.069-10.727 13.564h21.455c-.004-7.495-4.805-13.564-10.728-13.564z"/><path fill="#E4DCD9" d="M132.384 424.494c-4.913 0-8.896 5.034-8.896 11.247h17.795c-.005-6.21-3.989-11.247-8.899-11.247z"/><path fill="#C38482" d="M132.412 425.725c-4.398 0-7.967 4.512-7.967 10.073h15.937c.001-5.562-3.57-10.073-7.97-10.073z"/><path fill="#CA8E8B" d="M132.412 429.653c-4.398 0-7.967 2.753-7.967 6.147h15.937c.001-3.397-3.57-6.147-7.97-6.147z"/><path fill="#D3A8A6" d="M152.108 422.458c-5.923 0-10.725 6.069-10.725 13.564h21.456c-.004-7.495-4.805-13.564-10.731-13.564z"/><path fill="#E4DCD9" d="M152.108 424.494c-4.911 0-8.892 5.034-8.892 11.247h17.791c-.002-6.21-3.986-11.247-8.899-11.247z"/><path fill="#C38482" d="M152.139 425.725c-4.4 0-7.968 4.512-7.968 10.073h15.933c.001-5.562-3.567-10.073-7.965-10.073z"/><path fill="#CA8E8B" d="M152.139 429.653c-4.4 0-7.968 2.753-7.968 6.147h15.933c.001-3.397-3.567-6.147-7.965-6.147z"/><path fill="#D3A8A6" d="M166.642 425.025c-3.037 0-5.497 5.205-5.497 11.631l10.729 3.727.261-3.727c.003-6.426-2.459-11.631-5.493-11.631z"/><path fill="#E4DCD9" d="M166.642 426.774c-2.519 0-4.558 4.317-4.558 9.646l1.428 4.085h7.559l.127-4.085c.003-5.327-2.036-9.646-4.556-9.646z"/><path fill="#C38482" d="M166.653 427.828c-2.251 0-4.075 3.867-4.075 8.641h8.161c0-4.774-1.829-8.641-4.086-8.641z"/><path fill="#CA8E8B" d="M166.653 431.196c-2.251 0-4.075 2.358-4.075 5.272l-.082 1.914 8.141 1.84.102-3.754c0-2.913-1.829-5.272-4.086-5.272z"/><path fill="#D3A8A6" d="M117.227 425.025c-3.032 0-5.495 5.205-5.495 11.631l.261 3.727 10.729-3.727c.004-6.426-2.457-11.631-5.495-11.631z"/><path fill="#E4DCD9" d="M117.227 426.774c-2.516 0-4.558 4.317-4.558 9.646l.129 4.085h7.559l1.428-4.085c.004-5.327-2.042-9.646-4.558-9.646z"/><path fill="#C38482" d="M117.213 427.828c-2.251 0-4.08 3.867-4.08 8.641h8.161c0-4.774-1.828-8.641-4.081-8.641z"/><path fill="#CA8E8B" d="M121.294 436.469c0-2.911-1.828-5.272-4.079-5.272s-4.08 2.358-4.08 5.272l.102 3.754 8.141-1.84-.084-1.914z"/><path fill="#3EA3C1" d="M142.087 434.289c-12.471 0-30.806 4.463-30.806 4.463v13.636h62.113v-13.636c.001 0-18.837-4.463-31.307-4.463z"/><path fill="#D3A8A6" d="M130.085 435.563c-7.349 0-13.307 7.531-13.307 16.825h26.615c.001-9.294-5.955-16.825-13.308-16.825z"/><path fill="#E4DCD9" d="M130.085 438.09c-6.099 0-11.04 6.248-11.04 13.959h22.078c.002-7.706-4.945-13.959-11.038-13.959z"/><path fill="#C38482" d="M130.121 439.619c-5.461 0-9.883 5.597-9.883 12.499h19.771c-.001-6.905-4.431-12.499-9.888-12.499z"/><path fill="#CA8E8B" d="M130.121 444.49c-5.461 0-9.883 3.415-9.883 7.625h19.771c-.001-4.21-4.431-7.625-9.888-7.625z"/><path fill="#D3A8A6" d="M154.557 435.563c-7.347 0-13.311 7.531-13.311 16.825h26.618c0-9.294-5.956-16.825-13.307-16.825z"/><path fill="#E4DCD9" d="M154.557 438.09c-6.099 0-11.038 6.248-11.038 13.959h22.074c.002-7.706-4.937-13.959-11.036-13.959z"/><path fill="#C38482" d="M154.593 439.619c-5.461 0-9.881 5.597-9.881 12.499h19.763c-.001-6.905-4.421-12.499-9.882-12.499z"/><path fill="#CA8E8B" d="M154.593 444.49c-5.461 0-9.881 3.415-9.881 7.625h19.763c-.001-4.21-4.421-7.625-9.882-7.625z"/><path fill="#D3A8A6" d="M172.587 438.752c-3.766 0-6.819 6.458-6.819 14.431l13.313 4.622.321-4.622c.004-7.973-3.048-14.431-6.815-14.431z"/><path fill="#E4DCD9" d="M172.587 440.919c-3.122 0-5.652 5.355-5.652 11.969l1.771 5.071h9.377l.159-5.071c.002-6.611-2.533-11.969-5.655-11.969z"/><path fill="#C38482" d="M172.607 442.227c-2.799 0-5.063 4.8-5.063 10.721h10.123c0-5.922-2.263-10.721-5.06-10.721z"/><path fill="#CA8E8B" d="M172.607 446.408c-2.799 0-5.063 2.927-5.063 6.539l-.1 2.371 10.095 2.283.127-4.654c.001-3.612-2.262-6.539-5.059-6.539z"/><path fill="#D3A8A6" d="M111.279 438.752c-3.763 0-6.815 6.458-6.815 14.431l.321 4.622 13.311-4.622c.004-7.973-3.051-14.431-6.817-14.431z"/><path fill="#E4DCD9" d="M111.279 440.919c-3.119 0-5.652 5.355-5.652 11.969l.161 5.071h9.375l1.771-5.071c.002-6.611-2.527-11.969-5.655-11.969z"/><path fill="#C38482" d="M111.267 442.227c-2.799 0-5.066 4.8-5.066 10.721h10.126c.001-5.922-2.268-10.721-5.06-10.721z"/><path fill="#CA8E8B" d="M116.328 452.947c0-3.612-2.267-6.539-5.061-6.539-2.799 0-5.066 2.927-5.066 6.539l.129 4.654 10.097-2.283-.099-2.371z"/><path fill="#C38482" d="M168.839 451.259l-.062 20.026c1.039.016 2.072.077 3.114.077 2.153 0 4.289-.09 6.422-.161v-17.362l-9.474-2.58z"/><path fill="#D3A8A6" d="M141.41 451.259l.171 17.57c8.869 1.475 17.95 2.3 27.198 2.456l.06-20.026H141.41z"/><path fill="#CA8E8B" d="M141.41 451.259H114.2l.197 10.88a182.933 182.933 0 0 0 27.18 6.693l-.167-17.573z"/><path fill="#C38482" d="M114.2 451.259l-9.87 2.579v4.648a181.993 181.993 0 0 0 10.071 3.652l-.201-10.879z"/><path fill="#3EA3C1" d="M66.265 363.316h35.751v4.483H66.265z"/><path fill="#C38482" d="M97.436 337.997H71.038l-4.771 3.046v23.058h35.751v-23.058z"/><path fill="#D3A8A6" d="M71.038 337.997l-4.771 3.046v23.058h31.137l.032-26.104z"/><path fill="#CA8E8B" d="M84.189 337.997H71.038l-4.771 3.046v23.058h18.024z"/><g fill="#C38482"><path d="M71.038 337.997l-4.771 3.046v23.058h4.968z"/><path d="M97.436 358.271H71.038l-4.771 3.043v23.06h35.751v-23.06z"/></g><path fill="#D3A8A6" d="M71.038 358.271l-4.771 3.043v23.06h31.137l.032-26.103z"/><path fill="#CA8E8B" d="M84.189 358.271H71.038l-4.771 3.043v23.06h18.024z"/><path fill="#C38482" d="M71.038 358.271l-4.771 3.043v23.06h4.968z"/><path fill="#E4DCD9" d="M97.474 349.217s-7.549-.079-13.253-.079c-5.7 0-13.05.079-13.05.079l-4.9 1.424v1.472l4.865-1.262s8.077-.027 13.087-.027c5.014 0 13.093.027 13.093.027l4.708 1.262v-1.472l-4.55-1.424z"/><path fill="#E4DCD9" d="M84.217 349.138c-5.701 0-13.05.079-13.05.079l-4.901 1.424v1.472l4.865-1.262s8.079-.027 13.089-.027c5.012 0 13.253.027 13.253.027v-1.634c.001 0-7.548-.079-13.256-.079z"/><path fill="#E4DCD9" d="M66.267 350.641v1.471l4.867-1.261.033-1.634z"/><path fill="#CA8E8B" d="M84.291 353.815l-4.947 10.286h9.887z"/><path fill="#C38482" d="M84.291 353.815l-4.947 10.286h5.043z"/><g fill="#D3A8A6"><path d="M84.291 356.218l-3.792 7.883h7.578zM97.436 353.815l-4.514 10.286h9.034z"/></g><path fill="#3EA3C1" d="M92.922 364.101h4.454l.06-10.286z"/><path fill="#C38482" d="M97.436 356.218l-3.457 7.883h6.918z"/><path fill="#D3A8A6" d="M71.104 353.815l-4.682 10.286h9.361z"/><path fill="#3EA3C1" d="M71.104 353.815l.062 10.286h4.617z"/><path fill="#C38482" d="M71.104 356.218l-3.591 7.883h7.177z"/><g fill="#E4DCD9"><path d="M77.267 341.479l-4.941 2.811 4.941 2.814 4.942-2.814zM91.11 341.479l-4.943 2.811 4.943 2.814 4.94-2.814zM100.15 343.832l-1.873.812 1.299 1.569 1.87-.809zM68.227 343.814l-1.42 1.465 1.802.955 1.422-1.468z"/></g><path fill="#30A199" d="M106.04 314.527c-5.431-6.124-14.335-13.644-16.216-17.205-1.874-3.559-3.362-7.12-3.954-10.877h-3.296c-.596 3.757-2.078 7.317-3.954 10.877-1.878 3.561-10.785 11.078-16.216 17.205-10.88 12.262-2.275 20.471-2.275 20.471l3.659 3.953 5.539-2.57s9.196-.789 14.896-.789c5.706 0 14.9.789 14.9.789l5.537 2.57 3.659-3.953c-.005 0 8.601-8.209-2.279-20.471z"/><path fill="#35A19A" d="M106.04 314.527c-5.431-6.124-38.206-6.124-43.637 0-10.878 12.262-2.273 20.471-2.273 20.471l3.659 3.953 5.539-2.57s9.194-.789 14.894-.789c5.708 0 14.902.789 14.902.789l5.535 2.57 3.661-3.953c-.006 0 8.6-8.209-2.28-20.471z"/><path fill="#38A19A" d="M85.278 326.986c-22.939 0-25.15 8.012-25.15 8.012l3.659 3.953 5.539-2.57s9.196-.789 14.896-.789c5.706 0 14.902.789 14.902.789l5.535 2.57 3.659-3.953c-.004 0-.099-8.012-23.04-8.012z"/><path fill="#EAD063" d="M99.119 336.381s-9.194-.789-14.9-.789c-5.701 0-14.896.789-14.896.789l-5.495 2.551 2.437 2.635 4.865-2.257s8.079-.694 13.087-.694c5.014 0 13.095.694 13.095.694l4.865 2.257 2.435-2.635-5.493-2.551z"/><path fill="#E5C953" d="M84.217 335.592c-5.701 0-14.894.789-14.894.789l-5.497 2.551 2.438 2.635 4.865-2.257s8.077-.694 13.087-.694c5.014 0 13.093.694 13.093.694l1.809-2.929c.001 0-9.193-.789-14.901-.789z"/><path fill="#D6BA47" d="M69.323 336.381l-5.492 2.551 2.436 2.634 4.867-2.257z"/><path fill="#E5C953" d="M84.217 260.938l-1.643 25.511h3.264z"/><path fill="#D6BA47" d="M82.574 286.449h1.615l.028-25.511z"/><ellipse fill="#E5C953" cx="84.195" cy="279.382" rx="2.371" ry="2.57"/><path fill="#EAD26C" d="M82.014 279.441c0 1.305.973 2.357 2.175 2.357 1.2 0 2.177-1.053 2.177-2.357 0-1.301-4.352-1.301-4.352 0z"/><path fill="#C14C4E" d="M61.739 336.741l2.046 2.21 1.194-.554z"/><path fill="#E4DCD9" d="M104.548 339.024l-.548-.377-4.881-2.267s-1.117-.096-2.813-.22l.191 1.508-.02.013.032.023.01.034.018-.011 4.982 3.408.257.958a11.499 11.499 0 0 0 3.006-2.193l-.234-.876z"/><g fill="#BB393B"><path d="M75.259 332.203l-5.718-2.934-.845-6.464-3.776-4.262-.309-6.4a83.83 83.83 0 0 0-2.211 2.386c-.269.301-.517.6-.766.899l.247 5.192-.02.012.028.023.016.035.02-.012 3.747 4.239.829 6.429-.018.016.03.02.014.038.018-.013 5.688 2.908.961 1.767c1.2-.084 2.588-.174 4.033-.252l-1.968-3.627zM68.177 336.372l-5.718-2.934-.841-6.464-3.78-4.265-.042-.844c-.716 1.958-.947 3.742-.889 5.317l1.679 1.904.624 4.807c.517.719.914 1.099.914 1.099l1.613 1.744 3.242 1.655 3.432-1.592-.234-.427zM89.969 332.461l-6.23-2.581-2.786-5.133-5.718-2.934-.843-6.467-3.778-4.262-.223-4.694c-.989.965-1.996 1.949-2.991 2.935l.179 3.836-.016.012.032.023.012.035.02-.013 3.745 4.24.831 6.429-.02.013.032.023.014.034.016-.012 5.688 2.907 2.77 5.098-.016.012.032.023.012.037.016-.011 6.201 2.559.14 1.07c1.083.032 2.207.084 3.313.14l-.432-3.319zM85.87 286.449h-2.225l.957.455 1.386 6.233-.014.011.032.021.018.038.014-.015 2.239.964c-1.129-2.52-1.99-5.064-2.407-7.707z"/><path d="M99.538 335.592l-.828-6.49-6.229-2.579-2.783-5.135-5.718-2.936-.841-6.464-3.78-4.262-.329-6.815-2.211-1.117a55.557 55.557 0 0 1-2.294 2.483l1.479.745.315 6.78-.018.012.032.023.012.037.02-.012 3.747 4.24.83 6.429-.018.012.03.024.012.038.02-.016 5.686 2.91 2.773 5.098-.02.012.032.022.012.035.02-.011 6.201 2.556.622 4.947c1.699.125 2.815.22 2.815.22l4.879 2.267-4.468-3.053z"/><path d="M108.677 331.834l-.828-6.489-6.229-2.582-2.783-5.132-5.718-2.935-.841-6.464-3.78-4.262-.331-6.814-5.732-2.907-.682-4.288c-.612 2.022-1.444 4.001-2.421 5.974l.062.392-.014.012.028.023.012.038.02-.014 5.704 2.883.319 6.78-.02.012.03.022.012.035.018-.011 3.747 4.238.832 6.431-.016.011.028.022.012.036.02-.012 5.688 2.907 2.771 5.097-.02.011.032.024.012.038.02-.015 6.199 2.559.813 6.452-.018.012.032.023.012.035.016-.009 2.197 1.503.438-.477s.839-.799 1.663-2.273l-1.304-.886z"/><path d="M106.04 314.527a83.386 83.386 0 0 0-2.594-2.779l-2.604-1.137-.363-1.847c-2.917-2.875-5.894-5.706-8.013-8.03l.188 1.725-.018.014.032.02.012.036.02-.012 4.008 3.994 1.23 6.363-.018.011.032.021.016.034.02-.013 5.86 2.549 3.084 4.914-.016.016.032.02.014.038.016-.011 3.595 1.224c-.835-2.181-2.249-4.572-4.533-7.15z"/></g><path fill="#C38482" d="M110.003 392.982H58.652l-9.279 5.925v25.606A184.257 184.257 0 0 0 85.93 450.01l11.337-36.995 12.035 39.261h-18.95c.247.122.489.256.734.377l27.833 10.613v-64.357l-8.916-5.927z"/><path fill="#E4DCD9" d="M97.263 413.017l-11.337 36.994c1.463.777 2.939 1.529 4.422 2.267h18.949l-12.034-39.261z"/><path fill="#D3A8A6" d="M84.229 392.982l.152 56.236c.506.275 1.033.522 1.545.792l11.337-36.994-.038 9.284.038-.122 9.229 30.103h-16.14a182.786 182.786 0 0 0 19.593 8.349l.06-67.645H84.231v-.003h-.002z"/><g fill="#CA8E8B"><path d="M84.133 449.084l.248.741v-.603l-.248-.138z"/><path d="M84.229 392.982H58.652l.255 39.477a179.994 179.994 0 0 0 5.417 4.082l7.822-23.523 11.987 36.066c.082.047.166.094.248.138l-.152-56.24z"/></g><path fill="#C38482" d="M58.652 392.982l-9.279 5.925v25.606a183.636 183.636 0 0 0 9.535 7.943l-.256-39.474z"/><g fill="#E4DCD9"><path d="M72.146 413.017l.06 9.348 8.163 24.554c1.256.724 2.488 1.472 3.762 2.166l-11.985-36.068z"/><path d="M72.146 413.017l-7.822 23.524c.817.592 1.635 1.175 2.466 1.752l5.357-16.117.062.186-.063-9.345z"/></g><g fill="#D3A8A6"><path d="M72.21 422.364l.129 19.654c2.632 1.7 5.31 3.334 8.033 4.899l-8.162-24.553z"/><path d="M72.21 422.364l-.062-.186-5.359 16.117a182.71 182.71 0 0 0 5.551 3.726l-.13-19.657z"/></g><g fill="#E4DCD9"><path d="M85.928 450.015c.8.427 1.619.829 2.425 1.244l8.874-28.955.038-9.284-11.337 36.995zM97.351 413.017l.038 9.284 8.875 28.956c.808-.416 1.625-.819 2.427-1.244l-11.34-36.996z"/></g><g fill="#C38482"><path d="M97.263 422.179l-.036.122-.122 29.976h9.387zM88.353 451.257c.664.339 1.326.687 1.996 1.021h6.755l.122-29.979-8.873 28.958z"/></g><path fill="#E4DCD9" d="M109.975 405.726s-14.694-.154-25.8-.154c-11.107 0-25.419.154-25.419.154l-9.542 2.774v2.865l9.471-2.457s15.733-.05 25.491-.05c9.754 0 25.489.05 25.489.05l9.164 2.457V408.5l-8.854-2.774z"/><path fill="#E4DCD9" d="M84.177 405.571c-11.105 0-25.417.154-25.417.154l-9.542 2.774v2.865l9.471-2.457s15.733-.05 25.491-.05c9.754 0 25.8.05 25.8.05v-3.182c-.005.001-14.699-.154-25.803-.154z"/><path fill="#E4DCD9" d="M49.216 408.5v2.865l9.471-2.457.071-3.182z"/><path fill="#D3A8A6" d="M77.743 362.563c-4.029 0-7.297 3.632-7.297 8.115h14.595c0-4.484-3.269-8.115-7.298-8.115z"/><path fill="#E4DCD9" d="M77.743 363.784c-3.344 0-6.055 3.012-6.055 6.728h12.106c0-3.716-2.709-6.728-6.051-6.728z"/><path fill="#C38482" d="M77.763 364.518c-2.991 0-5.419 2.698-5.419 6.025h10.843c0-3.327-2.429-6.025-5.424-6.025z"/><path fill="#CA8E8B" d="M77.763 366.868c-2.991 0-5.419 1.647-5.419 3.679h10.843c0-2.031-2.429-3.679-5.424-3.679z"/><path fill="#D3A8A6" d="M91.162 362.563c-4.03 0-7.297 3.632-7.297 8.115H98.46c-.001-4.484-3.267-8.115-7.298-8.115z"/><path fill="#E4DCD9" d="M91.162 363.784c-3.34 0-6.053 3.012-6.053 6.728h12.108c0-3.716-2.714-6.728-6.055-6.728z"/><path fill="#C38482" d="M91.182 364.518c-2.991 0-5.421 2.698-5.421 6.025h10.842c0-3.327-2.427-6.025-5.421-6.025z"/><path fill="#CA8E8B" d="M91.182 366.868c-2.991 0-5.421 1.647-5.421 3.679h10.842c0-2.031-2.427-3.679-5.421-3.679z"/><path fill="#D3A8A6" d="M101.051 364.101c-2.067 0-3.738 3.115-3.738 6.96l7.299 2.229.18-2.229c-.003-3.845-1.678-6.96-3.741-6.96z"/><path fill="#E4DCD9" d="M101.051 365.145c-1.714 0-3.1 2.586-3.1 5.773l.971 2.443h5.138l.092-2.443c-.001-3.188-1.388-5.773-3.101-5.773z"/><path fill="#C38482" d="M101.061 365.777c-1.536 0-2.777 2.314-2.777 5.17h5.553c-.001-2.855-1.245-5.17-2.776-5.17z"/><path fill="#CA8E8B" d="M101.061 367.794c-1.536 0-2.777 1.412-2.777 3.153l-.058 1.144 5.539 1.103.072-2.246c-.001-1.742-1.245-3.154-2.776-3.154z"/><path fill="#D3A8A6" d="M67.431 364.101c-2.063 0-3.736 3.115-3.736 6.96l.175 2.229 7.301-2.229c-.004-3.845-1.676-6.96-3.74-6.96z"/><path fill="#E4DCD9" d="M67.431 365.145c-1.715 0-3.098 2.586-3.098 5.773l.083 2.443h5.142l.971-2.443c.005-3.188-1.387-5.773-3.098-5.773z"/><path fill="#C38482" d="M67.419 365.777c-1.531 0-2.778 2.314-2.778 5.17h5.555c.001-2.855-1.239-5.17-2.777-5.17z"/><path fill="#CA8E8B" d="M70.197 370.947c0-1.741-1.242-3.153-2.777-3.153-1.531 0-2.778 1.412-2.778 3.153l.074 2.246 5.531-1.103-.05-1.143z"/><g fill="#3EA3C1"><path d="M99.119 370.727s-9.194-.789-14.9-.789c-5.701 0-14.896.789-14.896.789l-5.495 2.547 2.437 2.635 4.865-2.257s8.079-.693 13.087-.693c5.014 0 13.095.693 13.095.693l4.865 2.257 2.435-2.635-5.493-2.547z"/><path d="M84.217 369.938c-5.701 0-14.894.789-14.894.789l-5.497 2.547 2.438 2.635 4.865-2.257s8.077-.693 13.087-.693c5.014 0 13.093.693 13.093.693l1.809-2.925c.001 0-9.193-.789-14.901-.789z"/><path d="M69.323 370.727l-5.492 2.546 2.436 2.635 4.867-2.26z"/></g><path fill="#E4DCD9" d="M98.698 371.316s-8.937-.77-14.481-.77c-5.537 0-14.473.77-14.473.77l-5.335 2.477 2.365 2.561 4.725-2.197s7.852-.674 12.719-.674c4.873 0 12.722.674 12.722.674l4.728 2.197 2.367-2.561-5.337-2.477z"/><path fill="#E4DCD9" d="M84.217 370.547c-5.537 0-14.473.77-14.473.77l-5.335 2.477 2.365 2.561 4.725-2.197s7.852-.674 12.719-.674c4.873 0 12.722.674 12.722.674l1.759-2.84c-.001-.002-8.935-.771-14.482-.771z"/><path fill="#E4DCD9" d="M69.744 371.316l-5.335 2.477 2.366 2.561 4.724-2.198z"/><path fill="#3EA3C1" d="M84.407 371.322c-13.718 0-33.873 4.314-33.873 4.314v19.279h68.298v-19.279s-20.714-4.314-34.425-4.314z"/><path fill="#D3A8A6" d="M71.209 372.555c-8.081 0-14.633 7.282-14.633 16.271h29.27c0-8.989-6.554-16.271-14.637-16.271z"/><path fill="#E4DCD9" d="M71.209 375c-6.703 0-12.14 6.045-12.14 13.494h24.276C83.348 381.041 77.911 375 71.209 375z"/><path fill="#C38482" d="M71.251 376.475c-6.001 0-10.871 5.41-10.871 12.084h21.737c.001-6.674-4.864-12.084-10.866-12.084z"/><path fill="#CA8E8B" d="M71.251 381.187c-6.001 0-10.871 3.302-10.871 7.375h21.737c.001-4.074-4.864-7.375-10.866-7.375z"/><path fill="#D3A8A6" d="M98.118 372.555c-8.079 0-14.633 7.282-14.633 16.271h29.271c.001-8.989-6.557-16.271-14.638-16.271z"/><path fill="#E4DCD9" d="M98.118 375c-6.703 0-12.137 6.045-12.137 13.494h24.273c.004-7.453-5.431-13.494-12.136-13.494z"/><path fill="#C38482" d="M98.162 376.475c-6.001 0-10.869 5.41-10.869 12.084h21.735c0-6.674-4.867-12.084-10.866-12.084z"/><path fill="#CA8E8B" d="M98.162 381.187c-6.001 0-10.869 3.302-10.869 7.375h21.735c0-4.074-4.867-7.375-10.866-7.375z"/><path fill="#D3A8A6" d="M117.951 375.636c-4.144 0-7.499 6.246-7.499 13.954l14.639 4.469.357-4.469c-.001-7.708-3.363-13.954-7.497-13.954z"/><path fill="#E4DCD9" d="M117.951 377.733c-3.438 0-6.223 5.182-6.223 11.573l1.95 4.9h10.312l.177-4.9c0-6.393-2.785-11.573-6.216-11.573z"/><path fill="#C38482" d="M117.966 379.001c-3.074 0-5.566 4.64-5.566 10.364h11.137c0-5.727-2.492-10.364-5.571-10.364z"/><path fill="#CA8E8B" d="M117.966 383.041c-3.074 0-5.566 2.831-5.566 6.322l-.108 2.295 11.104 2.208.142-4.503c-.001-3.491-2.493-6.322-5.572-6.322z"/><path fill="#D3A8A6" d="M50.534 375.636c-4.143 0-7.497 6.246-7.497 13.954l.355 4.469 14.639-4.469c-.001-7.708-3.356-13.954-7.497-13.954z"/><path fill="#E4DCD9" d="M50.534 377.733c-3.436 0-6.221 5.182-6.221 11.573l.179 4.9h10.31l1.952-4.9c-.002-6.393-2.785-11.573-6.22-11.573z"/><path fill="#C38482" d="M50.514 379.001c-3.079 0-5.571 4.64-5.571 10.364h11.136c0-5.727-2.489-10.364-5.565-10.364z"/><path fill="#CA8E8B" d="M56.079 389.362c0-3.492-2.491-6.323-5.565-6.323-3.079 0-5.571 2.833-5.571 6.323l.142 4.503 11.104-2.208-.11-2.295z"/><g fill="#3EA3C1"><path d="M114.077 389.779s-18.443-1.581-29.875-1.581c-11.437 0-29.875 1.581-29.875 1.581l-11.012 5.116 4.883 5.28 9.756-4.528s16.202-1.39 26.249-1.39 26.249 1.39 26.249 1.39l9.754 4.528 4.887-5.28-11.016-5.116z"/><path d="M84.201 388.198c-11.437 0-29.875 1.581-29.875 1.581l-11.012 5.116 4.883 5.28 9.756-4.528s16.202-1.39 26.249-1.39 26.249 1.39 26.249 1.39l3.627-5.864c-.001-.004-18.444-1.585-29.877-1.585z"/><path d="M54.328 389.779l-11.012 5.117 4.879 5.28 9.762-4.53z"/></g><path fill="#E4DCD9" d="M113.231 390.964s-17.92-1.541-29.03-1.541c-11.113 0-29.034 1.541-29.034 1.541l-10.701 4.967 4.748 5.132 9.48-4.4s15.747-1.353 25.507-1.353 25.505 1.353 25.505 1.353l9.482 4.4 4.748-5.132-10.705-4.967z"/><path fill="#E4DCD9" d="M84.201 389.423c-11.113 0-29.034 1.541-29.034 1.541l-10.701 4.967 4.748 5.132 9.48-4.4s15.747-1.353 25.507-1.353 25.505 1.353 25.505 1.353l3.527-5.698c-.002-.001-17.92-1.542-29.032-1.542z"/><path fill="#E4DCD9" d="M55.171 390.964l-10.701 4.97 4.746 5.132 9.478-4.404zM177.871 185.479h-11.538c-2.359 0-4.275 2.056-4.275 4.59 0 2.536 1.912 4.594 4.275 4.594h11.538c2.359 0 4.273-2.055 4.273-4.594-.002-2.534-1.915-4.59-4.273-4.59z"/><path fill="#3EA3C1" d="M195.867 379.623h51.867v6.504h-51.867z"/><path fill="#C38482" d="M241.099 342.889h-38.304l-6.916 4.422v33.452h51.867v-33.452z"/><path fill="#D3A8A6" d="M202.795 342.889l-6.916 4.422v33.452h45.172l.048-37.874z"/><path fill="#CA8E8B" d="M221.878 342.889h-19.083l-6.916 4.422v33.452h26.141z"/><g fill="#C38482"><path d="M202.795 342.889l-6.916 4.422v33.452h7.204zM240.748 394.063h-37.604l-6.797 4.337v32.846h50.926V398.4z"/></g><path fill="#D3A8A6" d="M203.144 394.063l-6.797 4.337v32.846h44.355l.046-37.183z"/><path fill="#CA8E8B" d="M221.878 394.063h-18.734l-6.797 4.337v32.846h25.671z"/><g fill="#C38482"><path d="M203.144 394.063l-6.797 4.337v32.846h7.078zM240.748 430.784l-.038 27.2a179.058 179.058 0 0 0 6.56-2.808v-20.058l-6.522-4.334z"/></g><path fill="#D3A8A6" d="M221.878 430.784l.128 33.604a182.075 182.075 0 0 0 18.708-6.401l.038-27.201h-18.874v-.002z"/><path fill="#CA8E8B" d="M221.878 430.784h-18.734l.283 37.181h3.607a180.966 180.966 0 0 0 14.972-3.581l-.128-33.6z"/><path fill="#C38482" d="M196.347 435.122v34.572c2.367-.313 4.719-.674 7.06-1.079l-.263-37.831-6.797 4.338z"/><path fill="#E4DCD9" d="M241.145 359.169s-10.946-.117-19.221-.117c-8.276 0-18.933.117-18.933.117l-7.112 2.065v2.133l7.056-1.828s11.721-.038 18.991-.038 18.989.038 18.989.038l6.831 1.828v-2.133l-6.601-2.065z"/><path fill="#E4DCD9" d="M221.924 359.052c-8.274 0-18.933.117-18.933.117l-7.112 2.065v2.133l7.056-1.828s11.721-.038 18.993-.038c7.268 0 19.221.038 19.221.038v-2.37c-.004 0-10.951-.117-19.225-.117z"/><path fill="#E4DCD9" d="M195.879 361.234v2.132l7.052-1.827.06-2.37z"/><path fill="#CA8E8B" d="M222.02 365.842l-7.168 14.918h14.339z"/><path fill="#C38482" d="M222.02 365.842l-7.168 14.918h7.309z"/><g fill="#D3A8A6"><path d="M222.02 369.323l-5.498 11.437h10.999zM241.099 365.842l-6.55 14.918h13.101z"/></g><path fill="#3EA3C1" d="M234.549 380.76h6.462l.088-14.918z"/><path fill="#C38482" d="M241.099 369.323l-5.023 11.437h10.045z"/><path fill="#D3A8A6" d="M202.895 365.842l-6.791 14.918h13.576z"/><path fill="#3EA3C1" d="M202.895 365.842l.085 14.918h6.7z"/><path fill="#C38482" d="M202.895 369.323l-5.206 11.437h10.414z"/><g fill="#E4DCD9"><path d="M214.242 399.602l-7.977 37.772h15.952z"/><path d="M214.242 399.602l-7.977 37.772h8.136z"/></g><path fill="#D3A8A6" d="M214.242 408.412l-6.117 28.962h12.23z"/><g fill="#E4DCD9"><path d="M229.586 399.602l-7.349 37.772h14.702z"/><path d="M222.237 437.374h7.253l.096-37.772z"/></g><path fill="#C38482" d="M229.59 408.412l-5.64 28.962h11.275z"/><path fill="#E4DCD9" d="M201.346 399.602l-5.242 37.772h10.481z"/><path fill="#C38482" d="M201.346 408.412l-4.02 28.962h8.037z"/><g fill="#E4DCD9"><path d="M242.277 399.602l-5.244 37.772h10.482z"/><path d="M242.277 399.602l.068 37.772h5.17z"/></g><path fill="#C38482" d="M242.277 408.412l-4.02 28.962h8.037z"/><g fill="#E4DCD9"><path d="M211.835 347.942l-7.168 4.08 7.168 4.081 7.17-4.081zM231.919 347.942l-7.17 4.08 7.17 4.081 7.17-4.081zM245.028 351.354l-2.714 1.179 1.887 2.28 2.714-1.177zM198.716 351.325l-2.054 2.133 2.616 1.381 2.056-2.126z"/></g><path fill="#C14C4E" d="M253.578 308.845c-7.883-8.885-20.799-19.796-23.527-24.961-2.722-5.164-4.875-10.329-5.736-15.776h-4.781c-.861 5.451-3.015 10.614-5.742 15.776-2.721 5.164-15.641 16.076-23.523 24.961-15.779 17.788-3.3 29.696-3.3 29.696l5.308 5.737 8.033-3.729s13.342-1.146 21.615-1.146 21.613 1.146 21.613 1.146l8.033 3.729 5.308-5.737c-.004-.001 12.48-11.908-3.301-29.696z"/><path fill="#BB393B" d="M253.578 308.845c-7.883-8.885-55.428-8.885-63.31 0-15.779 17.788-3.3 29.696-3.3 29.696l5.308 5.737 8.033-3.729s13.342-1.146 21.615-1.146 21.613 1.146 21.613 1.146l8.033 3.729 5.308-5.737c-.003-.001 12.481-11.908-3.3-29.696z"/><path fill="#BB393B" d="M223.455 326.92c-33.281 0-36.483 11.62-36.483 11.62l5.306 5.738 8.035-3.731s13.343-1.145 21.615-1.145c8.271 0 21.611 1.145 21.611 1.145l8.035 3.731 5.305-5.738c-.004 0-.145-11.62-33.424-11.62z"/><path fill="#EAD063" d="M243.537 340.547s-13.341-1.145-21.613-1.145c-8.27 0-21.615 1.145-21.615 1.145l-7.967 3.7 3.537 3.818 7.056-3.276s11.721-1.007 18.993-1.007c7.268 0 18.989 1.007 18.989 1.007l7.056 3.276 3.537-3.818-7.973-3.7z"/><path fill="#E5C953" d="M221.924 339.402c-8.274 0-21.615 1.145-21.615 1.145l-7.967 3.7 3.537 3.818 7.056-3.276s11.721-1.007 18.993-1.007c7.268 0 18.989 1.007 18.989 1.007l2.622-4.245c-.002.003-13.341-1.142-21.615-1.142z"/><path fill="#D6BA47" d="M200.309 340.547l-7.967 3.7 3.537 3.818 7.052-3.273z"/><path fill="#E5C953" d="M221.924 231.098l-2.391 37.006h4.736z"/><path fill="#D6BA47" d="M219.533 268.104h2.345l.046-37.006z"/><ellipse fill="#E5C953" cx="221.892" cy="257.854" rx="3.445" ry="3.728"/><path fill="#EAD26C" d="M218.722 257.938c0 1.89 1.412 3.421 3.156 3.421s3.156-1.529 3.156-3.421c-.002-1.886-6.312-1.886-6.312 0z"/><path fill="#E4DCD9" d="M252.764 335.415l-7.588-4.764-7.425 1.419-7.593-2.495-7.425 2.495-7.588-2.495-7.427 2.495-7.582-1.419-7.431 4.764-7.586-1.703-1.099.49c1.332 2.797 2.949 4.339 2.949 4.339l1.097 1.186 4.596 1.03v.032l.046-.016.052.016v-.032l7.379-4.75 7.541 1.404v.029l.046-.016.05.016v-.032l7.379-2.479 7.542 2.48v.029l.046-.016.05.016v-.031l7.375-2.479 7.546 2.48v.027l.05-.014.05.014v-.031l7.375-1.4 7.546 4.75v.031l.048-.016.048.016v-.031l2.558-.586 1.507-1.631s1.791-1.709 3.158-4.794l-7.29 1.672zM261.304 323.447l-1.116-.45-7.425.368-7.59-4.41-7.425 2.495-7.593-2.495-7.425 2.495-7.586-2.495-7.427 2.495-7.584-2.495-7.431 4.41-7.586-1.325-2.578 1.39a18.51 18.51 0 0 0-.105 5.417l2.684-1.451 7.544 1.309v.032l.046-.018.052.018v-.032l7.379-4.394 7.541 2.479v.032l.046-.015.05.015v-.032l7.377-2.479 7.544 2.479v.032l.046-.015.05.015v-.032l7.375-2.479 7.546 2.479v.032l.05-.015.05.015v-.032l7.375-2.479 7.547 4.394v.032l.046-.018.05.018v-.032l7.363-.348 1.222.49a18.581 18.581 0 0 0-.112-5.4zM256.128 311.993l-3.364.858-7.588-3.94-7.425 2.313-7.593-2.313-7.425 2.313-7.588-2.313-7.427 2.313-7.582-2.313-7.431 3.566-4.506-1.132a35.68 35.68 0 0 0-2.821 4.26l7.281 1.824v.029l.046-.015.052.015v-.032l7.379-3.551 7.541 2.3v.029l.046-.016.05.016v-.029l7.377-2.3 7.544 2.3v.029l.046-.016.05.016v-.029l7.375-2.3 7.546 2.3v.029l.05-.016.05.016v-.029l7.375-2.3 7.547 3.926v.029l.046-.016.05.016v-.029l6.009-1.532a36.205 36.205 0 0 0-2.71-4.276zM244.813 299.801l-7.062 2.04-7.593-2.145-7.425 2.142-7.586-2.145-7.427 2.145-7.584-2.145-1.408.406c-2.138 2.104-4.261 4.228-6.203 6.285l.137.037v.026l.046-.015.052.015v-.026l7.379-2.13 7.539 2.13v.026l.048-.015.05.015v-.026l7.377-2.13 7.545 2.13v.026l.045-.015.05.015v-.026l7.375-2.13 7.546 2.13v.026l.05-.015.05.015v-.026l7.375-2.13 5.688 1.607a294.172 294.172 0 0 0-6.064-6.097zM238.044 293.148l-.293.074-7.593-1.907-7.425 1.907-7.586-1.907-7.427 1.907-1.593-.399a317.53 317.53 0 0 1-3.308 3.267l4.857 1.223v.021l.046-.011.05.011v-.021l7.379-1.898 7.542 1.898v.021l.048-.011.048.011v-.021l7.377-1.898 7.539 1.898v.021l.05-.011.05.011v-.021l3.539-.911a389.597 389.597 0 0 1-3.3-3.254zM230.146 284.05l-7.413 1.633-7.586-1.636-1.655.365c-.726 1.192-1.902 2.636-3.377 4.259l5.03-1.11 7.544 1.627v.021l.046-.009.05.009v-.021l7.375-1.627 3.198.688c-1.447-1.617-2.567-3.045-3.212-4.199zM226.749 276.765l-4.016.885-5.515-1.189a57.94 57.94 0 0 1-1.356 3.224l6.827 1.471v.021l.048-.012.05.012v-.021l5.332-1.175a62.76 62.76 0 0 1-1.37-3.216z"/><path fill="#D3A8A6" d="M212.523 378.53c-5.848 0-10.583 5.27-10.583 11.771h21.172c-.002-6.501-4.737-11.771-10.589-11.771z"/><path fill="#E4DCD9" d="M212.523 380.301c-4.847 0-8.779 4.371-8.779 9.764h17.563c-.001-5.394-3.933-9.764-8.784-9.764z"/><path fill="#C38482" d="M212.553 381.37c-4.341 0-7.862 3.913-7.862 8.74h15.727c0-4.828-3.522-8.74-7.865-8.74z"/><path fill="#CA8E8B" d="M212.553 384.775c-4.341 0-7.862 2.391-7.862 5.332h15.727c0-2.941-3.522-5.332-7.865-5.332z"/><path fill="#D3A8A6" d="M231.995 378.53c-5.85 0-10.587 5.27-10.587 11.771h21.174c-.002-6.501-4.737-11.771-10.587-11.771z"/><path fill="#E4DCD9" d="M231.995 380.301c-4.849 0-8.783 4.371-8.783 9.764h17.565c-.004-5.394-3.931-9.764-8.782-9.764z"/><path fill="#C38482" d="M232.022 381.37c-4.342 0-7.861 3.913-7.861 8.74h15.725c0-4.828-3.519-8.74-7.864-8.74z"/><path fill="#CA8E8B" d="M232.022 384.775c-4.342 0-7.861 2.391-7.861 5.332h15.725c0-2.941-3.519-5.332-7.864-5.332z"/><path fill="#D3A8A6" d="M246.336 380.76c-2.995 0-5.423 4.52-5.423 10.097l10.589 3.231.259-3.231c0-5.578-2.428-10.097-5.425-10.097z"/><path fill="#E4DCD9" d="M246.336 382.277c-2.48 0-4.498 3.748-4.498 8.373l1.41 3.546h7.457l.127-3.546c.004-4.625-2.007-8.373-4.496-8.373z"/><path fill="#C38482" d="M246.354 383.194c-2.225 0-4.029 3.357-4.029 7.496h8.057c.002-4.138-1.803-7.496-4.028-7.496z"/><path fill="#CA8E8B" d="M246.354 386.116c-2.225 0-4.029 2.049-4.029 4.574l-.08 1.66 8.035 1.599.104-3.259c0-2.525-1.805-4.574-4.03-4.574z"/><path fill="#D3A8A6" d="M197.567 380.76c-2.995 0-5.423 4.52-5.423 10.097l.255 3.231 10.591-3.231c.001-5.578-2.428-10.097-5.423-10.097z"/><path fill="#E4DCD9" d="M197.567 382.277c-2.484 0-4.496 3.748-4.496 8.373l.122 3.546h7.461l1.41-3.546c-.001-4.625-2.016-8.373-4.497-8.373z"/><path fill="#C38482" d="M197.554 383.194c-2.229 0-4.032 3.357-4.032 7.496h8.059c0-4.138-1.807-7.496-4.027-7.496z"/><path fill="#CA8E8B" d="M201.581 390.69c0-2.525-1.807-4.574-4.031-4.574-2.228 0-4.03 2.049-4.03 4.574l.102 3.259 8.035-1.599-.076-1.66z"/><g fill="#3EA3C1"><path d="M243.537 390.372s-13.341-1.146-21.613-1.146c-8.27 0-21.615 1.146-21.615 1.146l-7.967 3.696 3.537 3.821 7.056-3.276s11.721-1.007 18.993-1.007c7.268 0 18.989 1.007 18.989 1.007l7.056 3.276 3.537-3.821-7.973-3.696z"/><path d="M221.924 389.227c-8.274 0-21.615 1.146-21.615 1.146l-7.967 3.696 3.537 3.821 7.056-3.276s11.721-1.007 18.993-1.007c7.268 0 18.989 1.007 18.989 1.007l2.622-4.241c-.002-.001-13.341-1.146-21.615-1.146z"/><path d="M200.309 390.372l-7.967 3.696 3.537 3.825 7.052-3.28z"/></g><path fill="#E4DCD9" d="M242.925 391.228s-12.964-1.114-21.001-1.114-21.003 1.114-21.003 1.114l-7.744 3.595 3.435 3.714 6.859-3.186s11.389-.978 18.453-.978c7.062 0 18.451.978 18.451.978l6.855 3.186 3.439-3.714-7.744-3.595z"/><path fill="#F8F6F6" d="M221.924 390.113c-8.039 0-21.003 1.114-21.003 1.114l-7.744 3.595 3.435 3.714 6.859-3.186s11.389-.978 18.453-.978c7.062 0 18.451.978 18.451.978l2.55-4.123c0 .001-12.962-1.114-21.001-1.114z"/><path fill="#E4DCD9" d="M200.921 391.228l-7.744 3.594 3.435 3.714 6.859-3.185z"/><g fill="#3EA3C1"><path d="M243.537 434.361s-13.341-1.146-21.613-1.146c-8.27 0-21.615 1.146-21.615 1.146l-7.967 3.699 3.537 3.821 7.056-3.275s11.721-1.007 18.993-1.007c7.268 0 18.989 1.007 18.989 1.007l7.056 3.275 3.537-3.821-7.973-3.699z"/><path d="M221.924 433.216c-8.274 0-21.615 1.146-21.615 1.146l-7.967 3.699 3.537 3.821 7.056-3.275s11.721-1.007 18.993-1.007c7.268 0 18.989 1.007 18.989 1.007l2.622-4.245c-.002-.001-13.341-1.146-21.615-1.146z"/><path d="M200.309 434.361l-7.967 3.7 3.537 3.821 7.052-3.276z"/></g><g fill="#E4DCD9"><path d="M242.925 437.226l-1.109 1.798 6.153 2.858 1.495-1.619z"/><path d="M221.924 436.114c-8.039 0-21.003 1.111-21.003 1.111l1.111 1.799.903-.417s11.721-1.007 18.991-1.007 18.989 1.007 18.989 1.007l.903.417 1.11-1.799c-.003.001-12.965-1.111-21.004-1.111zM200.921 437.226l-6.542 3.037 1.5 1.619 6.153-2.858z"/></g></g></g></svg>