<svg xmlns="http://www.w3.org/2000/svg" xmlns:xlink="http://www.w3.org/1999/xlink" width="640" height="360" viewBox="0 0 640 360"><path fill="#B9E8E2" d="M-2-2h644v364.001H-2z"/><path fill="#B9E8E2" d="M0 0h640v360H0z"/><path fill="#FFF" d="M625.001 234.716c0 5.558-4.548 10.105-10.105 10.105h-282.29c-5.558 0-10.105-4.548-10.105-10.105V125.285c0-5.558 4.548-10.106 10.105-10.106h282.289c5.558 0 10.105 4.548 10.105 10.106v109.431z" opacity=".48"/><path fill="#F1DABF" d="M376.085 224.847c-11.861 0-21.511-9.65-21.511-21.512s9.649-21.513 21.511-21.513 21.513 9.65 21.513 21.513c0 11.861-9.651 21.512-21.513 21.512z"/><path fill="#D9C4AC" d="M376.085 183.646c10.856 0 19.689 8.832 19.689 19.689 0 10.856-8.833 19.688-19.689 19.688-10.855 0-19.688-8.832-19.688-19.688 0-10.857 8.832-19.689 19.688-19.689m0-3.647c-12.869 0-23.334 10.469-23.334 23.336 0 12.866 10.465 23.335 23.334 23.335 12.867 0 23.336-10.469 23.336-23.335 0-12.867-10.469-23.336-23.336-23.336z"/><g><path fill="#BA365D" d="M380.585 198.885s7.014-.769 5.021 5.833c5.898-8.829-5.021-9.442-5.021-9.442v-1.613l-5.578 3.456 5.578 3.454v-1.688z"/><g fill="#3D3356"><path d="M366.882 194.5c1.074 0 1.855.62 1.91 1.497h-.627c-.064-.579-.551-.965-1.303-.965-.711 0-1.244.353-1.244.871 0 .417.316.659.992.821l.814.19c1.064.256 1.469.628 1.469 1.355 0 .863-.854 1.462-2.047 1.462-1.139 0-1.955-.627-2.031-1.494h.662c.078.584.607.968 1.41.968.795 0 1.348-.353 1.348-.894 0-.433-.271-.67-.994-.84l-.896-.22c-.916-.224-1.371-.643-1.371-1.316 0-.846.812-1.435 1.908-1.435zM370.403 198.593h-.012v1.084h-.621v-7.156h.65v3.088h.014c.307-.688.988-1.108 1.824-1.108 1.332 0 2.244 1.053 2.244 2.616 0 1.567-.912 2.616-2.252 2.616-.847-.001-1.528-.421-1.847-1.14zm.012-1.473c0 1.207.705 2.046 1.721 2.046 1.02 0 1.703-.814 1.703-2.05 0-1.231-.684-2.055-1.699-2.055-1.02.001-1.725.846-1.725 2.059z"/></g><path fill="#3D3356" d="M371.751 208.883s-7.076.773-5.066-5.888c-5.949 8.908 5.066 9.53 5.066 9.53v1.625l5.629-3.486-5.629-3.485v1.704z"/><g fill="#BA365D"><path d="M381.269 209.636c-.154-.561-.682-.975-1.459-.975-1.006 0-1.674.779-1.674 1.986 0 1.228.672 1.983 1.68 1.983.742 0 1.273-.349 1.453-.931h.629c-.184.877-.99 1.48-2.082 1.48-1.398 0-2.32-.971-2.32-2.533 0-1.532.916-2.529 2.309-2.529 1.158 0 1.93.685 2.094 1.518h-.63zM382.546 210.257c0-2.868.709-3.987 2.699-4.038.107 0 .459-.014.537-.022.426-.027.873-.1 1.127-.224v.532c-.156.119-.605.22-1.092.247a9.26 9.26 0 0 1-.549.024c-1.5.035-1.971.711-2.174 2.478h.025c.33-.674 1.008-1.049 1.863-1.049 1.383 0 2.266.958 2.266 2.446 0 1.553-.906 2.529-2.352 2.529-1.526.001-2.35-1.022-2.35-2.923zm4.057.394c0-1.191-.643-1.903-1.705-1.903-1.064 0-1.705.712-1.705 1.903 0 1.241.641 1.985 1.705 1.985 1.062.001 1.705-.747 1.705-1.985z"/></g></g><path fill="none" d="M340.649 179.999h70.871v46.671h-70.871z"/><g><g fill="#6B647E"><path d="M419.737 181.796c1.121 0 2.424.114 3.545.938 1.26.916 1.582 2.359 1.582 3.504 0 1.577-.596 3.022-1.922 3.961-1.467 1.028-3.139 1.122-4.102 1.122h-1.096l-.801 6.501h-2.475l1.969-16.025h3.3zm-1.718 7.233h1.1c2.332 0 3.271-1.281 3.271-2.701 0-2.22-2.174-2.243-2.725-2.243h-1.051l-.595 4.944zM426.771 187.702h2.334l-.113.915a3.394 3.394 0 0 1 2.543-1.188 3.23 3.23 0 0 1 1.852.593l-1.328 2.13c-.412-.411-.959-.479-1.303-.479-.666 0-1.238.297-1.559.686-.412.479-.549 1.236-.617 1.738l-.709 5.726h-2.334l1.234-10.121zM444.302 192.371c0 3.71-2.773 5.77-5.885 5.77-2.725 0-4.924-1.785-4.924-4.897 0-3.024 2.154-5.814 5.885-5.814 2.723-.001 4.924 1.759 4.924 4.941zm-2.43.047c0-1.83-1.074-2.884-2.586-2.884-1.922 0-3.365 1.396-3.365 3.616 0 1.831 1.076 2.884 2.588 2.884 1.924 0 3.363-1.395 3.363-3.616zM449.653 189.807l-.984 8.015h-2.334l.982-8.015h-1.283l.252-2.104h1.283l.412-3.205c.115-.915.344-2.175 1.373-3.043.779-.643 1.695-.757 2.289-.757.504 0 .986.091 1.65.365l-.299 2.38c-.662-.411-1.146-.456-1.441-.456-.275 0-.621.07-.869.365-.254.298-.322.733-.369 1.1l-.412 3.251h2.566l-.252 2.104h-2.564zM462.464 195.187c-.32.643-.756 1.193-1.398 1.718-.846.687-1.965 1.236-3.547 1.236-2.631 0-4.51-1.761-4.51-4.625 0-3.456 2.016-6.087 5.447-6.087 1.17 0 2.727.273 3.643 1.831.504.846.594 1.807.594 2.63 0 .481-.023 1.008-.068 1.445h-7.234v.205c0 1.053.527 2.494 2.473 2.494.574 0 1.146-.183 1.648-.548.436-.32.846-.802 1.123-1.399l1.829 1.1zm-2.035-3.776c-.115-1.099-.963-1.877-2.152-1.877-1.26 0-2.223.755-2.543 1.877h4.695zM469.507 190.449c-.07-.48-.414-.915-1.031-.915-.572 0-.869.343-.869.755 0 .641.572.846 1.168 1.168.732.387 1.58.892 2.037 1.44.436.506.73 1.237.73 2.084 0 1.604-1.168 3.159-3.777 3.159-.594 0-2.838-.092-3.549-2.52l2.109-.892c.158.823.777 1.305 1.533 1.305.754 0 1.26-.456 1.26-1.074 0-.825-.781-1.214-1.215-1.444-.525-.272-1.006-.479-1.559-.96-.572-.481-.982-.984-.982-2.061 0-1.878 1.373-3.066 3.365-3.066 2.129 0 2.678 1.464 2.838 1.988l-2.058 1.033zM478.411 190.449c-.066-.48-.41-.915-1.027-.915-.574 0-.873.343-.873.755 0 .641.572.846 1.17 1.168.73.387 1.578.892 2.035 1.44.434.506.732 1.237.732 2.084 0 1.604-1.166 3.159-3.775 3.159-.598 0-2.842-.092-3.551-2.52l2.107-.892c.162.823.779 1.305 1.533 1.305.758 0 1.26-.456 1.26-1.074 0-.825-.779-1.214-1.213-1.444-.529-.272-1.008-.479-1.557-.96-.572-.481-.984-.984-.984-2.061 0-1.878 1.375-3.066 3.367-3.066 2.129 0 2.676 1.464 2.838 1.988l-2.062 1.033zM485.812 187.702l-1.236 10.119h-2.334l1.234-10.119h2.336zm.869-4.306c0 1.124-.846 1.648-1.67 1.648-.803 0-1.352-.618-1.352-1.371 0-.963.711-1.651 1.648-1.651.801 0 1.374.506 1.374 1.374zM498.31 192.371c0 3.71-2.77 5.77-5.883 5.77-2.725 0-4.922-1.785-4.922-4.897 0-3.024 2.15-5.814 5.883-5.814 2.726-.001 4.922 1.759 4.922 4.941zm-2.428.047c0-1.83-1.074-2.884-2.588-2.884-1.92 0-3.363 1.396-3.363 3.616 0 1.831 1.078 2.884 2.59 2.884 1.921 0 3.361-1.395 3.361-3.616zM501.325 187.702h2.336l-.092.869c1.008-.985 2.148-1.143 2.859-1.143 1.559 0 2.428.686 2.818 1.372.227.389.387.939.387 1.694 0 .365-.045.754-.092 1.122l-.754 6.204h-2.334l.756-6.204c.02-.186.045-.391.045-.573 0-.412-.117-.777-.32-1.032-.344-.41-.848-.478-1.262-.478-.572 0-1.234.114-1.785.664-.57.57-.709 1.279-.756 1.739l-.709 5.884h-2.334l1.237-10.118zM520.341 187.702h2.336l-1.238 10.119h-2.334l.115-1.054c-.893 1.122-2.221 1.373-3.115 1.373-2.381 0-4.35-1.648-4.35-4.737 0-3.848 2.588-5.975 5.402-5.975 1.719 0 2.564.777 3.047 1.464l.137-1.19zm-6.16 5.495c0 1.51.895 2.837 2.633 2.837 1.58 0 3.045-1.213 3.045-3.57 0-1.924-1.074-2.93-2.609-2.93-1.946 0-3.069 1.738-3.069 3.663zM528.794 180.994l-2.059 16.827h-2.336l2.061-16.827h2.334zM541.019 181.796c1.096 0 2.424.114 3.547.938 1.373 1.007 1.578 2.566 1.578 3.458 0 2.083-1.076 3.273-1.922 3.868-.662.48-1.465.777-2.174.916l4.166 6.846h-2.932l-3.775-6.572h-.459l-.801 6.572h-2.473l1.967-16.025h3.278zm-1.717 7.348h1.1c1.99 0 3.271-1.029 3.271-2.795 0-1.577-1.076-2.264-2.588-2.264h-1.145l-.638 5.059zM551.286 187.702l-.711 5.813c-.02.273-.068.528-.068.802 0 .618.205.984.412 1.215.254.274.711.502 1.352.502.73 0 1.281-.275 1.627-.662.457-.528.594-1.328.664-1.856l.709-5.813h2.334l-.709 5.859c-.16 1.398-.504 2.497-1.465 3.366-1.055.962-2.473 1.213-3.344 1.213-.822 0-1.74-.229-2.334-.55-.641-.366-1.58-1.145-1.58-2.815 0-.412.025-.8.068-1.214l.709-5.859h2.336zM563.987 190.449c-.068-.48-.412-.915-1.029-.915-.574 0-.871.343-.871.755 0 .641.572.846 1.168 1.168.732.387 1.582.892 2.039 1.44.434.506.73 1.237.73 2.084 0 1.604-1.166 3.159-3.777 3.159-.594 0-2.84-.092-3.549-2.52l2.109-.892c.158.823.775 1.305 1.531 1.305s1.26-.456 1.26-1.074c0-.825-.777-1.214-1.215-1.444-.525-.272-1.006-.479-1.557-.96-.57-.481-.984-.984-.984-2.061 0-1.878 1.375-3.066 3.367-3.066 2.129 0 2.678 1.464 2.838 1.988l-2.06 1.033zM572.896 190.449c-.07-.48-.414-.915-1.033-.915-.572 0-.869.343-.869.755 0 .641.572.846 1.17 1.168.732.387 1.576.892 2.037 1.44.434.506.732 1.237.732 2.084 0 1.604-1.168 3.159-3.779 3.159-.594 0-2.838-.092-3.547-2.52l2.104-.892c.162.823.779 1.305 1.535 1.305s1.26-.456 1.26-1.074c0-.825-.777-1.214-1.215-1.444-.525-.272-1.006-.479-1.557-.96-.572-.481-.982-.984-.982-2.061 0-1.878 1.373-3.066 3.363-3.066 2.131 0 2.68 1.464 2.84 1.988l-2.059 1.033zM580.294 187.702l-1.238 10.119h-2.336l1.24-10.119h2.334zm.869-4.306c0 1.124-.848 1.648-1.67 1.648-.803 0-1.354-.618-1.354-1.371 0-.963.709-1.651 1.648-1.651.802 0 1.376.506 1.376 1.374zM590.646 187.702h2.334l-1.238 10.119h-2.332l.113-1.054c-.893 1.122-2.221 1.373-3.115 1.373-2.377 0-4.35-1.648-4.35-4.737 0-3.848 2.588-5.975 5.404-5.975 1.719 0 2.566.777 3.045 1.464l.139-1.19zm-6.159 5.495c0 1.51.891 2.837 2.629 2.837 1.584 0 3.047-1.213 3.047-3.57 0-1.924-1.074-2.93-2.609-2.93-1.948 0-3.067 1.738-3.067 3.663zM595.94 187.702h2.334l-.092.869c1.008-.985 2.154-1.143 2.863-1.143 1.555 0 2.426.686 2.814 1.372.229.389.391.939.391 1.694 0 .365-.045.754-.094 1.122l-.754 6.204h-2.336l.756-6.204c.023-.186.045-.391.045-.573 0-.412-.113-.777-.32-1.032-.344-.41-.848-.478-1.258-.478-.572 0-1.238.114-1.785.664-.574.57-.711 1.279-.758 1.739l-.709 5.884h-2.336l1.239-10.118zM420.257 211.551l-1.695 13.736h-2.471l1.693-13.736h-3.664l.273-2.289h9.799l-.273 2.289h-3.662zM424.259 215.168h2.332l-.113.915a3.392 3.392 0 0 1 2.541-1.188c.596 0 1.281.185 1.855.596l-1.328 2.129c-.414-.413-.961-.481-1.303-.481-.666 0-1.238.299-1.557.687-.416.48-.551 1.235-.621 1.741l-.709 5.722h-2.336l1.239-10.121zM439.604 215.168h2.336l-1.238 10.119h-2.336l.115-1.053c-.891 1.123-2.219 1.372-3.113 1.372-2.379 0-4.35-1.646-4.35-4.737 0-3.847 2.588-5.975 5.402-5.975 1.717 0 2.564.777 3.047 1.464l.137-1.19zm-6.16 5.494c0 1.512.895 2.838 2.633 2.838 1.578 0 3.045-1.211 3.045-3.569 0-1.925-1.074-2.932-2.607-2.932-1.948 0-3.071 1.741-3.071 3.663zM444.899 215.168h2.334l-.09.869c1.006-.983 2.152-1.143 2.861-1.143 1.555 0 2.426.687 2.816 1.373.227.389.387.938.387 1.695 0 .365-.043.754-.092 1.119l-.754 6.205h-2.334l.754-6.205c.023-.183.047-.388.047-.571 0-.411-.115-.777-.322-1.029-.342-.414-.848-.482-1.26-.482-.572 0-1.236.116-1.783.663-.574.574-.711 1.285-.756 1.741l-.709 5.884h-2.338l1.239-10.119zM460.05 217.917c-.072-.48-.416-.918-1.035-.918-.57 0-.867.344-.867.755 0 .643.572.849 1.168 1.169.734.39 1.578.894 2.037 1.442.436.504.734 1.237.734 2.083 0 1.604-1.17 3.158-3.781 3.158-.594 0-2.836-.09-3.545-2.518l2.104-.893c.162.826.781 1.304 1.535 1.304.756 0 1.26-.456 1.26-1.074 0-.823-.779-1.214-1.215-1.44-.525-.277-1.006-.482-1.557-.964-.572-.481-.984-.984-.984-2.059 0-1.88 1.373-3.068 3.363-3.068 2.131 0 2.68 1.464 2.84 1.99l-2.057 1.033zM468.216 208.462l-2.061 16.825h-2.334l2.059-16.825h2.336zM477.72 215.168h2.334l-1.234 10.119h-2.334l.111-1.053c-.893 1.123-2.221 1.372-3.111 1.372-2.381 0-4.352-1.646-4.352-4.737 0-3.847 2.59-5.975 5.402-5.975 1.719 0 2.566.777 3.047 1.464l.137-1.19zm-6.158 5.494c0 1.512.895 2.838 2.633 2.838 1.58 0 3.045-1.211 3.045-3.569 0-1.925-1.076-2.932-2.611-2.932-1.946 0-3.067 1.741-3.067 3.663zM485.333 217.274l-.986 8.013h-2.334l.984-8.013h-1.008l.252-2.106h1.008l.457-3.617h2.338l-.461 3.617h1.787l-.252 2.106h-1.785zM491.452 215.168l-1.238 10.119h-2.334l1.238-10.119h2.334zm.869-4.304c0 1.122-.846 1.648-1.67 1.648-.803 0-1.352-.617-1.352-1.374 0-.96.709-1.646 1.648-1.646.802 0 1.374.504 1.374 1.372zM503.95 219.839c0 3.707-2.77 5.768-5.883 5.768-2.723 0-4.922-1.783-4.922-4.898 0-3.021 2.15-5.813 5.883-5.813 2.725-.001 4.922 1.76 4.922 4.943zm-2.426.046c0-1.831-1.076-2.886-2.586-2.886-1.922 0-3.369 1.397-3.369 3.617 0 1.832 1.08 2.884 2.588 2.884 1.926 0 3.367-1.395 3.367-3.615zM506.966 215.168h2.336l-.092.869c1.006-.983 2.15-1.143 2.859-1.143 1.557 0 2.43.687 2.816 1.373.23.389.389.938.389 1.695 0 .365-.043.754-.092 1.119l-.754 6.205h-2.336l.758-6.205c.021-.183.045-.388.045-.571 0-.411-.117-.777-.324-1.029-.34-.414-.844-.482-1.256-.482-.572 0-1.238.116-1.785.663-.572.574-.709 1.285-.756 1.741l-.709 5.884h-2.336l1.237-10.119zM531.985 212.811c-.115-.48-.367-.802-.779-1.1-.504-.343-1.1-.479-1.625-.479-1.1 0-2.314.55-2.314 2.016 0 .503.139 1.28 1.465 1.853l1.535.665c1.076.457 3.184 1.532 3.184 4.532 0 3.112-2.199 5.31-5.564 5.31-1.236 0-2.699-.295-3.754-1.646-.689-.846-1.029-1.992-1.029-3.091l2.469-.526v.114c0 .686.186 1.442.508 1.923.547.823 1.373.961 2.082.961 1.809 0 2.814-1.145 2.814-2.701 0-1.603-1.145-2.335-1.992-2.723l-1.439-.665c-1.008-.458-2.748-1.441-2.748-3.777 0-2.198 1.602-4.533 4.877-4.533 1.805 0 2.814.686 3.297 1.098.457.411.867.963 1.145 1.626l-2.132 1.143zM545.067 222.654c-.32.641-.754 1.191-1.396 1.717-.85.688-1.969 1.235-3.547 1.235-2.635 0-4.512-1.761-4.512-4.621 0-3.458 2.014-6.091 5.449-6.091 1.168 0 2.723.273 3.639 1.831.506.846.596 1.808.596 2.634 0 .479-.021 1.006-.068 1.441h-7.234v.205c0 1.054.527 2.494 2.471 2.494.574 0 1.146-.181 1.648-.548.438-.32.85-.804 1.125-1.396l1.829 1.099zm-2.039-3.777c-.113-1.101-.961-1.878-2.15-1.878-1.26 0-2.221.755-2.543 1.878h4.693zM548.399 215.168h2.334l-.115.915a3.396 3.396 0 0 1 2.543-1.188c.594 0 1.283.185 1.854.596l-1.328 2.129c-.412-.413-.961-.481-1.307-.481-.662 0-1.234.299-1.555.687-.41.48-.549 1.235-.617 1.741l-.709 5.722h-2.336l1.236-10.121zM558.567 215.168l1.988 5.77 3.275-5.77h2.656l-6.549 10.807-3.938-10.807h2.568zM570.601 215.168l-1.236 10.119h-2.336l1.238-10.119h2.334zm.869-4.304c0 1.122-.848 1.648-1.67 1.648-.801 0-1.354-.617-1.354-1.374 0-.96.709-1.646 1.65-1.646.801 0 1.374.504 1.374 1.372zM580.854 218.694c-.525-1.053-1.51-1.695-2.746-1.695-1.969 0-3.389 1.512-3.389 3.641 0 1.649.916 2.86 2.609 2.86 1.42 0 2.52-.8 3.158-1.715l-.365 3.068c-.777.434-1.74.753-2.996.753-.939 0-2.59-.114-3.777-1.555-.482-.572-1.055-1.604-1.055-3.183 0-2.038.893-3.663 2.082-4.67 1.191-1.006 2.473-1.305 3.893-1.305 1.168 0 2.105.228 2.977.731l-.391 3.07zM592.054 222.654c-.32.641-.754 1.191-1.396 1.717-.848.688-1.967 1.235-3.549 1.235-2.633 0-4.51-1.761-4.51-4.621 0-3.458 2.016-6.091 5.451-6.091 1.166 0 2.723.273 3.639 1.831.504.846.596 1.808.596 2.634 0 .479-.025 1.006-.07 1.441h-7.234v.205c0 1.054.529 2.494 2.473 2.494.572 0 1.145-.181 1.648-.548a3.66 3.66 0 0 0 1.121-1.396l1.831 1.099zm-2.037-3.777c-.115-1.101-.961-1.878-2.152-1.878-1.26 0-2.221.755-2.541 1.878h4.693zM599.099 217.917c-.072-.48-.414-.918-1.033-.918-.572 0-.871.344-.871.755 0 .643.574.849 1.168 1.169.736.39 1.582.894 2.039 1.442.434.504.734 1.237.734 2.083 0 1.604-1.17 3.158-3.779 3.158-.596 0-2.838-.09-3.547-2.518l2.105-.893c.16.826.777 1.304 1.533 1.304s1.258-.456 1.258-1.074c0-.823-.777-1.214-1.213-1.44-.525-.277-1.008-.482-1.555-.964-.574-.481-.986-.984-.986-2.059 0-1.88 1.373-3.068 3.363-3.068 2.131 0 2.682 1.464 2.84 1.99l-2.056 1.033z"/></g><path fill="none" d="M411.521 179.999h195.33v46.671h-195.33z"/><g><g fill="#3D3356"><path d="M354.028 148.095c-.094-1.342-.439-2.303-1.031-2.88-.594-.578-1.279-.866-2.063-.866-1.934 0-2.9 1.108-2.9 3.325 0 1.124.396 2.16 1.191 3.112.795.955 2.023 2.147 3.678 3.584a55.07 55.07 0 0 1 2.74 2.411 19.003 19.003 0 0 1 2.035 2.317 11.379 11.379 0 0 1 1.568 2.881c.391 1.046.586 2.178.586 3.394 0 2.716-.834 4.839-2.504 6.369-1.672 1.529-3.896 2.295-6.674 2.295-2.592 0-4.658-.897-6.205-2.693-1.547-1.793-2.381-4.02-2.506-6.671l5.525-.798c.125 1.654.492 2.918 1.102 3.793s1.396 1.311 2.363 1.311c1.031 0 1.852-.264 2.459-.796.607-.53.914-1.294.914-2.293 0-1.374-.416-2.566-1.242-3.582-.828-1.015-2.113-2.24-3.859-3.676a72.875 72.875 0 0 1-2.674-2.39 18.34 18.34 0 0 1-1.963-2.225c-.629-.827-1.125-1.771-1.5-2.834-.375-1.06-.563-2.216-.563-3.464 0-2.685.791-4.762 2.363-6.228 1.576-1.467 3.785-2.202 6.627-2.202 2.311 0 4.166.751 5.57 2.248 1.408 1.5 2.232 3.48 2.484 5.949l-5.521.609zM364.06 139.761h8.617c3.059 0 5.32.757 6.789 2.27 1.467 1.514 2.203 3.739 2.203 6.672 0 1.563-.336 2.998-1.008 4.31-.674 1.311-1.678 2.232-3.021 2.762 1.529.688 2.693 1.671 3.488 2.952.797 1.279 1.195 2.966 1.195 5.056 0 2.998-.734 5.377-2.201 7.142s-3.764 2.646-6.883 2.646h-9.18v-33.81zm5.81 13.858h2.102c1.158 0 2.096-.373 2.813-1.124.717-.748 1.076-1.809 1.076-3.182 0-3.186-1.262-4.778-3.791-4.778h-2.199v9.084zm0 15.171h2.432c1.498 0 2.578-.427 3.232-1.286.656-.859.984-2.161.984-3.911 0-1.778-.367-3.091-1.102-3.933-.734-.844-1.959-1.265-3.674-1.265h-1.873v10.395zM390.925 144.816h-5.619v-5.056h17.045v5.056h-5.619v28.752h-5.807v-28.752zM411.938 173.568h-5.809V139.76h8.145c3.342 0 5.818.781 7.424 2.341 1.609 1.561 2.412 4.104 2.412 7.633 0 2.463-.385 4.372-1.146 5.711-.766 1.344-1.742 2.28-2.928 2.81l4.918 15.313h-5.9l-4.121-14c-.344.032-.805.063-1.383.092-.576.031-1.113.048-1.611.048v13.86zm0-18.634h2.059c1.592 0 2.707-.376 3.346-1.127.643-.749.963-2.106.963-4.072 0-1.998-.32-3.364-.963-4.099-.639-.733-1.754-1.101-3.346-1.101h-2.059v10.399zM433.851 173.568h-5.617l6.227-33.808h7.211l6.229 33.808h-5.619l-1.031-7.492h-6.369l-1.031 7.492zm1.873-12.549h4.684l-2.295-14.516h-.094l-2.295 14.516zM451.63 173.568V139.76h5.387l7.068 19.338h.096V139.76h5.244v33.808h-5.059l-7.396-21.116h-.094v21.116h-5.246zM485.608 148.095c-.096-1.342-.438-2.303-1.029-2.88-.594-.578-1.281-.866-2.063-.866-1.936 0-2.9 1.108-2.9 3.325 0 1.124.398 2.16 1.193 3.112.795.955 2.021 2.147 3.676 3.584a56 56 0 0 1 2.74 2.411 19.013 19.013 0 0 1 2.037 2.317 11.373 11.373 0 0 1 1.566 2.881c.391 1.046.586 2.178.586 3.394 0 2.716-.836 4.839-2.506 6.369-1.67 1.529-3.896 2.295-6.672 2.295-2.59 0-4.66-.897-6.207-2.693-1.543-1.793-2.379-4.02-2.504-6.671l5.529-.798c.121 1.654.488 2.918 1.098 3.793.607.875 1.396 1.311 2.363 1.311 1.031 0 1.852-.264 2.461-.796.607-.53.912-1.294.912-2.293 0-1.374-.414-2.566-1.242-3.582-.826-1.015-2.115-2.24-3.861-3.676a74.287 74.287 0 0 1-2.672-2.39 18.535 18.535 0 0 1-1.967-2.225 10.446 10.446 0 0 1-1.496-2.834c-.375-1.06-.561-2.216-.561-3.464 0-2.685.787-4.762 2.365-6.228 1.572-1.467 3.781-2.202 6.623-2.202 2.311 0 4.168.751 5.572 2.248 1.406 1.5 2.232 3.48 2.484 5.949l-5.525.609zM495.515 173.568V139.76h5.805v28.75h9.133v5.058h-14.938zM518.905 173.568h-5.621l6.23-33.808h7.211l6.23 33.808h-5.623l-1.025-7.492h-6.369l-1.033 7.492zm1.875-12.549h4.682l-2.297-14.516h-.094l-2.291 14.516zM538.487 144.816h-5.619v-5.056h17.043v5.056h-5.615v28.752h-5.809v-28.752zM554.052 173.568V139.76h5.807v33.808h-5.807zM565.103 147.954c0-2.527.758-4.603 2.271-6.228 1.516-1.623 3.723-2.437 6.627-2.437 2.902 0 5.111.813 6.627 2.437 1.514 1.625 2.271 3.7 2.271 6.228v17.419c0 2.529-.758 4.606-2.271 6.229-1.516 1.624-3.725 2.436-6.627 2.436-2.904 0-5.111-.812-6.627-2.436-1.514-1.622-2.271-3.699-2.271-6.229v-17.419zm5.806 17.28c0 1.309.234 2.262.703 2.854s1.266.89 2.389.89c1.152 0 1.959-.297 2.412-.89.449-.593.676-1.546.676-2.854v-17.14c0-1.311-.227-2.262-.676-2.854-.453-.595-1.26-.892-2.412-.892-1.123 0-1.92.297-2.389.892-.469.593-.703 1.544-.703 2.854v17.14zM587.759 173.568V139.76h5.385l7.07 19.338h.094V139.76h5.244v33.808h-5.059l-7.395-21.116h-.096v21.116h-5.243z"/></g><path fill="none" d="M340.649 133.328H606.85v46.671H340.649z"/></g></g><g><defs><path id="a" d="M0 0h640v360H0z"/></defs><clipPath id="b"><use xlink:href="#a" overflow="visible"/></clipPath><g clip-path="url(#b)"><path fill="#3EA3C1" d="M246.112 332.391h42.887v5.377h-42.887z"/><g fill="#C38482"><path d="M283.497 326.341h-31.668l-5.723 3.655v27.656h21.734c1.439-4.15 5.035-7.105 9.275-7.105 3.82 0 7.094 2.413 8.77 5.918 1.061-1.063 2.07-2.169 3.105-3.258v-23.211l-5.493-3.655z"/><path d="M283.497 302.023h-31.668l-5.721 3.655v27.657h42.885v-27.657z"/></g><path fill="#D3A8A6" d="M251.829 302.023l-5.721 3.655v27.657h37.348l.041-31.312z"/><path fill="#CA8E8B" d="M267.604 302.023h-15.775l-5.721 3.655v27.657h21.616z"/><path fill="#C38482" d="M251.829 302.023l-5.721 3.655v27.657h5.957z"/><path fill="#D3A8A6" d="M251.829 326.341l-5.721 3.655v27.656h37.348l.041-31.311z"/><path fill="#CA8E8B" d="M267.604 326.341h-15.775l-5.721 3.655v27.656h21.616z"/><g fill="#C38482"><path d="M251.829 326.341l-5.721 3.655v27.656h5.957zM250.708 366.067l-6.129 3.913v17.52c11.072-6.057 21.406-13.271 30.912-21.433h-24.783z"/></g><path fill="#D3A8A6" d="M267.608 366.067l.021 6.392a183.07 183.07 0 0 0 7.861-6.392h-7.882z"/><path fill="#CA8E8B" d="M267.608 366.067h-16.9l.115 17.843a180.3 180.3 0 0 0 16.807-11.451l-.022-6.392z"/><path fill="#C38482" d="M250.708 366.067l-6.129 3.913v17.52a179.637 179.637 0 0 0 6.244-3.59l-.115-17.843z"/><path fill="#E4DCD9" d="M283.536 315.48s-9.053-.094-15.893-.094c-6.838 0-15.654.094-15.654.094l-5.881 1.711v1.766l5.834-1.512s9.691-.031 15.701-.031 15.699.031 15.699.031l5.646 1.512v-1.766l-5.452-1.711z"/><path fill="#E4DCD9" d="M267.644 315.387c-6.838 0-15.654.094-15.654.094l-5.881 1.711v1.764l5.834-1.512s9.691-.031 15.701-.031 15.893.031 15.893.031v-1.961c-.001-.003-9.054-.096-15.893-.096z"/><path fill="#E4DCD9" d="M246.108 317.191v1.763l5.832-1.513.049-1.961z"/><path fill="#CA8E8B" d="M267.724 321l-5.932 12.335h11.863z"/><path fill="#C38482" d="M267.724 321l-5.932 12.335h6.051z"/><g fill="#D3A8A6"><path d="M267.724 323.876l-4.549 9.459h9.096zM283.497 321l-5.418 12.335h10.834z"/></g><path fill="#3EA3C1" d="M278.079 333.335h5.348l.07-12.335z"/><path fill="#C38482" d="M283.497 323.876l-4.152 9.459h8.304z"/><path fill="#D3A8A6" d="M251.913 321l-5.617 12.335h11.226z"/><path fill="#3EA3C1" d="M251.913 321l.07 12.335h5.539z"/><path fill="#C38482" d="M251.913 323.876l-4.307 9.459h8.606z"/><g fill="#E4DCD9"><path d="M259.3 306.201l-5.924 3.373 5.924 3.374 5.928-3.374zM275.909 306.201l-5.93 3.373 5.93 3.374 5.926-3.374zM286.745 309.021l-2.246.977 1.563 1.882 2.244-.972zM248.456 309.001l-1.699 1.762 2.166 1.139 1.695-1.756z"/></g><path fill="#30A199" d="M293.817 273.875c-6.521-7.348-17.199-16.367-19.453-20.637-2.252-4.27-4.031-8.538-4.742-13.046h-3.957c-.709 4.505-2.488 8.774-4.74 13.046-2.256 4.27-12.939 13.289-19.453 20.637-13.047 14.705-2.729 24.55-2.729 24.55l4.387 4.743 6.643-3.084s11.029-.945 17.869-.945 17.867.945 17.867.945l6.646 3.084 4.387-4.743c.004.001 10.322-9.843-2.725-24.55z"/><path fill="#35A19A" d="M293.817 273.875c-6.521-7.348-45.83-7.348-52.344 0-13.047 14.705-2.729 24.55-2.729 24.55l4.389 4.743 6.641-3.084s11.031-.945 17.869-.945c6.84 0 17.869.945 17.869.945l6.645 3.084 4.389-4.743c0 .001 10.318-9.843-2.729-24.55z"/><path fill="#38A19A" d="M266.376 288.818c-27.518 0-27.635 9.607-27.635 9.607l4.389 4.742 6.643-3.082s11.029-.947 17.867-.947c6.842 0 17.869.947 17.869.947l6.645 3.082 4.389-4.742c.003.001-2.649-9.607-30.167-9.607z"/><path fill="#EAD063" d="M285.513 300.084s-11.029-.945-17.869-.945c-6.838 0-17.869.945-17.869.945l-6.59 3.063 2.92 3.157 5.838-2.709s9.689-.829 15.697-.829c6.012 0 15.701.829 15.701.829l5.834 2.709 2.922-3.157-6.584-3.063z"/><path fill="#E5C953" d="M285.513 300.084s-11.029-.945-17.869-.945c-6.838 0-17.869.945-17.869.945l2.172 3.508s9.688-.83 15.697-.83c6.012 0 15.699.83 15.699.83l5.834 2.709 2.922-3.158-6.586-3.059z"/><path fill="#D6BA47" d="M285.513 300.084l-2.17 3.511 5.836 2.709 2.922-3.158z"/><path fill="#E5C953" d="M267.644 209.595l-1.938 30.597h3.916z"/><path fill="#D6BA47" d="M267.644 209.595l.039 30.597h1.939z"/><ellipse fill="#E5C953" cx="267.683" cy="231.723" rx="2.842" ry="3.083"/><path fill="#EAD26C" d="M265.071 231.789c0 1.561 1.168 2.825 2.609 2.825s2.611-1.265 2.611-2.825c.001-1.563-5.22-1.563-5.22 0z"/><g fill="#EAD944"><path d="M290.722 302.507l1.435.661 2.451-2.65zM253.149 299.82c-2.037.15-3.377.266-3.377.266l-5.85 2.719-.66.453-.283 1.052a13.827 13.827 0 0 0 3.605 2.632l.307-1.148 5.977-4.09.023.015.014-.042.037-.029-.021-.014.228-1.814zM294.726 274.951c-.293-.354-.588-.713-.91-1.076a88.135 88.135 0 0 0-2.654-2.859l-.369 7.674-4.533 5.113-1.01 7.754-6.861 3.519-2.355 4.349c1.73.097 3.395.205 4.838.305l1.15-2.121 6.822-3.49.021.015.016-.046.037-.025-.02-.015.998-7.71 4.492-5.084.023.014.012-.045.039-.028-.023-.015.287-6.229z"/><path d="M299.339 282.678l-.051 1.012-4.533 5.113-1.01 7.756-6.857 3.519-.285.517 4.115 1.91 3.889-1.986 1.936-2.092s.48-.457 1.1-1.321l.744-5.767 2.02-2.285c.071-1.89-.213-4.027-1.068-6.376zM287.823 267.637c-1.195-1.186-2.408-2.367-3.59-3.524l-.273 5.63-4.533 5.113-1.006 7.754-6.861 3.521-3.34 6.156-7.475 3.094-.506 3.99c1.326-.068 2.674-.127 3.977-.17l.162-1.282 7.438-3.069.02.017.014-.046.037-.027-.02-.015 3.324-6.116 6.82-3.49.025.014.012-.042.039-.028-.021-.017.998-7.71 4.492-5.085.023.015.016-.043.035-.027-.023-.016.216-4.597zM268.337 240.192h-2.668c-.5 3.169-1.537 6.222-2.887 9.239l2.686-1.153.023.017.016-.043.035-.025-.018-.014 1.666-7.476 1.147-.545z"/><path d="M279.276 259.178a70.79 70.79 0 0 1-2.754-2.984l-2.652 1.345-.395 8.175-4.531 5.113-1.01 7.756-6.857 3.519-3.344 6.159-7.471 3.095-.992 7.784-5.352 3.666 5.852-2.717s1.342-.115 3.377-.264l.748-5.932 7.436-3.069.023.015.014-.043.037-.028-.02-.015 3.322-6.116 6.822-3.49.025.017.014-.045.037-.026-.021-.015.994-7.71 4.496-5.085.023.016.014-.043.037-.028-.02-.015.381-8.135 1.767-.9z"/><path d="M273.507 251.566c-1.172-2.367-2.166-4.742-2.902-7.167l-.818 5.145-6.877 3.489-.398 8.174-4.531 5.113-1.01 7.754-6.857 3.52-3.34 6.158-7.477 3.096-.99 7.785-1.561 1.068c.99 1.768 1.992 2.725 1.992 2.725l.529.572 2.635-1.803.023.012.014-.043.035-.027-.018-.015.977-7.739 7.438-3.07.02.016.014-.043.037-.028-.02-.015 3.322-6.116 6.822-3.49.021.015.018-.046.037-.025-.023-.015.998-7.711 4.494-5.087.021.015.016-.046.037-.028-.02-.012.377-8.134 6.844-3.459.023.017.014-.045.037-.028-.02-.012.067-.47z"/><path d="M257.755 257.331c-2.543 2.785-6.113 6.185-9.613 9.632l-.428 2.213-3.135 1.365a100.183 100.183 0 0 0-3.109 3.334c-2.74 3.086-4.441 5.96-5.43 8.572l4.314-1.47.021.015.016-.043.041-.025-.025-.017 3.701-5.895 7.031-3.056.023.015.016-.042.041-.026-.023-.017 1.48-7.631 4.801-4.795.021.016.02-.042.037-.026-.021-.014.221-2.063z"/></g><path fill="#3EA3C1" d="M267.782 349.705c-9.342 0-23.072 2.939-23.072 2.939v10.834l2.584-1.199s12.559-1.077 20.346-1.077c3.793 0 8.709.257 12.764.518a183.003 183.003 0 0 0 9.395-9.356c-3.814-.74-14.47-2.659-22.017-2.659z"/><path fill="#D3A8A6" d="M259.872 331.492c-4.834 0-8.752 4.357-8.752 9.732h17.506c0-5.376-3.918-9.732-8.754-9.732z"/><path fill="#E4DCD9" d="M259.872 332.954c-4.01 0-7.264 3.612-7.264 8.071h14.52c.004-4.459-3.244-8.071-7.256-8.071z"/><path fill="#C38482" d="M259.896 333.835c-3.59 0-6.502 3.237-6.502 7.228h13.002c0-3.991-2.907-7.228-6.5-7.228z"/><path fill="#CA8E8B" d="M259.896 336.654c-3.59 0-6.502 1.976-6.502 4.412h13.002c0-2.436-2.907-4.412-6.5-4.412z"/><path fill="#D3A8A6" d="M275.968 331.492c-4.832 0-8.754 4.357-8.754 9.732h17.508c.004-5.376-3.916-9.732-8.754-9.732z"/><path fill="#E4DCD9" d="M275.968 332.954c-4.01 0-7.262 3.612-7.262 8.071h14.521c.002-4.459-3.249-8.071-7.259-8.071z"/><path fill="#C38482" d="M275.991 333.835c-3.594 0-6.5 3.237-6.5 7.228h13.002c0-3.991-2.91-7.228-6.502-7.228z"/><path fill="#CA8E8B" d="M275.991 336.654c-3.594 0-6.5 1.976-6.5 4.412h13.002c0-2.436-2.91-4.412-6.502-4.412z"/><path fill="#D3A8A6" d="M287.829 333.335c-2.479 0-4.482 3.735-4.482 8.347l8.754 2.672.213-2.672c-.001-4.61-2.01-8.347-4.485-8.347z"/><path fill="#E4DCD9" d="M287.829 334.588c-2.055 0-3.721 3.098-3.721 6.924l1.164 2.934h6.168l.105-2.934c.003-3.826-1.661-6.924-3.716-6.924z"/><path fill="#C38482" d="M287.843 335.347c-1.84 0-3.332 2.777-3.332 6.198h6.66c0-3.424-1.49-6.198-3.328-6.198z"/><path fill="#CA8E8B" d="M287.843 337.763c-1.84 0-3.332 1.694-3.332 3.782l-.064 1.373 6.641 1.318.082-2.691c.001-2.088-1.489-3.782-3.327-3.782z"/><path fill="#D3A8A6" d="M247.507 333.335c-2.479 0-4.484 3.735-4.484 8.347l.211 2.672 8.756-2.672c-.001-4.61-2.011-8.347-4.483-8.347z"/><path fill="#E4DCD9" d="M247.507 334.588c-2.057 0-3.723 3.098-3.723 6.924l.104 2.934h6.172l1.162-2.934c0-3.826-1.662-6.924-3.715-6.924z"/><path fill="#C38482" d="M247.493 335.347c-1.84 0-3.332 2.777-3.332 6.198h6.66c0-3.424-1.49-6.198-3.328-6.198z"/><path fill="#CA8E8B" d="M250.821 341.545c0-2.089-1.486-3.782-3.328-3.782s-3.332 1.694-3.332 3.782l.086 2.691 6.643-1.318-.069-1.373z"/><g fill="#3EA3C1"><path d="M285.513 341.279s-11.029-.947-17.869-.947c-6.838 0-17.869.947-17.869.947l-6.588 3.061 2.922 3.158 5.834-2.709s9.691-.83 15.701-.83 15.699.83 15.699.83l5.832 2.709 2.924-3.158-6.586-3.061z"/><path d="M267.644 340.335c-6.838 0-17.869.946-17.869.946l-6.588 3.061 2.922 3.158 5.834-2.709s9.691-.83 15.701-.83 15.699.83 15.699.83l2.168-3.51c.002-.002-11.028-.946-17.867-.946z"/><path d="M249.774 341.279l-6.589 3.061 2.923 3.157 5.832-2.708z"/></g><path fill="#E4DCD9" d="M285.009 341.989s-10.721-.921-17.365-.921c-6.648 0-17.363.921-17.363.921l-6.402 2.974 2.842 3.069 5.67-2.636s9.416-.807 15.254-.807c5.84 0 15.256.807 15.256.807l5.67 2.636 2.84-3.069-6.402-2.974z"/><path fill="#E4DCD9" d="M267.644 341.064c-6.648 0-17.363.922-17.363.922l-6.402 2.973 2.842 3.07 5.67-2.635s9.416-.808 15.254-.808c5.84 0 15.256.808 15.256.808l2.109-3.408c-.001.003-10.722-.922-17.366-.922z"/><path fill="#E4DCD9" d="M250.278 341.989l-6.404 2.973 2.844 3.069 5.672-2.636z"/><path fill="#D3A8A6" d="M258.79 350.547c-5.506 0-9.965 4.96-9.965 11.082h19.936c-.004-6.126-4.465-11.082-9.971-11.082z"/><path fill="#E4DCD9" d="M258.79 352.209c-4.564 0-8.266 4.115-8.266 9.191h16.535c.001-5.072-3.701-9.191-8.269-9.191z"/><path fill="#C38482" d="M258.819 353.215c-4.088 0-7.402 3.684-7.402 8.231h14.805c0-4.547-3.313-8.231-7.403-8.231z"/><path fill="#CA8E8B" d="M258.819 356.424c-4.088 0-7.402 2.252-7.402 5.025h14.805c0-2.777-3.313-5.025-7.403-5.025z"/><g fill="#D3A8A6"><path d="M284.653 357.652l.006.012.008-.012zM269.743 361.446c0-.015.006-.031.006-.046h-.895c0-1.338.27-2.601.732-3.748h-1.742a12.114 12.114 0 0 0-.688 3.973H280.5l.188-.179h-10.945z"/><path d="M277.12 350.547c-4.238 0-7.836 2.956-9.277 7.105h1.742c1.293-3.203 4.172-5.442 7.531-5.442s6.24 2.239 7.535 5.442h.014c.406-.398.818-.787 1.219-1.191-1.67-3.504-4.946-5.914-8.764-5.914z"/></g><g fill="#E4DCD9"><path d="M269.585 357.652a9.954 9.954 0 0 0-.734 3.748h.896a8.77 8.77 0 0 1 .867-3.748h-1.029zM284.653 357.652h-.973c.1.216.219.42.305.65.219-.216.449-.424.67-.639l-.002-.011zM277.12 352.209c-3.363 0-6.238 2.24-7.533 5.442h1.029c1.236-2.626 3.682-4.437 6.531-4.437 2.854 0 5.299 1.811 6.537 4.437h.973c-1.297-3.202-4.179-5.442-7.537-5.442z"/></g><g fill="#C38482"><path d="M283.681 357.652h-1.73c.58.338 1.084.728 1.486 1.174.18-.177.367-.347.549-.523-.087-.227-.206-.432-.305-.651zM270.616 357.652a8.822 8.822 0 0 0-.867 3.748c.023-1.503 1.031-2.836 2.596-3.748h-1.729z"/><path d="M277.147 353.215c-2.852 0-5.295 1.811-6.531 4.437h1.729c1.295-.756 2.961-1.23 4.799-1.23 1.842 0 3.508.476 4.805 1.23h1.73c-1.233-2.623-3.68-4.437-6.532-4.437z"/></g><g fill="#CA8E8B"><path d="M269.749 361.4c0 .015-.006.031-.006.046h10.945a.55.55 0 0 0 .049-.046h-10.988zM281.95 357.652h-9.605c-1.564.912-2.572 2.245-2.596 3.748h10.984a177.91 177.91 0 0 0 2.703-2.574 6.234 6.234 0 0 0-1.486-1.174z"/><path d="M277.147 356.424c-1.84 0-3.504.476-4.801 1.23h9.607c-1.298-.758-2.964-1.23-4.806-1.23z"/></g><path fill="#D3A8A6" d="M244.708 352.645c-2.82 0-5.107 4.254-5.107 9.504l.242 3.043 9.969-3.043c0-5.25-2.282-9.504-5.104-9.504z"/><path fill="#E4DCD9" d="M244.708 354.071c-2.34 0-4.232 3.53-4.232 7.882l.117 3.339h7.021l1.33-3.339c0-4.352-1.894-7.882-4.236-7.882z"/><path fill="#C38482" d="M244.696 354.936c-2.094 0-3.791 3.16-3.791 7.06h7.586c0-3.9-1.703-7.06-3.795-7.06z"/><path fill="#CA8E8B" d="M248.491 361.995c0-2.379-1.703-4.309-3.795-4.309-2.094 0-3.791 1.93-3.791 4.309l.094 3.066 7.563-1.503-.071-1.563z"/><g fill="#3EA3C1"><path d="M267.64 365.325c-3.297 0-7.559.222-11.102.449h19.291c.063-.054.127-.11.188-.165-2.86-.158-5.893-.284-8.377-.284z"/><path d="M244.708 365.774v-2.296l-4.916 2.281 3.328 3.598 6.645-3.083s2.969-.253 6.775-.5h-11.832z"/><path d="M267.64 361.199c-7.787 0-20.346 1.077-20.346 1.077l-2.584 1.199v2.297h11.828c3.543-.228 7.805-.449 11.102-.449 2.484 0 5.518.126 8.377.284a174.267 174.267 0 0 0 4.389-3.894c-4.057-.258-8.973-.514-12.766-.514z"/><path d="M247.294 362.276l-7.504 3.485 3.328 3.598 6.645-3.085z"/><path d="M267.64 361.199c-7.787 0-20.346 1.077-20.346 1.077l-7.504 3.484 3.328 3.599.092-.043-2.633-2.848 7.287-3.383s12.207-1.049 19.773-1.049c3.541 0 8.088.23 11.934.476.283-.259.549-.531.83-.79-4.052-.267-8.968-.523-12.761-.523z"/></g><g fill="#E4DCD9"><path d="M267.64 365.325c-6.844 0-17.877.946-17.877.946l-6.553 3.041.602.65 6.455-2.998s10.721-.922 17.371-.922c2.254 0 4.977.108 7.594.248.262-.225.523-.455.781-.68-2.856-.159-5.889-.285-8.373-.285z"/><path d="M267.64 362.035c-7.564 0-19.771 1.049-19.771 1.049l-7.287 3.381 2.631 2.849 6.555-3.041s11.033-.946 17.877-.946c2.484 0 5.518.125 8.375.284 1.191-1.028 2.4-2.04 3.559-3.101-3.85-.245-8.396-.475-11.939-.475z"/></g><path fill="#E4DCD9" d="M247.868 363.084l-7.291 3.381 3.235 3.499 6.457-2.999z"/><path fill="#3EA3C1" d="M232.071 353.082h30.746v3.854h-30.746z"/><path fill="#C38482" d="M258.728 331.303h-22.706l-3.941 2.621v19.829h30.746v-19.829z"/><path fill="#D3A8A6" d="M258.728 331.303h-22.706l.028 22.45h26.777v-19.829z"/><path fill="#CA8E8B" d="M258.728 331.303h-11.311l-.086 22.45h15.496v-19.829z"/><g fill="#C38482"><path d="M258.728 331.303l-.17 22.45h4.269v-19.829z"/><path d="M258.728 348.738h-22.706l-3.941 2.621v19.832h30.746v-19.832z"/></g><path fill="#D3A8A6" d="M258.728 348.738h-22.706l.028 22.453h26.777v-19.832z"/><path fill="#CA8E8B" d="M258.728 348.738h-11.311l-.086 22.453h15.496v-19.832z"/><g fill="#C38482"><path d="M258.728 348.738l-.17 22.453h4.269v-19.832zM235.206 377.226l-4.219 2.806v14.139c1.418-.627 2.838-1.253 4.236-1.915l-.017-15.03z"/></g><path fill="#D3A8A6" d="M235.206 377.226l.018 15.029a178.732 178.732 0 0 0 12.16-6.369l.029-8.659-12.207-.001z"/><path fill="#CA8E8B" d="M247.413 377.226l-.027 8.659c4.146-2.367 8.207-4.859 12.139-7.539l.006-1.123h-12.117v.003z"/><path fill="#C38482" d="M259.53 377.226l-.006 1.122c.281-.192.551-.4.832-.594l-.826-.528z"/><path fill="#E4DCD9" d="M258.614 340.951s-6.324-.068-11.225-.068c-4.908 0-11.398.068-11.398.068l-3.912 1.226v1.265l4.053-1.086s6.947-.022 11.258-.022c4.309 0 11.256.022 11.256.022l4.184 1.086v-1.265l-4.216-1.226z"/><path fill="#E4DCD9" d="M258.614 340.951s-6.324-.068-11.225-.068c-4.908 0-11.398.068-11.398.068v1.407s7.088-.022 11.398-.022c4.309 0 11.256.022 11.256.022l4.184 1.087v-1.266l-4.215-1.228z"/><path fill="#E4DCD9" d="M258.614 340.951l.032 1.407 4.181 1.085v-1.263z"/><path fill="#CA8E8B" d="M247.331 344.908l-4.252 8.845h8.504z"/><path fill="#C38482" d="M247.331 344.908l-.082 8.845h4.334z"/><g fill="#D3A8A6"><path d="M247.331 346.975l-3.26 6.778h6.522zM236.022 344.908l-3.882 8.845h7.765z"/></g><path fill="#3EA3C1" d="M236.022 344.908l.051 8.845h3.832z"/><path fill="#C38482" d="M236.022 346.975l-2.978 6.778h5.957z"/><path fill="#D3A8A6" d="M258.673 344.908l-4.027 8.845h8.048z"/><path fill="#3EA3C1" d="M254.646 353.753h3.97l.057-8.845z"/><path fill="#C38482" d="M258.673 346.975l-3.088 6.778h6.172z"/><g fill="#E4DCD9"><path d="M253.37 334.298l-4.252 2.419 4.252 2.418 4.25-2.418zM241.464 334.298l-4.248 2.419 4.248 2.418 4.252-2.418zM233.69 336.318l-1.119 1.357 1.612.696 1.119-1.35zM261.146 336.305l-1.551.821 1.217 1.263 1.55-.823z"/></g><path fill="#30A199" d="M266.155 311.121c-4.676-5.27-12.332-11.736-13.947-14.797-1.613-3.061-2.893-6.121-3.402-9.354h-2.832c-.512 3.232-1.787 6.293-3.402 9.354-1.611 3.063-9.273 9.53-13.945 14.797-9.354 10.544-1.957 17.604-1.957 17.604l3.146 3.402 4.764-2.211s7.906-.68 12.813-.68 12.813.68 12.813.68l4.764 2.211 3.146-3.402c-.008 0 7.391-7.06-1.961-17.604z"/><path fill="#35A19A" d="M266.155 311.121c-4.676-5.27-32.861-5.27-37.533 0-9.354 10.544-1.957 17.604-1.957 17.604l3.146 3.402 4.764-2.211s7.908-.68 12.813-.68c4.906 0 12.813.68 12.813.68l4.764 2.211 3.146-3.402c-.003 0 7.396-7.06-1.956-17.604z"/><path fill="#38A19A" d="M248.298 321.836c-19.73 0-21.633 6.889-21.633 6.889l3.146 3.402 4.764-2.211s7.908-.68 12.813-.68c4.906 0 12.813.68 12.813.68l4.764 2.211 3.146-3.402c-.003 0-.085-6.889-19.813-6.889z"/><path fill="#EAD063" d="M260.2 329.916s-7.906-.68-12.813-.68-12.813.68-12.813.68l-4.723 2.191 2.094 2.264 4.186-1.94s6.947-.597 11.256-.597c4.311 0 11.258.597 11.258.597l4.184 1.94 2.098-2.264-4.727-2.191z"/><path fill="#E5C953" d="M247.388 329.236c-4.904 0-12.813.68-12.813.68l-4.723 2.191 2.094 2.264 4.186-1.94s6.947-.597 11.256-.597c4.311 0 11.258.597 11.258.597l1.555-2.516c-.001.001-7.911-.679-12.813-.679z"/><path fill="#D6BA47" d="M234.575 329.916l-4.722 2.191 2.093 2.266 4.186-1.941z"/><path fill="#E5C953" d="M247.39 265.03l-1.418 21.941h2.806z"/><path fill="#D6BA47" d="M245.972 286.971h1.388l.03-21.941z"/><ellipse fill="#E5C953" cx="247.362" cy="280.892" rx="2.041" ry="2.21"/><path fill="#EAD26C" d="M245.489 280.945c0 1.12.838 2.027 1.871 2.027s1.871-.907 1.871-2.027c0-1.119-3.742-1.119-3.742 0z"/><g fill="#EAD944"><path d="M228.056 330.223l1.756 1.902 1.029-.476zM264.87 332.187l-.475-.323-4.197-1.947s-.959-.082-2.416-.191l.162 1.296-.012.009.021.02.012.031.016-.008 4.285 2.93.221.826a9.971 9.971 0 0 0 2.584-1.887l-.201-.756zM239.683 326.32l-4.916-2.524-.729-5.56-3.248-3.666-.264-5.506a72.238 72.238 0 0 0-1.904 2.049c-.23.262-.443.518-.654.773l.209 4.465-.016.012.025.02.012.031.018-.008 3.223 3.643.715 5.527-.016.012.023.02.014.031.018-.008 4.891 2.501.828 1.521c1.031-.07 2.221-.15 3.467-.222l-1.696-3.111z"/><path d="M233.589 329.907l-4.916-2.524-.725-5.559-3.248-3.666-.037-.726c-.617 1.686-.818 3.22-.771 4.573l1.451 1.637.533 4.135c.447.617.787.947.787.947l1.391 1.498 2.783 1.426 2.949-1.369-.197-.372zM252.333 326.542l-5.361-2.22-2.395-4.414-4.916-2.524-.727-5.562-3.248-3.666-.195-4.036c-.848.83-1.717 1.677-2.572 2.526l.156 3.297-.016.012.027.02.008.031.018-.012 3.223 3.646.715 5.527-.016.012.029.02.008.031.016-.012 4.893 2.502 2.385 4.382-.014.012.025.02.012.031.014-.011 5.334 2.199.115.921c.93.03 1.9.073 2.85.122l-.368-2.854zM248.806 286.971h-1.916l.824.393 1.197 5.357-.018.012.031.017.012.031.014-.012 1.928.827c-.967-2.162-1.711-4.354-2.072-6.625z"/><path d="M260.562 329.234l-.711-5.582-5.361-2.221-2.393-4.416-4.916-2.524-.727-5.56-3.248-3.666-.287-5.863-1.898-.961a47.778 47.778 0 0 1-1.973 2.137l1.271.643.273 5.829-.016.012.023.02.012.031.016-.011 3.225 3.646.713 5.527-.016.017.031.017.008.031.016-.012 4.893 2.502 2.383 4.385-.016.008.025.02.016.031.016-.008 5.33 2.199.537 4.255c1.457.108 2.416.19 2.416.19l4.197 1.947-3.839-2.623z"/><path d="M268.419 326.002l-.711-5.581-5.357-2.22-2.395-4.414-4.916-2.524-.727-5.56-3.248-3.666-.287-5.863-4.93-2.502-.59-3.686c-.525 1.736-1.238 3.441-2.076 5.139l.057.338-.018.008.025.021.016.03.012-.011 4.91 2.481.273 5.832-.016.009.023.02.016.031.014-.011 3.221 3.646.719 5.527-.018.011.029.021.008.031.016-.009 4.895 2.501 2.383 4.383-.018.008.029.02.012.031.016-.012 5.332 2.199.695 5.551-.012.009.023.02.012.031.018-.009 1.887 1.294.377-.409s.725-.688 1.43-1.955l-1.129-.76z"/><path d="M266.155 311.121a83.136 83.136 0 0 0-2.232-2.391l-2.244-.978-.305-1.589c-2.51-2.472-5.07-4.908-6.898-6.906l.166 1.48-.016.012.029.018.012.031.016-.009 3.445 3.436 1.061 5.474-.018.012.025.017.016.031.014-.012 5.039 2.191 2.654 4.227-.012.009.025.02.016.031.012-.012 3.092 1.054c-.717-1.874-1.934-3.933-3.897-6.146z"/></g><path fill="#D3A8A6" d="M252.96 352.432c-3.467 0-6.275 3.123-6.275 6.977h12.555c-.001-3.852-2.815-6.977-6.28-6.977z"/><path fill="#E4DCD9" d="M252.96 353.482c-2.875 0-5.203 2.592-5.203 5.787h10.41c0-3.198-2.33-5.787-5.207-5.787z"/><path fill="#C38482" d="M252.944 354.117c-2.572 0-4.664 2.316-4.664 5.181h9.324c.004-2.865-2.085-5.181-4.66-5.181z"/><path fill="#CA8E8B" d="M252.944 356.135c-2.572 0-4.664 1.415-4.664 3.16h9.324c.004-1.745-2.085-3.16-4.66-3.16z"/><path fill="#D3A8A6" d="M241.419 352.432c-3.467 0-6.277 3.123-6.277 6.977h12.553c-.001-3.852-2.809-6.977-6.276-6.977z"/><path fill="#E4DCD9" d="M241.419 353.482c-2.875 0-5.207 2.592-5.207 5.787h10.41c0-3.198-2.326-5.787-5.203-5.787z"/><path fill="#C38482" d="M241.403 354.117c-2.578 0-4.664 2.316-4.664 5.181h9.322c.002-2.865-2.083-5.181-4.658-5.181z"/><path fill="#CA8E8B" d="M241.403 356.135c-2.578 0-4.664 1.415-4.664 3.16h9.322c.002-1.745-2.083-3.16-4.658-3.16z"/><path fill="#D3A8A6" d="M232.915 353.753c-1.775 0-3.217 2.68-3.217 5.985l.154 1.916 6.279-1.916c.001-3.305-1.443-5.985-3.216-5.985z"/><path fill="#E4DCD9" d="M232.915 354.653c-1.475 0-2.666 2.222-2.666 4.966l.074 2.103h4.422l.836-2.103c0-2.746-1.193-4.966-2.666-4.966z"/><path fill="#C38482" d="M232.903 355.197c-1.318 0-2.383 1.989-2.383 4.445h4.773c.001-2.456-1.067-4.445-2.39-4.445z"/><path fill="#CA8E8B" d="M235.294 359.641c0-1.497-1.068-2.713-2.391-2.713-1.318 0-2.383 1.213-2.383 2.713l.059 1.93 4.764-.945-.049-.985z"/><path fill="#D3A8A6" d="M261.829 353.753c-1.777 0-3.215 2.68-3.215 5.985l6.279 1.916.152-1.916c.001-3.305-1.442-5.985-3.216-5.985z"/><path fill="#E4DCD9" d="M261.829 354.653c-1.477 0-2.666 2.222-2.666 4.966l.834 2.103h4.426l.074-2.103c-.002-2.746-1.197-4.966-2.668-4.966z"/><path fill="#C38482" d="M261.837 355.197c-1.318 0-2.387 1.989-2.387 4.445h4.777c.001-2.456-1.072-4.445-2.39-4.445z"/><path fill="#CA8E8B" d="M261.837 356.928c-1.318 0-2.387 1.213-2.387 2.713l-.049.984 4.764.945.061-1.93c.002-1.496-1.071-2.712-2.389-2.712z"/><g fill="#3EA3C1"><path d="M260.202 359.451s-7.908-.68-12.813-.68c-4.906 0-12.814.68-12.814.68l-4.723 2.191 2.094 2.265 4.186-1.944s6.947-.594 11.258-.594c4.309 0 11.256.594 11.256.594l4.184 1.944 2.098-2.265-4.726-2.191z"/><path d="M260.202 359.451s-7.908-.68-12.813-.68c-4.906 0-12.814.68-12.814.68l1.557 2.516s6.947-.594 11.258-.594c4.309 0 11.256.594 11.256.594l4.184 1.944 2.098-2.265-4.726-2.195z"/><path d="M260.202 359.451l-1.556 2.516 4.181 1.943 2.1-2.264z"/></g><path fill="#E4DCD9" d="M259.839 359.957s-7.682-.66-12.449-.66c-4.766 0-12.453.66-12.453.66l-4.588 2.131 2.037 2.2 4.068-1.89s6.748-.578 10.939-.578c4.189 0 10.936.578 10.936.578l4.066 1.89 2.041-2.2-4.597-2.131z"/><path fill="#E4DCD9" d="M259.839 359.957s-7.682-.66-12.449-.66c-4.766 0-12.453.66-12.453.66l1.514 2.441s6.752-.578 10.941-.578c4.188 0 10.936.578 10.936.578l4.066 1.89 2.041-2.2-4.596-2.131z"/><path fill="#E4DCD9" d="M259.839 359.957l-1.516 2.443 4.069 1.891 2.039-2.203z"/><path fill="#3EA3C1" d="M247.294 365.49c-6.699 0-16.814 2.109-16.814 2.109v9.416h30.92c.816-.572 1.629-1.148 2.436-1.734V367.6c-.001 0-9.847-2.11-16.542-2.11z"/><path fill="#D3A8A6" d="M253.737 366.093c-3.951 0-7.148 3.556-7.148 7.944l14.291.61c.002-4.387-3.197-8.554-7.143-8.554z"/><path fill="#E4DCD9" d="M253.737 367.287c-3.275 0-5.93 2.95-5.93 6.588h11.855c.001-3.635-2.651-6.588-5.925-6.588z"/><path fill="#C38482" d="M253.714 368.009c-2.93 0-5.309 2.644-5.309 5.903h10.617c.004-3.261-2.373-5.903-5.308-5.903z"/><path fill="#CA8E8B" d="M253.714 370.311c-2.93 0-5.309 1.611-5.309 3.602h10.617c.004-1.991-2.373-3.602-5.308-3.602z"/><path fill="#D3A8A6" d="M240.593 366.093c-3.945 0-7.145 3.556-7.145 7.944h14.289c.002-4.386-3.197-7.944-7.144-7.944z"/><path fill="#E4DCD9" d="M240.593 367.287c-3.271 0-5.926 2.95-5.926 6.588h11.854c0-3.635-2.651-6.588-5.928-6.588z"/><path fill="#C38482" d="M240.573 368.009c-2.928 0-5.311 2.644-5.311 5.903h10.619c.003-3.261-2.376-5.903-5.308-5.903z"/><path fill="#D3A8A6" d="M230.911 367.6c-2.023 0-3.662 3.052-3.662 6.813l.176 2.183 7.15-2.183c-.004-3.762-1.64-6.813-3.664-6.813z"/><path fill="#E4DCD9" d="M230.911 368.623c-1.68 0-3.035 2.529-3.035 5.649l.082 2.396h5.033l.953-2.396c0-3.12-1.355-5.649-3.033-5.649z"/><path fill="#C38482" d="M230.901 369.239c-1.502 0-2.721 2.265-2.721 5.062h5.439c.001-2.793-1.218-5.062-2.718-5.062z"/><path fill="#CA8E8B" d="M233.62 374.301c0-1.705-1.219-3.086-2.719-3.086-1.502 0-2.721 1.381-2.721 3.086l.068 2.197 5.42-1.076-.048-1.121z"/><path fill="#D3A8A6" d="M263.835 367.6c-2.023 0-3.664 3.052-3.664 6.813l.773.235-.15-.375c0-3.124 1.361-5.649 3.039-5.649 1.463 0 2.68 1.924 2.967 4.487.188-.142.369-.296.555-.438-.411-2.913-1.823-5.073-3.52-5.073z"/><g fill="#E4DCD9"><path d="M260.944 374.647l.145.368.017-.316zM261.269 375.461l.482 1.207h.135c.398-.281.793-.564 1.193-.85l-1.81-.357zM263.835 368.623c-1.68 0-3.039 2.529-3.039 5.649l.15.375.162.052.02-.398c0-2.794 1.217-5.063 2.717-5.063 1.326 0 2.428 1.768 2.668 4.102.098-.074.191-.156.295-.23-.293-2.563-1.51-4.487-2.973-4.487z"/></g><path fill="#C38482" d="M263.843 369.239c-1.5 0-2.717 2.265-2.717 5.062 0-1.705 1.217-3.086 2.717-3.086 1.229 0 2.223.941 2.561 2.209.037-.026.068-.058.104-.082-.239-2.334-1.339-4.103-2.665-4.103z"/><g fill="#CA8E8B"><path d="M261.089 375.015l-.02.406.2.04z"/><path d="M261.106 374.699l-.018.314.18.446 1.811.358c.17-.123.342-.242.512-.364l-2.485-.754z"/><path d="M261.126 374.301l-.02.398 2.482.759c.537-.39 1.09-.762 1.621-1.153h-4.084v-.004zM263.843 371.215c-1.5 0-2.717 1.381-2.717 3.086h4.088c.398-.295.799-.582 1.193-.879-.342-1.266-1.336-2.207-2.564-2.207z"/></g><path fill="#3EA3C1" d="M261.981 374.506s-9.006-.77-14.588-.77c-5.588 0-14.592.77-14.592.77l-5.379 2.498 2.387 2.581.064-.031-1.889-2.041 5.227-2.427s8.75-.75 14.178-.75c5.424 0 14.174.75 14.174.75l1.541.713c.217-.156.438-.307.654-.466l-1.777-.827z"/><g fill="#E4DCD9"><path d="M260.208 377.371s-7.91-.68-12.814-.68c-4.908 0-12.822.68-12.822.68l-4.695 2.183.43.466 4.631-2.148s7.688-.66 12.457-.66c4.766 0 12.455.66 12.455.66l.213.1c.188-.131.375-.27.563-.404l-.418-.197z"/><path d="M261.567 375.082s-8.752-.75-14.174-.75c-5.428 0-14.18.75-14.18.75l-5.227 2.428 1.891 2.041 4.695-2.184s7.912-.679 12.82-.679c4.904 0 12.814.679 12.814.679l.416.193c.836-.576 1.66-1.174 2.484-1.765l-1.539-.713z"/></g><path fill="#3EA3C1" d="M261.981 374.506s-9.006-.77-14.588-.77c-5.588 0-14.592.77-14.592.77l1.771 2.865s.033-.004.055-.004l-1.414-2.281s8.752-.75 14.18-.75c5.422 0 14.174.75 14.174.75l1.541.713c.215-.156.438-.307.652-.466l-1.779-.827z"/><g fill="#E4DCD9"><path d="M260.208 377.371s-7.91-.68-12.814-.68c-4.727 0-12.219.628-12.768.674l.311.5s7.688-.66 12.457-.66c4.766 0 12.455.66 12.455.66l.213.1c.188-.131.375-.271.563-.404l-.417-.19z"/><path d="M261.567 375.082s-8.752-.75-14.174-.75c-5.428 0-14.18.75-14.18.75l1.414 2.283c.547-.049 8.039-.674 12.766-.674 4.904 0 12.814.68 12.814.68l.416.193c.836-.577 1.66-1.174 2.484-1.766l-1.54-.716z"/></g><path fill="#3EA3C1" d="M261.981 374.506l-.369.596 1.496.697c.215-.157.438-.308.652-.467l-1.779-.826z"/><g fill="#E4DCD9"><path d="M261.612 375.104l-.045-.021-1.719 2.782.213.1c.188-.131.375-.27.563-.403l-.416-.192 1.404-2.266z"/><path d="M261.612 375.104l-1.404 2.268.416.193c.836-.578 1.66-1.174 2.484-1.766l-1.496-.695z"/></g><g fill="#D3A8A6"><path d="M165.54 133.945h-13.492s-10.613 58.475-24.951 75.337h61.547c-12.426-18.565-23.104-75.337-23.104-75.337zM167.788 106.982h-19.834c4.619 6.037 4.092 26.963 4.092 26.963h13.492c.002 0-1.754-20.317 2.25-26.963z"/></g><path fill="#C38482" d="M173.351 169.496l-8.316-34.404c-.001 0 3.304 16.428 8.316 34.404zm0 0l9.615 39.789h5.678c-5.672-8.48-11.086-24.684-15.293-39.789z"/><path fill="#CA8E8B" d="M151.829 133.945s-10.395 58.475-24.732 75.337h31.48l.496-75.337h-7.244z"/><g fill="#C38482"><path d="M146.64 158.141c3.127-12.954 4.912-23.047 4.912-23.047l-4.912 23.047zm-10.891 51.141l10.891-51.145c-4.322 17.935-11.217 41.353-19.541 51.145h8.65z"/><path d="M182.966 208.326h-48.592l-8.777 5.61v172.085h65.799V213.936z"/></g><path fill="#D3A8A6" d="M134.374 208.326l-8.777 5.61v172.009h57.302l.067-177.619z"/><path fill="#CA8E8B" d="M158.577 208.326h-24.203l-8.777 5.61V386.32h33.162z"/><g fill="#C38482"><path d="M134.374 208.326l-8.777 5.61v172.009h9.14zM190.067 274.654l-.055 132.002a179.79 179.79 0 0 0 10.938-2.285V280.648l-10.883-5.994z"/></g><path fill="#D3A8A6" d="M158.603 274.654l.168 134.832c10.664-.027 21.098-1.022 31.246-2.83l.055-132.004-31.469.002z"/><path fill="#CA8E8B" d="M158.603 274.654h-31.23l.326 132.198c9.953 1.705 20.168 2.646 30.609 2.646.156 0 .305-.012.461-.012l-.166-134.832z"/><path fill="#C38482" d="M127.37 274.654l-11.332 5.994v123.811c3.84.924 7.729 1.719 11.662 2.396l-.33-132.201z"/><g fill="#3EA3C1"><path d="M185.888 207.52s-16.957-1.457-27.473-1.457c-10.514 0-27.465 1.457-27.465 1.457l-10.127 4.701 4.49 4.854 8.971-4.163s14.895-1.279 24.129-1.279c9.24 0 24.135 1.279 24.135 1.279l8.969 4.163 4.494-4.854-10.123-4.701z"/><path d="M158.415 206.063c-10.514 0-27.465 1.457-27.465 1.457l-10.127 4.701 4.49 4.854 8.971-4.163s14.895-1.279 24.129-1.279c9.24 0 24.135 1.279 24.135 1.279l3.336-5.392c.004 0-16.953-1.457-27.469-1.457z"/><path d="M130.95 207.52l-10.125 4.701 4.49 4.854 8.971-4.164z"/></g><path fill="#E4DCD9" d="M185.112 208.605s-16.477-1.415-26.697-1.415c-10.215 0-26.693 1.415-26.693 1.415l-9.838 4.57 4.365 4.721 8.717-4.047s14.475-1.242 23.447-1.242c8.977 0 23.453 1.242 23.453 1.242l8.715 4.047 4.363-4.721-9.832-4.57z"/><path fill="#E4DCD9" d="M158.415 207.19c-10.215 0-26.693 1.415-26.693 1.415l-9.838 4.57 4.365 4.721 8.717-4.047s14.475-1.242 23.447-1.242c8.977 0 23.453 1.242 23.453 1.242l3.242-5.242c.004-.002-16.472-1.417-26.693-1.417z"/><path fill="#E4DCD9" d="M131.724 208.605l-9.838 4.571 4.365 4.72 8.717-4.049z"/><path fill="#D3A8A6" d="M147.798 222.941c-6.68 0-12.094 6.27-12.094 14.003h24.186c0-7.736-5.412-14.003-12.092-14.003z"/><path fill="#E4DCD9" d="M147.798 225.047c-5.537 0-10.031 5.201-10.031 11.613h20.066c-.004-6.414-4.5-11.613-10.035-11.613z"/><path fill="#C38482" d="M147.831 226.314c-4.959 0-8.979 4.658-8.979 10.402h17.959c.001-5.743-4.017-10.402-8.98-10.402z"/><path fill="#CA8E8B" d="M147.831 230.37c-4.959 0-8.979 2.843-8.979 6.347h17.959c.001-3.504-4.017-6.347-8.98-6.347z"/><path fill="#D3A8A6" d="M170.036 222.941c-6.682 0-12.094 6.27-12.094 14.003h24.188c0-7.736-5.414-14.003-12.094-14.003z"/><path fill="#E4DCD9" d="M170.036 225.047c-5.539 0-10.029 5.201-10.029 11.613h20.061c-.005-6.414-4.495-11.613-10.032-11.613z"/><path fill="#C38482" d="M170.067 226.314c-4.959 0-8.98 4.658-8.98 10.402h17.963c0-5.743-4.02-10.402-8.983-10.402z"/><path fill="#CA8E8B" d="M170.067 230.37c-4.959 0-8.98 2.843-8.98 6.347h17.963c0-3.504-4.02-6.347-8.983-6.347z"/><path fill="#D3A8A6" d="M186.419 225.593c-3.42 0-6.195 5.377-6.195 12.011l12.098 3.846.297-3.846c-.005-6.633-2.776-12.011-6.2-12.011z"/><path fill="#E4DCD9" d="M186.419 227.395c-2.836 0-5.135 4.459-5.135 9.962l1.605 4.22h8.523l.143-4.22c-.001-5.5-2.296-9.962-5.136-9.962z"/><path fill="#C38482" d="M186.438 228.489c-2.543 0-4.6 3.993-4.6 8.919h9.199c.001-4.926-2.061-8.919-4.599-8.919z"/><path fill="#CA8E8B" d="M186.438 231.965c-2.543 0-4.6 2.436-4.6 5.442l-.092 1.976 9.176 1.901.117-3.877c-.001-3.004-2.063-5.442-4.601-5.442z"/><path fill="#D3A8A6" d="M130.712 225.593c-3.42 0-6.197 5.377-6.197 12.011l.295 3.846 12.094-3.846c.001-6.633-2.772-12.011-6.192-12.011z"/><path fill="#E4DCD9" d="M130.712 227.395c-2.838 0-5.141 4.459-5.141 9.962l.145 4.22h8.521l1.609-4.22c.003-5.5-2.296-9.962-5.134-9.962z"/><path fill="#C38482" d="M130.692 228.489c-2.539 0-4.598 3.993-4.598 8.919h9.203c.001-4.926-2.06-8.919-4.605-8.919z"/><path fill="#CA8E8B" d="M135.298 237.408c0-3.005-2.064-5.443-4.605-5.443-2.539 0-4.598 2.437-4.598 5.443l.115 3.877 9.178-1.902-.09-1.975z"/><g fill="#3EA3C1"><path d="M183.222 237.023s-15.236-1.36-24.689-1.36c-9.447 0-24.689 1.36-24.689 1.36l-9.098 4.403 4.039 4.545 8.059-3.896s13.389-1.196 21.689-1.196c8.305 0 21.688 1.196 21.688 1.196l8.066 3.896 4.035-4.545-9.1-4.403z"/><path d="M158.532 235.665c-9.447 0-24.689 1.361-24.689 1.361l-9.098 4.403 4.039 4.545 8.059-3.897s13.389-1.196 21.689-1.196c8.305 0 21.688 1.196 21.688 1.196l3.002-5.05c0-.004-15.241-1.362-24.69-1.362z"/><path d="M133.845 237.023l-9.1 4.407 4.039 4.541 8.059-3.897z"/><path d="M158.722 234.592c-12.746 0-31.488 4.174-31.488 4.174v18.664h63.486v-18.664s-19.254-4.174-31.998-4.174z"/></g><path fill="#D3A8A6" d="M146.452 235.785c-7.514 0-13.602 7.051-13.602 15.75h27.203c.003-8.699-6.085-15.75-13.601-15.75z"/><path fill="#E4DCD9" d="M146.452 238.152c-6.227 0-11.283 5.849-11.283 13.064h22.563c.001-7.215-5.045-13.064-11.28-13.064z"/><path fill="#C38482" d="M146.489 239.579c-5.578 0-10.1 5.238-10.1 11.701h20.201c.003-6.463-4.519-11.701-10.101-11.701z"/><path fill="#CA8E8B" d="M146.489 244.141c-5.578 0-10.1 3.197-10.1 7.14h20.201c.003-3.943-4.519-7.14-10.101-7.14z"/><path fill="#D3A8A6" d="M171.466 235.785c-7.512 0-13.6 7.051-13.6 15.75h27.201c.002-8.699-6.089-15.75-13.601-15.75z"/><path fill="#E4DCD9" d="M171.466 238.152c-6.229 0-11.279 5.849-11.279 13.064h22.561c.001-7.215-5.05-13.064-11.282-13.064z"/><path fill="#C38482" d="M171.505 239.579c-5.578 0-10.104 5.238-10.104 11.701h20.205c0-6.463-4.521-11.701-10.101-11.701z"/><path fill="#CA8E8B" d="M171.505 244.141c-5.578 0-10.104 3.197-10.104 7.14h20.205c0-3.943-4.521-7.14-10.101-7.14z"/><path fill="#D3A8A6" d="M189.897 238.766c-3.848 0-6.969 6.049-6.969 13.509l13.605 4.326.33-4.326c.001-7.458-3.118-13.509-6.966-13.509z"/><path fill="#E4DCD9" d="M189.897 240.799c-3.191 0-5.779 5.016-5.779 11.203l1.814 4.746h9.584l.164-4.746c-.001-6.189-2.591-11.203-5.783-11.203z"/><path fill="#C38482" d="M189.913 242.023c-2.855 0-5.174 4.49-5.174 10.033h10.354c-.004-5.542-2.321-10.033-5.18-10.033z"/><path fill="#CA8E8B" d="M189.913 245.937c-2.855 0-5.174 2.74-5.174 6.122l-.1 2.22 10.318 2.138.135-4.359c-.003-3.381-2.32-6.121-5.179-6.121z"/><path fill="#D3A8A6" d="M127.231 238.766c-3.846 0-6.967 6.049-6.967 13.509l.33 4.326 13.605-4.326c.003-7.458-3.114-13.509-6.968-13.509z"/><path fill="#E4DCD9" d="M127.231 240.799c-3.191 0-5.775 5.016-5.775 11.203l.162 4.746h9.586l1.811-4.746c0-6.189-2.59-11.203-5.784-11.203z"/><path fill="#C38482" d="M127.218 242.023c-2.859 0-5.176 4.49-5.176 10.033h10.35c-.002-5.542-2.321-10.033-5.174-10.033z"/><path fill="#CA8E8B" d="M132.39 252.059c0-3.382-2.316-6.122-5.172-6.122-2.859 0-5.176 2.74-5.176 6.122l.131 4.36 10.322-2.138-.105-2.222z"/><path fill="#3EA3C1" d="M158.728 248.978c-13.338 0-32.949 4.37-32.949 4.37v12.156h66.436v-12.156c-.001-.002-20.15-4.37-33.487-4.37z"/><path fill="#D3A8A6" d="M145.89 250.226c-7.863 0-14.234 7.381-14.234 16.484h28.471c-.001-9.106-6.372-16.484-14.237-16.484z"/><path fill="#E4DCD9" d="M145.89 252.704c-6.52 0-11.803 6.118-11.803 13.67h23.611c-.002-7.552-5.289-13.67-11.808-13.67z"/><path fill="#C38482" d="M145.933 254.195c-5.844 0-10.576 5.48-10.576 12.241h21.145c-.003-6.757-4.735-12.241-10.569-12.241z"/><path fill="#CA8E8B" d="M145.933 258.968c-5.844 0-10.576 3.349-10.576 7.47h21.145c-.003-4.122-4.735-7.47-10.569-7.47z"/><path fill="#D3A8A6" d="M172.065 250.226c-7.861 0-14.232 7.381-14.232 16.484H186.3c0-9.106-6.373-16.484-14.235-16.484z"/><path fill="#E4DCD9" d="M172.065 252.704c-6.521 0-11.805 6.118-11.805 13.67h23.613c-.001-7.552-5.284-13.67-11.808-13.67z"/><path fill="#C38482" d="M172.104 254.195c-5.836 0-10.568 5.48-10.568 12.241h21.143c0-6.757-4.737-12.241-10.575-12.241z"/><path fill="#CA8E8B" d="M172.104 258.968c-5.836 0-10.568 3.349-10.568 7.47h21.143c0-4.122-4.737-7.47-10.575-7.47z"/><path fill="#D3A8A6" d="M191.353 253.346c-4.027 0-7.293 6.33-7.293 14.137l14.242 4.527.344-4.527c-.002-7.807-3.266-14.137-7.293-14.137z"/><path fill="#E4DCD9" d="M191.353 255.472c-3.34 0-6.049 5.249-6.049 11.724l1.896 4.969h10.027l.176-4.969c0-6.477-2.711-11.724-6.05-11.724z"/><path fill="#C38482" d="M191.376 256.754c-2.996 0-5.418 4.701-5.418 10.499h10.83c-.002-5.798-2.422-10.499-5.412-10.499z"/><path fill="#CA8E8B" d="M191.376 260.847c-2.996 0-5.418 2.868-5.418 6.406l-.105 2.325 10.801 2.236.135-4.559c-.003-3.54-2.423-6.408-5.413-6.408z"/><path fill="#D3A8A6" d="M125.778 253.346c-4.023 0-7.289 6.33-7.289 14.137l.346 4.527 14.236-4.527c-.002-7.807-3.265-14.137-7.293-14.137z"/><path fill="#E4DCD9" d="M125.778 255.472c-3.34 0-6.045 5.249-6.045 11.724l.17 4.969h10.031l1.893-4.969c0-6.477-2.709-11.724-6.049-11.724z"/><path fill="#C38482" d="M125.763 256.754c-2.994 0-5.418 4.701-5.418 10.499h10.832c-.004-5.798-2.424-10.499-5.414-10.499z"/><path fill="#CA8E8B" d="M131.173 267.253c0-3.538-2.424-6.406-5.41-6.406-2.994 0-5.418 2.868-5.418 6.406l.137 4.559 10.803-2.237-.112-2.322z"/><g fill="#3EA3C1"><path d="M194.649 266.758s-22.361-1.921-36.234-1.921c-13.865 0-36.229 1.921-36.229 1.921l-13.354 6.202 5.926 6.405 11.83-5.496s19.648-1.686 31.828-1.686c12.186 0 31.834 1.686 31.834 1.686l11.826 5.496 5.928-6.405-13.355-6.202z"/><path d="M158.415 264.837c-13.865 0-36.229 1.921-36.229 1.921l-13.354 6.202 5.926 6.405 11.83-5.496s19.648-1.686 31.828-1.686c12.186 0 31.834 1.686 31.834 1.686l4.398-7.11c.001-.001-22.36-1.922-36.233-1.922z"/><path d="M122.187 266.758l-13.356 6.201 5.926 6.406 11.832-5.496z"/></g><path fill="#E4DCD9" d="M193.626 268.193s-21.73-1.867-35.211-1.867c-13.473 0-35.205 1.867-35.205 1.867l-12.979 6.025 5.756 6.225 11.5-5.338s19.09-1.64 30.928-1.64c11.84 0 30.934 1.64 30.934 1.64l11.498 5.338 5.756-6.225-12.977-6.025z"/><path fill="#E4DCD9" d="M158.415 266.326c-13.473 0-35.205 1.867-35.205 1.867l-12.977 6.025 5.756 6.225 11.498-5.338s19.092-1.64 30.928-1.64c11.84 0 30.934 1.64 30.934 1.64l4.277-6.912s-21.734-1.867-35.211-1.867z"/><path fill="#E4DCD9" d="M123.21 268.193l-12.977 6.023 5.754 6.227 11.5-5.338z"/><path fill="#EAD26C" d="M169.456 94.162c-2.916-3.286-7.689-7.322-8.699-9.231-1.01-1.91-1.805-3.819-2.123-5.835h-1.77c-.316 2.016-1.115 3.925-2.119 5.835-1.008 1.909-5.785 5.945-8.705 9.231-5.836 6.579-1.219 10.981-1.219 10.981l1.959 2.123 2.973-1.379s4.934-.423 7.994-.423c3.063 0 7.996.423 7.996.423l2.967 1.379 1.963-2.123c.006.001 4.619-4.401-1.217-10.981z"/><path fill="#D6BA47" d="M169.456 94.162c-2.916-3.286-20.496-3.286-23.412 0-5.838 6.579-1.221 10.981-1.221 10.981l1.959 2.123 2.973-1.379s4.936-.423 7.996-.423 7.994.423 7.994.423l2.967 1.379 1.965-2.123c.002.001 4.615-4.401-1.221-10.981z"/><path fill="#C1A73D" d="M158.315 100.847c-12.309 0-13.492 4.297-13.492 4.297l1.959 2.123 2.973-1.379s4.936-.423 7.996-.423 7.994.423 7.994.423l2.967 1.379 1.965-2.123c.002 0-.053-4.297-12.362-4.297z"/><path fill="#EAD063" d="M165.745 105.886s-4.934-.423-7.994-.423c-3.059 0-7.996.423-7.996.423l-2.943 1.367 1.307 1.413 2.609-1.211s4.334-.373 7.023-.373c2.688 0 7.025.373 7.025.373l2.609 1.211 1.303-1.413-2.943-1.367z"/><path fill="#E5C953" d="M157.751 105.463c-3.059 0-7.996.423-7.996.423l-2.943 1.367 1.307 1.413 2.609-1.211s4.334-.373 7.023-.373c2.688 0 7.025.373 7.025.373l.971-1.568c-.002-.001-4.935-.424-7.996-.424z"/><path fill="#D6BA47" d="M149.755 105.886l-2.943 1.37 1.306 1.412 2.61-1.211z"/><path fill="#E5C953" d="M157.751 65.408l-.887 13.688h1.752z"/><path fill="#D6BA47" d="M156.864 79.096h.869l.018-13.688z"/><ellipse fill="#E5C953" cx="157.722" cy="75.302" rx="1.27" ry="1.378"/><path fill="#EAD26C" d="M156.567 75.333c0 .699.523 1.265 1.166 1.265s1.164-.565 1.164-1.265c.002-.696-2.33-.696-2.33 0z"/><path fill="#3EA3C1" d="M112.958 352.428h31.846v3.996h-31.846z"/><path fill="#C38482" d="M140.72 329.89h-23.518l-4.25 2.712v20.543h31.846v-20.543z"/><path fill="#D3A8A6" d="M117.202 329.89l-4.25 2.712v20.543h27.74l.028-23.255z"/><path fill="#CA8E8B" d="M128.913 329.89h-11.711l-4.25 2.712v20.543h16.053z"/><g fill="#C38482"><path d="M117.202 329.89l-4.25 2.712v20.543h4.426z"/><path d="M140.72 347.949h-23.518l-4.25 2.714v20.544h31.846v-20.544z"/></g><path fill="#D3A8A6" d="M117.202 347.949l-4.25 2.714v20.544h27.74l.028-23.258z"/><path fill="#CA8E8B" d="M128.913 347.949h-11.711l-4.25 2.714v20.544h16.053z"/><path fill="#C38482" d="M117.202 347.949l-4.25 2.714v20.544h4.426z"/><path fill="#E4DCD9" d="M140.749 339.883s-6.723-.068-11.803-.068-11.627.068-11.627.068l-4.367 1.271v1.311l4.332-1.126s7.197-.022 11.66-.022c4.467 0 11.662.022 11.662.022l4.195 1.126v-1.311l-4.052-1.271z"/><path fill="#E4DCD9" d="M128.944 339.814c-5.078 0-11.627.068-11.627.068l-4.365 1.271v1.311l4.332-1.126s7.195-.022 11.66-.022 11.803.022 11.803.022v-1.458c.002.003-6.721-.066-11.803-.066z"/><path fill="#E4DCD9" d="M112.952 341.153v1.314l4.332-1.126.035-1.458z"/><path fill="#30A199" d="M148.382 308.983c-4.84-5.454-12.77-12.155-14.443-15.325-1.674-3.171-2.998-6.344-3.523-9.688h-2.934c-.535 3.345-1.85 6.518-3.527 9.688-1.672 3.17-9.607 9.871-14.443 15.325-9.689 10.923-2.027 18.235-2.027 18.235l3.258 3.521 4.934-2.291s8.191-.705 13.27-.705c5.082 0 13.273.705 13.273.705l4.928 2.291 3.26-3.521c.001.001 7.663-7.31-2.026-18.235z"/><path fill="#35A19A" d="M148.382 308.983c-4.84-5.454-34.037-5.454-38.875 0-9.688 10.923-2.025 18.235-2.025 18.235l3.258 3.521 4.934-2.291s8.191-.705 13.27-.705c5.082 0 13.273.705 13.273.705l4.928 2.291 3.26-3.521c.004.001 7.666-7.31-2.023-18.235z"/><path fill="#38A19A" d="M129.886 320.085c-20.436 0-22.404 7.137-22.404 7.137l3.258 3.521 4.934-2.29s8.191-.704 13.27-.704c5.082 0 13.273.704 13.273.704l4.928 2.29 3.26-3.521c.004-.003-.084-7.137-20.519-7.137z"/><path fill="#EAD063" d="M142.218 328.452s-8.191-.704-13.273-.704c-5.078 0-13.27.704-13.27.704l-4.895 2.271 2.172 2.345 4.332-2.013s7.195-.617 11.66-.617 11.66.617 11.66.617l4.336 2.013 2.168-2.345-4.89-2.271z"/><path fill="#E5C953" d="M128.944 327.748c-5.078 0-13.27.704-13.27.704l-4.895 2.271 2.172 2.345 4.332-2.013s7.195-.617 11.66-.617 11.66.617 11.66.617l1.611-2.605c.004.002-8.188-.702-13.27-.702z"/><path fill="#D6BA47" d="M115.675 328.452l-4.893 2.271 2.17 2.344 4.332-2.011z"/><path fill="#E5C953" d="M128.948 261.244l-1.469 22.726h2.905z"/><path fill="#D6BA47" d="M127.479 283.97h1.434l.035-22.726z"/><ellipse fill="#E5C953" cx="128.903" cy="277.68" rx="2.111" ry="2.291"/><path fill="#EAD26C" d="M126.978 277.729c0 1.16.869 2.102 1.939 2.102 1.074 0 1.938-.941 1.938-2.102s-3.877-1.161-3.877 0z"/><g fill="#E5C953"><path d="M108.919 328.771l1.822 1.971 1.067-.496zM147.052 330.806l-.488-.335-4.346-2.018s-.998-.086-2.506-.196l.17 1.341-.018.009.029.022.012.031.014-.012 4.441 3.039.225.853a10.23 10.23 0 0 0 2.678-1.952l-.211-.782zM120.962 324.731l-5.096-2.614-.748-5.758-3.367-3.797-.279-5.699a80.108 80.108 0 0 0-1.967 2.123c-.238.27-.459.537-.676.802l.213 4.624-.014.012.025.02.012.031.02-.012 3.336 3.777.738 5.727-.016.012.027.02.014.035.016-.009 5.068 2.591.855 1.575c1.07-.077 2.305-.156 3.592-.229l-1.753-3.231z"/><path d="M114.651 328.443l-5.09-2.611-.752-5.758-3.367-3.798-.037-.75c-.639 1.745-.85 3.334-.795 4.735l1.498 1.693.555 4.283c.457.643.814.984.814.984l1.438 1.552 2.889 1.476 3.055-1.419-.208-.387zM134.067 324.956l-5.551-2.3-2.482-4.569-5.092-2.614-.75-5.758-3.367-3.797-.199-4.182c-.881.858-1.779 1.737-2.666 2.615l.158 3.416-.018.012.029.022.012.031.016-.009 3.336 3.777.742 5.727-.02.012.031.02.012.034.014-.011 5.068 2.592 2.471 4.541-.018.012.025.02.012.031.02-.012 5.523 2.279.115.955c.967.027 1.967.074 2.955.125l-.376-2.969zM130.415 283.97h-1.98l.85.407 1.242 5.553-.018.012.029.017.014.031.018-.011 1.99.855c-1.002-2.242-1.776-4.512-2.145-6.864z"/><path d="M142.591 327.748l-.738-5.781-5.551-2.299-2.479-4.573-5.094-2.612-.752-5.758-3.365-3.8-.293-6.071-1.965-.998a51.134 51.134 0 0 1-2.045 2.215l1.314.664.285 6.04-.02.012.031.02.012.034.014-.012 3.34 3.777.742 5.727-.018.012.025.02.012.031.018-.012 5.066 2.592 2.467 4.545-.016.012.027.02.012.031.018-.012 5.521 2.279.555 4.408c1.508.114 2.506.196 2.506.196l4.346 2.019-3.975-2.726z"/><path d="M150.729 324.402l-.736-5.781-5.551-2.302-2.48-4.57-5.094-2.614-.75-5.758-3.365-3.797-.295-6.071-5.111-2.593-.607-3.819c-.543 1.799-1.283 3.563-2.154 5.323l.057.35-.016.008.027.023.008.034.018-.012 5.084 2.569.281 6.04-.016.009.029.022.01.031.016-.012 3.338 3.78.74 5.725-.016.013.027.02.012.034.018-.011 5.066 2.592 2.467 4.542-.016.005.025.02.012.031.02-.008 5.525 2.279.723 5.746-.018.012.027.02.01.031.016-.008 1.957 1.338.391-.42s.748-.714 1.48-2.026l-1.159-.795z"/><path d="M148.382 308.983a76.145 76.145 0 0 0-2.311-2.476l-2.324-1.012-.318-1.643c-2.598-2.56-5.25-5.087-7.139-7.153l.168 1.534-.016.012.029.02.01.031.02-.012 3.568 3.563 1.096 5.669-.016.012.027.02.014.031.018-.012 5.219 2.269 2.75 4.377-.016.011.031.021.012.03.016-.011 3.201 1.088c-.742-1.943-2.004-4.075-4.039-6.369zM146.058 330.246l1.066.496 1.822-1.971zM118.153 328.256c-1.51.114-2.506.196-2.506.196l-4.346 2.018-.488.335-.209.781a10.25 10.25 0 0 0 2.676 1.953l.227-.854 4.443-3.038.014.011.012-.03.027-.022-.016-.009.166-1.341z"/></g><g fill="#D6BA47"><path d="M149.032 309.787a22.034 22.034 0 0 0-.68-.801 64.27 64.27 0 0 0-1.967-2.123l-.275 5.698-3.367 3.797-.75 5.758-5.094 2.614-1.752 3.229c1.287.071 2.523.154 3.596.23l.855-1.574 5.064-2.592.02.008.008-.033.029-.021-.018-.011.742-5.727 3.336-3.777.02.011.012-.031.023-.02-.016-.011.214-4.624zM152.456 315.523l-.037.75-3.369 3.797-.75 5.758-5.092 2.612-.209.387 3.057 1.419 2.887-1.476 1.438-1.552s.355-.342.816-.984l.551-4.283 1.5-1.693c.054-1.401-.153-2.989-.792-4.735zM143.905 304.352a341.335 341.335 0 0 0-2.666-2.615l-.201 4.182-3.365 3.797-.75 5.758-5.094 2.614-2.484 4.569-5.547 2.3-.379 2.962c.99-.051 1.988-.097 2.953-.126l.123-.954 5.52-2.279.02.012.012-.031.025-.02-.018-.012 2.471-4.542 5.068-2.592.014.011.012-.033.031-.02-.02-.012.74-5.727 3.338-3.777.016.008.012-.031.029-.014-.021-.009.161-3.419zM129.435 283.97h-1.984c-.369 2.353-1.141 4.622-2.143 6.864l1.994-.855.018.011.014-.031.027-.017-.016-.012 1.242-5.553.848-.407z"/><path d="M137.554 298.07a51.592 51.592 0 0 1-2.043-2.215l-1.965.998-.295 6.071-3.365 3.797-.754 5.758-5.09 2.612-2.482 4.572-5.547 2.3-.736 5.78-3.977 2.723 4.346-2.018s.998-.085 2.506-.195l.551-4.408 5.525-2.279.014.012.012-.031.031-.02-.016-.012 2.467-4.545 5.068-2.593.016.012.012-.031.025-.021-.016-.011.74-5.727 3.338-3.777.016.011.012-.033.031-.02-.02-.012.283-6.04 1.313-.658z"/><path d="M133.274 292.417c-.869-1.757-1.609-3.524-2.156-5.323l-.607 3.82-5.111 2.591-.293 6.071-3.365 3.797-.75 5.758-5.096 2.614-2.482 4.57-5.547 2.302-.736 5.781-1.158.793c.73 1.313 1.48 2.025 1.48 2.025l.391.42 1.957-1.338.018.008.012-.031.025-.02-.018-.012.727-5.746 5.521-2.279.02.009.012-.031.023-.02-.016-.012 2.467-4.542 5.068-2.592.014.012.016-.035.027-.02-.016-.012.74-5.725 3.338-3.779.016.011.012-.03.025-.023-.016-.008.283-6.041 5.086-2.568.014.011.012-.034.027-.023-.016-.008.052-.341z"/><path d="M121.575 296.7c-1.891 2.069-4.541 4.593-7.139 7.153l-.318 1.643-2.326 1.012a83.348 83.348 0 0 0-2.311 2.476c-2.037 2.294-3.299 4.426-4.031 6.366l3.199-1.088.018.012.012-.031.031-.02-.018-.012 2.752-4.377 5.217-2.268.018.012.014-.031.029-.021-.018-.011 1.098-5.67 3.566-3.562.02.011.012-.031.027-.02-.014-.012.162-1.531z"/></g><path fill="#D3A8A6" d="M121.989 350.518c-4.324 0-7.832 4.435-7.832 9.905h15.666c0-5.474-3.51-9.905-7.834-9.905z"/><path fill="#E4DCD9" d="M121.989 352.008c-3.588 0-6.496 3.675-6.496 8.211h12.994c0-4.536-2.912-8.211-6.498-8.211z"/><path fill="#C38482" d="M122.011 352.902c-3.215 0-5.814 3.295-5.814 7.355h11.633c-.005-4.057-2.608-7.355-5.819-7.355z"/><path fill="#CA8E8B" d="M122.011 355.773c-3.215 0-5.814 2.01-5.814 4.488h11.633c-.005-2.481-2.608-4.488-5.819-4.488z"/><path fill="#D3A8A6" d="M136.392 350.518c-4.326 0-7.832 4.435-7.832 9.905h15.662c0-5.474-3.504-9.905-7.83-9.905z"/><path fill="#E4DCD9" d="M136.392 352.008c-3.59 0-6.494 3.675-6.494 8.211h12.992c-.002-4.536-2.912-8.211-6.498-8.211z"/><path fill="#C38482" d="M136.411 352.902c-3.211 0-5.818 3.295-5.818 7.355h11.637c-.001-4.057-2.604-7.355-5.819-7.355z"/><path fill="#CA8E8B" d="M136.411 355.773c-3.211 0-5.818 2.01-5.818 4.488h11.637c-.001-2.481-2.604-4.488-5.819-4.488z"/><path fill="#D3A8A6" d="M147.003 352.394c-2.213 0-4.012 3.804-4.012 8.493l7.836 2.72.189-2.72c.001-4.69-1.798-8.493-4.013-8.493z"/><path fill="#E4DCD9" d="M147.003 353.668c-1.838 0-3.328 3.151-3.328 7.045l1.043 2.984h5.518l.094-2.984c-.001-3.891-1.489-7.045-3.327-7.045z"/><path fill="#C38482" d="M147.013 354.44c-1.648 0-2.98 2.822-2.98 6.307h5.959c-.001-3.481-1.331-6.307-2.979-6.307z"/><path fill="#CA8E8B" d="M147.013 356.899c-1.648 0-2.98 1.722-2.98 3.848l-.061 1.396 5.941 1.344.074-2.739c.004-2.127-1.326-3.849-2.974-3.849z"/><path fill="#D3A8A6" d="M110.923 352.394c-2.213 0-4.012 3.804-4.012 8.493l.191 2.72 7.832-2.72c-.001-4.69-1.796-8.493-4.011-8.493z"/><path fill="#E4DCD9" d="M110.923 353.668c-1.836 0-3.328 3.151-3.328 7.045l.092 2.984h5.52l1.043-2.984c.001-3.891-1.487-7.045-3.327-7.045z"/><path fill="#C38482" d="M110.913 354.44c-1.648 0-2.979 2.822-2.979 6.307h5.957c.001-3.481-1.333-6.307-2.978-6.307z"/><path fill="#CA8E8B" d="M113.892 360.75c0-2.129-1.334-3.848-2.979-3.848-1.648 0-2.979 1.723-2.979 3.848l.07 2.74 5.945-1.345-.057-1.395z"/><g fill="#3EA3C1"><path d="M144.929 360.478s-9.867-.964-15.986-.964-15.986.964-15.986.964l-5.898 3.112 2.615 3.214 5.223-2.757s8.67-.847 14.047-.847 14.045.847 14.045.847l5.219 2.757 2.617-3.214-5.896-3.112z"/><path d="M128.942 359.517c-6.119 0-15.986.964-15.986.964l-5.898 3.112 2.615 3.214 5.223-2.756s8.668-.848 14.045-.848c5.379 0 14.047.848 14.047.848l1.941-3.57c0-.003-9.867-.964-15.987-.964z"/><path d="M112.956 360.478l-5.898 3.114 2.615 3.215 5.223-2.758z"/><path d="M129.081 360.582c-9.848 0-24.322 3.524-24.322 3.524v15.743h49.045v-15.743c-.002 0-14.875-3.524-24.723-3.524z"/></g><path fill="#D3A8A6" d="M119.606 361.592c-5.801 0-10.508 5.945-10.508 13.287h21.018c-.004-7.342-4.707-13.287-10.51-13.287z"/><path fill="#E4DCD9" d="M119.606 363.586c-4.813 0-8.715 4.932-8.715 11.018h17.432c-.004-6.083-3.906-11.018-8.717-11.018z"/><path fill="#C38482" d="M119.634 364.791c-4.309 0-7.805 4.42-7.805 9.868h15.611c.002-5.448-3.496-9.868-7.806-9.868z"/><path fill="#CA8E8B" d="M119.634 368.64c-4.309 0-7.805 2.697-7.805 6.022h15.611c.002-3.328-3.496-6.022-7.806-6.022z"/><path fill="#D3A8A6" d="M138.929 361.592c-5.803 0-10.506 5.945-10.506 13.287h21.018c-.004-7.342-4.708-13.287-10.512-13.287z"/><path fill="#E4DCD9" d="M138.929 363.586c-4.811 0-8.711 4.932-8.711 11.018h17.428c-.002-6.083-3.905-11.018-8.717-11.018z"/><path fill="#C38482" d="M138.958 364.791c-4.311 0-7.805 4.42-7.805 9.868h15.607c.003-5.448-3.493-9.868-7.802-9.868z"/><path fill="#CA8E8B" d="M138.958 368.64c-4.311 0-7.805 2.697-7.805 6.022h15.607c.003-3.328-3.493-6.022-7.802-6.022z"/><path fill="#D3A8A6" d="M153.165 364.106c-2.975 0-5.385 5.099-5.385 11.394l10.51 3.65.256-3.65c.004-6.295-2.408-11.394-5.381-11.394z"/><path fill="#E4DCD9" d="M153.165 365.82c-2.467 0-4.465 4.229-4.465 9.449l1.398 4.002h7.404l.125-4.002c.005-5.219-1.993-9.449-4.462-9.449z"/><path fill="#C38482" d="M153.177 366.853c-2.205 0-3.992 3.788-3.992 8.464h7.994c0-4.676-1.791-8.464-4.002-8.464z"/><path fill="#CA8E8B" d="M153.177 370.151c-2.205 0-3.992 2.311-3.992 5.165l-.08 1.875 7.975 1.803.1-3.678c-.001-2.854-1.792-5.165-4.003-5.165z"/><path fill="#D3A8A6" d="M104.759 364.106c-2.971 0-5.383 5.099-5.383 11.394l.256 3.65 10.51-3.65c.004-6.295-2.407-11.394-5.383-11.394z"/><path fill="#E4DCD9" d="M104.759 365.82c-2.465 0-4.465 4.229-4.465 9.449l.127 4.002h7.404l1.398-4.002c.005-5.219-1.999-9.449-4.464-9.449z"/><path fill="#C38482" d="M104.745 366.853c-2.205 0-3.996 3.788-3.996 8.464h7.994c0-4.676-1.791-8.464-3.998-8.464z"/><path fill="#CA8E8B" d="M108.743 375.316c0-2.852-1.791-5.165-3.996-5.165s-3.996 2.311-3.996 5.165l.1 3.678 7.975-1.803-.083-1.875z"/><path fill="#3EA3C1" d="M129.112 373.182c-12.217 0-30.178 4.371-30.178 4.371v13.357h60.846v-13.357s-18.453-4.371-30.668-4.371z"/><path fill="#D3A8A6" d="M117.354 374.429c-7.199 0-13.035 7.378-13.035 16.481h26.072c.001-9.103-5.833-16.481-13.037-16.481z"/><path fill="#E4DCD9" d="M117.354 376.904c-5.975 0-10.814 6.121-10.814 13.674h21.627c.002-7.549-4.844-13.674-10.813-13.674z"/><path fill="#C38482" d="M117.39 378.402c-5.35 0-9.682 5.482-9.682 12.244h19.367c0-6.764-4.34-12.244-9.685-12.244z"/><path fill="#CA8E8B" d="M117.39 383.174c-5.35 0-9.682 3.346-9.682 7.47h19.367c0-4.124-4.34-7.47-9.685-7.47z"/><path fill="#D3A8A6" d="M141.327 374.429c-7.197 0-13.039 7.378-13.039 16.481h26.074c0-9.103-5.834-16.481-13.035-16.481z"/><path fill="#E4DCD9" d="M141.327 376.904c-5.975 0-10.813 6.121-10.813 13.674h21.623c.003-7.549-4.835-13.674-10.81-13.674z"/><path fill="#C38482" d="M141.362 378.402c-5.35 0-9.68 5.482-9.68 12.244h19.359c.001-6.764-4.329-12.244-9.679-12.244z"/><path fill="#CA8E8B" d="M141.362 383.174c-5.35 0-9.68 3.346-9.68 7.47h19.359c.001-4.124-4.329-7.47-9.679-7.47z"/><path fill="#D3A8A6" d="M158.989 377.553c-3.689 0-6.68 6.326-6.68 14.137l13.041 4.527.314-4.527c.005-7.811-2.985-14.137-6.675-14.137z"/><path fill="#E4DCD9" d="M158.989 379.676c-3.059 0-5.537 5.246-5.537 11.725l1.734 4.968h9.186l.156-4.968c.002-6.476-2.48-11.725-5.539-11.725z"/><path fill="#C38482" d="M159.009 380.957c-2.742 0-4.959 4.701-4.959 10.502h9.916c0-5.801-2.217-10.502-4.957-10.502z"/><path fill="#CA8E8B" d="M159.009 385.053c-2.742 0-4.959 2.867-4.959 6.406l-.098 2.322 9.889 2.236.125-4.559c0-3.538-2.217-6.405-4.957-6.405z"/><path fill="#D3A8A6" d="M98.933 377.553c-3.686 0-6.676 6.326-6.676 14.137l.314 4.527 13.039-4.527c.004-7.811-2.988-14.137-6.677-14.137z"/><path fill="#E4DCD9" d="M98.933 379.676c-3.055 0-5.537 5.246-5.537 11.725l.158 4.968h9.184l1.734-4.968c.002-6.476-2.475-11.725-5.539-11.725z"/><path fill="#C38482" d="M98.921 380.957c-2.742 0-4.963 4.701-4.963 10.502h9.92c0-5.801-2.223-10.502-4.957-10.502z"/><path fill="#CA8E8B" d="M103.878 391.459c0-3.539-2.221-6.406-4.957-6.406-2.742 0-4.963 2.867-4.963 6.406l.127 4.559 9.891-2.236-.098-2.323z"/><path fill="#C38482" d="M155.317 389.805l-.061 19.617c1.018.016 2.029.076 3.051.076 2.109 0 4.201-.088 6.291-.158v-17.008l-9.281-2.527z"/><path fill="#D3A8A6" d="M128.448 389.805l.168 17.212a180.937 180.937 0 0 0 26.643 2.405l.059-19.617h-26.87z"/><path fill="#CA8E8B" d="M128.448 389.805h-26.654l.193 10.658a179.496 179.496 0 0 0 26.625 6.557l-.164-17.215z"/><path fill="#C38482" d="M101.794 389.805l-9.668 2.526v4.554a180.045 180.045 0 0 0 9.865 3.578l-.197-10.658z"/><path fill="#3EA3C1" d="M54.837 303.657h35.021v4.392H54.837z"/><path fill="#C38482" d="M85.372 278.854H59.513l-4.674 2.984v22.587H89.86v-22.587z"/><path fill="#D3A8A6" d="M59.513 278.854l-4.674 2.984v22.587h30.502l.031-25.571z"/><path fill="#CA8E8B" d="M72.396 278.854H59.513l-4.674 2.984v22.587h17.656z"/><g fill="#C38482"><path d="M59.513 278.854l-4.674 2.984v22.587h4.867z"/><path d="M85.372 298.715H59.513l-4.674 2.981v22.589H89.86v-22.589z"/></g><path fill="#D3A8A6" d="M59.513 298.715l-4.674 2.981v22.589h30.502l.031-25.57z"/><path fill="#CA8E8B" d="M72.396 298.715H59.513l-4.674 2.981v22.589h17.656z"/><path fill="#C38482" d="M59.513 298.715l-4.674 2.981v22.589h4.867z"/><path fill="#E4DCD9" d="M85.409 289.845s-7.395-.077-12.982-.077c-5.584 0-12.783.077-12.783.077l-4.801 1.396v1.441l4.766-1.236s7.912-.026 12.82-.026c4.912 0 12.826.026 12.826.026l4.611 1.236v-1.441l-4.457-1.396z"/><path fill="#E4DCD9" d="M72.423 289.768c-5.584 0-12.783.077-12.783.077l-4.801 1.396v1.441l4.766-1.236s7.914-.026 12.822-.026c4.91 0 12.982.026 12.982.026v-1.601s-7.394-.077-12.986-.077z"/><path fill="#E4DCD9" d="M54.839 291.24v1.442l4.767-1.237.034-1.6z"/><path fill="#CA8E8B" d="M72.495 294.35l-4.846 10.075h9.686z"/><path fill="#C38482" d="M72.495 294.35l-4.846 10.075h4.94z"/><g fill="#D3A8A6"><path d="M72.495 296.703l-3.715 7.722h7.424zM85.372 294.35l-4.422 10.075h8.85z"/></g><path fill="#3EA3C1" d="M80.95 304.425h4.363l.059-10.075z"/><path fill="#C38482" d="M85.372 296.703l-3.387 7.722h6.778z"/><path fill="#D3A8A6" d="M59.577 294.35l-4.586 10.075h9.17z"/><path fill="#3EA3C1" d="M59.577 294.35l.061 10.075h4.523z"/><path fill="#C38482" d="M59.577 296.703l-3.517 7.722h7.031z"/><g fill="#E4DCD9"><path d="M65.614 282.265l-4.84 2.754 4.84 2.756 4.842-2.756zM79.175 282.265l-4.842 2.754 4.842 2.756 4.84-2.756zM88.03 284.57l-1.834.795 1.272 1.537 1.832-.792zM56.759 284.553l-1.391 1.435 1.766.936 1.392-1.44z"/></g><path fill="#30A199" d="M93.8 255.863c-5.32-5.999-14.043-13.365-15.885-16.854-1.836-3.486-3.293-6.975-3.873-10.655h-3.229c-.584 3.681-2.035 7.168-3.873 10.655-1.84 3.487-10.564 10.852-15.885 16.854-10.658 12.012-2.229 20.053-2.229 20.053l3.584 3.873 5.426-2.518s9.008-.773 14.592-.773c5.59 0 14.596.773 14.596.773l5.424 2.518 3.584-3.873c-.004 0 8.426-8.041-2.232-20.053z"/><path fill="#35A19A" d="M93.8 255.863c-5.32-5.999-37.426-5.999-42.746 0-10.656 12.012-2.227 20.053-2.227 20.053l3.584 3.873 5.426-2.518s9.006-.773 14.59-.773c5.592 0 14.598.773 14.598.773l5.422 2.518 3.586-3.873c-.005 0 8.425-8.041-2.233-20.053z"/><path fill="#38A19A" d="M73.462 268.068c-22.471 0-24.637 7.848-24.637 7.848l3.584 3.873 5.426-2.518s9.008-.773 14.592-.773c5.59 0 14.598.773 14.598.773l5.422 2.518 3.584-3.873c-.003 0-.096-7.848-22.569-7.848z"/><path fill="#EAD063" d="M87.021 277.271s-9.006-.773-14.596-.773c-5.584 0-14.592.773-14.592.773l-5.383 2.498 2.387 2.581 4.766-2.211s7.914-.68 12.82-.68c4.912 0 12.828.68 12.828.68l4.766 2.211 2.385-2.581-5.381-2.498z"/><path fill="#E5C953" d="M72.423 276.498c-5.584 0-14.59.773-14.59.773l-5.385 2.498 2.389 2.581 4.766-2.211s7.912-.68 12.82-.68c4.912 0 12.826.68 12.826.68l1.771-2.868c.001 0-9.005-.773-14.597-.773z"/><path fill="#D6BA47" d="M57.833 277.271l-5.381 2.499 2.387 2.581 4.767-2.212z"/><path fill="#E5C953" d="M72.423 203.367l-1.61 24.991h3.198z"/><path fill="#D6BA47" d="M70.813 228.358h1.583l.027-24.991z"/><ellipse fill="#E5C953" cx="72.401" cy="221.435" rx="2.322" ry="2.518"/><path fill="#EAD26C" d="M70.265 221.494c0 1.277.953 2.309 2.131 2.309 1.176 0 2.133-1.031 2.133-2.309-.001-1.275-4.264-1.275-4.264 0z"/><path fill="#C14C4E" d="M50.403 277.624l2.004 2.165 1.17-.543z"/><path fill="#E4DCD9" d="M92.339 279.86l-.537-.369-4.781-2.22s-1.094-.094-2.756-.216l.188 1.478-.02.012.031.023.01.033.018-.011 4.881 3.339.252.938a11.247 11.247 0 0 0 2.945-2.148l-.231-.859z"/><g fill="#BB393B"><path d="M63.647 273.179l-5.602-2.874-.828-6.332-3.699-4.175-.303-6.27a80.554 80.554 0 0 0-2.166 2.337c-.264.295-.506.588-.75.881l.242 5.087-.02.012.027.022.016.034.02-.011 3.67 4.152.813 6.298-.018.015.029.02.014.037.018-.012 5.572 2.849.941 1.73c1.176-.082 2.535-.171 3.951-.247l-1.927-3.553zM56.71 277.263l-5.602-2.874-.824-6.332-3.703-4.178-.041-.826c-.701 1.918-.928 3.666-.871 5.209l1.645 1.865.611 4.709c.506.704.895 1.076.895 1.076l1.58 1.708 3.176 1.622 3.361-1.56-.227-.419zM78.058 273.432l-6.104-2.529-2.729-5.027-5.602-2.874-.826-6.335-3.701-4.175-.219-4.599c-.969.945-1.955 1.91-2.93 2.875l.176 3.758-.016.012.031.022.012.034.02-.012 3.668 4.153.814 6.298-.02.012.031.023.014.033.016-.012 5.572 2.849 2.713 4.993-.016.012.031.022.012.037.016-.011 6.074 2.506.137 1.049c1.061.031 2.162.082 3.246.137l-.42-3.251zM74.042 228.358h-2.18l.938.446 1.357 6.105-.014.011.031.021.018.037.014-.015 2.193.944c-1.105-2.468-1.949-4.96-2.357-7.549z"/><path d="M87.431 276.498l-.811-6.357-6.102-2.526-2.727-5.03-5.602-2.876-.824-6.332-3.703-4.175-.322-6.676-2.166-1.095a54.568 54.568 0 0 1-2.248 2.433l1.449.73.309 6.642-.018.012.031.022.012.037.02-.012 3.67 4.153.813 6.298-.018.012.029.023.012.037.02-.015 5.57 2.851 2.717 4.993-.02.012.031.022.012.034.02-.011 6.074 2.504.609 4.846c1.664.123 2.758.216 2.758.216l4.779 2.22-4.374-2.992z"/><path d="M96.384 272.817l-.811-6.357-6.102-2.529-2.727-5.027-5.602-2.874-.824-6.332-3.703-4.175-.324-6.676-5.615-2.848-.668-4.2c-.6 1.98-1.414 3.919-2.371 5.852l.061.384-.014.011.027.023.012.037.02-.014 5.588 2.824.313 6.642-.02.012.029.022.012.034.018-.011 3.67 4.152.814 6.299-.016.011.027.022.012.035.02-.012 5.572 2.848 2.715 4.993-.02.011.031.023.012.037.02-.014 6.072 2.506.797 6.32-.018.012.031.023.012.034.016-.009 2.152 1.473.43-.467s.822-.783 1.629-2.228l-1.277-.867z"/><path d="M93.8 255.863a82.093 82.093 0 0 0-2.541-2.723l-2.551-1.113-.355-1.809c-2.857-2.816-5.773-5.59-7.85-7.866l.184 1.688-.018.014.031.02.012.035.02-.012 3.926 3.913 1.205 6.233-.018.011.031.021.016.033.02-.012 5.74 2.496 3.021 4.814-.016.015.031.02.014.037.016-.011 3.521 1.199c-.816-2.136-2.201-4.477-4.439-7.003z"/></g><path fill="#C38482" d="M97.683 332.718H47.38l-9.09 5.804v25.084a180.496 180.496 0 0 0 35.811 24.977l11.105-36.24 11.789 38.46H78.433c.242.119.479.25.719.369l27.266 10.396v-63.044l-8.735-5.806z"/><path fill="#E4DCD9" d="M85.202 352.343l-11.105 36.239c1.434.762 2.879 1.498 4.332 2.221h18.563l-11.79-38.46z"/><path fill="#D3A8A6" d="M72.435 332.718l.148 55.089c.496.27 1.012.512 1.514.775l11.105-36.239-.037 9.095.037-.119 9.041 29.487h-15.81a179.065 179.065 0 0 0 19.193 8.179l.059-66.264H72.437v-.003h-.002z"/><g fill="#CA8E8B"><path d="M72.341 387.674l.242.727v-.591l-.242-.136z"/><path d="M72.435 332.718H47.38l.25 38.671a177.3 177.3 0 0 0 5.307 3.998l7.662-23.043 11.742 35.33c.08.046.162.092.242.135l-.148-55.091z"/></g><path fill="#C38482" d="M47.38 332.718l-9.09 5.804v25.084a180.338 180.338 0 0 0 9.34 7.781l-.25-38.669z"/><g fill="#E4DCD9"><path d="M60.599 352.343l.059 9.157 7.996 24.053c1.23.708 2.438 1.441 3.686 2.121l-11.741-35.331z"/><path d="M60.599 352.343l-7.662 23.044c.801.58 1.602 1.151 2.416 1.717l5.248-15.788.061.182-.063-9.155z"/></g><g fill="#D3A8A6"><path d="M60.661 361.5l.127 19.253a178.478 178.478 0 0 0 7.869 4.8L60.661 361.5zM60.661 361.5l-.061-.182-5.25 15.788a178.348 178.348 0 0 0 5.438 3.649l-.127-19.255z"/></g><g fill="#E4DCD9"><path d="M74.099 388.586c.783.418 1.586.813 2.375 1.219l8.693-28.364.037-9.095-11.105 36.24zM85.288 352.343l.037 9.095 8.693 28.365c.791-.407 1.592-.803 2.377-1.219l-11.107-36.241z"/></g><g fill="#C38482"><path d="M85.202 361.318l-.035.12-.119 29.365h9.195zM76.474 389.803c.65.332 1.299.673 1.955 1h6.617l.119-29.367-8.691 28.367z"/></g><path fill="#E4DCD9" d="M97.655 345.2s-14.395-.15-25.273-.15c-10.881 0-24.9.15-24.9.15l-9.348 2.718v2.808l9.277-2.407s15.412-.049 24.971-.049c9.555 0 24.969.049 24.969.049l8.977 2.407v-2.808l-8.673-2.718z"/><path fill="#E4DCD9" d="M72.384 345.05c-10.879 0-24.898.15-24.898.15l-9.348 2.718v2.808l9.277-2.407s15.412-.049 24.971-.049c9.555 0 25.273.049 25.273.049v-3.117c-.004-.002-14.398-.152-25.275-.152z"/><path fill="#E4DCD9" d="M38.136 347.918v2.808l9.277-2.408.07-3.118z"/><path fill="#D3A8A6" d="M66.081 302.918c-3.947 0-7.148 3.559-7.148 7.95H73.23c-.001-4.391-3.202-7.95-7.149-7.95z"/><path fill="#E4DCD9" d="M66.081 304.115c-3.275 0-5.932 2.95-5.932 6.59h11.859c.001-3.64-2.654-6.59-5.927-6.59z"/><path fill="#C38482" d="M66.101 304.834c-2.93 0-5.309 2.643-5.309 5.902h10.621c0-3.259-2.379-5.902-5.312-5.902z"/><path fill="#CA8E8B" d="M66.101 307.136c-2.93 0-5.309 1.614-5.309 3.604h10.621c0-1.99-2.379-3.604-5.312-3.604z"/><path fill="#D3A8A6" d="M79.226 302.918c-3.947 0-7.148 3.559-7.148 7.95h14.297c-.001-4.391-3.2-7.95-7.149-7.95z"/><path fill="#E4DCD9" d="M79.226 304.115c-3.271 0-5.93 2.95-5.93 6.59h11.861c0-3.64-2.658-6.59-5.931-6.59z"/><path fill="#C38482" d="M79.245 304.834c-2.93 0-5.311 2.643-5.311 5.902h10.621c.001-3.259-2.376-5.902-5.31-5.902z"/><path fill="#CA8E8B" d="M79.245 307.136c-2.93 0-5.311 1.614-5.311 3.604h10.621c.001-1.99-2.376-3.604-5.31-3.604z"/><path fill="#D3A8A6" d="M88.913 304.425c-2.025 0-3.662 3.052-3.662 6.818l7.15 2.183.176-2.183c-.002-3.766-1.642-6.818-3.664-6.818z"/><path fill="#E4DCD9" d="M88.913 305.447c-1.68 0-3.037 2.533-3.037 5.656l.951 2.394h5.033l.09-2.394c0-3.123-1.359-5.656-3.037-5.656z"/><path fill="#C38482" d="M88.923 306.067c-1.504 0-2.721 2.268-2.721 5.064h5.439c.001-2.796-1.218-5.064-2.718-5.064z"/><path fill="#CA8E8B" d="M88.923 308.043c-1.504 0-2.721 1.384-2.721 3.089l-.057 1.12 5.426 1.08.07-2.2c.001-1.705-1.218-3.089-2.718-3.089z"/><path fill="#D3A8A6" d="M55.979 304.425c-2.021 0-3.66 3.052-3.66 6.818l.172 2.183 7.152-2.183c-.003-3.766-1.642-6.818-3.664-6.818z"/><path fill="#E4DCD9" d="M55.979 305.447c-1.68 0-3.035 2.533-3.035 5.656l.082 2.394h5.037l.951-2.394c.005-3.123-1.359-5.656-3.035-5.656z"/><path fill="#C38482" d="M55.968 306.067c-1.5 0-2.721 2.268-2.721 5.064h5.441c0-2.796-1.214-5.064-2.72-5.064z"/><path fill="#CA8E8B" d="M58.688 311.132c0-1.705-1.217-3.089-2.721-3.089-1.5 0-2.721 1.384-2.721 3.089l.072 2.2 5.418-1.08-.048-1.12z"/><g fill="#3EA3C1"><path d="M87.021 310.916s-9.006-.773-14.596-.773c-5.584 0-14.592.773-14.592.773l-5.383 2.495 2.387 2.581 4.766-2.211s7.914-.68 12.82-.68c4.912 0 12.828.68 12.828.68l4.766 2.211 2.385-2.581-5.381-2.495z"/><path d="M72.423 310.143c-5.584 0-14.59.773-14.59.773l-5.385 2.495 2.389 2.581 4.766-2.211s7.912-.68 12.82-.68c4.912 0 12.826.68 12.826.68l1.771-2.865c.001 0-9.005-.773-14.597-.773z"/><path d="M57.833 310.916l-5.381 2.495 2.387 2.581 4.767-2.214z"/></g><path fill="#E4DCD9" d="M86.608 311.493s-8.754-.753-14.186-.753c-5.424 0-14.178.753-14.178.753l-5.227 2.427 2.316 2.508 4.629-2.152s7.691-.66 12.459-.66c4.773 0 12.463.66 12.463.66l4.631 2.152 2.318-2.508-5.225-2.427z"/><path fill="#E4DCD9" d="M72.423 310.74c-5.424 0-14.178.753-14.178.753l-5.227 2.427 2.316 2.508 4.629-2.152s7.691-.66 12.459-.66c4.773 0 12.463.66 12.463.66l1.723-2.782c0-.001-8.752-.754-14.185-.754z"/><path fill="#E4DCD9" d="M58.245 311.493l-5.226 2.427 2.318 2.508 4.627-2.153z"/><path fill="#3EA3C1" d="M72.608 311.499c-13.438 0-33.182 4.227-33.182 4.227v18.886h66.904v-18.886c.001-.001-20.29-4.227-33.722-4.227z"/><path fill="#D3A8A6" d="M59.681 312.707c-7.916 0-14.334 7.133-14.334 15.938h28.672c0-8.805-6.42-15.938-14.338-15.938z"/><path fill="#E4DCD9" d="M59.681 315.103c-6.566 0-11.893 5.921-11.893 13.219h23.781c.002-7.302-5.324-13.219-11.888-13.219z"/><path fill="#C38482" d="M59.722 316.547c-5.879 0-10.648 5.3-10.648 11.837h21.293c-.001-6.537-4.766-11.837-10.645-11.837z"/><path fill="#CA8E8B" d="M59.722 321.162c-5.879 0-10.648 3.234-10.648 7.225h21.293c-.001-3.991-4.766-7.225-10.645-7.225z"/><path fill="#D3A8A6" d="M86.04 312.707c-7.914 0-14.334 7.133-14.334 15.938h28.674c0-8.805-6.424-15.938-14.34-15.938z"/><path fill="#E4DCD9" d="M86.04 315.103c-6.566 0-11.889 5.921-11.889 13.219h23.777c.005-7.302-5.32-13.219-11.888-13.219z"/><path fill="#C38482" d="M86.083 316.547c-5.879 0-10.646 5.3-10.646 11.837h21.291c0-6.537-4.768-11.837-10.645-11.837z"/><path fill="#CA8E8B" d="M86.083 321.162c-5.879 0-10.646 3.234-10.646 7.225h21.291c0-3.991-4.768-7.225-10.645-7.225z"/><path fill="#D3A8A6" d="M105.468 315.725c-4.059 0-7.346 6.119-7.346 13.67l14.34 4.377.35-4.377c0-7.551-3.293-13.67-7.344-13.67z"/><path fill="#E4DCD9" d="M105.468 317.779c-3.367 0-6.096 5.076-6.096 11.338l1.91 4.8h10.102l.174-4.8c0-6.263-2.729-11.338-6.09-11.338z"/><path fill="#C38482" d="M105.483 319.021c-3.012 0-5.453 4.545-5.453 10.152h10.91c0-5.61-2.441-10.152-5.457-10.152z"/><path fill="#CA8E8B" d="M105.483 322.979c-3.012 0-5.453 2.773-5.453 6.193l-.105 2.248 10.877 2.163.139-4.411c-.001-3.42-2.442-6.193-5.458-6.193z"/><path fill="#D3A8A6" d="M39.427 315.725c-4.059 0-7.344 6.119-7.344 13.67l.348 4.377 14.34-4.377c0-7.551-3.288-13.67-7.344-13.67z"/><path fill="#E4DCD9" d="M39.427 317.779c-3.365 0-6.094 5.076-6.094 11.338l.176 4.8h10.1l1.912-4.8c-.002-6.263-2.729-11.338-6.094-11.338z"/><path fill="#C38482" d="M39.407 319.021c-3.016 0-5.457 4.545-5.457 10.152h10.908c0-5.61-2.437-10.152-5.451-10.152z"/><path fill="#CA8E8B" d="M44.858 329.171c0-3.421-2.439-6.193-5.451-6.193-3.016 0-5.457 2.774-5.457 6.193l.139 4.411 10.877-2.163-.108-2.248z"/><g fill="#3EA3C1"><path d="M101.673 329.58s-18.066-1.549-29.266-1.549c-11.203 0-29.266 1.549-29.266 1.549l-10.787 5.012 4.783 5.172 9.557-4.436s15.871-1.361 25.713-1.361 25.713 1.361 25.713 1.361l9.555 4.436 4.787-5.172-10.789-5.012z"/><path d="M72.407 328.031c-11.203 0-29.266 1.549-29.266 1.549l-10.787 5.012 4.783 5.172 9.557-4.436s15.871-1.361 25.713-1.361 25.713 1.361 25.713 1.361l3.553-5.744c0-.004-18.067-1.553-29.266-1.553z"/><path d="M43.144 329.58l-10.788 5.012 4.78 5.172 9.562-4.437z"/></g><path fill="#E4DCD9" d="M100.845 330.74s-17.555-1.51-28.438-1.51c-10.887 0-28.441 1.51-28.441 1.51l-10.482 4.865 4.65 5.027 9.287-4.311s15.426-1.325 24.986-1.325 24.984 1.325 24.984 1.325l9.289 4.311 4.65-5.027-10.485-4.865z"/><path fill="#E4DCD9" d="M72.407 329.23c-10.887 0-28.441 1.51-28.441 1.51l-10.482 4.865 4.65 5.027 9.287-4.311s15.426-1.325 24.986-1.325 24.984 1.325 24.984 1.325l3.455-5.582c-.001.001-17.554-1.509-28.439-1.509z"/><path fill="#E4DCD9" d="M43.97 330.74l-10.483 4.868 4.649 5.029 9.285-4.315zM164.165 129.449h-11.303c-2.311 0-4.188 2.014-4.188 4.496 0 2.484 1.873 4.5 4.188 4.5h11.303c2.311 0 4.186-2.013 4.186-4.5-.002-2.482-1.875-4.496-4.186-4.496z"/><path fill="#3EA3C1" d="M181.794 319.631h50.809v6.371h-50.809z"/><path fill="#C38482" d="M226.103 283.646h-37.522l-6.775 4.332v32.769h50.808v-32.769z"/><path fill="#D3A8A6" d="M188.581 283.646l-6.775 4.332v32.769h44.25l.047-37.101z"/><path fill="#CA8E8B" d="M207.274 283.646h-18.693l-6.775 4.332v32.769h25.607z"/><g fill="#C38482"><path d="M188.581 283.646l-6.775 4.332v32.769h7.056zM225.759 333.775h-36.836l-6.658 4.249V370.2h49.886v-32.176z"/></g><path fill="#D3A8A6" d="M188.923 333.775l-6.658 4.249V370.2h43.449l.045-36.425z"/><path fill="#CA8E8B" d="M207.274 333.775h-18.351l-6.658 4.249V370.2h25.146z"/><g fill="#C38482"><path d="M188.923 333.775l-6.658 4.249V370.2h6.933zM225.759 369.748l-.037 26.645a173.49 173.49 0 0 0 6.426-2.75v-19.648l-6.389-4.247z"/></g><path fill="#D3A8A6" d="M207.274 369.748l.125 32.918a177.785 177.785 0 0 0 18.326-6.271l.037-26.646h-18.488v-.001z"/><path fill="#CA8E8B" d="M207.274 369.748h-18.352l.277 36.422h3.533a177.793 177.793 0 0 0 14.666-3.508l-.124-32.914z"/><path fill="#C38482" d="M182.265 373.997v33.867c2.318-.308 4.623-.66 6.916-1.058l-.258-37.059-6.658 4.25z"/><path fill="#E4DCD9" d="M226.147 299.594s-10.723-.114-18.828-.114c-8.107 0-18.547.114-18.547.114l-6.967 2.023v2.09l6.912-1.791s11.482-.037 18.604-.037 18.602.037 18.602.037l6.691 1.791v-2.09l-6.467-2.023z"/><path fill="#E4DCD9" d="M207.319 299.479c-8.105 0-18.547.114-18.547.114l-6.967 2.023v2.09l6.912-1.791s11.482-.037 18.605-.037c7.119 0 18.828.037 18.828.037v-2.322c-.003.001-10.725-.114-18.831-.114z"/><path fill="#E4DCD9" d="M181.806 301.617v2.089l6.908-1.79.058-2.322z"/><path fill="#CA8E8B" d="M207.413 306.131l-7.021 14.613h14.046z"/><path fill="#C38482" d="M207.413 306.131l-7.021 14.613h7.16z"/><g fill="#D3A8A6"><path d="M207.413 309.541l-5.385 11.203h10.774zM226.103 306.131l-6.416 14.613h12.834z"/></g><path fill="#3EA3C1" d="M219.687 320.744h6.33l.086-14.613z"/><path fill="#C38482" d="M226.103 309.541l-4.92 11.203h9.839z"/><path fill="#D3A8A6" d="M188.679 306.131l-6.653 14.613h13.299z"/><path fill="#3EA3C1" d="M188.679 306.131l.084 14.613h6.562z"/><path fill="#C38482" d="M188.679 309.541l-5.1 11.203h10.201z"/><g fill="#E4DCD9"><path d="M199.794 339.201l-7.815 37.002h15.627z"/><path d="M199.794 339.201l-7.815 37.002h7.971z"/></g><path fill="#D3A8A6" d="M199.794 347.832l-5.992 28.371h11.98z"/><g fill="#E4DCD9"><path d="M214.825 339.201l-7.199 37.002h14.402z"/><path d="M207.626 376.203h7.105l.094-37.002z"/></g><path fill="#C38482" d="M214.829 347.832l-5.525 28.371h11.045z"/><path fill="#E4DCD9" d="M187.161 339.201l-5.135 37.002h10.268z"/><path fill="#C38482" d="M187.161 347.832l-3.937 28.371h7.873z"/><g fill="#E4DCD9"><path d="M227.257 339.201l-5.137 37.002h10.268z"/><path d="M227.257 339.201l.066 37.002h5.065z"/></g><path fill="#C38482" d="M227.257 347.832l-3.938 28.371h7.873z"/><g fill="#E4DCD9"><path d="M197.437 288.597l-7.022 3.997 7.022 3.996 7.023-3.996zM217.11 288.597l-7.023 3.997 7.023 3.996 7.024-3.996zM229.952 291.939l-2.658 1.155 1.848 2.232 2.658-1.152zM184.585 291.91l-2.012 2.09 2.563 1.353 2.013-2.083z"/></g><path fill="#C14C4E" d="M238.327 250.297c-7.723-8.703-20.375-19.392-23.047-24.451-2.666-5.059-4.775-10.118-5.619-15.455h-4.684c-.844 5.34-2.953 10.398-5.625 15.455-2.666 5.059-15.322 15.748-23.043 24.451-15.457 17.425-3.232 29.09-3.232 29.09l5.199 5.621 7.869-3.654s13.07-1.123 21.174-1.123 21.172 1.123 21.172 1.123l7.869 3.654 5.199-5.621c-.001-.001 12.227-11.665-3.232-29.09z"/><path fill="#BB393B" d="M238.327 250.297c-7.723-8.703-54.297-8.703-62.018 0-15.457 17.425-3.232 29.09-3.232 29.09l5.199 5.621 7.869-3.654s13.07-1.123 21.174-1.123 21.172 1.123 21.172 1.123l7.869 3.654 5.199-5.621c-.001-.001 12.227-11.665-3.232-29.09z"/><path fill="#BB393B" d="M208.819 268.003c-32.602 0-35.738 11.383-35.738 11.383l5.197 5.622 7.871-3.655s13.07-1.122 21.174-1.122c8.102 0 21.17 1.122 21.17 1.122l7.871 3.655 5.197-5.622c-.003 0-.142-11.383-32.742-11.383z"/><path fill="#EAD063" d="M228.491 281.353s-13.068-1.122-21.172-1.122c-8.102 0-21.174 1.122-21.174 1.122l-7.805 3.624 3.465 3.74 6.912-3.209s11.482-.986 18.605-.986c7.119 0 18.602.986 18.602.986l6.912 3.209 3.465-3.74-7.81-3.624z"/><path fill="#E5C953" d="M207.319 280.23c-8.105 0-21.174 1.122-21.174 1.122l-7.805 3.624 3.465 3.74 6.912-3.209s11.482-.986 18.605-.986c7.119 0 18.602.986 18.602.986l2.568-4.158c-.001.004-13.067-1.119-21.173-1.119z"/><path fill="#D6BA47" d="M186.146 281.353l-7.805 3.624 3.465 3.74 6.908-3.206z"/><path fill="#E5C953" d="M207.319 174.137l-2.341 36.251h4.638z"/><path fill="#D6BA47" d="M204.978 210.388h2.296l.045-36.251z"/><ellipse fill="#E5C953" cx="207.288" cy="200.347" rx="3.375" ry="3.651"/><path fill="#EAD26C" d="M204.183 200.429c0 1.851 1.383 3.351 3.092 3.351s3.092-1.498 3.092-3.351c-.003-1.848-6.184-1.848-6.184 0z"/><path fill="#E4DCD9" d="M237.53 276.325l-7.434-4.667-7.273 1.391-7.438-2.444-7.273 2.444-7.434-2.444-7.275 2.444-7.428-1.391-7.279 4.667-7.432-1.669-1.076.48c1.305 2.74 2.889 4.25 2.889 4.25l1.074 1.162 4.502 1.009v.031l.045-.015.051.015v-.031l7.229-4.653 7.387 1.376v.028l.045-.015.049.015v-.031l7.229-2.428 7.389 2.43v.028l.045-.015.049.015v-.03l7.225-2.428 7.393 2.43v.027l.049-.014.049.014v-.031l7.225-1.372 7.393 4.653v.031l.047-.016.047.016v-.031l2.506-.574 1.477-1.598s1.754-1.674 3.094-4.695l-7.146 1.636zM245.896 264.602l-1.094-.441-7.273.361-7.436-4.32-7.273 2.444-7.438-2.444-7.273 2.444-7.432-2.444-7.275 2.444-7.43-2.444-7.279 4.32-7.432-1.299-2.525 1.361a18.174 18.174 0 0 0-.104 5.307l2.629-1.422 7.391 1.282v.031l.045-.017.051.017v-.031l7.229-4.304 7.387 2.428v.031l.045-.014.049.014v-.031l7.227-2.428 7.391 2.428v.031l.045-.014.049.014v-.031l7.225-2.428 7.393 2.428v.031l.049-.014.049.014v-.031l7.225-2.428 7.393 4.304v.031l.045-.017.049.017v-.031l7.213-.341 1.197.48c.2-1.595.206-3.363-.112-5.288zM240.825 253.381l-3.295.841-7.434-3.859-7.273 2.265-7.438-2.265-7.273 2.265-7.434-2.265-7.275 2.265-7.428-2.265-7.279 3.493-4.414-1.108a34.966 34.966 0 0 0-2.764 4.173l7.133 1.787v.028l.045-.015.051.015v-.031l7.229-3.479 7.387 2.253v.028l.045-.015.049.015v-.028l7.227-2.253 7.391 2.253v.028l.045-.015.049.015v-.028l7.225-2.253 7.393 2.253v.028l.049-.015.049.015v-.028l7.225-2.253 7.393 3.846v.028l.045-.015.049.015v-.028l5.887-1.501a35.77 35.77 0 0 0-2.659-4.19zM229.741 241.438l-6.918 1.998-7.438-2.101-7.273 2.098-7.432-2.101-7.275 2.101-7.43-2.101-1.379.398c-2.094 2.061-4.174 4.141-6.076 6.156l.135.037v.025l.045-.015.051.015v-.025l7.229-2.087 7.385 2.087v.025l.047-.015.049.015v-.025l7.227-2.087 7.391 2.087v.025l.045-.015.049.015v-.025l7.225-2.087 7.393 2.087v.025l.049-.015.049.015v-.025l7.225-2.087 5.572 1.575a297.84 297.84 0 0 0-5.945-5.973zM223.11 234.921l-.287.073-7.438-1.869-7.273 1.869-7.432-1.869-7.275 1.869-1.561-.392a314.2 314.2 0 0 1-3.24 3.2l4.758 1.197v.021l.045-.011.049.011V239l7.229-1.859 7.389 1.859v.021l.047-.011.047.011V239l7.227-1.859L222.78 239v.021l.049-.011.049.011V239l3.467-.893a360.973 360.973 0 0 1-3.235-3.186zM215.374 226.008l-7.262 1.6-7.432-1.603-1.621.358c-.711 1.168-1.863 2.582-3.309 4.172l4.928-1.088 7.391 1.594v.02l.045-.008.049.008v-.02l7.225-1.594 3.133.673c-1.418-1.583-2.516-2.981-3.147-4.112zM212.046 218.871l-3.934.867-5.402-1.165a55.985 55.985 0 0 1-1.328 3.157l6.688 1.441v.02l.047-.011.049.011v-.02l5.223-1.151a58.782 58.782 0 0 1-1.343-3.149z"/><path fill="#D3A8A6" d="M198.11 318.561c-5.729 0-10.367 5.162-10.367 11.531h20.74c-.002-6.369-4.64-11.531-10.373-11.531z"/><path fill="#E4DCD9" d="M198.11 320.295c-4.748 0-8.6 4.281-8.6 9.564h17.205c-.001-5.284-3.853-9.564-8.605-9.564z"/><path fill="#C38482" d="M198.14 321.342c-4.252 0-7.701 3.834-7.701 8.563h15.406c0-4.73-3.451-8.563-7.705-8.563z"/><path fill="#CA8E8B" d="M198.14 324.678c-4.252 0-7.701 2.342-7.701 5.224h15.406c0-2.882-3.451-5.224-7.705-5.224z"/><path fill="#D3A8A6" d="M217.185 318.561c-5.73 0-10.371 5.162-10.371 11.531h20.742c-.002-6.369-4.641-11.531-10.371-11.531z"/><path fill="#E4DCD9" d="M217.185 320.295c-4.75 0-8.604 4.281-8.604 9.564h17.207c-.004-5.284-3.851-9.564-8.603-9.564z"/><path fill="#C38482" d="M217.212 321.342c-4.254 0-7.701 3.834-7.701 8.563h15.404c0-4.73-3.447-8.563-7.703-8.563z"/><path fill="#CA8E8B" d="M217.212 324.678c-4.254 0-7.701 2.342-7.701 5.224h15.404c0-2.882-3.447-5.224-7.703-5.224z"/><path fill="#D3A8A6" d="M231.233 320.744c-2.934 0-5.313 4.428-5.313 9.891l10.373 3.166.254-3.166c.001-5.463-2.378-9.891-5.314-9.891z"/><path fill="#E4DCD9" d="M231.233 322.23c-2.43 0-4.406 3.672-4.406 8.202l1.381 3.474h7.305l.125-3.474c.004-4.53-1.967-8.202-4.405-8.202z"/><path fill="#C38482" d="M231.251 323.129c-2.18 0-3.947 3.289-3.947 7.344h7.893c.001-4.055-1.766-7.344-3.946-7.344z"/><path fill="#CA8E8B" d="M231.251 325.991c-2.18 0-3.947 2.007-3.947 4.481l-.078 1.626 7.871 1.566.102-3.192c-.001-2.474-1.768-4.481-3.948-4.481z"/><path fill="#D3A8A6" d="M183.46 320.744c-2.934 0-5.313 4.428-5.313 9.891l.25 3.166 10.375-3.166c0-5.463-2.378-9.891-5.312-9.891z"/><path fill="#E4DCD9" d="M183.46 322.23c-2.434 0-4.404 3.672-4.404 8.202l.119 3.474h7.309l1.381-3.474c-.001-4.53-1.975-8.202-4.405-8.202z"/><path fill="#C38482" d="M183.446 323.129c-2.184 0-3.949 3.289-3.949 7.344h7.895c0-4.055-1.77-7.344-3.946-7.344z"/><path fill="#CA8E8B" d="M187.392 330.473c0-2.475-1.77-4.481-3.949-4.481-2.182 0-3.947 2.007-3.947 4.481l.1 3.192 7.871-1.566-.075-1.626z"/><g fill="#3EA3C1"><path d="M228.491 330.16s-13.068-1.122-21.172-1.122c-8.102 0-21.174 1.122-21.174 1.122l-7.805 3.621 3.465 3.743 6.912-3.209s11.482-.986 18.605-.986c7.119 0 18.602.986 18.602.986l6.912 3.209 3.465-3.743-7.81-3.621z"/><path d="M207.319 329.038c-8.105 0-21.174 1.122-21.174 1.122l-7.805 3.621 3.465 3.743 6.912-3.209s11.482-.986 18.605-.986c7.119 0 18.602.986 18.602.986l2.568-4.155c-.001 0-13.067-1.122-21.173-1.122z"/><path d="M186.146 330.16l-7.805 3.621 3.465 3.746 6.908-3.212z"/></g><path fill="#E4DCD9" d="M227.892 330.998s-12.699-1.091-20.572-1.091-20.574 1.091-20.574 1.091l-7.586 3.521 3.365 3.639 6.719-3.121s11.156-.957 18.076-.957c6.918 0 18.074.957 18.074.957l6.715 3.121 3.369-3.639-7.586-3.521z"/><path fill="#F8F6F6" d="M207.319 329.907c-7.875 0-20.574 1.091-20.574 1.091l-7.586 3.521 3.365 3.639 6.719-3.121s11.156-.957 18.076-.957c6.918 0 18.074.957 18.074.957l2.498-4.039c.001 0-12.697-1.091-20.572-1.091z"/><path fill="#E4DCD9" d="M186.745 330.998l-7.586 3.522 3.365 3.638 6.719-3.121z"/><g fill="#3EA3C1"><path d="M228.491 373.252s-13.068-1.122-21.172-1.122c-8.102 0-21.174 1.122-21.174 1.122l-7.805 3.624 3.465 3.743 6.912-3.209s11.482-.986 18.605-.986c7.119 0 18.602.986 18.602.986l6.912 3.209 3.465-3.743-7.81-3.624z"/><path d="M207.319 372.13c-8.105 0-21.174 1.122-21.174 1.122l-7.805 3.624 3.465 3.743 6.912-3.209s11.482-.986 18.605-.986c7.119 0 18.602.986 18.602.986l2.568-4.158c-.001 0-13.067-1.122-21.173-1.122z"/><path d="M186.146 373.252l-7.805 3.624 3.465 3.743 6.908-3.209z"/></g><g fill="#E4DCD9"><path d="M227.892 376.058l-1.086 1.762 6.027 2.799 1.465-1.586z"/><path d="M207.319 374.969c-7.875 0-20.574 1.089-20.574 1.089l1.088 1.763.885-.409s11.482-.986 18.604-.986 18.602.986 18.602.986l.885.409 1.088-1.763c-.005 0-12.703-1.089-20.578-1.089z"/><path d="M186.745 376.058l-6.408 2.975 1.469 1.586 6.027-2.799z"/></g></g></g></svg>