<svg xmlns="http://www.w3.org/2000/svg" xmlns:xlink="http://www.w3.org/1999/xlink" width="360" height="360" viewBox="0 0 360 360"><symbol id="a" viewBox="-46.712 -179.967 93.423 359.934"><path fill="#60717B" d="M-23.363-81.711H1.139v-63.811h-24.502z"/><path fill="#60717B" d="M-8.554-39.546h41.023v-105.976H-8.554z"/><path fill="#70513C" d="M34.104-103.736l3.435-3.442v84.252l-3.435 3.44z"/><path fill="#9E735A" d="M24.933 51.011c0-2.292-2.291-4.586-4.585-4.586h-42.986c-2.292 0-4.586 2.294-4.586 4.586v46.424c0 2.292 2.294 4.583 4.586 4.583h42.986c2.294 0 4.585-2.291 4.585-4.583V51.011z"/><g fill="#7F5B42"><path d="M-26.649 97.435c0 2.292 2.292 4.583 4.584 4.583h42.982c2.296 0 4.59-2.291 4.59-4.583V51.011c0-2.292-2.294-4.586-4.59-4.586"/><path d="M37.539-104.884c0-1.722-1.715-3.439-3.436-3.439h-68.777c-1.721 0-3.439 1.718-3.439 3.439V73.361c0 1.719 1.719 3.439 3.439 3.439h68.777c1.721 0 3.436-1.721 3.436-3.439v-178.245z"/></g><path fill="#997153" d="M37.539-176.525c0-1.719-1.715-3.441-3.436-3.441h-68.777c-1.721 0-3.439 1.723-3.439 3.441V1.72c0 1.72 1.719 3.439 3.439 3.439h68.777c1.721 0 3.436-1.72 3.436-3.439v-178.245z"/><path fill="#845E44" d="M34.104 5.159c1.721 0 3.436-1.72 3.436-3.439v-178.245c0-1.719-1.715-3.441-3.436-3.441"/><path fill="#BC8F71" d="M-34.674-179.967c-1.721 0-3.439 1.723-3.439 3.441V1.72c0 1.72 1.719 3.439 3.439 3.439"/><path fill="#7F5B42" d="M-34.674 5.159l-3.439-4.012V-30.95l75.652-76.228v84.252L10.034 5.159z"/><path fill="#9E7B64" d="M-27.225-169.649c0-.574-.569-1.146-1.146-1.146-.568 0-1.147.572-1.147 1.146v141.563c0 .573.579 1.148 1.147 1.148.577 0 1.146-.575 1.146-1.148v-141.563z"/><path fill="#70513C" d="M-27.225-42.41v14.324c0 .573-.569 1.148-1.146 1.148-.568 0-1.147-.575-1.147-1.148v-12.035l2.293-2.289z"/><path fill="#9E7B64" d="M-19.2-169.649c0-.574-.571-1.146-1.148-1.146-.568 0-1.143.572-1.143 1.146v141.563c0 .573.574 1.148 1.143 1.148.577 0 1.148-.575 1.148-1.148v-141.563z"/><path fill="#9E7B64" d="M-19.2-169.649c0-.574-.571-1.146-1.148-1.146-.568 0-1.143.572-1.143 1.146v141.563c0 .573.574 1.148 1.143 1.148.577 0 1.148-.575 1.148-1.148v-141.563zM-11.176-169.649c0-.574-.574-1.146-1.145-1.146-.576 0-1.147.572-1.147 1.146v141.563c0 .573.571 1.148 1.147 1.148.57 0 1.145-.575 1.145-1.148v-141.563z"/><g fill="#70513C"><path d="M-11.176-57.888v30.375c0 .575-.574 1.147-1.145 1.147-.576 0-1.147-.572-1.147-1.147v-28.083l2.292-2.292zM-19.2-50.436v22.35c0 .573-.571 1.148-1.148 1.148-.568 0-1.143-.575-1.143-1.148v-20.059l2.291-2.291z"/></g><path fill="#9E7B64" d="M-3.148-169.649c0-.574-.575-1.146-1.148-1.146s-1.146.572-1.146 1.146v141.563c0 .573.573 1.148 1.146 1.148s1.148-.575 1.148-1.148v-141.563z"/><path fill="#70513C" d="M-3.148-65.911v38.398c0 .575-.575 1.147-1.148 1.147s-1.146-.572-1.146-1.147v-36.105l2.294-2.293z"/><path fill="#9E7B64" d="M4.873-169.649c0-.574-.579-1.146-1.144-1.146-.577 0-1.149.572-1.149 1.146v141.563c0 .573.572 1.148 1.149 1.148.564 0 1.144-.575 1.144-1.148v-141.563z"/><path fill="#70513C" d="M4.873-73.937v46.424c0 .575-.579 1.147-1.144 1.147-.577 0-1.149-.572-1.149-1.147v-44.13l2.293-2.294z"/><path fill="#9E7B64" d="M12.896-169.649c0-.574-.574-1.146-1.146-1.146-.573 0-1.146.572-1.146 1.146v141.563c0 .573.573 1.148 1.146 1.148.571 0 1.146-.575 1.146-1.148v-141.563z"/><path fill="#70513C" d="M11.75-26.938c-.573 0-1.146-.575-1.146-1.148v-52.155l2.292-2.291v53.875c0 1.144-.575 1.719-1.146 1.719z"/><path fill="#9E7B64" d="M20.917-169.649c0-.574-.569-1.146-1.141-1.146-.572 0-1.146.572-1.146 1.146v141.563c0 .573.574 1.148 1.146 1.148.571 0 1.141-.575 1.141-1.148v-141.563z"/><path fill="#70513C" d="M19.776-26.938c-.572 0-1.146-.575-1.146-1.148v-60.178l2.287-2.292v62.47c0 .573-.569 1.148-1.141 1.148z"/><path fill="#9E7B64" d="M28.944-169.649c0-.574-.575-1.146-1.146-1.146-.574 0-1.145.572-1.145 1.146v141.563c0 .573.57 1.148 1.145 1.148.571 0 1.146-.575 1.146-1.148v-141.563z"/><path fill="#70513C" d="M27.798-26.938c-.574 0-1.145-.575-1.145-1.148v-68.198l2.291-2.297v70.495c0 .573-.575 1.148-1.146 1.148z"/><g fill="#4F3E32"><path d="M39.264-69.349c0-1.148-1.148-2.294-2.292-2.294h-74.511c-1.149 0-2.297 1.146-2.297 2.294 0 1.146 1.147 2.294 2.297 2.294h74.511c1.143 0 2.292-1.148 2.292-2.294zM39.264-80.241c0-1.145-1.148-2.291-2.292-2.291h-74.511c-1.149 0-2.297 1.146-2.297 2.291 0 1.146 1.147 2.293 2.297 2.293h74.511c1.143 0 2.292-1.148 2.292-2.293zM39.264-132.394c0-1.146-1.148-2.294-2.292-2.294h-74.511c-1.149 0-2.297 1.147-2.297 2.294 0 1.145 1.147 2.29 2.297 2.29h74.511c1.143 0 2.292-.571 2.292-2.29zM39.264-142.71c0-1.148-1.148-2.292-2.292-2.292h-74.511c-1.149 0-2.297 1.144-2.297 2.292 0 1.143 1.147 2.292 2.297 2.292h74.511c1.143 0 2.292-1.149 2.292-2.292z"/></g><g><path fill="#AF8366" d="M46.141-26.365a5.137 5.137 0 0 0-5.16-5.157h-82.533a5.137 5.137 0 0 0-5.159 5.157v83.106a5.138 5.138 0 0 0 5.159 5.159H41.55a5.138 5.138 0 0 0 5.161-5.159v-83.106h-.57z"/><path fill="#9E735A" d="M-46.712 56.741a5.138 5.138 0 0 0 5.159 5.159H41.55a5.138 5.138 0 0 0 5.161-5.159v-83.106a5.136 5.136 0 0 0-5.161-5.157"/><g fill="#997153"><path d="M46.141-26.365a5.137 5.137 0 0 0-5.16-5.157h-82.533a5.137 5.137 0 0 0-5.159 5.157"/><path d="M32.382 15.477c0-17.77-14.33-44.134-32.67-44.134-17.764 0-32.667 26.364-32.667 44.134 0 17.763 14.328 32.668 32.667 32.668 17.77-.574 32.67-14.906 32.67-32.668z"/></g></g><g><path fill="#EDEADA" d="M-.288 48.145c18.042 0 32.67-14.627 32.67-32.668 0-18.043-14.628-32.671-32.67-32.671-18.04 0-32.667 14.628-32.667 32.671 0 18.041 14.627 32.668 32.667 32.668z"/><path fill="#DBD6C1" d="M-.288 47.571c-10.314 0-19.483-4.584-25.214-12.036l45.85-45.85c7.45 5.729 12.034 14.901 12.034 25.214 0 18.34-14.9 32.672-32.67 32.672z"/><path fill="#D7CF87" d="M-.288-20.058c-19.483 0-34.962 15.472-34.962 34.957 0 19.488 15.479 34.965 34.962 34.965 19.492 0 34.964-15.477 34.964-34.965 0-18.911-15.472-34.957-34.964-34.957zm0 65.337c-16.621 0-29.802-13.183-29.802-29.803 0-16.622 13.181-29.806 29.802-29.806 16.622 0 29.805 13.184 29.805 29.806 0 16.621-13.183 29.803-29.805 29.803z"/><path fill="#4F3E32" d="M40.406 75.655c0-.575-.573-1.146-1.143-1.146h-78.524c-.575 0-1.146.571-1.146 1.146 0 .573.57 1.146 1.146 1.146h77.945c.58 0 1.722-.572 1.722-1.146z"/></g><g><path fill="#427852" d="M-31.809 66.484c0-.574-.574-1.146-1.146-1.146-.573 0-1.147.572-1.147 1.146v4.013c0 .572.574 1.146 1.147 1.146.572 0 1.146-.574 1.146-1.146v-4.013zM-24.931 66.484c0-.574-.571-1.146-1.148-1.146-.57 0-1.146.572-1.146 1.146v4.013c0 .572.575 1.146 1.146 1.146.577 0 1.148-.574 1.148-1.146v-4.013zM-18.627 66.484c0-.574-.573-1.146-1.145-1.146-.577 0-1.146.572-1.146 1.146v4.013c0 .572.568 1.146 1.146 1.146.571 0 1.145-.574 1.145-1.146v-4.013z"/><path fill="#1F3625" d="M-12.32 66.484c0-.574-.576-1.146-1.147-1.146-.573 0-1.147.572-1.147 1.146v4.013c0 .572.574 1.146 1.147 1.146.571 0 1.147-.574 1.147-1.146v-4.013z"/><path fill="#427852" d="M-5.443 66.484c0-.574-.573-1.146-1.148-1.146-.57 0-1.145.572-1.145 1.146v4.013c0 .572.574 1.146 1.145 1.146.575 0 1.148-.574 1.148-1.146v-4.013z"/><path fill="#1F3625" d="M.861 66.484c0-.574-.574-1.146-1.149-1.146-.57 0-1.144.572-1.144 1.146v4.013c0 .572.573 1.146 1.144 1.146.575 0 1.149-.574 1.149-1.146v-4.013z"/><path fill="#427852" d="M7.167 66.484c0-.574-.577-1.146-1.147-1.146-.577 0-1.146.572-1.146 1.146v4.013c0 .572.569 1.146 1.146 1.146.57 0 1.147-.574 1.147-1.146v-4.013z"/><path fill="#1F3625" d="M13.472 66.484c0-.574-.576-1.146-1.15-1.146-.571 0-1.145.572-1.145 1.146v4.013c0 .572.573 1.146 1.145 1.146.574 0 1.15-.574 1.15-1.146v-4.013z"/><path fill="#427852" d="M20.348 66.484c0-.574-.571-1.146-1.144-1.146-.574 0-1.152.572-1.152 1.146v4.013c0 .572.578 1.146 1.152 1.146.572 0 1.144-.574 1.144-1.146v-4.013z"/><path fill="#1F3625" d="M26.653 66.484c0-.574-.575-1.146-1.146-1.146-.574 0-1.149.572-1.149 1.146v4.013c0 .572.575 1.146 1.149 1.146.571 0 1.146-.574 1.146-1.146v-4.013z"/><path fill="#427852" d="M32.957 66.484c0-.574-.575-1.146-1.148-1.146-.571 0-1.146.572-1.146 1.146v4.013c0 .572.574 1.146 1.146 1.146.573 0 1.148-.574 1.148-1.146v-4.013z"/></g><g><path fill="#AF8366" d="M1.432 16.621c0-1.145-.57-1.722-1.72-1.722-1.144 0-1.716.577-1.716 1.722v24.071c0 1.148.572 1.721 1.716 1.721 1.149 0 1.72-.572 1.72-1.721V16.621z"/><path fill="#4F3E32" d="M16.334 15.477c0-1.147-1.145-2.296-2.295-2.296H-.858c-1.146 0-2.29 1.148-2.29 2.296 0 1.145 1.145 2.29 2.29 2.29h14.897c1.15 0 2.295-1.146 2.295-2.29z"/></g><g><path fill="#997153" d="M-.288 18.342a2.865 2.865 0 1 0 0-5.73 2.862 2.862 0 0 0-2.86 2.865 2.864 2.864 0 0 0 2.86 2.865z"/><g fill="#4F3E32"><path d="M-38.688 75.655c0-.575-.572-1.146-1.147-1.146-.57 0-1.144.571-1.144 1.146v11.463c0 .572.573 1.146 1.144 1.146.575 0 1.147-.573 1.147-1.146V75.655z"/><path d="M-36.965 80.813c0-.573-.574-1.144-1.148-1.144h-4.586c-.573 0-1.144.57-1.144 1.144 0 .573.57 1.147 1.144 1.147h4.586c1.148-.574 1.148-1.147 1.148-1.147zM40.406 75.655c0-.575-.573-1.146-1.143-1.146-.579 0-1.148.571-1.148 1.146v11.463c0 .572.569 1.146 1.148 1.146.569 0 1.143-.573 1.143-1.146V75.655z"/><path d="M42.702 80.813c0-.573-.578-1.144-1.152-1.144h-4.578c-.579 0-1.147.57-1.147 1.144 0 .573.568 1.147 1.147 1.147h4.578c.574-.574 1.152-1.147 1.152-1.147zM.287 167.355c0-.571-.575-1.144-1.146-1.144-.573 0-1.146.572-1.146 1.144v11.465c0 .572.572 1.146 1.146 1.146.57 0 1.146-.574 1.146-1.146v-11.465z"/><path d="M2.58 172.515c0-.571-.572-1.146-1.148-1.146h-4.58c-.575 0-1.148.574-1.148 1.146 0 .575.573 1.148 1.148 1.148h4.58c.576-.573 1.148-1.148 1.148-1.148z"/></g><path fill="#604533" d="M34.104 95.715l-34.962 75.08-34.962-75.08z"/><path fill="#422E20" d="M18.63 95.715l-19.488 75.08-19.491-75.08z"/><path fill="#7F5B42" d="M36.393 94.568c0-.573-.568-.573-.568-.573h-73.363c-.574 0-.574.573-.574.573 0 .574.574.574.574.574H35.25c.574.573 1.143.001 1.143-.574z"/></g></symbol><path fill="#BCD2DE" d="M308.945 275.137c0-33.042 21.382-61.072 51.055-71.063V0H0v360h360v-46.705h-40.617c-6.625-11.178-10.438-24.221-10.438-38.158z"/><path fill="#8E99A1" d="M97.623 114.697h31.318v186.676H97.623z"/><path fill="#787C86" d="M229.527 142.194h31.318v186.677h-31.318z"/><path fill="#8E99A1" d="M262.061 192.299h31.318v147.262h-31.318z"/><path fill="#787C86" d="M70.008 158.463h31.318V345.14H70.008z"/><path fill="#8E99A1" d="M.768 165.36h24.497v121.33H.768z"/><path fill="#435563" d="M185.922 260.918h-76.354v-15.953H89.056v-22.221H64.554v63.811h20.512v22.222h24.502v-2.845h76.354z"/><path fill="#E68F5B" d="M308.945 275.137c0 13.938 3.813 26.98 10.438 38.158H360V204.074c-29.673 9.99-51.055 38.021-51.055 71.063z"/><path fill="#1D2C36" d="M323.246 224.465h24.506v63.816h-24.506z"/><g fill="#60717B"><path d="M327.762 229.893h3.438v3.438h-3.438zM327.762 236.424h3.438v3.439h-3.438zM327.762 243.303h3.438v3.441h-3.438zM327.762 249.838h3.438v3.439h-3.438zM327.762 256.373h3.438v3.436h-3.438zM327.762 262.904h3.438v3.439h-3.438zM327.762 269.436h3.438v3.441h-3.438zM327.762 275.973h3.438v3.436h-3.438zM333.604 229.893h3.441v3.438h-3.441zM333.604 236.424h3.441v3.439h-3.441zM333.604 243.303h3.441v3.441h-3.441zM333.604 249.838h3.441v3.439h-3.441zM333.604 256.373h3.441v3.436h-3.441zM333.604 262.904h3.441v3.439h-3.441zM333.604 269.436h3.441v3.441h-3.441zM333.604 275.973h3.441v3.436h-3.441zM339.797 229.893h3.439v3.438h-3.439zM339.797 236.424h3.439v3.439h-3.439zM339.797 243.303h3.439v3.441h-3.439zM339.797 249.838h3.439v3.439h-3.439zM339.797 256.373h3.439v3.436h-3.439zM339.797 262.904h3.439v3.439h-3.439zM339.797 269.436h3.439v3.441h-3.439zM339.797 275.973h3.439v3.436h-3.439z"/></g><path fill="#1D2C36" d="M293.811 218.98h31.59v82.277h-31.59z"/><g fill="#60717B"><path d="M299.631 225.98h4.432v4.43h-4.432zM299.631 234.402h4.432v4.434h-4.432zM299.631 243.271h4.432v4.43h-4.432zM299.631 251.691h4.432v4.436h-4.432zM299.631 260.117h4.432v4.432h-4.432zM299.631 268.545h4.432v4.434h-4.432zM299.631 276.967h4.432v4.436h-4.432zM299.631 285.393h4.432v4.434h-4.432zM307.168 225.98h4.432v4.43h-4.432zM307.168 234.402h4.432v4.434h-4.432zM307.168 243.271h4.432v4.43h-4.432zM307.168 251.691h4.432v4.436h-4.432zM307.168 260.117h4.432v4.432h-4.432zM307.168 268.545h4.432v4.434h-4.432zM307.168 276.967h4.432v4.436h-4.432zM307.168 285.393h4.432v4.434h-4.432zM315.15 225.98h4.432v4.43h-4.432zM315.15 234.402h4.432v4.434h-4.432zM315.15 243.271h4.432v4.43h-4.432zM315.15 251.691h4.432v4.436h-4.432zM315.15 260.117h4.432v4.432h-4.432zM315.15 268.545h4.432v4.434h-4.432zM315.15 276.967h4.432v4.436h-4.432zM315.15 285.393h4.432v4.434h-4.432z"/></g><path fill="#435563" d="M271.965 244.965v15.953h-78.059v45.014h78.059v2.845h24.5v-63.812zM126.092 222.744h24.502v92.873h-24.502z"/><path fill="#1D2C36" d="M23.532 188.848h41.022v105.98H23.532z"/><g fill="#60717B"><path d="M31.149 195.09h5.73v5.729h-5.73zM31.149 205.98h5.73v5.73h-5.73zM31.149 217.439h5.73v5.736h-5.73zM31.149 228.334h5.73v5.729h-5.73zM31.149 239.219h5.73v5.734h-5.73zM31.149 250.111h5.73v5.732h-5.73zM31.149 261.002h5.73v5.73h-5.73zM31.149 271.891h5.73v5.732h-5.73zM40.89 195.09h5.732v5.729H40.89zM40.89 205.98h5.732v5.73H40.89zM40.89 217.439h5.732v5.736H40.89zM40.89 228.334h5.732v5.729H40.89zM40.89 239.219h5.732v5.734H40.89zM40.89 250.111h5.732v5.732H40.89zM40.89 261.002h5.732v5.73H40.89zM40.89 271.891h5.732v5.732H40.89zM51.206 195.09h5.731v5.729h-5.731zM51.206 205.98h5.731v5.73h-5.731zM51.206 217.439h5.731v5.736h-5.731zM51.206 228.334h5.731v5.729h-5.731zM51.206 239.219h5.731v5.734h-5.731zM51.206 250.111h5.731v5.732h-5.731zM51.206 261.002h5.731v5.73h-5.731zM51.206 271.891h5.731v5.732h-5.731z"/></g><path fill="#016687" d="M0 284.232h360v35H0z"/><path fill="#087A9D" d="M0 318.9V360h360v-41.1z"/><use xlink:href="#a" width="93.423" height="359.934" x="-46.712" y="-179.967" transform="matrix(1 0 0 -1 180.8 180.034)" overflow="visible"/><g><path d="M316.535 40.516A4.484 4.484 0 0 0 321.019 45h26.906a4.484 4.484 0 0 0 4.484-4.484V13.61a4.484 4.484 0 0 0-4.484-4.484H321.02a4.484 4.484 0 0 0-4.484 4.484v26.906z"/><path fill="#FFF" d="M340.253 27.738c-.022-2.679 2.194-3.981 2.295-4.043-1.255-1.828-3.201-2.078-3.885-2.098-1.634-.173-3.218.977-4.053.977-.847 0-2.13-.961-3.513-.933-1.777.026-3.441 1.056-4.354 2.653-1.884 3.261-.478 8.05 1.327 10.684.902 1.29 1.955 2.73 3.336 2.678 1.35-.053 1.854-.857 3.484-.857 1.613 0 2.087.857 3.494.827 1.45-.022 2.363-1.296 3.232-2.597 1.045-1.479 1.463-2.937 1.479-3.011-.032-.01-2.812-1.073-2.842-4.28zm-2.658-7.875c.728-.906 1.224-2.141 1.086-3.396-1.051.046-2.364.728-3.122 1.614-.67.783-1.268 2.066-1.115 3.271 1.18.09 2.394-.594 3.151-1.489z"/></g><path fill="#435563" d="M0 244.965h31.149v63.813H0z"/><g><path fill="#ECF0F1" d="M64.627 357.363A2.637 2.637 0 0 0 67.264 360h225.472a2.637 2.637 0 0 0 2.637-2.637v-31.24a2.637 2.637 0 0 0-2.637-2.637H67.264a2.637 2.637 0 0 0-2.637 2.637v31.24z"/><path fill="none" d="M257.086 331.615h19.778v19.778h-19.778z"/><path fill="#1279BF" d="M275.43 343.299c-.054.064-.107.132-.164.196a7.491 7.491 0 0 1-.17.186c-.063.059-.121.118-.184.175-.059.049-.118.101-.186.146-.062.052-.123.096-.188.145a3.505 3.505 0 0 1-.667.344c-.09.028-.175.063-.268.085a2.68 2.68 0 0 1-.271.07c-.093.021-.181.033-.273.046-.041.011-.08.013-.118.016a.975.975 0 0 1-.118.008c-.042.008-.085.008-.124.008h-.121c-.025 0-.054 0-.08-.006-.03-.002-.057-.002-.082-.005a.762.762 0 0 1-.085-.005c-.025-.003-.057-.005-.082-.013a1.855 1.855 0 0 1-.163-.026c-.054-.013-.107-.021-.164-.036-.055-.015-.104-.025-.157-.043a3.335 3.335 0 0 1-.16-.052l.665.983c.018 0 .033.003.049.003.013 0 .028 0 .044.003h.092c.05.002.104.007.157.002l.157-.002c.055-.003.104-.003.157-.008a.969.969 0 0 0 .154-.014c.077-.005.157-.015.234-.025l.232-.041c.077-.019.154-.036.231-.057.074-.021.152-.049.227-.072.077-.023.152-.054.227-.082.069-.034.145-.063.217-.099a4.74 4.74 0 0 0 .213-.11c.072-.039.14-.08.209-.118a3.398 3.398 0 0 0 .335-.232c.057-.038.11-.079.165-.121.051-.046.105-.085.162-.126l.052-1.321-.154.198M270.228 342.279c.008.003.011.005.014.011.002.002.01.002.015.005l.008.005c.119.057.242.113.361.173.115.057.233.116.353.173a3.67 3.67 0 0 0 .718.267c.049.008.092.018.139.023.044.01.088.015.131.018.05.005.093.013.142.016.044.003.091.003.137.005h.132c.044-.002.085-.002.129-.005.041-.003.087-.003.131-.011.041-.002.082-.005.129-.01.064-.011.126-.019.193-.031.062-.01.123-.025.186-.041.066-.019.126-.036.188-.057s.121-.044.181-.067a2.67 2.67 0 0 0 .364-.183c.057-.028.115-.066.172-.103l.17-.116c.044-.033.091-.069.134-.108.044-.03.088-.069.134-.108.042-.038.086-.082.127-.123.046-.039.09-.077.131-.116l.023-1.148a3.959 3.959 0 0 1-.108.173l-.115.162a2.483 2.483 0 0 1-.127.157 1.86 1.86 0 0 1-.131.149c-.047.051-.101.101-.147.149-.054.046-.107.095-.162.139a1.854 1.854 0 0 1-.164.124c-.057.038-.113.077-.173.11-.072.039-.14.077-.214.11-.072.028-.146.063-.222.088a1.86 1.86 0 0 1-.222.072c-.077.021-.151.036-.229.052-.034.002-.063.008-.096.01a.385.385 0 0 1-.095.011c-.028.002-.063.005-.096.005h-.098c-.023 0-.047 0-.075-.003l-.077-.002-.072-.011c-.028-.002-.051-.005-.074-.008a2.111 2.111 0 0 1-.367-.09 4.87 4.87 0 0 1-.183-.06c-.057-.022-.115-.046-.175-.066-.154-.067-.31-.132-.461-.204a14.6 14.6 0 0 1-.451-.227c-.151-.079-.299-.156-.447-.236-.149-.083-.299-.162-.446-.242l.675 1.164c.002.002.005.005.01.005"/><path fill="#F8951D" d="M271.788 345.517c-.502-.105-.968-.384-1.447-.595-.87-.384-1.679-1.021-2.589-1.219a1.714 1.714 0 0 0-.334-.035c-.147 0-.292.015-.438.043a2.386 2.386 0 0 0-.791.297 2.49 2.49 0 0 0-.61.532c-.211.25-.377.56-.534.868l.003-1.391c.077-.211.271-.329.428-.461.238-.193.49-.348.76-.466.272-.124.563-.219.852-.247.067-.006.139-.008.204-.008.244 0 .49.036.726.093.249.057.483.164.723.272.917.402 1.777.981 2.704 1.339.06.023.121.047.183.067l-1.344-2.248c-.843-.376-1.633-.966-2.521-1.159a1.795 1.795 0 0 0-.336-.03 2.557 2.557 0 0 0-1.226.332 2.465 2.465 0 0 0-.614.52c-.212.242-.372.541-.534.84l.007-1.344c.141-.152.271-.319.427-.443.234-.19.488-.348.756-.464.274-.123.563-.208.854-.234.073-.01.148-.01.222-.01.238 0 .475.033.707.082.249.057.485.173.725.278.26.105.515.237.775.368l-3.529-5.91-7.626 12.64h15.178l-1.347-2.251a3.193 3.193 0 0 1-.414-.056"/><g fill="#435563"><path d="M203.883 347.93h-.975c-.66 0-1.181-.193-1.562-.579-.381-.387-.57-.915-.57-1.584v-3.443c0-.672.189-1.2.57-1.586.381-.384.901-.58 1.562-.58h3.229c.102 0 .153.062.153.183v7.407c0 .121-.052.183-.153.183h-.441c-.112 0-.167-.062-.167-.183v-.61h-.061c-.265.526-.791.792-1.585.792zm1.646-2.179v-4.77c0-.09-.052-.137-.152-.137h-2.408c-.467 0-.822.132-1.065.396-.244.263-.366.634-.366 1.11v3.384c0 .477.122.848.366 1.112.243.263.599.395 1.065.395h.99c.488 0 .872-.129 1.151-.387s.419-.626.419-1.103zM208.32 347.93h-.442c-.103 0-.152-.062-.152-.183v-7.407c0-.121.05-.183.152-.183h.442c.111 0 .168.062.168.183v.642h.061c.111-.214.31-.404.593-.571.285-.168.635-.253 1.053-.253h.593c.112 0 .168.057.168.17v.366c0 .11-.056.162-.168.151h-.716c-.498 0-.886.152-1.165.456s-.418.716-.418 1.233v5.213c-.001.121-.057.183-.169.183zM216.201 347.409v.354c0 .11-.056.167-.168.167h-2.194c-.66 0-1.181-.193-1.561-.579-.381-.387-.571-.915-.571-1.584v-3.443c0-.672.19-1.2.571-1.586.38-.384.9-.58 1.561-.58h2.194c.112 0 .168.057.168.17v.366c0 .101-.056.151-.168.151h-2.134c-.466 0-.821.132-1.065.396-.244.263-.366.634-.366 1.11v3.384c0 .477.122.848.366 1.112.244.263.6.395 1.065.395h2.134c.113 0 .168.057.168.167zM217.835 347.93h-.443c-.101 0-.151-.062-.151-.183v-10.346c0-.123.051-.183.151-.183h.443c.11 0 .167.06.167.183v3.549h.061c.285-.527.813-.793 1.585-.793h1.006c.649 0 1.162.196 1.539.58.375.386.563.914.563 1.586v5.424c0 .121-.051.183-.152.183h-.442c-.111 0-.167-.062-.167-.183v-5.396c0-.477-.122-.848-.366-1.11-.244-.265-.6-.396-1.065-.396h-.992c-.486 0-.87.129-1.149.389-.279.258-.419.626-.419 1.103v5.411c-.002.12-.059.182-.169.182zM224.177 338.88v-1.463c0-.113.05-.167.151-.167h.457c.103 0 .152.054.152.167v1.463c0 .121-.05.183-.152.183h-.457c-.101 0-.151-.062-.151-.183zm0 8.867v-7.407c0-.121.05-.183.151-.183h.442c.111 0 .167.062.167.183v7.407c0 .121-.05.183-.152.183h-.457c-.101 0-.151-.062-.151-.183zM227.051 340.845h-.929c-.112 0-.167-.051-.167-.151v-.366c0-.113.055-.17.167-.17h.929c.091 0 .138-.044.138-.137v-1.233c0-.121.056-.183.167-.183h.442c.111 0 .168.062.168.183v1.233c0 .093.045.137.137.137h1.813c.111 0 .167.057.167.17v.366c0 .101-.056.151-.167.151h-1.813c-.092 0-.137.047-.137.137v4.798c0 .469.132.829.396 1.084.264.253.635.379 1.112.379h.594c.112 0 .169.057.169.167v.354c0 .11-.057.167-.169.167h-.655c-.67 0-1.208-.188-1.614-.564s-.609-.894-.609-1.555v-4.829c-.002-.091-.048-.138-.139-.138zM236.405 347.93h-3.185c-.66 0-1.181-.193-1.561-.579-.381-.387-.571-.915-.571-1.584v-3.443c0-.672.19-1.2.571-1.586.38-.384.9-.58 1.561-.58h1.312c.66 0 1.183.196 1.569.58.385.386.578.914.578 1.586v1.934c0 .121-.061.184-.183.184h-4.51c-.091 0-.138.046-.138.136v1.175c0 .477.122.845.365 1.104.245.258.601.387 1.066.387h3.124c.112 0 .167.057.167.167v.354c.002.108-.052.165-.165.165zm-4.418-4.1h3.794c.091 0 .138-.047.138-.137v-1.357c0-.477-.123-.845-.366-1.103-.244-.26-.6-.389-1.066-.389h-1.205c-.466 0-.821.129-1.066.389-.243.258-.365.626-.365 1.103v1.357c-.001.09.045.137.136.137zM242.335 347.409v.354c0 .11-.056.167-.167.167h-2.194c-.661 0-1.181-.193-1.563-.579-.381-.387-.57-.915-.57-1.584v-3.443c0-.672.189-1.2.57-1.586.382-.384.901-.58 1.563-.58h2.194c.111 0 .167.057.167.17v.366c0 .101-.056.151-.167.151h-2.134c-.468 0-.823.132-1.066.396-.243.263-.366.634-.366 1.11v3.384c0 .477.123.848.366 1.112.243.263.599.395 1.066.395h2.134c.111 0 .167.057.167.167zM244.091 340.845h-.928c-.112 0-.168-.051-.168-.151v-.366c0-.113.056-.17.168-.17h.928c.092 0 .139-.044.139-.137v-1.233c0-.121.055-.183.167-.183h.441c.112 0 .168.062.168.183v1.233c0 .093.046.137.138.137h1.813c.112 0 .168.057.168.17v.366c0 .101-.056.151-.168.151h-1.813c-.092 0-.138.047-.138.137v4.798c0 .469.132.829.396 1.084.264.253.635.379 1.112.379h.594c.112 0 .167.057.167.167v.354c0 .11-.055.167-.167.167h-.655c-.67 0-1.209-.188-1.615-.564s-.608-.894-.608-1.555v-4.829c-.001-.091-.047-.138-.139-.138zM251.043 347.93h-2.651c-.111 0-.167-.057-.167-.167v-.354c0-.101.056-.151.167-.151h2.576c.914 0 1.369-.355 1.369-1.066v-.366c0-.659-.283-1.092-.852-1.295l-1.905-.731c-.518-.201-.886-.44-1.104-.716-.218-.273-.327-.654-.327-1.141 0-1.19.654-1.785 1.965-1.785h2.469c.112 0 .167.057.167.17v.351c0 .101-.055.151-.167.151h-2.393c-.416 0-.729.091-.936.273-.209.183-.313.396-.313.642v.35c0 .283.079.508.237.67.157.162.397.299.724.412l1.904.762c.528.173.881.428 1.059.768.178.343.267.816.267 1.427 0 .608-.17 1.062-.51 1.354-.343.292-.868.442-1.579.442z"/></g><g fill="#263A48"><path d="M86.568 334.038l.502 1.211-1.21.486c-.844.358-1.299.977-1.372 1.854.035.286.103.569.206.85l2.13 4.939c.187.404.279.857.279 1.354 0 .686-.212 1.301-.641 1.852a3.488 3.488 0 0 1-1.598 1.164l-1.141.433-.521-1.249 1.167-.396c.426-.139.764-.37 1.012-.7.249-.327.374-.695.374-1.103 0-.319-.058-.62-.174-.901l-2.133-4.891a4.488 4.488 0 0 1-.313-1.352 3.268 3.268 0 0 1 .615-1.852c.394-.551.934-.963 1.62-1.233l1.198-.466zM93.42 342.46l-2.341 2.374-.935-.917 1.854-1.856-.068-.173c-.243-.494-.58-.744-1.008-.744-.507 0-.868.271-1.082.809-.215.538-.323 1.164-.323 1.88 0 .706.107 1.332.318 1.88.211.549.564.824 1.055.824.157 0 .318-.044.484-.129a.948.948 0 0 0 .382-.357l.103-.157 1.196.678-.208.296c-.581.821-1.245 1.23-1.992 1.23-.628 0-1.14-.211-1.535-.636-.396-.425-.682-.969-.856-1.625a7.79 7.79 0 0 1-.264-2.04 8.33 8.33 0 0 1 .271-2.019c.167-.61.446-1.12.837-1.522.391-.401.905-.615 1.547-.633.451 0 .849.113 1.195.345.345.229.627.533.843.909.218.376.37.783.455 1.221l.072.362zM98.151 347.072c-.113.229-.297.44-.555.631-.256.19-.581.288-.973.288-.849-.016-1.435-.425-1.754-1.23-.321-.809-.48-1.785-.48-2.929 0-1.146.171-2.13.513-2.951s.938-1.254 1.793-1.298c.444 0 .836.162 1.177.484l.279.224v-6.963h1.214v14.491h-1.214v-.747zm-1.216-.536c.531 0 .883-.186 1.056-.556.174-.368.261-.907.261-1.612v-.642a94.976 94.976 0 0 0-.032-.847 3.75 3.75 0 0 0-.138-.93 1.23 1.23 0 0 0-.394-.608c-.184-.154-.448-.231-.787-.231-.854.057-1.281.927-1.281 2.616.013 1.054.131 1.77.353 2.146.222.379.543.6.962.664zM104.598 348.699v-1.352c-.408.474-.846.711-1.313.711-1.697 0-2.57-1.381-2.618-4.142 0-.713.076-1.393.229-2.042.152-.648.416-1.189.793-1.628.376-.435.873-.669 1.49-.697.484 0 .865.195 1.142.587l.243.296v-.604h1.216v8.841c0 .559-.045 1.048-.135 1.465a2.42 2.42 0 0 1-.505 1.066 1.73 1.73 0 0 1-.738.494 2.94 2.94 0 0 1-1.048.178c-.841 0-1.476-.249-1.908-.749l.61-1.679c.016.353.142.648.376.888.237.24.549.358.938.358.523-.047.859-.255 1.008-.621.146-.365.22-.824.22-1.37zm-2.699-4.851c.009.873.115 1.54.321 2.001.206.464.572.703 1.1.722.511 0 .859-.199 1.041-.596s.273-.979.273-1.746v-.433c-.006-.198-.017-.489-.031-.867a4.129 4.129 0 0 0-.135-.948 1.264 1.264 0 0 0-.394-.618c-.187-.159-.45-.244-.788-.252-.496 0-.853.244-1.066.739-.216.491-.333 1.094-.353 1.808a.458.458 0 0 1 .032.19zM112.238 342.46l-2.341 2.374-.935-.917 1.854-1.856-.067-.173c-.243-.494-.579-.744-1.008-.744-.507 0-.868.271-1.084.809-.214.538-.321 1.164-.321 1.88 0 .706.106 1.332.318 1.88.21.549.561.824 1.052.824.158 0 .321-.044.485-.129a.957.957 0 0 0 .383-.357l.102-.157 1.199.678-.208.296c-.58.821-1.245 1.23-1.993 1.23-.626 0-1.137-.211-1.534-.636s-.683-.969-.856-1.625a7.875 7.875 0 0 1-.263-2.04 8.185 8.185 0 0 1 .271-2.019c.166-.61.444-1.12.835-1.522.391-.401.907-.615 1.547-.633.452 0 .851.113 1.196.345.345.229.627.533.845.909.216.376.367.783.452 1.221l.071.362zM115.745 348.287l-1.126-.504-1.854-7.955 1.109-.278 1.388 6.778 1.804-6.534h.034l1.786 6.5 1.455-6.744 1.162.278-2.096 8.459-1.129-.504-1.177-4.731-1.356 5.235zM124.029 335.803l-.693 1.998-.793-1.998h1.486zm-1.402 12.016v-8.025h1.333v8.025h-1.333zM128.789 346.294l.47 1.35c-.301.302-.684.453-1.146.453-.642 0-1.159-.208-1.556-.623-.396-.412-.677-.942-.845-1.581a8.191 8.191 0 0 1-.25-2.061c0-.718.086-1.388.256-2.011.171-.623.457-1.139.859-1.543.403-.404.925-.613 1.567-.623.456 0 .827.137 1.114.412l-.47 1.318a4.393 4.393 0 0 0-.282-.181.981.981 0 0 0-.322-.062c-.492 0-.842.268-1.055.807-.211.538-.322 1.164-.334 1.882 0 .729.098 1.362.291 1.898.193.535.536.806 1.026.806.12 0 .216-.01.284-.03a.74.74 0 0 0 .194-.088c.062-.04.128-.079.199-.123zM130.349 347.783v-14.455h1.316v14.455h-1.316zm4.036.314l-2.547-4.978 1.696-3.654 1.249.569-1.562 3.085 2.378 4.267-1.214.711zM144.25 340.639l2.375 4.579 1.091-1.265.833.814-1.387 1.526.813 1.525-.953.603-.64-1.316c-.713.613-1.556.919-2.53.919-.981-.018-1.741-.353-2.278-1.001-.539-.654-.806-1.468-.806-2.447 0-.115.01-.288.032-.52.062-.588.194-1.11.395-1.566.204-.458.434-.85.693-1.177.26-.327.563-.656.907-.981a48.165 48.165 0 0 1-.654-1.243 5.733 5.733 0 0 1-.332-.86 4.827 4.827 0 0 1-.196-1.139c0-.489.108-.955.326-1.396.214-.443.514-.801.896-1.074a2.145 2.145 0 0 1 1.276-.409c.849.019 1.499.271 1.947.76.449.489.673 1.139.673 1.944-.01.407-.09.783-.239 1.131a3.98 3.98 0 0 1-.573.942c-.233.28-.487.551-.765.812-.279.257-.578.538-.904.839zm-.901.786a3.92 3.92 0 0 0-.734.896 4.227 4.227 0 0 0-.43 1.002 9.641 9.641 0 0 0-.258 1.221c.009.659.191 1.218.546 1.672.354.458.838.685 1.447.685.724 0 1.366-.25 1.925-.744l-2.496-4.732zm-.554-4.51c0 .438.076.855.228 1.252.152.396.383.867.69 1.416l.466-.399c.868-.739 1.303-1.529 1.303-2.374 0-.296-.057-.551-.171-.771a1.247 1.247 0 0 0-.477-.504 1.324 1.324 0 0 0-.69-.181c-.398 0-.722.146-.972.436-.252.291-.377.667-.377 1.125zM155.659 342.46v5.323h-1.315v-5.323h-1.075l.47-1.35h.605v-6.657h3.724l.47 1.35h-2.916v5.308h2.272v1.35h-2.235zM164.305 342.46l-2.342 2.374-.936-.917 1.854-1.856-.066-.173c-.244-.494-.58-.744-1.009-.744-.507 0-.869.271-1.083.809-.215.538-.321 1.164-.321 1.88 0 .706.104 1.332.316 1.88.211.549.563.824 1.054.824.158 0 .32-.044.485-.129a.936.936 0 0 0 .382-.357l.104-.157 1.197.678-.209.296c-.579.821-1.243 1.23-1.993 1.23-.625 0-1.137-.211-1.532-.636-.397-.425-.684-.969-.858-1.625a7.918 7.918 0 0 1-.262-2.04 8.282 8.282 0 0 1 .27-2.019c.167-.61.445-1.12.837-1.522.392-.401.906-.615 1.546-.633.452 0 .852.113 1.196.345.346.229.627.533.844.909.218.376.368.783.453 1.221l.073.362zM166.668 341.038c.22-.407.457-.734.711-.979.253-.25.57-.371.952-.371h.206l-.452 1.316c-.268.057-.446.098-.534.123-.087.028-.191.101-.313.222-.161.149-.295.425-.404.819a5.149 5.149 0 0 0-.166 1.383v4.231h-1.181v-7.989h1.181v1.245zM172.262 348.287l-1.127-.504-1.854-7.955 1.109-.278 1.388 6.778 1.803-6.534h.033l1.786 6.5 1.456-6.744 1.159.278-2.094 8.459-1.131-.504-1.177-4.731-1.351 5.235zM183.742 342.46l-2.341 2.374-.936-.917 1.854-1.856-.067-.173c-.243-.494-.579-.744-1.007-.744-.509 0-.869.271-1.083.809-.215.538-.323 1.164-.323 1.88 0 .706.107 1.332.318 1.88.211.549.563.824 1.053.824.16 0 .321-.044.484-.129a.947.947 0 0 0 .384-.357l.104-.157 1.196.678-.206.296c-.582.821-1.247 1.23-1.994 1.23-.628 0-1.138-.211-1.534-.636s-.683-.969-.856-1.625a7.79 7.79 0 0 1-.264-2.04 8.379 8.379 0 0 1 .271-2.019c.166-.61.445-1.12.836-1.522.391-.401.906-.615 1.547-.633.451 0 .849.113 1.194.345.346.229.628.533.845.909.218.376.369.783.453 1.221l.072.362zM188.473 347.072c-.113.229-.298.44-.555.631s-.581.288-.974.288c-.849-.016-1.434-.425-1.753-1.23-.321-.809-.479-1.785-.479-2.929 0-1.146.17-2.13.511-2.951s.938-1.254 1.794-1.298c.444 0 .835.162 1.177.484l.279.224v-6.963h1.214v14.491h-1.214v-.747zm-1.216-.536c.531 0 .884-.186 1.058-.556.173-.368.26-.907.26-1.612v-.642a94.976 94.976 0 0 0-.032-.847 3.704 3.704 0 0 0-.138-.93 1.217 1.217 0 0 0-.394-.608c-.185-.154-.448-.231-.787-.231-.854.057-1.281.927-1.281 2.616.013 1.054.132 1.77.353 2.146.221.379.542.6.961.664zM194.734 347.105c-.396.613-.893.919-1.489.919a1.673 1.673 0 0 1-1.291-.636c-.33-.404-.566-.911-.712-1.517a9.047 9.047 0 0 1-.236-1.919c0-.741.083-1.444.249-2.109.168-.664.424-1.207.771-1.627.348-.42.776-.642 1.286-.667.488 0 .894.183 1.215.551l.275.296v-.603h1.181v8.059h-1.248v-.747zm-1.215-.569h.035c.515 0 .859-.165 1.029-.494.171-.33.257-.829.257-1.502v-.713c-.006-.203-.017-.502-.032-.889a4.37 4.37 0 0 0-.134-.979 1.327 1.327 0 0 0-.397-.642c-.188-.164-.452-.247-.791-.247-.421.031-.739.338-.957.914a5.362 5.362 0 0 0-.324 1.894c.038 1.772.477 2.658 1.314 2.658z"/></g></g></svg>