<svg xmlns="http://www.w3.org/2000/svg" width="360" height="360" viewBox="0 0 360 360"><path fill="#9cc7d3" d="M0 0h360v300H0z"/><path d="M249.326 68.097a11.471 11.471 0 0 1-1.006-4.663c0-6.05 4.912-10.962 10.957-10.962h.381c2.896-10.83 12.725-18.896 24.443-18.896 8.184 0 15.493 3.906 20.156 9.951 2.773-1.509 5.923-2.266 9.321-2.266 11.089 0 20.029 8.945 20.029 20.029 0 1.641-.249 3.403-.625 4.917 10.073 1.89 17.764 10.708 17.764 21.289 0 11.968-9.702 21.543-21.543 21.543h-70.557c-11.963 0-21.543-9.702-21.543-21.543.001-8.564 4.918-16.001 12.223-19.399z" fill="#b6d6e0"/><path fill="#324a5e" d="M0 295.202V360h360v-64.798z"/><g fill="#2ecc71"><path d="M137.814 336.865l2.914-18.607 6.757 14.881 6.912-14.881 2.733 18.607h-2.012l-1.65-12.25-5.996 12.986-5.919-12.986-1.728 12.25h-2.011zM167.395 325.891h1.883v10.975h-1.883v-1.521c-1.022 1.229-2.282 1.844-3.778 1.844-1.634 0-2.962-.623-3.984-1.869-.868-1.059-1.303-2.377-1.303-3.959 0-1.84.581-3.297 1.741-4.371.989-.902 2.157-1.355 3.508-1.355 1.504 0 2.776.607 3.816 1.82v-1.564zm-3.534 1.445c-1.066 0-1.951.408-2.656 1.227-.637.738-.954 1.654-.954 2.744 0 1.316.383 2.365 1.147 3.146a3.291 3.291 0 0 0 2.45 1.031c1.178 0 2.123-.453 2.836-1.365.56-.713.839-1.629.839-2.746 0-1.316-.382-2.326-1.147-3.031a3.676 3.676 0 0 0-2.515-1.006zM179.806 326.691v2.475c-.602-.67-1.159-1.141-1.67-1.41-.512-.271-1.107-.406-1.786-.406-1.169 0-2.123.434-2.862 1.301-.671.775-1.006 1.699-1.006 2.773 0 1.125.361 2.084 1.083 2.875.722.783 1.643 1.174 2.76 1.174.696 0 1.311-.145 1.844-.432.532-.289 1.101-.783 1.702-1.49v2.488c-1.17.766-2.33 1.148-3.481 1.148-1.875 0-3.374-.684-4.501-2.051a5.636 5.636 0 0 1-1.328-3.688c0-1.65.589-3.057 1.767-4.215 1.075-1.059 2.433-1.588 4.075-1.588 1.202.001 2.336.349 3.403 1.046zM181.338 317.602h1.882v9.58c.474-.551.95-.943 1.432-1.182.482-.234 1.053-.354 1.716-.354.653 0 1.261.135 1.824.406s.999.635 1.309 1.09c.431.627.646 1.604.646 2.928v6.795h-1.883v-6.666c0-.877-.121-1.527-.361-1.947-.353-.604-.989-.902-1.908-.902-1.135 0-1.913.434-2.334 1.301-.293.602-.439 1.514-.439 2.734v5.48h-1.882v-19.263zM192.965 320.424c.369 0 .686.131.947.395.263.262.394.578.394.947 0 .377-.131.697-.394.961a1.307 1.307 0 0 1-.961.393c-.369 0-.685-.133-.947-.4a1.327 1.327 0 0 1-.394-.967c0-.361.132-.67.394-.928a1.37 1.37 0 0 1 .961-.401zm.928 5.467v10.975h-1.882v-10.975h1.882zM195.837 325.891h1.883v1.328c.473-.584.945-.994 1.419-1.23.473-.236 1.049-.355 1.728-.355a4.21 4.21 0 0 1 1.838.406c.563.271.995.641 1.296 1.104.412.627.618 1.6.618 2.914v6.809h-1.882v-6.486c0-1.021-.12-1.73-.36-2.127-.371-.611-1.016-.916-1.935-.916-.955 0-1.646.32-2.077.961-.43.641-.645 1.67-.645 3.088v5.48h-1.883v-10.976zM216.438 331.773h-8.549c.034.746.189 1.379.465 1.895a3.41 3.41 0 0 0 1.264 1.34c.532.32 1.117.477 1.754.477.73 0 1.345-.168 1.844-.508.498-.34 1.01-.939 1.534-1.799l1.586.891c-.438.764-.89 1.354-1.354 1.766-1.014.902-2.238 1.354-3.675 1.354-1.753 0-3.146-.635-4.177-1.908-.817-1.014-1.226-2.291-1.226-3.83 0-1.779.52-3.207 1.561-4.281.979-1.014 2.23-1.521 3.752-1.521 1.573 0 2.837.529 3.791 1.588.954 1.055 1.431 2.457 1.431 4.203l-.001.333zm-1.984-1.587c-.121-.609-.332-1.123-.633-1.535-.645-.867-1.504-1.301-2.578-1.301-.801 0-1.503.266-2.109.799-.605.533-.981 1.211-1.128 2.037h6.448zM228.06 321.094v15.771h-1.973v-15.771h-4.255v-1.83h10.509v1.83h-4.281zM236.696 325.646c1.728 0 3.164.627 4.307 1.883.988 1.084 1.482 2.377 1.482 3.881 0 1.754-.641 3.199-1.921 4.332-1.083.965-2.386 1.445-3.907 1.445a5.726 5.726 0 0 1-2.94-.799 5.586 5.586 0 0 1-2.14-2.256c-.447-.844-.671-1.781-.671-2.813 0-1.6.603-2.969 1.806-4.113 1.074-1.013 2.402-1.534 3.984-1.56zm-.012 1.704c-1.256 0-2.253.471-2.992 1.418-.576.74-.863 1.604-.863 2.592 0 1.264.382 2.277 1.147 3.043.73.723 1.62 1.082 2.669 1.082 1.281 0 2.304-.471 3.069-1.416.567-.707.851-1.588.851-2.645 0-1.238-.387-2.236-1.161-2.992-.714-.705-1.621-1.065-2.72-1.082zM248.856 325.646c1.729 0 3.164.627 4.308 1.883.989 1.084 1.482 2.377 1.482 3.881 0 1.754-.641 3.199-1.921 4.332-1.084.965-2.386 1.445-3.907 1.445a5.72 5.72 0 0 1-2.939-.799 5.582 5.582 0 0 1-2.141-2.256c-.448-.844-.671-1.781-.671-2.813 0-1.6.602-2.969 1.805-4.113 1.075-1.013 2.403-1.534 3.984-1.56zm-.011 1.704c-1.256 0-2.253.471-2.992 1.418-.576.74-.863 1.604-.863 2.592 0 1.264.382 2.277 1.147 3.043.73.723 1.62 1.082 2.669 1.082 1.281 0 2.304-.471 3.069-1.416.567-.707.851-1.588.851-2.645 0-1.238-.387-2.236-1.161-2.992-.713-.705-1.621-1.065-2.72-1.082zM257.833 317.602v19.264h-1.883v-19.264h1.883zM265.76 327.633l-1.561.813c-.387-.73-.894-1.096-1.521-1.096-.36 0-.671.117-.929.354s-.387.527-.387.871c0 .316.12.584.361.801.24.213.709.467 1.405.758.989.414 1.685.766 2.089 1.059.8.584 1.199 1.389 1.199 2.41 0 1.076-.391 1.957-1.174 2.645-.713.629-1.572.941-2.578.941-.902 0-1.677-.234-2.321-.703s-1.147-1.166-1.509-2.094l1.65-.697c.327.68.649 1.148.968 1.406.317.258.73.385 1.237.385.524 0 .956-.162 1.296-.488s.51-.738.51-1.238c0-.422-.12-.758-.361-1.012-.24-.254-.713-.531-1.419-.832-1.005-.43-1.736-.809-2.191-1.135-.645-.475-.968-1.162-.968-2.063 0-.947.345-1.707 1.032-2.283a3.277 3.277 0 0 1 2.166-.787c1.325-.002 2.326.661 3.006 1.985z"/></g><path fill="#2ecc71" d="M133.583 311.904v-4.302h-40v40h40v-35.698z"/><g fill="#fff"><path d="M109.341 338.133l.168-.75c.457-.039.816-.172 1.075-.396.26-.223.442-.533.55-.93.106-.396.159-.92.159-1.572 0-.395-.015-.826-.046-1.295l-.106-1.967h-6.71l-.84 1.494c-.396.703-.686 1.305-.869 1.807-.182.504-.274.949-.274 1.336 0 .852.514 1.361 1.541 1.523l-.168.75h-6.237l.168-.75c.314-.039.612-.164.892-.373s.577-.525.892-.945c.315-.422.758-1.119 1.327-2.096l9.776-16.898h2.303l1.099 17.004c.051.803.142 1.432.274 1.885.132.451.313.787.54 1.006.229.219.562.357.999.418l-.168.75h-6.345zm-4.225-8.237h5.963l-.258-4.912a98.59 98.59 0 0 1-.077-2.516c-.021-1.008-.03-1.734-.03-2.182h-.168l-5.43 9.61z"/><path d="M129.583 319.91l-.922 4.1h-1.281c-.027-.643-.075-1.143-.146-1.502-.072-.359-.151-.627-.24-.801a1.064 1.064 0 0 0-.308-.387 1.047 1.047 0 0 0-.433-.18 3.787 3.787 0 0 0-.741-.055h-4.352l-1.521 6.994h2.55c.391 0 .718-.055.98-.158.262-.109.505-.293.728-.555.222-.264.472-.666.747-1.209h1.215l-1.201 5.125h-1.135c0-.488-.018-.848-.053-1.08a1.791 1.791 0 0 0-.141-.516.73.73 0 0 0-.22-.258.902.902 0 0 0-.348-.135 4.277 4.277 0 0 0-.708-.041h-2.67l-1.707 7.703h3.95c.392 0 .723-.029.995-.088.271-.057.519-.158.74-.299.222-.143.436-.328.641-.555s.416-.518.635-.875c.218-.355.514-.898.887-1.629h1.296l-1.175 4.621h-11.84l.147-.656c.337-.055.591-.141.76-.26s.312-.287.428-.5c.114-.215.222-.475.32-.781.098-.307.244-.9.44-1.781l2.27-10.279c.194-.891.293-1.605.293-2.148 0-.418-.107-.711-.32-.875-.214-.164-.543-.26-.988-.287l.147-.654h12.281z"/></g><path d="M103.945 276.495v-2.431a.873.873 0 0 0-.597-.828l-7.855-2.618a.873.873 0 0 0-1.148.828v5.049h9.6z" fill="#3a6f81"/><path d="M44.746 298.895h-22.4a1.601 1.601 0 0 1-1.601-1.6v-3.2h24v4.8z" fill="#8d8a94"/><path d="M59.235 295.694H19.146a1.6 1.6 0 0 1-1.6-1.6v-3.2h52.799l-8.248 4.125a6.406 6.406 0 0 1-2.862.675z" fill="#a7a5ac"/><circle cx="41.546" cy="297.295" r="4.8" fill="#504b5a"/><circle cx="41.546" cy="297.294" r="2.4" fill="#dcdbde"/><circle cx="31.947" cy="297.295" r="4.8" fill="#504b5a"/><circle cx="31.947" cy="297.294" r="2.4" fill="#dcdbde"/><path fill="#b9b7bd" d="M75.146 292.495h35.199v6.399H75.146z"/><circle cx="84.746" cy="297.295" r="4.8" fill="#504b5a"/><circle cx="84.746" cy="297.294" r="2.4" fill="#dcdbde"/><circle cx="75.146" cy="297.295" r="4.8" fill="#504b5a"/><circle cx="75.146" cy="297.294" r="2.4" fill="#dcdbde"/><path d="M110.345 295.694h-8v-3.199h-8v-17.601h12.987a1.6 1.6 0 0 1 1.588 1.401l1.116 8.928a39.95 39.95 0 0 1 .309 4.961v5.51z" fill="#3a6f81"/><path fill="#8eadb7" d="M102.345 292.495h8v3.199h-8z"/><circle cx="102.345" cy="297.295" r="4.8" fill="#504b5a"/><circle cx="102.345" cy="297.294" r="2.4" fill="#dcdbde"/><g fill="#8eadb7"><path d="M102.345 278.095h-4a.8.8 0 0 0-.8.8v4.638c0 .563.391 1.05.939 1.171l3.86.858v-7.467z"/><path d="M110.037 285.224l-.892-7.129h-10.8a.8.8 0 0 0-.8.8v4.638c0 .563.391 1.05.939 1.171l11.747 2.61a39.473 39.473 0 0 0-.194-2.09z"/></g><path d="M102.345 285.562l7.887 1.752a40.77 40.77 0 0 0-.195-2.09l-.892-7.129h-6.8v7.467z" opacity=".45" fill="#2b2b2b"/><path d="M17.546 270.095h73.6c.883 0 1.6.717 1.6 1.601v19.199c0 .884-.717 1.601-1.6 1.601h-73.6a1.6 1.6 0 0 1-1.6-1.601v-19.199a1.602 1.602 0 0 1 1.6-1.601z" fill="#3a6f81"/><path d="M87.945 289.295H20.746a1.6 1.6 0 0 1 0-3.201h67.199a1.601 1.601 0 0 1 0 3.201z" fill="#2ecc71"/><g><g fill="#ccc"><path d="M215.539 147.485h-25.821l1.41-26.558 1.058-19.928 1.488-27.906.78-14.613H210.8l.779 14.613 1.488 27.906 1.058 19.928zM250.134 147.485h-25.822l1.414-26.558 1.058-19.928 1.484-27.906.783-14.613h16.347l.78 14.613 1.484 27.906 1.062 19.928z"/></g><path fill="#b3b3b3" d="M201.276 58.48v89.005h-11.558l4.736-89.005z"/><path fill="#727fa5" d="M246.178 73.093h-17.91l.783-14.613h16.347zM211.579 73.093h-17.905l.78-14.613H210.8z"/><path fill="#394c81" d="M201.276 58.48v14.613h-7.602l.78-14.613z"/><path fill="#ccc" d="M149.411 180.899h193.505v114.303H149.411z"/><path fill="#e6e6e6" d="M167.973 147.485H271.88v33.414H167.973z"/><g fill="#666"><path d="M213.103 194.228h8.227v22.355h-8.227zM226.914 194.228h8.227v22.355h-8.227zM240.723 194.228h8.23v22.355h-8.23zM254.535 194.228h8.226v22.355h-8.226zM268.342 194.228h8.23v22.355h-8.23zM282.154 194.228h8.229v22.355h-8.229zM295.966 194.228h8.227v22.355h-8.227zM309.774 194.228h8.23v22.355h-8.23zM323.586 194.228h8.227v22.355h-8.227z"/></g><path fill="#e6e6e6" d="M265.201 226.175H360v69.027h-94.799z"/><path fill="#666" d="M318.35 255.209h29.986v39.993H318.35z"/><path fill="#4d4d4d" d="M318.35 255.209h23.432v39.993H318.35z"/><path fill="#b3b3b3" d="M213.103 226.175h52.098v69.027h-52.098z"/><path fill="#64c0ae" d="M248.724 120.927h-22.998l1.058-19.928h20.878zM214.125 120.927h-22.997l1.058-19.928h20.881z"/><path fill="#16a085" d="M201.276 100.999v19.928h-10.148l1.064-19.928z"/><path fill="#b3b3b3" d="M235.871 58.48v89.005h-11.559l4.739-89.005z"/><path fill="#394c81" d="M235.871 58.48v14.613h-7.603l.783-14.613z"/><path fill="#16a085" d="M235.871 100.999v19.928h-10.145l1.065-19.928z"/><g fill="#666"><path d="M175.797 158.508h7.973V180.9h-7.973zM189.178 158.508h7.973V180.9h-7.973zM202.56 158.508h7.973V180.9h-7.973zM215.941 158.508h7.969V180.9h-7.969zM229.319 158.508h7.973V180.9h-7.973zM242.701 158.508h7.973V180.9h-7.973zM256.083 158.508h7.973V180.9h-7.973z"/></g><g fill="#666"><path d="M271.604 237.648h6.262v6.27h-6.262zM282.422 237.648h6.263v6.27h-6.263zM293.24 237.648h6.262v6.27h-6.262zM304.059 237.648h6.262v6.27h-6.262zM314.876 237.648h6.262v6.27h-6.262zM325.694 237.648h6.263v6.27h-6.263zM336.513 237.648h6.266v6.27h-6.266zM347.33 237.648h6.267v6.27h-6.267z"/></g><g fill="#666"><path d="M219.792 237.648h6.263v6.27h-6.263zM230.61 237.648h6.266v6.27h-6.266zM241.428 237.648h6.266v6.27h-6.266zM252.246 237.648h6.266v6.27h-6.266z"/></g><g fill="#666"><path d="M219.792 254.447h6.263v6.262h-6.263zM230.61 254.447h6.266v6.262h-6.266zM241.428 254.447h6.266v6.262h-6.266zM252.246 254.447h6.266v6.262h-6.266z"/></g><g fill="#666"><path d="M219.792 271.245h6.263v6.263h-6.263zM230.61 271.245h6.266v6.263h-6.266zM241.428 271.245h6.266v6.263h-6.266zM252.246 271.245h6.266v6.263h-6.266z"/></g><path fill="#666" d="M299.08 276.154h11.325v19.048H299.08z"/><path fill="#b3b3b3" d="M149.411 180.899h52.867v114.303h-52.867z"/><g fill="#666"><path d="M155.772 194.228h6.336v55.382h-6.336zM167.042 194.228h6.336v55.382h-6.336zM178.311 194.228h6.337v55.382h-6.337zM189.58 194.228h6.337v55.382h-6.337z"/></g><path fill="#666" d="M181.84 276.154h11.326v19.048H181.84z"/><path fill="#64c0ae" d="M318.35 277.881h22.169v12.567H318.35z"/><path fill="#16a085" d="M332.387 277.881h12.24l-3.107 12.567h-12.239z"/><circle cx="326.656" cy="292.825" r="2.377" fill="gray"/><path d="M336.463 290.448a2.375 2.375 0 0 1 2.377 2.377 2.378 2.378 0 1 1-2.377-2.377z" fill="gray"/><circle cx="325.424" cy="292.825" r="2.377" fill="#666"/><path d="M335.229 290.448a2.378 2.378 0 1 1 .006 4.756 2.378 2.378 0 0 1-.006-4.756z" fill="#666"/><path d="M329.443 293.79h5.943a.813.813 0 0 0 .813-.811.81.81 0 0 0-.813-.811h-5.943a.809.809 0 0 0-.812.811.813.813 0 0 0 .812.811z" fill="gray"/></g><path d="M346.192 107.02a7.218 7.218 0 0 0 .633-2.933 6.898 6.898 0 0 0-6.892-6.896h-.24c-1.82-6.812-8.003-11.885-15.374-11.885-5.146 0-9.744 2.457-12.677 6.259-1.745-.949-3.726-1.425-5.863-1.425a12.578 12.578 0 0 0-12.598 12.598c0 1.032.156 2.141.394 3.093-6.336 1.188-11.173 6.734-11.173 13.39 0 7.527 6.103 13.55 13.55 13.55h44.377c7.524 0 13.55-6.103 13.55-13.55-.001-5.387-3.093-10.064-7.687-12.201z" fill="#e1f0f5"/><g><g fill="#ffd05b"><path d="M67.75 50.387l-4.604-17.463-4.604 17.463zM58.542 91.554l4.604 17.46 4.604-17.46zM83.681 75.623l17.464-4.701-17.464-4.605zM42.611 66.317l-17.463 4.605 17.463 4.701zM80.993 59.695l9.017-15.637-15.637 9.111zM45.3 82.241l-9.018 15.642 15.637-9.115zM74.373 88.768l15.637 9.115-9.017-15.642zM51.919 53.169l-15.637-9.111L45.3 59.695z"/><path d="M83.871 67.661l21.587-13.913-25.042 5.37zM42.421 74.856L20.833 88.865l25.043-5.47zM66.694 92.029l14.012 21.592-5.373-25.139zM59.598 50.483L45.586 28.988l5.374 25.047zM80.416 83.395l28.017 6.619-24.562-15.158zM45.876 59.118l-28.017-6.619 24.562 15.162zM50.96 88.482l-6.62 28.114 15.258-24.567zM75.333 54.035l6.619-28.017-15.258 24.465z"/></g><circle cx="63.146" cy="71.305" r="25.139" fill="#f9b54c"/><path d="M49.625 57.46c1.614-1.614 3.647-2.19 4.548-1.291.896.9.324 2.935-1.291 4.548-1.61 1.606-3.644 2.188-4.544 1.287-.9-.9-.323-2.934 1.287-4.544z" fill="#fff"/></g><path d="M113.289 89.229h-.24c-1.82-6.812-8.004-11.885-15.375-11.885-5.146 0-9.744 2.457-12.676 6.259-1.746-.949-3.727-1.425-5.863-1.425a12.578 12.578 0 0 0-12.598 12.598c0 .28.014.565.035.853h-.035a10.875 10.875 0 0 0 8.997 4.761h35.626c3.754 0 7.041-1.894 8.994-4.761-.255-3.574-3.231-6.4-6.865-6.4z" fill="#e1f0f5"/><path d="M120.66 101.449a4.034 4.034 0 0 0-.873-.873c.023-.31.054-.621.054-.925 0-6.709-4.663-12.123-10.445-12.123-1.772 0-3.415.458-4.861 1.371-2.432-3.658-6.244-6.022-10.512-6.022-6.111 0-11.237 4.883-12.747 11.438h-.198c-3.005 0-5.468 2.703-5.692 6.127a7.626 7.626 0 0 0-.841 1.002c-.732 1.047 2.397 4.411 7.446 4.411h31.23c5.048-.001 8.171-3.355 7.439-4.406z" fill="#b6d6e0"/></svg>