<svg xmlns="http://www.w3.org/2000/svg" xmlns:xlink="http://www.w3.org/1999/xlink" width="360" height="360" viewBox="0 0 360 360"><path fill="#B5DAE2" d="M-1-1h362v138H-1z"/><path fill="#324A5E" d="M-1 298.334h362v64H-1z"/><path fill="#DBE8B1" d="M-1 132h362v164H-1z"/><path fill="#C8B2A8" d="M-1 165.334h362v135H-1z"/><path fill="#B5DAE2" d="M-1 1.334h360v136H-1z"/><g fill="#C8E2E8"><path d="M23.273 53.419h-5.395v-7.463h-7.89l-.135-8.698-.117-8.148-.426-.343-.254 8.483-.27 8.706H1.693v7.463H-1v83.915h24.273zM47.992 60.942v-6.82H40.1l-.044-2.567-1.113 1.38-.039 1.188h-.896c-.604.776-1.178 1.564-1.763 2.355-.356-.48-.698-.965-1.062-1.439H33.58v5.904h-5.264v76.392h25.076V60.942h-5.4zM350.003 53.419v-7.463h-7.89l-.134-8.698-.118-8.148-.427-.343-.254 8.483-.268 8.706h-7.094v7.463h-5.395v83.915h26.974V53.419zM56.479 51.94h-.004v85.394h21.046V64.356zM141.497 59.239c-1.948-2.299-5.345-3.821-9.212-3.847l-.025-.688-.597-18.002-.194 18.002-.009.709c-3.737.182-6.95 1.75-8.759 4.022l-2.177.024 1.458 77.874h23.152l-1.466-78.119-2.171.025zM168.76 30.927h-8.128l-.191-10.662-.221-13.538-.305-.001-.465 13.534-.38 10.667h-8.287v4.228h-4.16v102.18h26.307V35.154h-4.17v-4.227zM176.434 48.779h43.671v88.555h-43.671zM93.252 72.942l.014-2.407-10.599-.029-.012 2.409-2.9-.011-.325 64.43h37.75l.323-64.321zM256.112 53.419c.021-.188.038-.377.038-.572 0-3.661-3.896-6.631-8.742-6.713l-.14-8.876-.258-18.007-.537 17.999-.274 8.919c-4.465.375-7.942 3.223-7.942 6.678 0 .195.018.384.041.572h-4.585v83.915h26.979V53.419h-4.58z"/></g><g fill="#A4D3DD"><path d="M290.374 40.333h25.898v97.001h-25.898zM86.237 107.616v-17.31H51.916v47.028h66.292v-29.718zM230.328 90.306v17.31h-31.971v29.718h66.293V90.306zM171.313 86.611v-6.25h-7.643v6.25h-3.018v50.723h35.777V86.611zM128.026 86.611l-.125-11.481-.147-15.09-.311 15.085-.244 11.486h-3.904v50.723h35.776V86.611zM36.126 50.789v23.944h-4.677v62.601h16.584V50.789zM281.852 76.867v-6.011h-13.061V137.334h19.22V76.867zM340.428 86.611v-6.25h-2.445l-.297-28.652-.311 15.078-.289 13.574h-2.949v6.25h-2.489v50.723h23.749V86.611zM8.302 86.611v-6.25H5.86l-.3-28.652-.599 28.652H2.013v6.25H-.475v50.723h29.461V86.611z"/></g><path fill="#99C8D1" d="M356.772 109.018v25.898h-5.012v-25.461h-32.533v25.461h-7.176v-16.308h-42.439v-14.036h-21.049v30.344h-2.034v-19.3h-32.528v19.3h-2.188v-13.784h-19.898v6.421H180.68v7.363h-2.447v-30.344h-7.89v-3.504h-19.29v3.504h-7.895v30.344h-1.929v-30.344h-21.046v30.344h-1.981v-18.445h-8.953v-4.884H83.763v4.884h-8.949v18.445h-2.686v-16.308H44.241l-.481 16.308h-2.622v-25.898h-16.49v25.898h-5.012v-25.461H.297v27.879H359v-28.316z"/><path fill="#DBE8B1" d="M-1 137.334h360v162H-1z"/><path fill="#324A5E" d="M-1 299.334h360v62H-1z"/><g fill="#90DFAA"><path d="M107.381 345.36l4.535-29.905 10.51 23.909 10.754-23.909 4.249 29.905h-3.131l-2.562-19.688-9.336 20.871-9.207-20.871-2.687 19.688h-3.125zM153.396 327.724h2.931v17.637h-2.931v-2.44c-1.591 1.972-3.553 2.953-5.879 2.953-2.541 0-4.608-.999-6.198-2.994-1.353-1.713-2.026-3.824-2.026-6.37 0-2.957.906-5.299 2.714-7.028 1.536-1.449 3.349-2.17 5.455-2.17 2.338 0 4.316.976 5.935 2.925v-2.513zm-5.497 2.319c-1.656 0-3.037.658-4.128 1.975-.993 1.18-1.485 2.658-1.485 4.409 0 2.109.596 3.798 1.779 5.06 1.05 1.096 2.315 1.654 3.811 1.654 1.84 0 3.31-.728 4.416-2.198.871-1.14 1.306-2.615 1.306-4.413 0-2.114-.592-3.734-1.788-4.868-1.095-1.048-2.396-1.594-3.911-1.619zM172.703 329.012v3.976c-.93-1.084-1.799-1.836-2.595-2.264-.795-.445-1.718-.658-2.779-.658-1.821 0-3.303.701-4.455 2.086-1.038 1.252-1.563 2.732-1.563 4.462 0 1.813.562 3.351 1.686 4.617 1.121 1.267 2.554 1.891 4.294 1.891 1.085 0 2.041-.235 2.865-.691.832-.472 1.714-1.267 2.649-2.4v4.003c-1.817 1.229-3.629 1.841-5.416 1.841-2.917 0-5.25-1.097-7.005-3.298-1.374-1.721-2.063-3.692-2.063-5.915 0-2.659.916-4.919 2.748-6.781 1.671-1.692 3.784-2.549 6.344-2.549 1.87-.002 3.634.553 5.29 1.68zM175.093 314.4h2.93v15.397c.731-.886 1.474-1.516 2.225-1.9.746-.378 1.633-.567 2.668-.567a6.28 6.28 0 0 1 2.842.655c.875.431 1.551 1.018 2.031 1.748.671 1.002 1.007 2.569 1.007 4.71v10.917h-2.932v-10.716c0-1.4-.185-2.453-.565-3.129-.545-.967-1.533-1.45-2.964-1.45-1.767 0-2.978.701-3.632 2.086-.455.97-.68 2.44-.68 4.395v8.814h-2.93V314.4zM193.177 318.938c.578 0 1.068.212 1.476.626.408.422.612.938.612 1.529 0 .604-.204 1.115-.612 1.544-.407.416-.904.63-1.493.63-.572 0-1.064-.217-1.472-.645a2.161 2.161 0 0 1-.616-1.553c0-.579.208-1.078.616-1.497a2.062 2.062 0 0 1 1.489-.634zm1.451 8.786v17.637h-2.933v-17.637h2.933zM197.647 327.724h2.931v2.13c.734-.938 1.47-1.6 2.204-1.979.737-.375 1.635-.564 2.688-.564 1.027 0 1.983.221 2.859.655.877.428 1.552 1.024 2.019 1.768.638 1.002.961 2.569.961 4.682v10.945h-2.93v-10.43c0-1.641-.188-2.779-.561-3.415-.575-.981-1.579-1.473-3.01-1.473-1.487 0-2.558.516-3.225 1.546-.67 1.034-1.007 2.689-1.007 4.957v8.814h-2.931v-17.636zM229.698 337.173h-13.299c.056 1.197.294 2.217.723 3.046.48.931 1.136 1.643 1.969 2.151a5.038 5.038 0 0 0 2.729.771c1.133 0 2.088-.268 2.867-.817.771-.549 1.568-1.515 2.391-2.894l2.467 1.438c-.684 1.229-1.388 2.17-2.114 2.836-1.574 1.445-3.479 2.17-5.712 2.17-2.729 0-4.895-1.013-6.502-3.064-1.271-1.625-1.903-3.684-1.903-6.148 0-2.863.807-5.158 2.428-6.884 1.523-1.627 3.466-2.446 5.836-2.446 2.446 0 4.412.856 5.899 2.549 1.483 1.704 2.223 3.952 2.223 6.759-.002.088-.002.271-.002.533zm-3.086-2.543c-.189-.981-.52-1.804-.986-2.479-1.002-1.385-2.34-2.086-4.014-2.086-1.248 0-2.331.425-3.278 1.285-.942.859-1.525 1.95-1.753 3.279h10.031zM247.777 320.008v25.353h-3.074v-25.353h-6.616v-2.928h16.354v2.928h-6.664zM261.213 327.33c2.691 0 4.925 1.015 6.702 3.026 1.54 1.736 2.304 3.822 2.304 6.231 0 2.827-.997 5.149-2.984 6.972-1.687 1.546-3.712 2.313-6.082 2.313a8.619 8.619 0 0 1-4.573-1.286 8.71 8.71 0 0 1-3.326-3.621c-.699-1.353-1.043-2.853-1.043-4.514 0-2.574.935-4.779 2.807-6.611 1.671-1.625 3.737-2.467 6.195-2.51zm-.019 2.735c-1.952 0-3.507.767-4.654 2.278-.897 1.186-1.34 2.574-1.34 4.165 0 2.027.596 3.66 1.786 4.887 1.134 1.164 2.514 1.745 4.144 1.745 1.995 0 3.587-.762 4.775-2.273.89-1.14 1.329-2.553 1.329-4.254 0-1.983-.604-3.586-1.808-4.807-1.105-1.135-2.52-1.717-4.232-1.741zM280.134 327.33c2.69 0 4.922 1.015 6.701 3.026 1.534 1.736 2.308 3.822 2.308 6.231 0 2.827-.997 5.149-2.989 6.972-1.689 1.546-3.711 2.313-6.081 2.313a8.617 8.617 0 0 1-4.571-1.286 8.767 8.767 0 0 1-3.331-3.621c-.696-1.353-1.041-2.853-1.041-4.514 0-2.574.933-4.779 2.807-6.611 1.67-1.625 3.738-2.467 6.197-2.51zm-.017 2.735c-1.955 0-3.508.767-4.657 2.278-.891 1.186-1.348 2.574-1.348 4.165 0 2.027.598 3.66 1.79 4.887 1.132 1.164 2.52 1.745 4.147 1.745 1.998 0 3.589-.762 4.782-2.273.879-1.14 1.321-2.553 1.321-4.254 0-1.983-.605-3.586-1.806-4.807-1.11-1.135-2.523-1.717-4.229-1.741zM294.099 314.4v30.96h-2.93V314.4h2.93zM306.431 330.522l-2.429 1.303c-.602-1.171-1.391-1.76-2.365-1.76-.563 0-1.045.189-1.448.577a1.824 1.824 0 0 0-.601 1.392c0 .505.192.938.564 1.279.371.353 1.099.763 2.184 1.223 1.54.671 2.625 1.232 3.248 1.705 1.244.935 1.868 2.229 1.868 3.882 0 1.722-.605 3.135-1.822 4.244-1.11 1.012-2.447 1.506-4.013 1.506-1.407 0-2.613-.373-3.614-1.127-1.001-.758-1.782-1.867-2.344-3.37l2.562-1.113c.51 1.087 1.015 1.847 1.511 2.264.49.414 1.132.614 1.921.614.817 0 1.49-.255 2.02-.786.527-.524.797-1.191.797-1.996 0-.665-.192-1.211-.568-1.624-.371-.404-1.107-.848-2.206-1.335-1.562-.689-2.698-1.302-3.404-1.823-1.01-.757-1.513-1.863-1.513-3.313 0-1.528.538-2.745 1.608-3.667.975-.842 2.099-1.267 3.37-1.267 2.056 0 3.612 1.064 4.674 3.192z"/><g><path d="M68.643 346.543l.261-1.15c.702-.061 1.254-.265 1.654-.613.396-.343.68-.818.844-1.431.166-.61.25-1.418.25-2.42 0-.604-.028-1.271-.074-1.99l-.165-3.031H61.088l-1.297 2.301c-.605 1.085-1.055 2.008-1.337 2.78-.28.778-.42 1.461-.42 2.057 0 1.313.787 2.097 2.371 2.348l-.258 1.15h-9.6l.258-1.15c.484-.061.942-.256 1.374-.576.43-.323.885-.81 1.37-1.459.487-.646 1.165-1.72 2.044-3.223l15.043-26.01h3.546l1.691 26.171c.081 1.238.217 2.2.421 2.902.206.694.482 1.214.834 1.546.354.339.863.555 1.536.648l-.261 1.15h-9.76zm-6.501-12.676h9.179l-.396-7.557c-.05-1.037-.091-2.323-.12-3.874-.036-1.547-.05-2.666-.05-3.354h-.257l-8.356 14.785z"/><path d="M99.796 318.499l-1.417 6.312h-1.972c-.043-.991-.118-1.757-.226-2.314-.111-.556-.233-.968-.373-1.233-.136-.265-.294-.465-.471-.59a1.613 1.613 0 0 0-.667-.28c-.267-.056-.646-.081-1.14-.081h-6.696l-2.345 10.761h3.927c.597 0 1.102-.081 1.509-.24.4-.169.778-.451 1.119-.857.34-.405.723-1.027 1.149-1.858h1.869l-1.848 7.887h-1.747c0-.756-.028-1.306-.083-1.666-.055-.352-.126-.619-.218-.786a1.009 1.009 0 0 0-.336-.401c-.137-.097-.314-.159-.536-.208-.216-.045-.58-.063-1.087-.063H84.1l-2.631 11.854h6.081c.603 0 1.113-.048 1.53-.135.419-.084.798-.24 1.141-.457s.67-.508.983-.856c.32-.349.644-.794.976-1.347.342-.549.795-1.38 1.369-2.509h1.992l-1.806 7.113H75.513l.228-1.013c.521-.076.913-.213 1.175-.394a2.23 2.23 0 0 0 .656-.772c.175-.329.34-.73.488-1.202.153-.474.378-1.383.68-2.741l3.493-15.82c.3-1.368.451-2.471.451-3.304 0-.647-.163-1.097-.493-1.347-.33-.251-.837-.402-1.52-.443l.228-1.008h18.897z"/></g></g><g><path fill="#83727A" d="M151.121 292.571h7.757v-20.187h34.151V292.571h7.761V259.96h-49.669z"/><path fill="#A08A8A" d="M75.06 263.063v-23.29H51.774zM78.164 239.773l23.283 23.29v-23.29zM75.06 289.462v-23.29H51.774zM22.283 266.172H-1l23.283 23.29zM78.164 266.172l23.283 23.29v-23.29zM75.06 213.374H51.774l23.286 23.29zM48.669 239.773H25.387l23.282 23.29zM48.669 213.374H25.387l23.282 23.29zM22.283 213.374H-1l23.283 23.29zM78.164 213.374l23.283 23.29v-23.29zM48.669 266.172H25.387l23.282 23.29zM22.283 239.773H-1l23.283 23.29z"/><path fill="#C8B2A8" d="M101.447 213.374v79.196h49.674V151.256h-49.674V213.374zm35.7-45.04v-4.654h4.659v17.078h-4.659v-12.424zm0 26.404v-4.66h4.659V207.156h-4.659v-12.418zm0 26.4v-4.661h4.659v17.085h-4.659v-12.424zm0 26.398v-4.66h4.659v17.084h-4.659v-12.424zm0 26.4v-4.66h4.659v17.083h-4.659v-12.423zm-6.209-105.602v-4.654h4.659v17.078h-4.659v-12.424zm0 26.404v-4.66h4.659V207.156h-4.659v-12.418zm0 26.4v-4.661h4.659v17.085h-4.659v-12.424zm0 26.398v-4.66h4.659v17.084h-4.659v-12.424zm0 26.4v-4.66h4.659v17.083h-4.659v-12.423zM116.97 168.334v-4.654h4.655v17.078h-4.655v-12.424zm0 26.404v-4.66h4.655V207.156h-4.655v-12.418zm0 26.4v-4.661h4.655v17.085h-4.655v-12.424zm0 26.398v-4.66h4.655v17.084h-4.655v-12.424zm0 26.4v-4.66h4.655v17.083h-4.655v-12.423zm-6.209-105.602v-4.654h4.655v17.078h-4.655v-12.424zm0 26.404v-4.66h4.655V207.156h-4.655v-12.418zm0 26.4v-4.661h4.655v17.085h-4.655v-12.424zm0 26.398v-4.66h4.655v17.084h-4.655v-12.424zm0 26.4v-4.66h4.655v17.083h-4.655v-12.423z"/><path fill="#83727A" d="M115.416 273.936h-4.655l4.655 4.66z"/><path fill="#A08A8A" d="M115.416 278.596l-4.655-4.66v12.422h4.655z"/><path fill="#695A69" d="M110.761 269.275h4.655v4.66h-4.655z"/><path fill="#83727A" d="M121.625 273.936h-4.655l4.655 4.66z"/><path fill="#A08A8A" d="M121.625 278.596l-4.655-4.66v12.422h4.655z"/><path fill="#695A69" d="M116.97 269.275h4.655v4.66h-4.655z"/><path fill="#83727A" d="M135.597 273.936h-4.659l4.659 4.66z"/><path fill="#A08A8A" d="M135.597 278.596l-4.659-4.66v12.422h4.659z"/><path fill="#695A69" d="M130.938 269.275h4.659v4.66h-4.659z"/><path fill="#83727A" d="M141.806 273.936h-4.659l4.659 4.66z"/><path fill="#A08A8A" d="M141.806 278.596l-4.659-4.66v12.422h4.659z"/><path fill="#695A69" d="M137.147 269.275h4.659v4.66h-4.659z"/><path fill="#83727A" d="M115.416 247.536h-4.655l4.655 4.661z"/><path fill="#A08A8A" d="M115.416 252.197l-4.655-4.661v12.424h4.655z"/><path fill="#695A69" d="M110.761 242.876h4.655v4.66h-4.655z"/><path fill="#83727A" d="M121.625 247.536h-4.655l4.655 4.661z"/><path fill="#A08A8A" d="M121.625 252.197l-4.655-4.661v12.424h4.655z"/><path fill="#695A69" d="M116.97 242.876h4.655v4.66h-4.655z"/><path fill="#83727A" d="M135.597 247.536h-4.659l4.659 4.661z"/><path fill="#A08A8A" d="M135.597 252.197l-4.659-4.661v12.424h4.659z"/><path fill="#695A69" d="M130.938 242.876h4.659v4.66h-4.659z"/><path fill="#83727A" d="M141.806 247.536h-4.659l4.659 4.661z"/><path fill="#A08A8A" d="M141.806 252.197l-4.659-4.661v12.424h4.659z"/><path fill="#695A69" d="M137.147 242.876h4.659v4.66h-4.659z"/><path fill="#83727A" d="M115.416 221.138h-4.655l4.655 4.654z"/><path fill="#A08A8A" d="M115.416 225.792l-4.655-4.654v12.424h4.655z"/><path fill="#695A69" d="M110.761 216.477h4.655v4.661h-4.655z"/><path fill="#83727A" d="M121.625 221.138h-4.655l4.655 4.654z"/><path fill="#A08A8A" d="M121.625 225.792l-4.655-4.654v12.424h4.655z"/><path fill="#695A69" d="M116.97 216.477h4.655v4.661h-4.655z"/><path fill="#83727A" d="M135.597 221.138h-4.659l4.659 4.654z"/><path fill="#A08A8A" d="M135.597 225.792l-4.659-4.654v12.424h4.659z"/><path fill="#695A69" d="M130.938 216.477h4.659v4.661h-4.659z"/><path fill="#83727A" d="M141.806 221.138h-4.659l4.659 4.654z"/><path fill="#A08A8A" d="M141.806 225.792l-4.659-4.654v12.424h4.659z"/><path fill="#695A69" d="M137.147 216.477h4.659v4.661h-4.659z"/><path fill="#83727A" d="M115.416 194.738h-4.655l4.655 4.656z"/><path fill="#A08A8A" d="M115.416 199.394l-4.655-4.656v12.424h4.655z"/><path fill="#695A69" d="M110.761 190.078h4.655v4.66h-4.655z"/><path fill="#83727A" d="M121.625 194.738h-4.655l4.655 4.656z"/><path fill="#A08A8A" d="M121.625 199.394l-4.655-4.656v12.424h4.655z"/><path fill="#695A69" d="M116.97 190.078h4.655v4.66h-4.655z"/><path fill="#83727A" d="M135.597 194.738h-4.659l4.659 4.656z"/><path fill="#A08A8A" d="M135.597 199.394l-4.659-4.656v12.424h4.659z"/><path fill="#695A69" d="M130.938 190.078h4.659v4.66h-4.659z"/><path fill="#83727A" d="M141.806 194.738h-4.659l4.659 4.656z"/><path fill="#A08A8A" d="M141.806 199.394l-4.659-4.656v12.424h4.659z"/><path fill="#695A69" d="M137.147 190.078h4.659v4.66h-4.659z"/><path fill="#83727A" d="M115.416 168.334h-4.655l4.655 4.66z"/><path fill="#A08A8A" d="M115.416 172.994l-4.655-4.66v12.424h4.655z"/><path fill="#695A69" d="M110.761 163.68h4.655v4.654h-4.655z"/><path fill="#83727A" d="M121.625 168.334h-4.655l4.655 4.66z"/><path fill="#A08A8A" d="M121.625 172.994l-4.655-4.66v12.424h4.655z"/><path fill="#695A69" d="M116.97 163.68h4.655v4.654h-4.655z"/><path fill="#83727A" d="M135.597 168.334h-4.659l4.659 4.66z"/><path fill="#A08A8A" d="M135.597 172.994l-4.659-4.66v12.424h4.659z"/><path fill="#695A69" d="M130.938 163.68h4.659v4.654h-4.659z"/><path fill="#83727A" d="M141.806 168.334h-4.659l4.659 4.66z"/><path fill="#A08A8A" d="M141.806 172.994l-4.659-4.66v12.424h4.659z"/><path fill="#695A69" d="M137.147 163.68h4.659v4.654h-4.659zM25.387 210.266h76.06v-4.662H-1v4.662h23.283z"/><path fill="#C8B2A8" d="M-1 213.374v23.29h23.283zM25.387 213.374v23.29h23.282zM75.06 236.664l-23.286-23.29v23.29zM78.164 236.664h23.283l-23.283-23.29zM-1 239.773v23.29h23.283zM25.387 239.773v23.29h23.282zM51.774 263.063H75.06l-23.286-23.29zM78.164 263.063h23.283l-23.283-23.29zM-1 266.172v23.29h23.283zM25.387 266.172v23.29h23.282zM51.774 289.462H75.06l-23.286-23.29zM78.164 289.462h23.283l-23.283-23.29z"/><path fill="#83727A" d="M25.387 292.571h76.059v-3.109H78.164v-23.29h23.283v-3.109H78.164v-23.289h23.283v-3.109H78.164v-23.29h23.283v-3.108H-1v3.108h23.283v23.29H-1v3.109h23.283v23.289H-1v3.109h23.283v23.29H-1v3.109h26.387zm49.673-3.109H51.777v-23.29H75.06v23.29zm0-26.399H51.777v-23.289H75.06v23.289zm0-49.689v23.29H51.777v-23.29H75.06zm-49.673 0h23.282v23.29H25.387v-23.29zm0 26.399h23.282v23.289H25.387v-23.289zm0 26.399h23.282v23.29H25.387v-23.29z"/><path fill="#695A69" d="M158.878 278.596h34.151v1.552h-34.151zM158.878 272.384h34.151v1.552h-34.151zM158.878 275.486h34.151v1.552h-34.151zM158.878 287.91h34.151v1.552h-34.151zM158.878 291.02h34.151v1.552h-34.151zM158.878 284.808h34.151v1.551h-34.151zM158.878 281.698h34.151v1.552h-34.151z"/><path fill="#826E77" d="M158.878 273.936h34.151v1.551h-34.151zM158.878 277.038h34.151v1.558h-34.151zM158.878 280.147h34.151v1.551h-34.151zM158.878 283.25h34.151v1.558h-34.151zM158.878 286.358h34.151v1.552h-34.151zM158.878 292.571h34.151v1.551h-34.151zM158.878 295.674h34.151v1.558h-34.151zM158.878 289.462h34.151v1.558h-34.151z"/><path fill="#695A69" d="M51.774 292.571H-1v7.763h102.447v-7.763zM193.029 294.122h-34.151v-1.551h-7.758v7.763h7.758v-1.551h34.151v1.551h7.76v-7.763h-7.76v1.551zm0 3.109h-34.151v-1.558h34.151v1.558z"/><path fill="#A08A8A" d="M101.447 292.571h49.674v7.763h-49.674zM101.447 148.146h49.674v3.109h-49.674z"/><path fill="#695A69" d="M196.133 242.876h-45.012v17.084H203.894z"/><path fill="#DFD0C6" d="M70.402 152.807h-8.667l.119-2.821-.766 18.348h9.314zM70.402 190.078H60.185l.125-2.984-.772 18.51h10.864zM70.402 131.069v-15.533h-7.113l.128-3.102.775-18.636-1.854 44.533.304-7.262z"/><path fill="#C8B2A8" d="M77.517 115.536h-7.115v15.533h7.762L76.61 93.798l.776 18.636zM70.402 152.807v15.527h9.313l.388 9.32-1.163-27.95.128 3.103zM70.402 190.078v15.526h10.867l-.775-18.623.128 3.097z"/><path fill="#DE582A" d="M70.402 112.434V93.798h-6.21l-.775 18.636zM70.402 149.704v-18.635h-7.76l-.304 7.262-.472 11.373zM70.402 186.97v-18.636h-9.314l-.775 18.636z"/><path fill="#C8B2A8" d="M63.417 112.434l-.128 3.102h7.113v-3.102zM70.402 152.807v-3.103h-8.536l-.012.282-.119 2.821zM70.402 190.078v-3.108H60.313l-.003.124-.125 2.984z"/><path fill="#A08A8A" d="M77.386 112.434h-6.984v3.102h7.115zM70.402 152.807h8.666l-.128-3.103h-8.538zM70.402 186.97v3.108h10.22l-.128-3.097-.004-.011z"/><path fill="#B2441D" d="M70.402 168.334v18.636H80.49l-.387-9.316-.388-9.32zM70.402 149.704h8.538l-.776-18.635h-7.762zM77.386 112.434l-.776-18.636h-6.208v18.636z"/><path fill="#DFD0C6" d="M31.596 190.078H21.379l.128-3.108.776-18.636h9.313v-15.527H22.93l.128-3.103.778-18.635h7.76v-15.533h-7.112l.128-3.102.775-18.636-4.655 111.806h10.864z"/><path fill="#C8B2A8" d="M38.712 115.536h-7.116v15.533h7.763l.775 18.635.129 3.103h-8.667v15.527h9.314l.775 18.636.131 3.108h-10.22v15.526h10.867L37.805 93.798l.776 18.636z"/><path fill="#DE582A" d="M31.596 112.434V93.798h-6.209l-.775 18.636zM31.596 131.069h-7.76l-.778 18.635h8.538zM31.596 168.334h-9.313l-.776 18.636h10.089z"/><path fill="#C8B2A8" d="M24.612 112.434l-.128 3.102h7.112v-3.102zM23.058 149.704l-.128 3.103h8.666v-3.103zM21.507 186.97l-.128 3.108h10.217v-3.108z"/><path fill="#A08A8A" d="M38.581 112.434h-6.985v3.102h7.116zM40.134 149.704h-8.538v3.103h8.667zM41.685 186.97H31.596v3.108h10.22z"/><path fill="#B2441D" d="M41.685 186.97l-.775-18.636h-9.314v18.636zM40.134 149.704l-.775-18.635h-7.763v18.635zM38.581 112.434l-.776-18.636h-6.209v18.636z"/><path fill="#826E77" d="M158.878 298.783h34.151v1.551h-34.151z"/></g><g><defs><path id="a" d="M198 134.334h162v166H198z"/></defs><clipPath id="b"><use xlink:href="#a" overflow="visible"/></clipPath><g clip-path="url(#b)"><path fill="#95A5A6" d="M250.857 139.633h-.498a.498.498 0 0 0-.497.498v25.836c0 .274.223.496.497.496h.498a.496.496 0 0 0 .495-.496v-25.836a.495.495 0 0 0-.495-.498z"/><path fill="#7F8C8D" d="M250.857 139.633h-.498a.498.498 0 0 0-.497.498v.495h1.49v-.495a.495.495 0 0 0-.495-.498z"/><g><path fill="#464655" d="M275 145.618c-7.93-4.87-15.859 4.87-23.789 0v-4.784c.001-.227.184-.297.411-.171 7.657 4.223 15.312-4.702 22.968-.479.227.124.41.423.41.649v4.785z"/><path fill="#FFE15A" d="M274.59 155.77c-7.656-4.225-15.311 4.702-22.968.479-.228-.126-.411-.423-.411-.649v-4.785c7.93 4.869 15.859-4.87 23.789 0v4.785c0 .226-.184.295-.41.17z"/><path fill="#FF4B55" d="M251.211 145.618c7.93 4.87 15.859-4.87 23.789 0v5.195c-7.93-4.87-15.859 4.87-23.789 0v-5.195z"/></g><g><path fill="#F5F5F5" d="M244.88 154.408c-7.661-2.17-15.322 2.416-22.983.246-.229-.064-.412-.287-.412-.489v-13.173c0-.201.184-.307.412-.242 7.661 2.17 15.322-2.416 22.983-.246.227.064.411.287.411.488v13.173c0 .202-.185.308-.411.243z"/><g fill="#FF4B55"><path d="M245.291 141.696c-7.936-2.503-15.871 2.503-23.807 0v-.704c0-.201.184-.307.412-.242 7.661 2.17 15.322-2.416 22.983-.246.227.064.411.287.411.488l.001.704zM221.484 144.905c7.936 2.503 15.871-2.503 23.807 0v1.069c-7.936-2.503-15.871 2.503-23.807 0v-1.069z"/><path d="M221.484 142.766c7.936 2.503 15.871-2.503 23.807 0v1.07c-7.936-2.503-15.871 2.503-23.807 0v-1.07zM245.291 148.113c-7.798-2.459-15.596 2.332-23.395.123-.229-.064-.412-.286-.412-.488v-.703c7.936 2.503 15.871-2.503 23.807 0v1.068zM221.484 151.322c7.936 2.503 15.871-2.503 23.807 0v1.07c-7.936-2.503-15.871 2.503-23.807 0v-1.07z"/><path d="M244.88 154.408c-7.661-2.17-15.322 2.416-22.983.246-.229-.064-.412-.287-.412-.489v-.704c7.936 2.503 15.871-2.503 23.807 0v.705c-.001.201-.186.307-.412.242zM221.484 149.184c7.936 2.503 15.871-2.503 23.807 0v1.068c-7.936-2.503-15.871 2.503-23.807 0v-1.068z"/></g><path fill="#41479B" d="M230.998 140.988c-3.049.423-6.098.623-9.146-.251-.203-.058-.367.054-.367.255v6.756c0 .201.164.418.367.476 3.049.874 6.098.674 9.146.251a.435.435 0 0 0 .366-.417v-6.756a.312.312 0 0 0-.366-.314z"/><g fill="#F5F5F5"><path d="M222.512 141.75l.082.262c.085.021.17.04.255.059.033.008.047.053.021.066l-.207.107.078.262c.01.033-.027.052-.054.027l-.209-.198-.208.098c-.027.012-.063-.023-.052-.052l.076-.225-.205-.206c-.026-.026-.013-.065.02-.058.085.022.171.044.257.064l.08-.223c.011-.027.056-.016.066.017zM222.512 143.021l.082.263c.085.021.17.04.255.059.033.007.047.053.021.066l-.207.106.078.262c.01.034-.027.052-.054.026l-.209-.197-.208.097c-.027.013-.063-.021-.052-.051l.076-.225-.205-.205c-.026-.026-.013-.066.02-.058.085.022.171.044.257.064l.08-.224c.011-.027.056-.017.066.017zM222.512 144.291l.082.263.255.058c.033.007.047.053.021.067l-.207.106.078.262c.01.033-.027.053-.054.027l-.209-.198-.208.098c-.027.013-.063-.023-.052-.052l.076-.225-.205-.205c-.026-.027-.013-.066.02-.059.085.022.171.045.257.065l.08-.224c.011-.027.056-.016.066.017zM222.512 145.562l.082.263c.085.021.17.04.255.059.033.007.047.052.021.066l-.207.107.078.261c.01.034-.027.052-.054.026l-.209-.197-.208.097c-.027.013-.063-.021-.052-.051l.076-.224-.205-.206c-.026-.027-.013-.066.02-.058.085.022.171.044.257.064l.08-.224c.011-.027.056-.017.066.017zM222.512 146.832l.082.263.255.058c.033.008.047.053.021.066l-.207.107.078.262c.01.034-.027.053-.054.027l-.209-.198-.208.098c-.027.013-.063-.022-.052-.052l.076-.225-.205-.206c-.026-.026-.013-.065.02-.058.085.022.171.045.257.065l.08-.224c.011-.027.056-.016.066.017zM223.498 142.573l.081.255c.085.015.171.029.257.042.032.005.047.05.019.065l-.205.121.077.256c.011.033-.025.055-.053.031l-.209-.184-.207.112c-.028.015-.063-.02-.053-.049l.076-.229-.205-.191c-.027-.025-.013-.065.02-.06.085.017.17.032.256.047l.081-.229c.01-.028.054-.02.065.013zM223.498 143.844l.081.256c.085.015.171.029.257.042.032.005.047.049.019.064l-.205.122.077.255c.011.034-.025.054-.053.03l-.209-.183-.207.111c-.028.015-.063-.018-.053-.048l.076-.229-.205-.192c-.027-.025-.013-.064.02-.059.085.017.17.032.256.047l.081-.229c.01-.029.054-.021.065.013zM223.498 145.114l.081.255c.085.015.171.029.257.042.032.006.047.05.019.065l-.205.121.077.256c.011.033-.025.054-.053.031l-.209-.184-.207.112c-.028.014-.063-.02-.053-.049l.076-.229-.205-.191c-.027-.025-.013-.064.02-.06.085.017.17.032.256.047l.081-.229c.01-.028.054-.02.065.013zM223.498 146.385l.081.256c.085.015.171.029.257.042.032.005.047.05.019.065l-.205.121.077.255c.011.034-.025.054-.053.03l-.209-.183-.207.111c-.028.015-.063-.018-.053-.048l.076-.229-.205-.191c-.027-.026-.013-.065.02-.06.085.017.17.032.256.047l.081-.229c.01-.029.054-.021.065.013zM224.484 142.085l.081.251c.085.01.17.019.256.026.033.004.048.047.02.064l-.206.133.077.252c.011.032-.024.055-.052.034l-.208-.171-.209.125c-.026.015-.063-.016-.053-.046l.078-.234a32.652 32.652 0 0 1-.206-.178c-.028-.023-.014-.063.02-.061.085.011.17.021.256.03l.082-.233c.01-.029.055-.024.064.008zM224.484 143.355l.081.252c.085.01.17.019.256.026.033.003.048.047.02.064l-.206.132.077.252c.011.033-.024.055-.052.033l-.208-.17-.209.124c-.026.017-.063-.014-.053-.044l.078-.235-.206-.177c-.028-.023-.014-.064.02-.061.085.011.17.021.256.03l.082-.234c.01-.029.055-.024.064.008zM224.484 144.626l.081.252c.085.009.17.018.256.025.033.003.048.047.02.065l-.206.132.077.252c.011.032-.024.056-.052.034l-.208-.171-.209.125c-.026.017-.063-.016-.053-.046l.078-.234-.206-.177c-.028-.024-.014-.065.02-.062l.256.031.082-.234c.01-.029.055-.024.064.008zM224.484 145.896l.081.252c.085.01.17.019.256.026.033.003.048.046.02.064l-.206.133.077.251c.011.033-.024.055-.052.033l-.208-.17-.209.124c-.026.017-.063-.014-.053-.044l.078-.234a32.652 32.652 0 0 1-.206-.178c-.028-.024-.014-.064.02-.061.085.011.17.021.256.03l.082-.234c.01-.029.055-.024.064.008zM224.484 147.167l.081.252c.085.009.17.018.256.025.033.004.048.047.02.064l-.206.133.077.252c.011.033-.024.056-.052.034l-.208-.171-.209.125c-.026.017-.063-.015-.053-.046l.078-.234a32.652 32.652 0 0 1-.206-.178c-.028-.023-.014-.063.02-.061l.256.031.082-.234c.01-.029.055-.024.064.008zM225.471 142.786l.081.246.256.013c.033.001.047.044.021.063l-.206.145.077.248c.01.031-.026.057-.053.036l-.208-.159-.209.138c-.026.018-.063-.013-.053-.043l.078-.239-.207-.166c-.026-.022-.014-.063.021-.062l.256.016.081-.238c.01-.032.055-.03.065.002zM225.471 144.057l.081.247.256.013c.033.001.047.043.021.062l-.206.146.077.247a.033.033 0 0 1-.053.035c-.069-.052-.139-.104-.208-.158l-.209.137c-.026.018-.063-.011-.053-.042l.078-.238-.207-.167c-.026-.022-.014-.063.021-.061l.256.016.081-.239c.01-.034.055-.032.065.002zM225.471 145.327l.081.246.256.013c.033.002.047.044.021.063l-.206.145.077.248c.01.031-.026.056-.053.036l-.208-.159-.209.138c-.026.017-.063-.013-.053-.043l.078-.239-.207-.166c-.026-.021-.014-.063.021-.062l.256.016.081-.238c.01-.032.055-.03.065.002zM225.471 146.598l.081.247.256.013c.033.001.047.044.021.063l-.206.145.077.247a.033.033 0 0 1-.053.035c-.069-.052-.139-.104-.208-.158l-.209.137c-.026.018-.063-.011-.053-.042l.078-.238-.207-.166c-.026-.022-.014-.064.021-.062l.256.016.081-.239c.01-.033.055-.032.065.002zM226.457 142.189l.08.242h.258c.031.001.045.042.02.063l-.205.154.076.243c.01.031-.025.058-.053.04l-.209-.149-.208.147c-.026.017-.063-.009-.054-.04l.078-.243-.207-.156c-.025-.02-.012-.062.021-.062l.256.002.081-.242c.011-.031.056-.03.066.001zM226.457 143.46l.08.243h.258c.031 0 .045.042.02.063l-.205.153.076.243a.035.035 0 0 1-.053.039l-.209-.148a26.3 26.3 0 0 1-.208.146c-.026.019-.063-.007-.054-.039l.078-.243-.207-.155c-.025-.02-.012-.063.021-.062l.256.002.081-.243c.011-.03.056-.03.066.001zM226.457 144.73l.08.243.258-.001c.031 0 .045.042.02.063l-.205.153.076.243c.01.031-.025.059-.053.04l-.209-.149-.208.147c-.026.019-.063-.009-.054-.04l.078-.243-.207-.155c-.025-.021-.012-.063.021-.063l.256.003.081-.243c.011-.03.056-.029.066.002zM226.457 146.001l.08.243h.258c.031 0 .045.041.02.063l-.205.154.076.242a.035.035 0 0 1-.053.039l-.209-.148a26.3 26.3 0 0 1-.208.146c-.026.019-.063-.007-.054-.039l.078-.242-.207-.156c-.025-.021-.012-.063.021-.062l.256.002.081-.243c.011-.03.056-.03.066.001zM226.457 147.271l.08.243.258-.001c.031.001.045.043.02.063l-.205.154.076.243c.01.032-.025.059-.053.04l-.209-.149-.208.147c-.026.019-.063-.008-.054-.04l.078-.243-.207-.156c-.025-.02-.012-.062.021-.062l.256.003.081-.243c.011-.03.056-.03.066.001zM227.443 142.793l.081.239.257-.011c.032-.001.045.041.019.062l-.205.163.077.24c.01.031-.025.06-.054.042l-.207-.141-.208.156c-.027.021-.064-.006-.055-.037l.077-.247-.206-.146c-.025-.019-.012-.063.021-.063l.256-.01.081-.245c.012-.03.056-.032.066-.002zM227.443 144.064l.081.239.257-.011c.032-.001.045.04.019.061-.068.056-.137.109-.205.164l.077.239a.036.036 0 0 1-.054.041l-.207-.14-.208.155c-.027.021-.064-.004-.055-.036l.077-.246-.206-.147c-.025-.019-.012-.062.021-.062l.256-.01.081-.246c.012-.031.056-.033.066-.001zM227.443 145.334l.081.239.257-.011c.032 0 .045.041.019.062l-.205.163.077.24c.01.031-.025.059-.054.042l-.207-.141-.208.156c-.027.02-.064-.006-.055-.037l.077-.247-.206-.146c-.025-.019-.012-.062.021-.063l.256-.01.081-.245c.012-.03.056-.032.066-.002zM227.443 146.605l.081.239.257-.011c.032-.001.045.041.019.062l-.205.163.077.239a.036.036 0 0 1-.054.041l-.207-.14-.208.155c-.027.021-.064-.004-.055-.036l.077-.246-.206-.146c-.025-.02-.012-.063.021-.063l.256-.01.081-.246c.012-.031.056-.033.066-.001zM228.43 142.113l.081.235.255-.019c.034-.002.048.039.021.061l-.207.17.078.237c.01.03-.027.06-.054.044l-.208-.134c-.069.056-.139.11-.208.164-.027.02-.063-.003-.053-.035l.077-.249-.206-.14c-.027-.018-.013-.061.021-.063l.256-.019.08-.248c.011-.031.056-.035.067-.004zM228.43 143.384l.081.236.255-.019c.034-.003.048.039.021.061l-.207.169.078.237c.01.031-.027.06-.054.043l-.208-.133-.208.163c-.027.021-.063-.001-.053-.034l.077-.249a24.834 24.834 0 0 1-.206-.139c-.027-.018-.013-.062.021-.063l.256-.019.08-.249c.011-.032.056-.034.067-.004zM228.43 144.654l.081.236.255-.02c.034-.003.048.039.021.062l-.207.169.078.237c.01.03-.027.062-.054.044l-.208-.134c-.069.056-.139.11-.208.164-.027.021-.063-.003-.053-.035l.077-.249a24.834 24.834 0 0 1-.206-.139c-.027-.019-.013-.063.021-.064l.256-.018.08-.249c.011-.031.056-.034.067-.004zM228.43 145.925l.081.236.255-.019c.034-.003.048.038.021.061l-.207.17.078.236c.01.031-.027.061-.054.043l-.208-.133-.208.163c-.027.021-.063-.001-.053-.034l.077-.248-.206-.14c-.027-.019-.013-.062.021-.063l.256-.019.08-.249c.011-.032.056-.035.067-.004zM228.43 147.195l.081.236.255-.02c.034-.002.048.039.021.061l-.207.17.078.237c.01.031-.027.061-.054.044l-.208-.134c-.069.056-.139.11-.208.164-.027.021-.063-.002-.053-.035l.077-.249-.206-.14c-.027-.018-.013-.061.021-.063l.256-.018.08-.249c.011-.031.056-.034.067-.004zM229.416 142.646l.08.233.256-.026c.033-.004.048.038.021.061l-.206.175.078.236c.01.03-.026.062-.054.045a23.346 23.346 0 0 1-.208-.128l-.208.171c-.028.022-.063-.002-.053-.034l.077-.251-.206-.133c-.027-.017-.014-.062.02-.064l.257-.027.081-.25c.01-.033.053-.038.065-.008zM229.416 143.917l.08.234.256-.026c.033-.004.048.037.021.06l-.206.176.078.235c.01.03-.026.061-.054.044l-.208-.127c-.069.058-.139.113-.208.17-.028.022-.063 0-.053-.033l.077-.25-.206-.134c-.027-.018-.014-.061.02-.063l.257-.027.081-.251c.01-.034.053-.039.065-.008zM229.416 145.188l.08.233.256-.026c.033-.002.048.038.021.061l-.206.175.078.236c.01.03-.026.061-.054.045a23.346 23.346 0 0 1-.208-.128l-.208.171c-.028.021-.063-.002-.053-.034l.077-.251-.206-.133c-.027-.018-.014-.061.02-.064l.257-.027.081-.25c.01-.034.053-.039.065-.008zM229.416 146.458l.08.234.256-.026c.033-.004.048.038.021.061l-.206.175.078.235c.01.031-.026.061-.054.044l-.208-.127c-.069.058-.139.113-.208.17-.028.022-.063 0-.053-.033l.077-.25-.206-.133c-.027-.019-.014-.062.02-.064l.257-.027.081-.251c.01-.034.053-.039.065-.008zM230.402 141.908l.08.231.256-.031c.033-.004.047.036.021.06l-.205.18.076.233c.011.03-.025.062-.054.047l-.207-.123-.209.176c-.026.021-.063 0-.053-.033l.077-.253-.205-.128c-.026-.016-.014-.06.019-.064l.257-.033.082-.253c.01-.033.055-.039.065-.009zM230.402 143.179l.08.232.256-.031c.033-.005.047.036.021.06l-.205.179.076.233c.011.031-.025.062-.054.046l-.207-.122-.209.175c-.026.022-.063.002-.053-.032l.077-.253-.205-.127c-.026-.017-.014-.061.019-.064l.257-.033.082-.254c.01-.034.055-.04.065-.009zM230.402 144.449l.08.232.256-.032c.033-.005.047.036.021.061l-.205.179.076.233c.011.03-.025.063-.054.047l-.207-.123-.209.176c-.026.022-.063 0-.053-.033l.077-.253-.205-.127c-.026-.018-.014-.062.019-.065l.257-.032.082-.254c.01-.033.055-.039.065-.009zM230.402 145.72l.08.232.256-.031c.033-.005.047.035.021.06l-.205.18.076.232c.011.031-.025.062-.054.046l-.207-.122-.209.175c-.026.022-.063.002-.053-.032l.077-.252-.205-.128c-.026-.018-.014-.061.019-.064l.257-.033.082-.254c.01-.034.055-.04.065-.009zM230.402 146.99l.08.232.256-.032c.033-.004.047.036.021.06l-.205.18.076.233c.011.031-.025.063-.054.047l-.207-.123-.209.176c-.026.022-.063.001-.053-.033l.077-.253-.205-.128c-.026-.017-.014-.06.019-.064l.257-.032.082-.254c.01-.033.055-.039.065-.009z"/></g><path fill="#95A5A6" d="M220.994 139.633h-.497a.498.498 0 0 0-.497.498v25.836c0 .274.223.496.497.496h.497a.496.496 0 0 0 .496-.496v-25.836a.496.496 0 0 0-.496-.498z"/></g><g><path fill="#C8B2A8" d="M198 166.04h263.692v134.294H198z"/><path fill="#83727A" d="M452.787 207.229v-14.333h-14.254zM452.787 225.136v-14.325h-14.254zM452.787 189.322v-14.328h-14.254zM452.787 260.94v-14.317h-14.254zM452.787 243.034v-14.317h-14.254z"/><path fill="#A08A8A" d="M438.533 189.322h14.254l-14.254-14.328zM438.533 207.229h14.254l-14.254-14.333zM438.533 225.136h14.254l-14.254-14.325zM438.533 243.034h14.254l-14.254-14.317z"/><path fill="#695A69" d="M438.533 189.322h14.254v3.573h-14.254zM438.533 210.802v.009h14.254v-3.582h-14.254zM438.533 228.709v.008h14.254v-3.581h-14.254z"/><path fill="#A08A8A" d="M438.533 260.94h14.254l-14.254-14.317z"/><path fill="#695A69" d="M438.533 243.034h14.254v3.589h-14.254z"/><path fill="#83727A" d="M434.969 207.229v-14.333h-14.255zM434.969 189.322v-14.328h-14.255zM434.969 260.94v-14.317h-14.255zM434.969 243.034v-14.317h-14.255zM434.969 225.136v-14.325h-14.255z"/><path fill="#A08A8A" d="M420.714 189.322h14.255l-14.255-14.328zM420.714 207.229h14.255l-14.255-14.333zM420.714 225.136h14.255l-14.255-14.325zM420.714 243.034h14.255l-14.255-14.317z"/><path fill="#695A69" d="M420.714 189.322h14.255v3.573h-14.255zM420.714 210.802v.009h14.255v-3.582h-14.255zM420.714 228.709v.008h14.255v-3.581h-14.255z"/><path fill="#A08A8A" d="M420.714 260.94h14.255l-14.255-14.317z"/><path fill="#695A69" d="M420.714 243.034h14.255v3.589h-14.255z"/><path fill="#83727A" d="M417.15 243.034v-14.317h-14.254zM417.15 207.229v-14.333h-14.254zM417.15 225.136v-14.325h-14.254zM417.15 260.94v-14.317h-14.254zM417.15 189.322v-14.328h-14.254z"/><path fill="#A08A8A" d="M402.896 189.322h14.254l-14.254-14.328zM402.896 207.229h14.254l-14.254-14.333zM402.896 225.136h14.254l-14.254-14.325zM402.896 243.034h14.254l-14.254-14.317z"/><path fill="#695A69" d="M402.896 189.322h14.254v3.573h-14.254zM402.896 210.802v.009h14.254v-3.582h-14.254zM402.896 228.709v.008h14.254v-3.581h-14.254z"/><path fill="#A08A8A" d="M402.896 260.94h14.254l-14.254-14.317z"/><path fill="#695A69" d="M402.896 243.034h14.254v3.589h-14.254z"/><path fill="#83727A" d="M399.332 260.94v-14.317h-14.246zM399.332 225.136v-14.325h-14.246zM399.332 243.034v-14.317h-14.246zM399.332 189.322v-14.328h-14.246zM399.332 207.229v-14.333h-14.246z"/><path fill="#A08A8A" d="M385.086 189.322h14.246l-14.246-14.328zM385.086 207.229h14.246l-14.246-14.333zM385.086 225.136h14.246l-14.246-14.325zM385.086 243.034h14.246l-14.246-14.317z"/><path fill="#695A69" d="M385.086 189.322h14.246v3.573h-14.246zM385.086 210.802v.009h14.246v-3.582h-14.246zM385.086 228.709v.008h14.246v-3.581h-14.246z"/><path fill="#A08A8A" d="M385.086 260.94h14.246l-14.246-14.317z"/><path fill="#695A69" d="M385.086 243.034h14.246v3.589h-14.246z"/><path fill="#83727A" d="M381.506 174.994H367.27l14.236 14.328zM381.506 243.034v-14.317H367.27zM381.506 207.229v-14.333H367.27zM381.506 225.136v-14.325H367.27zM381.506 260.94v-14.317H367.27z"/><path fill="#A08A8A" d="M367.27 174.994v14.328h14.236zM367.27 207.229h14.236l-14.236-14.333zM367.27 225.136h14.236l-14.236-14.325zM367.27 243.034h14.236l-14.236-14.317z"/><path fill="#695A69" d="M367.27 189.322h14.236v3.573H367.27zM381.506 189.322h.008v3.573h-.008zM367.27 210.802v.009h14.236v-3.582H367.27zM381.506 210.811h.008v-3.582h-.008v3.573zM367.27 228.709v.008h14.236v-3.581H367.27zM381.506 228.717h.008v-3.581h-.008v3.573z"/><path fill="#A08A8A" d="M367.27 260.94h14.236l-14.236-14.317z"/><path fill="#695A69" d="M367.27 243.034h14.236v3.589H367.27zM381.506 243.034h.008v3.589h-.008z"/><path fill="#83727A" d="M363.697 260.94v-14.317H349.45zM363.697 225.136v-14.325H349.45zM363.697 207.229v-14.333H349.45zM363.697 243.034v-14.317H349.45zM363.697 189.322v-14.328H349.45z"/><path fill="#A08A8A" d="M349.45 189.322h14.247l-14.247-14.328zM349.45 207.229h14.247l-14.247-14.333zM349.45 225.136h14.247l-14.247-14.325zM349.45 243.034h14.247l-14.247-14.317z"/><path fill="#695A69" d="M349.45 189.322h14.247v3.573H349.45zM349.45 210.802v.009h14.247v-3.582H349.45zM349.45 228.709v.008h14.247v-3.581H349.45z"/><path fill="#A08A8A" d="M349.45 260.94h14.247l-14.247-14.317z"/><path fill="#695A69" d="M349.45 243.034h14.247v3.589H349.45z"/><path fill="#83727A" d="M345.879 225.136v-14.325h-14.247zM345.879 207.229v-14.333h-14.247zM345.879 243.034v-14.317h-14.247zM345.879 260.94v-14.317h-14.247zM345.879 189.322v-14.328h-14.247z"/><path fill="#A08A8A" d="M331.632 189.322h14.247l-14.247-14.328zM331.632 207.229h14.247l-14.247-14.333zM331.632 225.136h14.247l-14.247-14.325zM331.632 243.034h14.247l-14.247-14.317z"/><path fill="#695A69" d="M331.632 189.322h14.247v3.573h-14.247zM331.632 210.802v.009h14.247v-3.582h-14.247zM331.632 228.709v.008h14.247v-3.581h-14.247z"/><path fill="#A08A8A" d="M331.632 260.94h14.247l-14.247-14.317z"/><path fill="#695A69" d="M331.632 243.034h14.247v3.589h-14.247z"/><path fill="#83727A" d="M328.06 207.229v-14.333h-14.247zM328.06 225.136v-14.325h-14.247zM328.06 189.322v-14.328h-14.247zM328.06 243.034v-14.317h-14.247zM328.06 260.94v-14.317h-14.247z"/><path fill="#A08A8A" d="M313.813 189.322h14.247l-14.247-14.328zM313.813 207.229h14.247l-14.247-14.333zM313.813 225.136h14.247l-14.247-14.325zM313.813 243.034h14.247l-14.247-14.317z"/><path fill="#695A69" d="M313.813 189.322h14.247v3.573h-14.247zM313.813 210.802v.009h14.247v-3.582h-14.247zM313.813 228.709v.008h14.247v-3.581h-14.247z"/><path fill="#A08A8A" d="M313.813 260.94h14.247l-14.247-14.317z"/><path fill="#695A69" d="M313.813 243.034h14.247v3.589h-14.247z"/><path fill="#83727A" d="M310.242 189.322v-14.328h-14.245zM310.242 225.136v-14.325h-14.245zM310.242 260.94v-14.317h-14.245zM310.242 243.034v-14.317h-14.245zM310.242 207.229v-14.333h-14.245z"/><path fill="#A08A8A" d="M295.997 189.322h14.245l-14.245-14.328zM295.997 207.229h14.245l-14.245-14.333zM295.997 225.136h14.245l-14.245-14.325zM295.997 243.034h14.245l-14.245-14.317z"/><path fill="#695A69" d="M295.997 189.322h14.246v3.573h-14.246zM295.997 210.802v.009h14.245v-3.582h-14.245zM295.997 228.709v.008h14.245v-3.581h-14.245z"/><path fill="#A08A8A" d="M295.997 260.94h14.245l-14.245-14.317z"/><path fill="#695A69" d="M295.997 243.034h14.246v3.589h-14.246z"/><path fill="#83727A" d="M292.423 207.229v-14.333h-14.246zM292.423 260.94v-14.317h-14.246zM292.423 189.322v-14.328h-14.246zM292.423 225.136v-14.325h-14.246zM292.423 243.034v-14.317h-14.246z"/><path fill="#A08A8A" d="M278.177 189.322h14.246l-14.246-14.328zM278.177 207.229h14.246l-14.246-14.333zM278.177 225.136h14.246l-14.246-14.325zM278.177 243.034h14.246l-14.246-14.317z"/><path fill="#695A69" d="M278.177 189.322h14.246v3.573h-14.246zM278.177 210.802v.009h14.246v-3.582h-14.246zM278.177 228.709v.008h14.246v-3.581h-14.246z"/><path fill="#A08A8A" d="M278.177 260.94h14.246l-14.246-14.317z"/><path fill="#695A69" d="M278.177 243.034h14.246v3.589h-14.246z"/><path fill="#83727A" d="M274.608 207.229v-14.333h-14.249zM274.608 243.034v-14.317h-14.249zM274.608 189.322v-14.328h-14.249zM274.608 260.94v-14.317h-14.249zM274.608 225.136v-14.325h-14.249z"/><path fill="#A08A8A" d="M260.359 189.322h14.249l-14.249-14.328zM260.359 207.229h14.249l-14.249-14.333zM260.359 225.136h14.249l-14.249-14.325zM260.359 243.034h14.249l-14.249-14.317z"/><path fill="#695A69" d="M260.359 189.322h14.249v3.573h-14.249zM260.359 210.802v.009h14.249v-3.582h-14.249zM260.359 228.709v.008h14.249v-3.581h-14.249z"/><path fill="#A08A8A" d="M260.359 260.94h14.249l-14.249-14.317z"/><path fill="#695A69" d="M260.359 243.034h14.249v3.589h-14.249z"/><path fill="#83727A" d="M256.796 207.229v-14.333h-14.254zM256.796 260.94v-14.317h-14.254zM256.796 243.034v-14.317h-14.254zM256.796 189.322v-14.328h-14.254zM256.796 225.136v-14.325h-14.254z"/><path fill="#A08A8A" d="M242.542 189.322h14.254l-14.254-14.328zM242.542 207.229h14.254l-14.254-14.333zM242.542 225.136h14.254l-14.254-14.325zM242.542 243.034h14.254l-14.254-14.317z"/><path fill="#695A69" d="M242.542 189.322h14.254v3.573h-14.254zM242.542 210.802v.009h14.254v-3.582h-14.254zM242.542 228.709v.008h14.254v-3.581h-14.254z"/><path fill="#A08A8A" d="M242.542 260.94h14.254l-14.254-14.317z"/><path fill="#695A69" d="M242.542 243.034h14.254v3.589h-14.254z"/><path fill="#83727A" d="M238.979 243.034v-14.317h-14.255zM238.979 225.136v-14.325h-14.255zM238.979 207.229v-14.333h-14.255zM238.979 260.94v-14.317h-14.255zM238.979 189.322v-14.328h-14.255z"/><path fill="#A08A8A" d="M224.724 189.322h14.255l-14.255-14.328zM224.724 207.229h14.255l-14.255-14.333zM224.724 225.136h14.255l-14.255-14.325zM224.724 243.034h14.255l-14.255-14.317z"/><path fill="#695A69" d="M224.724 189.322h14.255v3.573h-14.255zM224.724 210.802v.009h14.255v-3.582h-14.255zM224.724 228.709v.008h14.255v-3.581h-14.255z"/><path fill="#A08A8A" d="M224.724 260.94h14.255l-14.255-14.317z"/><path fill="#695A69" d="M224.724 243.034h14.255v3.589h-14.255z"/><path fill="#83727A" d="M221.158 243.034v-14.317h-14.252zM221.158 207.229v-14.333h-14.252zM221.158 225.136v-14.325h-14.252zM221.158 260.94v-14.317h-14.252zM221.158 189.322v-14.328h-14.252z"/><path fill="#A08A8A" d="M206.906 189.322h14.252l-14.252-14.328zM206.906 207.229h14.252l-14.252-14.333zM206.906 225.136h14.252l-14.252-14.325zM206.906 243.034h14.252l-14.252-14.317z"/><path fill="#695A69" d="M206.906 189.322h14.252v3.573h-14.252zM206.906 210.802v.009h14.252v-3.582h-14.252zM206.906 228.709v.008h14.252v-3.581h-14.252z"/><path fill="#A08A8A" d="M206.906 260.94h14.252l-14.252-14.317z"/><path fill="#695A69" d="M206.906 243.034h14.252v3.589h-14.252z"/><g><path fill="#A08A8A" d="M206.906 291.385v8.949H237.2l-30.294-30.437zM288.869 291.385v8.949h30.294l-30.294-30.437zM377.951 291.385v8.949h30.295l-30.295-30.437z"/><path fill="#695A69" d="M206.906 266.315h74.835v3.582h-74.835zM288.869 266.315h81.956v3.582h-81.956zM377.951 266.315h74.836v3.582h-74.836z"/><path fill="#83727A" d="M281.741 269.897h-74.835l30.294 30.437h44.541v-8.949zM370.824 269.897h-81.955l30.294 30.437h51.661v-8.949zM452.787 269.897h-74.836l30.295 30.437h44.541v-8.949z"/><path fill="#695A69" d="M198 291.385h8.906v8.949H198zM452.787 291.385h8.905v8.949h-8.905zM281.741 291.385h7.127v8.949h-7.127zM370.824 291.385h7.127v8.949h-7.127z"/></g></g></g></g></svg>