<svg xmlns="http://www.w3.org/2000/svg" xmlns:xlink="http://www.w3.org/1999/xlink" width="640" height="360" viewBox="0 0 640 360"><path fill="#9cc7d3" d="M0 0h640v300H0z"/><path fill="#9cc7d3" d="M50.75 0h360v300h-360z"/><path fill="#77c67f" d="M0 296.25h640v9.441H0z"/><defs><path id="a" d="M0 0h640v300H0z"/></defs><clipPath id="b"><use xlink:href="#a" overflow="visible"/></clipPath><g clip-path="url(#b)"><g fill="#ffd05b"><path d="M17.247-12.493L9.842-40.582 2.437-12.493zM2.437 53.722l7.405 28.082 7.405-28.082zM42.871 28.097l28.089-7.561-28.089-7.405zM-23.188 13.131l-28.088 7.405 28.088 7.561zM38.547 2.479l14.505-25.153L27.899-8.02zM-18.863 38.744l-14.505 25.157 25.152-14.66zM27.899 49.241l25.153 14.66-14.505-25.157zM-8.216-8.02l-25.152-14.654 14.505 25.153z"/><path d="M43.177 15.29L77.898-7.086 37.62 1.551zM-23.493 26.864l-34.722 22.532 40.278-8.798zM15.548 54.487l22.538 34.728-8.643-40.435zM4.136-12.338L-18.402-46.91-9.76-6.626zM37.62 40.598l45.064 10.647-39.507-24.381zM-17.937 1.551L-63-9.096l39.507 24.386zM-9.76 48.78L-20.406 94 4.136 54.487zM29.443-6.626L40.09-51.689 15.548-12.338z"/></g><path d="M9.842-19.282c22.335 0 40.435 18.105 40.435 40.435 0 22.328-18.1 40.435-40.435 40.435S-30.593 43.48-30.593 21.152c0-22.329 18.1-40.434 40.435-40.434z" fill="#f9b54c"/><path d="M-11.906-1.117c2.596-2.596 5.867-3.522 7.314-2.075 1.442 1.447.521 4.72-2.075 7.315-2.59 2.584-5.861 3.517-7.31 2.069-1.447-1.447-.52-4.718 2.071-7.309z" fill="#fff"/></g><path d="M395.844 68.575a8.81 8.81 0 0 0 .772-3.579c0-4.644-3.771-8.413-8.41-8.413h-.292c-2.223-8.313-9.767-14.504-18.762-14.504-6.281 0-11.892 2.998-15.471 7.638-2.129-1.158-4.546-1.739-7.154-1.739a15.35 15.35 0 0 0-15.373 15.374c0 1.259.191 2.611.48 3.773-7.732 1.45-13.634 8.219-13.634 16.34C318 92.65 325.447 100 334.535 100h54.154c9.182 0 16.535-7.446 16.535-16.535.001-6.573-3.774-12.281-9.38-14.89z" fill="#d0e6ed"/><path d="M200.956 47.713a7.218 7.218 0 0 0 .633-2.933 6.898 6.898 0 0 0-6.892-6.896h-.24C192.637 31.073 186.454 26 179.083 26c-5.146 0-9.744 2.457-12.677 6.259-1.745-.949-3.726-1.425-5.863-1.425a12.578 12.578 0 0 0-12.598 12.598c0 1.032.156 2.141.394 3.093-6.336 1.188-11.173 6.734-11.173 13.39 0 7.527 6.103 13.55 13.55 13.55h44.377c7.524 0 13.55-6.103 13.55-13.55 0-5.388-3.093-10.064-7.687-12.202z" fill="#e1f0f5"/><path d="M287.724 48.016c-.468-.724-.747-1.58-.747-2.434 0-3.157 3.646-5.721 8.133-5.721h.283C297.541 34.21 304.836 30 313.534 30c6.074 0 11.499 2.039 14.961 5.193 2.058-.788 4.396-1.183 6.918-1.183 8.23 0 14.866 4.669 14.866 10.453 0 .855-.185 1.775-.464 2.565 7.477.988 13.185 5.59 13.185 11.112 0 6.245-7.201 11.242-15.99 11.242h-52.368c-8.878 0-15.989-5.063-15.989-11.242-.001-4.47 3.649-8.351 9.071-10.124zM76.222 42.058a11.471 11.471 0 0 1-1.006-4.663c0-6.05 4.912-10.962 10.957-10.962h.381c2.896-10.83 12.725-18.896 24.443-18.896 8.184 0 15.493 3.906 20.156 9.951 2.773-1.509 5.923-2.266 9.321-2.266 11.089 0 20.029 8.945 20.029 20.029 0 1.641-.249 3.403-.625 4.917 10.073 1.89 17.764 10.708 17.764 21.289C177.643 73.425 167.94 83 156.1 83H85.543C73.58 83 64 73.298 64 61.457c0-8.564 4.917-16.001 12.222-19.399z" fill="#b6d6e0"/><path fill="#324a5e" d="M0 295.202V360h640v-64.798z"/><g fill="#2ecc71"><path d="M256.722 341.498l4.371-27.91 10.135 22.32 10.368-22.32 4.101 27.91h-3.018l-2.476-18.375-8.994 19.479-8.878-19.479-2.591 18.375h-3.018zM301.092 325.037h2.824v16.461h-2.824v-2.281c-1.534 1.842-3.423 2.766-5.667 2.766-2.45 0-4.442-.936-5.977-2.805-1.302-1.588-1.954-3.566-1.954-5.939 0-2.76.871-4.945 2.611-6.557 1.483-1.354 3.236-2.031 5.262-2.031 2.256 0 4.165.91 5.725 2.729v-2.343zm-5.3 2.168c-1.6 0-2.927.611-3.984 1.838-.955 1.107-1.432 2.482-1.432 4.117 0 1.975.574 3.547 1.722 4.721 1.006 1.031 2.231 1.547 3.675 1.547 1.767 0 3.185-.682 4.255-2.049.839-1.07 1.258-2.443 1.258-4.119 0-1.975-.573-3.49-1.722-4.547-1.058-.981-2.315-1.483-3.772-1.508zM319.708 326.236v3.713c-.902-1.006-1.738-1.711-2.504-2.115-.768-.408-1.661-.609-2.679-.609-1.754 0-3.185.65-4.294 1.951-1.006 1.162-1.509 2.549-1.509 4.16 0 1.688.542 3.127 1.625 4.313 1.083 1.174 2.463 1.76 4.139 1.76 1.044 0 1.966-.215 2.766-.646.799-.434 1.651-1.176 2.553-2.236v3.734c-1.754 1.148-3.495 1.723-5.222 1.723-2.813 0-5.062-1.027-6.751-3.078-1.328-1.609-1.992-3.453-1.992-5.531 0-2.475.883-4.584 2.65-6.322 1.612-1.588 3.649-2.381 6.112-2.381 1.806-.002 3.507.519 5.106 1.564zM322.007 312.602h2.823v14.371c.71-.826 1.425-1.416 2.147-1.771.723-.354 1.58-.531 2.574-.531.979 0 1.891.203 2.736.609.845.406 1.499.951 1.963 1.635.646.939.968 2.404.968 4.391v10.193h-2.824v-10c0-1.314-.181-2.289-.542-2.92-.528-.904-1.483-1.354-2.863-1.354-1.702 0-2.869.65-3.5 1.951-.439.902-.659 2.271-.659 4.102v8.221h-2.823v-28.897zM339.447 316.836a1.93 1.93 0 0 1 1.421.592c.394.393.59.867.59 1.42 0 .566-.197 1.047-.59 1.441a1.96 1.96 0 0 1-1.441.59 1.917 1.917 0 0 1-1.421-.6 1.99 1.99 0 0 1-.59-1.451c0-.541.197-1.006.59-1.393a2.055 2.055 0 0 1 1.441-.599zm1.392 8.201v16.461h-2.823v-16.461h2.823zM343.756 325.037h2.824v1.992c.709-.877 1.418-1.492 2.128-1.848.709-.354 1.573-.531 2.591-.531.994 0 1.913.203 2.756.609.845.406 1.493.959 1.944 1.654.619.939.928 2.398.928 4.371v10.213h-2.823v-9.73c0-1.531-.181-2.596-.542-3.189-.556-.916-1.522-1.373-2.901-1.373-1.432 0-2.469.48-3.115 1.439-.645.961-.967 2.506-.967 4.633v8.221h-2.824v-16.461zM374.658 333.859h-12.824c.052 1.119.284 2.068.697 2.842.464.863 1.096 1.533 1.895 2.012s1.677.715 2.631.715c1.096 0 2.018-.254 2.766-.764s1.515-1.408 2.302-2.697l2.379 1.336c-.658 1.145-1.334 2.029-2.031 2.648-1.521 1.354-3.358 2.031-5.512 2.031-2.63 0-4.719-.953-6.266-2.863-1.226-1.521-1.837-3.438-1.837-5.746 0-2.668.779-4.809 2.34-6.422 1.469-1.52 3.346-2.281 5.628-2.281 2.359 0 4.255.793 5.686 2.381 1.432 1.584 2.146 3.686 2.146 6.305v.503zm-2.977-2.38c-.181-.914-.497-1.684-.948-2.303-.967-1.301-2.257-1.951-3.868-1.951-1.2 0-2.253.398-3.163 1.199-.909.799-1.473 1.816-1.692 3.055h9.671zM392.09 317.842v23.656h-2.96v-23.656h-6.382v-2.746h15.764v2.746h-6.422zM405.044 324.67c2.592 0 4.746.941 6.461 2.824 1.482 1.625 2.224 3.566 2.224 5.82 0 2.633-.961 4.799-2.882 6.5-1.625 1.445-3.578 2.168-5.86 2.168-1.573 0-3.043-.4-4.411-1.199a8.373 8.373 0 0 1-3.209-3.385c-.672-1.264-1.007-2.67-1.007-4.217 0-2.4.903-4.455 2.708-6.172 1.611-1.519 3.604-2.3 5.976-2.339zm-.019 2.555c-1.884 0-3.379.707-4.488 2.127-.864 1.109-1.295 2.404-1.295 3.887 0 1.896.573 3.416 1.722 4.564 1.096 1.084 2.43 1.625 4.003 1.625 1.922 0 3.456-.707 4.604-2.125.851-1.061 1.275-2.383 1.275-3.967 0-1.857-.58-3.354-1.741-4.488-1.069-1.057-2.43-1.598-4.08-1.623zM423.285 324.67c2.593 0 4.746.941 6.461 2.824 1.483 1.625 2.224 3.566 2.224 5.82 0 2.633-.961 4.799-2.881 6.5-1.626 1.445-3.579 2.168-5.861 2.168-1.573 0-3.043-.4-4.409-1.199a8.364 8.364 0 0 1-3.211-3.385c-.672-1.264-1.007-2.67-1.007-4.217 0-2.4.903-4.455 2.708-6.172 1.612-1.519 3.604-2.3 5.976-2.339zm-.018 2.555c-1.883 0-3.379.707-4.488 2.127-.863 1.109-1.295 2.404-1.295 3.887 0 1.896.573 3.416 1.722 4.564 1.096 1.084 2.431 1.625 4.003 1.625 1.922 0 3.456-.707 4.604-2.125.851-1.061 1.276-2.383 1.276-3.967 0-1.857-.58-3.354-1.742-4.488-1.07-1.057-2.43-1.598-4.08-1.623zM436.75 312.602v28.896h-2.824v-28.896h2.824zM448.64 327.648l-2.341 1.219c-.58-1.096-1.341-1.643-2.282-1.643-.541 0-1.006.176-1.393.531a1.7 1.7 0 0 0-.58 1.305c0 .477.18.877.541 1.201.361.32 1.064.701 2.108 1.139 1.483.621 2.527 1.148 3.134 1.586 1.199.877 1.799 2.084 1.799 3.617 0 1.613-.586 2.934-1.761 3.965-1.069.943-2.358 1.414-3.868 1.414-1.354 0-2.515-.352-3.481-1.055s-1.722-1.75-2.263-3.143l2.476-1.045c.49 1.02.974 1.723 1.451 2.109.477.387 1.096.578 1.856.578.786 0 1.434-.244 1.943-.734.51-.488.765-1.107.765-1.857 0-.631-.181-1.137-.542-1.518-.36-.381-1.069-.797-2.128-1.248-1.508-.645-2.604-1.213-3.288-1.701-.967-.711-1.451-1.742-1.451-3.094 0-1.422.518-2.561 1.549-3.426a4.913 4.913 0 0 1 3.249-1.18c1.985.002 3.487.994 4.507 2.98z"/></g><path fill="#2ecc71" d="M250.374 304.057v-6.455h-60v60h60v-53.545z"/><g fill="#fff"><path d="M214.011 343.398l.253-1.123c.686-.061 1.224-.26 1.613-.596.389-.334.663-.799.824-1.395s.239-1.381.239-2.357c0-.594-.022-1.24-.068-1.943l-.16-2.951h-10.065l-1.259 2.242c-.594 1.055-1.029 1.957-1.304 2.711-.273.754-.411 1.422-.411 2.002 0 1.279.77 2.043 2.311 2.287l-.252 1.123h-9.356l.252-1.123c.472-.061.919-.246 1.338-.561s.865-.787 1.337-1.418c.474-.633 1.137-1.68 1.991-3.145l14.664-25.348h3.455l1.648 25.506c.076 1.205.212 2.148.411 2.828.198.676.469 1.18.811 1.508.344.328.842.537 1.499.629l-.252 1.123h-9.519zm-6.337-12.353h8.945l-.388-7.367a155.64 155.64 0 0 1-.115-3.775c-.031-1.51-.046-2.6-.046-3.271h-.252l-8.144 14.413z"/><path d="M244.374 316.064l-1.382 6.15h-1.922c-.041-.963-.113-1.713-.22-2.252-.108-.541-.227-.941-.361-1.203-.134-.26-.287-.453-.46-.58a1.605 1.605 0 0 0-.649-.27c-.261-.055-.631-.082-1.112-.082h-6.527l-2.282 10.492h3.824c.587 0 1.077-.082 1.472-.238.393-.162.757-.439 1.091-.832.332-.395.707-.998 1.12-1.813h1.822l-1.802 7.688h-1.702c0-.732-.027-1.271-.08-1.621-.054-.346-.124-.605-.211-.771s-.197-.297-.329-.389a1.349 1.349 0 0 0-.521-.201c-.213-.041-.567-.063-1.062-.063h-4.004l-2.562 11.555h5.926c.587 0 1.084-.043 1.492-.131a3.317 3.317 0 0 0 1.111-.449c.333-.213.653-.49.961-.832.307-.34.624-.775.952-1.311.327-.535.771-1.348 1.331-2.445h1.943l-1.763 6.932h-17.76l.222-.984c.506-.08.887-.209 1.14-.389.253-.18.467-.43.641-.75.172-.322.333-.711.48-1.172.146-.461.367-1.352.661-2.672l3.404-15.418c.292-1.336.439-2.41.439-3.225 0-.627-.161-1.064-.48-1.311-.321-.248-.814-.391-1.482-.432l.222-.982h18.419z"/></g><path d="M419.602 280.4v-5.049a.872.872 0 0 0-1.148-.828l-7.855 2.618a.873.873 0 0 0-.597.828v2.431h9.6z" fill="#3a6f81"/><path d="M469.201 298h24v3.2c0 .883-.717 1.6-1.601 1.6h-22.399V298z" fill="#8d8a94"/><path d="M451.85 298.925l-8.248-4.125H496.4v3.2a1.6 1.6 0 0 1-1.6 1.6h-40.089a6.415 6.415 0 0 1-2.861-.675z" fill="#a7a5ac"/><circle cx="472.401" cy="301.2" r="4.8" fill="#504b5a"/><circle cx="472.401" cy="301.2" r="2.4" fill="#dcdbde"/><circle cx="482.001" cy="301.2" r="4.8" fill="#504b5a"/><circle cx="482" cy="301.2" r="2.4" fill="#dcdbde"/><path fill="#b9b7bd" d="M403.602 296.4h35.199v6.399h-35.199z"/><circle cx="429.201" cy="301.2" r="4.8" fill="#504b5a"/><circle cx="429.201" cy="301.2" r="2.4" fill="#dcdbde"/><circle cx="438.801" cy="301.2" r="4.8" fill="#504b5a"/><circle cx="438.801" cy="301.2" r="2.4" fill="#dcdbde"/><path d="M403.602 299.6v-5.51c0-1.658.103-3.315.309-4.961l1.116-8.928a1.6 1.6 0 0 1 1.588-1.401h12.987v17.6h-8v3.199h-8v.001z" fill="#3a6f81"/><path fill="#8eadb7" d="M403.602 296.4h8v3.199h-8z"/><circle cx="411.601" cy="301.2" r="4.8" fill="#504b5a"/><circle cx="411.602" cy="301.2" r="2.4" fill="#dcdbde"/><g fill="#8eadb7"><path d="M411.602 289.467l3.86-.858c.549-.121.939-.608.939-1.171V282.8a.8.8 0 0 0-.8-.8h-4v7.467z"/><path d="M403.715 291.219l11.747-2.61c.549-.121.939-.608.939-1.171V282.8a.8.8 0 0 0-.8-.8h-10.8l-.892 7.129a41.704 41.704 0 0 0-.194 2.09z"/></g><path d="M411.602 282h-6.8l-.892 7.129a40.77 40.77 0 0 0-.195 2.09l7.887-1.752V282z" opacity=".45" fill="#2b2b2b"/><path d="M498 275.601V294.8a1.6 1.6 0 0 1-1.6 1.601h-73.6c-.883 0-1.6-.717-1.6-1.601v-19.199c0-.884.717-1.601 1.6-1.601h73.6a1.6 1.6 0 0 1 1.6 1.601z" fill="#3a6f81"/><path d="M424.401 291.6a1.6 1.6 0 0 1 1.601-1.6h67.199a1.601 1.601 0 0 1 0 3.201h-67.199a1.602 1.602 0 0 1-1.601-1.601z" fill="#2ecc71"/><g><path d="M564.643 332.875h-31.767a1.626 1.626 0 0 1-1.626-1.627V328H580l-10.791 4.047c-1.458.55-3.007.828-4.566.828z" fill="#8d8a94"/><path d="M593.002 329.626H531.25a1.624 1.624 0 0 1-1.623-1.626v-4.875h63.375v6.501z" fill="#a7a5ac"/><path d="M607.627 316.624l-2.842-10.355a1.623 1.623 0 0 0-1.511-1.018h-10.271c-.899 0-1.627.728-1.627 1.623V328H619v-8.341c0-.808-.593-1.494-1.393-1.608l-9.98-1.427z" fill="#369e8a"/><g fill="#2a917d"><path d="M605.396 308.5h-14.02v8.124h16.251zM602.753 332.875h17.874v-6.501a3.25 3.25 0 0 0-3.25-3.249h-11.375a3.25 3.25 0 0 0-3.249 3.249v6.501z"/></g><path d="M621.438 332.875h-18.685v-3.249h18.685c.449 0 .815.362.815.812v1.626a.816.816 0 0 1-.815.811z" fill="#acb3ba"/><circle cx="613.314" cy="332.062" r="5.688" fill="#504b5a"/><circle cx="613.314" cy="332.062" r="3.25" fill="#dcdbde"/><path d="M593.002 332.875h9.751c.896 0 1.622-.728 1.622-1.627v-1.622c0-.899-.727-1.626-1.622-1.626h-9.751c-.899 0-1.626.727-1.626 1.626v1.622c0 .9.727 1.627 1.626 1.627z" fill="#acb3ba"/><circle cx="541.814" cy="332.062" r="5.688" fill="#504b5a"/><circle cx="541.814" cy="332.062" r="3.25" fill="#dcdbde"/><circle cx="554.813" cy="332.062" r="5.688" fill="#504b5a"/><circle cx="554.813" cy="332.062" r="3.25" fill="#dcdbde"/><path d="M590.564 324.751h-1.626a.813.813 0 0 1-.812-.814v-14.625c0-.445.362-.812.812-.812h1.626c.446 0 .812.366.812.812v14.625a.814.814 0 0 1-.812.814z" fill="#787d82"/><path d="M591.376 298.75h-4.874c-.901 0-1.627.727-1.627 1.626v3.249H531.25c-.896 0-1.623.728-1.623 1.627v16.247a1.626 1.626 0 1 0 0 3.253h56.875c.899 0 1.625-.728 1.625-1.627v-21.127h3.249a1.624 1.624 0 1 0 0-3.248z" fill="#736f7b"/><g fill="#625d6b"><path d="M605.693 316.624h1.934l-2.231-8.124h-1.218a1.17 1.17 0 0 0-1.146 1.4l1.089 5.432a1.6 1.6 0 0 0 1.572 1.292zM601.572 316.624h-6.133a.813.813 0 0 1-.814-.812v-6.501c0-.445.366-.812.814-.812h4.729a1.17 1.17 0 0 1 1.147.941l1.206 6.026a.967.967 0 0 1-.949 1.158zM584.064 321.499h-50.377a.813.813 0 0 1-.812-.812v-12.999c0-.449.366-.815.812-.815h50.377c.448 0 .811.366.811.815v12.999a.81.81 0 0 1-.811.812z"/></g><g fill="#736f7b"><path d="M540.188 319.876h-1.626a.814.814 0 0 1-.812-.814v-9.75c0-.445.364-.812.812-.812h1.626c.449 0 .812.366.812.812v9.75a.812.812 0 0 1-.812.814zM549.938 319.876h-1.626a.814.814 0 0 1-.812-.814v-9.75c0-.445.364-.812.812-.812h1.626c.449 0 .812.366.812.812v9.75a.812.812 0 0 1-.812.814zM559.689 319.876h-1.627a.816.816 0 0 1-.812-.814v-9.75c0-.445.366-.812.812-.812h1.627c.448 0 .811.366.811.812v9.75a.812.812 0 0 1-.811.814zM569.438 319.876h-1.626a.814.814 0 0 1-.812-.814v-9.75c0-.445.364-.812.812-.812h1.626c.449 0 .812.366.812.812v9.75a.812.812 0 0 1-.812.814zM579.189 319.876h-1.627a.815.815 0 0 1-.811-.814v-9.75c0-.445.365-.812.811-.812h1.627c.448 0 .811.366.811.812v9.75a.812.812 0 0 1-.811.814z"/></g><path d="M563.752 323.937a.8.8 0 0 1-.609-.276.808.808 0 0 1 .076-1.146l25.996-22.749a.81.81 0 0 1 1.146.077.81.81 0 0 1-.076 1.146l-25.998 22.749a.807.807 0 0 1-.535.199z" fill="#dcdbde"/></g><g><g fill="#ccc"><path d="M166.128 145.699h-25.821l1.411-26.558 1.057-19.928 1.489-27.906.779-14.613h16.347l.778 14.613 1.489 27.906 1.057 19.928zM200.723 145.699h-25.822l1.414-26.558 1.058-19.928 1.484-27.906.784-14.613h16.346l.78 14.613 1.484 27.906 1.062 19.928z"/></g><path fill="#b3b3b3" d="M151.866 56.694v89.005h-11.559l4.736-89.005z"/><path fill="#727fa5" d="M196.767 71.307h-17.91l.784-14.613h16.346zM162.168 71.307h-17.904l.779-14.613h16.347z"/><path fill="#394c81" d="M151.866 56.694v14.613h-7.602l.779-14.613z"/><path fill="#ccc" d="M100 179.113h193.505v114.303H100z"/><path fill="#e6e6e6" d="M118.562 145.699h103.907v33.414H118.562z"/><g fill="#666"><path d="M163.692 192.441h8.227v22.355h-8.227zM177.503 192.441h8.227v22.355h-8.227zM191.312 192.441h8.23v22.355h-8.23zM205.124 192.441h8.226v22.355h-8.226zM218.932 192.441h8.23v22.355h-8.23zM232.744 192.441h8.229v22.355h-8.229zM246.555 192.441h8.227v22.355h-8.227zM260.363 192.441h8.23v22.355h-8.23zM274.175 192.441h8.227v22.355h-8.227z"/></g><path fill="#e6e6e6" d="M215.791 224.389h94.799v69.027h-94.799z"/><path fill="#666" d="M268.939 253.423h29.986v39.993h-29.986z"/><path fill="#4d4d4d" d="M268.939 253.423h23.432v39.993h-23.432z"/><path fill="#b3b3b3" d="M163.692 224.389h52.098v69.027h-52.098z"/><path fill="#64c0ae" d="M199.313 119.141h-22.998l1.058-19.928h20.878zM164.714 119.141h-22.996l1.057-19.928h20.882z"/><path fill="#16a085" d="M151.866 99.213v19.928h-10.148l1.064-19.928z"/><path fill="#b3b3b3" d="M186.46 56.694v89.005h-11.559l4.74-89.005z"/><path fill="#394c81" d="M186.46 56.694v14.613h-7.603l.784-14.613z"/><path fill="#16a085" d="M186.46 99.213v19.928h-10.145l1.065-19.928z"/><g fill="#666"><path d="M126.386 156.722h7.973v22.392h-7.973zM139.768 156.722h7.973v22.392h-7.973zM153.149 156.722h7.973v22.392h-7.973zM166.531 156.722h7.969v22.392h-7.969zM179.909 156.722h7.973v22.392h-7.973zM193.29 156.722h7.973v22.392h-7.973zM206.672 156.722h7.973v22.392h-7.973z"/></g><g fill="#666"><path d="M222.193 235.862h6.262v6.27h-6.262zM233.012 235.862h6.263v6.27h-6.263zM243.83 235.862h6.262v6.27h-6.262zM254.648 235.862h6.262v6.27h-6.262zM265.466 235.862h6.262v6.27h-6.262zM276.284 235.862h6.263v6.27h-6.263zM287.102 235.862h6.266v6.27h-6.266zM297.919 235.862h6.267v6.27h-6.267z"/></g><g fill="#666"><path d="M170.381 235.862h6.263v6.27h-6.263zM181.199 235.862h6.266v6.27h-6.266zM192.017 235.862h6.266v6.27h-6.266zM202.835 235.862h6.266v6.27h-6.266z"/></g><g fill="#666"><path d="M170.381 252.661h6.263v6.262h-6.263zM181.199 252.661h6.266v6.262h-6.266zM192.017 252.661h6.266v6.262h-6.266zM202.835 252.661h6.266v6.262h-6.266z"/></g><g fill="#666"><path d="M170.381 269.459h6.263v6.263h-6.263zM181.199 269.459h6.266v6.263h-6.266zM192.017 269.459h6.266v6.263h-6.266zM202.835 269.459h6.266v6.263h-6.266z"/></g><path fill="#666" d="M249.669 274.368h11.325v19.048h-11.325z"/><path fill="#b3b3b3" d="M100 179.113h52.867v114.303H100z"/><g fill="#666"><path d="M106.361 192.441h6.336v55.382h-6.336zM117.631 192.441h6.336v55.382h-6.336zM128.9 192.441h6.337v55.382H128.9zM140.169 192.441h6.337v55.382h-6.337z"/></g><path fill="#666" d="M132.43 274.368h11.326v19.048H132.43z"/><path fill="#64c0ae" d="M268.939 276.095h22.169v12.567h-22.169z"/><path fill="#16a085" d="M282.976 276.095h12.24l-3.107 12.567h-12.238z"/><circle cx="277.246" cy="291.039" r="2.377" fill="gray"/><path d="M287.052 288.662a2.375 2.375 0 0 1 2.377 2.377 2.378 2.378 0 1 1-2.377-2.377z" fill="gray"/><circle cx="276.013" cy="291.039" r="2.377" fill="#666"/><path d="M285.818 288.662a2.378 2.378 0 1 1 .006 4.756 2.378 2.378 0 0 1-.006-4.756z" fill="#666"/><path d="M280.033 292.004h5.943a.813.813 0 0 0 .813-.811.81.81 0 0 0-.813-.811h-5.943a.812.812 0 0 0 0 1.622z" fill="gray"/></g><g><path d="M72.568 312.327H60.447v3.637h-40c-.669 0-1.212.543-1.212 1.212v2.425c0 .669.543 1.212 1.212 1.212h52.12l.001-8.486z" fill="#625d6b"/><path d="M61.659 286.873H16.811c-.669 0-1.212.543-1.212 1.212v26.667c0 .669.543 1.212 1.212 1.212H61.66c.67 0 1.212-.543 1.212-1.212v-26.667a1.213 1.213 0 0 0-1.213-1.212z" fill="#4e5e6a"/><g fill="#2c9984"><path d="M59.235 313.54h-40a1.213 1.213 0 0 1 0-2.425h40a1.213 1.213 0 0 1 0 2.425zM59.235 291.722h-40a1.213 1.213 0 0 1 0-2.425h40a1.212 1.212 0 1 1 0 2.425z"/></g><path d="M76.964 292.934H66.508c-.669 0-1.212.543-1.212 1.212v18.183c0 .669.543 1.212 1.212 1.212h5.454v6.061H84.69v-8.658c0-1.488-.274-2.963-.808-4.352l-4.655-12.104a2.426 2.426 0 0 0-2.263-1.554z" fill="#369e8a"/><path fill="#34595f" d="M71.962 313.54H84.69v6.061H71.962z"/><circle cx="29.538" cy="320.206" r="5.556" fill="#ededee"/><path d="M29.538 326.873a6.674 6.674 0 0 1-6.667-6.667c0-3.676 2.991-6.666 6.667-6.666s6.666 2.99 6.666 6.666a6.673 6.673 0 0 1-6.666 6.667zm0-10.909c-2.34 0-4.242 1.902-4.242 4.242s1.902 4.243 4.242 4.243 4.242-1.903 4.242-4.243-1.902-4.242-4.242-4.242z" fill="#504b5a"/><circle cx="29.538" cy="320.207" r="2.424" fill="#dcdbde"/><circle cx="71.962" cy="320.206" r="5.556" fill="#ededee"/><path d="M71.962 326.873a6.673 6.673 0 0 1-6.666-6.667c0-3.676 2.99-6.666 6.666-6.666s6.667 2.99 6.667 6.666a6.675 6.675 0 0 1-6.667 6.667zm0-10.909c-2.34 0-4.242 1.902-4.242 4.242s1.902 4.243 4.242 4.243 4.242-1.903 4.242-4.243-1.902-4.242-4.242-4.242z" fill="#504b5a"/><circle cx="71.962" cy="320.207" r="2.424" fill="#dcdbde"/><path d="M83.478 320.813h1.212c.669 0 1.212-.543 1.212-1.212v-2.425c0-.669-.543-1.212-1.212-1.212h-1.212c-.67 0-1.213.543-1.213 1.212v2.425c0 .669.543 1.212 1.213 1.212z" fill="#625d6b"/><path d="M83.478 311.115h1.212v3.637h-1.212c-.67 0-1.213-.543-1.213-1.212v-1.213c0-.669.543-1.212 1.213-1.212z" fill="#ededee"/><path d="M76.598 295.357h-7.666c-.669 0-1.212.543-1.212 1.213v6.061c0 .669.543 1.212 1.212 1.212h11.319a.875.875 0 0 0 .817-1.19l-2.208-5.74a2.424 2.424 0 0 0-2.262-1.556z" fill="#625d6b"/></g></svg>