<svg xmlns="http://www.w3.org/2000/svg" width="1024" height="1024" viewBox="0 0 1024 1024"><path fill="#2F2831" d="M1021 512.003C1021 793.113 793.108 1021 512.001 1021 230.888 1021 3 793.113 3 512.003 3 230.889 230.888 3 512.001 3 793.108 3 1021 230.889 1021 512.003z"/><path fill="#E5DDCB" d="M603.661 611.103H577.91c-14.162 0-19.313-9.012-19.313-12.869 0-16.742 41.846-19.317 57.294-21.891 18.667-2.575 113.303-17.384 113.303-103.645 0-42.483-24.464-68.884-50.214-83.047l36.049 4.51c11.587 1.288 19.958 1.929 27.037 1.929 21.247 0 23.818-6.438 27.683-16.095l14.81-37.336c-33.476 6.437-68.239 9.657-99.141 9.657-18.025 0-36.051-.646-54.076-1.934-13.519-.645-27.039-1.928-40.557-1.928-38.336 0-70.02 8.227-94.418 21.922v-176.36c-10.943 7.724-20.601 10.299-34.117 10.299h-49.569c18.668 12.874 22.532 28.322 22.532 45.064v119.099c-37.341-30.903-74.678-38.627-107.507-38.627-90.127 0-160.94 68.884-160.94 168.021 0 93.984 68.883 166.731 169.953 166.731 37.334 0 43.13-6.438 50.21-18.67l28.324-48.28c-19.955 14.16-38.622 18.022-64.374 18.022-66.306 0-117.164-52.789-117.164-124.883 0-68.243 46.994-112.021 104.287-112.021 50.858 0 97.211 34.125 97.211 102.362v173.811h162.652c91.416 0 113.303 30.198 113.303 59.16 0 38.629-36.693 73.392-122.314 73.392-70.167 0-106.218-32.189-106.218-65.661 0-17.388 10.302-30.903 28.322-32.19-11.584-6.438-22.529-9.658-35.403-9.658-43.131 0-68.882 23.173-68.882 55.364 0 52.791 72.102 94.634 186.046 94.634 106.86 0 192.48-48.926 192.48-121.028 0-97.209-124.888-97.854-181.538-97.854zm-25.106-219.516c46.35 0 83.69 34.119 83.69 75.962s-30.257 68.884-72.104 68.884c-48.28 0-84.975-37.341-84.975-82.398.001-36.699 30.899-62.448 73.389-62.448zm-82.188 196.576v-29.095c10.88 5.449 22.922 9.355 35.838 11.482l-35.838 17.613z"/><path fill="#EB7B59" d="M837.528 380.508l19.706-49.698a681.53 681.53 0 0 1-15.605 2.808l-24.858 66.938c13.845-2.901 16.816-10.212 20.757-20.048zM819.003 379.159l17.913-45.181a624.606 624.606 0 0 1-14.186 2.552l-22.598 60.853c12.588-2.63 15.29-9.281 18.871-18.224zM802.161 377.933l16.288-41.068a566.367 566.367 0 0 1-12.897 2.315l-20.544 55.32c11.443-2.392 13.898-8.436 17.153-16.567zM786.853 376.818l14.807-37.336a512.215 512.215 0 0 1-11.726 2.107l-18.675 50.29c10.403-2.172 12.635-7.664 15.594-15.061z"/></svg>