<svg xmlns="http://www.w3.org/2000/svg" width="360" height="360" viewBox="0 0 360 360"><path fill="#c5f8f1" d="M-5-5h370v259H-5z"/><path fill="#60938c" d="M-5 202.375h370v11.75H-5z"/><path fill="#71be63" d="M-5 214h370v40H-5z"/><path fill="#c5f8f1" d="M0 0h360v227.354H0z"/><path d="M344.519 206.265c-1.792.141-3.554-.041-5.148-.931-4.571-2.553-5.468-8.644-9.263-12.024-5.584-4.975-13.252-6.021-20.447-6.195-8.919-.217-17.833.501-26.645 1.864a234.325 234.325 0 0 0-14.542 2.747c-13.236 2.913-26.263 6.75-39.103 11.071a465.494 465.494 0 0 0-16.764 6.006c3.763 2.41 7.792 5.239 12.035 8.114.787.277 1.573.554 2.359.815v.762c4.084 2.718 8.336 5.403 12.73 7.715 4.579 2.41 9.301 4.402 14.108 5.624a8513.718 8513.718 0 0 1 23.569-7.36c6.885-2.14 14.011-8.934 20.019-13.06 10.572-7.262 25.679 5.839 36.406 7.669 3.437.586 9.323 1.72 12.72.544 2.62-.908 3.49-2.851 6.32-2.852 2.32-.001 4.828.205 7.128-.042-.001-4.727-.054-9.531-.003-14.292-1.332 2.359-6.572 2.067-8.961 2.561-2.046.426-4.305 1.09-6.518 1.264z" fill="#60938c"/><path fill="#71be63" d="M-5 289h370v31H-5z"/><path fill="#43ab5f" d="M-5 320h370v45H-5z"/><path fill="#94d75b" d="M-5 254h370v35H-5z"/><path d="M119.183 227.075l2.229.635a53.955 53.955 0 0 0 2.171-.555c-1.72.126-2.636.198-2.636.198-.59-.071-1.176-.177-1.764-.278z" fill="#60938c"/><path d="M119.606 213.542c-13.635-5.939-26.34-14.07-37.303-19.818-18.833 4.235-34.678 9.021-46.53 14.455-3.531-4.834-8.723-11.172-12.409-9.977-1.349.438-2.698.856-4.048 1.268-4.306.891-11.564 1.99-19.316 3.061v32.518c1.562-.055 3.189-.09 4.926-.09 2.554-.503 5.11-1.047 7.666-1.616a289.157 289.157 0 0 0 10.772-2.61c3.174-.838 7.47 2.877 10.858 6.438.66-.048 1.346-.087 2.026-.128v-.03c1.854-.062 3.711-.121 5.595-.156 10.998-3.558 24.696-6.754 40.459-9.64 9.818 4.19 21.042 9.928 33.074 14.555l7.187 1.507v-28.507c-.988-.402-1.978-.804-2.957-1.23z" fill="#60938c"/><path d="M356.1 213.282c-.027-.279.468-.96.397-1.245a.14.14 0 0 0-.021-.05c-.512-.796-4.461.434-5.184.645-2.002.585-4.06.997-6.005 1.766-3.333 1.318-6.482 2.178-10.1 1.825-3.743-.365-7.343-1.605-10.884-2.811-3.834-1.305-7.57-2.839-11.442-4.039-3.221-.999-6.536-2.311-9.97-2.067-1.959.139-3.807.825-5.468 1.861-6.008 3.747-13.134 9.916-20.019 11.859a9158.656 9158.656 0 0 0-23.569 6.684c-4.806-1.109-9.528-2.919-14.107-5.107-4.394-2.1-8.646-4.538-12.73-7.006v-.691c-.786-.238-1.572-.489-2.359-.741-4.243-2.611-8.272-5.18-12.035-7.368-.182-.105-.371-.222-.552-.326-1.259.311-2.498.626-3.721.944v-1.235c-7.937 2.063-15.102 4.281-21.333 6.67-7.192-2.758-15.623-5.287-25.055-7.614-3.917 2.253-8.138 4.956-12.586 7.692-.787.253-1.573.504-2.359.741v.691c-4.084 2.468-8.336 4.906-12.73 7.006-3.888 1.857-7.879 3.438-11.937 4.553-.722.197-1.445.387-2.171.555l-2.229-.635a8306.654 8306.654 0 0 0-21.341-6.049c-8.926-4.627-17.253-10.364-24.538-14.555-11.695 2.886-21.858 6.082-30.017 9.64-2.525.064-5.024.169-7.473.311-2.281.132-4.5.306-6.653.517-.61.06-1.233.111-1.83.178-2.207-3.562-5.004-7.276-7.072-6.438a135.833 135.833 0 0 1-7.016 2.61 147.66 147.66 0 0 1-4.993 1.616c-2.636 0-4.947.159-7 .432V254h359.998c0-3.323.004-6.646 0-9.969-.01-10.002-.106-19.986 0-29.984-.854-.107-3.754.703-3.896-.765z" fill="#71be63"/><path fill="#43ab5f" d="M0 320h360v40H0z"/><path fill="#71be63" d="M0 289h360v31H0z"/><path fill="#94d75b" d="M0 254h360v35H0z"/><path d="M16.384 39.611c-1.925 0-3.747.483-5.48 1.186-2.528-4.662-5.828-8.578-9.653-11.466v33.773h33.454c-.008-12.974-8.213-23.493-18.321-23.493z" fill="#fff"/><path d="M346.327 106.521c-1.257-.397-2.569-.67-3.961-.67-7.314 0-13.247 5.931-13.247 13.248H360V97.478c-5.643 1.159-10.491 4.473-13.673 9.043z" fill="#e4fcfb"/><path d="M20.259 206.006l-.169.224c.094-.079.156-.154.169-.224z" fill="#2980b9"/><path d="M243.177 238.883l.455 3.634a987.71 987.71 0 0 1 8.261-.029l-1.938-5.659 1.938-.002-1.602-5.745c-1.908.547-3.775 1.082-5.571 1.6l.4 6.696c-.647-.167-1.296-.33-1.943-.495zM211.361 227.038c-6.84.146-13.509.321-19.927.515l2.359 10.992a350.067 350.067 0 0 1 17.568-11.507z" fill="#71be63"/><path d="M8.358 346.8a3.947 3.947 0 0 0 0-7.894c-.037 0-.071.01-.108.011v7.873c.037 0 .071.01.108.01z" fill="#43ab5f"/><path d="M.108 346.8a3.947 3.947 0 0 0 0-7.894c-.037 0-.071.01-.108.011v7.873c.037 0 .071.01.108.01z" opacity=".63" fill="#71be63"/><path d="M2.745 280.545a2.73 2.73 0 0 0-1.93-3.344 2.7 2.7 0 0 0-.815-.078v5.439a2.725 2.725 0 0 0 2.745-2.017z" fill="#6fa144"/><path d="M69.113 243.25c0-4.185-3.339-20.498-5.452-20.498-2.111 0-5.451 16.314-5.451 20.498 0 3.737 1.952 5.799 4.514 6.199v5.129a.936.936 0 1 0 1.875 0v-5.129c2.562-.4 4.514-2.462 4.514-6.199z" fill="#43ab5f"/><path d="M55.432 243.373c0-5.317-4.245-26.054-6.929-26.054-2.685 0-6.929 20.737-6.929 26.054 0 4.75 2.481 7.371 5.737 7.879v6.52a1.192 1.192 0 0 0 2.383 0v-6.52c3.258-.508 5.738-3.129 5.738-7.879z" fill="#94d75b"/><path d="M110.796 269.422a4.735 4.735 0 0 1-4.737-4.736v-74.209a4.736 4.736 0 0 1 4.737-4.737 4.736 4.736 0 0 1 4.737 4.737v74.209a4.735 4.735 0 0 1-4.737 4.736z" fill="#674447"/><path d="M155.37 207.317a19.194 19.194 0 0 0 3.458-10.991c0-8.633-5.702-15.857-13.518-18.331-.069-.057-.125-.128-.195-.187.697-1.975 1.15-4.065 1.15-6.279 0-10.464-8.483-18.948-18.947-18.948-1.516 0-2.97.225-4.383.561-4.29-6.054-11.317-10.032-19.302-10.032-13.08 0-23.684 10.603-23.684 23.683 0 2.75.561 5.348 1.421 7.803-9.264 4.683-15.631 14.264-15.631 25.354 0 15.647 12.647 28.335 28.275 28.414 3.999 3.648 9.269 5.929 15.108 5.929 4.342 0 8.358-1.287 11.796-3.418a29.49 29.49 0 0 0 5.435.525c3.593 0 7.019-.675 10.202-1.849 9.261 1.286 18.596 2.364 19.183 1.583.471-.628-.583-8.689-2.023-18.167a29.53 29.53 0 0 0 1.655-5.65z" fill="#43ab5f"/><path d="M155.37 207.317a19.194 19.194 0 0 0 3.458-10.991c0-8.633-5.702-15.857-13.518-18.331-.069-.057-.125-.128-.195-.187.697-1.975 1.15-4.065 1.15-6.279 0-10.464-8.483-18.948-18.947-18.948-1.516 0-2.97.225-4.383.561-4.29-6.054-11.317-10.032-19.302-10.032-6.138 0-11.679 2.395-15.886 6.226 1.963-.527 3.988-.898 6.117-.898 7.984 0 15.012 3.98 19.302 10.033 1.413-.336 2.867-.559 4.382-.559 10.464 0 18.947 8.482 18.947 18.947 0 2.213-.452 4.306-1.149 6.279.07.057.126.128.195.187 7.815 2.473 13.517 9.698 13.517 18.331 0 4.09-1.289 7.869-3.458 10.991a29.605 29.605 0 0 1-1.656 5.65c.723 4.752 1.346 9.144 1.731 12.426 5.461.628 9.675.928 10.062.412.471-.628-.583-8.689-2.023-18.167a29.492 29.492 0 0 0 1.656-5.651z" fill="#71be63"/><path fill="#de7e68" d="M143.657 195.214l42.632-42.632 85.262 85.263v33.158H143.657z"/><path fill="#99645f" d="M174.693 269.424H276.09v4.784H174.693z"/><path fill="#ecf0f1" d="M172.078 271.003h-56.841v-37.896l28.42-14.209 28.421 14.209z"/><path d="M288.282 72.567c-1.302 0-2.533.256-3.711.629-3.735-5.37-9.931-8.9-16.967-8.9-7.035 0-13.23 3.53-16.966 8.9-1.18-.373-2.409-.629-3.71-.629-6.853 0-12.408 5.553-12.408 12.405h66.166c.001-6.851-5.552-12.405-12.404-12.405z" fill="#ddfbfa"/><path d="M280.846 22.334c-1.676 0-3.262.445-4.771 1.093-4.799-9.369-12.763-15.526-21.808-15.526-9.043 0-17.009 6.158-21.807 15.526-1.516-.647-3.1-1.093-4.771-1.093-8.808 0-15.946 9.693-15.946 21.65h85.05c-.005-11.956-7.147-21.65-15.947-21.65zM160.439 22.334c-1.676 0-3.262.445-4.771 1.093-4.799-9.369-12.763-15.526-21.808-15.526-9.043 0-17.009 6.158-21.807 15.526-1.516-.647-3.1-1.093-4.771-1.093-8.808 0-15.946 9.693-15.946 21.65h85.05c-.004-11.956-7.147-21.65-15.947-21.65z" fill="#fff"/><path d="M95.1 43.837c-.313 0-.608.083-.89.204-.895-1.747-2.38-2.896-4.067-2.896-1.687 0-3.172 1.148-4.067 2.896a2.257 2.257 0 0 0-.89-.204c-1.643 0-2.974 1.808-2.974 4.038h15.862c-.001-2.23-1.333-4.038-2.974-4.038zM75.077 45.545c-.313 0-.608.083-.89.204-.895-1.747-2.38-2.896-4.067-2.896-1.687 0-3.172 1.148-4.067 2.896a2.257 2.257 0 0 0-.89-.204c-1.643 0-2.974 1.808-2.974 4.038h15.862c0-2.23-1.332-4.038-2.974-4.038z" fill="#fff"/><path d="M230.846 38.192c-1.077 0-2.095.212-3.07.52-3.088-4.44-8.213-7.361-14.031-7.361-5.819 0-10.943 2.92-14.032 7.361-.975-.308-1.993-.52-3.069-.52-5.666 0-10.26 4.594-10.26 10.26h54.722c-.001-5.666-4.594-10.26-10.26-10.26zM47.654 125.317c-.644 0-1.251.127-1.834.311-1.844-2.652-4.905-4.396-8.38-4.396-3.476 0-6.536 1.744-8.381 4.396-.582-.184-1.19-.311-1.833-.311a6.129 6.129 0 0 0-6.128 6.128h32.683a6.128 6.128 0 0 0-6.127-6.128zM139.46 77.411c-1.077 0-2.095.212-3.07.52-3.088-4.44-8.213-7.361-14.031-7.361-5.819 0-10.943 2.92-14.032 7.361-.975-.308-1.993-.52-3.069-.52-5.666 0-10.26 4.594-10.26 10.26h54.722c0-5.666-4.594-10.26-10.26-10.26z" fill="#ddfbfa"/><path fill="#99645f" d="M273.774 245.092l-87.485-87.487-44.856 44.857-5.024-5.023 49.88-49.879 92.51 92.509zM174.339 238.209l-30.682-15.341-30.682 15.341-3.174-6.355 33.856-16.928 33.856 16.928z"/><path fill="#63a0b5" d="M157.868 199.95h14.21v18.948h-14.21z"/><path d="M173.262 220.082h-16.579v-21.315h16.579v21.315zm-14.21-2.369h11.842v-16.58h-11.842v16.58z" fill="#556483"/><path fill="#556483" d="M157.868 203.503h14.21v2.368h-14.21z"/><path fill="#63a0b5" d="M181.552 199.95h14.21v18.948h-14.21z"/><path d="M196.946 220.082h-16.579v-21.315h16.579v21.315zm-14.21-2.369h11.842v-16.58h-11.842v16.58z" fill="#556483"/><path fill="#556483" d="M181.552 203.503h14.21v2.368h-14.21z"/><path fill="#63a0b5" d="M205.235 199.95h14.21v18.948h-14.21z"/><path d="M220.629 220.082h-16.578v-21.315h16.578v21.315zm-14.209-2.369h11.841v-16.58H206.42v16.58z" fill="#556483"/><path fill="#556483" d="M205.235 203.503h14.21v2.368h-14.21z"/><path fill="#63a0b5" d="M191.025 237.845h14.21v18.946h-14.21z"/><path d="M206.42 257.977h-16.578V236.66h16.578v21.317zm-14.211-2.37h11.843v-16.578h-11.843v16.578z" fill="#556483"/><path fill="#556483" d="M191.025 241.396h14.21v2.369h-14.21z"/><path fill="#63a0b5" d="M214.709 237.845h14.21v18.946h-14.21z"/><path d="M230.103 257.977h-16.578V236.66h16.578v21.317zm-14.209-2.37h11.842v-16.578h-11.842v16.578z" fill="#556483"/><path fill="#556483" d="M214.709 241.396h14.21v2.369h-14.21z"/><path fill="#63a0b5" d="M238.393 237.845h14.21v18.946h-14.21z"/><path d="M253.789 257.977H237.21V236.66h16.579v21.317zm-14.212-2.37h11.842v-16.578h-11.842v16.578z" fill="#556483"/><path fill="#556483" d="M238.393 241.396h14.21v2.369h-14.21z"/><path fill="#63a0b5" d="M124.71 237.845h14.209v18.946H124.71z"/><path d="M140.104 257.977h-16.579V236.66h16.579v21.317zm-14.21-2.37h11.842v-16.578h-11.842v16.578z" fill="#556483"/><path fill="#556483" d="M124.71 241.396h14.209v2.369H124.71z"/><path fill="#63a0b5" d="M148.395 237.845h14.21v18.946h-14.21z"/><path d="M163.788 257.977H147.21V236.66h16.578v21.317zm-14.21-2.37h11.842v-16.578h-11.842v16.578z" fill="#556483"/><path fill="#556483" d="M148.395 241.396h14.21v2.369h-14.21z"/><path d="M143.817 261.365c-1.831 0-3.563.36-5.222.884-5.256-7.555-13.974-12.522-23.875-12.522s-18.62 4.968-23.875 12.522c-1.659-.523-3.391-.884-5.223-.884-9.642 0-17.458 7.816-17.458 17.458h93.11c.001-9.641-7.815-17.458-17.457-17.458z" fill="#71be63"/><path d="M132.622 261.364c-1.832 0-3.563.36-5.222.884-4.229-6.08-10.75-10.335-18.277-11.824-7.526 1.489-14.048 5.744-18.277 11.824-1.66-.523-3.391-.884-5.223-.884-9.642 0-17.458 7.817-17.458 17.459h81.916c0-9.641-7.817-17.459-17.459-17.459z" fill="#43ab5f"/><path d="M142.958 278.737c0-5.607 4.546-10.153 10.154-10.153.847 0 1.656.133 2.442.33 2.649-2.861 6.405-4.682 10.613-4.682 8.011 0 14.505 6.494 14.505 14.505h-37.714z" fill="#71be63"/><path d="M163.629 264.504a14.496 14.496 0 0 0-8.076 4.41c-.787-.195-1.595-.33-2.442-.33-5.607 0-10.153 4.546-10.153 10.153h32.472c.001-7.085-5.085-12.964-11.801-14.233zM67.165 255.333c-.726 0-1.412.136-2.071.334-2.083-2.857-5.54-4.735-9.464-4.735-3.925 0-7.381 1.878-9.465 4.735-.658-.198-1.343-.334-2.07-.334-3.822 0-6.92 2.954-6.92 6.602h36.912c-.001-3.647-3.1-6.602-6.922-6.602z" fill="#43ab5f"/><circle cx="195.454" cy="350.435" r="3.947" fill="#94d75b"/><circle cx="241.587" cy="342.458" r="3.948" fill="#94d75b"/><circle cx="166.515" cy="346.011" r="3.948" fill="#71be63"/><circle cx="271.551" cy="291" r="3.948" fill="#71be63"/><circle cx="196.128" cy="306.025" r="3.948" fill="#94d75b"/><circle cx="340.718" cy="348.084" r="3.947" fill="#94d75b"/><circle cx="92.809" cy="338.765" r="3.948" fill="#71be63"/><circle cx="35.168" cy="270.813" r="2.272" fill="#71be63"/><circle cx="65.739" cy="333.28" r="3.948" fill="#94d75b"/><circle cx="286.021" cy="285.294" r="2.73" fill="#b0eb81"/><circle cx="136.592" cy="299.752" r="2.731" fill="#94d75b"/><circle cx="248.23" cy="310.968" r="2.731" fill="#94d75b"/><path d="M326.247 297.02a2.73 2.73 0 1 1 0 0zM326.247 297.02a2.73 2.73 0 1 1 0 0z" fill="#94d75b"/><circle cx="339.5" cy="309.973" r="2.73" fill="#b0eb81"/><circle cx="53.541" cy="308.83" r="2.73" fill="#94d75b"/><circle cx="53.541" cy="272.866" r="2.73" fill="#a9df7c"/><circle cx="351.868" cy="263.502" r="2.73" fill="#b0eb81"/><circle cx="74.069" cy="296.044" r="3.948" fill="#94d75b"/><circle cx="218.659" cy="338.104" r="3.947" fill="#94d75b"/><circle cx="126.171" cy="300.988" r="2.731" fill="#94d75b"/><circle cx="10.922" cy="299.508" r="2.73" fill="#b0eb81"/><path d="M204.188 287.039a2.73 2.73 0 1 1 0 0zM204.188 287.039a2.73 2.73 0 1 1 0 0z" fill="#94d75b"/><circle cx="242.557" cy="296.119" r="2.73" fill="#b0eb81"/><path d="M226.434 117.493c0-13.359-10.831-24.189-24.19-24.189-2.017 0-3.945.319-5.817.783-6.313-6.815-15.261-11.15-25.285-11.15-19.086 0-34.557 15.472-34.557 34.556h89.849z" fill="#e4fcfb"/><circle cx="149.905" cy="91.843" r="27.547" fill="#ffcb66"/><path d="M160.152 104.156c-1.401 0-2.72.274-3.989.675-4.015-5.772-10.677-9.567-18.237-9.567-7.565 0-14.225 3.795-18.239 9.567-1.268-.401-2.589-.675-3.988-.675-7.364 0-13.338 5.971-13.338 13.336h71.127c0-7.365-5.971-13.336-13.336-13.336z" fill="#fff"/><path d="M7.309 31.952c-2.106 0-4.118.344-6.059.868v23.942h30.868c0-13.704-11.105-24.81-24.809-24.81z" fill="#ddfbfa"/><path fill="#fff" d="M-3.75 57.25h5v5.855h-5z"/><path fill="#ddfbfa" d="M-3.75 32.259h5v24.503h-5z"/><path fill="#fff" d="M-3.75 29.331h5v2.928h-5zM46.531 120.638c-.313 0-.608.083-.89.204-.895-1.747-2.38-2.896-4.067-2.896-1.687 0-3.172 1.148-4.067 2.896a2.257 2.257 0 0 0-.89-.204c-1.643 0-2.974 1.808-2.974 4.038h15.862c0-2.23-1.332-4.038-2.974-4.038z"/></svg>