<svg xmlns="http://www.w3.org/2000/svg" xmlns:xlink="http://www.w3.org/1999/xlink" width="360" height="360" viewBox="0 0 360 360"><linearGradient id="a" gradientUnits="userSpaceOnUse" x1="-2619.183" y1="-863.955" x2="-2081.984" y2="-808.8" gradientTransform="matrix(.4413 0 0 -.4608 489.4 818.306)"><stop offset="0" stop-color="#bbb"/><stop offset="1" stop-color="#fff"/></linearGradient><linearGradient id="b" gradientUnits="userSpaceOnUse" x1="-2370.328" y1="-1111.99" x2="-2368.914" y2="-922.505" gradientTransform="matrix(.4413 0 0 -.4608 489.4 818.306)"><stop offset="0" stop-color="#c9c9c9"/><stop offset="1" stop-color="#c9c9c9" stop-opacity="0"/></linearGradient><title>Pedestrian Landscaping</title><defs><path id="c" d="M0 0h360v360H0z"/></defs><clipPath id="d"><use xlink:href="#c" overflow="visible"/></clipPath><g clip-path="url(#d)"><path fill="#9af4ef" d="M-140 0h640v254h-640z"/><path d="M179.776 163.209c-97.858 0-184.25 37.474-235.985 94.654h471.97c-51.737-57.179-138.127-94.654-235.985-94.654z" fill="#c5f8f1"/><path d="M237.246 181.599c-90.012 0-168.853 43.399-212.521 108.401h425.043c-43.668-65.001-122.51-108.401-212.522-108.401z" fill="#fff"/><path d="M499.775 200.217a180.73 180.73 0 0 0-.099-2.244 53.86 53.86 0 0 1-3.526 2.244s-28.186 13.277-35.299 15.526c-21.355 6.75-46.22 8.84-68.232 2.292-2.797-.832-5.419-.978-8.483-.86-2.723.105-5.795.419-9.664.657-15.04-5.197-31.162-11.378-45.324-15.647a687.88 687.88 0 0 0-21.125-3.549 859.12 859.12 0 0 0-9.069-1.339c-.498.092-.98.214-1.448.363-2.25.715-4.147 2.075-5.752 3.909-7.395-3.185-13.899-5.087-19.402-4.445-16.042 1.872-38.972 9.979-38.972 9.979l10.264 18.489c-65.961-.041-130.946 4.106-130.946 4.106-17.584-1.728-34.34-14.576-47.642-22.228-18.698 4.613-33.478 10.02-42.42 16.431-.031 1.247-6.668-13.828-10.625-12.224-74.887 30.355-152.008-14.555-152.008-14.555V257.861h640v-57.644h-.228z" fill="#b0eb81"/><path fill="#43ab5f" d="M500 319v1.05h-639.999V361h640v-42z"/><path fill="#71be63" d="M500 321v-31h-640v32h.001v-1z"/><path fill="#94d75b" d="M499.931 255v.792H-140V255v35h640v-35z"/><path d="M60.863 242.25c0-4.185-3.339-20.498-5.452-20.498-2.111 0-5.451 16.314-5.451 20.498 0 3.737 1.952 5.799 4.514 6.199v5.129a.936.936 0 1 0 1.875 0v-5.129c2.562-.4 4.514-2.462 4.514-6.199z" fill="#a5c63b"/><path d="M47.182 242.373c0-5.317-4.245-26.054-6.929-26.054-2.685 0-6.929 20.737-6.929 26.054 0 4.75 2.481 7.371 5.737 7.879v6.52a1.192 1.192 0 0 0 2.383 0v-6.52c3.258-.508 5.738-3.129 5.738-7.879z" fill="#94d75b"/><path d="M102.546 268.422a4.735 4.735 0 0 1-4.737-4.736v-74.209a4.736 4.736 0 0 1 4.737-4.737 4.736 4.736 0 0 1 4.737 4.737v74.209a4.735 4.735 0 0 1-4.737 4.736z" fill="#674447"/><path d="M147.12 206.317a19.194 19.194 0 0 0 3.458-10.991c0-8.633-5.702-15.857-13.518-18.331-.069-.057-.125-.128-.195-.187.697-1.975 1.15-4.065 1.15-6.279 0-10.464-8.483-18.948-18.947-18.948-1.516 0-2.97.225-4.383.561-4.29-6.054-11.317-10.032-19.302-10.032-13.08 0-23.684 10.603-23.684 23.683 0 2.75.561 5.348 1.421 7.803-9.264 4.683-15.631 14.264-15.631 25.354 0 15.647 12.647 28.335 28.275 28.414 3.999 3.648 9.269 5.929 15.108 5.929 4.342 0 8.358-1.287 11.796-3.418a29.49 29.49 0 0 0 5.435.525c3.593 0 7.019-.675 10.202-1.849 9.261 1.286 18.596 2.364 19.183 1.583.471-.628-.583-8.689-2.023-18.167a29.53 29.53 0 0 0 1.655-5.65z" fill="#43ab5f"/><path d="M147.12 206.317a19.194 19.194 0 0 0 3.458-10.991c0-8.633-5.702-15.857-13.518-18.331-.069-.057-.125-.128-.195-.187.697-1.975 1.15-4.065 1.15-6.279 0-10.464-8.483-18.948-18.947-18.948-1.516 0-2.97.225-4.383.561-4.29-6.054-11.317-10.032-19.302-10.032-6.138 0-11.679 2.395-15.886 6.226 1.963-.527 3.988-.898 6.117-.898 7.984 0 15.012 3.98 19.302 10.033 1.413-.336 2.867-.559 4.382-.559 10.464 0 18.947 8.482 18.947 18.947 0 2.213-.452 4.306-1.149 6.279.07.057.126.128.195.187 7.815 2.473 13.517 9.698 13.517 18.331 0 4.09-1.289 7.869-3.458 10.991a29.605 29.605 0 0 1-1.656 5.65c.723 4.752 1.346 9.144 1.731 12.426 5.461.628 9.675.928 10.062.412.471-.628-.583-8.689-2.023-18.167a29.492 29.492 0 0 0 1.656-5.651z" fill="#71be63"/><path fill="#de7e68" d="M135.407 194.214l42.632-42.632 85.262 85.263v33.158H135.407z"/><path fill="#99645f" d="M166.443 268.424H267.84v4.784H166.443z"/><path fill="#ecf0f1" d="M163.828 270.003h-56.841v-37.896l28.42-14.209 28.421 14.209z"/><path d="M192.546 55.799c-1.211 0-2.357.238-3.454.585-3.476-4.998-9.242-8.283-15.791-8.283-6.547 0-12.313 3.286-15.79 8.283-1.097-.347-2.242-.585-3.453-.585-6.377 0-11.546 5.168-11.546 11.545h61.579c0-6.377-5.169-11.545-11.545-11.545zM375.61 72.995c-1.211 0-2.356.237-3.454.584-3.476-4.998-9.243-8.282-15.791-8.282-6.546 0-12.313 3.285-15.789 8.282-1.098-.347-2.242-.584-3.452-.584-6.379 0-11.548 5.167-11.548 11.544h61.579c.002-6.377-5.168-11.544-11.545-11.544zM250.42 90.604c-.575 0-1.12.113-1.639.276-1.648-2.37-4.384-3.928-7.49-3.928s-5.842 1.558-7.49 3.928a5.425 5.425 0 0 0-1.638-.276 5.478 5.478 0 0 0-5.478 5.477h29.212a5.479 5.479 0 0 0-5.477-5.477z" fill="#fff"/><path d="M334.162 80.754c-.575 0-1.118.113-1.638.277-1.649-2.37-4.384-3.928-7.49-3.928-3.107 0-5.841 1.558-7.491 3.928a5.415 5.415 0 0 0-1.638-.277 5.479 5.479 0 0 0-5.478 5.478h29.212a5.476 5.476 0 0 0-5.477-5.478zM176.31 23.933a5.42 5.42 0 0 0-1.638.278c-1.649-2.371-4.383-3.929-7.49-3.929-3.105 0-5.841 1.558-7.49 3.929-.521-.164-1.063-.278-1.638-.278a5.479 5.479 0 0 0-5.478 5.478h29.21a5.476 5.476 0 0 0-5.476-5.478zM289.621 99.572c-.895 0-1.736.175-2.546.431-2.563-3.684-6.814-6.105-11.64-6.105-4.828 0-9.078 2.422-11.641 6.105-.809-.255-1.652-.431-2.545-.431a8.513 8.513 0 0 0-8.513 8.512h45.395a8.51 8.51 0 0 0-8.51-8.512zM129.728 51.008c-1.077 0-2.094.212-3.07.52-3.088-4.44-8.212-7.361-14.032-7.361-5.819 0-10.943 2.92-14.032 7.361-.975-.308-1.993-.52-3.069-.52-5.667 0-10.26 4.594-10.26 10.26h54.722c.001-5.665-4.592-10.26-10.259-10.26z" fill="#fff"/><path fill="#99645f" d="M265.524 244.092l-87.485-87.487-44.856 44.857-5.024-5.023 49.88-49.879 92.51 92.509zM166.089 237.209l-30.682-15.341-30.682 15.341-3.174-6.355 33.856-16.928 33.856 16.928z"/><path fill="#63a0b5" d="M149.618 198.95h14.21v18.948h-14.21z"/><path d="M165.012 219.082h-16.579v-21.315h16.579v21.315zm-14.21-2.369h11.842v-16.58h-11.842v16.58z" fill="#556483"/><path fill="#556483" d="M149.618 202.503h14.21v2.368h-14.21z"/><path fill="#63a0b5" d="M173.302 198.95h14.21v18.948h-14.21z"/><path d="M188.696 219.082h-16.579v-21.315h16.579v21.315zm-14.21-2.369h11.842v-16.58h-11.842v16.58z" fill="#556483"/><path fill="#556483" d="M173.302 202.503h14.21v2.368h-14.21z"/><path fill="#63a0b5" d="M196.985 198.95h14.21v18.948h-14.21z"/><path d="M212.379 219.082h-16.578v-21.315h16.578v21.315zm-14.209-2.369h11.841v-16.58H198.17v16.58z" fill="#556483"/><path fill="#556483" d="M196.985 202.503h14.21v2.368h-14.21z"/><path fill="#63a0b5" d="M182.775 236.845h14.21v18.946h-14.21z"/><path d="M198.17 256.977h-16.578V235.66h16.578v21.317zm-14.211-2.37h11.843v-16.578h-11.843v16.578z" fill="#556483"/><path fill="#556483" d="M182.775 240.396h14.21v2.369h-14.21z"/><path fill="#63a0b5" d="M206.459 236.845h14.21v18.946h-14.21z"/><path d="M221.853 256.977h-16.578V235.66h16.578v21.317zm-14.209-2.37h11.842v-16.578h-11.842v16.578z" fill="#556483"/><path fill="#556483" d="M206.459 240.396h14.21v2.369h-14.21z"/><path fill="#63a0b5" d="M230.143 236.845h14.21v18.946h-14.21z"/><path d="M245.539 256.977H228.96V235.66h16.579v21.317zm-14.212-2.37h11.842v-16.578h-11.842v16.578z" fill="#556483"/><path d="M-11.331 241.815c0 7.967-15.533 14.425-34.696 14.425-19.161 0-34.695-6.458-34.695-14.425 0-7.966 15.534-29.19 34.695-29.19 20.076 0 34.696 21.944 34.696 29.19z" fill="#43ab5f"/><path fill="#556483" d="M230.143 240.396h14.21v2.369h-14.21z"/><path fill="#63a0b5" d="M116.46 236.845h14.209v18.946H116.46z"/><path d="M131.854 256.977h-16.579V235.66h16.579v21.317zm-14.21-2.37h11.842v-16.578h-11.842v16.578z" fill="#556483"/><path fill="#556483" d="M116.46 240.396h14.209v2.369H116.46z"/><path fill="#63a0b5" d="M140.145 236.845h14.21v18.946h-14.21z"/><path d="M155.538 256.977H138.96V235.66h16.578v21.317zm-14.21-2.37h11.842v-16.578h-11.842v16.578z" fill="#556483"/><path fill="#556483" d="M140.145 240.396h14.21v2.369h-14.21z"/><path d="M135.567 260.365c-1.831 0-3.563.36-5.222.884-5.256-7.555-13.974-12.522-23.875-12.522s-18.62 4.968-23.875 12.522c-1.659-.523-3.391-.884-5.223-.884-9.642 0-17.458 7.816-17.458 17.458h93.11c.001-9.641-7.815-17.458-17.457-17.458z" fill="#71be63"/><path d="M124.372 260.364c-1.832 0-3.563.36-5.222.884-4.229-6.08-10.75-10.335-18.277-11.824-7.526 1.489-14.048 5.744-18.277 11.824-1.66-.523-3.391-.884-5.223-.884-9.642 0-17.458 7.817-17.458 17.459h81.916c0-9.641-7.817-17.459-17.459-17.459z" fill="#43ab5f"/><path d="M134.708 277.737c0-5.607 4.546-10.153 10.154-10.153.847 0 1.656.133 2.442.33 2.649-2.861 6.405-4.682 10.613-4.682 8.011 0 14.505 6.494 14.505 14.505h-37.714z" fill="#71be63"/><path d="M155.379 263.504a14.496 14.496 0 0 0-8.076 4.41c-.787-.195-1.595-.33-2.442-.33-5.607 0-10.153 4.546-10.153 10.153h32.472c.001-7.085-5.085-12.964-11.801-14.233z" fill="#43ab5f"/><path d="M60.43 252.762a5.36 5.36 0 0 0-1.618.273c-1.627-2.34-4.327-3.877-7.392-3.877-3.065 0-5.765 1.537-7.393 3.877a5.344 5.344 0 0 0-1.617-.273 5.404 5.404 0 0 0-5.405 5.405h28.831a5.405 5.405 0 0 0-5.406-5.405z" fill="#69bc7f"/><path d="M116.605 100.114c0-6.647 5.389-12.037 12.037-12.037 1.003 0 1.963.159 2.895.39 3.141-3.392 7.594-5.548 12.582-5.548 9.498 0 17.196 7.699 17.196 17.195h-44.71zM-56.21 76.734c-1.434 0-2.79.282-4.088.692-4.112-5.913-10.935-9.801-18.685-9.801-7.748 0-14.571 3.888-18.685 9.801-1.298-.41-2.653-.692-4.087-.692-7.546 0-13.663 6.118-13.663 13.662h72.87c0-7.544-6.116-13.662-13.662-13.662zM-104.086 55.03c0-6.647 5.389-12.037 12.038-12.037 1.003 0 1.962.159 2.894.39 3.141-3.391 7.595-5.549 12.582-5.549 9.498 0 17.196 7.699 17.196 17.196h-44.71z" fill="#fff"/><path d="M-64.785 99.851c0-10.378 8.414-18.792 18.793-18.792 1.566 0 3.064.248 4.519.608 4.904-5.294 11.857-8.663 19.643-8.663 14.828 0 26.847 12.021 26.847 26.847h-69.802zM237.489 68.294a7.4 7.4 0 0 1 7.4-7.4c.617 0 1.209.098 1.78.24 1.931-2.084 4.669-3.411 7.732-3.411 5.841 0 10.573 4.733 10.573 10.571h-27.485zM373.413 92.238a7.4 7.4 0 0 1 7.398-7.4c.618 0 1.209.098 1.78.24 1.932-2.084 4.67-3.411 7.734-3.411 5.838 0 10.572 4.733 10.572 10.571h-27.484z" fill="#fff"/><circle cx="187.204" cy="349.435" r="3.947" fill="#94d75b"/><circle cx="233.337" cy="341.458" r="3.948" fill="#94d75b"/><circle cx="158.265" cy="345.011" r="3.948" fill="#71be63"/><circle cx="202.458" cy="339.781" r="3.947" fill="#71be63"/><circle cx="267.84" cy="344.608" r="3.948" fill="#94d75b"/><circle cx="288.182" cy="332.28" r="3.947" fill="#94d75b"/><circle cx="464.956" cy="307.83" r="3.947" fill="#71be63"/><circle cx="257.303" cy="330.601" r="3.948" fill="#71be63"/><circle cx="378.601" cy="355.061" r="3.947" fill="#94d75b"/><circle cx="332.468" cy="347.084" r="3.947" fill="#94d75b"/><circle cx="407.54" cy="350.638" r="3.947" fill="#71be63"/><circle cx="363.349" cy="345.406" r="3.947" fill="#71be63"/><circle cx="-92.005" cy="338.159" r="3.948" opacity=".57" fill="#94d75b"/><circle cx="-69.284" cy="349.031" r="3.948" fill="#94d75b"/><circle cx="12.423" cy="336.631" r="3.948" fill="#71be63"/><circle cx="56.617" cy="331.4" r="3.947" fill="#71be63"/><circle cx=".108" cy="341.852" r="3.948" opacity=".63" fill="#71be63"/><circle cx="-65.336" cy="334.117" r="3.948" fill="#94d75b"/><circle cx="439.965" cy="342.985" r="3.947" fill="#94d75b"/><circle cx="393.831" cy="335.009" r="3.947" fill="#94d75b"/><circle cx="468.903" cy="338.563" r="3.947" fill="#71be63"/><circle cx="424.711" cy="333.332" r="3.948" fill="#71be63"/><circle cx="-42.078" cy="346.68" r="3.948" fill="#94d75b"/><circle cx="84.559" cy="337.765" r="3.948" fill="#71be63"/><circle cx="-120.981" cy="346.761" r="3.948" fill="#71be63"/><circle cx="112.625" cy="345.011" r="3.948" fill="#94d75b"/><circle cx="36.419" cy="343.994" r="3.947" fill="#71be63"/><circle cx="431.367" cy="338.16" r="3.947" fill="#71be63"/><circle cx="132.177" cy="300.889" r="2.73" fill="#94d75b"/><circle cx="204.518" cy="300.889" r="2.73" fill="#b0eb81"/><circle cx="102.546" cy="310.625" r="2.73" fill="#b0eb81"/><circle cx="84.052" cy="303.621" r="2.73" fill="#94d75b"/><circle cx="147.25" cy="307.896" r="2.73" fill="#b0eb81"/><circle cx="259.68" cy="303.621" r="2.73" fill="#b0eb81"/><circle cx="181.986" cy="309.968" r="2.731" fill="#94d75b"/><circle cx="371.371" cy="298.488" r="2.73" fill="#94d75b"/><circle cx="443.711" cy="298.488" r="2.73" fill="#b0eb81"/><circle cx="386.442" cy="305.495" r="2.73" fill="#b0eb81"/><circle cx="421.18" cy="307.567" r="2.731" fill="#94d75b"/><circle cx="239.98" cy="309.968" r="2.731" fill="#94d75b"/><circle cx="95.1" cy="298.752" r="2.73" fill="#94d75b"/><circle cx="22.758" cy="298.752" r="2.73" fill="#b0eb81"/><circle cx="124.731" cy="308.488" r="2.73" fill="#b0eb81"/><circle cx="-59.209" cy="313.354" r="2.73" fill="#94d75b"/><circle cx="-99.756" cy="308.487" r="2.73" fill="#b0eb81"/><circle cx="-118.25" cy="305.758" r="2.73" fill="#94d75b"/><path d="M-57.783 301.482a2.73 2.73 0 1 1 5.461-.003 2.73 2.73 0 0 1-5.461.003z" fill="#b0eb81"/><circle cx="-19.093" cy="313.355" r="2.73" fill="#94d75b"/><circle cx="-77.571" cy="300.889" r="2.73" fill="#b0eb81"/><path d="M317.997 296.02a2.73 2.73 0 1 1 0 0z" fill="#94d75b"/><circle cx="356.366" cy="305.1" r="2.73" fill="#b0eb81"/><circle cx="-32.402" cy="301.482" r="2.73" fill="#b0eb81"/><circle cx="45.291" cy="307.83" r="2.73" fill="#94d75b"/><circle cx=".108" cy="278.838" r="2.73" fill="#6fa144"/><circle cx="472.85" cy="270.004" r="2.73" fill="#43ab5f"/><circle cx="351.376" cy="278.746" r="2.73" fill="#6fa144"/><circle cx="-42.078" cy="271.988" r="2.73" fill="#8dcb82"/><circle cx="45.291" cy="271.866" r="2.73" fill="#a9df7c"/><circle cx="-117.033" cy="270.816" r="2.73" fill="#69bc7f"/><circle cx="446.958" cy="276.106" r="2.73" fill="#d0f3b3"/><circle cx="419.968" cy="281.475" r="2.729" fill="#6fa144"/><circle cx="411.274" cy="269.258" r="2.73" fill="#bfe79d"/><circle cx="384.284" cy="274.626" r="2.729" fill="#43ab5f"/><circle cx="343.618" cy="262.502" r="2.73" fill="#b0eb81"/><circle cx="-88.057" cy="273.208" r="2.73" fill="#43ab5f"/><circle cx="12.423" cy="313.355" r="2.731" fill="#94d75b"/><path d="M279.835 271.386c0-3.012-2.404-14.759-3.927-14.759-1.52 0-3.924 11.747-3.924 14.759 0 2.692 1.406 4.176 3.25 4.464v3.691a.676.676 0 0 0 1.351 0v-3.691c1.844-.288 3.25-1.772 3.25-4.464zM270.835 271.386c0-3.012-2.404-14.759-3.927-14.759-1.52 0-3.924 11.747-3.924 14.759 0 2.692 1.406 4.176 3.25 4.464v3.691a.676.676 0 0 0 1.351 0v-3.691c1.844-.288 3.25-1.772 3.25-4.464zM261.835 271.386c0-3.012-2.404-14.759-3.927-14.759-1.52 0-3.924 11.747-3.924 14.759 0 2.692 1.406 4.176 3.25 4.464v3.691a.676.676 0 0 0 1.351 0v-3.691c1.844-.288 3.25-1.772 3.25-4.464zM252.835 271.386c0-3.012-2.404-14.759-3.927-14.759-1.52 0-3.924 11.747-3.924 14.759 0 2.692 1.406 4.176 3.25 4.464v3.691a.676.676 0 0 0 1.351 0v-3.691c1.844-.288 3.25-1.772 3.25-4.464z" fill="#43ab5f"/><path d="M26.522 255.662h7.583c-2.064-4.421-6.299-.778-7.583 0z" fill="none"/><path d="M499.931 210.787v23.991c.075-7.765.106-16.493 0-23.991z" fill="#b0eb81"/><path d="M297.457 198.918v.542c.468-.141.95-.257 1.448-.345l-1.448-.197z" fill="#defbf2"/><g><path d="M37.749 88.109c42.074-.938 253.499-13.221 277.377-9.359 9.158 1.479 9.978 5.938-.405 10.297-16.028 6.72-82.516 29.948-104.986 34.164-22.472 4.208 26.537-4.654 53.926-25.74 7.141-5.504 1.024-8.202-4.949-9.26-19.879-3.523-220.963-.102-220.963-.102z" fill="#2bbe69"/><g fill="#3a6f81"><path d="M145.332 92.732l-.146.31-.34.341v.113c-.12.021-.235.097-.343.228-.023.054-.061.082-.115.082-.096.172-.33.303-.698.388a.693.693 0 0 1-.584.277h-.081v.097h-.327l-.195.147-.18.017c0 .085-.036.126-.111.126l-.147.117h-.375l-.227.21-.666.13-.081.066-.374-.032-.033.08-.111.195c-.054-.032-.212-.059-.471-.08l-.148.08-.227.082-.147.098-.21.066-.097.308.162.31-.081.387.115.438-.1.066.13.197v.325l.067.162v.292l.373-.032a.247.247 0 0 1 .08.179c0 .161-.112.244-.34.244h-.098l-.26.1-.226-.409-.293-.631v-.668l-.163-.325.114-.13-.065-.326.033-.225-.114-.147-.667-.112-.178-.263.812-.063-.083-.05a.137.137 0 0 1 .098-.033c.056 0 .09.01.115.033v-.372l.097-.196.049-.977.098-.11-.032-.75.064-.405.032-.892.099-.263.129-.081-.032-.245c.009-.109.075-.163.195-.163.366 0 .552.125.552.374 0 .074-.066.237-.195.487a1.05 1.05 0 0 0-.064.26c0 .088.06.233.178.438l-.146.148-.016.438-.211.194.065.341-.13.373.065.358-.064.277.034.21-.115.18c.01.172.087.275.227.306l.407-.243h.342a.745.745 0 0 1 .55-.226l.115-.1a.65.65 0 0 0 .227.03c.217 0 .434-.09.65-.274l.26-.017.212-.178h.212l.047-.083.86-.243c.154-.01.229-.05.229-.114a.3.3 0 0 0 .08-.145c.053.008.114.015.179.015.142 0 .232-.095.276-.293.172-.02.266-.051.276-.096.01-.044.054-.082.13-.113l.096.083.083-.247.113-.096.065-.358-.146-.36-.211-.29-.163-.031-.292-.26-.602-.261c-.39-.292-.801-.456-1.234-.486v.112l-.277-.196-.374.017-.227-.146h-.26l-.226-.13h-.23a.678.678 0 0 1-.178-.031l-.098-.098-.633-.082c-.108.032-.27.09-.487.179l-.374-.228-.227.13-.18-.114-.34.097v.049h-.146l-.326.178-.325.05-.211.129-.13-.18a1.4 1.4 0 0 1-.131-.404l.164-.228v-.113c.022-.044.115-.073.285-.09.168-.015.317-.056.446-.121.13.023.207.03.228.03.053 0 .1-.02.146-.063l.146.063.163-.03c.065 0 .113.03.146.097h.782l.469.017.537.098a.592.592 0 0 1 .245.164l.112-.114h.065c.12 0 .179.02.179.064a.1.1 0 0 1-.017.048h.228l.375.11.357.035.048.099h.438l.342.226.292.033.082.128h.08c.27 0 .466.107.585.326l.21-.113v.195l.162.064.246.18h.194l.146.226.522.344v.176l.34.508zM157.987 97.606c0 .034-.164.186-.488.457l-.178-.065-.211.326-.26.032-.242.11-.471-.11-.261.11-.081.149c-.152-.12-.25-.18-.292-.18-.022.01-.034.028-.034.05l-.08-.016-.147.147-.147-.18-.111.05c-.098-.076-.186-.113-.26-.113h-.524l-.147-.162-.178.03-.261-.146-.162.082-.113-.196h-.244l-.147-.177h-.195c-.01 0-.042-.042-.097-.125a.64.64 0 0 0-.227-.202l-.488-.261a1.307 1.307 0 0 1-.308-.193 1.728 1.728 0 0 1-.357-.522h-.196l-.26-.326-.471-.373-.536-.62-.146-.047-.292-.307-.292-.101a.393.393 0 0 1-.194.066.245.245 0 0 1-.164-.066v.018c0 .01-.01.015-.033.015h-.163l-.162-.226.082-.115.032-.21.194-.066v-.096l.21-.05a.311.311 0 0 1 .196-.08.26.26 0 0 1 .137.042c.05.026.08.04.09.04.02 0 .038-.017.049-.048.066.196.293.292.683.292.183 0 .41-.015.682-.05l.147-.05v-.048l1.216-.05.229-.112.292-.065.374-.033.096.033.277-.098.065-.1.194.017.244-.097h.179c.129 0 .195-.05.195-.146v-.063a.702.702 0 0 0 .195-.066l.26-.083c.238-.13.356-.282.356-.454 0-.121-.06-.238-.18-.358l-.535-.52h-.13a2.51 2.51 0 0 0-.471-.226h-.161l-.327-.147h-.194l-.211-.163h-.372l-.146-.065-.896-.065-.146-.082-.096.049-.18-.05-.178.05-.472-.05-.485.083-.262-.082-.292.033-.26-.033-.194.082-.147-.05-.292.179-.228-.033-.113.229-.128.176.096.228-.05.94.114.813-.113.375-.064.325-.116 2.08.13 1.187-.095.634v.164c0 .086-.106.129-.311.129h-.063l.08-.635-.08-.245-.147-.666.098-.064c-.13-.164-.196-.272-.196-.326.01-.045.028-.105.049-.18l.128-.146-.128-.26h-.016c-.01 0-.022-.005-.033-.015 0-.066.066-.217.195-.457a.419.419 0 0 1-.113-.308c0-.076.016-.163.049-.259v-.129c.076-.142.114-.254.114-.343a.895.895 0 0 0-.114-.375l.114-.273-.05-.245.099-.082a.31.31 0 0 1-.05-.164c0-.076.038-.208.113-.388l-.162.031-.097-.439.08-.307-.08-.666.08-.082c-.171-.174-.302-.262-.39-.262h-.05l-.112.114-.373-.031-.244.306a.586.586 0 0 0-.31-.16.504.504 0 0 1-.13-.26c0-.099.039-.186.115-.26l.259-.179.489-.049.665-.033.147-.112v-.047c0-.16.124-.244.375-.244h.193l.064.195c.066.1.14.148.228.148a.215.215 0 0 0 .08-.017l.262-.13.405.1.633-.1.844.1 1.188.031.6.112h.456l.18.147c.022-.066.054-.098.098-.098.043 0 .097.032.162.098 0 .076.022.141.067.193l.16.033v-.21l.65.262.229.177.03-.049.163.082.262.033.11.13.147.031.212.326c.216.334.326.545.326.634a.57.57 0 0 1-.18.421l-.358.36-.26.291-.34.017-.228.114-.063.133h-.454l-.164.148-.358.111c-.15 0-.324.05-.52.147l-.211.194-.26-.178-.228.114a.219.219 0 0 0-.13-.05c-.065 0-.148.05-.245.147l-.226-.097-.212.097-.081-.097-.292.164-.196-.033c-.021 0-.053-.007-.098-.015h-.097a.981.981 0 0 0-.243.031l.163.228.389.341.113.195.632.483.147.263.147.162.163.39.438.017.487.504.26.112.357.228.342.097.486.194.179-.03.082.064.032-.033.065.115.228-.049.049.162.18-.112.193.048.553-.048.229.048.779-.13.584-.164.034.1.112-.197h.244l.099-.226a.612.612 0 0 1 .069.227zM168.082 94.097l-.146.359-.05.484-.146.148-.164.522a.698.698 0 0 1-.086.21c-.028.033-.108.066-.236.098l-.958.761-.326.166-.228.207v-.096l-.666.522-.292.13-.697.373a.725.725 0 0 0-.292-.064.194.194 0 0 0-.171.082.243.243 0 0 1-.121.097l-.148-.033-.261.245-.13-.067-.065.084h-.274l-.147.145-.49-.032-.778.146a.522.522 0 0 0-.145-.015c-.055 0-.137.01-.247.033l-.275-.048-.066-.067-.682-.112-.325-.164h-.147v-.307l-.23.08-.175-.245-.343-.16-.113-.375-.033-.456-.082-.115-.032-.647.229-.7-.034-.342.146-.128-.113-.277.276-.226v-.228l.098-.211v-.18l.113-.194-.047-.066.08-.05.343-.779.632-1.008c.109-.032.207-.13.292-.293l.263-.194-.033-.145h.193l-.05-.099c.13-.128.3-.226.505-.291l.114-.13h-.016c.032-.01.26-.044.68-.098l.376-.05.472.066.358-.017h.423c.106.021.183.033.227.033.15 0 .265-.049.339-.146a.257.257 0 0 0 .18.08.303.303 0 0 0 .083-.015c.01.11.064.162.163.162.042.046.163.078.357.098l.113.115.246.031h.307l.439.229h-.097l.358.257.097.18.243.115.114.194.277.114.39.664.227.342c.27.812.407 1.208.407 1.187v.111h-.003zm-.521-.424l-.146-.372c0-.022.005-.042.017-.065v-.049a.363.363 0 0 0-.18-.324l-.194-.132-.115-.306-.098-.052-.048-.176-.455-.487-.407-.341-.128.05-.587-.374c-.15-.022-.394-.093-.73-.21 0 .01-.015.015-.048.015-.01 0-.092-.008-.245-.031l-.082.048-.243-.08-.162.08a1.563 1.563 0 0 0-.292-.063.42.42 0 0 0-.14.03.433.433 0 0 1-.137.033c-.054 0-.092-.01-.114-.032a1.119 1.119 0 0 0-.292.212c-.044.064-.141.127-.293.194l-.226-.052-.228.15-.26-.033-.145.063c-.142.142-.387.32-.732.539l-.163.292.015.227-.34.146-.145.18c-.077.174-.175.32-.292.438v.196l-.115.048-.114.146-.146.47-.277.18c-.031.663-.103 1.072-.211 1.235-.097.098-.163.309-.193.636l-.1.292.1.195.048.29.179.245.05.259.259.262c.41.225.759.345 1.04.357l.52-.13.114.113h.26v.115h.262l.064-.197.26-.03.649.08c.055-.108.12-.162.196-.162h.033c.01.012.02.015.03.015.25-.15.422-.226.522-.226h.064l.39-.245.277-.017.21-.18.374-.016a.66.66 0 0 0 .397-.146l.153-.13.212-.05.115-.306.047.015.033-.113.18-.065.128-.15.148.05.08-.161.262-.196.438-.487.259-.098.13-.274.21-.148-.048-.293.112-.26-.064-.47.098-.167zM177.573 92.732l-.144.31-.342.341v.113c-.121.021-.234.097-.342.228-.022.054-.06.082-.114.082-.097.172-.33.303-.7.388a.693.693 0 0 1-.584.277h-.08v.097h-.326l-.194.147-.18.017c0 .085-.038.126-.114.126l-.146.117h-.374l-.226.21-.666.13-.083.066-.372-.032-.032.08-.115.195c-.053-.032-.21-.059-.471-.08l-.146.08-.226.082-.148.098-.211.066-.097.308.164.31-.081.387.114.438-.1.066.13.197v.325l.066.162v.292l.373-.032a.241.241 0 0 1 .082.179c0 .161-.113.244-.34.244h-.098l-.26.1-.226-.409-.293-.631v-.668l-.163-.325.113-.13-.064-.326.032-.225-.114-.147-.665-.112-.18-.263.813-.063-.082-.05c.02-.021.054-.033.096-.033.055 0 .092.01.114.033v-.372l.097-.196.05-.977.097-.11-.032-.75.065-.405.033-.892.097-.263.129-.081-.032-.245c.01-.109.075-.163.195-.163.368 0 .553.125.553.374 0 .074-.067.237-.195.487a1.04 1.04 0 0 0-.066.26c0 .088.06.233.18.438l-.147.148-.017.438-.21.194.065.341-.13.373.065.358-.064.277.03.21-.111.18c.01.172.086.275.227.306l.405-.243h.34a.752.752 0 0 1 .554-.226l.113-.1c.055.021.13.03.228.03.217 0 .433-.09.65-.274l.26-.017.21-.178h.212l.048-.083.862-.243c.15-.01.227-.05.227-.114a.285.285 0 0 0 .08-.145c.054.008.115.015.18.015.142 0 .233-.095.278-.293.172-.02.264-.051.274-.096.01-.044.054-.082.13-.113l.098.083.082-.247.112-.096.066-.358-.146-.36-.211-.29-.163-.031-.292-.26-.603-.261c-.39-.292-.8-.456-1.234-.486v.112l-.276-.196-.374.017-.227-.146h-.26l-.228-.13h-.227a.685.685 0 0 1-.18-.031l-.098-.098-.633-.082a5.574 5.574 0 0 0-.486.179l-.374-.228-.23.13-.176-.114-.341.097v.049h-.146l-.326.178-.326.05-.21.129-.13-.18a1.342 1.342 0 0 1-.13-.404l.164-.228v-.113c.02-.044.115-.073.285-.09.167-.015.315-.056.446-.121.128.023.206.03.227.03.053 0 .1-.02.146-.063l.146.063.163-.03c.066 0 .112.03.145.097h.78l.472.017.537.098a.603.603 0 0 1 .244.164l.113-.114h.065c.12 0 .179.02.179.064 0 .01-.007.026-.016.048h.227l.374.11.357.035.049.099h.438l.34.226.293.033.082.128h.082c.27 0 .465.107.584.326l.21-.113v.195l.164.064.244.18h.194l.147.226.52.344v.176l.34.508zM186.946 90.118a.291.291 0 0 1-.082.177h-.178l-.115.082-.227-.082-.26.015a.778.778 0 0 1-.18-.015c-.064-.063-.118-.096-.162-.096-.042 0-.113.033-.211.096a.443.443 0 0 0-.21-.063.898.898 0 0 0-.292.079c-.13.053-.245.086-.342.097a2.23 2.23 0 0 1-.21-.013c-.096-.01-.171-.018-.227-.018-.065 0-.11.032-.13.097a.388.388 0 0 0-.258-.098c-.152 0-.31.066-.473.197l-.161-.083-.15.083-.372-.114-.26.146h-.292c-.118.032-.305.075-.551.13l-.262.13-.146-.097-.292.228-.291-.017-.212.39.082.309c-.11.03-.162.17-.162.422 0 .01.006.032.017.065v.066a2.798 2.798 0 0 0-.017.34l.047.067-.113.098.066.097a1.135 1.135 0 0 0-.114.438c0 .237.142.358.424.358a.822.822 0 0 0 .186-.032.836.836 0 0 1 .188-.032l.122.025c.08.015.166.03.25.04l.245-.096.26.08.164-.05.164.018.243-.048.149.03h.03c.066 0 .163-.032.292-.097a.808.808 0 0 0 .456.033h.16l.212-.066c.217.045.338.066.358.066.033 0 .066-.033.098-.1.304.057.465.084.486.084a.71.71 0 0 0 .179-.017c.14 0 .326.012.553.033l.292-.066c.02-.066.086-.097.194-.097.089 0 .21.016.375.048l.146-.032.21.08.21-.048-.048.194c-.184.076-.324.114-.423.114a.76.76 0 0 1-.162-.033 2.056 2.056 0 0 0-.245-.047l-.422.209-.357-.031-.212.082-.145-.032-.262.146-.18-.05-.65.014a.29.29 0 0 0-.211.099l-.227-.066-.113.114-.21-.066-.113.114-.31-.146-.226.146-.261-.065a.356.356 0 0 0-.13-.016c-.162 0-.333.044-.52.128l-.584.05-.13-.066-.128.066-.357.066-.131.309.147.844-.08.114.096.26-.014.292.079.113.065.439.148.165-.081.275.162-.048.292.453c.412.314.77.473 1.074.473.042 0 .14.015.292.048l.213-.032.128-.031.064-.082h.147c.14 0 .238-.007.293-.015l.275-.181c.142 0 .227-.021.26-.066l.276-.063.308-.246.08-.114.164-.145.21-.02.406-.355c.313-.087.507-.262.585-.522l.113.066.049-.26.21-.014.033-.246h.047c.097 0 .17.064.212.194l-.551.715-.196.049-.13.195-.26.306-.406.277-.26.243-.112-.016-.195.212-.746.309-.18.227-.261-.081-.081.129-.065-.017-.13.113-.437-.097-.537.244-.391-.147-.666-.342c-.281-.14-.52-.406-.714-.794-.13-.282-.292-.754-.487-1.415l.048-.226-.113-.308.113-.146-.113-.635-.032-.246-.257-.325a.545.545 0 0 1-.018-.148c0-.16.045-.277.138-.348.09-.07.137-.1.137-.09v-.095c0-.076.048-.125.146-.146l.05-.226-.05-.097v-.456l-.047-.195.178-.49.066-.257.065-.18-.211-.26-.388.033c-.151 0-.23-.076-.23-.228 0-.098.073-.226.212-.39a.236.236 0 0 0 .114-.082c.195-.075.303-.113.326-.113.03 0 .069.028.113.082.03-.076.076-.114.13-.114.162 0 .244-.048.244-.146 0-.031-.017-.07-.05-.113l.539.033.094.178a.912.912 0 0 1 .522-.178h.047a.196.196 0 0 0 .067.014l.34-.08c.089 0 .197-.04.328-.114v.114c.097-.086.23-.13.405-.13h.147a.892.892 0 0 0 .13.016h.049l1.543-.146.357.146.113-.195c.033.076.077.113.13.113.01 0 .06-.01.147-.03l.178.097.114-.097.293.112.195-.05.097.084.52-.05.082.05.294.065c.019.016.059.042.1.087zM199.97 97.606c0 .034-.163.186-.487.457l-.178-.065-.21.326-.262.032-.242.11-.473-.11-.26.11-.082.149c-.151-.12-.247-.18-.292-.18-.022.01-.031.028-.031.05l-.083-.016-.145.147-.148-.18-.113.05c-.098-.076-.185-.113-.26-.113h-.52l-.148-.162-.178.03-.26-.146-.165.082-.112-.196h-.242l-.15-.177h-.191c-.011 0-.045-.041-.1-.124a.647.647 0 0 0-.227-.203l-.488-.261a1.256 1.256 0 0 1-.305-.192 1.689 1.689 0 0 1-.36-.522h-.194l-.262-.326-.47-.372-.536-.62-.148-.05-.29-.304-.294-.101c-.074.046-.14.066-.194.066s-.108-.02-.163-.066v.018c0 .01-.01.017-.033.017h-.163l-.164-.228.082-.113.03-.211.197-.065v-.098l.21-.05a.313.313 0 0 1 .194-.081c.045 0 .092.013.139.042.05.026.08.04.092.04.02 0 .037-.016.046-.05.065.196.294.294.684.294.184 0 .41-.016.68-.05l.147-.05v-.046l1.218-.05.229-.111.292-.064.372-.033.098.033.275-.1.065-.098.196.017.243-.096h.178c.13 0 .196-.05.196-.146v-.065a.733.733 0 0 0 .195-.065l.259-.083c.238-.13.358-.284.358-.455 0-.121-.06-.24-.177-.36l-.537-.518h-.131a2.532 2.532 0 0 0-.47-.228h-.164l-.325-.147h-.196l-.211-.162h-.372l-.146-.066-.894-.065-.148-.083-.097.05-.18-.05-.177.05-.472-.05-.486.083-.26-.083-.291.033-.263-.033-.193.083-.15-.05-.291.179-.228-.033-.113.229-.128.178.098.226-.05.94.114.814-.113.373-.064.327-.113 2.078.129 1.187-.097.635v.163c0 .088-.104.13-.31.13h-.064l.08-.633-.08-.246-.15-.664.1-.065c-.13-.164-.196-.272-.196-.327.01-.043.029-.104.05-.18l.13-.143-.13-.261h-.017c-.01 0-.022-.007-.033-.016 0-.066.067-.217.196-.456a.419.419 0 0 1-.113-.308c0-.076.014-.163.049-.26v-.128c.076-.142.114-.255.114-.342a.895.895 0 0 0-.114-.375l.114-.273-.05-.246.098-.081a.307.307 0 0 1-.048-.163c0-.076.037-.207.112-.39l-.162.033-.098-.438.083-.31-.083-.666.083-.081c-.172-.175-.306-.261-.391-.261h-.05l-.112.113-.374-.032-.245.308a.58.58 0 0 0-.307-.163.489.489 0 0 1-.13-.26.36.36 0 0 1 .114-.261l.259-.178.488-.05.665-.031.148-.114v-.047c0-.16.124-.243.374-.243h.194l.064.194c.066.099.14.148.228.148.032 0 .06-.006.08-.017l.264-.13.404.1.634-.1.845.1 1.186.03.603.113h.454l.179.149c.02-.068.053-.098.098-.098.043 0 .098.03.163.098 0 .074.023.139.065.192l.16.032v-.21l.65.26.229.179.03-.047.165.08.26.034.113.129.149.032.209.326c.217.336.326.545.326.634 0 .162-.06.303-.18.422l-.355.357-.261.29-.342.018-.23.115-.063.132h-.456l-.162.147-.357.112a1.18 1.18 0 0 0-.52.147l-.211.194-.26-.178-.23.113a.219.219 0 0 0-.127-.05c-.067 0-.148.05-.246.146l-.228-.096-.21.096-.081-.096-.292.164-.197-.033c-.021 0-.053-.006-.097-.014h-.098c-.075 0-.157.009-.244.03l.162.226.392.343.114.195.633.485.146.262.146.16.164.393.439.016.487.504.26.11.356.23.342.097.488.194.179-.03.08.064.033-.035.066.117.227-.05.049.16.178-.11.195.047.554-.047.227.047.78-.13.584-.164.032.1.114-.198h.244l.099-.226a.58.58 0 0 1 .07.228zM210.033 90.603l-.082.18-.211.031h-.486l-.227.05-.194-.05-1.006.083-.343-.083c-.098.044-.3.098-.604.164h-.484l-.293-.113c0 .055-.044.086-.13.098-.086.01-.218.037-.397.082a1.962 1.962 0 0 1-.416.064l-.326-.13-.275.13-.031.098h-.147l-.082.163-.065 1.058.065.145-.033.18.016.47-.048.471v.148a.314.314 0 0 1-.082.21l-.032.194.129.211-.032.261-.113.08c0 .066.033.148.098.245l-.098.165v.18l-.13.194.082.456-.033.664-.112.424c.02.043.032.076.032.097s-.008.05-.023.09a.22.22 0 0 0-.024.09c0 .011.005.031.016.064.01.035.014.06.014.083a.431.431 0 0 1-.073.193.468.468 0 0 0-.071.196c0 .01.007.016.018.016v.031l.047.228a1.048 1.048 0 0 0-.081.324c0 .067.009.186.033.357a.621.621 0 0 1-.165-.024.529.529 0 0 0-.096-.022c-.088 0-.13-.16-.13-.473.022-.154.03-.233.03-.244 0-.087-.01-.217-.03-.39a3.798 3.798 0 0 1-.032-.373c0-.12.012-.208.032-.26l.066-.879-.098-.16a.175.175 0 0 1-.032-.084c0-.066.027-.113.082-.146-.045-.054-.068-.104-.068-.148 0-.03.032-.064.1-.097a.857.857 0 0 1-.067-.209c0 .065.039-.069.114-.405a1.323 1.323 0 0 1-.016-.26c.03-.077.082-.197.147-.359-.088 0-.13-.07-.13-.21 0-.249.033-.39.097-.422v-.667l-.097-.326.097-.682-.097-.487.097-.374c-.043-.152-.118-.228-.228-.228-.053 0-.102.027-.146.084l-.356.03-.131.081-.195-.015-.196.015v.05h-.128a.895.895 0 0 1-.438-.098l-.033.098-.341-.098-.943-.032-.372.113c-.284-.249-.423-.412-.423-.486 0-.022.02-.109.064-.26h.259l1.158.227.273-.098.764.031.715.066.47-.18h.13l.129-.373.228.067.05.161.097-.047.146.16.228.115.259-.083.292.066.165.148.096-.13c.41-.076.61-.113.6-.113l.374.033a.805.805 0 0 0 .292.064h.082a.838.838 0 0 1 .243-.047c.033 0 .075.004.124.013a.484.484 0 0 0 .104.017c.054 0 .088-.017.099-.05l.323-.048.375.08c.042.046.08.067.112.067a.118.118 0 0 0 .049-.016h.03l.229-.064.292.047.814-.017.356.067.339-.008z"/><path d="M219.616 89.856l-.13.113v.263c-.173.03-.3.096-.375.194a.454.454 0 0 1-.245.178c-.02.119-.07.178-.146.178l-.405.36-.163.273h-.146c-.108.195-.196.321-.26.374a2.545 2.545 0 0 0-.328.179l-.34.403-.373.279-.228.08-.165.309-.324.194-.245.262-.163.422-.567.7-.211.31-.164.356.098.178-.098.26.083.31-.114.356.066.423.112.13a.85.85 0 0 0-.193.51.9.9 0 0 1-.065.382c.03.228.048.407.048.538l-.113.76.016.374-.064.166.113.583-.146.245.097.31-.097.162c.108.185.163.326.163.423v.048c-.011.01-.017.022-.017.032l-.113.374.097.438-.163.407.179.259-.05.585c-.01.185-.08.296-.21.343l-.095-.554-.13-.486-.031-.454-.116-.067.083-.196-.083-.275.083-.503-.114-.534.05-.458-.017-.097.017-.357-.066-.765.066-.356-.05-.421.114-.748-.147-.275.064-.326-.031-.425-.081-.226a.837.837 0 0 0 .13-.421.894.894 0 0 0-.082-.327l-.05-.26-.112-.39-.196-.164-.146-.227a.331.331 0 0 1-.227-.146l-.49-.584-.243-.147-.211-.39-.62-.618-.112-.227-.307-.39-.391-.326v-.178l-.305-.228-.196-.36c-.032-.051-.12-.106-.261-.162-.313-.171-.47-.453-.47-.845l.015-.145h.146c.01-.078.06-.114.149-.114.097 0 .23.028.405.082l.08.26.31.128.259.423.357.262.017.34c0 .088.08.142.244.163l.162.26.245.194.78 1.173-.032.127.177.067.229.307.812.78c.055.054.114.13.178.229.066.098.115.146.149.146a.314.314 0 0 0 .08-.083l.21-.227.194-.36c.032-.193.072-.291.115-.291h.113c.043 0 .066-.031.066-.096v-.048c0-.034.002-.057.007-.075.007-.013.08-.084.22-.203v-.033c-.01 0-.016-.005-.016-.014 0-.033.059-.108.18-.227l.178-.083.147-.227v-.03c0-.121.124-.185.374-.196.087-.043.129-.092.129-.146a.215.215 0 0 0-.017-.083c.194-.032.327-.102.39-.211l.227-.26.113-.226c.282-.305.449-.456.505-.456h.03l.212-.292.226-.165.068-.241c.033.02.082.03.147.03.097 0 .147-.082.147-.243v-.016c0-.044.08-.082.243-.113l-.05-.098.195-.083h.179l.098-.275.39.05.113-.05.097.21.13.068zM168.267 116.71l-.066.015-.097.244.097.05-.05.357a.275.275 0 0 0-.047.163.65.65 0 0 0 .048.212v.195l-.082.08.082.098-.112.292.03.277-.26.52.065.032a.516.516 0 0 0-.031.193c0 .044.005.094.015.149a.67.67 0 0 1 .016.096v.033l-.178.08.178.405h-.113l.049.148-.113.211.147.275-.033.115h-.081c-.032.01-.048.042-.048.097 0 .12.063.223.194.308a.302.302 0 0 0-.148.258l-.047.376.08.258-.08.196.016.602-.082.422.163.08a.934.934 0 0 1-.073.236.317.317 0 0 0-.042.155c0 .088.055.203.163.342l-.115.034.21.21-.08.127.228.07a.944.944 0 0 1-.177.388c-.1-.033-.148-.106-.148-.21l-.211-.277-.127-.035.063-.273-.26-.291.114-.15-.163-.244.05-.343-.066-.19a2.79 2.79 0 0 1-.064-.1c0-.022.02-.054.064-.098l.066-.096-.066-.21.066-.148-.212-.162.164-.244-.016-1.09.113-.843-.05-.83.08-.226-.08-.065.05-.194v-.292l.064-.114-.113-.033.082-.373c-.12 0-.195-.038-.228-.114h.228l.032-.262-.113-.031.082-.193c.087-.075.129-.153.129-.228a.36.36 0 0 0-.098-.244l.098-.034v-.145h.164l.098-.227.128-.05a.9.9 0 0 1 .342.083c.052.04.09.1.112.177zM179.927 122.413c-.01.109-.075.194-.192.26 0 .011.003.014.014.014v.033c0 .045-.13.233-.388.565l-.032.165-.18.05-.015.162c-.077.141-.168.215-.277.227-.01.065-.037.099-.081.099h-.033c-.01.084-.07.128-.178.128l-.096.195-.228.047-.228.149-.422.078-.131-.013-.111.013-.05-.062-.146-.017-.178-.228h-.082c-.044-.042-.065-.104-.065-.179-.173-.186-.261-.329-.261-.44v-.127l-.114-.21v-.097l.083-.05-.066-.227-.114-.291.017-.441-.163-.258v-.405c-.152-.802-.23-1.284-.23-1.448v-.064a.963.963 0 0 1-.03-.18.22.22 0 0 1 .017-.098l-.162-.261-.033-.195-.083-.065-.342.357-.162.228-.567.682-.228.407-.113.257-.147.245-.242.245.048.146-.115.309-.128.017v.148h-.081l-.31.374c-.01.17-.081.275-.211.306a1.237 1.237 0 0 0-.127.343c-.033.097-.091.15-.18.163l-.065.065-.146.26a4.331 4.331 0 0 1-.505.455c-.032.172-.097.282-.193.326l-.016.08c-.012.173-.115.286-.31.342l-.162.05c-.076-.023-.137-.114-.18-.276-.041-.164-.107-.268-.194-.311l-.05-.097.13-.208-.016-.196.082-.082-.082-.146.017-.196-.131-.355.114-.212-.065-.227.082-.194.032-.47v-.082a.668.668 0 0 0-.098-.195.294.294 0 0 0 .13-.195l-.032-.26.097-.615-.064-.116.015-.26-.082-.145.067-.521-.033-.18.049-.291-.05-.423.115-.213.292.083c.054.054.08.239.08.553l.13.208-.047.31.063.667-.112.357.049.423v.195l-.146.244.097.342-.048.113-.066.324.08.196-.08.26-.05.375.017.583.048.083.196-.1h.16l.083-.358c.12-.031.195-.09.228-.177.022-.13.104-.197.244-.197.022-.116.06-.2.115-.242.043 0 .092-.078.145-.228l.148-.147.114-.195v-.228h.015c.046 0 .093-.037.146-.113a.252.252 0 0 1 .21-.112c.044-.142.093-.241.148-.292l.227-.275.21-.454a.946.946 0 0 1-.031-.165c0-.031.017-.05.049-.05l.147-.096.129-.162.049-.164v-.195c.164-.064.245-.125.245-.18a.785.785 0 0 1-.05-.163c0-.054.022-.08.068-.08.043 0 .084.014.128.048.086-.292.206-.437.357-.437.033 0 .08.009.147.03a.51.51 0 0 1 .146-.373c.02-.066.146-.147.375-.246l.08-.13h.065l.13.163.098.066.033.114.08.033.034.309.21.129-.064.275.112.504v.469l.115.553.049.586.163.535.032.535c.053.078.119.25.194.523l.066.049v.244l.145.164-.033.112.114.066v.083a.492.492 0 0 0 .26.095.503.503 0 0 0 .246-.064.261.261 0 0 0 .08.032c.043 0 .09-.044.147-.13.15-.022.228-.065.228-.13v-.031c.022-.033.129-.088.326-.165.033-.031.087-.086.162-.161l-.014-.033c.02-.052.128-.161.325-.326l.129-.26.096-.13.212-.324.228-.115h.146l.038.228zM186.086 122.3l-.26.275c-.01.268-.1.471-.261.602-.207.52-.53.877-.974 1.071l-.21.195-.195.032-.244.195-.18.02-.372.272-.13-.083-.34.165-.328-.082-.097.113-.194-.03-.195.03-.05-.049-.356-.066-.36-.292-.243-.357a.635.635 0 0 1-.163-.44v-.065l-.178-.276v-.246l-.067-.095.033-.325-.065-.262.097-.26-.065-.112.163-.26-.05-.341.098-.343.097-.13.018-.371.11-.097-.045-.1.11-.162.033-.212.13-.375.179-.437.276-.276.08-.195.129-.228.035-.162.127-.195a.52.52 0 0 0 .325-.13c.01-.185.174-.275.488-.275.346.065.552.179.615.34.166 0 .246.06.246.18l.469.015.017.149.098.11-.014.198.11.145-.013.21.03.115-.03.325.08.112v.167l.049.34-.327.18-.341-.407-.032-.521-.065-.195v-.194l-.277-.343-.273-.178-.228.098h-.194c-.25.03-.455.185-.62.455-.227.357-.371.556-.437.6l-.018.229-.128.112v.325l-.164.214-.064.227a3.486 3.486 0 0 1-.211.6l.016.26-.146.343.032.242-.066.019-.015.616-.034.019.034.144-.067.067.278.325.048.21-.048.05.162.228.129.048.015.162.52.116.342.08c.078-.077.148-.114.212-.114.02 0 .076.012.163.034.096-.067.172-.097.226-.097h.064c.023.009.04.014.05.014.088-.043.227-.092.422-.145.099-.186.213-.278.342-.278.054 0 .098.005.13.014.27-.117.405-.222.405-.306.067-.12.179-.178.344-.178h.064a7.39 7.39 0 0 0 .634-.796c.119-.11.21-.261.275-.457l.147-.097.017-.21c.083.064.12.21.12.439zM189.206 124.266l-.047.048.03.18-.081.05v.128l-.113.048-.195.228-.194.014-.18.048-.05.017c-.043-.01-.072-.037-.088-.082-.016-.044-.042-.064-.074-.064h-.048c0-.045-.011-.066-.032-.066-.011 0-.028.012-.048.033l-.034-.068-.063-.014.018-.082-.066-.064.048-.097-.113-.033v-.422c0-.066.064-.133.194-.204.128-.07.206-.138.227-.204l.065-.05.114.05a.431.431 0 0 0 .178.033.488.488 0 0 1 .148.08l.128.129.18.097.096.267zM132.612 112.138c-.033.032-.113.07-.246.115l-.342-.23-.437-.553-.13-.326-.05-.305-.08-.21c-.118-.143-.178-.44-.178-.894 0-.076.02-.15.064-.229l.049-.47-.162-.34.049-.165-.05-.308.016-.357-.111-.113.096-.244-.096-.147.096-.146-.113-.342v-.52l-.13-.309-.016-.326c-.022-.13-.125-.255-.308-.373l-.21.26-.18.08-.552.764-.471.567-.164.342-.454.521-.504.39-.114.066-.05.275-.326.111-.047.228-.375.181-.13.308-.26.097-.374.666c-.141 0-.227.137-.26.407a.47.47 0 0 1-.114.016l-.08-.164-.18-.26.033-.209-.113-.148.113-.149-.147-.162-.081-.29-.227-.212-.39-.504-.081-.306-.18-.212-.308-.616-.325-.375-.112-.226-.31-.343-.325-.505c-.186-.282-.331-.422-.44-.422a.54.54 0 0 0-.202.04.684.684 0 0 1-.122.041h-.017v.194c0 .357-.048.628-.146.813l-.342.634.082.405-.113.291-.326 1.09-.131.357-.048.245-.211.521-.261.453.033.36-.195.44a.745.745 0 0 0-.082.226c0 .087.048.16.146.21-.206.26-.347.39-.423.39-.043 0-.082-.044-.114-.13-.063-.054-.096-.152-.096-.29a.94.94 0 0 1 .065-.205 1.92 1.92 0 0 0 .096-.349c.033-.16.083-.292.147-.388.066-.098.096-.143.096-.129v-.392c0-.216.11-.385.326-.502v-.26l.098-.375a.223.223 0 0 1-.016-.098c0-.054.026-.166.083-.324a.45.45 0 0 0 .113-.293v-.358l.146-.26.293-.975-.081-.44.145-.113.05-.195.016-.699.048-.26c.022-.259.033-.379.033-.357a.933.933 0 0 0-.033-.227l-.178-.374.13-.276-.066-.11c.045-.022.066-.07.066-.147.164 0 .266-.039.309-.114l.147.017.195.146v.147l.178.11.049.374.147.131.065.227h.082a.254.254 0 0 0-.033.114c0 .097.087.15.26.163a.913.913 0 0 1 .228.178l.033.211.179.194.112.373.73.78.13.441.246.194.227.634.553.991c.098.185.237.356.422.521l.033-.212h.292l.178-.405.342-.244c.053-.078.15-.187.292-.327v-.129c.368-.238.552-.352.552-.343 0-.01-.005-.014-.016-.014a.46.46 0 0 1 .098-.26h.163l.145-.21c.033.053.06.082.083.082.01 0 .017-.018.017-.049l-.032-.292c.237-.315.45-.477.634-.487v-.194c0-.109.09-.19.275-.247l.097.033.032-.097.343-.536.03-.115h.115a1.9 1.9 0 0 0 .357-.599l.098-.066a.705.705 0 0 1 .146-.017c.043 0 .07.017.083.05l.113-.245-.064-.487-.098-.227.163-.26.066-.26c.119.023.204.042.259.065.023.031.092.06.21.081l.034.261.259.226c.022.022.03.067.03.13a.396.396 0 0 1-.015.13v.438l.098.148-.098.082.098.032-.032.177.066.082.047.341.082.066-.162.228.08.033-.046.341.112.292-.032.374.146.584c.033.108.06.27.08.485a1.54 1.54 0 0 1-.193.293l.097.196c.044.032.067.06.067.081 0 .021-.018.07-.058.148a1.577 1.577 0 0 0-.09.21l.13.113-.048.893.164.552v.65l.112.131.098.227c.159.153.333.375.517.667zM144.368 107.867c0 .072-.038.127-.114.161l-.261-.082-.292.228-.341-.05-.195.114-.261.031c-.12 0-.2.03-.244.081a1.005 1.005 0 0 0-.373-.08c-.108 0-.18.038-.211.113.022.055.06.104.114.146l-.05.163.05.554.21.308.034.292.357.521-.05.244.247.228.372.631.244.295.098.194.292.146.113.261.114.08-.21.166-.261-.214h-.162l-.211-.162h-.163l-.146-.275-.163-.082-.194-.358-.23-.244v-.165l-.144-.127-.017-.263-.244-.26-.341-.812-.115-.147-.065-.47-.194-.309v-.34h-.194l-.211.144-.327-.062-.227.145-.081-.083-.178.116-.05-.116a.85.85 0 0 0-.163.05.724.724 0 0 1-.26.05c-.087 0-.156-.006-.211-.017h-.277l-.275.18-.293-.067-.406.033v.081l-.146-.08-.193.113-.147-.114h-.26l-.26.114-.211-.228-.114.08-.225-.08-.195.113c-.163.162-.346.4-.553.714l-.26.067c-.207.325-.44.66-.7 1.006l-.147.082-.455.583h-.08l-.39.634-.423.26-.326-.082.065-.146v-.228l.115-.148-.05-.11.294-.034.194-.112a.554.554 0 0 0 .324-.407c.216-.063.347-.187.39-.373.25-.152.422-.397.519-.732l.228-.081.522-.811v-.23a.442.442 0 0 1-.163-.241l.308-.279v-.114l.374.031.209-.128.05.064.21-.29c-.041-.01-.065-.034-.065-.067s.078-.097.229-.194l.064.097.032-.21.13-.26-.05-.033.197-.016.065-.212c.129-.02.193-.075.193-.163v-.19c.26-.228.39-.435.39-.619v-.034l.212-.03.049-.229.113-.032.163-.34.114.081-.082-.178c.164-.01.249-.114.26-.31l.114.065v-.325h.113v-.225c.066-.067.138-.135.22-.213a.519.519 0 0 0 .154-.307l.18-.18-.114-.26c.163-.193.303-.292.422-.292h.032l.098-.146.146.211.374.193.032.406.114.115.096.208.13.05.032.357.129.49.21.371.147.521.033.344.227.31-.065.127.179.196v.244l.032.228a1.264 1.264 0 0 1-.065.162.736.736 0 0 0 .165.291c.097.195.23.292.404.292.066 0 .168-.019.309-.065h.373c.12.032.218.05.294.05a.437.437 0 0 0 .209-.04.899.899 0 0 0 .155-.099c.05-.035.083-.055.106-.055.033 0 .065.01.097.032l.195.112.365-.014zm-3.09-.407c-.074-.186-.16-.304-.26-.357l.083-.23-.211-.113-.065-.619-.196-.306-.032-.26-.112-.228v-.082h-.05l-.032-.405-.228-.341-.194-.15-.212-.094-.18.094-.111.197-.392.554-.13.26-.341.34-.064.259-.341.18c-.075.4-.238.64-.488.715l-.147.488-.326.128v.163l-.05.212.262.08.146.082.195-.019.327.082a.873.873 0 0 0 .145.033c.044 0 .12-.01.228-.033.01-.009.03-.016.064-.016.01 0 .05.01.123.031.07.022.132.033.188.033a.522.522 0 0 0 .209-.049l.633-.048.522-.068.375.052c.085.007.17.016.258.016.249 0 .374-.057.374-.165 0-.074-.048-.168-.146-.274l.177-.143zM147.636 103.707l-.065.014-.097.243.097.052-.05.357a.261.261 0 0 0-.047.165c0 .052.014.125.047.209v.197l-.082.08.082.098-.113.29.03.278-.258.52.064.033a.528.528 0 0 0-.031.193c0 .044.005.092.015.147.01.056.016.088.016.098v.031l-.178.083.178.405h-.113l.049.146-.114.21.147.276-.032.113h-.081c-.032.012-.05.042-.05.1 0 .117.067.22.195.307a.295.295 0 0 0-.145.26l-.05.373.082.26-.082.194.017.602-.082.422.163.084a.91.91 0 0 1-.072.236.295.295 0 0 0-.041.153c0 .087.052.2.162.343l-.115.033.212.207-.081.13.228.066a.95.95 0 0 1-.178.39c-.098-.032-.147-.104-.147-.212l-.212-.276-.13-.03.066-.275-.258-.295.112-.146-.162-.245.05-.342-.066-.193c-.022-.032-.043-.067-.065-.097 0-.022.02-.054.065-.097l.066-.097-.066-.211.066-.148-.212-.164.164-.244-.018-1.09.115-.844-.05-.827.08-.228-.08-.065.05-.195v-.293l.064-.11-.113-.032.08-.374c-.12 0-.195-.04-.227-.114h.227l.033-.26-.113-.034.08-.192c.087-.078.13-.152.13-.23a.363.363 0 0 0-.097-.243l.098-.033v-.147h.16l.099-.228.13-.049c.097 0 .213.03.342.081a.385.385 0 0 1 .112.18zM160.126 105.023l-.211.326.032.26.08-.033c0 .086-.037.21-.112.375l-.1.21v.826l-.161.374.03.245-.145.732.065.191-.13.585.034.26-.115.424.115.403-.261.406.066.23-.146.272.08.165.066.764.113.243-.113.081-.066.114-.146-.033-.081-.794-.114-.035a13.61 13.61 0 0 1-.031-1.072l-.15-.294-.305-.048-.18-.21-.08.098-.148-.18-.26.082-.323-.26-.164.032-.326-.068-.195-.194-.114.033-.99-.634-.114-.146-.341-.146-.21-.275-.195-.098-.261-.26-.73-.325-.52-.666-.228-.018-.114-.176c-.142-.066-.314-.213-.52-.439h.08l-.146-.149-.114-.226-.114-.03h-.032c-.163 0-.276.192-.342.582l-.147.83.147.503-.227.828.08.423.018.132v.064c0 .13-.036.233-.106.315-.07.082-.105.14-.105.174 0 .01.01.026.033.046l.178.063-.098.342v.405l-.08.441.08.18-.08.11-.032.345a1.45 1.45 0 0 1-.18.422h-.114c-.13 0-.195-.106-.195-.31v-.065l.195-.634-.081-.26.113-.342-.113-.126.129-.262-.18-.245c.023-.13.033-.232.033-.31 0-.084-.01-.204-.033-.354l.066.03.065-.162-.13-.243.13-.375-.081-.487.113-.521-.097-.357.114-.78-.017-.603.083-.552-.083-.178.017-.781.179-.047c-.143-.141-.211-.265-.211-.375 0-.011.009-.047.032-.112l.066-.066.29.066.082-.114c.098.076.146.165.146.264a.449.449 0 0 1-.08.225h.227l.032.375.196.162.033.246.259.162.113.438.147.18.536.39v.032c0 .087.054.184.16.292l.376.259.405.469 1.269 1.059h.145l.115.097a.92.92 0 0 0 .196.29l.52.163.405.344.244.08.455.262.438.128c.238.239.466.373.683.405a.758.758 0 0 1 .245-.064h.049l.03-.455.229-.487-.114-.113.049-.762.179-.277-.033-.261-.146-.244.179-.634-.083-.603.165-1.153-.195-.21.227-.665-.08-.083.114-.146-.034-.115.246-.112.049.112.227-.048c-.033.109-.05.21-.05.308 0 .109.027.205.082.285a.487.487 0 0 1 .082.154l-.114.31.21.379zM172.08 104.014l-.081.18-.211.03h-.487l-.228.05-.195-.05-1.006.082-.342-.081a3.708 3.708 0 0 1-.601.162h-.488l-.292-.11c0 .052-.045.085-.13.096a4.174 4.174 0 0 0-.397.082 1.877 1.877 0 0 1-.416.065l-.326-.131-.276.13-.032.098h-.146l-.082.161-.065 1.059.065.146-.033.18.018.468-.05.473v.147a.33.33 0 0 1-.08.21l-.034.196.13.21-.032.259-.113.082c0 .064.032.146.098.246l-.098.16v.182l-.13.191.083.457-.033.665-.113.423a.262.262 0 0 1 .032.097.22.22 0 0 1-.025.09.276.276 0 0 0-.024.09c0 .01.005.031.016.065a.306.306 0 0 1 .015.08.468.468 0 0 1-.071.196.465.465 0 0 0-.074.194c0 .01.007.016.017.016v.031l.049.228a.997.997 0 0 0-.082.326c0 .065.012.184.032.356a.672.672 0 0 1-.163-.022.384.384 0 0 0-.098-.024c-.085 0-.128-.157-.128-.472a6.28 6.28 0 0 0 .032-.244 3.96 3.96 0 0 0-.032-.393 3.306 3.306 0 0 1-.033-.37c0-.12.01-.208.033-.26l.065-.878-.098-.165a.14.14 0 0 1-.031-.08c0-.067.026-.116.08-.147-.043-.054-.065-.103-.065-.147 0-.032.033-.064.098-.097a.786.786 0 0 1-.065-.209c0 .063.038-.07.114-.407a1.23 1.23 0 0 1-.016-.26c.033-.076.082-.195.145-.357-.084 0-.127-.069-.127-.212 0-.247.03-.39.097-.422v-.667l-.097-.324.097-.683-.097-.486.097-.373c-.043-.15-.12-.228-.227-.228-.055 0-.104.027-.147.081l-.356.033-.13.081-.195-.016-.194.016v.05h-.13a.923.923 0 0 1-.44-.097l-.03.096-.342-.096-.943-.033-.372.115c-.283-.248-.422-.412-.422-.489 0-.02.02-.107.064-.258h.26l1.154.228.276-.097.763.03.714.067.472-.179h.13l.129-.375.227.067.049.164.097-.05.146.162.228.116.259-.083.292.065.163.147.097-.129c.412-.076.612-.114.604-.114l.37.031c.11.042.209.066.293.066h.083a.825.825 0 0 1 .242-.05.67.67 0 0 1 .124.017.717.717 0 0 0 .106.015c.054 0 .088-.015.098-.048l.325-.047.374.08c.042.042.08.065.112.065a.15.15 0 0 0 .049-.015h.032l.227-.068.292.05.812-.017.358.065.337-.006zM180.316 103.525a.32.32 0 0 1-.081.18h-.18l-.113.082-.227-.082-.262.015a.8.8 0 0 1-.178-.015c-.066-.065-.118-.096-.163-.096-.042 0-.112.03-.211.097a.404.404 0 0 0-.21-.067.866.866 0 0 0-.293.082 1.247 1.247 0 0 1-.341.098c-.042 0-.112-.003-.21-.015a2.216 2.216 0 0 0-.227-.018c-.066 0-.11.033-.131.099a.386.386 0 0 0-.26-.099c-.151 0-.308.068-.471.197l-.162-.083-.147.083-.374-.115-.258.147h-.293a8.581 8.581 0 0 1-.554.127l-.26.133-.147-.099-.291.23-.292-.02-.211.392.082.307c-.11.033-.163.174-.163.425 0 .01.005.03.016.064v.066c-.011.086-.016.2-.016.34l.049.065-.114.098.065.099a1.145 1.145 0 0 0-.112.437c0 .239.14.358.42.358a.69.69 0 0 0 .189-.034.94.94 0 0 1 .187-.031s.04.01.123.025c.082.016.166.03.25.04l.245-.097.26.083.163-.05.164.017.244-.05.146.03H176a.71.71 0 0 0 .29-.096.782.782 0 0 0 .457.033h.162l.212-.066c.216.045.334.066.355.066.034 0 .068-.03.099-.096.303.054.466.08.488.08a.83.83 0 0 0 .177-.014c.143 0 .326.009.553.03l.292-.066c.022-.064.088-.096.195-.096.088 0 .21.016.372.05l.147-.034.21.08.21-.045-.047.193c-.186.073-.325.112-.423.112a.978.978 0 0 1-.164-.032 2.039 2.039 0 0 0-.243-.048l-.423.209-.358-.031-.212.082-.146-.033-.26.147-.178-.05-.651.017a.291.291 0 0 0-.21.097l-.228-.066-.112.112-.212-.062-.113.11-.308-.145-.228.146-.26-.064a.37.37 0 0 0-.13-.014 1.23 1.23 0 0 0-.52.129l-.583.047-.131-.065-.127.065-.36.066-.127.309.146.844-.081.113.097.26-.016.29.08.116.066.438.146.16-.082.279.164-.05.292.455c.41.315.767.472 1.072.472.045 0 .143.016.292.048l.21-.032.13-.032.066-.082h.146c.143 0 .24-.004.292-.016l.277-.18c.14 0 .227-.02.26-.066l.276-.062.308-.246.082-.114.163-.147.21-.017.406-.358c.314-.088.508-.26.585-.52l.113.067.049-.262.21-.016.03-.243h.05c.097 0 .168.064.21.195l-.552.715-.194.049-.13.194-.26.309-.403.276-.261.243-.113-.014-.195.209-.748.31-.178.228-.261-.081-.081.129-.065-.017-.13.113-.44-.096-.535.245-.388-.15-.667-.34c-.283-.14-.521-.406-.716-.796-.13-.282-.292-.754-.486-1.413l.049-.228-.114-.308.114-.148-.114-.632-.032-.245-.26-.326a.701.701 0 0 1-.017-.148c0-.162.048-.28.14-.347.09-.07.138-.101.138-.09v-.09c0-.073.049-.126.146-.145l.049-.229-.05-.096v-.454l-.047-.198.179-.486.064-.26.066-.178-.211-.262-.39.033c-.152 0-.226-.078-.226-.228 0-.098.07-.228.21-.388a.244.244 0 0 0 .114-.083c.194-.074.304-.113.326-.113.032 0 .07.028.112.082.033-.076.076-.112.13-.112.163 0 .244-.051.244-.147a.197.197 0 0 0-.05-.114l.537.033.098.178a.91.91 0 0 1 .52-.178h.049a.136.136 0 0 0 .066.016l.34-.082c.089 0 .196-.038.326-.112v.112a.606.606 0 0 1 .406-.13h.147c.065.012.108.018.13.018h.049l1.542-.147.358.147.114-.195c.032.075.076.112.13.112.01 0 .059-.01.146-.033l.179.099.112-.1.293.117.195-.05.097.083.52-.05.08.05.293.064c.027.01.064.038.108.08zM191.795 105.023l-.21.326.03.26.083-.033c0 .086-.04.21-.113.375l-.097.21v.826l-.164.374.033.245-.147.732.066.191-.13.585.032.26-.112.424.112.403-.26.406.067.23-.146.272.08.165.067.764.11.243-.11.081-.066.114-.146-.033-.083-.794-.112-.035c-.023-.26-.032-.616-.032-1.072l-.146-.294-.308-.048-.18-.21-.081.098-.146-.18-.261.082-.326-.26-.164.032-.325-.068-.195-.194-.113.033-.99-.634-.114-.146-.342-.146-.211-.275-.194-.098-.261-.26-.731-.325-.52-.666-.227-.018-.113-.176c-.143-.066-.315-.213-.522-.439h.083l-.148-.149-.111-.226-.113-.03h-.033c-.164 0-.278.192-.342.582l-.15.83.15.503-.227.828.08.423.018.13v.065a.459.459 0 0 1-.107.316c-.071.08-.106.138-.106.17 0 .011.01.028.032.05l.18.064-.097.341v.407l-.083.44.083.178-.083.113-.032.342c-.033.141-.092.28-.178.425h-.115c-.13 0-.195-.106-.195-.312v-.063l.195-.637-.082-.26.113-.339-.113-.128.129-.26-.177-.246c.02-.13.03-.232.03-.31 0-.084-.01-.204-.03-.355l.064.03.066-.16-.13-.246.13-.373-.082-.488.113-.52-.097-.358.113-.779-.016-.604.082-.55-.082-.18.016-.78.175-.046c-.141-.14-.21-.267-.21-.375 0-.01.01-.048.032-.113l.065-.066.294.066.079-.113c.099.077.148.164.148.263 0 .063-.028.14-.08.225h.226l.032.375.195.162.033.246.258.162.115.44.147.18.536.388v.033c0 .087.052.184.162.292l.374.26.406.47 1.267 1.056h.147l.113.098a.897.897 0 0 0 .195.29l.519.163.406.344.245.081.456.26.437.127c.239.242.466.374.683.407a.753.753 0 0 1 .244-.064h.049l.03-.456.23-.486-.115-.113.049-.762.179-.278-.033-.262-.146-.243.179-.633-.082-.603.163-1.152-.192-.21.228-.666-.083-.082.113-.147-.03-.114.243-.114.048.114.228-.048c-.03.11-.05.211-.05.31 0 .108.028.203.083.284a.525.525 0 0 1 .082.153l-.114.311.212.374zM204.027 107.867c0 .072-.037.127-.112.161l-.263-.082-.29.228-.343-.05-.194.114-.26.031c-.118 0-.2.03-.243.081a1.01 1.01 0 0 0-.374-.08c-.107 0-.18.038-.213.113a.368.368 0 0 0 .116.146l-.05.163.05.554.212.308.03.292.358.521-.05.244.245.228.373.631.245.295.098.194.29.146.115.261.113.08-.211.166-.26-.214h-.162l-.21-.162h-.162l-.147-.275-.164-.082-.194-.358-.227-.244v-.165l-.145-.127-.017-.263-.245-.26-.342-.812-.114-.147-.064-.47-.194-.309v-.34h-.195l-.21.144-.327-.062-.227.145-.081-.083-.182.114-.05-.116a.85.85 0 0 0-.162.05.738.738 0 0 1-.26.05c-.09 0-.157-.006-.212-.017h-.275l-.278.18-.291-.067-.406.033v.081l-.147-.08-.195.113-.147-.114h-.258l-.26.114-.211-.228-.113.08-.228-.08-.196.113c-.161.162-.345.4-.551.714l-.26.067c-.206.325-.44.66-.698 1.006l-.146.082-.456.583h-.082l-.391.634-.42.26-.326-.082.065-.146v-.228l.113-.148-.05-.11.293-.034.193-.112a.556.556 0 0 0 .327-.407c.218-.064.346-.188.39-.374.248-.15.424-.396.52-.73l.229-.083.52-.81v-.23a.449.449 0 0 1-.163-.242l.308-.278v-.115l.374.032.21-.129.05.065.21-.29c-.043-.01-.065-.034-.065-.067s.075-.097.228-.194l.064.097.03-.21.135-.26-.052-.033.196-.016.066-.212c.129-.02.195-.075.195-.163v-.189c.259-.227.386-.434.386-.618v-.034l.21-.03.05-.229.114-.032.162-.34.114.081-.082-.178c.164-.01.248-.114.26-.31l.114.065v-.325h.112v-.225c.067-.067.139-.135.22-.213a.507.507 0 0 0 .153-.307l.18-.18-.113-.26c.163-.193.305-.292.424-.292h.032l.097-.146.147.211.375.193.03.406.113.115.099.208.128.05.032.357.13.49.212.371.146.521.029.344.228.31-.065.127.18.196v.244l.032.228c-.023.063-.042.118-.065.162.03.108.085.206.162.291.098.195.234.292.404.292.067 0 .169-.019.31-.065h.372c.12.032.219.05.292.05a.44.44 0 0 0 .21-.04.939.939 0 0 0 .156-.099c.048-.035.084-.055.105-.055a.17.17 0 0 1 .097.032l.195.112.373-.014zm-3.086-.407c-.075-.186-.162-.304-.261-.357l.083-.23-.21-.113-.066-.619-.197-.306-.03-.26-.113-.228v-.082h-.05l-.032-.405-.227-.341-.194-.15-.211-.094-.18.094-.111.197-.393.554-.13.26-.34.34-.065.259-.341.18c-.075.4-.24.64-.487.715l-.146.488-.325.128v.163l-.05.212.259.08.147.082.195-.019.326.082a.92.92 0 0 0 .146.033c.043 0 .118-.01.226-.033.012-.009.035-.016.068-.016.009 0 .05.01.12.031a.653.653 0 0 0 .187.033.513.513 0 0 0 .21-.049l.636-.048.52-.068.373.052c.087.007.174.016.262.016.247 0 .373-.057.373-.165 0-.074-.05-.168-.146-.274l.174-.143z"/><path d="M215.532 105.023l-.211.326.03.26.084-.033c0 .086-.04.21-.114.375l-.097.21v.826l-.163.374.03.245-.146.732.067.191-.132.585.034.26-.114.424.114.403-.261.406.065.23-.146.272.08.165.066.764.113.243-.113.081-.065.114-.146-.033-.081-.794-.116-.035c-.02-.26-.031-.616-.031-1.072l-.145-.294-.31-.048-.18-.21-.08.098-.147-.18-.261.082-.327-.26-.161.032-.326-.068-.195-.194-.113.033-.992-.634-.113-.146-.343-.146-.211-.275-.193-.098-.262-.26-.73-.325-.52-.666-.23-.018-.112-.176c-.14-.066-.313-.213-.521-.439h.082l-.146-.149-.114-.226-.113-.03h-.032c-.163 0-.275.192-.341.582l-.143.83.148.504-.228.828.082.423.017.13v.065a.47.47 0 0 1-.108.316c-.07.08-.105.138-.105.17 0 .011.009.028.032.05l.179.064-.1.341v.407l-.08.44.08.178-.08.113-.032.342a1.43 1.43 0 0 1-.181.425h-.111c-.13 0-.197-.106-.197-.312v-.063l.197-.637-.083-.26.114-.339-.114-.128.13-.26-.178-.246c.02-.13.033-.232.033-.31 0-.084-.012-.204-.033-.355l.065.03.066-.16-.13-.246.13-.373-.083-.488.114-.52-.097-.358.113-.779-.016-.604.08-.55-.08-.18.016-.78.178-.048c-.142-.14-.211-.267-.211-.375 0-.01.01-.048.033-.113l.064-.066.293.066.083-.112c.097.077.148.164.148.263 0 .063-.03.14-.082.225h.226l.033.375.195.162.032.246.26.162.114.44.147.18.535.388v.033c0 .087.055.184.163.292l.375.26.405.47 1.269 1.056h.145l.114.098a.914.914 0 0 0 .195.29l.52.163.406.344.245.081.456.26.438.127c.238.242.466.374.683.407a.758.758 0 0 1 .245-.064h.049l.03-.456.229-.486-.115-.113.05-.762.178-.278-.032-.262-.146-.243.178-.633-.081-.603.164-1.152-.196-.21.227-.666-.081-.082.113-.147-.032-.114.245-.114.049.114.227-.048a1.13 1.13 0 0 0-.048.31c0 .108.027.203.08.284a.498.498 0 0 1 .083.153l-.115.311.209.374zM226.676 109.02l-.292.177.064.246c-.032.14-.168.21-.406.21l-.128.343-.537.357-.13.194-.178.196c-.163 0-.374.103-.633.305-.261.21-.49.327-.684.36l-.372.21a.453.453 0 0 1-.195.032h-.098c-.183 0-.38.075-.583.227l-.194.146-.245-.049-.194.068a1.11 1.11 0 0 1-.291.064c-.067 0-.145-.01-.237-.032a.917.917 0 0 0-.17-.032h-.033c-.077.055-.141.082-.195.082-.053 0-.113-.033-.18-.1a5.686 5.686 0 0 1-.274-.032.398.398 0 0 0-.164.05l-.226-.082-.147.064-.326-.147-.21-.162-.31-.1-.082-.208-.388-.1c-.044-.01-.08-.078-.105-.202-.028-.126-.08-.216-.154-.268-.11-.064-.194-.239-.261-.52-.195-.26-.294-.503-.294-.73v-.05l.033-.504a.7.7 0 0 1-.096-.342l.096-.275v-.276l.1-.049.029-.26.197-.748.146-.356.065-.017.03-.246c.056-.02.093-.117.114-.29a.753.753 0 0 1 .196-.433c.109-.112.16-.202.16-.266a.322.322 0 0 0-.064-.212l.195-.064c.098-.152.2-.266.309-.34l.08-.343.212-.13.066-.259c.226-.044.38-.136.462-.275a.508.508 0 0 1 .319-.263l.145-.146.293-.097.048.032.18-.18.114.13.16.03c.165-.065.337-.098.522-.098.054.022.17.043.358.066.194.11.417.193.666.26l.178.147.894.552.08.21.148.131.097.307.098.245.049.261-.015.356c0 .065-.011.178-.032.34 0 .012.005.022.015.032l-.26.358-.293.065-.162-.13-.097-.162-.065-.275v-.244l-.05-.275v-.39l.067-.292-.18-.276a3.078 3.078 0 0 0-.301-.244.83.83 0 0 0-.253-.114c-.085-.02-.128-.042-.128-.064v-.019a.218.218 0 0 0-.073-.063.243.243 0 0 1-.09-.082h-.341l-.228-.179c-.163 0-.246.032-.246.098l-.146-.098-.163.113-.21-.03-.163.113a.735.735 0 0 0-.438.031l-.263.375-.437.44-.341.52-.148.065-.13.423-.226.18v.227l-.276.47-.13.537h-.111l.063.307-.162.31.05.112h-.098v.245l-.065.05.016.633-.065.471.163.261.017.163.145.112v.195l.114.18-.066.178.308.326.015.163.505.193-.05.212.667.051.21.21.343-.115.178.213.374-.13c.086-.075.157-.114.212-.114.032 0 .048.017.048.05l.246-.018.129.114.259-.097h.08c.166 0 .277-.04.342-.125.066-.08.18-.119.34-.119.047 0 .122.012.23.031.033-.118.146-.183.34-.195.088-.097.224-.172.407-.228.075 0 .233-.052.47-.16l.115-.195.146-.05.307-.147.179-.229.277-.11.859-.913.292-.162.147.101zM235.976 103.525a.314.314 0 0 1-.081.18h-.18l-.113.082-.227-.082-.261.015a.774.774 0 0 1-.177-.015c-.065-.065-.12-.096-.163-.096-.045 0-.113.03-.211.097-.076-.046-.146-.067-.211-.067s-.162.028-.29.082c-.13.053-.245.088-.343.098-.045 0-.113-.003-.21-.015a2.179 2.179 0 0 0-.228-.018c-.064 0-.107.033-.13.099a.386.386 0 0 0-.258-.099c-.152 0-.31.068-.471.197l-.164-.083-.146.083-.374-.115-.26.147h-.293c-.12.032-.303.076-.552.127l-.26.133-.146-.099-.292.23-.292-.02-.212.392.083.307c-.11.033-.166.174-.166.425 0 .01.008.03.016.064v.066c-.01.086-.016.2-.016.34l.049.065-.112.098.065.099a1.113 1.113 0 0 0-.113.437c0 .239.14.358.422.358a.708.708 0 0 0 .188-.034.928.928 0 0 1 .187-.031s.042.01.122.025c.082.016.166.03.25.04l.246-.097.26.083.163-.05.164.017.245-.05.145.03h.033a.735.735 0 0 0 .293-.096c.065.033.17.05.324.05a.795.795 0 0 0 .13-.017h.162l.21-.066a4.2 4.2 0 0 0 .358.066c.033 0 .067-.03.099-.096.302.054.464.08.486.08a.869.869 0 0 0 .179-.014c.14 0 .326.009.552.03l.293-.066c.02-.064.087-.096.194-.096a1.9 1.9 0 0 1 .375.05l.145-.034.21.08.21-.045-.048.193c-.184.073-.323.112-.422.112a.942.942 0 0 1-.164-.032 2.134 2.134 0 0 0-.244-.048l-.424.209-.355-.031-.212.082-.146-.033-.26.147-.18-.05-.65.017a.294.294 0 0 0-.211.097l-.226-.066-.115.112-.21-.062-.113.11-.308-.145-.228.146-.26-.064a.38.38 0 0 0-.13-.014c-.164 0-.335.042-.52.129l-.585.047-.128-.065-.13.065-.357.066-.131.309.147.844-.08.113.097.26-.017.29.08.116.069.438.146.16-.082.279.163-.05.292.455c.412.315.768.472 1.072.472.043 0 .142.016.292.048l.21-.032.129-.032.067-.082h.146c.142 0 .238-.004.294-.016l.274-.18c.142 0 .228-.02.26-.066l.278-.062.308-.246.082-.114.162-.147.21-.017.406-.358c.314-.088.508-.26.583-.52l.113.067.05-.262.212-.016.03-.243h.05c.098 0 .166.064.21.195l-.553.715-.194.049-.131.194-.26.307-.405.277-.26.243-.113-.014-.194.209-.748.309-.18.228-.26-.08-.08.132-.065-.015-.13.112-.438-.097-.537.246-.39-.148-.667-.339c-.281-.14-.518-.406-.714-.797-.13-.28-.293-.753-.485-1.414l.049-.227-.113-.308.113-.147-.113-.632-.033-.246-.26-.325a.608.608 0 0 1-.015-.147c0-.162.046-.28.138-.35.092-.069.138-.099.138-.088v-.097c0-.074.048-.126.148-.146l.047-.227-.047-.097v-.456l-.05-.197.179-.485.065-.26.064-.178-.214-.263-.39.035c-.15 0-.227-.078-.227-.228 0-.098.07-.228.21-.388a.237.237 0 0 0 .115-.083c.193-.074.304-.113.323-.113.033 0 .072.027.115.083.033-.078.077-.114.13-.114.162 0 .245-.049.245-.146 0-.03-.018-.07-.05-.115l.537.034.096.18a.913.913 0 0 1 .52-.18h.05a.16.16 0 0 0 .064.015l.342-.082a.697.697 0 0 0 .326-.112v.112c.098-.085.232-.128.407-.128h.145c.065.011.109.017.13.017h.049l1.544-.149.357.15.113-.196c.032.075.079.112.129.112a.97.97 0 0 0 .148-.033l.179.1.112-.1.294.116.195-.05.097.083.52-.05.082.05.292.064a.343.343 0 0 1 .107.08z"/></g><g fill="#3a6f81"><path d="M102.482 75.813c-.154.438-.641.784-1.463 1.038l-1.231-.769-1.193-1.347-.386-.885-.115-.731-.153-.385c-.334-.821-.501-1.566-.501-2.232 0-.154.038-.347.114-.578l.078-.077.074-.731-.46-.847.154-.461-.077-.616.038-.54a3.485 3.485 0 0 1-.114-.808v-.192c0-.463-.065-.922-.194-1.387v-1.077l-.267-.691-.08-.541-.385.193-1.23 1.541-1.079 1.192-.423.771-1.194 1.31-1.311.882-.153.732-.77.269-.153.424-.925.423-.305.731-.694.233-.769 1.23-.461.271-.155.731a2.592 2.592 0 0 1-1.232.307h-.23l-.385-.731-.579-.77.077-.423-.385-.541.192-.269-.039-.039-.191-.616-.307-.231c-.487-.489-.873-.938-1.156-1.348l-.23-.73-.385-.425-.733-1.347-.769-.847-.269-.463-.731-.769-.809-1.116c-.052-.208-.18-.412-.386-.618-.077.923-.244 1.604-.5 2.04l-.693 1.156.192.846-.347.848-.769 2.387-.307.771-.079.5-.616 1.271-.539.846.079.769a9.335 9.335 0 0 1-.656 1.348l.23.923c-.744.745-1.309 1.115-1.694 1.115-.41 0-.717-.192-.923-.579a1.478 1.478 0 0 1-.345-.691v-.156c.461-1.897.769-2.848.921-2.848.028 0 .039.013.039.039v-.656c0-.665.259-1.167.771-1.5v-.231l.229-.77-.038-.269c0-.128.116-.487.346-1.077l.153-.155.04-1.038.386-.653.576-1.927-.192-1.194.5-.424v-.112l.077-1.502.114-.654c.078-.207.117-.386.117-.54v-.153l-.653-1.234.19-.73.309-.077.269-.384-.039-.309.5-.462.347.153.462-.384.54.075.962.654v.27l.346.23.155.886.269.23.23.732-.074.155.345.269a.956.956 0 0 1 .423-.115c.153.076.359.244.615.5l.078.54.346.385.268.808 1.771 1.693.308.963.577.385.616 1.54 1.194 2.078c.025.026.104.117.231.27l.076.114h.386l.307-.653.924-.577c.59-.643.884-.989.884-1.04 0-.026-.026-.038-.075-.038h-.038c.127-.103.294-.193.499-.269.05-.078.231-.192.54-.346.179-.386.485-.681.921-.886l.155-.23v-.345c.617-.769 1.117-1.218 1.502-1.349 0-.41.398-.78 1.193-1.115l.693-.963.23-.654h.424c.308-.514.526-.898.654-1.156l.539-.229.269.037-.076-.769-.346-.77.538-.809.308-.962c.23 0 .448-.013.655-.037.205-.027.295-.04.269-.04.154 0 .514.128 1.077.386l.078.307.423.346.038.308.386.306-.193.193c.385.154.578.371.578.655 0 .101-.026.229-.078.384v.617l.464.694-.231.192-.039.191.076.041.116.613.538.425-.422.539-.19.846.27.617-.077.885.345 1.156c.154.513.231.923.231 1.23 0 .18-.115.424-.346.733a.498.498 0 0 1 .269.463c0 .179-.076.41-.231.691l.155.154-.116 2.155.425 1.194v1.271c.154.229.282.487.385.77.05.076.334.386.847.924.287.311.44.592.464.849zM130.694 65.729l-.386.807-.155 1.273-.385.345c-.153 1.025-.551 1.68-1.194 1.963l-.268.114-2.309 1.615-.693.388-1.117 1.232-.692-.117-.423.306-.771.271-1.926 1.002c-.153-.052-.359-.17-.615-.346-.179.257-.461.422-.847.501h-.154l-.768.614-.154-.078h-.732l-.347.27-1.461-.039-1.926.308h-.23c-.179 0-.398.025-.654.078l-1.078-.153-.19-.193-1.54-.231-.654-.308h-.925v-.422l-.731-.771-.962-.424-.424-1.194-.039-.883-.23-.27-.04-1.731.5-1.54-.076-.924.191-.192v-.731l.54-.539v-.386l.23-.423v-.386l.153-.192-.192-.423.616-.424.732-1.539 1.575-2.271.388-.192c.076-.129.192-.295.346-.501l.384-.308v-.617l.578-.113c.386-.309.808-.54 1.269-.694l.193-.23c.231-.104.9-.23 2.002-.386l1.039-.153 1.232.153.731-.039h1.041l.229.039.117.039h.192l.23-.078 1.232.039-.077.231.578.154c.153-.05.23-.154.23-.307.129.229.41.346.848.346l.305.308h1.156l2.58 1.117.307.846.23.347.693.268 1.04 1.695.614.769c.694 1.616 1.04 2.578 1.04 2.886v.425h.004v-.001zm-2.886.231l-.192-1.079.192-.308-.27-.654a.54.54 0 0 0 .039-.229.26.26 0 0 0-.078-.192l-.691-.464-.234-.616-.306-.114-.115-.54-.963-.887-.577-.461-.231.117c-.589-.541-1.68-.99-3.271-1.349-.204 0-.333-.012-.385-.038l-.193.117-.691-.195-.386.195c-.385-.129-.617-.195-.694-.195-.025 0-.122.029-.288.079-.167.05-.314.077-.442.077-.127 0-.229-.012-.308-.038-.18.334-.603.628-1.269.885l-.501-.077-.539.269-.693-.076c-.462.358-1 .73-1.617 1.116l-.193.268-.19.848-.886.385-.153.193c-.153.307-.36.59-.616.848v.654l-.539.229-.117.076-.346 1.157-.538.307c-.078 1.31-.296 2.221-.655 2.734-.206.282-.321.667-.347 1.155l-.153.422.115.269.114.579.463.501.077.501.386.384c.719.413 1.359.631 1.923.657l1.617-.425.348.346h.462l.075-.077 1.155-.191 1.233.191a.99.99 0 0 1 .73-.306c.59-.361 1.09-.541 1.5-.541l.808-.463.619-.038.5-.384 1.194-.04c.103-.026.219-.038.345-.038l.078-.114c.179-.257.448-.425.807-.502l.461-1.076.307.19.308-.153.54-.5.191.077.656-.462 1.154-1.153.501-.154.231-.579.309-.192-.078-.347.307-.579zM162.938 73.466c0 .255-.617.808-1.847 1.655l-.231-.078-.345.5-.886.114-.769.271-1.078-.231-.193.077-.73.502a2.323 2.323 0 0 0-.653-.385l-.695.653-.539-.539-.231.077a4.342 4.342 0 0 0-.25-.23 3.938 3.938 0 0 1-.172-.155h-1.657l-.268-.308a181.18 181.18 0 0 1-.77-.193 14.143 14.143 0 0 1-1.117-.344h-.461l-.347-.386h-.152c-.207 0-.43-.128-.674-.386-.245-.256-.405-.399-.482-.426a45.218 45.218 0 0 1-1.578-.826 3.026 3.026 0 0 1-1.231-1.212c-.539-.285-.951-.591-1.233-.924l-1.077-.846L142 68.615l-.268-.117-.733-.691-.269-.039-.113.039c-.155.051-.31.075-.465.075-.153 0-.319-.031-.499-.096-.181-.064-.309-.482-.385-1.252l.345-.383c.155-.54.409-.976.771-1.31l1.078-.116v.077c0 .078.037.154.115.229h.54c.024.155.229.233.614.233.386 0 .899-.04 1.541-.116v-.231c.307.05.77.078 1.386.078.821 0 1.514-.064 2.079-.193l.5-.23.847-.155 1.078-.115.153.039.191-.078c.208-.077.553-.166 1.04-.267l.308-.116.346-.191h.154l.424-.31 1.116-.345c.257-.128.384-.231.384-.308 0-.103-.063-.206-.192-.307l-.962-.848-.385-.075-.23-.154c-.155-.154-.371-.269-.655-.345h-.5l-.808-.309h-.541l-.499-.384h-.769l-.386-.116-2.195-.154-.115-.039-.154.039-.539-.117-.346.078-1.193-.116-1.271.192-.654-.192-.616.078-.463-.078-.615.229-.309-.114-.576.347-.27-.038a2.218 2.218 0 0 0-.076.461c0 .051.012.103.036.153v.154l-.113 1.927c-.078.23-.115.46-.115.693 0 .409.14.796.422 1.154l-.461.54.231.999-.27 1a6.587 6.587 0 0 0-.231 1.733c0 .204.028.54.078 1l-.078.77.27 2.27.078.31-.27 1.462v.306c0 .667-.848 1.002-2.541 1.002l.269-2.042-.154-.384-.461-1.964a1.584 1.584 0 0 1-.116-.539c0-.205.065-.461.192-.77-.153-.153-.231-.32-.231-.501 0-.255.115-.589.346-.999a1.968 1.968 0 0 1-.115-.693c0-.129.026-.346.077-.656v-.421c.205-.36.307-.564.307-.616 0-.052-.128-.294-.386-.731l.308-.77-.114-.653.154-.154.037-.386-.385-1.54.193-.692-.193-1.271h-.924l-.924 1.04c-.23-.36-.641-.668-1.231-.927-.412-.332-.618-.691-.618-1.076 0-.333.181-.705.54-1.117l.886-.577 1.385-.116 1.309-.078c.256-.589.796-.885 1.617-.885h1.04l.229.655.654-.23 1.078.192 1.462-.192 2.117.192 2.888.078 1.385.269h1.387l.115.116h.385v-.114l2.541.964 1.036.461.811.076.308.348c1.154.872 1.807 1.794 1.963 2.771l-.039.193a2.51 2.51 0 0 1-.694 1.27l-1.577 1.578-.962.078-.192.077c-.412.231-.912.385-1.501.462l-.309.27-1.193.305h-.192c-.257 0-.462.051-.617.154l-.923.81-.808-.463-.115.039-.425.231-.266-.271c-.049.129-.18.284-.385.464l-.732-.271-.692.271-.192-.155-.232.077.117.078.308.422L147 69.038l.424.616.385.384.231.54.885.04 1.271 1.193.577.23.81.461.768.193.963.346.54-.038.461-.268.193.5.655-.115.114.229.461.117 1.312-.117.537.117 1.693-.308 1.234-.27.19-.347h.54l.732-.882c.615.691.923 1.231.923 1.615l.039.192zM192.257 73.466c0 .255-.616.808-1.847 1.655l-.23-.078-.345.5-.885.114-.77.271-1.079-.231-.191.077-.732.502a2.31 2.31 0 0 0-.653-.385l-.694.653-.538-.539-.231.077a4.7 4.7 0 0 0-.25-.23 2.458 2.458 0 0 1-.173-.155h-1.656l-.268-.308a125.17 125.17 0 0 1-.771-.193 13.99 13.99 0 0 1-1.116-.344h-.462l-.346-.386h-.153c-.205 0-.428-.128-.673-.386-.244-.256-.404-.399-.48-.426a46.18 46.18 0 0 1-1.58-.826 3.036 3.036 0 0 1-1.23-1.212c-.539-.285-.95-.591-1.231-.924l-1.078-.846-1.27-1.232-.27-.117-.732-.691-.269-.039-.114.039a1.472 1.472 0 0 1-.464.075c-.154 0-.32-.031-.501-.096-.178-.064-.307-.482-.384-1.252l.346-.383c.154-.54.41-.976.769-1.31l1.079-.116v.077c0 .078.038.154.113.229h.54c.026.155.231.233.616.233.386 0 .899-.04 1.541-.116v-.231c.307.05.772.078 1.386.078.82 0 1.514-.064 2.08-.193l.5-.23.847-.155 1.076-.115.153.039.193-.078c.205-.077.551-.166 1.039-.267l.307-.116.346-.191h.153l.425-.31 1.117-.345c.256-.128.384-.231.384-.308 0-.103-.064-.206-.192-.307l-.963-.848-.382-.075-.231-.154c-.156-.154-.373-.269-.657-.345h-.5l-.808-.309h-.539l-.5-.384h-.77l-.386-.116-2.193-.155-.116-.039-.153.039-.54-.116-.346.077-1.194-.115-1.272.192-.654-.192-.615.078-.462-.078-.617.23-.308-.115-.576.347-.27-.039c-.05.204-.077.358-.077.461a.32.32 0 0 0 .039.153v.154l-.116 1.927a2.192 2.192 0 0 0-.114.693c0 .409.141.795.422 1.153l-.461.54.231.999-.27 1.001a6.548 6.548 0 0 0-.229 1.732c0 .205.026.539.076 1l-.076.771.269 2.269.078.31-.271 1.462v.307c0 .667-.847 1.001-2.539 1.001l.268-2.042-.152-.385-.462-1.964a1.579 1.579 0 0 1-.116-.538c0-.207.064-.462.193-.771-.155-.153-.233-.32-.233-.5 0-.255.116-.589.348-1a1.973 1.973 0 0 1-.115-.694c0-.129.026-.345.078-.655v-.422c.204-.359.308-.564.308-.616s-.129-.294-.386-.73l.306-.771-.115-.653.155-.154.038-.386-.386-1.539.193-.692-.191-1.268h-.924l-.923 1.038c-.232-.359-.643-.667-1.231-.925-.412-.332-.616-.692-.616-1.077 0-.334.18-.705.538-1.116l.886-.578 1.384-.116 1.312-.077c.255-.59.794-.885 1.616-.885h1.04l.229.654.654-.23 1.078.191 1.463-.191 2.118.191 2.888.078 1.385.269h1.385l.115.116h.386v-.115l2.539.964 1.038.461.809.076.306.348c1.155.872 1.809 1.794 1.964 2.771l-.037.193c-.104.486-.334.91-.693 1.27l-1.579 1.578-.96.078-.192.077c-.412.231-.912.385-1.503.462l-.307.27-1.192.305h-.191c-.258 0-.463.051-.617.154l-.924.81-.807-.463-.116.039-.423.231-.27-.27c-.05.129-.179.284-.385.464l-.73-.271-.693.271-.194-.155-.231.077.117.078.309.423 1.46 1.116.426.615.384.385.231.54.886.04 1.27 1.194.575.228.811.463.769.193.962.346.54-.038.46-.269.193.5.655-.115.115.229.464.116 1.31-.116.538.116 1.693-.308 1.232-.268.193-.348h.539l.731-.883c.615.692.923 1.231.923 1.615.014.129.026.193.026.193zM198.059 57.683l-.116.04-.23 1.462.04.848.153.115-.386.885.077.655-.345.731c-.102.333-.19.602-.268.807a1.157 1.157 0 0 1-.038 1.079l.346 1.309h-.463l-.038.077.271.541-.271 1.039h-.115l-.191.769a.663.663 0 0 0 .27-.038l-.117.77.27.693-.27.538.039 1.194-.116.501c.233.256.348.5.348.732 0 .152-.058.319-.172.499-.118.18-.175.297-.175.347l.348.25c.23.168.448.391.655.673l-.465.385.58.306c-.103 1.028-.475 1.542-1.117 1.542-.639 0-1.063-.283-1.269-.847l-.191-.271c-.409-.563-.618-.959-.618-1.193l-.769-.808.346-.385-.231-.308.078-.807-.078-.271a2.26 2.26 0 0 1-.115-.614c0-.154.038-.323.115-.501l-.077-.308-.038-1.232.115-.153-.077-2.195.308-1.845-.153-1.927.114-.193-.192-.114.231-.769v-.27l-.268-.039.19-.846c-.308-.36-.501-.859-.578-1.501h.503l.459-1.155.08.077.231-.616-.194.231v-1.04h.655l.118-.347.729-.27c.641.051 1.142.156 1.501.31.384.357.579.781.579 1.269l-.008.189zM228.054 71.388c0 .306-.167.68-.5 1.116a4.475 4.475 0 0 1-1.5 1.27 1.185 1.185 0 0 1-.654.309c-.463.307-.911.473-1.348.5-.18.18-.488.346-.924.501l-.692-.039-.693.578-.732-.152-.23.036-.576.078a7.99 7.99 0 0 1-.963.076c-.05 0-.142-.011-.269-.037h-.309l-.538.191-.771.079-.884-.04-.424.191.117.117c-.592 0-1.053.051-1.387.153l-.192-.037-1.577-.117-2.233-.077-.732-.116c-.23.104-.502.155-.808.155-.358 0-.731-.116-1.116-.346l-.732.268-.384-.347c-1.078-.024-1.708-.128-1.888-.306l-.152-.078c.077 0-.142.025-.656.078l-1.5-1-.695-.153c-.435-.207-.806-.564-1.115-1.08-.256-.437-.385-.859-.385-1.271 0-.28.128-.78.385-1.5l.767-.848.925.04c.208-.282.502-.423.886-.423.822 0 1.232.653 1.232 1.962-.54.129-.859.23-.959.309a2.98 2.98 0 0 1-.581.5v.115l.346.193.464.5 1.5-.078 1.271.387 2.002-.039.731.462.348-.192c.153 0 .347.038.578.115l1 .115.076.191h.617c.59-.178.923-.267.999-.267.129 0 .285.038.464.115.232-.051.525-.075.884-.075.255 0 .488.024.694.075a1.22 1.22 0 0 1 .615-.154c.283 0 .527.053.732.154l.848-.23.422-.462 1.461.153c.746-.231 1.336-.346 1.772-.346h.191c.181-.129.334-.192.463-.192.076 0 .167.026.269.076l.385-.153v-.308h.808c.18-.23.5-.359.961-.385.361-.334.655-.512.888-.538 0 0 .102-.153.305-.463 0-.23-.82-.731-2.463-1.5l-.305-.23c-.541-.051-.963-.142-1.271-.271-.182 0-.347-.011-.502-.039h-.076c-.129 0-.629-.152-1.502-.462a1.485 1.485 0 0 0-.884-.309c-.103 0-.257.027-.464.08h-.769l-.114-.119c-.41-.075-.733-.189-.963-.344l-.461.154-1.194-.579h-.77l-.501-.308h-.771l-.113-.192h-.618l-.54-.615h-.266c-.799 0-1.413-.154-1.849-.463l-.078-.076c-.565-.18-.975-.464-1.232-.847l-.653-.617-.424-1-.461-.614.192-1.58.924-1.076c.153-.026.269-.193.345-.501.078-.026.207-.09.386-.192l1.962-1.077a3.4 3.4 0 0 0 .541.077c.36 0 .73-.129 1.116-.385h.232v.076l.385-.345h.191c.821-.306 1.502-.461 2.041-.461h.191l.347.037.576-.346c.155-.026.359-.039.616-.039h.232c.179 0 .493-.026.942-.077.449-.051.802-.09 1.057-.115l.696-.04 1.037-.54c.077.052.244.245.502.579h.847c.15 0 .434.076.843.23h.271c.615 0 1.128.128 1.538.384 1.359.334 2.042 1.015 2.042 2.041 0 .874-.706 1.399-2.117 1.577l-.309-.46a16.743 16.743 0 0 1-.403-.154 4.194 4.194 0 0 0-.444-.154h-.847l-.385-.423-.616.077-.347.385-.925-.654-.998.154-1.194-.271c-.744.052-1.373.207-1.887.463l-.076.039a1.527 1.527 0 0 1-.423.193l-.539-.231-1.077.501-2.003.538-.461-.114-.847.538h-.385l-.229.346-.81.538.078.231.424.425.384.114.616.385 1.194.425.578.038 1.04.617.306-.116c.745.154 1.245.359 1.502.616l.115.115h.077l.77.461.269-.269.922.039.154.078h.54l.539.425h.27c.437 0 .82.063 1.156.192.024 0 .152-.014.384-.039.463 0 .975.205 1.54.616l.461-.116.347.154h.654l1.115.77 1.157.117.462.616c.873.539 1.442 1.007 1.712 1.404.269.397.405.969.405 1.711 0 .052.011.13.039.232-.003.096-.003.186-.003.263zM256.39 65.729l-.383.807-.155 1.273-.384.345c-.153 1.025-.552 1.68-1.193 1.963l-.269.114-2.311 1.617-.693.386-1.119 1.232-.691-.116-.423.308-.769.27-1.926 1c-.153-.052-.359-.168-.616-.346-.18.256-.463.422-.848.501h-.152l-.772.614-.151-.076h-.731l-.347.268-1.462-.037-1.924.306h-.232c-.18 0-.398.025-.654.079l-1.077-.154-.191-.193-1.541-.231-.654-.307h-.925v-.422l-.73-.771-.962-.423-.423-1.194-.039-.884-.229-.27-.039-1.733.501-1.54-.077-.923.19-.192v-.732l.54-.539v-.385l.231-.425v-.385l.154-.191-.193-.424.616-.424.732-1.539 1.576-2.271.386-.193c.078-.128.193-.294.347-.5l.385-.307v-.617l.576-.114c.386-.309.81-.54 1.272-.693l.192-.23c.229-.104.898-.231 2.002-.386l1.039-.153 1.232.153.732-.038h1.039l.229.038.115.039h.194l.228-.077 1.233.038-.077.231.578.154c.152-.05.231-.155.231-.308.127.23.41.345.846.345l.309.309h1.153l2.583 1.118.305.846.233.347.69.268 1.037 1.694.618.77c.693 1.616 1.038 2.578 1.038 2.886v.425-.001zm-2.886.231l-.192-1.079.192-.308-.269-.654a.512.512 0 0 0 .038-.229.256.256 0 0 0-.077-.192l-.692-.464-.228-.616-.308-.115-.115-.54-.964-.886-.578-.461-.23.117c-.591-.541-1.682-.99-3.272-1.349-.206 0-.335-.012-.385-.038l-.194.115-.69-.193-.385.193c-.385-.127-.616-.193-.693-.193-.027 0-.122.028-.289.078a1.534 1.534 0 0 1-.443.077.938.938 0 0 1-.308-.039c-.178.334-.603.63-1.27.886l-.5-.078-.542.269-.69-.075a20.21 20.21 0 0 1-1.618 1.116l-.191.268-.191.848-.886.384-.154.193c-.155.308-.36.59-.616.848v.654l-.54.229-.116.077-.345 1.156-.54.308c-.079 1.309-.298 2.221-.656 2.733-.207.282-.322.667-.347 1.154l-.153.423.113.27.116.578.463.5.076.501.386.385c.719.412 1.357.63 1.923.655l1.618-.425.345.346h.465l.076-.075 1.154-.193 1.235.193a.987.987 0 0 1 .729-.308c.59-.359 1.092-.54 1.502-.54l.807-.463.618-.037.5-.385 1.194-.039c.104-.026.218-.04.346-.04l.077-.114c.178-.256.446-.426.808-.501l.462-1.077.307.191.309-.153.537-.501.195.077.652-.461 1.157-1.155.5-.153.233-.579.305-.192-.077-.347.306-.575zM285.017 60.148l-.113.192c-.205 1.231-.424 1.975-.654 2.23l-.078.231v1.81l-.385.77.119.463-.389 1.539.154.425-.27 1.346.038.656-.27.847.347 1.001-.652.882.152.501-.306.539.113.114.115 1.772.5.884-.653.499-.384.616-1.427-.383-.23-1.734-.23-.076c-.104-.9-.151-1.823-.151-2.772l-.116-.192-.656-.116-.191.232-.578-.656-.539.154-.846-.615a16.072 16.072 0 0 1-1.348-.155l-.346-.308-.155.04-2.773-1.656-.229-.269-.846-.309-.501-.65-.426-.191-.614-.54-1.81-.733-1.154-1.385-.615-.077-.385-.54a6.972 6.972 0 0 1-1.502-1.27v.345l-.307 1.656.345 1.115-.578 1.887.115.577c.104.18.155.411.155.693 0 .334-.052.616-.155.847l.348.078-.464 1.348v.843l-.153.812.27.499-.501.655c.078.102.114.244.114.425a4.401 4.401 0 0 1-.808 1.579h-.694c-.795 0-1.207-.552-1.231-1.657l.425-1.309-.192-.616.23-.578a2.868 2.868 0 0 1-.038-.539c0-.179.012-.307.038-.384l-.27-.347v-.269c0-.129.012-.283.039-.463v-.424c0-.255-.103-.642-.308-1.156l.308-.462.192-.652-.192-1.079.307-1.116-.228-.732.305-1.809-.077-1.308.153-1.117-.153-.346.077-2.233a3.391 3.391 0 0 1-.077-.54c0-.179.038-.345.117-.5.074-.41.384-.629.922-.655l.347.078.306-.387c.593.309 1.004.745 1.232 1.31H265l.114 1.194.501.347.038.462.578.345.308 1.077.191.191 1.078.734c.256.127.408.358.459.692l.079.155.925.576 1.038 1.04 2.771 2.156c.539.103.975.425 1.309.961l1.152.347.964.766.464.119 1.156.539 1.113.347c.412.385.799.654 1.157.807l.115-.577.386-.77-.154-.154.19-2.118.347-.653v-.114l-.463-.618.463-1.578-.154-1.308.348-2.309-.501-.501.501-1.501-.307-.347.385-.5-.115-.424 1.848-.886.191.424 1.155.193c-.206.486-.308.858-.308 1.115 0 .128.014.232.041.31.204.282.319.539.345.77l-.229.614.538.892z"/></g></g></g></svg>