<svg xmlns="http://www.w3.org/2000/svg" width="640" height="360" viewBox="0 0 640 360"><path fill="#c5f8f1" d="M-5-5h650v261H-5z"/><path fill="#60938c" d="M-5 229h650v12H-5z"/><path fill="#71be63" d="M-5 241h650v15H-5zM-5 291h650v31H-5z"/><path fill="#43ab5f" d="M-5 321h650v45H-5z"/><linearGradient id="a" gradientUnits="userSpaceOnUse" x1="-2479.183" y1="-863.955" x2="-1941.985" y2="-808.8" gradientTransform="matrix(.4413 0 0 -.4608 567.618 818.306)"><stop offset="0" stop-color="#bbb"/><stop offset="1" stop-color="#fff"/></linearGradient><linearGradient id="b" gradientUnits="userSpaceOnUse" x1="-2230.328" y1="-1111.99" x2="-2228.914" y2="-922.505" gradientTransform="matrix(.4413 0 0 -.4608 567.618 818.306)"><stop offset="0" stop-color="#c9c9c9"/><stop offset="1" stop-color="#c9c9c9" stop-opacity="0"/></linearGradient><title>Pedestrian Landscaping</title><path fill="#c5f8f1" d="M0 0h640v256H0z"/><path d="M540.479 198.948c-15.194 13.341-20.813-21.087-44.755 3.155-3.424 3.467-7.697 5.923-11.963 8.959h-4.609c-3.29-1.814-6.125-3.354-7.431-4.015-4.556-9.564-10.065-15.5-16.941-16.768-42.74-7.877-121.938 23.147-121.938 23.147s10.722 5.758 21.566 11.17c-54.665 1.069-101.711 4.758-101.711 4.758-6.833-.824-13.538-3.716-19.966-7.489-10.116-5.94-19.542-14.071-27.676-19.818-18.698 5.667-33.478 12.31-42.42 20.186-.031 1.532-6.668-16.988-10.625-15.017-.878.438-1.757.856-2.637 1.267-8.378 2.66-33.93 7.197-33.93 7.197-18.726-5.363-27.134-16.758-37.443-18.146-15.144-2.04-39.534 13.607-59.044 15.804-3.821.431-10.581 9.612-14.911 16.095H0V258h640v-35.254c-4.508-1.363-76.392-44.106-99.521-23.798z" fill="#60938c"/><path d="M621.044 219.13c-19.51-2.197-47.223-14.542-57.512-10.658-11.052 4.171-22.765 17.247-41.489 22.609 2.128-.61-2.059-7.964-2.947-8.872-3.048-3.113-7.731-4.314-11.905-4.895-4.566-.635-8.594-.726-13.013-2.298-5.898-2.099-7.378-1.229-11.941 2.094-2.849 2.075-3.674 1.811-7.828 1.585-3.897-.211-7.811-.29-11.565-1.482-5.272-1.674-10.368-3.862-15.689-5.445-6.302-1.875-10.935-4.214-16.728-.601-6.008 3.747-13.134 9.916-20.019 11.859a9274.726 9274.726 0 0 0-23.569 6.684c-4.807-1.109-9.529-2.919-14.108-5.107-4.394-2.1-8.646-4.538-12.73-7.006v-.691c-.786-.238-1.572-.489-2.359-.741-4.448-2.737-8.67-5.44-12.586-7.693-9.432 2.327-17.863 4.857-25.055 7.615-7.192-2.758-15.623-5.288-25.055-7.615-3.917 2.253-8.138 4.957-12.586 7.693-.787.252-1.573.503-2.359.741v.691c-4.084 2.468-8.336 4.906-12.73 7.006-4.579 2.188-9.301 3.998-14.108 5.107a9158.656 9158.656 0 0 0-23.569-6.684c-8.926-4.627-17.253-10.364-24.538-14.555-11.695 2.886-21.858 6.082-30.018 9.64-5.543.142-10.991.451-15.956 1.005-2.207-3.562-5.004-7.276-7.072-6.438a135.833 135.833 0 0 1-7.016 2.61c-1.665.57-3.33 1.113-4.993 1.617-25.452 0-22.041 14.175-22.041 14.175-18.726-5.361-30.439-18.438-41.491-22.609-10.289-3.884-38.002 8.461-57.512 10.658C13.023 219.798 0 241.567 0 241.567V258h640v-7-9.433s-13.023-21.769-18.956-22.437z" fill="#71be63"/><path d="M152.009 206.006l-.169.224c.094-.079.156-.154.169-.224z" fill="#2980b9"/><path d="M376.401 207.075c-1.907.634-3.023 1.028-3.023 1.028l8.326 14.998 1.938-.001-7.241-16.025z" fill="none"/><path d="M383.643 226.593l-1.938-3.492 1.938-.001-5.985-13.246c-11.375 3.863-24.043 10.76-34.546 17.184a1848.12 1848.12 0 0 1 40.531-.445z" fill="none"/><path d="M377.657 215.358l-.248-.888c-.729.133-1.405.259-2.005.374l.254 4.254.811 13.583c1.796-.518 3.663-1.053 5.571-1.6l-4.383-15.723z" fill="none"/><path d="M374.927 238.883l.455 3.634a987.71 987.71 0 0 1 8.261-.029l-1.938-5.659 1.938-.002-1.602-5.745c-1.908.547-3.775 1.082-5.571 1.6l.4 6.696c-.647-.167-1.296-.33-1.943-.495zM343.111 227.038c-6.84.146-13.509.321-19.927.515l2.359 10.992a350.067 350.067 0 0 1 17.568-11.507z" fill="#71be63"/><path fill="#43ab5f" d="M0 321h640v40H0z"/><path fill="#71be63" d="M0 291h640v31H0z"/><path d="M192.907 256.792H140v2.071h50.871c.675-.693 1.352-1.385 2.036-2.071z" fill="#94d75b"/><path fill="#94d75b" d="M-5 256h650v35H-5z"/><path fill="#94d75b" d="M0 256h640v35H0z"/><path d="M140.108 346.8a3.947 3.947 0 0 0 0-7.894c-.037 0-.071.01-.108.011v7.873c.037 0 .071.01.108.01z" fill="#43ab5f"/><path d="M140.108 346.8a3.947 3.947 0 0 0 0-7.894c-.037 0-.071.01-.108.011v7.873c.037 0 .071.01.108.01z" opacity=".63" fill="#71be63"/><path d="M142.745 280.545a2.73 2.73 0 0 0-1.93-3.344 2.7 2.7 0 0 0-.815-.078v5.439a2.725 2.725 0 0 0 2.745-2.017z" fill="#6fa144"/><path d="M200.863 243.25c0-4.185-3.339-20.498-5.452-20.498-2.111 0-5.451 16.314-5.451 20.498 0 3.737 1.952 5.799 4.514 6.199v5.129a.936.936 0 1 0 1.875 0v-5.129c2.562-.4 4.514-2.462 4.514-6.199z" fill="#43ab5f"/><path d="M187.182 243.373c0-5.317-4.245-26.054-6.929-26.054-2.685 0-6.929 20.737-6.929 26.054 0 4.75 2.481 7.371 5.737 7.879v6.52a1.192 1.192 0 0 0 2.383 0v-6.52c3.258-.508 5.738-3.129 5.738-7.879z" fill="#94d75b"/><path d="M242.546 269.422a4.735 4.735 0 0 1-4.737-4.736v-74.209a4.736 4.736 0 0 1 4.737-4.737 4.736 4.736 0 0 1 4.737 4.737v74.209a4.735 4.735 0 0 1-4.737 4.736z" fill="#674447"/><path d="M287.12 207.317a19.194 19.194 0 0 0 3.458-10.991c0-8.633-5.702-15.857-13.518-18.331-.069-.057-.125-.128-.195-.187.697-1.975 1.15-4.065 1.15-6.279 0-10.464-8.483-18.948-18.947-18.948-1.516 0-2.97.225-4.383.561-4.29-6.054-11.317-10.032-19.302-10.032-13.08 0-23.684 10.603-23.684 23.683 0 2.75.561 5.348 1.421 7.803-9.264 4.683-15.631 14.264-15.631 25.354 0 15.647 12.647 28.335 28.275 28.414 3.999 3.648 9.269 5.929 15.108 5.929 4.342 0 8.358-1.287 11.796-3.418a29.49 29.49 0 0 0 5.435.525c3.593 0 7.019-.675 10.202-1.849 9.261 1.286 18.596 2.364 19.183 1.583.471-.628-.583-8.689-2.023-18.167a29.53 29.53 0 0 0 1.655-5.65z" fill="#43ab5f"/><path d="M287.12 207.317a19.194 19.194 0 0 0 3.458-10.991c0-8.633-5.702-15.857-13.518-18.331-.069-.057-.125-.128-.195-.187.697-1.975 1.15-4.065 1.15-6.279 0-10.464-8.483-18.948-18.947-18.948-1.516 0-2.97.225-4.383.561-4.29-6.054-11.317-10.032-19.302-10.032-6.138 0-11.679 2.395-15.886 6.226 1.963-.527 3.988-.898 6.117-.898 7.984 0 15.012 3.98 19.302 10.033 1.413-.336 2.867-.559 4.382-.559 10.464 0 18.947 8.482 18.947 18.947 0 2.213-.452 4.306-1.149 6.279.07.057.126.128.195.187 7.815 2.473 13.517 9.698 13.517 18.331 0 4.09-1.289 7.869-3.458 10.991a29.605 29.605 0 0 1-1.656 5.65c.723 4.752 1.346 9.144 1.731 12.426 5.461.628 9.675.928 10.062.412.471-.628-.583-8.689-2.023-18.167a29.492 29.492 0 0 0 1.656-5.651z" fill="#71be63"/><path fill="#de7e68" d="M275.407 195.214l42.632-42.632 85.262 85.263v33.158H275.407z"/><path fill="#99645f" d="M306.443 269.424H407.84v4.784H306.443z"/><path fill="#ecf0f1" d="M303.828 271.003h-56.841v-37.896l28.42-14.209 28.421 14.209z"/><path d="M454.421 129.649c-2.603 0-5.066.511-7.421 1.257-7.471-10.74-19.861-17.801-33.935-17.801-14.069 0-26.46 7.061-33.931 17.801-2.359-.746-4.818-1.257-7.421-1.257-13.704 0-24.814 11.106-24.814 24.81H479.23c0-13.704-11.105-24.81-24.809-24.81zM139.059 31.952c-2.603 0-5.066.511-7.421 1.257-7.471-10.74-19.861-17.801-33.935-17.801-14.069 0-26.46 7.061-33.931 17.801-2.359-.746-4.818-1.257-7.421-1.257-13.704 0-24.814 11.106-24.814 24.81h132.331c0-13.704-11.105-24.81-24.809-24.81z" fill="#ddfbfa"/><path d="M273.547 124.82c-.813 0-1.583.159-2.315.391-2.329-3.348-6.193-5.549-10.582-5.549-4.388 0-8.252 2.201-10.581 5.549-.735-.231-1.504-.391-2.314-.391a7.737 7.737 0 0 0-7.738 7.737h41.267a7.74 7.74 0 0 0-7.737-7.737zM148.134 39.611c-1.925 0-3.747.483-5.48 1.186-5.515-10.167-14.662-16.849-25.053-16.849-10.389 0-19.538 6.682-25.051 16.849-1.741-.703-3.561-1.186-5.479-1.186-10.119 0-18.32 10.519-18.32 23.494h97.703c-.007-12.975-8.212-23.494-18.32-23.494zM79.383 111.156c-1.925 0-3.747.483-5.48 1.186-5.515-10.167-14.663-16.849-25.053-16.849-10.389 0-19.538 6.682-25.051 16.849-1.741-.703-3.561-1.186-5.479-1.186C8.201 111.156 0 121.675 0 134.649h97.703c-.007-12.974-8.212-23.493-18.32-23.493zM614.378 93.722c-.813 0-1.583.159-2.315.391-2.328-3.348-6.192-5.549-10.581-5.549-4.388 0-8.253 2.201-10.581 5.549-.735-.231-1.504-.391-2.314-.391a7.737 7.737 0 0 0-7.737 7.737h41.267c-.004-4.273-3.47-7.737-7.739-7.737zM444.35 17.674c-1.676 0-3.262.445-4.771 1.093-4.799-9.369-12.763-15.526-21.808-15.526-9.043 0-17.009 6.158-21.807 15.526-1.516-.647-3.1-1.093-4.771-1.093-8.808 0-15.946 9.693-15.946 21.65h85.05c-.005-11.956-7.148-21.65-15.947-21.65z" fill="#fff"/><path d="M519.521 105.851c-1.392 0-2.704.273-3.96.67-3.99-5.732-10.604-9.5-18.115-9.5-7.516 0-14.127 3.768-18.118 9.5-1.257-.397-2.569-.67-3.961-.67-7.314 0-13.247 5.931-13.247 13.248h70.648c0-7.318-5.932-13.248-13.247-13.248z" fill="#e4fcfb"/><path d="M316.31 24.933a5.42 5.42 0 0 0-1.638.278c-1.649-2.371-4.383-3.929-7.49-3.929-3.105 0-5.841 1.558-7.49 3.929-.521-.164-1.063-.278-1.638-.278a5.479 5.479 0 0 0-5.478 5.478h29.21a5.476 5.476 0 0 0-5.476-5.478z" fill="#fff"/><path d="M386.062 28.919c-1.077 0-2.095.212-3.07.52-3.088-4.44-8.213-7.361-14.031-7.361-5.819 0-10.943 2.92-14.032 7.361-.975-.308-1.993-.52-3.069-.52-5.666 0-10.26 4.594-10.26 10.26h54.722c-.001-5.665-4.594-10.26-10.26-10.26z" fill="#ddfbfa"/><path fill="#99645f" d="M405.524 245.092l-87.485-87.487-44.856 44.857-5.024-5.023 49.88-49.879 92.51 92.509zM306.089 238.209l-30.682-15.341-30.682 15.341-3.174-6.355 33.856-16.928 33.856 16.928z"/><path fill="#63a0b5" d="M289.618 199.95h14.21v18.948h-14.21z"/><path d="M305.012 220.082h-16.579v-21.315h16.579v21.315zm-14.21-2.369h11.842v-16.58h-11.842v16.58z" fill="#556483"/><path fill="#556483" d="M289.618 203.503h14.21v2.368h-14.21z"/><path fill="#63a0b5" d="M313.302 199.95h14.21v18.948h-14.21z"/><path d="M328.696 220.082h-16.579v-21.315h16.579v21.315zm-14.21-2.369h11.842v-16.58h-11.842v16.58z" fill="#556483"/><path fill="#556483" d="M313.302 203.503h14.21v2.368h-14.21z"/><path fill="#63a0b5" d="M336.985 199.95h14.21v18.948h-14.21z"/><path d="M352.379 220.082h-16.578v-21.315h16.578v21.315zm-14.209-2.369h11.841v-16.58H338.17v16.58z" fill="#556483"/><path fill="#556483" d="M336.985 203.503h14.21v2.368h-14.21z"/><path fill="#63a0b5" d="M322.775 237.845h14.21v18.946h-14.21z"/><path d="M338.17 257.977h-16.578V236.66h16.578v21.317zm-14.211-2.37h11.843v-16.578h-11.843v16.578z" fill="#556483"/><path fill="#556483" d="M322.775 241.396h14.21v2.369h-14.21z"/><path fill="#63a0b5" d="M346.459 237.845h14.21v18.946h-14.21z"/><path d="M361.853 257.977h-16.578V236.66h16.578v21.317zm-14.209-2.37h11.842v-16.578h-11.842v16.578z" fill="#556483"/><path fill="#556483" d="M346.459 241.396h14.21v2.369h-14.21z"/><path fill="#63a0b5" d="M370.143 237.845h14.21v18.946h-14.21z"/><path d="M385.539 257.977H368.96V236.66h16.579v21.317zm-14.212-2.37h11.842v-16.578h-11.842v16.578z" fill="#556483"/><path fill="#556483" d="M370.143 241.396h14.21v2.369h-14.21z"/><path fill="#63a0b5" d="M256.46 237.845h14.209v18.946H256.46z"/><path d="M271.854 257.977h-16.579V236.66h16.579v21.317zm-14.21-2.37h11.842v-16.578h-11.842v16.578z" fill="#556483"/><path fill="#556483" d="M256.46 241.396h14.209v2.369H256.46z"/><path fill="#63a0b5" d="M280.145 237.845h14.21v18.946h-14.21z"/><path d="M295.538 257.977H278.96V236.66h16.578v21.317zm-14.21-2.37h11.842v-16.578h-11.842v16.578z" fill="#556483"/><path fill="#556483" d="M280.145 241.396h14.21v2.369h-14.21z"/><path d="M275.567 261.365c-1.831 0-3.563.36-5.222.884-5.256-7.555-13.974-12.522-23.875-12.522s-18.62 4.968-23.875 12.522c-1.659-.523-3.391-.884-5.223-.884-9.642 0-17.458 7.816-17.458 17.458h93.11c.001-9.641-7.815-17.458-17.457-17.458z" fill="#71be63"/><path d="M264.372 261.364c-1.832 0-3.563.36-5.222.884-4.229-6.08-10.75-10.335-18.277-11.824-7.526 1.489-14.048 5.744-18.277 11.824-1.66-.523-3.391-.884-5.223-.884-9.642 0-17.458 7.817-17.458 17.459h81.916c0-9.641-7.817-17.459-17.459-17.459z" fill="#43ab5f"/><path d="M274.708 278.737c0-5.607 4.546-10.153 10.154-10.153.847 0 1.656.133 2.442.33 2.649-2.861 6.405-4.682 10.613-4.682 8.011 0 14.505 6.494 14.505 14.505h-37.714z" fill="#71be63"/><path d="M295.379 264.504a14.496 14.496 0 0 0-8.076 4.41c-.787-.195-1.595-.33-2.442-.33-5.607 0-10.153 4.546-10.153 10.153h32.472c.001-7.085-5.085-12.964-11.801-14.233zM198.915 255.333c-.726 0-1.412.136-2.071.334-2.083-2.857-5.54-4.735-9.464-4.735-3.925 0-7.381 1.878-9.465 4.735-.658-.198-1.343-.334-2.07-.334-3.822 0-6.92 2.954-6.92 6.602h36.912c-.001-3.647-3.1-6.602-6.922-6.602z" fill="#43ab5f"/><path d="M525.951 46.289c0-16.31 13.224-29.533 29.535-29.533 2.462 0 4.816.39 7.102.956 7.707-8.321 18.633-13.613 30.871-13.613 23.303 0 42.191 18.891 42.191 42.19H525.951z" fill="#e4fcfb"/><path d="M377.489 69.294a7.4 7.4 0 0 1 7.4-7.4c.617 0 1.209.098 1.78.24 1.931-2.084 4.669-3.411 7.732-3.411 5.841 0 10.573 4.733 10.573 10.571h-27.485z" fill="#fff"/><circle cx="327.204" cy="350.435" r="3.947" fill="#94d75b"/><circle cx="373.337" cy="342.458" r="3.948" fill="#94d75b"/><circle cx="298.265" cy="346.011" r="3.948" fill="#71be63"/><circle cx="403.301" cy="291" r="3.948" fill="#71be63"/><circle cx="327.878" cy="306.025" r="3.948" fill="#94d75b"/><circle cx="472.468" cy="348.084" r="3.947" fill="#94d75b"/><circle cx="543.053" cy="271.002" r="3.948" fill="#71be63"/><circle cx="224.559" cy="338.765" r="3.948" fill="#71be63"/><circle cx="166.918" cy="270.813" r="2.272" fill="#71be63"/><circle cx="197.489" cy="333.28" r="3.948" fill="#94d75b"/><circle cx="417.771" cy="285.294" r="2.73" fill="#b0eb81"/><circle cx="268.342" cy="299.752" r="2.731" fill="#94d75b"/><circle cx="379.98" cy="310.968" r="2.731" fill="#94d75b"/><circle cx="576" cy="312.219" r="2.73" fill="#b0eb81"/><path d="M457.997 297.02a2.73 2.73 0 1 1 0 0zM457.997 297.02a2.73 2.73 0 1 1 0 0z" fill="#94d75b"/><circle cx="496.366" cy="306.1" r="2.73" fill="#b0eb81"/><circle cx="185.291" cy="308.83" r="2.73" fill="#94d75b"/><circle cx="185.291" cy="272.866" r="2.73" fill="#a9df7c"/><circle cx="483.618" cy="263.502" r="2.73" fill="#b0eb81"/><circle cx="21.997" cy="260.771" r="2.731" fill="#94d75b"/><path d="M18.049 336.819a3.947 3.947 0 0 0 0-7.894c-.037 0-.071.01-.108.011v7.873c.037.001.071.01.108.01z" fill="#43ab5f"/><path d="M18.049 336.819a3.947 3.947 0 0 0 0-7.894c-.037 0-.071.01-.108.011v7.873c.037.001.071.01.108.01z" opacity=".63" fill="#71be63"/><circle cx="42.053" cy="269.422" r="3.947" fill="#94d75b"/><circle cx="562" cy="342.853" r="3.948" fill="#94d75b"/><circle cx="75.431" cy="282.572" r="3.948" fill="#71be63"/><circle cx="205.819" cy="296.044" r="3.948" fill="#94d75b"/><circle cx="350.409" cy="338.104" r="3.947" fill="#94d75b"/><circle cx="595.053" cy="271.002" r="3.948" fill="#71be63"/><circle cx="75.431" cy="338.905" r="3.948" fill="#71be63"/><circle cx="75.43" cy="323.299" r="3.948" fill="#94d75b"/><circle cx="38.106" cy="273.369" r="2.731" fill="#94d75b"/><circle cx="257.921" cy="300.988" r="2.731" fill="#94d75b"/><circle cx="142.672" cy="299.508" r="2.73" fill="#b0eb81"/><path d="M335.938 287.039a2.73 2.73 0 1 1 0 0zM335.938 287.039a2.73 2.73 0 1 1 0 0z" fill="#94d75b"/><circle cx="374.307" cy="296.119" r="2.73" fill="#b0eb81"/><circle cx="609.73" cy="279.843" r="2.73" fill="#94d75b"/><circle cx="30.365" cy="304.375" r="2.731" fill="#94d75b"/><path d="M166.522 256.662h7.583c-2.064-4.421-6.299-.778-7.583 0z" fill="none"/><path d="M50.621 109.477c-2.603 0-5.066.511-7.421 1.257-7.471-10.74-19.861-17.801-33.935-17.801A41.28 41.28 0 0 0 0 94v40.287h75.431c0-13.704-11.106-24.81-24.81-24.81z" fill="#ddfbfa"/><circle cx="585.801" cy="39.18" r="27.547" fill="#ffcb66"/><path d="M591.175 49.599c-1.642 0-3.188.322-4.674.791-4.705-6.763-12.512-11.21-21.37-11.21-8.865 0-16.668 4.447-21.372 11.21-1.485-.469-3.034-.791-4.673-.791-8.629 0-15.63 6.997-15.63 15.627h83.345c0-8.63-6.996-15.627-15.626-15.627z" fill="#fff"/></svg>