<svg xmlns="http://www.w3.org/2000/svg" xmlns:xlink="http://www.w3.org/1999/xlink" width="640" height="360" viewBox="0 0 640 360"><defs><path id="a" d="M0 0h640v360H0z"/></defs><clipPath id="b"><use xlink:href="#a" overflow="visible"/></clipPath><g clip-path="url(#b)"><path fill="#FFF" d="M0 0h640v360H0z"/><path fill="#EEF0F1" d="M-60 0h760v53.333H-60z"/><radialGradient id="c" cx="-358.121" cy="-190.376" r="520.415" fx="-719.527" fy="-155.072" gradientTransform="matrix(.7129 0 0 .4991 378.034 225.284)" gradientUnits="userSpaceOnUse"><stop offset="0" stop-color="#78abd3"/><stop offset=".022" stop-color="#74a9d2"/><stop offset=".166" stop-color="#629dcc"/><stop offset=".335" stop-color="#5595c7"/><stop offset=".554" stop-color="#4d90c5"/><stop offset="1" stop-color="#4b8fc4"/></radialGradient><path fill="url(#c)" d="M-60 70h760v150.27H-60z"/><path fill="#FFF202" d="M629.997 163.604c-24.205-47.082-21.802 10.161-37.821-5.166-1.813-1.733-12.838-19.492-16.963-16.151-21.558 17.466-10.342 1.488-19.212-9.589-1.355 1.066-1.552 3.422-1.889 5.079.055-1.896.675-4.446-.636-6.034-.181.261-.677.659-.877 1.054-.382-5.5.908-10.319 3.868-14.455 1.687-4.851-11.328 6.526-7.377 5.597 3.026-.713-11.025-1.233-5.271 1.604a42.224 42.224 0 0 1-.596-14.889c-8.699.082-8.114.987-16.448 2.623-.732 3.356.515 6.965-.251 10.321-2.213.155-4.311 1.135-6.531 1.194.965 4.197.437 8.176-1.585 11.94-3.714.591.631-9.737-6.104-8.754-1.018 2.758-2.914 4.54-5.688 5.347-1.335-3.327.846-6.985-.071-10.354-3.381-.518-6.382 2.626-9.804.959-.491 7.416 4.699 11.121 5.419 18.922-.523-.09-1.423.327-1.953.239.568 1.75 1.681 2.909 3.34 3.478-2.73 1.396-4.036 1.15-3.92-.734-3.731 1.126-5.093 4.173-4.085 9.14-.172-2.889.499-6.521-.412-9.225.33-4.845-3.483 15.086-1.765 14.35-2.82-1.416-5.062-3.474-6.725-6.175-2.572 5.236 2.882 10.087-3.305 7.973-.626 4.739-3.264 7.161-7.912 7.268-6.204 3.278 4.329 14.423 4.424 18.069-2.252-.675-3.499.126-3.742 2.404.938.219 1.946.155 2.905.241-1.905 8.951-12.464-4.647-12.464-9.254-7.643-.165-15.314-.264-22.954-.163-18.209.234-64.015 13.528-75.854 4.649-3.845 6.409 1.282 16.663-6.408 21.79-1.877 0-3.752-2.053-5.628-2.654.308.022.5-.2.5-1.19-.338.338-.651.698-.951 1.068.021.008.039.015.06.021 1.846.435-30.405-3.985-31.153-3.653 13.914 26.667 47.754 18.726 75.084 18.499 1.232-.04 36.847.235 50.112.235-6.188-2.31-22.639-8.898-24.479-17.512 13.438-1.258 20.882 8.008 29.19 10.271-2.23-1.204-3.555-5.005-.854-5.846-.801 3.188 3.745 1.727 3.335 0-.981-.139-2.366.152-2.501-.885 8.793-3.293 15.139 5.063 19.959 10.431-.541.016-1.101.009-1.674-.01.022.026.048.05.07.076-.071 1.328-1.902.786-1.692 2.411.927.054 1.84.096 2.715.093-.174.236-.258.568-.126 1.128-4.183.574-10.539-1.162-13.336.885h180.037v-54.011c-1.642-2.682-6.648-1.789-10.001-2.655"/><path fill="#FBED1F" d="M686.048 206.011v-36.302c-2.221-.602-5.197-.398-7.438-.978-.413-.802-.864-1.56-1.31-2.322a11.928 11.928 0 0 1-1.255-.241c-2.599-5.052-5.958-9.291-9.673-13.152a162.4 162.4 0 0 0-6.102-5.534c-1.622 1.227-2.561 3.182-4.999 3.541v5.313c-1.743-.374-2.208.607-3.335.887v7.082c-1.71.84-3.968 1.098-4.168 3.542-1.958-.282-3.13-1.399-5.834-.886.161-1.154.046-2.017-.313-2.619a6.485 6.485 0 0 0-2.251.056c.053-.383.07-.73.068-1.052a6.097 6.097 0 0 0-.839.072 12.06 12.06 0 0 0-.418-2.408c-.544-.235-1.25-.295-2.146-.155-.19-2.902-1.237-4.896-2.611-6.541-1.174-1.047-2.368-2.076-3.383-3.293-1.419-1.269-2.799-2.581-3.78-4.316-1.692.291-2.876 1.122-4.333 1.663v3.541c-5.641 1.092-9.208 4.385-16.669 3.543v-2.431c-.806.008-1.654-.03-2.563-.133v-9.766c-.498 2.379-1.131 4.611-3.271 5.245 1.352-2.545 1.574-7.598 2.223-12.851-1.91 3.096-1.014 9.172-4.787 10.287 2.352-4.428 1.279-16.45 5.003-23.906h.212a1.61 1.61 0 0 1 .779-.83c.027-1.579-2.201-.764-3.492-.941v.887c-2.273-.08-1.678 1.475-3.335 0v5.313c-2.794.607-3.047-1.486-3.335-3.541-3.279-.533.213 6.127-3.332 5.311v-15.051c-4.349 1.087-6.555 3.023-7.503-2.657-1.7 1.44-3.405 2.875-5.833 3.542v1.771h-3.335v10.625c-3.092-.627-3.577 1.512-6.667.885v1.771c-.082 4.044.674 8.981-1.667 10.625-1.697-.855-1.8-3.401-1.668-6.199-.908-1.985-4.093-1.556-5.002-3.541-1.236.752-1.792 2.229-1.667 4.428-1.9-.248-3.132.213-3.335 1.77-.713-.817.491-7.108 0-10.625-3.582-.149-7.265 2.926-10.001.887.288 2.056.54 4.149 3.334 3.541v4.428c-.671.761-2.283.525-2.501 1.77a32.24 32.24 0 0 1 1.37 1.99c.556-1.023 1.366-1.547 2.541-1.282.143-1.326-.296-3.269.833-3.543 2.717 3.608 4.77 7.921 5.836 13.281h-.618c.23.83.443 1.677.618 2.563h-4.804c.018.093.042.179.06.271h-1.086c.205 5.373-3.012 8.507-3.338 13.01-2.426.303-3.444-.892-4.24-2.319a11.797 11.797 0 0 0-.504 2.591c-1.304.163-2.198-.11-2.871-.614.135 1.268.095 2.537-.722 3.885-1.188-.213-1.404-1.458-2.501-1.771-.052 7.323-5.708 5.973-9.167 7.969a7.435 7.435 0 0 0-.496 1.533c.972 5.077 7.315 9.044 6.151 14.18.373 1.712.072 3.523-1.487 5.536-1.585.115-3.06.047-4.461-.127-.093.132-.178.264-.283.399-6.935.505-11.877-2.358-16.884-3.336 0 .369-.003.735-.013 1.095.038 2.199.016 4.338-.311 6.151 6.239 6.276 12.756 12.256 18.616 18.93-.042.801-.726.919-1.224 1.237.402.446.826.874 1.224 1.327-.042.812-.748.921-1.246 1.25h161.536c.003-4.756.003-9.508.003-14.261z"/><path opacity=".17" d="M-60 50h760v3H-60z"/><path fill="#34495E" d="M33.655 38.222c.25-.484.25-1.47.788-2.043l-.143-.198c1.362-3.458 3.458-6.881 5.573-10.321l.358-.824s.107-.878.305-1.183c.215-.305.968-.717.968-.717s.179-.824.376-1.146c.197-.305.86-.861.86-.861.591-.286.717-.717.842-1.146l.484-.591-.054.358.43.18.322.25.287-.232-.269.717c-.305.322-.627.645-.574 1.29 0 0-.125.842-.304 1.165-.179.322-.807.896-.807.896s.018.843-.144 1.183c-.161.34-.878.86-.878.86l-.538.716c-1.935 3.531-3.888 7.043-6.236 9.946l-.251-.019c-.23.788-1.09 1.271-1.395 1.72z"/><path fill="#34495E" d="M44.836 20.284c.233.125.287.484.126.771-.162.286-.502.412-.735.286-.018 0-.018-.018-.036-.018.143-.125.143-.358.233-.573.072-.197.233-.358.215-.52.072 0 .126.019.197.054zM43.762 19.675c-.233-.125-.574 0-.735.287-.161.286-.107.627.125.771.018 0 .018 0 .036.018.036-.179.232-.305.376-.483.144-.162.197-.377.341-.448a.548.548 0 0 0-.143-.145zM52.202 24.836c2.795 1.362 5.412 3.046 7.723 5.179 1.505 1.505 3.53 4.283 3.136 5.932-.609 2.563-4.336 2.168-6.29 1.899-1.254-.18-2.419-.556-3.673-.358-1.738.269-4.014.896-5.698.25.089.609-.18 1.236-.574 1.703-.394.466-.914.824-1.434 1.164-1.756 1.184-3.171 2.563-5.429 1.882-1.057-.322-1.936-1.021-2.957-1.38-.842-.305-2.114-.537-2.652-1.344-.466-.699.036-2.275.394-2.939 2.742-4.999 5.501-9.998 8.243-14.998 1.38.144 2.706.502 3.996.914a37.6 37.6 0 0 1 5.215 2.096z"/><path fill="#34495E" d="M40.626 18.923c.985.932 1.935 1.898 2.741 3.046-3.01 4.839-6.039 9.677-9.049 14.515-.394.646-1.541 1.846-2.365 1.792-.968-.071-1.792-1.075-2.473-1.648-.824-.717-1.846-1.13-2.652-1.899-1.684-1.631-1.165-3.549-1.003-5.645.054-.609.107-1.236.323-1.811.215-.573.627-1.111 1.2-1.326-1.397-1.164-1.971-3.439-2.58-5.106-.43-1.183-1.344-2.007-2.115-3.028-1.183-1.559-3.351-4.623-1.416-6.416 1.254-1.146 4.659-.734 6.72-.16 2.975.985 5.734 2.437 8.279 4.211 1.54 1.055 2.992 2.239 4.39 3.475z"/><g fill="#F49765"><path d="M60.588 34.62c0 .699.448 1.576-.125 2.222-.753-1.129-1.308-2.741-1.774-4.604 1.236.107 1.54 1.325 1.899 2.382zM57.739 32.29c1.254 1.398 1.487 3.172 1.487 5.035-.018 0-.054 0-.072.019-.771-1.56-1.577-2.993-1.792-4.981.108-.018.251-.055.377-.073zM53.868 28.133c.448.521.556 1.81.52 2.222-.054.055-.089.09-.107.145l-2.187-.735-2.455-1.738c-1.38-1.737-3.136-3.333-5.035-4.874 0-.035.018-.071.018-.107 1.058.52 2.366.556 3.387 1.165 2.132.804 4.121 1.808 5.859 3.922zM45.016 24.048c1.595 1.325 3.046 2.705 4.211 4.175-.161 3.028 1.129 6.935.824 8.01-.125.054-.107.071-.233.179-.556.502-1.236.735-1.81.592a1.772 1.772 0 0 1-.484-.663c-.215-2.329-.86-4.874-1.989-7.634-.071-1.613.018-3.226-.519-4.659zM44.442 23.707c.627 1.183.663 2.563.699 3.996-.896-2.169-.842-2.741-.914-3.53.072-.144.144-.305.215-.466zM54.227 30.911c.161.447.967.788.86 1.396.215.896.323 1.99-.394 2.832-.251.376 0 1.576-.376.789-.071-.609-.232-1.076-.681-1.021-.878-1.381-1.003-3.137-1.505-4.695l2.096.699zM49.603 28.527l2.168 1.522-.089.036c.394 1.702 1.2 3.548 1.2 5.125-.143.108-.125.126-.25.341-.646.734-1.183.412-1.864.484-.215.161-1.254-4.694-1.165-7.508zM43.475 25.696c.179.107.305.25.43.52.036.914-.018 1.523.125 2.795.233.682.395 1.094.538 1.506l-.358 1.057a1.526 1.526 0 0 0-.609.646c-.161.341-.287.788-.358 1.362-.555.609-1.057 1.254-1.451 1.971a1.158 1.158 0 0 0-.233-.395.657.657 0 0 0-.251-.161c.358-2.866.144-2.563.144-3.368.824-1.9 1.29-3.979 1.81-6.021a.526.526 0 0 1 .213.088zM42.973 25.534c-.52 2.061-.985 4.141-1.792 6.004l-.018-.019c-1.416 2.169-2.938 4.212-4.73 5.95-.072-.216-.215-.341-.609-.233-.269.054-.466 0-.591-.126 2.813-3.512 5.125-7.525 7.508-11.45a.73.73 0 0 0 .232-.126zM44.711 30.964c.287.879.591 2.061 1.379 5.412a1.63 1.63 0 0 0-.645.52c-.287-1.792-.502-3.781-.967-5.196v-.019l.233-.717zM44.191 31.932c.466 1.452.681 3.548 1.003 5.412-.018.036-.018.071-.036.107-.143.86-.734 1.11-1.38 1.255-.107.16-.054.125-.179.322-.34-.431-.089-2.939-.072-5.34l.018-.055c.072-.572.197-1.003.34-1.29a.767.767 0 0 1 .306-.411zM41.181 31.985c.054.467.125.646-.161 3.011l-.036-.018c-.842 1.47-1.935 2.795-3.028 4.14a2.481 2.481 0 0 0-.95-.323c-.484-.071-.466-.573-.501-.985 1.773-1.703 3.278-3.709 4.676-5.825zM43.242 34.028c-.072 1.882-.054 3.799-.162 5.734-.358.484-.789.896-1.326.914-.376-.072-.413-.162-.753-.287-.269-.502 1.003-3.189.878-4.408l.018-.035c.341-.699.825-1.308 1.345-1.918zM41.235 35.301c.036.019.072.036.107.09.072.089.179.251.269.556l-.036.018c.162 1.057-.537 2.724-1.146 4.318a8.913 8.913 0 0 0-1.201-.358c-.34-.215-.538-.376-.878-.591.144-.574 1.971-2.652 2.796-4.086.017.017.053.034.089.053zM55.965 31.95c.018.018.054.035.089.071.018.018.036.018.054.036.806 1.721 1.362 3.422 1.201 5.143-.036-.018-.09-.035-.161-.09-.287-.859-1.04-1.756-1.057-2.741-.09-.698-.215-1.38-.323-2.079-.108-.232.018-.447.197-.34z"/><path d="M58.24 32.936c-.143-.395-.143-.914-.466-1.183-.161-.27-.483-.09-.699.09-.251.25-.054.591-.018.842.072.215.197.645.448.305.125.072.25.215.394 0 .144-.18.198.071.341-.054zm-1.164 1.039c.358.161.412.663.43 1.075-.036.215.053.663-.197.734-.215-.143-.484-.035-.645-.269-.036.233-.269.323-.323.107-.161-.232-.341-.555-.215-.912a.457.457 0 0 1 .573-.377c.144-.071.197-.305.377-.358zm-1.667-3.441c.161.322.43.592.43 1.004.072.179.018.627-.251.447-.269-.179-.322-.591-.466-.877-.197-.126-.179-.646.144-.646a.351.351 0 0 1 .143.072zm.018-1.29c.304.036.573.215.734.466.215.107.107.502-.161.52-.215.358-.502-.018-.591-.215-.107-.197-.179-.484-.054-.734l.018-.036h.054v-.001zM27.903 15.589c-.036-.018-.054-.018-.107-.035-.018-.018-.036-.018-.054-.036-1.917.126-3.727.448-5.214 1.416.036.018.071.054.143.089.914-.161 2.079.055 2.975-.376.681-.251 1.362-.466 2.025-.717.286-.036.429-.234.232-.341zM32.347 15.589c-.681-.143-1.899.377-2.24.609-.018.055-.054.107-.072.162l1.703 1.541 2.706 1.271c2.222.358 4.498 1.129 6.792 2.025.036-.018.053-.054.089-.072-.986-.662-1.613-1.756-2.652-2.365-1.756-1.45-3.602-2.687-6.326-3.171zM40.213 21.252c-1.953-.735-3.888-1.344-5.752-1.648-2.652 1.577-6.792 2.312-7.598 3.082.018.144-.018.125-.054.286-.197.717-.071 1.416.323 1.828a1.5 1.5 0 0 0 .824.09c2.204-.932 4.803-1.559 7.831-1.899 1.47-.664 2.885-1.524 4.426-1.739zM29.677 16.593c-.466.072-1.165-.447-1.667-.072-.896.233-1.953.664-2.365 1.667-.215.376-1.416.735-.538.681.591-.215 1.075-.305 1.236.107 1.667.107 3.297-.609 4.946-.932l-1.612-1.451zM34.014 19.442l-2.401-1.147v.09c-1.738.466-3.763.646-5.197 1.397-.018.162-.054.162-.179.377-.358.914.197 1.2.448 1.827-.037.269 4.837-1.146 7.329-2.544zM39.461 23.366c-.179-.107-.358-.143-.663-.125-.842.412-1.344.734-2.58 1.219-.717.125-1.165.179-1.631.25l-.789.807c0 .27-.089.556-.287.824-.233.305-.573.609-1.057.949-.287.754-.627 1.506-1.075 2.187.197-.018.358-.018.466 0 .125.036.197.09.269.126 2.419-1.667 2.24-1.326 2.975-1.721 1.326-1.595 2.957-2.992 4.569-4.408-.036-.018-.125-.072-.197-.108zM39.855 23.725c-1.613 1.416-3.261 2.813-4.551 4.391l.018.018c-1.291 2.24-2.401 4.516-3.136 6.882.233-.036.412.035.502.412.072.25.215.394.394.447 1.846-4.086 4.354-7.975 6.756-11.881a1.272 1.272 0 0 1 .017-.269zM34.121 24.8c-.932.162-2.132.466-5.537 1.38.018.269-.036.538-.161.807 1.756-.592 3.637-1.362 5.143-1.631l.018-.019.537-.537z"/><path d="M33.512 25.696c-1.523.286-3.53 1.093-5.358 1.702-.018.036-.054.054-.072.09-.699.52-.663 1.146-.484 1.792-.089.179-.089.107-.197.305.538.09 2.688-1.326 4.838-2.455l.054-.036c.484-.341.806-.627 1.003-.896.144-.197.18-.341.216-.502zM34.892 28.312c-.43.18-.645.197-2.634 1.56l.036.019c-.932 1.415-1.595 2.992-2.312 4.569.287.179.538.376.753.663.305.376.734.143 1.129-.036.68-2.313 1.773-4.57 3.028-6.775zM32.293 27.649c-1.667.949-3.387 1.846-5.089 2.85-.269.537-.448 1.11-.197 1.576.233.287.34.27.609.52.573 0 2.401-2.365 3.566-2.831l.018-.036c.448-.627.789-1.344 1.093-2.079z"/><path d="M32.078 29.979a.911.911 0 0 0-.125-.054c-.125-.018-.322-.018-.627.036v.036c-1.04.357-2.187 1.756-3.351 3.046.305.269.627.556.896.86.358.197.591.286.95.483.448-.376 1.452-2.938 2.347-4.337-.036-.034-.054-.052-.09-.07zM26.362 13.367c-1.899.483-3.62.753-4.981.646.752-1.9 1.774-1.058 1.935-1.146 1.128-.198 2.365-.485 3.046.5zM26.774 14.228c-1.846-.43-3.566.232-5.25 1.111 0 .018.018.053.036.071 1.774-.071 3.44-.054 5.34-.807-.054-.124-.09-.25-.126-.375zM40.805 21.61c-1.362.018-2.616.645-3.942 1.29 2.366-.251 2.867-.573 3.62-.878.107-.161.197-.287.322-.412z"/><path d="M25.95 14.084c.43-.071.896-.305 1.29-.161.323 0 .305.358.251.645-.107.341-.501.323-.752.413-.233.036-.663.144-.484-.251-.125-.072-.323-.107-.179-.341.071-.179-.162-.126-.126-.305zm-.395 1.505c-.322-.232-.788-.035-1.165.145-.179.143-.609.268-.573.52.233.125.269.394.555.43-.197.143-.179.376.072.322.287.036.663.036.914-.232.251-.197.251-.502.072-.664-.018-.18.161-.341.125-.521zm3.907-.197c-.358 0-.735-.089-1.111.09-.197.019-.574.27-.287.431.305.144.681 0 1.004 0 .215.107.663-.161.501-.431a.182.182 0 0 0-.107-.09zm1.147-.61a1.014 1.014 0 0 0-.771-.412c-.197-.143-.52.145-.395.377-.215.34.251.43.466.412.233 0 .52-.072.699-.305l.018-.035-.017-.037z"/></g><path opacity=".94" fill="#34495E" d="M42.441 14.263a.42.42 0 0 1 .269.197c.125.197.179.484.179.717.036.628.197 1.219.395 1.774.358.933.896 1.882.716 3.101V20.213l-.125.018v-.179c.179-1.147-.341-2.061-.699-3.011-.215-.591-.394-1.183-.43-1.846 0-.197-.054-.483-.161-.646-.089.144-.34-.018-.484.036-.125.036-.089-.126-.054-.197.143-.107.286-.143.394-.125zm8.834 4.605a.795.795 0 0 1 .466.592c-.018.125-.197.18-.251.107-.107-.107-.287-.18-.269-.556-.197-.089-.448-.089-.699-.018-2.043.412-3.494.286-5.609.878-.251.09-.484.215-.699.395l-.072-.107c.233-.197.502-.341.752-.431 2.133-.591 3.566-.466 5.609-.878.27-.089.539-.072.772.018z"/><path fill="#E57E1B" d="M456.274 120.761c.804.424 1.635.65 2.447 1.07.475.242.956.471 1.487.497.099-.364.84-1 .442-1.247-.815-.507-1.707-.651-2.563-.986-.524-.207-3.152-.044-1.813.666zM460.49 114.604c.458-.891-1.46-1.105-1.978-1.541-.377.037-.776-.368-1.143-.122-.037.737 2.623 1.624 3.121 1.663zM409.586 119.33c1.86-1.364-.325-2.518-1.751-1.68-.654.384-1.513 1.11-.841 1.999.713.944 1.855.22 2.592-.319zM451.212 123.545c.358-.018 1.483-.247 1.515-.771-.479-.396-1.081-.539-1.606-.835-.786-.441-1.623-.998-2.539-.627.617 1.127 1.314 2.295 2.63 2.233zM456.857 122.179c.69.311 2.189 1.457 2.922 1.177.03-.519-2.936-1.842-3.389-1.974-1.084-.318-2.164-1.913-3.42-1.122.651 1.141 2.852 1.452 3.887 1.919zM446.235 109.11c1.085.603 2 1.02 3.204 1.034.034-.732-.911-.769-1.326-.921-.516-.193-.958-.577-1.488-.729-.487-.14-1.051.251-.39.616zM445.374 113.809c-.098-1.042-3.737-1.886-3.749-.764-.009.848 3.812 1.438 3.749.764zM456.025 126.62c1.577-1.156.503-1.652-.799-1.8-1.075-.122-2.198-.146-3.271.066-.133 1.362 3.28 2.313 4.07 1.734zM465.297 124.953c-.105-.376-.605-.595-.932-.582.147.358.524.486.932.582zM443.224 126.327c.438 1.758 3.967.19 3.45-1.603-.71-.499-1.738-.578-2.55-.478-1.221.148-1.203.863-.9 2.081zM466.668 138.835c-2.405-4.577-7.245-8.034-11.463-10.197-1.204-.617-4.298-2.831-5.607-1.618-.865.802-1.406 1.725-2.429 2.32-.479.278-1.769 1.121-1.76 1.839.015 1.216 4.167 1.915 5.082 2.118.909.198 1.913.574 2.79.888.896.317 1.986.658 2.828 1.124 1.819 1.004 3.917 1.555 5.785 2.554 1.386.741 3.248 1.173 4.774.972zM444.591 118.389c1.004.417 2.077.742 3.151.818.397.023-1.551-1.149-1.81-1.27-.739-.34-1.879-1.288-2.73-1.146-1.057.176 1.209 1.525 1.389 1.598zM474.073 128.076c2.084-.195 4.426 2.419 6.355 3.107.61.163-.477-.597-.626-.711-.515-.321-1.039-.623-1.559-.936-.902-.539-1.928-1.197-2.917-1.504-1.157-.357-2.064-.938-3.183-1.402-1.012-.421-2.493-1.222-3.557-1.321-.095.877 4.879 2.823 5.487 2.767zM476.048 132.99c.629-.697-.823-1.239-1.166-1.402-.718-.437-1.901-1.19-2.687-.478.013.796 1.049 1.468 1.541 1.883.8.677 1.589.8 2.312-.003zM475.788 131.063c.692.419 1.444.709 2.127 1.146-.479-.377-1.528-1.318-1.819-1.498-.975-.612-1.97-1.212-2.963-1.796-2.306-1.355-4.678-2.557-7.069-3.705-.107.495 8.734 5.254 9.724 5.853zM416.296 104.818a3.103 3.103 0 0 0 1.696-.519c.15-.606-1.78-.568-2.041-.493-.832.245-.228 1.026.345 1.012zM418.146 111.683c-.422.849 3.822 1.089 4.299 1.207.467.115.805.529 1.32.237.209-.976-5.221-1.459-5.619-1.444zM413.463 103.868c-.091-.255-.72-.341-.868-.105.126.415.601.221.868.105zM422.238 110.981c.178-.714-3.005-.891-3.304-.938-.376-.056-1.027-.37-1.211.243.306.257 4.307 1.684 4.515.695zM442.341 122.516c.671-.063 2.891-1.145 1.53-1.972-1.093-.665-2.384-1.179-3.636-1.231-1.543-.065-1.382 1.264-.786 2.346.595 1.08 1.891.951 2.892.857zM412.76 111.519c.76.304 1.8.234 2.577.025 1.163-.311-.036-.938-.542-1.124-1.096-.405-2.234-.176-3.366-.302-.52-.058-1.574-.471-1.943.2.198.578 2.692.967 3.274 1.201zM414.928 106.274c.048-.76-1.527-.598-1.83-.163-.222.315-.928 1.574-.848 1.959.287 1.386 2.46-1.562 2.678-1.796zM411.161 114.578c.907-.92 1.541-1.639.117-2.313-.447-.213-.958-.408-1.457-.308-.762.155-.28.534-.397 1.153-.176.938-1.042 1.662-.731 2.689 1.029.16 1.739-.48 2.468-1.221zM430.272 109.722c.7.515 4.724.946 3.467-.997-.389-.603-1.606-.508-2.172-.5-.54.006-2.322.74-1.295 1.497zM434.061 115.887c.896.387 2.235.819 3.214.636 1.151-.218 2.641-1.442 1.006-2.205-.85-.396-3.141-1.41-3.969-.554-.042.658.383.859-.373 1.222-.665.316-.363.691.122.901zM412.199 116.432c-.144-.054-.146.074-.235.092.058.159.224.097.235-.092zM437.195 108.486c.713.223 1.985.628 2.074-.64.206-.347.555-.415.561-.914a16.588 16.588 0 0 0-1.495-.607c-.381-.129-2.469-.859-2.23.073.322 1.256-.159 1.699 1.09 2.088zM411.682 120.232c.28 1.367 3.202.219 3.934-.078 2.813-1.135 5.745-1.577 8.565-2.473.586-.187 1.568-.157 1.152-1.104-.21-.477-.464-1.137-.774-1.552-.725-.969-2.864-.821-3.883-.999-1.596-.276-3.11-.125-4.653.458-.911.346-2.596.791-3.142 1.718-.502.852-1.418 2.972-1.199 4.03zM430.341 114.277c.591-.041.712-.703.167-.956-.383-.178-.823-.184-1.225-.258-1.001-.181-1.894-.666-2.934-.835a12.437 12.437 0 0 0-1.785-.16c-.053.457 5.134 2.253 5.777 2.209zM459.321 128.647c-.053.631.897 1.251 1.289 1.501.546.345 1.142.498 1.764.527.193-.611.367-1.228.561-1.838.379-1.19-.545-1.575-1.515-1.698-.582-.074-2.034.73-2.099 1.508zM482.318 144.096c.154-.019.079-.192.065-.312-.124-.005-.122.241-.065.312zM486.016 149.955c.102 1.24 1.672 1.261 1.383-.232-.265-1.368-1.496-1.119-1.383.232zM482.737 144.017c.011.311.026.424.297.439.147-.265.034-.701-.297-.439zM476.68 136.354a131.064 131.064 0 0 0-5.304-3.526c-1.233-.783-2.392-1.742-3.791-1.574-.391.048-1.095-.223-1.435.125.009.248.025.493.049.74.528.859.739 1.871 1.18 2.828.797 1.741 2.294 3.304 3.804 4.22 1.438.869 3.441 2.22 5.041 2.534 1.354.263 2.732 1.644 4.113 1.698 1.794.071-.568-3.509-.684-4.02-.289-1.288-2.061-2.382-2.973-3.025zM430.909 121.352c.336-.91.671-1.744.533-2.758-.255-.529-1.282-.241-1.67-.209-1.533.123-2.544-.554-3.111 1.546-.992 3.673 3.229 4.168 4.248 1.421zM425.248 137.391c.67-.921 1.194-1.968 1.61-3.063-.63-.103-1.691 2.49-1.61 3.063zM426.433 142.149c.476-.746-.448-3.563-1.021-1.922-.17.488-.43 1.276-.178 1.78.245.497.87.657 1.199.142zM431.675 117.495c.852-.905.538-1.592-.483-1.971-1.254-.466-2.361-.384-3.312.586-.741.755-.053 1.328.675 1.52.792.207 2.512.51 3.12-.135zM490.52 144.761c1.257-.147.407-2.203-.236-2.237-.61-.033-1.133 2.396.236 2.237zM483.082 139.506c.258.666.275 1.428.576 2.074.657 1.405 2.624-.14 3.36-.685.74-.549.959.636.527 1.16-.391.475-.639.715-1.12.968-.635.331-.804 1.208.068 1.209.561 0 1.007-.333 1.438-.707.507-.441 1.259-.508 1.144-1.359-.089-.655-.489-1.127-.787-1.659-.889-1.579-1.99-2.323-3.412-3.194-1.097-.671-2.493-1.884-3.768-2.036-1.083-.132.192 1.76.421 2.085.479.687 1.252 1.372 1.553 2.144zM500.286 139.177c.599-.688-.173-1.638-.023-2.636-.817.297-.872 2.438.023 2.636zM499.903 140.207c.104-1.25-1.457-.775-1.34.396.11 1.055 1.28.306 1.34-.396zM489.345 149.682c.477.57 1.148-.006.983-.706-.223-.942-1.157-.149-.983.706zM489.413 138.626c.334-.616 1.634-1.748.683-2.368-.475-.309-.885.463-1.128.819-.31.454-.794 1.063-.585 1.683.295.874.749.388 1.03-.134zM432.826 145.952c1.844-.173 3.64-1.111 5.516-1.049 2.124.072 4.375-.013 6.524-.029 2.177-.015 4.317-.974 6.434-1.488.219-.054 2.555-.678 1.332-1.036-.663-.194-1.452-.419-2.136-.493-2.17-.23-4.416-1.084-6.579-1.563-2.324-.513-4.67-.895-7.009-1.339-1.363-.26-4.135-.889-4.523 1.337-.185 1.044-1.226 5.815.441 5.66zM434.287 131.659c-.073 1.659 1.572 1.852 2.313.623 1.033-1.716-2.242-2.226-2.313-.623zM433.726 128.624c.164 1.397 3.337.749 3.618-.301.38-1.414-3.88-1.908-3.618.301zM427.925 137.236c.695-.025 1.294-.607 1.774-1.127.564-.606 1.167-1.393.029-1.701-.768-.205-.959.492-1.375 1.064-.52.716-.611.934-.428 1.764zM447.77 111.099c-.12-.668-1.082-.645-1.523-.673.197.279.446.471.748.572.255.056.514.087.775.101zM443.514 116.056c-.056.852 2.175 1.204 2.677 1.439.271.126 2.527 1.306 2.029-.103-.238-.669-4.624-2.573-4.706-1.336zM460.625 141.164c2.694-1.223-2.448-2.939-3.243-3.258-4.577-1.838-9.047-3.97-13.767-5.201-1.08-.282-2.484-1.127-3.409-.143-.835.89-1.607 1.837-2.478 2.688-.528.518-1.017 1.099-1.237 1.871.431.381 1.012.418 1.531.473 1.124.119 2.208.494 3.324.663 1.395.211 2.814.166 4.213.353 1.059.141 2.01.709 3.07.817 2.149.219 4.31 1.106 6.442 1.555 1.707.358 3.86.951 5.554.182zM439.536 130.055c.225.447.801.794 1.241.847.817.099 1.586-.604 1.839-1.47-.373-.773-1.215-.691-1.858-.494-.38.113-1.591.379-1.222 1.117zM434.388 125.46c.851.725 2.761-1.633 3.641-1.624.024-.374-3.444.913-3.641 1.624zM429.805 146.896c1.009-.311.112-2.336-.721-2.163-1.114.23-.617 2.576.721 2.163zM431.474 130.286c-1.292-.438-2.269 2.479-.819 2.589 1.207.092 2.107-2.15.819-2.589zM430.152 139.214c-.181-.586-.885-.646-1.3-.372-.484.319-.317 1.196-.242 1.707.257 1.758 1.962.01 1.542-1.335zM439.15 124.66c-.459.235-1.62.571-1.664 1.303-.074 1.244 2.249.645 2.705.163.171-1.09.247-2.128-1.041-1.466zM430.072 129.098c.771.018 2.185-1.763 2.763-2.31-.285-.571-2.677 1.606-2.763 2.31zM434.149 135.505c-.907-.672-2.146.2-1.975 1.461.844.765 2.365.079 1.975-1.461zM445.637 173.223c.066-.854-2.106-.741-2.25-.082.347.227 2.181.943 2.25.082zM455.55 164.499c1.631-1.028 3.238-2.105 4.921-3.022 1.569-.854 3.272-1.373 4.809-2.235 1.621-.91 3.354-1.454 5.015-2.276 1.689-.839 3.336-1.771 5.052-2.543.642-.289 5.065-2.465 4.411-3.276-.831-1.028-3.488.149-4.528.306-3.642.546-7.277 1.298-10.94 1.671-1.581.162-3.682.322-5.071 1.322-1.605 1.156-3.414 1.39-5.083 2.227-.809.405-1.337 1.27-2.183 1.622-.869.36-1.758.699-2.686.713-1.441.022-3.857 1.524-5.126 2.431-.539.387-1.761.928-2.032 1.618-.321.817-.178 2.46.256 3.099.862 1.268 1.278 3.826 2.894 4.202.578.135 1.717-.666 2.217-.954.961-.556 1.886-1.191 2.813-1.819 1.709-1.163 3.528-1.994 5.261-3.086zM441.82 172.144c.133-.903-.12-1.484-.494-2.235-.338-.679-1.704-1.081-1.595.176.055.64.384 1.613.577 2.229.245.779 1.392.645 1.512-.17zM440.069 174.731c.455.325 1.601.461 2.065.071.072-.614-1.783-.464-2.065-.071zM444.338 175.673c.357.476.982.678 1.75.737.66-.745-1.362-1.629-1.75-.737zM476.129 156.262c-1.863.938-3.521 2.287-5.369 3.255-1.566.818-3.112 1.568-4.698 2.351-.951.469-1.766 1.102-2.765 1.479-.635.24-1.441.432-1.959.949-.94.945-2.683 1.424-3.829 2.06-.994.552-1.988 1.018-2.948 1.561a122.926 122.926 0 0 1-4.896 2.602c-1.351.683-1.958.945-.875 2.317 1.601.468 3.364 1.264 4.921.165 2.476-1.748 5.193-3.208 7.729-4.669 5.877-3.384 12.988-6.373 17.313-12.388.399-.557.986-1.023 1.12-1.776-.517-.314-3.173 1.806-3.744 2.094zM447.736 174.993c.254.788 2.127 1.01 1.982-.051-.104-.78-2.452-1.413-1.982.051zM477.807 159.713c-.336.494-.925.302-1.351.761-.752.815.279.603.604.634.354-.656.963-1.02 1.553-1.328.042-.698-.546-.452-.806-.067zM430.585 158.779c-.541 1.631 2.017 2.436 2.152.921.082-.901-1.805-1.971-2.152-.921zM434.741 168.508c-1.563.058-.78 2.014.386 1.923.546-.044.977-.513.948-1.157-.035-.802-.76-.788-1.334-.766zM434.82 163.302c-.884-.004-.437 1.121-.33 1.665.489 2.475 2.478.47 1.752-.856-.22-.403-1.017-.808-1.422-.809zM438.623 165.243c-.432.312-1.405.851-.984 1.592.308.545 1.036.966 1.613.842 1.116-.24.924-3.554-.629-2.434zM438.292 153.099c.669-.325 1.458-.506 2.034-1.042.369-.343 1.279-.495 1.749-.695.605-.256 1.221-.438 1.832-.627.841-.261 1.726-.661 2.538-1.029.886-.402.448-.735-.014-1.289-.975-1.175-3.16-1.603-4.528-1.804-1.54-.229-3.089-.124-4.648-.018-.668.045-5.104.453-4.718 1.342.044.098-.702 1.662-.753 1.938-.127.711-.162 1.478-.013 2.182.638.413 1.428 1.448 1.803 2.163.565 1.082.437 1.114 1.707.542 1.044-.469 1.985-1.164 3.011-1.663zM474.998 143.541c-2.775-.941-5.734-2.752-8.675-2.611-1.643.08-2.555.66-3.771 1.868-1.167 1.159-3.35.524-4.759.543-2.57.039-6.095 1.143-8.295 2.708-2.74 1.947 4.67 3.187 5.603 3.43 2.84.736 5.71.745 8.581.673 3.125-.078 6.592-.235 9.657-.955 1.321-.31 2.798-.521 4.111-.704 1.167-.163 2.623.014 3.683-.778.93-1.922-5.248-3.874-6.135-4.174zM440.8 161.818c1.59-1.024 2.975-2.336 4.556-3.375 1.517-1 3.024-2.076 4.615-2.919 1.383-.732 3.297-1.274 4.789-1.607.83-.184 3.257-.521 3.683-1.516-.065-.443-4.421-.967-4.997-1.092-1.449-.315-3.335-.573-4.797-.365-3.231.459-6.376 2.026-9.438 3.275-1.512.617-3.017 1.357-4.405 2.288-.68.456.618 2.233.855 2.789.595 1.386 1.091 1.715 2.291 2.503 1.018.666 1.872.647 2.848.019zM436.205 172.392c-.059.981 2.139 2.137 2.172.716.03-1.258-2.057-2.59-2.172-.716zM492.962 139.314c-.751.075-.729 2.298.342 1.97.342-.613.519-2.056-.342-1.97zM491.414 150.492c-.428.92.44.985.997 1.008.248-.258.479-.742.394-1.134-.155-.713-1.053-.015-1.391.126zM492.512 146.028c-.551.163-.678 1.482-.573 1.861.796.105.716-.375.663-1.066a.965.965 0 0 0-.09-.795zM494.517 134.598c-.424.307-1.005 1.805-.192 1.954 1.236.227 1.05-2.576.192-1.954zM494.356 143.665c-.299.307-1.115 1.985-.408 2.187.798.228 1.283-1.982.408-2.187zM489.977 155.25c-.285.438.418 1.959-.468 1.646-.708-.251-.896.572-.366.588 1.079.035 1.259-.746 1.762-1.599-.227-.368-.535-.578-.928-.635zM489.025 145.081c-.521.057-1.39 1.712-1.286 2.24 1.185.488 1.24-1.387 1.286-2.24zM483.626 145.893c-.566.037-.646 1.046-.516 1.476.422 1.37 1.814 1.581 1.925-.211-.713-.694-.081-1.352-1.409-1.265zM482.473 154.534c-.399-.017-.636.675-.839.95-1.029 1.396.231 1.439 1.005.413.279-.369.663-1.327-.166-1.363zM495.363 141.461c-.692.031-.071 1.865.106 2.178.308.544.829-2.221-.106-2.178zM489.458 154.692c.068-.651-.908-.664-1.107-.181-.425 1.032 1.036.848 1.107.181zM482.229 151.919c.826-.276.42-2.006-.349-2.055-.737-.047-1.475 2.663.349 2.055zM486.377 153.138c-.366.481.023 1.37.369 1.497 1.151.423.711-1.788-.369-1.497zM484.72 156.196c.14.052 1.624-.155 1.672-.267.248-.574-1.868-.746-1.672.267zM414.716 131.174c1.024-2.239-2.009-1.626-2.745-.75-.704.84 1.905 2.589 2.745.75zM413.246 134.93c.049 1.417 2.609 1.295 1.716-.55-.494-1.017-1.758-.678-1.716.55zM410.214 132.421c-1.18.403.084 1.55.744 1.528 1.546-.053.625-1.994-.744-1.528zM431.42 165.01c-.364-.336-.941.136-1.017.606-.098.593.396 1.379.72 1.781.813 1.011 1.065-1.679.297-2.387zM416.702 138.889c.624.697 3.284.813 2.135-.515-.395-.048-3.492-.999-2.135.515zM425.086 123.267c.013-.196-.665-.881-.808-1.103-.356-.554-.592-.836-.799-1.514-.556-1.836-1.536-1.132-2.98-.858-2.423.458-4.608 1.393-6.375 3.229-1.457 1.517.098 4.187 1.881 3.815 2.419-.505 4.67-1.904 7.047-2.642.679-.208 1.439-.474 2.034-.927zM408.157 125.908c.335.622.762 1.702 1.579 1.593.307-.038 1.539-1.417 1.625-1.744.787-3.025-3.925-1.189-3.204.151zM402.776 117.76c.93-.169 2.402-.545 2.236-1.971-.832-.287-3.427.453-2.236 1.971zM405.657 123.412c-.729-.15-1.106.946-.746 1.692 1.083.489 1.545-1.527.746-1.692zM404.321 112.744c-.502.07-.854 1.118-.889 1.586-.05.74 1.074.372 1.504.453.975-.286.144-2.145-.615-2.039zM407.919 130.186c.118.96 2.089.889 1.64-.481-.527-.562-1.293.101-1.64.481zM420.104 141.163c-.637 1.059 1.242 2.765 1.828 1.611.688-1.358-.718-3.451-1.828-1.611zM406.396 127.534c-1.371-.296-1.504 1.684-.326 2.012 1.19.332 1.777-1.7.326-2.012zM408.713 123.121c.779.153 2.475-1.423 1.231-1.61-.473-.073-1.083-.083-1.498.247-.475.377-.317 1.25.267 1.363zM418.101 133.8c1.788-.333-.298-1.577-1.121-1.486-1.742.192.439 1.613 1.121 1.486zM426.869 155.501c-1.339-.203-.518 3.093-.054 3.209 1.2.303 1.186-3.037.054-3.209zM403.628 120.773c-1.645-.176-.868 1.433-.24 2.133 1.133-.414 1.833-1.963.24-2.133zM428.473 148.75c-1.15-.288-1.347 1.826-.551 2.284 1.701.505 1.427-2.064.551-2.284zM430.556 154.521c-1.301.23-.777 2.409.273 2.483 1.503.105 1.167-2.739-.273-2.483zM428.351 161.12c-1.217-.724-.706 1.783.273 1.913.448.06 1.104-.318.966-.952-.118-.527-.877-.745-1.239-.961zM427.197 127.186c-.119-.641-.35-2.031-.938-2.203-1.668-.485-3.966.385-5.497 1.192-.919.486-1.681 1.468-1.113 2.557.427.82 1.113 1.064 1.392 1.97.677 2.2 3.963-.194 4.979-.795 1.027-.607 1.433-1.341 1.177-2.721zM420.744 134.222c-.793.143-3.262 1.079-1.774 2.019.655.414 2.223 1.387 2.954.78 1.975-1.631.974-3.184-1.18-2.799zM423.883 139.414c-.212.08-.564 3.632-.323 3.827.185-.2.245-.442.182-.728.164-.907.568-2.226.141-3.099zM429.035 130.299c-.271.158-2.083 1.963-1.339 2.342.459-.431 1.14-1.494 1.46-2.071a.56.56 0 0 0-.121-.271zM423.042 145.738c-.26.137-.332.813-.257 1.195.245-.116.457-1.056.257-1.195zM425.286 148.19c.483-.869.886-1.683.901-2.737-.421-.346-.896-.262-1.229.192-.648.884-.937 2.538.328 2.545zM424.457 151.247c-.467.894.146 1.88 1.086 1.857 1.237-.849-.452-1.804-1.086-1.857z"/><path d="M524.415 149.707c-3.565-.957-7.141-1.288-10.692-2.137-1.229-.294-2.348-.704-3.549-1.157-1.457-.549-2.794-1.438-4.225-1.944-1.516-.538-2.239-.243-3.681.497-1.685.867-3.457 1.474-5.141 2.341-.743-.612-.64-2.03-.577-2.944.043-.607.114-1.213.174-1.82.489-.043.982.077 1.464.157 2.323.392 2.81-1.651 3.298-3.897.222-1.014.076-2.413-.435-3.281-.585-.999 1.351-1.395 1.869-1.689 2.425-1.374 4.938-2.763 7.448-3.956 1.777-.846 4-2.88 5.991-2.633.867.106 2.357-.658.721-1.01-1.03-.222-1.692.051-2.607.528-2.594 1.347-5.165 2.741-7.74 4.134-1.035.56-6.497 4.451-7.304 2.647 1.882-2.259 4.002-4.309 5.956-6.492.98-1.095 1.987-2.154 2.989-3.223.782-.833 2.042-2.896 3.108-3.2.88-.252 2.378.143 1.365-1.287-1.118-.066-1.88.604-2.747 1.405-.928.859-1.758 1.845-2.603 2.806-.875.998-2.159 1.866-2.818 3.064-1.211 2.2-3.695 4.089-5.393 5.812-1.779 1.807-4.733-.188-6.83.849-1.887.932-3.618-.87-4.686-2.343-1.624-2.237-4.444-3.972-6.539-5.591-4.535-3.502-9.317-6.226-14.388-8.577-1.931-.895-3.837-2.063-5.748-3.072-1.937-1.021-3.828-1.952-5.816-2.773-3.604-1.489-7.163-3.396-10.959-4.239-1.979-.436-3.893-1.354-5.941-1.678-1.171-.185-2.27-.654-3.445-.84-1.069-.169-2.228-.509-3.296-.548-1.765-.063-3.608-.369-5.383-.555-1.401-.146-3.432.085-4.731-.488-.597-.263-.889-.019-1.454.063-1.186.169-2.351-.227-3.534-.16-.477.027-1.108.114-1.578.221-.852.195-1.763.046-2.6.307-3.277 1.018-6.285 1.773-8.828 4.535-1.208 1.311-.822 3.265-1.717 4.816-.773 1.342-1.473 3.052-1.702 4.642-.208 1.444-.178 4.021.526 5.261.885 1.562 1.839 3.162 2.19 5.01.292 1.542 1.713 3.394 2.859 4.259.72.544 1.234 1.09 1.795 1.836.632.84 1.604.987 2.406 1.524.573.386.836.929 1.544 1.028.95.131 1.166 1.05 1.786 1.729 1.291 1.415 2.882 2.144 4.134 3.575.506.581 1.139 1.003 1.627 1.598.455.554.548 1.457.911 2.107.414.74.884 1.452 1.43 2.069.642.721.731.729 1.481.417-.034 1.157-.435 2.174-.72 3.27-.184.692.858 1.977 1.152 2.604.931 1.985 1.861 4.814 1.977 7.02.064 1.229 1.026 2.041 1.674 2.936.632.875.627 2.047 1.426 2.791.902.846 1.04 1.823 1.511 2.935.554 1.306 1.073 1.311 2.151 1.856.737.374.726 1.621 1.552 2.021 1.037.503 1.663.757 2.387 1.79 1.485 2.127 4.311 1.597 6.478 2.032 2.115.425 3.708.887 5.863.473 2.291-.439 4.479-1.677 6.587-2.832 4.689-2.572 9.248-5.424 14.054-7.704 2.516-1.195 4.933-2.644 7.514-3.654 2.428-.951 5.36-2.054 7.056-4.408.308-.429.449-.903.711-1.354.321-.556.778-.09 1.274-.095a4.119 4.119 0 0 1 2.04.489c.477.258 1.08.87 1.327 1.403.418.902-.288 2.119-.586 3.035-.718 2.2-1.515 3.895-2.597 5.859-.609 1.11.913 1.087 1.422.775 1.083-.66 2.108-1.623 3.087-2.461 1.412-1.21 3.055-1.246 4.66-.545 1.083.472 3.284 2.573 3.413.015.038-.765-2.224-.753-2.78-.967-.803-.309-1.395-.856-2.301-.771-1.924.183-3.385 1.331-5.028 2.487-.062-.938.921-2.075 1.278-2.871.548-1.227 1.023-2.539 1.02-3.942-.001-1.018.146-2.116.815-2.9.818-.955.824-2.737 2.093-3.089 1.937-.538 3.461-.54 5.408-.66 2.139-.131 3.884-2.103 5.955-1.075 2.03 1.009 3.72 2.672 5.625 3.969a44.337 44.337 0 0 0 2.887 1.821c1.173.671 2.823.72 3.861 1.484.898.658 2.174.826 3.15 1.426.88.542 1.471 1.399 2.246 2.088.349.308 1.682 1.078 1.411-.188-.229-1.078-1.536-1.749-2.287-2.233-1.625-1.048-3.673-2.305-5.512-2.728-2.532-.583-5.3-2.797-7.446-4.379-1.936-1.428-3.768-3.994-6.196-3.451-1.038.233-2.08.342-3.141.606-.288.072-3.193.294-2.385-.5.649-.641 1.976-.719 2.759-1.037 1.089-.442 1.977-1.059 2.913-1.813 2.14-1.719 4.824-.016 7.064.473 1.891.41 3.653 1.143 5.501 1.704 2.288.694 4.764.059 7.025.917 1.242.472 2.494 1.575 3.792 1.777.724.111.894-.538.44-1.097-.477-.594-1.302-.828-1.965-1.005zm-24.152-13.166c-.149.998.622 1.947.023 2.636-.895-.198-.84-2.339-.023-2.636zm-.36 3.666c-.061.702-1.23 1.451-1.34.396-.117-1.171 1.444-1.646 1.34-.396zm-9.62 2.316c.644.034 1.493 2.09.236 2.237-1.368.16-.845-2.269-.236-2.237zm-.938 7.159c-.174-.854.761-1.647.983-.706.165.7-.507 1.276-.983.706zm-.377-12.605c.243-.356.653-1.128 1.128-.819.951.62-.349 1.752-.683 2.368-.281.522-.735 1.008-1.03.134-.209-.62.275-1.229.585-1.683zm-7.859-1.801c1.274.152 2.671 1.365 3.768 2.036 1.422.871 2.523 1.615 3.412 3.194.298.532.698 1.004.787 1.659.115.852-.637.918-1.144 1.359-.432.374-.878.707-1.438.707-.872-.001-.703-.878-.068-1.209.481-.253.729-.493 1.12-.968.432-.524.213-1.709-.527-1.16-.736.545-2.703 2.09-3.36.685-.301-.646-.318-1.408-.576-2.074-.301-.771-1.074-1.457-1.552-2.145-.229-.324-1.505-2.215-.422-2.084zm4.907 14.679c-.112-1.352 1.118-1.6 1.383-.232.289 1.493-1.282 1.472-1.383.232zm-2.982-5.499c-.271-.016-.286-.129-.297-.439.331-.262.444.174.297.439zm-.716-.36c-.058-.07-.06-.316.065-.312.014.119.09.293-.065.312zm-1.981-.698c-1.381-.055-2.759-1.436-4.113-1.698-1.6-.314-3.604-1.665-5.041-2.534-1.51-.916-3.007-2.479-3.804-4.22-.44-.957-.651-1.969-1.18-2.828-.023-.247-.04-.492-.049-.74.34-.348 1.044-.077 1.435-.125 1.399-.168 2.558.791 3.791 1.574a132.13 132.13 0 0 1 5.304 3.526c.912.644 2.685 1.737 2.974 3.025.115.512 2.477 4.092.683 4.02zm-54.926-3.17c.573-1.642 1.497 1.176 1.021 1.922-.328.515-.953.354-1.199-.142-.252-.504.008-1.292.178-1.78zm-.163-2.837c-.081-.572.979-3.166 1.61-3.063-.416 1.095-.94 2.142-1.61 3.063zm1.413-17.46c.567-2.1 1.578-1.423 3.111-1.546.388-.032 1.415-.32 1.67.209.138 1.014-.197 1.848-.533 2.758-1.019 2.747-5.24 2.252-4.248-1.421zm1.219-3.821c.95-.97 2.058-1.052 3.312-.586 1.021.379 1.335 1.065.483 1.971-.607.645-2.328.342-3.12.135-.728-.192-1.416-.765-.675-1.52zm1.849 18.298c1.138.309.535 1.095-.029 1.701-.48.52-1.079 1.102-1.774 1.127-.183-.83-.092-1.049.429-1.764.415-.572.606-1.269 1.374-1.064zm-.876 4.434c.415-.273 1.119-.214 1.3.372.42 1.345-1.285 3.093-1.542 1.335-.076-.511-.243-1.388.242-1.707zm.231 5.891c.833-.173 1.729 1.853.721 2.163-1.338.413-1.835-1.933-.721-2.163zm1.57-11.858c-1.449-.11-.473-3.026.819-2.589 1.289.439.389 2.681-.819 2.589zm-.582-3.777c.086-.704 2.478-2.881 2.763-2.31-.578.547-1.991 2.327-2.763 2.31zm4.077 6.407c.39 1.54-1.132 2.227-1.975 1.461-.17-1.261 1.068-2.133 1.975-1.461zm6.042-9.379c-.456.481-2.779 1.081-2.705-.163.044-.731 1.205-1.067 1.664-1.303 1.288-.662 1.212.376 1.041 1.466zm.567 2.812c.644-.197 1.485-.279 1.858.494-.253.866-1.021 1.568-1.839 1.47-.44-.053-1.017-.399-1.241-.847-.369-.738.842-1.004 1.222-1.117zm-6.37-3.478c.197-.711 3.665-1.998 3.641-1.624-.881-.009-2.791 2.349-3.641 1.624zm2.956 2.863c-.281 1.05-3.454 1.698-3.618.301-.262-2.209 3.998-1.715 3.618-.301zm-.744 3.959c-.74 1.229-2.386 1.036-2.313-.623.071-1.603 3.346-1.093 2.313.623zm-4.215 8.01c.389-2.226 3.16-1.597 4.523-1.337 2.339.444 4.685.826 7.009 1.339 2.163.479 4.409 1.332 6.579 1.563.684.074 1.473.299 2.136.493 1.223.358-1.113.982-1.332 1.036-2.116.515-4.257 1.474-6.434 1.488-2.149.017-4.4.102-6.524.029-1.876-.063-3.672.876-5.516 1.049-1.667.155-.626-4.616-.441-5.66zm16.245-.865c-1.061-.108-2.012-.677-3.07-.817-1.398-.187-2.818-.142-4.213-.353-1.116-.169-2.2-.544-3.324-.663-.52-.055-1.101-.092-1.531-.473.221-.772.709-1.354 1.237-1.871.87-.851 1.643-1.798 2.478-2.688.925-.984 2.329-.14 3.409.143 4.72 1.231 9.189 3.363 13.767 5.201.795.318 5.938 2.035 3.243 3.258-1.694.769-3.847.176-5.553-.183-2.134-.448-4.294-1.335-6.443-1.554zm-.41-22.034c.498 1.408-1.759.229-2.029.103-.502-.235-2.732-.588-2.677-1.439.082-1.238 4.468.666 4.706 1.336zm-1.974-6.967c.441.028 1.403.005 1.523.673a4.807 4.807 0 0 1-.775-.101 1.484 1.484 0 0 1-.748-.572zm-.313 7.512c.259.12 2.207 1.293 1.81 1.27-1.074-.076-2.147-.401-3.151-.818-.18-.072-2.446-1.422-1.389-1.598.851-.143 1.99.806 2.73 1.146zm.741 6.787c.517 1.793-3.012 3.36-3.45 1.603-.303-1.218-.32-1.934.9-2.08.812-.102 1.84-.022 2.55.477zm9.435 10.584c-.842-.466-1.933-.807-2.828-1.124-.877-.313-1.881-.689-2.79-.888-.915-.203-5.067-.902-5.082-2.118-.009-.718 1.28-1.561 1.76-1.839 1.022-.596 1.563-1.519 2.429-2.32 1.31-1.213 4.403 1.001 5.607 1.618 4.218 2.163 9.058 5.62 11.463 10.197-1.526.201-3.388-.231-4.773-.973-1.869-.999-3.966-1.549-5.786-2.553zm-4.153-10.422c1.072-.213 2.195-.188 3.271-.066 1.302.147 2.376.644.799 1.8-.791.578-4.204-.373-4.07-1.734zm20.239 6.223c.785-.713 1.969.041 2.687.478.343.163 1.795.705 1.166 1.402-.723.803-1.512.68-2.312.003-.492-.415-1.528-1.087-1.541-1.883zm-.05-4.479c1.118.465 2.025 1.045 3.183 1.402.989.307 2.015.965 2.917 1.504.52.313 1.044.614 1.559.936-.048-.035-.007-.01.202.124-.067-.042-.135-.081-.202-.124.149.114 1.236.874.626.711-1.93-.688-4.271-3.303-6.355-3.107-.608.056-5.582-1.891-5.485-2.767 1.061.099 2.543.9 3.555 1.321zm.988 2.283c.993.584 1.988 1.184 2.963 1.796.291.18 1.34 1.121 1.819 1.498.078.05.157.102.233.155-.024 0-.112-.062-.233-.155-.683-.437-1.435-.727-2.127-1.146-.99-.599-9.831-5.357-9.725-5.854 2.392 1.149 4.764 2.351 7.07 3.706zm-7.836-3.961c-.408-.096-.785-.224-.932-.582.326-.013.826.206.932.582zm-2.362 3.885c-.193.61-.367 1.227-.561 1.838-.622-.029-1.218-.183-1.764-.527-.392-.25-1.342-.87-1.289-1.501.064-.778 1.517-1.582 2.099-1.508.97.123 1.893.507 1.515 1.698zm-4.422-15.775c.518.436 2.436.65 1.978 1.541-.498-.038-3.158-.926-3.12-1.663.365-.247.765.159 1.142.122zm-.425 7.032c.856.335 1.748.479 2.563.986.397.247-.344.883-.442 1.247-.531-.026-1.013-.255-1.487-.497-.813-.42-1.644-.646-2.447-1.07-1.34-.71 1.288-.873 1.813-.666zm-1.697 1.287c.453.132 3.419 1.455 3.389 1.974-.732.28-2.231-.866-2.922-1.177-1.035-.467-3.236-.777-3.887-1.919 1.256-.791 2.336.803 3.42 1.122zm-5.271.556c.525.296 1.127.439 1.606.835-.031.524-1.156.754-1.515.771-1.315.063-2.013-1.105-2.631-2.233.917-.371 1.754.186 2.54.627zm-4.495-13.443c.53.151.973.535 1.488.729.415.152 1.36.188 1.326.921-1.204-.015-2.119-.432-3.204-1.034-.661-.366-.097-.757.39-.616zm-1.251 5.314c.063.675-3.758.084-3.749-.764.012-1.122 3.651-.278 3.749.764zm-5.139 5.504c1.252.053 2.543.566 3.636 1.231 1.36.827-.859 1.908-1.53 1.972-1.001.095-2.297.224-2.892-.857-.595-1.083-.757-2.412.786-2.346zm-1.9-12.988c.508.173 1.003.386 1.495.607-.006.499-.354.567-.561.914-.089 1.268-1.361.862-2.074.64-1.249-.39-.769-.832-1.091-2.088-.238-.932 1.85-.202 2.231-.073zm-4.397 8.66c.756-.362.331-.563.373-1.222.828-.856 3.119.157 3.969.554 1.635.763.146 1.987-1.006 2.205-.979.184-2.317-.249-3.214-.636-.484-.209-.786-.584-.122-.901zm-2.371-6.76c.565-.008 1.783-.103 2.172.5 1.257 1.943-2.767 1.512-3.467.997-1.027-.757.755-1.491 1.295-1.497zm-5.217 4.004c1.04.169 1.933.654 2.934.835.401.074.842.08 1.225.258.545.253.424.915-.167.956-.643.044-5.83-1.752-5.776-2.209.596.007 1.193.066 1.784.16zm-13.469 3.974c.546-.927 2.23-1.372 3.142-1.718 1.543-.583 3.058-.734 4.653-.458 1.019.178 3.158.03 3.883.999.311.415.564 1.075.774 1.552.416.946-.566.917-1.152 1.104-2.82.896-5.753 1.338-8.565 2.473-.731.297-3.653 1.445-3.934.078-.219-1.059.697-3.179 1.199-4.03zm-.917.32c.089-.018.092-.146.235-.092-.011.19-.177.252-.235.092zm11.801-3.396c-.516.292-.854-.122-1.32-.237-.477-.118-4.721-.358-4.299-1.207.398-.015 5.828.468 5.619 1.444zm-4.83-3.083c.299.047 3.481.224 3.304.938-.208.988-4.209-.438-4.515-.694.183-.614.835-.3 1.211-.244zm-2.984-6.237c.261-.075 2.191-.113 2.041.493a3.108 3.108 0 0 1-1.696.519c-.573.013-1.177-.768-.345-1.012zm-2.488.061c-.267.116-.742.31-.868-.105.148-.236.777-.15.868.105zm-.365 2.243c.303-.435 1.878-.597 1.83.163-.218.233-2.391 3.182-2.678 1.796-.08-.384.626-1.643.848-1.959zm-1.669 4.007c1.132.126 2.271-.104 3.366.302.506.187 1.705.813.542 1.124-.777.209-1.817.278-2.577-.025-.582-.233-3.076-.622-3.274-1.2.368-.672 1.423-.258 1.943-.201zm-2.005 2.992c.117-.619-.364-.998.397-1.153.499-.101 1.01.095 1.457.308 1.424.675.79 1.394-.117 2.313-.729.741-1.439 1.381-2.469 1.222-.31-1.028.556-1.752.732-2.69zm-1.589 4.54c1.426-.838 3.611.315 1.751 1.68-.737.539-1.879 1.263-2.592.319-.672-.888.187-1.615.841-1.999zm-4.447 5.256c-.628-.7-1.404-2.309.24-2.133 1.593.17.893 1.719-.24 2.133zm-.612-5.146c-1.191-1.518 1.403-2.258 2.236-1.971.167 1.426-1.306 1.802-2.236 1.971zm2.161-2.977c-.43-.081-1.554.287-1.504-.453.034-.468.387-1.516.889-1.586.758-.106 1.589 1.753.615 2.039zm-.026 10.321c-.36-.746.018-1.843.746-1.692.799.165.337 2.181-.746 1.692zm1.159 4.442c-1.178-.328-1.045-2.308.326-2.012 1.451.312.864 2.344-.326 2.012zm2.376-7.788c.415-.33 1.025-.32 1.498-.247 1.243.188-.452 1.764-1.231 1.61-.584-.113-.742-.986-.267-1.363zm-.527 8.428c.347-.38 1.113-1.043 1.64-.481.449 1.369-1.522 1.441-1.64.481zm1.817-2.685c-.817.109-1.244-.971-1.579-1.593-.722-1.34 3.991-3.176 3.204-.151-.086.327-1.318 1.706-1.625 1.744zm1.222 6.448c-.66.021-1.924-1.125-.744-1.528 1.369-.466 2.29 1.475.744 1.528zm1.013-3.525c.736-.876 3.77-1.489 2.745.75-.84 1.839-3.449.09-2.745-.75zm1.275 4.506c-.042-1.228 1.222-1.566 1.716-.55.893 1.845-1.667 1.967-1.716.55zm.878-11.909c1.767-1.837 3.952-2.771 6.375-3.229 1.444-.273 2.425-.978 2.98.858.207.678.442.96.799 1.514.143.222.82.906.808 1.103-.595.453-1.354.72-2.034.929-2.377.737-4.628 2.137-7.047 2.642-1.783.37-3.338-2.3-1.881-3.817zm2.855 9.292c.823-.091 2.909 1.153 1.121 1.486-.681.128-2.862-1.293-1.121-1.486zm-.277 6.576c-1.357-1.514 1.74-.563 2.135-.515 1.149 1.327-1.511 1.212-2.135.515zm5.231 3.885c-.586 1.153-2.465-.553-1.828-1.611 1.109-1.84 2.515.253 1.828 1.611zm-.009-5.753c-.731.606-2.299-.366-2.954-.78-1.487-.939.981-1.876 1.774-2.019 2.154-.385 3.155 1.168 1.18 2.799zm.861 9.913c-.075-.382-.003-1.059.257-1.195.2.138-.012 1.078-.257 1.195zm.775-3.693c-.241-.195.111-3.747.323-3.827.427.873.023 2.192-.142 3.1.064.285.003.527-.181.727zm-2.52-12.54c-.278-.905-.965-1.149-1.392-1.97-.567-1.089.194-2.07 1.113-2.557 1.531-.808 3.829-1.678 5.497-1.192.589.172.819 1.563.938 2.203.256 1.381-.15 2.114-1.178 2.721-1.015.601-4.301 2.995-4.978.795zm3.918 14.945c.334-.454.809-.538 1.229-.192-.016 1.055-.418 1.868-.901 2.737-1.265-.008-.976-1.662-.328-2.545zm.585 7.458c-.939.022-1.553-.964-1.086-1.857.634.053 2.323 1.008 1.086 1.857zm3.492-22.805a.56.56 0 0 1 .121.271c-.32.577-1.001 1.641-1.46 2.071-.744-.379 1.069-2.184 1.339-2.342zm-2.22 28.411c-.464-.116-1.285-3.412.054-3.209 1.132.172 1.146 3.512-.054 3.209zm1.107-7.676c-.796-.458-.6-2.572.551-2.284.876.22 1.15 2.789-.551 2.284zm.702 11.999c-.979-.13-1.49-2.637-.273-1.913.362.216 1.121.434 1.239.961.138.634-.518 1.012-.966.952zm1.932-8.512c1.44-.256 1.776 2.589.273 2.483-1.051-.074-1.574-2.253-.273-2.483zm.567 12.876c-.323-.402-.817-1.188-.72-1.781.075-.471.652-.942 1.017-.606.768.708.516 3.398-.297 2.387zm-.538-8.618c.347-1.05 2.234.02 2.152.921-.135 1.515-2.693.71-2.152-.921zm2.989-4.559c-.375-.715-1.165-1.75-1.803-2.163-.149-.704-.114-1.471.013-2.182.051-.276.797-1.841.753-1.938-.386-.889 4.05-1.297 4.718-1.342 1.56-.106 3.108-.212 4.648.018 1.368.201 3.554.629 4.528 1.804.462.554.899.887.014 1.289-.813.368-1.697.769-2.538 1.029-.611.189-1.227.371-1.832.627-.47.2-1.38.353-1.749.695-.576.536-1.365.717-2.034 1.042-1.026.499-1.967 1.194-3.011 1.663-1.27.572-1.141.54-1.707-.542zm1.553 16.211c-1.166.091-1.948-1.865-.386-1.923.574-.021 1.299-.036 1.334.766.029.644-.402 1.113-.948 1.157zm-.637-5.464c-.106-.544-.554-1.669.33-1.665.404.001 1.202.406 1.422.809.726 1.326-1.263 3.33-1.752.856zm1.17-5.67c-.237-.556-1.535-2.333-.855-2.789 1.389-.931 2.894-1.671 4.405-2.288 3.063-1.249 6.207-2.816 9.438-3.275 1.462-.208 3.348.05 4.797.365.576.125 4.932.648 4.997 1.092-.426.994-2.853 1.332-3.683 1.516-1.492.333-3.406.875-4.789 1.607-1.591.843-3.099 1.919-4.615 2.919-1.581 1.039-2.966 2.351-4.556 3.375-.976.628-1.83.646-2.849-.019-1.199-.788-1.695-1.117-2.29-2.503zm.545 13.095c.115-1.874 2.202-.542 2.172.716-.033 1.42-2.231.265-2.172-.716zm3.047-4.715c-.577.124-1.306-.297-1.613-.842-.421-.741.553-1.28.984-1.592 1.553-1.12 1.745 2.194.629 2.434zm2.074 2.231c.374.751.627 1.332.494 2.235-.12.815-1.268.949-1.512.169-.193-.615-.522-1.589-.577-2.229-.109-1.256 1.257-.854 1.595-.175zm-1.257 4.823c.281-.394 2.137-.543 2.065.071-.464.39-1.61.255-2.065-.071zm6.019 1.679c-.768-.06-1.393-.262-1.75-.737.388-.892 2.41-.008 1.75.737zm-2.701-3.269c.144-.659 2.316-.771 2.25.082-.069.861-1.903.145-2.25-.082zm1.87-2.786c-1.615-.376-2.031-2.935-2.894-4.202-.434-.639-.577-2.281-.256-3.099.271-.69 1.493-1.231 2.032-1.618 1.269-.906 3.685-2.408 5.126-2.431.928-.014 1.816-.353 2.686-.713.846-.353 1.374-1.217 2.183-1.622 1.669-.837 3.478-1.07 5.083-2.227 1.39-1 3.49-1.16 5.071-1.322 3.663-.373 7.299-1.125 10.94-1.671 1.04-.156 3.697-1.334 4.528-.306.654.812-3.77 2.987-4.411 3.276-1.716.772-3.362 1.704-5.052 2.543-1.66.822-3.394 1.366-5.015 2.276-1.536.862-3.239 1.382-4.809 2.235-1.683.917-3.29 1.994-4.921 3.022-1.732 1.092-3.552 1.923-5.263 3.083-.928.628-1.853 1.264-2.813 1.819-.498.291-1.637 1.092-2.215.957zm2.479 4.638c-.471-1.464 1.878-.831 1.982-.051.145 1.061-1.728.839-1.982.051zm29.324-13.886c-.324-.031-1.355.182-.604-.634.426-.459 1.015-.267 1.351-.761.261-.385.849-.631.806.066-.591.31-1.199.673-1.553 1.329zm1.692-5.165c-4.324 6.015-11.436 9.004-17.313 12.388-2.536 1.461-5.254 2.921-7.729 4.669-1.557 1.099-3.32.303-4.921-.165-1.083-1.372-.476-1.635.875-2.317a119.717 119.717 0 0 0 4.896-2.602c.96-.543 1.954-1.009 2.948-1.561 1.146-.636 2.889-1.114 3.829-2.06.518-.518 1.324-.709 1.959-.949.999-.377 1.813-1.01 2.765-1.479 1.586-.782 3.132-1.532 4.698-2.351 1.848-.968 3.506-2.316 5.369-3.255.571-.288 3.228-2.407 3.743-2.096-.133.755-.72 1.222-1.119 1.778zm2.382-8.228c-1.06.792-2.516.615-3.683.778-1.313.183-2.79.395-4.111.704-3.065.72-6.532.877-9.657.955-2.871.072-5.741.063-8.581-.673-.933-.243-8.343-1.482-5.603-3.43 2.2-1.565 5.725-2.669 8.295-2.708 1.409-.019 3.592.616 4.759-.543 1.216-1.208 2.128-1.788 3.771-1.868 2.94-.141 5.899 1.67 8.675 2.611.886.301 7.064 2.253 6.135 4.174zm.746 2.15c.769.049 1.175 1.778.349 2.055-1.824.608-1.086-2.102-.349-2.055zm.759 6.033c-.773 1.026-2.034.982-1.005-.413.203-.275.439-.967.839-.95.829.036.445.994.166 1.363zm.471-8.529c-.131-.43-.051-1.438.516-1.476 1.328-.087.696.571 1.409 1.265-.11 1.792-1.503 1.581-1.925.211zm3.282 8.562c-.048.111-1.532.318-1.672.267-.196-1.014 1.92-.842 1.672-.267zm.354-1.295c-.346-.127-.735-1.016-.369-1.497 1.08-.291 1.52 1.92.369 1.497zm.993-7.314c-.104-.528.766-2.184 1.286-2.24-.046.853-.101 2.728-1.286 2.24zm.612 7.191c.199-.483 1.176-.471 1.107.181-.071.666-1.532.85-1.107-.181zm.792 2.972c-.53-.016-.342-.839.366-.588.886.313.183-1.209.468-1.646.394.057.701.267.928.636-.504.852-.683 1.634-1.762 1.598zm2.795-9.594c-.104-.379.022-1.698.573-1.861a.962.962 0 0 1 .09.795c.053.691.133 1.171-.663 1.066zm.473 3.61c-.557-.022-1.425-.088-.997-1.008.338-.142 1.236-.839 1.391-.126.086.392-.146.876-.394 1.134zm.893-10.216c-1.071.328-1.093-1.895-.342-1.97.861-.086.684 1.357.342 1.97zm1.213-6.686c.858-.622 1.044 2.182-.192 1.954-.813-.15-.232-1.648.192-1.954zm-.569 11.254c-.707-.201.109-1.88.408-2.187.875.205.39 2.415-.408 2.187zm1.522-2.213c-.178-.313-.799-2.146-.106-2.178.934-.043.413 2.722.106 2.178z"/><path fill="#E57E1B" d="M479.803 130.473c.067.043.135.082.202.124-.209-.134-.25-.159-.202-.124zM477.915 132.208c.121.094.209.155.233.155a7.24 7.24 0 0 0-.233-.155z"/><path fill="#FFA800" d="M428.952 210.262v-25.479c2.221-.422 5.197-.28 7.438-.688.413-.562.863-1.094 1.309-1.629.436-.044.859-.097 1.255-.17 2.599-3.545 5.958-6.52 9.673-9.231 1.98-1.334 4.026-2.62 6.102-3.884 1.622.861 2.562 2.233 4.999 2.485v3.729c1.743-.263 2.209.426 3.335.622v4.971c1.71.59 3.968.77 4.169 2.486 1.957-.198 3.129-.983 5.833-.622-.16-.811-.045-1.415.313-1.838a9.17 9.17 0 0 1 2.251.039 3.544 3.544 0 0 1-.067-.739c.263.004.538.018.838.052a6.187 6.187 0 0 1 .419-1.689c.543-.166 1.249-.208 2.146-.11.189-2.037 1.236-3.437 2.61-4.592 1.175-.733 2.369-1.456 3.383-2.311 1.419-.89 2.799-1.812 3.78-3.029 1.692.204 2.876.787 4.333 1.167v2.485c5.641.767 9.208 3.078 16.669 2.486v-1.706a29.53 29.53 0 0 0 2.563-.093v-6.854c.498 1.669 1.132 3.236 3.272 3.681-1.353-1.785-1.575-5.333-2.224-9.02 1.91 2.173 1.014 6.438 4.787 7.221-2.352-3.108-1.279-11.547-5.002-16.78h-.213c-.155-.262-.424-.454-.779-.582-.027-1.109 2.201-.535 3.493-.661v.622c2.272-.056 1.677 1.035 3.334 0v3.729c2.794.426 3.047-1.043 3.335-2.486 3.279-.374-.213 4.301 3.332 3.729v-10.565c4.349.763 6.555 2.122 7.503-1.865 1.7 1.012 3.405 2.019 5.833 2.486v1.243h3.335v7.458c3.092-.44 3.578 1.062 6.667.621v1.242c.083 2.84-.674 6.305 1.667 7.458 1.698-.6 1.801-2.387 1.668-4.351.908-1.394 4.093-1.092 5.002-2.485 1.236.527 1.792 1.563 1.667 3.107 1.9-.174 3.132.15 3.335 1.243.714-.575-.491-4.989 0-7.458 3.582-.105 7.265 2.053 10.001.622-.287 1.443-.54 2.913-3.334 2.485v3.107c.671.534 2.283.369 2.501 1.243-.48.448-.932.916-1.37 1.396-.556-.719-1.366-1.086-2.541-.901-.143-.93.296-2.293-.833-2.485-2.717 2.532-4.77 5.559-5.836 9.321h.618c-.23.582-.443 1.177-.618 1.799h4.805c-.018.065-.043.127-.061.191h1.087c-.206 3.771 3.012 5.971 3.337 9.131 2.426.213 3.444-.625 4.241-1.628.25.581.438 1.18.503 1.819 1.305.113 2.198-.078 2.871-.432-.135.89-.095 1.781.722 2.728 1.188-.15 1.404-1.024 2.501-1.244.053 5.141 5.708 4.193 9.168 5.594.232.368.393.726.495 1.075-.971 3.563-7.315 6.349-6.151 9.953-.373 1.202-.072 2.473 1.487 3.887 1.585.08 3.06.032 4.461-.091.093.094.179.186.283.28 6.935.355 11.877-1.654 16.884-2.341 0 .26.003.517.013.769-.038 1.544-.015 3.045.311 4.317-6.239 4.405-12.756 8.603-18.616 13.286.042.563.726.646 1.224.869-.402.313-.826.613-1.224.932.042.569.748.646 1.247.877H428.952v-10.004z"/><path fill="#FFCD02" d="M498.905 210.262v-25.479c-2.221-.422-5.197-.28-7.438-.688-.413-.562-.864-1.094-1.31-1.629a15.649 15.649 0 0 1-1.254-.17c-2.599-3.545-5.959-6.52-9.674-9.231a156.94 156.94 0 0 0-6.102-3.884c-1.622.861-2.561 2.233-4.999 2.485v3.729c-1.742-.263-2.208.426-3.335.622v4.971c-1.71.59-3.968.77-4.168 2.486-1.958-.198-3.13-.983-5.833-.622.16-.811.045-1.415-.313-1.838a9.17 9.17 0 0 0-2.251.039c.053-.27.07-.513.068-.739a8.531 8.531 0 0 0-.839.052 6.223 6.223 0 0 0-.418-1.689c-.544-.166-1.249-.208-2.146-.11-.19-2.037-1.237-3.437-2.611-4.592-1.174-.733-2.368-1.456-3.382-2.311-1.42-.89-2.8-1.812-3.78-3.029-1.693.204-2.877.787-4.334 1.167v2.485c-5.641.767-9.208 3.078-16.668 2.486v-1.706a29.538 29.538 0 0 1-2.564-.093v-6.854c-.498 1.669-1.131 3.236-3.271 3.681 1.352-1.785 1.574-5.333 2.223-9.02-1.91 2.173-1.014 6.438-4.786 7.221 2.351-3.108 1.279-11.547 5.002-16.78h.213c.155-.262.423-.454.778-.582.027-1.109-2.201-.535-3.492-.661v.622c-2.273-.056-1.678 1.035-3.335 0v3.729c-2.794.426-3.047-1.043-3.335-2.486-3.279-.374.213 4.301-3.332 3.729v-10.565c-4.349.763-6.554 2.122-7.503-1.865-1.7 1.012-3.404 2.019-5.833 2.486v1.243h-3.335v7.458c-3.092-.44-3.577 1.062-6.667.621v1.242c-.082 2.84.674 6.305-1.667 7.458-1.697-.6-1.8-2.387-1.667-4.351-.909-1.394-4.094-1.092-5.002-2.485-1.237.527-1.793 1.563-1.668 3.107-1.9-.174-3.132.15-3.335 1.243-.713-.575.491-4.989 0-7.458-3.582-.105-7.265 2.053-10.001.622.288 1.443.541 2.913 3.335 2.485v3.107c-.671.534-2.283.369-2.501 1.243.48.448.931.916 1.369 1.396.556-.719 1.367-1.086 2.541-.901.143-.93-.296-2.293.834-2.485 2.716 2.532 4.769 5.559 5.835 9.321h-.618c.23.582.443 1.177.618 1.799h-4.804c.018.065.042.127.06.191h-1.086c.205 3.771-3.012 5.971-3.338 9.131-2.426.213-3.444-.625-4.24-1.628-.251.581-.438 1.18-.504 1.819-1.304.113-2.197-.078-2.871-.432.135.89.095 1.781-.721 2.728-1.189-.15-1.405-1.024-2.501-1.244-.053 5.141-5.708 4.193-9.168 5.594a4.222 4.222 0 0 0-.496 1.075c.972 3.563 7.315 6.349 6.151 9.953.373 1.202.072 2.473-1.487 3.887-1.585.08-3.06.032-4.461-.091-.093.094-.178.186-.283.28-6.935.355-11.877-1.654-16.884-2.341 0 .26-.002.517-.013.769.038 1.544.016 3.045-.31 4.317 6.238 4.405 12.755 8.603 18.615 13.286-.042.563-.726.646-1.224.869.403.313.826.613 1.224.932-.042.569-.748.646-1.246.877h161.536c.002-3.333.002-6.668.002-10.004z"/><path fill="#ECF0F1" d="M-13.638 115.456c-2.908.709-6.064.992-7.943.851-1.561 2.305-3.298 4.504-5.319 6.454-3.014 2.837-6.631 4.113-10.426 3.652-7.234-.851-4.823-9.148 3.191-6.454.745.284.497.71-.106.461-5.674-2.127-7.092 4.752-2.198 5 3.156.143 5.78-1.383 8.156-3.688 4.646-4.574 7.341-14.007 13.369-20.78.674-.709 1.241-1.383 1.879-1.986-4.042-.603-8.688-.318-11.667.249-4.468.815-11.844 3.546-12.695 8.829-.39 2.482 1.347 4.433 3.475 4.504 2.234.071 4.503-1.915 5.319-4.291.106-.531.496-.461.496.036-.035 3.227-3.12 5.035-5.886 4.964-2.802-.106-5.426-1.879-5.249-5.496.319-6.348 9.327-8.972 14.397-9.717 3.936-.567 8.582-.815 12.766.036a9.569 9.569 0 0 1 2.66-1.49c1.135-.461 1.206 0 .354.532-.354.248-.993.709-1.596 1.313 1.489.39 2.873.957 4.113 1.702 8.939 5.319-.069 13.617-7.09 15.319zm2.305-16.171c-3.617 5.071-6.312 10.993-9.752 16.277 1.809.07 4.078-.284 6.313-.958 7.695-2.34 12.979-10 7.411-13.724-1.064-.708-2.447-1.24-3.972-1.595zM-1.511 125.208c-1.17.07-2.837-.852-1.773-4.575-.567.922-1.524 2.341-2.553 3.334-4.078 3.9-6.773-2.306-1.419-8.724 2.128-2.518 6.206-3.83 8.228-1.632.496.532.212 1.135-.39 1.029-.39-1.313-1.702-1.597-3.014-.887-1.596.887-3.44 2.979-4.717 5.07-.284.497-1.241 2.234-1.454 3.582-.355 2.482 1.596 2.198 3.262.213 1.241-1.489 2.234-3.228 3.156-4.965.78-1.489 1.276-2.341 2.411-2.27.461.035.993.248 1.49.142-.745.745-2.837 4.469-3.298 6.632-.283 1.454-.106 2.127.355 2.127 1.489.071 3.83-4.433 4.574-5.957.319-.639.851-.426.497.283-1.064 2.165-3.227 6.42-5.355 6.598z"/><path fill="#ECF0F1" d="M7.886 125.102c-1.206.283-3.369-.78-1.951-4.469.532-1.453 1.809-3.298 2.199-4.185.497-1.17-.745-1.631-2.73-1.666l-.426 1.135c-.851 2.233-2.553 6.17-4.291 7.837-.284.248-.497-.142-.284-.461 2.801-3.688 4.752-9.043 5.461-13.015.354-1.985 2.66-1.1 2.163 1.276-.213.993-1.348 1.951-1.95 2.376 1.312.071 3.156.036 4.894-.142.248.496-.319 1.844-.745 2.73-.532 1.1-4.149 7.589-2.021 7.695 1.454.035 3.653-4.397 4.397-5.922.319-.604.78-.354.425.354-1.028 2.13-2.837 5.889-5.141 6.457z"/><path fill="#ECF0F1" d="M21.219 112.441h-2.057c-1.206 2.057-2.624 3.937-4.716 5.852-.319.922-.816 3.617-.816 3.617-.532 2.375 1.1 2.694 2.27 1.844 1.631-1.206 2.802-3.439 3.759-5.354.284-.639.815-.497.461.212-1.561 3.263-2.163 4.221-3.475 5.532-1.915 1.845-5.426 1.241-4.894-2.659.319-2.411 1.631-6.277 2.766-9.043h-1.844c-.39 0-.319-.78.071-.78h2.127a60.515 60.515 0 0 1 2.589-5.035c2.447-4.291 6.276-3.688 3.652 1.985a60.614 60.614 0 0 1-1.525 3.05h1.702c.356-.001.284.779-.07.779zm-4.539 0c-.745 1.737-1.418 3.476-1.915 4.717 1.348-1.383 2.553-3.015 3.582-4.717H16.68zm2.872-5.957c-.851 1.205-1.631 3.155-2.518 5.177h1.773a37.58 37.58 0 0 0 1.773-3.617c.674-1.489 1.171-4.646-1.028-1.56z"/><path fill="#ECF0F1" d="M26.183 125.278c-1.241 0-2.943-.851-1.879-4.148.283-.922.957-2.128 1.95-3.724.851-1.383.213-2.341-2.518.213-1.206 1.099-2.943 3.085-4.929 7.021-.284.496-.603.531-1.348.531-.532.036-.851 0-1.206.213 1.702-3.369 3.156-6.737 4.894-9.929.922-1.702 1.383-2.306 2.518-2.234.461.035.993.248 1.489.142-1.063.567-3.014 4.113-4.291 6.667.709-.887 1.844-2.234 2.943-3.191 1.702-1.525 5.354-3.759 6.56-3.333 0 0-3.794 6.666-4.255 9.148-.284 1.454.106 1.773.567 1.773 1.844 0 4.114-4.646 4.858-6.135.284-.639.851-.391.497.318-1.063 2.165-3.119 6.668-5.85 6.668z"/><path fill="#ECF0F1" d="M34.019 125.278c-1.773 0-3.369-1.17-3.404-3.404-.035-2.128 1.17-4.787 2.731-6.631 1.808-2.128 4.503-3.476 6.063-2.306 1.348 1.029.319 3.44-1.95 5.178-1.099.815-3.404 1.561-4.362 1.561-.532 1.276-1.135 4.858 1.206 4.858 3.121 0 5.036-4.185 5.852-6.064.283-.638.993-.709.638.036-1.313 2.837-2.837 6.772-6.774 6.772zm1.454-9.539c-.922 1.135-1.809 2.695-2.127 3.334.638 0 2.482-.497 3.759-1.561 2.907-2.447 2.73-7.056-1.632-1.773z"/><path fill="#ECF0F1" d="M44.799 125.102c-1.206.283-3.369-.78-1.951-4.469.532-1.453 1.809-3.298 2.199-4.185.497-1.17-.745-1.631-2.73-1.666l-.426 1.135c-.851 2.233-2.553 6.17-4.291 7.837-.284.248-.497-.142-.284-.461 2.801-3.688 4.752-9.043 5.461-13.015.354-1.985 2.66-1.1 2.163 1.276-.213.993-1.348 1.951-1.95 2.376 1.312.071 3.156.036 4.894-.142.248.496-.319 1.844-.745 2.73-.532 1.1-4.149 7.589-2.021 7.695 1.454.035 3.653-4.397 4.397-5.922.319-.604.78-.354.425.354-1.028 2.13-2.836 5.889-5.141 6.457z"/><path fill="#ECF0F1" d="M51.678 124.924c-.496.213-.993.354-1.454.354-4.291 0-3.475-4.929-1.773-5 .957-1.809 2.127-4.113 3.049-6.135.638-1.383 1.702-2.872 2.943-3.05.532-.07.958 0 1.312.178.639.319.497.922-.142.603-.354-.142-.78-.213-1.135-.035-1.631.78-1.277 3.227-.745 4.503.567 1.348 1.347 2.625 1.276 4.185-.071 1.384-1.135 3.015-2.518 3.937l.248.035c1.206.178 2.305-.567 3.191-1.631.816-.993 1.915-3.191 2.66-4.646.177-.354.709-.142.532.213-1.309 2.943-3.437 7.695-7.444 6.489zm-2.411-3.05c-1.135 1.135-.674 2.802.709 2.802.249 0 .497-.035.709-.142-.745-.461-1.348-1.312-1.418-2.66zm3.12-8.085c-.958 1.915-2.482 5-3.333 6.561 0 0 .78-.035.745 1.135-.071 1.348.674 2.34 1.49 2.73.78-.603 1.454-1.809 1.56-3.688.106-2.234-.745-5.142-.462-6.738zM110.365 107.016c-4.114-.674-7.624-2.766-8.298-3.05-2.27 2.589-3.724 6.845-4.717 9.149 2.164.284 5.213.284 6.667.213 1.206-.071 1.17.426.071.709-1.241.319-5.354.391-7.163.178-2.447 6.631-6.277 15.532-17.731 15.532-8.262 0-13.582-6.241-11.063-13.972.638-2.021 2.659-3.369 3.688-3.688 1.135-.354.39.178-.673.922-.887.639-2.305 1.702-2.731 4.113-1.241 6.951 5.178 10.745 10.355 10.958 7.873.354 13.511-6.241 16.879-13.972-1.347 0-6.063-.532-7.73 1.879-.425.567-.745.071-.567-.318 1.631-3.617 5.39-3.476 8.794-2.873 1.667-4.078 4.468-8.511 5.142-9.291-3.014-1.489-6.17-2.872-9.646-3.368-9.681-1.454-14.185 7.446-10.958 9.468 3.582 2.234 7.447-1.135 7.411-2.128.036-.779 1.029-1.418.603-.142-1.028 3.439-5.497 4.717-8.333 3.085-5.887-3.333.213-14.929 11.879-11.631 3.901 1.063 7.305 2.73 9.504 4.113.39-.426 1.383-1.561 2.979-1.1.922.284.78 1.738 0 .852-.815-.319-1.631.213-2.127.674 2.376 1.241 10.284 4.22 11.631 1.348.497-1.135.851-.71.638.177-.213 1.454-2.093 2.517-4.504 2.163zM111.782 124.854c-1.064 0-1.809-.391-2.27-.923-.993.745-2.057 1.241-3.085 1.206-2.695-.071-3.085-3.298-1.737-6.454 1.383-3.263 4.326-6.028 6.738-5.957 2.695.035 3.085 3.298 1.737 6.454-.532 1.24-1.631 2.907-2.979 4.184.284.532.815.887 1.667.887 2.27 0 4.114-4.397 4.965-6.1.177-.354.78-.212.532.319-.604 1.347-2.59 6.384-5.568 6.384zm-4.646-6.313c-1.383 2.908-1.702 5.39-.425 5.78.673.177 1.56-.178 2.411-.887-.39-.567-.567-1.206-.567-1.737.036-.816.354-1.525 1.241-1.525.603 0 1.064.497 1.064 1.064 0 .142-.036.248-.071.39.39-.567.78-1.241 1.1-1.915 1.383-2.907 1.56-5.426.284-5.815-1.526-.426-3.725 1.843-5.037 4.645zM189.381 28.896h-2.057c-1.206 2.057-2.624 3.937-4.716 5.852-.319.922-.816 3.617-.816 3.617-.532 2.375 1.1 2.694 2.27 1.844 1.631-1.206 2.802-3.439 3.759-5.354.284-.639.815-.497.461.212-1.561 3.263-2.163 4.221-3.475 5.532-1.915 1.845-5.426 1.241-4.894-2.659.319-2.411 1.631-6.277 2.766-9.043h-1.844c-.39 0-.319-.78.071-.78h2.127a60.515 60.515 0 0 1 2.589-5.035c2.447-4.291 6.276-3.688 3.652 1.985a60.614 60.614 0 0 1-1.525 3.05h1.702c.356-.002.285.779-.07.779zm-4.539 0c-.745 1.737-1.418 3.476-1.915 4.717 1.348-1.383 2.553-3.015 3.582-4.717h-1.667zm2.873-5.958c-.851 1.205-1.631 3.155-2.518 5.177h1.773a37.58 37.58 0 0 0 1.773-3.617c.674-1.489 1.171-4.645-1.028-1.56zM5.937 155.064c.709 0 2.27-.036 2.837-.248.674-.249.887 0 .284.425-.922.639-2.412.887-3.44.958-.638 2.092-3.404 9.504-1.844 11.205.461.497 1.206.568 1.986 0 1.809-1.347 3.298-4.113 4.433-6.418.39-.78.922-.603.532.248-1.844 3.9-2.73 5.106-4.326 6.667-1.241 1.206-2.766 1.596-4.007.957-3.227-1.666.319-10.213 1.17-12.659-1.596 0-8.794-.319-12.021-.461-2.766 8.227-9.255 16.702-18.405 17.872-8.085 1.028-16.028-3.617-13.724-12.482.603-2.305 3.192-4.468 4.327-4.503.745 0 .425.354.071.496-1.17.496-3.227 2.659-3.617 5.603-.993 7.73 7.625 9.61 12.589 8.511 9.929-2.233 14.575-9.397 16.915-15.567-.745 0-1.454.248-2.127.567-.39.178-1.49.532-.958-.39.319-.532 1.276-1.241 2.199-1.348h1.383c1.773-4.433 4.433-10 5.177-11.489-6.95.779-15.319.248-17.873 8.439-1.206 3.865 1.064 7.092 4.646 5.78 2.624-.958 3.582-5.639 3.121-6.313-.39-.567.213-.78.461-.248 1.348 2.943-.993 6.313-3.546 7.234-4.255 1.56-8.263-2.376-7.092-7.021 2.234-8.972 13.865-8.05 20.78-8.724.248-.426 1.596-2.482 2.73-2.837 1.028-.284 2.021 0 2.021.993 0 1.666-2.766 2.624-4.185 2.624-1.348 2.624-3.972 10.035-4.575 11.561 4.752 0 9.539.603 12.021.603.532-1.489 4.929-13.015 7.73-13.972 1.383-.496 2.979-.709 1.667-.035-.673.355-4.504 5.71-7.34 13.972zm-8.866-13.014c3.014-.461 2.305-1.702 1.879-1.702-.354-.178-1.382 1.063-1.879 1.702z"/><path fill="#ECF0F1" d="M12.743 167.83c-1.773 0-3.369-1.17-3.404-3.404-.035-2.127 1.17-4.787 2.73-6.631 1.809-2.128 4.504-3.476 6.064-2.305 1.348 1.028.319 3.439-1.95 5.177-1.099.815-3.404 1.561-4.362 1.561-.532 1.276-1.135 4.858 1.206 4.858 3.121 0 5.036-4.185 5.851-6.064.284-.638.993-.709.639.036-1.312 2.837-2.837 6.772-6.774 6.772zm1.454-9.539c-.922 1.135-1.809 2.695-2.128 3.334.639 0 2.482-.497 3.759-1.561 2.908-2.447 2.731-7.056-1.631-1.773z"/><path fill="#ECF0F1" d="M26.537 167.76c-1.17.07-2.837-.852-1.773-4.575-.567.922-1.524 2.341-2.553 3.334-4.078 3.9-6.773-2.306-1.419-8.724 2.128-2.518 6.206-3.83 8.228-1.632.496.532.212 1.135-.39 1.028-.39-1.312-1.702-1.596-3.014-.886-1.596.886-3.44 2.979-4.717 5.07-.284.497-1.241 2.234-1.454 3.582-.355 2.482 1.596 2.198 3.262.213 1.241-1.489 2.234-3.228 3.156-4.965.78-1.489 1.276-2.341 2.411-2.27.461.035.993.248 1.49.142-.745.745-2.837 4.469-3.298 6.632-.283 1.454-.106 2.128.355 2.128 1.489.07 3.83-4.434 4.574-5.958.319-.639.851-.426.497.284-1.064 2.164-3.227 6.419-5.355 6.597z"/><path fill="#ECF0F1" d="M33.345 160.845c-.177.603-.532 1.454-.745 2.34-1.064 4.256 1.773 4.858 3.652 2.234 1.17-1.667 2.163-3.582 2.624-4.504.319-.603.852-.531.532.178-.887 1.879-2.73 6.667-6.312 6.667-3.972 0-2.27-4.858-1.667-6.986 1.1-3.972 3.333-9.078 5.39-12.518 2.518-4.22 6.348-3.724 3.794 1.95-1.63 3.652-3.793 7.482-7.268 10.639zm5.887-12.767c-1.738 2.447-4.504 8.795-5.603 11.632 2.518-2.554 5.071-6.738 6.454-10.036.709-1.631 1.063-4.326-.851-1.596z"/><path fill="#ECF0F1" d="M47.564 154.993h-2.057c-1.206 2.057-2.624 3.937-4.716 5.852-.319.922-.816 3.617-.816 3.617-.532 2.376 1.1 2.694 2.27 1.844 1.631-1.206 2.802-3.44 3.759-5.354.284-.639.815-.497.461.213-1.561 3.262-2.163 4.22-3.475 5.531-1.915 1.844-5.426 1.241-4.894-2.659.319-2.411 1.631-6.276 2.766-9.043h-1.844c-.39 0-.319-.78.071-.78h2.127a60.515 60.515 0 0 1 2.589-5.035c2.447-4.291 6.276-3.688 3.652 1.985a60.193 60.193 0 0 1-1.525 3.05h1.702c.356-.001.285.779-.07.779zm-4.539 0c-.745 1.737-1.418 3.476-1.915 4.717 1.348-1.384 2.553-3.015 3.582-4.717h-1.667zm2.873-5.957c-.851 1.205-1.631 3.155-2.518 5.177h1.773a37.58 37.58 0 0 0 1.773-3.617c.674-1.49 1.171-4.646-1.028-1.56z"/><path fill="#ECF0F1" d="M52.493 167.83c-1.241 0-2.943-.851-1.879-4.148.284-.922.958-2.128 1.95-3.724.851-1.383.213-2.341-2.518.213-1.206 1.099-2.943 3.085-4.965 7.021-.248.496-.567.531-1.312.531-.532.036-.851 0-1.206.213 2.873-5.957 6.312-13.191 9.752-19.539.815-1.489 1.383-2.305 2.518-2.234.461.036.993.213 1.49.143-1.561 1.596-6.17 10.283-9.078 16.205.957-1.205 1.915-2.305 2.872-3.12 1.702-1.525 5.354-3.759 6.561-3.334 0 0-3.794 6.667-4.255 9.149-.284 1.454.071 1.844.532 1.88 1.631.106 4.042-4.717 4.787-6.241.319-.639.852-.391.497.354-1.171 2.447-3.122 6.631-5.746 6.631zM84.407 151.837c-4.007.354-7.376.249-10.709-.815-1.276 1.809-3.865 5.78-5.142 8.937-3.617 9.043 2.021 10.639 8.546 5.213 3.653-3.085 7.412-7.695 9.291-11.171 2.199-4.113 4.078-1.241 2.021.993-1.986 2.234-4.007 6.028-4.646 9.504-1.1 5.993 2.411 5.106 5.213 1.631 1.099-1.418 2.305-3.263 3.085-5.035.319-.674.993-.709.603.142-.638 1.419-1.986 3.937-3.298 5.674-1.206 1.631-3.227 3.05-5.213 3.05-3.937 0-3.05-6.986-1.454-9.078-2.908 3.439-9.539 10.213-14.575 8.05-3.404-1.454-3.404-7.73.142-14.149.886-1.596 1.915-3.12 3.121-4.503-1.418-.674-2.66-1.454-3.546-2.447-.993-1.135-1.099-3.439-.319-4.007.425-.567 1.028-.178.638.674-.461 1.063-.071 1.879.745 2.801.78.887 1.844 1.632 3.121 2.234 4.468-4.965 10.39-9.256 17.305-9.256 3.794 0 6.1 1.88 6.1 4.504 0 2.586-2.767 6.31-11.029 7.054zm5.035-10.638c-6.631 0-11.206 4.361-15.178 9.113 2.766.887 5.639 1.063 10.142.674 5.887-.497 9.575-3.121 9.575-6.632 0-2.091-1.95-3.155-4.539-3.155z"/><path fill="#ECF0F1" d="M98.732 167.83c-1.241 0-2.943-.851-1.879-4.148.283-.922.957-2.128 1.95-3.724.851-1.383.213-2.341-2.518.213-1.206 1.099-2.943 3.085-4.929 7.021-.284.496-.603.531-1.348.531-.532.036-.851 0-1.206.213 1.702-3.368 3.156-6.737 4.894-9.929.922-1.702 1.383-2.306 2.518-2.234.461.035.993.248 1.489.142-1.063.567-3.014 4.114-4.291 6.667.709-.887 1.844-2.234 2.943-3.191 1.702-1.525 5.354-3.759 6.56-3.334 0 0-3.794 6.667-4.255 9.149-.284 1.454.106 1.773.567 1.773 1.844 0 4.114-4.646 4.858-6.135.284-.639.851-.391.497.319-1.063 2.164-3.12 6.667-5.85 6.667z"/><path fill="#ECF0F1" d="M112.277 162.972c-.354.816-1.454 3.795.213 3.795 1.773 0 3.83-4.397 4.574-5.887.284-.639.851-.496.532.213-.851 1.985-2.908 6.596-5.745 6.596-.567 0-1.135-.284-1.596-.957-.39-.604-.674-1.667-.319-3.121-1.064 1.737-2.73 4.574-5.177 3.937-3.333-.922-1.383-6.632 1.206-9.752 1.986-2.305 5.071-3.546 7.624-2.057 1.702-3.228 3.263-6.49 4.114-8.404.674-1.596 1.276-1.951 2.411-1.845.461.036.993.213 1.525.143-1.064.991-7.305 12.445-9.362 17.339zm-6.525-.993c-2.34 4.396-.213 6.596 2.801 2.34 1.313-1.844 3.085-4.894 4.752-8.014-1.772-1.738-5.673 2.199-7.553 5.674zM169.9 147.901c-5.248-.674-8.191-1.951-8.936-2.27-4.255 6.772-4.539 14.539-9.752 20.496-7.518 8.547-30 6.064-25.213-9.078 1.063-3.298 4.574-4.752 4.362-3.263-.567.71-3.085 1.525-3.653 4.895-1.276 7.27 5.284 11.17 10.745 11.063 5.568-.142 9.362-2.376 12.057-5.319 4.291-4.646 8.936-17.163 10.426-19.148-3.724-1.171-6.951-1.773-10.745-1.951-10.142-.496-14.22 9.895-8.652 11.667 4.362 1.383 6.915-3.014 6.773-4.007v-.071c.354-.319.709-.177.709.284-.461 3.794-4.504 5.815-7.837 4.681-7.234-2.518-4.539-15.567 8.759-14.362 4.255.355 9.291 2.447 11.561 3.086.319-.391 1.844-2.164 2.624-2.164h-.036c1.135-.354 1.418 1.384.249 1.029-.319-.249-1.383.957-1.844 1.418 3.05.993 11.667 3.369 11.667.957 0-.318.071-.531.39-.531.248 0 .354.567.354.744 0 1.347-1.773 2.128-4.008 1.844z"/><path fill="#ECF0F1" d="M163.375 167.653c-1.206.283-3.369-.78-1.951-4.469.532-1.454 1.809-3.298 2.199-4.185.497-1.17-.745-1.631-2.73-1.666l-.426 1.135c-.851 2.233-2.553 6.17-4.291 7.837-.284.248-.497-.142-.284-.461 2.801-3.688 4.751-9.043 5.461-13.015.354-1.985 2.66-1.1 2.163 1.276-.213.993-1.348 1.95-1.95 2.376 1.312.071 3.156.036 4.894-.142.248.496-.319 1.844-.745 2.73-.532 1.1-4.149 7.589-2.021 7.695 1.454.035 3.653-4.397 4.397-5.922.319-.604.78-.354.425.354-1.028 2.131-2.837 5.89-5.141 6.457z"/><path fill="#ECF0F1" d="M175.608 167.76c-1.17.07-2.837-.852-1.773-4.575-.567.922-1.524 2.341-2.553 3.334-4.078 3.9-6.773-2.306-1.419-8.724 2.128-2.518 6.206-3.83 8.228-1.632.496.532.212 1.135-.39 1.028-.39-1.312-1.702-1.596-3.014-.886-1.596.886-3.44 2.979-4.717 5.07-.284.497-1.241 2.234-1.454 3.582-.355 2.482 1.596 2.198 3.262.213 1.241-1.489 2.234-3.228 3.156-4.965.78-1.489 1.276-2.341 2.411-2.27.461.035.993.248 1.49.142-.745.745-2.837 4.469-3.298 6.632-.283 1.454-.106 2.128.355 2.128 1.489.07 3.83-4.434 4.574-5.958.319-.639.851-.426.497.284-1.064 2.164-3.227 6.419-5.355 6.597z"/><path fill="#ECF0F1" d="M186.991 167.83c-1.241 0-2.943-.851-1.879-4.148.283-.922.957-2.128 1.95-3.724.851-1.383.213-2.341-2.518.213-1.206 1.099-2.943 3.085-4.929 7.021-.284.496-.603.531-1.348.531-.532.036-.851 0-1.206.213 1.702-3.368 3.156-6.737 4.894-9.929.922-1.702 1.383-2.306 2.518-2.234.461.035.993.248 1.489.142-1.063.567-3.014 4.114-4.291 6.667.709-.887 1.844-2.234 2.943-3.191 1.702-1.525 5.354-3.759 6.56-3.334 0 0-3.794 6.667-4.255 9.149-.284 1.454.106 1.773.567 1.773 1.844 0 4.114-4.646 4.858-6.135.284-.639.851-.391.497.319-1.063 2.164-3.12 6.667-5.85 6.667z"/><path fill="#ECF0F1" d="M194.543 167.476c-.496.213-.993.354-1.454.354-4.291 0-3.475-4.929-1.773-5 .957-1.809 2.127-4.113 3.049-6.135.638-1.383 1.702-2.872 2.943-3.05.532-.07.958 0 1.312.178.639.319.497.922-.142.603-.354-.142-.78-.213-1.135-.035-1.631.78-1.277 3.227-.745 4.504.567 1.347 1.347 2.624 1.276 4.184-.071 1.384-1.135 3.015-2.518 3.937l.248.035c1.206.178 2.305-.567 3.191-1.631.816-.993 1.915-3.191 2.66-4.646.177-.354.709-.142.532.213-1.309 2.943-3.437 7.695-7.444 6.489zm-2.411-3.05c-1.135 1.135-.674 2.802.709 2.802.249 0 .497-.035.709-.142-.744-.461-1.347-1.313-1.418-2.66zm3.12-8.085c-.958 1.915-2.482 5-3.333 6.561 0 0 .78-.036.745 1.135-.071 1.348.674 2.34 1.49 2.73.78-.603 1.454-1.809 1.56-3.688.106-2.234-.745-5.142-.462-6.738z"/><path fill="#ECF0F1" d="M201.883 163.93c.461.567.886 1.418 1.135 2.659l.106.461c2.127.143 4.149-3.794 5.319-6.276.249-.461.78-.283.532.248-1.312 2.979-3.263 6.702-5.78 6.702.425 4.965-2.27 12.482-6.1 12.306-.993-.036-1.809-.426-1.844-1.844-.071-2.306 1.56-6.597 3.652-11.525-.745-1.135-.425-2.66.249-3.156.354-.283.815-.461 1.276-.39 2.553-5.745 5.319-11.49 7.27-15.143.78-1.524 1.525-2.482 3.014-2.482.426 0 1.028.249 1.561.178-2.234 2.091-6.844 10.283-10.39 18.262zm-1.489 3.369c-1.241 3.12-2.375 6.418-2.943 8.759-.958 4.113.673 3.439 2.057 1.596 1.738-2.27 3.014-6.632 2.943-9.787-.71.07-1.596-.179-2.057-.568zm1.667-1.702a3.885 3.885 0 0 0-.532-.852l-.78 1.773c.212.39.78.674 1.418.674h.213c-.036-.603-.142-1.134-.319-1.595z"/><path fill="#ECF0F1" d="M215.323 167.404c-1.064 0-1.809-.39-2.27-.922-.993.745-2.057 1.241-3.085 1.206-2.695-.071-3.085-3.298-1.737-6.454 1.383-3.263 4.326-6.028 6.738-5.957 2.695.035 3.085 3.298 1.737 6.453-.532 1.241-1.631 2.908-2.979 4.185.284.532.815.887 1.667.887 2.27 0 4.114-4.397 4.965-6.1.177-.354.78-.212.532.319-.604 1.348-2.59 6.383-5.568 6.383zm-4.646-6.311c-1.383 2.907-1.702 5.39-.425 5.78.673.177 1.56-.178 2.411-.887-.39-.567-.567-1.206-.567-1.737.036-.815.354-1.525 1.241-1.525.603 0 1.064.497 1.064 1.064 0 .142-.036.248-.071.39.39-.567.78-1.241 1.1-1.915 1.383-2.907 1.56-5.426.284-5.815-1.526-.427-3.725 1.843-5.037 4.645z"/><path fill="#ECF0F1" d="M224.861 167.653c-1.206.283-3.369-.78-1.951-4.469.532-1.454 1.809-3.298 2.199-4.185.497-1.17-.745-1.631-2.73-1.666l-.426 1.135c-.851 2.233-2.553 6.17-4.291 7.837-.284.248-.497-.142-.284-.461 2.801-3.688 4.752-9.043 5.461-13.015.354-1.985 2.66-1.1 2.163 1.276-.213.993-1.348 1.95-1.95 2.376 1.312.071 3.156.036 4.894-.142.248.496-.319 1.844-.745 2.73-.532 1.1-4.149 7.589-2.021 7.695 1.454.035 3.653-4.397 4.397-5.922.319-.604.78-.354.426.354-1.028 2.131-2.837 5.89-5.142 6.457z"/><path fill="#ECF0F1" d="M242.166 167.83c-1.277 0-2.979-.851-1.915-4.148.283-.922.957-2.128 1.95-3.724.851-1.383.213-2.341-2.518.213-1.525 1.418-4.539 5.39-5 7.518-.816 0-1.313-.922-1.135-1.95.248-1.561.886-2.73 1.489-4.043 1.17-2.411 2.305-5-1.419-1.524-1.205 1.099-2.872 3.014-4.894 6.915-.248.531-.567.567-1.348.567-.496.035-.815 0-1.17.213 1.702-3.369 3.085-6.667 4.822-9.858.923-1.702 1.384-2.306 2.519-2.234.461.035.992.248 1.489.142-1.064.567-3.015 4.114-4.291 6.667.709-.887 1.844-2.234 2.943-3.191 1.702-1.525 3.972-3.759 5.177-3.334.639.249.852.852.532 1.561-.638 1.489-1.737 3.228-2.589 4.965.71-.887 1.88-2.234 2.943-3.191 1.702-1.525 5.391-3.759 6.561-3.334 0 0-3.759 6.667-4.255 9.149-.249 1.454.142 1.773.603 1.773 1.844 0 4.113-4.504 4.858-6.135.283-.639.851-.391.496.319-1.061 2.161-3.154 6.664-5.848 6.664z"/><path fill="#ECF0F1" d="M255.072 167.76c-1.17.07-2.837-.852-1.772-4.575-.567.922-1.525 2.341-2.554 3.334-4.078 3.9-6.772-2.306-1.418-8.724 2.127-2.518 6.205-3.83 8.227-1.632.497.532.213 1.135-.39 1.028-.391-1.312-1.702-1.596-3.015-.886-1.596.886-3.439 2.979-4.716 5.07-.284.497-1.241 2.234-1.454 3.582-.354 2.482 1.596 2.198 3.263.213 1.241-1.489 2.233-3.228 3.155-4.965.78-1.489 1.277-2.341 2.412-2.27.461.035.992.248 1.489.142-.745.745-2.837 4.469-3.298 6.632-.284 1.454-.106 2.128.354 2.128 1.489.07 3.83-4.434 4.574-5.958.319-.639.852-.426.497.284-1.063 2.164-3.226 6.419-5.354 6.597z"/><path fill="#ECF0F1" d="M268.583 154.993h-2.057c-1.206 2.057-2.624 3.937-4.717 5.852-.318.922-.815 3.617-.815 3.617-.531 2.376 1.1 2.694 2.27 1.844 1.632-1.206 2.802-3.44 3.759-5.354.284-.639.815-.497.461.213-1.56 3.262-2.163 4.22-3.475 5.531-1.915 1.844-5.426 1.241-4.894-2.659.318-2.411 1.631-6.276 2.766-9.043h-1.844c-.391 0-.319-.78.07-.78h2.128a60.213 60.213 0 0 1 2.589-5.035c2.447-4.291 6.276-3.688 3.652 1.985a61.037 61.037 0 0 1-1.524 3.05h1.702c.355-.001.284.779-.071.779zm-4.539 0c-.745 1.737-1.418 3.476-1.915 4.717 1.348-1.384 2.554-3.015 3.582-4.717h-1.667zm2.872-5.957c-.851 1.205-1.631 3.155-2.518 5.177h1.773a37.334 37.334 0 0 0 1.772-3.617c.675-1.49 1.172-4.646-1.027-1.56z"/><path fill="#ECF0F1" d="M268.228 166.908c.532.071 1.206-.319 1.597-.674 1.17-1.17 2.34-3.369 3.333-5.354.283-.639.78-.39.461.319-.922 1.985-2.943 6.489-5.567 6.489-2.66 0-2.66-2.766-1.915-4.61l2.27-5.78c.284-.673-.213-1.312-.354-1.489l1.95-.035c1.135 0 1.135.39.745 1.241l-2.837 6.631s-.354.78-.426 1.028c-.321 1.171-.25 2.164.743 2.234zm2.553-12.589c-.815 0-1.348-.638-1.241-1.454.142-.815.922-1.453 1.702-1.453.815 0 1.383.638 1.241 1.453-.141.817-.886 1.454-1.702 1.454z"/><path fill="#ECF0F1" d="M280.071 167.404c-1.063 0-1.808-.39-2.27-.922-.992.745-2.057 1.241-3.085 1.206-2.695-.071-3.085-3.298-1.737-6.454 1.383-3.263 4.326-6.028 6.737-5.957 2.695.035 3.086 3.298 1.738 6.453-.532 1.241-1.632 2.908-2.979 4.185.284.532.816.887 1.667.887 2.27 0 4.113-4.397 4.965-6.1.177-.354.78-.212.531.319-.602 1.348-2.587 6.383-5.567 6.383zm-4.645-6.311c-1.383 2.907-1.701 5.39-.425 5.78.674.177 1.56-.178 2.411-.887-.39-.567-.567-1.206-.567-1.737.035-.815.354-1.525 1.241-1.525.603 0 1.063.497 1.063 1.064 0 .142-.035.248-.07.39.39-.567.78-1.241 1.099-1.915 1.384-2.907 1.561-5.426.284-5.815-1.525-.427-3.724 1.843-5.036 4.645z"/><path fill="#ECF0F1" d="M291.596 167.83c-1.241 0-2.943-.851-1.879-4.148.283-.922.957-2.128 1.95-3.724.851-1.383.213-2.341-2.518.213-1.206 1.099-2.943 3.085-4.93 7.021-.283.496-.603.531-1.348.531-.531.036-.851 0-1.205.213 1.702-3.368 3.156-6.737 4.894-9.929.922-1.702 1.383-2.306 2.518-2.234.461.035.993.248 1.489.142-1.063.567-3.014 4.114-4.291 6.667.71-.887 1.845-2.234 2.943-3.191 1.702-1.525 5.355-3.759 6.561-3.334 0 0-3.794 6.667-4.255 9.149-.284 1.454.106 1.773.567 1.773 1.844 0 4.113-4.646 4.858-6.135.283-.639.851-.391.496.319-1.063 2.164-3.12 6.667-5.85 6.667z"/><g><path fill="#FFF" d="M120.764 125.674c-1.18.284-3.298-.78-1.909-4.467.521-1.455 1.771-3.299 2.152-4.186.486-1.17-.729-1.631-2.673-1.667l-.417 1.136c-.833 2.233-2.5 6.17-4.201 7.837-.277.247-.486-.143-.277-.461 2.742-3.688 4.651-9.043 5.346-13.015.347-1.986 2.604-1.1 2.118 1.276-.208.993-1.319 1.95-1.909 2.376 1.284.07 3.089.035 4.79-.142.243.496-.312 1.843-.729 2.73-.521 1.099-4.062 7.589-1.979 7.695 1.423.035 3.576-4.397 4.305-5.923.313-.603.764-.354.417.355-1.007 2.131-2.777 5.889-5.034 6.456z"/></g><g><path fill="#E8DDA1" d="M-60 245H60v120H-60z"/><path fill="#ECDDA3" d="M-60 245H60v120H-60z"/><g fill="#D5C295"><path d="M-60 365H60v15H-60z"/><path d="M-60 365H60v15H-60z"/></g><g><path fill="#865D41" d="M-6.114 263.773c-20.436-.197-19.169 5.157-25.976 17.749-1.96 3.347-4.882 5.563-6.494 9.092-2.291 5.012-1.625 16.451-1.625 16.451.523-4.699.713-8.141 4.601-11.147l1.298 4.437s-1.644 3.346-1.731 5.683c-.103 2.752 1.948 7.035 1.948 7.035s-.381 7.975-1.245 11.851c-.814 3.653-1.633 7.474-3.68 10.607-2.232 3.42-8.982 8.333-8.982 8.333 4.063-.554 8.273-.574 13.419-2.706-.823 1.871-1.954 4.048-3.354 6.494 5.292-.445 10.308-3.798 15.259-7.793.35 2.49.712 4.979-1.189 7.47 0 0 6.791-7.308 8.55-10.716 7.194-13.942 18.724-43.184 18.724-43.184l19.047 35.501c6.363 8.843 10.304 13.605 21.864 11.471-6.688-2.277-9.955-4.477-12.772-8.874 5.824 2.936 10.318 2.842 16.452.432 0 0-8.599-2.029-11.257-5.194-2.353-2.801-2.814-10.606-2.814-10.606 2.165 7.461 4.33 7.437 6.495 8.225-.454.215-6.709-11.741-6.278-16.45.861-9.435.836-3.865 0-24.461-.33-8.118-6.01-15.702-13.204-19.48-9.91-5.206-17.473-6.305-27.057-.217h.001z"/><path fill="#EFC7B0" d="M-18.218 283.214l-6.062 8.551c-.801 2.476-1.857 4.415-2.38 7.468-.341 1.993-.041 3.97.108 5.953-.126.684-.224 1.377.217 2.273-2.026 4.68-1.591 10.084-1.245 15.152.325 4.781 4.14 11.178 8.171 17.75 0 0 5.867 8.152 11.941 10.029.041-.01.082-.023.125-.035L-6 276.729l-12.218 6.485z"/><path fill="#DFBAA4" d="M16.608 293.063c-1.131-3.851-5.953-12.987-5.953-12.987l-16.537-3.411-.118.064-1.343 73.627c3.12-.864 5.439-2.874 7.825-4.908 5.224-4.456 9.038-7.688 12.013-14.179 2.294-5.004 3.4-10.667 4.113-16.127.894-6.838 1.943-15.461 0-22.079z"/><path fill="#BF9F8D" d="M22.705 293.063c-1.131-3.851-5.953-12.987-5.953-12.987l-20.997-4.331-1.733.92 16.537 3.411s4.822 9.137 5.953 12.987c1.942 6.617.894 15.24 0 22.078-.713 5.46-1.819 11.123-4.113 16.127-2.975 6.491-6.79 9.723-12.013 14.179-2.417 2.063-4.767 4.098-7.95 4.943a8.308 8.308 0 0 0 1.805.36c5.663.46 8.933-2.397 12.338-5.304 5.224-4.456 9.038-7.688 12.013-14.179 2.294-5.004 3.4-10.667 4.113-16.127.894-6.836 1.942-15.459 0-22.077z"/><path fill="#865D41" d="M-6.085 283.812c-8.471 2.993-15.729 5.858-20.357 15.154 0 0 .073 3.754.019 5.798-.211 7.831 5.205 9.759 10.849 10.885-3.768.969-3.932 1.08-7.348 0 2.823 2.606 3.192 2.598 6.735 3.368-3.674.837-5.247-.396-8.265-2.295 2.285 4.356 1.784 4.571 1.225 9.335-.845-6.161-2.673-8.571-7.195-12.244-3.674-2.986-3.847-8.194-3.672-12.551.256-6.438 2.638-13.218 6.888-18.063 5.314-6.057 20.509-11.479 21.275-11.479.765 0 26.174 2.909 26.174 2.909l7.5 10.56v19.44c0 .612 2.143 13.928 2.143 13.928-2.905.241-5.093-3.107-7.194-6.888-1.885-5.032-4.942-8.455-5.205-15.307-.123-3.247-2.303-6.285-7.5-7.041-5.995-.872-11.25-2.599-16.072-5.509z"/></g></g><g><g fill="#CCDF91"><path d="M100 245h120v120H100z"/><path d="M100 245h120v120H100z"/></g><g fill="#B3CC4A"><path d="M100 365h120v15H100z"/><path d="M100 365h120v15H100z"/></g><path fill="#FFCDA4" d="M146.5 265.906c-1.269.536-2.42 1.15-3.425 1.839-9.428 6.455-10.644 18.687-10.418 23.869.158 3.633.226 8.938.252 11.786-.252-.281-.486-.486-.683-.574-1.339-.616-2.145 1.017-2.634 2.132-.246.563-.24 1.776-.149 2.884.088 1.093.258 2.082.352 2.256.19.352.7 2.804.671 4.904-.035 2.104.539 5.926 1.4 6.626.858.701 1.497 3.218 2.294 3.821.797.604 2.291-.253 2.704-.524.258-.168.548-.48.732-.697 1.014 6.574 2.388 15.368 2.646 16.352.413 1.593 15.935 15.352 17.44 15.989.475.201 3.193.3 5.909.3v-93.836c-6.183-.065-12.418.89-17.091 2.873zM197.591 304.958c-.489-1.115-1.295-2.748-2.634-2.132-.475.219-1.169 1.102-1.866 2.148.012-1.762.07-8.852.267-13.36.205-4.742-.8-15.381-8.191-22.102v67.942l2.789-2.788c.507-3.174 1.116-7.094 1.632-10.439.185.217.478.529.732.697.413.271 1.91 1.129 2.704.524.797-.604 1.436-3.12 2.294-3.821.861-.7 1.436-4.522 1.403-6.626-.032-2.101.478-4.553.668-4.904.094-.174.264-1.163.352-2.256.091-1.107.096-2.32-.15-2.883zM185.167 269.513a20.47 20.47 0 0 0-2.227-1.768c-4.479-3.066-11.877-4.636-19.348-4.713v93.836c.744 0 1.485-.007 2.183-.021l19.392-19.392v-67.942z"/><path opacity=".12" d="M185.167 269.513a20.47 20.47 0 0 0-2.227-1.768c-4.479-3.066-11.877-4.636-19.348-4.713v93.836c.744 0 1.485-.007 2.183-.021l19.392-19.392v-67.942z"/><path fill="#FFCDA4" d="M185.167 337.455l-19.392 19.392c1.852-.041 3.381-.133 3.727-.278 1.21-.511 11.464-9.492 15.665-13.831 1.028-1.061 1.693-1.846 1.775-2.158.126-.482.521-2.851 1.014-5.912l-2.789 2.787z"/><path opacity=".22" d="M197.591 304.958c-.489-1.115-1.295-2.748-2.634-2.132-.475.219-1.169 1.102-1.866 2.148.012-1.762.07-8.852.267-13.36.205-4.742-.8-15.381-8.191-22.102v67.942l-19.392 19.392c1.852-.041 3.381-.133 3.727-.278 1.21-.511 11.464-9.492 15.665-13.831 1.028-1.061 1.693-1.846 1.775-2.158.126-.482.521-2.851 1.014-5.912.507-3.174 1.116-7.094 1.632-10.439.185.217.478.529.732.697.413.271 1.91 1.129 2.704.524.797-.604 1.436-3.12 2.294-3.821.861-.7 1.436-4.522 1.403-6.626-.032-2.101.478-4.553.668-4.904.094-.174.264-1.163.352-2.256.091-1.108.096-2.321-.15-2.884z"/><g><path fill="#8EB021" d="M189.456 266.907c-2.547-2.04-5.73-4.968-5.73-4.968-6.756-5.604-16.43-7.002-16.43-7.002-.376-1.929-2.801-1.787-2.801-1.787-3.693-.254-3.946 2.298-3.948 2.298-8.931-.497-15.347 4.984-23.048 8.399-2.292 1.02-4.586 5.094-4.586 5.094-4.077 6.876-4.841 21.782-4.841 21.782-.127.891-1.654 2.29-1.654 2.29l-16.173 9.806c-1.402 1.146-1.146 2.165-1.146 2.165.508.769 1.4.127 1.4.127l1.236-.791c1.958-.775 5.657-2.254 8.631-3.541 4.929-.665 8.854.768 8.854.768 6.113 2.545 22.537 4.586 22.537 4.586 21.398.758 31.332-11.338 31.332-11.338 2.848 1.995 7.487 1.754 9.933 4.203.505.509.768.382.768.382 7.762-19.356-4.334-32.473-4.334-32.473z"/><path opacity=".15" d="M189.456 266.907c-2.547-2.04-5.73-4.968-5.73-4.968-6.756-5.604-16.43-7.002-16.43-7.002-.376-1.929-2.801-1.787-2.801-1.787a6.299 6.299 0 0 0-1.106.023v52.017c13.374-2.741 19.699-10.396 19.699-10.396 2.848 1.995 7.487 1.754 9.933 4.203.505.509.768.382.768.382 7.763-19.355-4.333-32.472-4.333-32.472z"/></g></g><g><g fill="#8CDDCD"><path d="M260 245h120v120H260z"/><path d="M260 245h120v120H260z"/></g><g fill="#4CD3B9"><path d="M260 365h120v15H260z"/><path d="M260 365h120v15H260z"/></g><path fill="#5F3917" d="M324.31 261.311c-1.239.094-2.587.822-3.362 1.306v1.716c1.072-1.657 3.362-3.022 3.362-3.022zM324.42 259.848c-.924.261-2.176.779-3.473 1.373v1.105c1.553-1.561 3.473-2.478 3.473-2.478z"/><path fill="#FFCDA4" d="M303.712 270.651c-1.323.507-2.534 1.088-3.585 1.735-9.887 6.088-11.158 17.633-10.923 22.524.161 3.426.236 8.433.26 11.117-.26-.26-.504-.454-.712-.539-1.4-.585-2.251.956-2.76 2.007-.265.537-.258 1.682-.163 2.725.096 1.031.277 1.963.368 2.132.2.329.738 2.646.711 4.625-.043 1.982.566 5.588 1.469 6.252.891.658 1.563 3.031 2.403 3.605.833.574 2.401-.237 2.836-.496.268-.154.574-.45.762-.655 1.069 6.199 2.504 14.497 2.781 15.425.425 1.506 16.698 14.482 18.279 15.087.503.189 3.345.285 6.199.285v-88.538c-6.483-.064-13.025.84-17.925 2.709zM357.276 307.496c-.509-1.051-1.358-2.592-2.759-2.007-.494.206-1.228 1.038-1.956 2.03.012-1.67.077-8.356.275-12.608.217-4.476-.834-14.516-8.584-20.858v64.105l2.927-2.624c.526-2.993 1.168-6.691 1.71-9.851.188.205.498.501.762.655.435.259 2.008 1.07 2.836.496.844-.574 1.514-2.947 2.403-3.605.904-.664 1.515-4.27 1.475-6.252-.031-1.979.505-4.296.7-4.625.096-.169.279-1.101.373-2.132.098-1.042.103-2.187-.162-2.724z"/><path fill="#FFCDA4" d="M344.253 274.053a22.36 22.36 0 0 0-2.329-1.666c-4.704-2.892-12.46-4.377-20.286-4.444v88.538c.773 0 1.553-.008 2.288-.02l20.327-18.303v-64.105z"/><path opacity=".12" d="M344.253 274.053a22.36 22.36 0 0 0-2.329-1.666c-4.704-2.892-12.46-4.377-20.286-4.444v88.538c.773 0 1.553-.008 2.288-.02l20.327-18.303v-64.105z"/><path fill="#FFCDA4" d="M344.253 338.158l-20.327 18.303c1.942-.036 3.545-.124 3.905-.266 1.267-.477 12.015-8.955 16.422-13.049 1.083-1.002 1.779-1.742 1.857-2.038.14-.451.55-2.687 1.069-5.574l-2.926 2.624z"/><path opacity=".22" d="M357.276 307.496c-.509-1.051-1.358-2.592-2.759-2.007-.494.206-1.228 1.038-1.956 2.03.012-1.67.077-8.356.275-12.608.217-4.476-.834-14.516-8.584-20.858v64.105l-20.327 18.303c1.942-.036 3.545-.124 3.905-.266 1.267-.477 12.015-8.955 16.422-13.049 1.083-1.002 1.779-1.742 1.857-2.038.14-.451.55-2.687 1.069-5.574.526-2.993 1.168-6.691 1.71-9.851.188.205.498.501.762.655.435.259 2.008 1.07 2.836.496.844-.574 1.514-2.947 2.403-3.605.904-.664 1.515-4.27 1.475-6.252-.031-1.979.505-4.296.7-4.625.096-.169.279-1.101.373-2.132.099-1.042.104-2.187-.161-2.724z"/><path fill="#5F3917" d="M355.732 291.046c.602-1.926-.548-3.173-1.361-5.268-.816-2.098-.855-4.88-.938-5.983-.094-1.092-.998-1.953-1.804-2.006-.807-.057-2.225.794-3.479-1.398-1.257-2.215-4.283-2.422-4.283-2.422-.328-4.684-4.655-4.47-4.655-4.47.576-2.577-.279-4.251-.279-4.251-1.724 1.273-4.965.469-4.965.469 1.291-1.592.533-3.389.533-3.389-1.157 2.18-5.728 3.112-5.728 3.112.511-.548.354-2.083.354-2.083-.754 1.625-3.738 1.779-3.738 1.779.647-2.364 3.163-3.435 3.163-3.435-1.996.389-6.549 3.286-6.549 3.286 1.814-2.515 7.104-4.627 7.104-4.627-4.339.359-8.076 3.239-8.076 3.239.003-2.26 4.34-4.58 4.34-4.58-2.076.142-4.456 1.737-4.456 1.737 1.778-1.998 4.578-3.201 4.578-3.201-3.399.865-10.797 4.529-10.797 4.529 2.938-3.01 6.014-4.421 6.014-4.421-2.116.274-4.179 1.351-5.44 2.128 1.655-1.75.354-4.431.354-4.431.388 1.71-1.883 3.157-1.883 3.157s-.628 2.068.02-.285c.646-2.368-.599-4.715-.599-4.715.646 5.303-5.397 9.991-5.397 9.991 1.31-1.808.897-4.322.897-4.322-.368 1.009-1.668 3.841-3.607 5.52-1.931 1.697-2.497 6.331-2.497 6.331-1.339-3.448 1.132-6.049 1.132-6.049-4.547 1.733-3.378 6.046-3.378 6.046-1.41-2.507.383-5.66.383-5.66-2.78.975-3.49 6.261-3.49 6.261-2.582-.255-5.311 2.483-6.608 3.999-1.288 1.507-2.935 1.775-2.935 1.775 1.846.485 1.151 2.338 1.151 2.338-4.221 1.166-3.935 4.182-3.935 4.182.124-1.521 2.151-2.192 2.151-2.192-1.416.999-1.341 2.687-.968 4.057-.149-1.607 1.104-2.354 1.104-2.354.03.644-.41 1.732-.98 2.756.011.021.008.04.028.057-.035-.003-.047-.003-.072.009-.641 1.094-1.44 2.104-2.013 2.358-1.126.508-.868.823-.91 1.26-.034.433-.72 1.11-.72 1.11 2.282.478 2.998.155 3.224-.06-.692 1.351 1.625 5.389 1.396 8.113-.244 2.833 1.447 1.982 2.183 4.011.722 2.024.496 1.568 2.425 5.34 1.931 3.783 1.45 5.206 1.45 5.206.962 2.336 1.957-10.518 1.732-12.204-.213-1.705.42-3.917 1.744-4.846 1.339-.93 1.924-3.596 2.246-5.316.331-1.741 1.523-2.17 1.978-4.475.464-2.299 1.954-1.834 2.855-2.933.903-1.109.991-1.026 4.01.34 3.027 1.367 4.613.668 6.694.382 2.1-.304 3.983-1.488 6.752.01 2.726 1.492 4.576-.204 6.092-.1 1.521.102 6.535 3.353 8.166 4.346 1.629.983 3.45 1.615 6.322 1.666 2.863.048 1.211 3.797 2.188 5.028.971 1.231.329 4.693.164 6.733-.174 2.026.219 3.805.494 5.803.293 1.986.461 4.11.166 5.545-.292 1.448-.536 3.25-.116 2.477.425-.771 2.33-2.108 2.933-3.008.616-.91 2.886-3.156 3.521-4.435.641-1.269 1.298-3.635 1.298-3.635s2.385-2.759 2.72-5.653c.314-2.9-.027-6.347.597-8.279z"/><path opacity=".08" d="M354.371 285.778c-.816-2.098-.855-4.88-.938-5.983-.094-1.092-.998-1.953-1.804-2.006-.807-.057-2.225.794-3.479-1.398-1.257-2.215-4.283-2.422-4.283-2.422-.328-4.684-4.655-4.47-4.655-4.47.576-2.577-.279-4.251-.279-4.251-1.724 1.273-4.965.469-4.965.469 1.291-1.592.533-3.389.533-3.389-1.157 2.18-5.728 3.112-5.728 3.112.511-.548.354-2.083.354-2.083-.754 1.625-3.738 1.779-3.738 1.779.647-2.364 3.163-3.435 3.163-3.435-1.996.389-6.549 3.286-6.549 3.286 1.814-2.515 7.104-4.627 7.104-4.627-3.308.274-6.252 2.004-7.472 2.816v21.572c2.479 1.079 4.215-.39 5.644-.291 1.521.102 6.535 3.353 8.166 4.346 1.629.983 3.45 1.615 6.322 1.666 2.863.048 1.211 3.797 2.188 5.028.971 1.231.329 4.693.164 6.733-.174 2.026.219 3.805.494 5.803.293 1.986.461 4.11.166 5.545-.292 1.448-.536 3.25-.116 2.477.425-.771 2.33-2.108 2.933-3.008.616-.91 2.886-3.156 3.521-4.435.641-1.269 1.298-3.635 1.298-3.635s2.385-2.759 2.72-5.653c.313-2.901-.028-6.349.596-8.28.603-1.924-.546-3.171-1.36-5.266z"/><path opacity=".11" d="M354.371 285.778c-.816-2.098-.855-4.88-.938-5.983-.094-1.092-.998-1.953-1.804-2.006-.807-.057-2.225.794-3.479-1.398-.419-.748-1.055-1.253-1.708-1.619-1.261-.697-2.575-.803-2.575-.803-.167-2.297-1.294-3.413-2.388-3.955l3.58 30.96-.39 7.438c.252 1.884.39 3.828.111 5.169-.292 1.448-.536 3.25-.116 2.477.275-.495 1.161-1.224 1.913-1.925.425-.39.813-.762 1.02-1.083.616-.91 2.886-3.156 3.521-4.435.641-1.269 1.298-3.635 1.298-3.635s2.385-2.759 2.72-5.653c.313-2.901-.028-6.349.596-8.28.602-1.927-.547-3.174-1.361-5.269z"/></g><g><g fill="#99CBED"><path d="M420 245h120v120H420z"/><path d="M420 245h120v120H420z"/></g><g fill="#2EA3E5"><path d="M420 365h120v15H420z"/><path d="M420 365h120v15H420z"/></g><path fill="#3C1711" d="M513.987 280.563c-.245-.23-.559-.526-.786-.743-.907-.86-1.792-1.765-2.59-2.801-8.951-12.443-8.334-18.303-30.011-15.305-11.012-5.157-17.279-3.398-27.096 3.483-5.058 3.548-9.232 8.503-11.529 14.262-.685 1.717-1.184 3.495-1.394 5.333-.343 2.993.181 6.016.436 8.994.206 2.395.676 4.933.627 7.337-.008.339.004.554.014.765-.892 5.027-.256 9.916 1.016 14.742.073.34.145.698.234 1.016-.038.259-.08.521-.12.786s-.076.53-.11.797c-.037 1.64.06 3.195.682 4.786.637 1.694 1.347 3.17 1.883 4.877.871 2.71 1.994 4.968 2.89 7.538.165.289.34.603.503.864.646 1.038 1.3 2.06 1.927 3.066.193.269.423.581.622.85l.599.809c.109.142.219.29.341.454.97 1.187 2.054 2.301 3.151 3.518-.196-1.54-.293-3.096-.142-4.715.064-.175.144-.289.229-.387.176-.196.385-.38.635-.544.108-.193.26-.408.382-.607.119-.2.238-.399.354-.599.629-1.075 1.398-2.197 1.979-3.347a84.26 84.26 0 0 1-1.118-3.54l2.93-1.037 14.011-36.704s7.391 13.417 15.129 26.396c1.163-.413 2.246-.797 3.221-1.14l.541-.192c1.915-1.707 4.222-2.238 6.631-2.171l.162.006a2.344 2.344 0 0 1-.18-.304c-.444-.948-.536-2.243.049-3.151.77-1.196-1.63 14.594-1.638 19.824.003.445.002.868.003 1.273.643.977 1.266 1.901 1.864 2.765 2.331 3.382 10.542 10.214 10.542 10.214-2.359-2.386-2.316-5.077-2.284-7.77.277.171.556.34.835.506.278.168.587.315.864.477 2.43 1.231 5.383.643 8.018.826-5.364-3.281-6.925-9.094-6.505-14.788.027-.356.109-.988.11-1.117.106-.596.218-1.194.345-1.793.063-.296.149-.672.214-.949.052-.313.109-.622.175-.927.065-.304.111-.621.188-.916.122-.483.303-.938.481-1.401.228-.187.445-.387.642-.599.086-.101.165-.205.244-.31-.26.323-.552.62-.879.89.143-.371.282-.748.385-1.15.091-.232.189-.465.29-.695a28.708 28.708 0 0 1 1.801-3.438c.142-.268.281-.535.42-.802 1.237-2.413 2.208-4.901 1.608-7.934.108-.371.213-.745.313-1.121 2.283-8.622 2.113-17.91-4.138-24.457z"/><path fill="#DF7F59" d="M503.32 311.943c.052-.101.101-.202.148-.303l-.158.289c.005.006.006.011.01.014zM503.478 312.139c.046-.195.101-.385.169-.569a4.342 4.342 0 0 0-.18.556c.004.004.009.008.011.013zM502.335 315.763a5.517 5.517 0 0 1-.088-.777c-.001.254.023.51.068.768l.02.009zM504.178 310.602c-.329.285-.527.658-.709 1.039.206-.38.417-.749.709-1.039z"/><path fill="#DF7F59" d="M503.646 311.569c.134-.337.311-.663.531-.968a3.54 3.54 0 0 0-.531.968zM502.501 313.48c.105-.294.241-.578.403-.845.002-.003.004-.009.01-.013-.003-.012-.002-.028-.006-.04a5.27 5.27 0 0 0-.404.777 4.026 4.026 0 0 0-.257 1.625 4.507 4.507 0 0 1 .254-1.504z"/><path fill="#F2C39C" d="M501.539 320.385c-.644-3.852-2.04-7.604-1.984-11.622.019-.248.045-.525.079-.781a14.142 14.142 0 0 1 1.745-5.166c-.003-.195-.01-.391.01-.648-.419-6.188-1.291-12.896-3.825-18.009-1.907-3.851-8.69-12.59-8.69-12.59l-22.948-.664-13.446 10.492-4.806 10.144c-.383 2.759-1.137 5-1.121 8.319.01 2.164.695 4.19 1.221 6.257-.006.743.021 1.492.651 2.356-.633 2.655-.584 5.388-.213 8.117.047.34.037.727.092 1.062.085 2.455 1.216 4.676 1.618 7.031.068.249.138.501.222.755 1.538 4.831 6.502 10.572 11.702 16.443 0 0 9.302 9.068 16.426 8.401 6.057-.567 8.975-4.19 12.023-7.886 3.747-4.535 6.687-8.079 8.7-13.101.124-.315.246-.637.396-1.062.331-.878.572-1.754.882-2.661.079-.228.213-.675.299-.895.454-1.433.528-2.815.967-4.292z"/><path d="M505.399 321.84l.017.01-.012-.007c-.003-.002-.002-.003-.005-.003zM444.677 326.339c2.051 3.558 3.264 7.543 5.146 11.185-1.781-3.663-3.095-7.628-5.146-11.185zM477.713 261.704h-.003z"/><path opacity=".11" d="M497.563 284.158c-1.907-3.851-8.69-12.59-8.69-12.59l-12.215-.353 1.859 79.039c5.888-.643 8.768-4.214 11.776-7.858 3.747-4.535 6.687-8.079 8.7-13.101.124-.315.246-.637.396-1.062.331-.878.572-1.754.882-2.661.079-.228.213-.675.299-.895.456-1.435.529-2.816.969-4.294-.644-3.852-2.04-7.604-1.984-11.622.019-.248.045-.525.079-.781a14.142 14.142 0 0 1 1.745-5.166c-.003-.195-.01-.391.01-.648-.419-6.187-1.291-12.895-3.826-18.008z"/><path fill="#431A13" d="M508.77 288.61c-1.61-6.709-5.522-13.334-10.993-17.539-6.841-5.258-15.175-10.969-23.155-11.339-4.511-.21-8.845.272-13.15 1.708-1.605.534-3.178 1.253-4.551 2.256-1.382 1.01-4.068 2.229-5.325 3.391-3.724 3.428-5.776 7.104-8.622 11.304-1.3 1.92-2.483 3.808-2.479 6.202-.003 2.841.561 5.746.987 8.548.244 1.634.514 3.264.773 4.895-.627 3.108-1.091 6.301-.492 9.446.001.003.511-.095.51-.101-.506-2.642-.254-5.308.208-7.934.133.847.264 1.692.386 2.539.037.239.097.5.146.766.022.247.05.493.083.737.002.057.002.113-.005.169-.222 2.635-.169 5.284.24 7.898.198 1.273.472 2.535.8 3.781.327 1.248.905 2.448 1.104 3.725.04.264.027.578-.006.881a7.71 7.71 0 0 0-.192.893 6.812 6.812 0 0 0-.079.886c.037 1.546.766 3.093 1.271 4.577-.099-1.566-.318-3.211.059-4.787.127-.313.29-.62.491-.924.114-.274.202-.541.289-.806.174-.532.345-1.063.601-1.565.51-.989 1.428-1.593 1.992-2.52.74-1.213 1.394-2.939 1.626-4.345.934-5.678 3.432-9.91 2.282-17.161-.546-3.437 1.11-7.08 6.414-8.956 6.118-2.162 11.276-5.069 15.736-9.129 9.522 1.383 17.74 2.884 24.536 11.685 0 0 .617 3.479 1.093 5.673.15.369.213.578.271.812.43 1.399.955 2.985.019 4.122-3.675 3.813-3.637 8.726-1.344 12.456-.364.019-.606.033-.605.037.061 1.397.248 2.731.768 4.073.498 1.282 1.464 2.4 2.344 3.57 1.754 2.345 2.244-2.36 1.711-3.576-.012-.026-.021-.051-.033-.076.541.309 1.115.576 1.714.799-.216-1.769.519-3.394 1.165-4.891.103-.192.198-.439.254-.673.164-.702.148-1.471.592-2.034.876-1.441 1.978-2.821 2.26-4.548.007-.222.017-.457.058-.798-.31-2.078-.78-4.151-.743-6.272.012-.299.002-.801-.009-1.25-.045-2.238-.502-4.525-1-6.605z"/></g><g><g fill="#A7B2D0"><path d="M580 245h120v120H580z"/><path d="M580 245h120v120H580z"/></g><g fill="#586B93"><path d="M580 365h120v15H580z"/><path d="M580 365h120v15H580z"/></g><path fill="#FFCDA4" d="M673.999 300.773c-.489-1.114-1.295-2.748-2.634-2.131-.475.219-1.169 1.102-1.866 2.148.012-1.762.07-8.852.267-13.36.161-3.71-.434-11.026-4.236-17.255-.076.047-.149.102-.231.143-1.178.588-2.692.209-3.498-.832-.067-.088-.155-.156-.226-.242v64.027l2.789-2.787c.507-3.175 1.116-7.095 1.632-10.44.185.217.478.528.732.697.413.271 1.91 1.13 2.704.524.797-.604 1.436-3.12 2.294-3.822.861-.699 1.436-4.521 1.403-6.625-.032-2.101.478-4.553.668-4.904.094-.174.264-1.163.352-2.256.09-1.107.096-2.322-.15-2.885zM622.908 261.723c-1.269.536-2.42 1.15-3.425 1.838-9.428 6.456-10.644 18.688-10.418 23.87.158 3.633.226 8.938.252 11.786-.252-.281-.486-.486-.683-.574-1.339-.617-2.145 1.017-2.634 2.131-.246.563-.24 1.777-.149 2.885.088 1.093.258 2.082.352 2.256.19.352.7 2.804.671 4.904-.035 2.104.539 5.926 1.4 6.625.858.702 1.497 3.219 2.294 3.822.797.605 2.291-.254 2.704-.524.258-.168.548-.48.732-.697 1.014 6.574 2.388 15.367 2.646 16.353.413 1.592 15.935 15.352 17.44 15.988.475.201 3.193.301 5.909.301V258.85c-6.184-.066-12.418.889-17.091 2.873z"/><path fill="#FFCDA4" d="M657.889 264.736c-.533-.317-1.072-.62-1.649-.856a27.127 27.127 0 0 0-5.877-1.677 70.265 70.265 0 0 0-10.362-.948v91.431c.744 0 1.485-.008 2.183-.022l19.392-19.392v-63.128c-2.085-.456-3.239-3.046-3.687-5.408z"/><path opacity=".11" d="M655.8 264.986c-.451-.413-.8-.926-1.107-1.476-4.263-.919-9-.433-13.477-.398-1.099.01-2.001-.497-2.716-1.325v90.898c.513 0 1.005-.01 1.5-.016v.016c.744 0 1.485-.008 2.183-.022l19.392-19.392v-63.057c-1.99-1.572-3.821-3.436-5.775-5.228z"/><path fill="#FFCDA4" d="M661.574 333.271l-19.392 19.392c1.852-.041 3.381-.134 3.727-.278 1.21-.512 11.464-9.492 15.665-13.831 1.028-1.061 1.693-1.846 1.775-2.157.126-.484.521-2.851 1.014-5.912l-2.789 2.786z"/><path fill="#CD8329" d="M616.132 333.561c.486 3.045.393 2.354.519 2.836.413 1.592 15.935 15.352 17.44 15.988.475.201 3.193.301 5.909.301v-.423l-23.868-18.702z"/><path fill="#CD8329" d="M661.574 333.271l-21.053 16.755.091-5.786h-2.944c-.211 2.539-.17 6.442.076 6.833.053.084.349.288.768.551l-1.283 1.023c.606-.014 1.717-.031 2.944-.054.029.018.062.036.094.054l.1-.058c2.467-.046 5.317-.11 5.543-.205 1.21-.512 11.464-9.492 15.665-13.831a23.044 23.044 0 0 0 1.313-1.45l-1.314-3.832z"/><path opacity=".22" d="M671.365 298.643c-.475.218-1.169 1.102-1.866 2.148.012-1.762.07-8.852.267-13.36.144-3.313-.322-9.495-3.126-15.214-1.688-.1-3.378-.23-5.065-.399v61.454l-19.392 19.392c1.852-.041 3.381-.134 3.727-.278 1.21-.512 11.464-9.492 15.665-13.831 1.028-1.061 1.693-1.846 1.775-2.157.126-.484.521-2.851 1.014-5.912.507-3.175 1.116-7.095 1.632-10.44.185.217.478.529.732.697.413.271 1.91 1.13 2.704.524.797-.604 1.436-3.12 2.294-3.822.861-.699 1.436-4.521 1.403-6.625-.032-2.101.478-4.553.668-4.904.094-.174.264-1.163.352-2.256.091-1.107.097-2.322-.149-2.885-.49-1.116-1.296-2.75-2.635-2.132z"/><path fill="#CD8329" d="M607.551 302.188s-.073-.175-.332-2.473c-.389-3.448-1.019-2.376-1.238-5.943-.222-3.576-.937-6.736-.992-9.005-.05-2.292-.544-5.312.72-7.174 1.273-1.853 2.376-5.426 5.704-5.971 0 0-1.389-9.086 12.508-11.479 0 0 11.079-9.478 22.635-2.65 0 0 7.133.183 13.112 7.706 0 0 7.139-.66 10.562 9.819 0 0 1.808 7.746.542 10.021 0 0 2.555 5.111.696 5.758 0 0 1.857 3.634-.469 3.353 0 0 1.984 4.674-.617 5.768 0 0-.782 3.209-2.731 4.272 0 0-1.467 2.908-1.915 3.999-.46 1.091-1.254 2.203-2.326 3.503-1.07 1.305-1.95 2.811-2.895 3.891-.502.571-1.091 1-1.808 1.202-.527.149 1.614-8.505 1.772-9.307.759-3.823.231-7.683-.111-11.498-.447-4.926-.862-9.931-1.823-14.771-.324-1.628-.412-2.258-1.812-3.065-.209-.12-3.426-1.323-3.164-1.425 0 0-2.944 1.121-4.337-1.501 0 0-2.895 1.128-4.476-.895-.091-.099-.156-.224-.226-.33-1.506-2.481-4.093.645-5.375-1.702 0 0-2.21-1.341-2.876-.048 0 0 .362 2.008-3.593.238 0 0-4.224-2.065-6.325-1.031 0 0-6.987 5.47-9.549 5.901 0 0-4.731 1.458-3.758 1.971 0 0 1.63.488.922 1.611 0 0-.568.814.073 1.778.635.96.354 2.844-.272 3.971-.637 1.152-1.211 1.544-1.727 2.949-.514 1.422-1.063.817-1.593 3.979-.522 3.179.046 3.629-.924 4.783-.957 1.16-1.586 4.171-1.502 4.396.199.492-.926.819-.48-.601zM661.574 333.271l-21.053 16.755.091-5.786h-2.944c-.211 2.539-.17 6.442.076 6.833.053.084.349.288.768.551l-1.283 1.023c.606-.014 1.717-.031 2.944-.054.029.018.062.036.094.054l.1-.058c2.467-.046 5.317-.11 5.543-.205 1.21-.512 11.464-9.492 15.665-13.831a23.044 23.044 0 0 0 1.313-1.45l-1.314-3.832z"/><path opacity=".22" d="M661.574 333.271l-21.053 16.755.091-5.786h-2.944c-.211 2.539-.17 6.442.076 6.833.053.084.349.288.768.551l-1.283 1.023c.606-.014 1.717-.031 2.944-.054.029.018.062.036.094.054l.1-.058c2.467-.046 5.317-.11 5.543-.205 1.21-.512 11.464-9.492 15.665-13.831a23.044 23.044 0 0 0 1.313-1.45l-1.314-3.832z"/></g></g></svg>