<?xml version="1.0" encoding="utf-8"?>
<!-- Generator: Adobe Illustrator 14.0.0, SVG Export Plug-In . SVG Version: 6.00 Build 43363)  -->
<!DOCTYPE svg PUBLIC "-//W3C//DTD SVG 1.1//EN" "http://www.w3.org/Graphics/SVG/1.1/DTD/svg11.dtd">
<svg version="1.1" id="Layer_1" xmlns="http://www.w3.org/2000/svg" xmlns:xlink="http://www.w3.org/1999/xlink" x="0px" y="0px"
	 width="512px" height="512px" viewBox="0 0 512 512" enable-background="new 0 0 512 512" xml:space="preserve">
<g>
	<g>
		<path id="path4018_2_" fill="#34495E" d="M184.479,307.396c2.323-4.468,2.323-13.401,7.327-18.763l-1.43-1.787
			c12.509-31.807,31.807-63.435,51.285-95.063l3.395-7.505c0,0,0.893-8.041,2.859-10.9c1.965-2.858,8.934-6.611,8.934-6.611
			s1.787-7.684,3.574-10.542c1.786-2.859,8.041-7.863,8.041-7.863c5.54-2.68,6.611-6.611,7.861-10.542l4.469-5.54l-0.536,3.395
			l3.931,1.608l2.859,2.323l2.681-2.145l-2.502,6.611c-2.859,3.038-5.719,5.897-5.361,11.972c0,0-1.251,7.684-2.859,10.722
			c-1.607,3.037-7.504,8.398-7.504,8.398s0.178,7.684-1.43,10.9c-1.608,3.038-8.042,8.042-8.042,8.042l-4.822,6.611
			c-17.87,32.521-35.918,64.864-57.54,91.668l-2.324-0.178C195.2,298.818,187.337,303.285,184.479,307.396z"/>
		<path id="path4064_2_" fill="#34495E" d="M287.584,142.106c2.144,1.25,2.679,4.467,1.07,7.147
			c-1.607,2.681-4.645,3.931-6.79,2.681c-0.179,0-0.179-0.179-0.179-0.179c1.252-1.251,1.43-3.217,2.146-5.182
			c0.714-1.787,2.143-3.217,1.965-4.825C286.332,141.57,287.047,141.749,287.584,142.106z"/>
		<path id="path4077_2_" fill="#34495E" d="M277.577,136.567c-2.145-1.251-5.362,0-6.792,2.68c-1.607,2.681-1.07,5.896,1.251,7.148
			c0.179,0,0.179,0,0.358,0.179c0.356-1.608,2.144-2.858,3.574-4.467c1.25-1.608,1.787-3.395,3.215-4.11
			C278.648,137.282,278.113,136.924,277.577,136.567z"/>
		<path id="path3815_12_" fill="#34495E" d="M355.486,183.919c25.73,12.509,49.854,28.055,71.119,47.711
			c13.938,13.938,32.521,39.49,28.946,54.679c-5.717,23.767-40.026,20.014-57.896,17.513c-11.614-1.609-22.337-5.184-33.772-3.396
			c-16.083,2.502-36.989,8.221-52.535,2.323c0.894,5.54-1.607,11.257-5.181,15.726c-3.575,4.467-8.399,7.504-13.225,10.721
			c-16.261,10.9-29.306,23.588-50.032,17.333c-9.828-2.858-17.871-9.292-27.163-12.687c-7.862-2.859-19.477-5.004-24.48-12.508
			c-4.289-6.434,0.358-21.086,3.752-27.162c25.375-46.102,50.569-92.205,75.944-138.128c12.688,1.251,24.838,4.646,36.811,8.398
			C324.036,169.981,339.938,176.415,355.486,183.919z"/>
		<path id="path3815_6_" fill="#34495E" d="M248.627,129.598c9.114,8.577,17.87,17.512,25.375,28.054
			c-27.876,44.672-55.573,89.167-83.449,133.839c-3.752,5.897-14.295,16.976-21.8,16.44c-8.935-0.715-16.618-9.828-22.872-15.189
			c-7.505-6.611-17.154-10.363-24.48-17.511c-15.546-15.011-10.722-32.701-9.292-52.178c0.357-5.718,0.894-11.436,2.859-16.797
			c1.965-5.36,5.896-10.185,11.079-12.15c-12.866-10.722-18.048-31.807-23.766-46.996c-4.11-10.901-12.33-18.584-19.477-27.876
			c-10.9-14.295-30.914-42.528-13.045-59.146c11.437-10.543,43.064-6.791,61.827-1.43c27.519,8.935,52.893,22.515,76.301,38.776
			C222.54,107.262,235.941,118.161,248.627,129.598z"/>
		<g>
			<path fill="#F49765" d="M432.68,274.158c0,6.434,4.11,14.475-1.072,20.371c-6.79-10.363-12.149-25.195-16.438-42.35
				C426.605,253.252,429.464,264.33,432.68,274.158z"/>
			<path fill="#F49765" d="M406.412,252.716c11.616,12.865,13.759,29.305,13.58,46.459c-0.178,0-0.534,0-0.714,0.178
				c-7.148-14.295-14.475-27.518-16.618-45.923C404.089,253.252,405.161,252.895,406.412,252.716L406.412,252.716z"/>
			<path fill="#F49765" d="M370.853,214.476c4.11,4.825,5.003,16.797,4.824,20.55c-0.357,0.357-0.714,0.893-1.071,1.25l-20.192-6.79
				l-22.694-15.904c-12.687-16.082-28.947-30.735-46.459-45.03c0-0.357,0.18-0.715,0.18-1.072
				c9.826,4.825,21.799,5.182,31.27,10.721C336.366,185.707,354.771,194.999,370.853,214.476z"/>
			<path fill="#F49765" d="M289.191,176.772c14.652,12.33,28.054,24.838,38.954,38.418l0,0c-1.43,27.876,10.543,63.971,7.684,73.799
				c-1.25,0.536-0.894,0.715-2.145,1.607c-5.181,4.646-11.436,6.791-16.618,5.361c-1.786-1.43-3.216-3.217-4.467-6.254
				c-1.965-21.443-7.862-44.852-18.405-70.405C293.301,205.006,294.194,189.995,289.191,176.772z"/>
			<path fill="#F49765" d="M283.831,173.734c5.718,10.9,6.075,23.587,6.432,36.811c-8.22-20.013-7.683-25.196-8.398-32.521
				C282.58,176.594,283.294,175.164,283.831,173.734z"/>
			<path fill="#F49765" d="M374.069,240.029c1.607,4.11,8.935,7.147,7.863,12.866c1.965,8.219,3.037,18.404-3.575,26.089
				c-2.322,3.396,0,14.474-3.395,7.147c-0.715-5.539-2.145-9.828-6.254-9.291c-8.041-12.688-9.292-28.949-13.938-43.244
				L374.069,240.029z"/>
			<path fill="#F49765" d="M331.362,218.05l20.014,14.116l-0.715,0.357c3.752,15.725,11.078,32.701,11.078,47.175
				c-1.25,0.893-1.071,1.07-2.322,3.037c-6.076,6.79-10.9,3.752-17.155,4.467C340.297,288.811,330.646,243.959,331.362,218.05z"/>
			<path fill="#F49765" d="M275.074,191.961c1.608,0.893,2.682,2.322,3.931,4.825c0.358,8.398-0.179,13.938,1.073,25.91
				c2.145,6.254,3.574,10.006,5.003,13.938l-3.217,9.649c-2.144,1.072-4.287,3.038-5.718,5.896
				c-1.608,3.038-2.68,7.326-3.217,12.508c-5.003,5.719-9.648,11.615-13.4,18.049c-0.716-1.609-1.431-2.859-2.145-3.753
				c-0.716-0.894-1.609-1.251-2.323-1.608c3.216-26.446,1.251-23.587,1.251-31.092c7.504-17.512,11.972-36.631,16.617-55.394
				C273.646,191.247,274.538,191.604,275.074,191.961z"/>
			<path fill="#F49765" d="M270.429,190.532c-4.646,19.12-9.112,38.061-16.44,55.215l-0.179-0.179
				c-13.043,20.013-26.982,38.775-43.601,54.857c-0.536-1.965-1.965-3.037-5.539-2.144c-2.502,0.536-4.29,0-5.541-1.072
				c25.911-32.522,47.175-69.333,69.154-105.428C268.999,191.425,269.715,190.889,270.429,190.532z"/>
			<path fill="#F49765" d="M286.332,240.565c2.68,8.042,5.54,18.941,12.688,49.855c-2.323,0.894-4.289,2.681-6.076,4.824
				c-2.681-16.439-4.646-34.845-8.934-47.889v-0.179L286.332,240.565z"/>
			<path fill="#F49765" d="M281.686,249.5c4.288,13.401,6.256,32.701,9.292,49.854c-0.179,0.357-0.179,0.716-0.357,0.895
				c-1.25,7.862-6.789,10.363-12.687,11.615c-1.072,1.607-0.536,1.071-1.609,2.857c-3.036-3.93-0.713-27.16-0.713-49.14l0,0
				l0.179-0.536c0.714-5.359,1.787-9.291,3.036-11.972C279.543,251.287,280.613,250.214,281.686,249.5z"/>
			<path fill="#F49765" d="M253.81,249.857c0.357,4.289,1.251,6.075-1.429,27.875l-0.357-0.179
				c-7.684,13.581-17.87,25.731-27.876,38.239c-2.681-1.429-5.539-2.5-8.755-3.037c-4.468-0.715-4.289-5.183-4.646-9.113
				C227.185,287.918,240.944,269.334,253.81,249.857z"/>
			<path fill="#F49765" d="M272.751,268.799c-0.536,17.332-0.536,35.023-1.428,52.713c-3.396,4.467-7.147,8.398-12.152,8.398
				c-3.395-0.536-3.751-1.607-6.969-2.681c-2.501-4.646,9.114-29.306,8.041-40.563l0.179-0.357
				C263.638,280.056,267.927,274.338,272.751,268.799z"/>
			<path fill="#F49765" d="M254.346,280.592c0.357,0.178,0.537,0.357,0.894,0.715c0.715,0.894,1.607,2.322,2.501,5.182l-0.356,0.179
				c1.429,9.828-5.004,25.017-10.543,39.849c-3.574-1.252-7.327-2.502-11.079-3.396c-3.216-1.965-5.003-3.573-8.042-5.359
				c1.252-5.183,18.048-24.481,25.911-37.704C253.81,280.234,253.989,280.412,254.346,280.592z"/>
			<path fill="#F49765" d="M390.151,249.678c0.179,0.179,0.536,0.357,0.715,0.715c0.179,0.179,0.358,0.179,0.536,0.357
				c7.325,15.724,12.508,31.628,11.079,47.532c-0.358-0.179-0.715-0.358-1.43-0.714c-2.68-7.863-9.471-16.262-9.827-25.196
				c-0.895-6.433-2.145-12.687-2.86-19.299C387.293,250.572,388.364,248.606,390.151,249.678z"/>
			<path id="path3345_2_" fill="#F49765" d="M411.058,258.613c-1.249-3.753-1.428-8.399-4.288-10.9
				c-1.429-2.502-4.468-0.894-6.433,0.894c-2.323,2.322-0.535,5.36-0.178,7.862c0.714,1.965,1.786,5.896,4.288,2.858
				c1.072,0.716,2.322,1.966,3.573,0C409.271,257.541,409.809,259.863,411.058,258.613z M400.337,268.441
				c3.395,1.607,3.752,6.074,4.11,9.826c-0.358,1.967,0.535,6.076-1.787,6.791c-1.966-1.25-4.468-0.357-6.076-2.502
				c-0.357,2.145-2.502,3.038-3.037,0.895c-1.608-2.145-3.217-5.184-1.966-8.398c0.536-2.859,3.037-4.11,5.182-3.395
				C398.192,270.942,398.728,268.799,400.337,268.441z M384.97,236.455c1.608,2.859,3.932,5.36,3.932,9.113
				c0.713,1.787,0.179,5.718-2.323,4.11c-2.502-1.787-2.859-5.361-4.289-8.042c-1.787-1.251-1.608-6.075,1.43-5.896
				C384.254,235.918,384.611,236.098,384.97,236.455z M385.147,224.661c2.859,0.358,5.183,1.966,6.791,4.289
				c1.965,0.894,1.072,4.646-1.43,4.825c-1.966,3.216-4.646,0-5.361-1.966c-0.894-1.965-1.607-4.467-0.536-6.79l0.18-0.179
				L385.147,224.661L385.147,224.661z"/>
			<path fill="#F49765" d="M131.586,98.863c-0.179-0.179-0.536-0.179-0.893-0.357c-0.179-0.179-0.358-0.179-0.536-0.357
				c-17.691,1.072-34.309,4.11-48.068,13.044c0.357,0.179,0.715,0.536,1.429,0.894c8.398-1.429,19.12,0.536,27.339-3.573
				c6.254-2.323,12.509-4.289,18.763-6.612C132.122,101.722,133.373,99.756,131.586,98.863z"/>
			<path fill="#F49765" d="M172.506,98.685c-6.254-1.251-17.512,3.574-20.729,5.539c-0.179,0.536-0.357,1.073-0.714,1.43
				l15.725,14.117l25.195,11.972c20.549,3.216,41.457,10.364,62.542,18.583c0.357-0.179,0.536-0.357,0.894-0.715
				c-9.114-6.075-14.833-16.261-24.481-21.8C214.498,114.767,197.523,103.331,172.506,98.685z"/>
			<path fill="#F49765" d="M245.055,151.041c-18.048-6.79-35.738-12.329-53.071-15.188l0,0
				c-24.481,14.474-62.542,21.264-70.047,28.412c0.179,1.25-0.179,1.072-0.536,2.68c-1.787,6.611-0.715,13.044,3.038,16.975
				c2.145,0.715,4.467,1.251,7.684,0.894c20.192-8.756,44.137-14.653,72.013-17.69C217.715,160.869,230.76,153.007,245.055,151.041z
				"/>
			<path fill="#F49765" d="M147.847,108.155c-4.289,0.536-10.722-4.11-15.368-0.715c-8.398,2.144-18.047,6.075-21.8,15.367
				c-1.966,3.574-13.045,6.791-4.825,6.254c5.361-1.965,10.006-2.858,11.436,1.072c15.368,0.894,30.377-5.718,45.566-8.577
				L147.847,108.155z"/>
			<path fill="#F49765" d="M187.873,134.423l-22.157-10.543v0.894c-15.904,4.288-34.667,5.897-47.89,12.866
				c-0.178,1.608-0.536,1.429-1.787,3.395c-3.217,8.398,1.787,11.079,4.109,16.976C119.792,160.154,164.822,147.288,187.873,134.423
				z"/>
			<path fill="#F49765" d="M238.086,170.519c-1.608-0.894-3.395-1.251-6.255-1.072c-7.862,3.752-12.508,6.79-23.765,11.257
				c-6.611,1.071-10.722,1.608-15.009,2.323l-7.148,7.326c0,2.502-0.715,5.004-2.68,7.684c-2.144,2.859-5.36,5.718-9.649,8.755
				c-2.681,6.97-5.897,13.76-10.006,20.193c1.787-0.179,3.216-0.179,4.288,0c1.251,0.179,1.787,0.714,2.502,1.25
				c22.336-15.367,20.728-12.33,27.339-15.725c12.151-14.831,27.339-27.697,42.171-40.563
				C239.337,171.412,238.622,170.876,238.086,170.519z"/>
			<path fill="#F49765" d="M241.481,173.734c-15.01,13.044-30.02,25.91-41.993,40.385l0.179,0.179
				c-11.794,20.728-22.158,41.634-28.948,63.435c2.144-0.357,3.751,0.18,4.646,3.753c0.714,2.323,1.966,3.573,3.574,4.288
				c16.976-37.704,40.205-73.442,62.363-109.358C241.481,175.521,241.481,174.627,241.481,173.734z"/>
			<path fill="#F49765" d="M188.767,183.741c-8.578,1.608-19.656,4.288-50.927,12.688c0.178,2.501-0.358,5.003-1.608,7.504
				c16.082-5.539,33.594-12.508,47.353-15.01l0.178-0.179L188.767,183.741z"/>
			<path fill="#F49765" d="M183.048,191.961c-14.116,2.68-32.521,10.185-49.318,15.724c-0.179,0.179-0.537,0.536-0.715,0.715
				c-6.433,4.824-6.076,10.722-4.468,16.44c-0.893,1.607-0.714,0.893-1.787,2.859c5.003,0.715,24.838-12.151,44.673-22.693l0,0
				l0.536-0.358c4.467-3.038,7.505-5.897,9.292-8.219C182.513,194.82,182.87,193.391,183.048,191.961z"/>
			<path fill="#F49765" d="M195.736,216.084c-3.931,1.608-5.897,1.787-24.302,14.474l0.357,0.179
				c-8.577,13.044-14.831,27.519-21.264,42.171c2.501,1.607,5.003,3.574,6.969,6.075c2.681,3.573,6.791,1.251,10.364-0.357
				C174.293,257.184,184.299,236.455,195.736,216.084z"/>
			<path fill="#F49765" d="M171.791,210.009c-15.367,8.756-31.271,16.976-46.817,26.267c-2.501,5.004-4.11,10.186-1.787,14.475
				c2.144,2.68,3.216,2.501,5.718,4.825c5.361,0,22.158-21.8,32.879-26.089l0.179-0.358
				C166.074,223.232,169.111,216.799,171.791,210.009z"/>
			<path fill="#F49765" d="M170.004,231.451c-0.358-0.178-0.714-0.357-1.072-0.357c-1.072-0.178-2.858-0.178-5.896,0.357v0.358
				c-9.471,3.396-20.192,16.261-30.914,28.054c2.859,2.502,5.718,5.004,8.219,8.041c3.217,1.787,5.54,2.681,8.756,4.468
				c4.11-3.573,13.402-27.162,21.622-40.027C170.541,231.809,170.362,231.631,170.004,231.451z"/>
			<path fill="#F49765" d="M117.291,78.313c-17.512,4.468-33.415,6.969-45.923,6.075c6.969-17.511,16.261-9.828,17.869-10.542
				C99.6,71.881,111.036,69.2,117.291,78.313z"/>
			<path fill="#F49765" d="M121.043,86.176c-16.976-3.931-32.879,2.145-48.425,10.364c0,0.179,0.179,0.536,0.179,0.715
				c16.261-0.715,31.628-0.536,49.318-7.505C121.758,88.499,121.401,87.249,121.043,86.176L121.043,86.176z"/>
			<path fill="#F49765" d="M89.058,114.052"/>
			<path fill="#F49765" d="M250.415,154.257c-12.508,0.178-24.124,5.897-36.273,11.794c21.799-2.324,26.445-5.361,33.415-8.22
				C248.271,156.58,249.343,155.33,250.415,154.257z"/>
			<path id="path3965_2_" fill="#F49765" d="M113.538,84.926c3.932-0.537,8.22-2.681,11.793-1.43c3.038,0,2.859,3.396,2.323,5.897
				c-1.072,3.038-4.646,3.038-6.969,3.931c-2.144,0.357-6.254,1.251-4.467-2.322c-1.073-0.715-2.859-1.072-1.608-3.216
				C115.325,85.998,113.002,86.712,113.538,84.926z M109.786,98.863c-3.038-2.145-7.326-0.357-10.9,1.251
				c-1.608,1.25-5.719,2.501-5.182,4.824c2.144,1.072,2.502,3.574,5.182,3.931c-1.787,1.251-1.608,3.574,0.536,3.038
				c2.681,0.358,6.076,0.358,8.577-2.144c2.323-1.787,2.323-4.646,0.536-6.075C108.535,101.901,110.143,100.471,109.786,98.863z
				 M145.703,96.897c-3.396,0-6.79-0.893-10.186,0.893c-1.787,0.179-5.36,2.502-2.68,3.932c2.68,1.43,6.254,0,9.292,0
				c1.965,1.072,6.254-1.429,4.646-3.932C146.596,97.434,146.239,97.076,145.703,96.897z M156.424,91.358
				c-1.608-2.323-4.289-3.573-7.147-3.752c-1.787-1.251-4.825,1.251-3.752,3.574c-1.965,3.217,2.323,3.931,4.289,3.753
				c2.145,0,4.825-0.715,6.433-2.681l0.179-0.356V91.358L156.424,91.358z"/>
		</g>
	</g>
	<g>
		<g>
			<path fill="#006280" d="M184.121,353.676c-16.619,20.014-43.243,30.199-64.686,17.512l-28.77,71.655
				c-6.075,13.044-10.364,16.262-20.192,15.724c-3.931-0.356-8.398-2.144-12.687-1.428c7.504-7.327,58.968-105.607,64.507-133.125
				c-3.395,5.182-9.113,6.969-6.969,2.68c1.43-3.037,4.467-10.006,6.076-13.58c5.717-13.402,9.113-36.273,1.787-37.882
				c0,0,12.33-2.145,14.831-2.503c8.756-0.893,11.436-2.501,10.901,12.33c-0.358,10.007-4.468,26.089-8.399,36.275
				c9.113-14.832,33.594-56.646,54.144-50.928C223.254,278.626,206.278,327.052,184.121,353.676z M162.5,297.924
				c-11.436,15.727-26.268,41.992-40.563,68.617c14.832,14.832,48.068-18.762,64.508-48.781
				C206.278,280.77,188.052,262.008,162.5,297.924z"/>
			<path fill="#006280" d="M271.679,377.799c-10.542,0-25.194-7.326-16.082-35.381c2.501-7.861,8.219-18.227,16.618-31.807
				c7.328-11.793,1.788-20.014-21.442,1.787c-10.364,9.292-25.195,26.268-42.35,59.861c-2.145,4.289-4.825,4.468-11.257,4.468
				c-4.467,0.356-7.327,0-10.364,1.786c24.48-50.926,53.785-112.574,83.27-166.718c6.969-12.688,11.793-19.656,21.443-19.12
				c3.931,0.357,8.397,1.787,12.687,1.251c-13.402,13.58-52.713,87.737-77.551,138.306c8.219-10.363,16.261-19.655,24.48-26.624
				c14.474-13.044,45.745-32.165,55.929-28.412c0,0-32.343,56.824-36.274,78.088c-2.501,12.329,0.538,15.725,4.469,16.082
				c13.938,0.894,34.487-40.205,40.92-53.249c2.681-5.361,7.325-3.396,4.289,3.037C310.813,342.24,294.194,377.799,271.679,377.799z
				"/>
			<path fill="#006280" d="M391.938,268.262h-17.513c-10.363,17.512-22.336,33.594-40.204,49.855
				c-2.682,7.861-6.97,30.912-6.97,30.912c-4.467,20.192,9.293,23.053,19.3,15.725c13.938-10.363,23.943-29.305,32.163-45.744
				c2.502-5.359,6.969-4.289,3.931,1.787c-13.4,27.876-18.404,36.096-29.662,47.174c-16.26,15.726-46.28,10.543-41.813-22.693
				c2.681-20.549,13.938-53.607,23.588-77.193h-15.726c-3.396,0-2.681-6.611,0.536-6.611h18.226
				c6.97-15.189,14.476-30.021,22.159-42.887c20.906-36.632,53.607-31.45,31.092,16.976c-4.289,9.113-8.399,17.512-13.045,26.089
				h14.474C395.513,261.65,394.976,268.262,391.938,268.262z M353.162,268.262c-6.432,14.832-12.15,29.662-16.26,40.205
				c11.437-11.793,21.799-25.73,30.555-40.205H353.162z M377.644,217.514c-7.327,10.364-13.938,26.982-21.444,44.137h15.189
				c5.719-10.364,10.9-20.907,15.189-30.914C392.117,218.05,396.405,191.067,377.644,217.514z"/>
		</g>
		<g>
			<path fill="#00C4FF" d="M182.334,351.89c-16.618,20.013-43.243,30.198-64.686,17.511l-28.77,71.655
				c-6.075,13.044-10.364,16.263-20.192,15.725c-3.931-0.357-8.399-2.144-12.687-1.43c7.505-7.326,58.968-105.605,64.507-133.124
				c-3.396,5.182-9.113,6.969-6.969,2.681c1.43-3.038,4.467-10.007,6.076-13.581c5.718-13.402,9.113-36.273,1.787-37.883
				c0,0,12.33-2.145,14.831-2.501c8.755-0.894,11.436-2.501,10.9,12.329c-0.357,10.007-4.467,26.09-8.398,36.274
				c9.113-14.831,33.593-56.646,54.143-50.927C221.467,276.84,204.492,325.264,182.334,351.89z M160.534,296.138
				c-11.436,15.726-26.267,41.992-40.563,68.616c14.832,14.832,48.068-18.762,64.508-48.781
				C204.492,278.983,186.265,260.221,160.534,296.138z"/>
			<path fill="#00C4FF" d="M269.893,376.012c-10.543,0-25.195-7.326-16.083-35.381c2.502-7.861,8.219-18.225,16.619-31.807
				c7.327-11.793,1.786-20.014-21.442,1.787c-10.365,9.293-25.195,26.268-42.35,59.861c-2.145,4.289-4.825,4.467-11.257,4.467
				c-4.467,0.359-7.327,0-10.365,1.788c24.481-50.927,53.786-112.575,83.27-166.719c6.97-12.688,11.794-19.656,21.443-19.12
				c3.932,0.357,8.398,1.787,12.687,1.25c-13.402,13.581-52.713,87.737-77.551,138.307c8.221-10.364,16.26-19.655,24.48-26.624
				c14.474-13.045,45.744-32.164,55.931-28.413c0,0-32.344,56.823-36.274,78.088c-2.502,12.329,0.536,15.725,4.468,16.083
				c13.938,0.893,34.487-40.206,40.92-53.25c2.68-5.361,7.325-3.396,4.289,3.037C309.026,340.275,292.229,376.012,269.893,376.012z"
				/>
			<path fill="#00C4FF" d="M389.973,266.475h-17.511c-10.365,17.512-22.337,33.595-40.205,49.855
				c-2.682,7.861-6.971,30.914-6.971,30.914c-4.467,20.191,9.293,23.051,19.299,15.724c13.938-10.364,23.944-29.306,32.165-45.745
				c2.502-5.359,6.969-4.288,3.931,1.787c-13.402,27.876-18.405,36.096-29.661,47.175c-16.262,15.724-46.282,10.543-41.815-22.694
				c2.681-20.549,13.938-53.607,23.588-77.193h-15.726c-3.395,0-2.68-6.611,0.536-6.611h18.227
				c6.97-15.189,14.475-30.021,22.158-42.886c20.907-36.632,53.607-31.45,31.093,16.976c-4.289,9.113-8.399,17.512-13.045,26.088
				h14.474C393.725,259.863,393.011,266.475,389.973,266.475z M351.376,266.475c-6.435,14.832-12.151,29.663-16.263,40.205
				c11.438-11.793,21.802-25.73,30.557-40.205H351.376z M375.855,215.727c-7.326,10.365-13.938,26.982-21.442,44.137h15.189
				c5.717-10.364,10.899-20.907,15.188-30.913C390.33,216.263,394.618,189.281,375.855,215.727z"/>
		</g>
	</g>
	<path id="path4533_2_" opacity="0.94" fill="#1F3038" enable-background="new    " d="M267.927,86.533
		c1.072,0.179,1.788,0.894,2.323,1.788c1.251,1.787,1.607,4.467,1.607,6.611l0,0c0.179,5.897,1.788,11.079,3.754,16.26
		c3.215,8.578,8.22,17.333,6.611,28.413v0.714l0,0v0.715l-1.252,0.178v-0.714l0,0v-0.715l0,0c1.609-10.543-3.037-19.12-6.433-27.876
		l0,0c-1.966-5.182-3.394-10.721-3.753-16.797l0,0l0,0c0-1.787-0.535-4.467-1.429-5.896c-0.894,1.251-3.216-0.179-4.468,0.357
		c-1.251,0.357-0.893-1.072-0.535-1.787C265.604,86.712,266.854,86.354,267.927,86.533z M349.23,129.062
		c2.146,0.894,3.753,2.681,4.289,5.54c-0.179,1.25-1.787,1.607-2.322,0.893c-1.072-1.072-2.681-1.787-2.502-5.182
		c-1.787-0.894-4.11-0.894-6.434-0.179l0,0l0,0c-18.94,3.753-32.164,2.681-51.642,8.041l0,0c-2.322,0.715-4.468,1.966-6.433,3.574
		l-0.535-1.072c2.144-1.787,4.646-3.038,6.968-3.931l0,0c19.657-5.54,32.879-4.288,51.642-8.042l0,0
		C344.585,128.168,347.266,128.168,349.23,129.062z"/>
</g>
</svg>
