<?xml version="1.0" encoding="utf-8"?>
<!-- Generator: Adobe Illustrator 14.0.0, SVG Export Plug-In . SVG Version: 6.00 Build 43363)  -->
<!DOCTYPE svg PUBLIC "-//W3C//DTD SVG 1.1//EN" "http://www.w3.org/Graphics/SVG/1.1/DTD/svg11.dtd">
<svg version="1.1" id="Layer_1" xmlns="http://www.w3.org/2000/svg" xmlns:xlink="http://www.w3.org/1999/xlink" x="0px" y="0px"
	 width="512px" height="512px" viewBox="0 0 512 512" enable-background="new 0 0 512 512" xml:space="preserve">
<g>
	<g>
		<path id="path4018_10_" fill="#34495E" d="M179.722,364.375c2.353-4.538,2.353-13.782,7.396-19.161l-1.345-1.849
			c12.774-32.438,32.438-64.54,52.271-96.81l3.362-7.732c0,0,1.008-8.235,2.857-11.093c2.017-2.857,9.075-6.723,9.075-6.723
			s1.682-7.732,3.531-10.757c1.848-2.857,8.066-8.067,8.066-8.067c5.547-2.689,6.723-6.723,7.9-10.757l4.537-5.546l-0.504,3.362
			l4.035,1.681l3.024,2.353l2.689-2.184l-2.522,6.723c-2.855,3.025-5.881,6.051-5.378,12.102c0,0-1.177,7.898-2.856,10.924
			s-7.563,8.404-7.563,8.404s0.167,7.899-1.346,11.093c-1.512,3.193-8.235,8.067-8.235,8.067l-5.042,6.723
			c-18.152,33.11-36.471,66.053-58.49,93.281l-2.353-0.168C190.646,355.635,182.579,360.173,179.722,364.375z"/>
		<path id="path4064_10_" fill="#34495E" d="M284.6,196.133c2.186,1.178,2.689,4.538,1.178,7.228
			c-1.514,2.688-4.707,3.866-6.892,2.688c-0.168,0-0.168-0.167-0.336-0.167c1.345-1.176,1.345-3.362,2.185-5.378
			c0.673-1.849,2.186-3.362,2.018-4.875C283.424,195.628,283.928,195.796,284.6,196.133z"/>
		<path id="path4077_10_" fill="#34495E" d="M274.516,190.418c-2.186-1.177-5.379,0-6.892,2.689s-1.009,5.883,1.177,7.227
			c0.168,0,0.168,0,0.338,0.168c0.336-1.68,2.184-2.857,3.528-4.538c1.345-1.513,1.849-3.529,3.194-4.202
			C275.523,191.259,275.02,190.754,274.516,190.418z"/>
		<path id="path3815_20_" fill="#34495E" d="M353.678,238.823c26.221,12.774,50.759,28.573,72.44,48.573
			c14.118,14.118,33.11,40.17,29.413,55.633c-5.714,24.035-40.674,20.336-58.994,17.816c-11.765-1.681-22.689-5.211-34.455-3.362
			c-16.303,2.521-37.648,8.404-53.447,2.353c0.84,5.716-1.682,11.597-5.379,15.968c-3.697,4.37-8.57,7.73-13.445,10.925
			c-16.472,11.093-29.749,24.035-50.927,17.647c-9.917-3.026-18.152-9.581-27.732-12.942c-7.9-2.857-19.833-5.042-24.875-12.605
			c-4.37-6.556,0.336-21.346,3.697-27.564c25.715-46.893,51.598-93.785,77.314-140.678c12.942,1.345,25.38,4.707,37.48,8.572
			C321.744,224.537,337.879,231.092,353.678,238.823z"/>
		<path id="path3815_19_" fill="#34495E" d="M245.103,183.359c9.245,8.74,18.153,17.815,25.716,28.572
			c-28.237,45.38-56.641,90.761-84.878,136.14c-3.697,6.052-14.455,17.313-22.186,16.809c-9.076-0.673-16.808-10.085-23.195-15.464
			c-7.73-6.723-17.313-10.589-24.875-17.815c-15.798-15.295-10.924-33.278-9.413-52.943c0.504-5.715,1.009-11.597,3.026-16.976
			s5.883-10.421,11.261-12.438c-13.109-10.925-18.487-32.27-24.203-47.901c-4.034-11.093-12.605-18.824-19.832-28.404
			c-11.093-14.623-31.43-43.363-13.279-60.171c11.765-10.756,43.7-6.89,63.029-1.512c27.899,9.245,53.783,22.858,77.649,39.498
			C218.379,160.669,231.993,171.762,245.103,183.359z"/>
		<g>
			<path fill="#F49765" d="M432.337,330.592c0,6.556,4.2,14.79-1.177,20.842c-7.061-10.588-12.27-25.716-16.64-43.194
				C426.118,309.247,428.975,320.675,432.337,330.592z"/>
			<path fill="#F49765" d="M405.613,308.742c11.765,13.11,13.95,29.749,13.95,47.229c-0.168,0-0.505,0-0.673,0.168
				c-7.227-14.622-14.791-28.069-16.808-46.724C403.092,309.247,404.437,308.911,405.613,308.742L405.613,308.742z"/>
			<path fill="#F49765" d="M369.309,269.749c4.202,4.874,5.211,16.976,4.875,20.842c-0.505,0.504-0.841,0.841-1.008,1.345
				l-20.506-6.891l-23.025-16.303c-12.941-16.303-29.414-31.263-47.229-45.716c0-0.336,0.168-0.672,0.168-1.008
				c9.916,4.875,22.186,5.21,31.766,10.925C334.35,240.504,353.006,249.916,369.309,269.749z"/>
			<path fill="#F49765" d="M286.28,231.428c14.959,12.438,28.573,25.38,39.498,39.161l0,0c-1.513,28.404,10.589,65.045,7.731,75.13
				c-1.177,0.504-1.009,0.673-2.186,1.681c-5.21,4.706-11.597,6.891-16.975,5.547c-1.682-1.514-3.363-3.362-4.539-6.219
				c-2.016-21.851-8.066-45.717-18.656-71.601C290.482,260.001,291.322,244.874,286.28,231.428z"/>
			<path fill="#F49765" d="M280.902,228.235c5.883,11.093,6.219,24.035,6.556,37.481c-8.403-20.337-7.9-25.716-8.572-33.111
				C279.558,231.26,280.23,229.748,280.902,228.235z"/>
			<path fill="#F49765" d="M372.67,295.801c1.512,4.201,9.076,7.396,8.068,13.11c2.018,8.403,3.025,18.655-3.697,26.555
				c-2.354,3.529,0,14.791-3.53,7.396c-0.673-5.715-2.185-10.085-6.387-9.58c-8.235-12.942-9.411-29.413-14.118-44.034
				L372.67,295.801z"/>
			<path fill="#F49765" d="M329.307,273.447l20.338,14.286l-0.841,0.336c3.698,15.968,11.261,33.278,11.261,48.069
				c-1.344,1.008-1.176,1.176-2.352,3.192c-6.051,6.892-11.094,3.866-17.48,4.539C338.215,345.382,328.467,299.834,329.307,273.447z
				"/>
			<path fill="#F49765" d="M271.826,246.891c1.681,1.009,2.856,2.353,4.034,4.874c0.336,8.572-0.169,14.287,1.177,26.22
				c2.184,6.387,3.697,10.252,5.042,14.119l-3.362,9.916c-2.186,1.177-4.201,3.192-5.715,6.051
				c-1.512,3.193-2.689,7.396-3.361,12.773c-5.211,5.715-9.916,11.766-13.614,18.488c-0.673-1.681-1.345-2.857-2.185-3.697
				c-0.84-0.841-1.513-1.177-2.353-1.513c3.362-26.892,1.345-24.035,1.345-31.598c7.73-17.816,12.101-37.313,16.975-56.473
				C270.314,246.051,271.322,246.555,271.826,246.891z"/>
			<path fill="#F49765" d="M267.12,245.378c-4.874,19.329-9.243,38.826-16.807,56.304l-0.168-0.168
				c-13.278,20.338-27.564,39.498-44.372,55.802c-0.672-2.018-2.017-3.193-5.714-2.186c-2.521,0.505-4.37,0-5.546-1.177
				c26.388-32.942,48.069-70.591,70.423-107.399C265.607,246.387,266.447,245.883,267.12,245.378z"/>
			<path fill="#F49765" d="M283.424,296.305c2.688,8.236,5.547,19.329,12.941,50.759c-2.354,1.008-4.371,2.688-6.051,4.873
				c-2.689-16.807-4.707-35.463-9.076-48.74v-0.168L283.424,296.305z"/>
			<path fill="#F49765" d="M278.549,305.381c4.371,13.614,6.387,33.278,9.412,50.758c-0.168,0.337-0.168,0.673-0.336,1.008
				c-1.345,8.067-6.891,10.421-12.942,11.766c-1.008,1.513-0.503,1.176-1.681,3.025c-3.193-4.033-0.84-27.564-0.672-50.086l0,0
				l0.168-0.505c0.672-5.378,1.848-9.411,3.192-12.102C276.364,307.229,277.373,306.221,278.549,305.381z"/>
			<path fill="#F49765" d="M250.313,305.885c0.504,4.37,1.177,6.051-1.513,28.237l-0.336-0.168
				c-7.9,13.781-18.153,26.219-28.404,38.824c-2.689-1.512-5.714-2.689-8.908-3.025c-4.538-0.673-4.37-5.378-4.706-9.244
				C223.084,344.542,237.203,325.718,250.313,305.885z"/>
			<path fill="#F49765" d="M269.642,325.045c-0.673,17.648-0.505,35.632-1.513,53.784c-3.361,4.538-7.396,8.403-12.438,8.571
				c-3.53-0.672-3.867-1.512-7.06-2.688c-2.521-4.707,9.413-29.917,8.235-41.347l0.168-0.336
				C260.229,336.475,264.768,330.76,269.642,325.045z"/>
			<path fill="#F49765" d="M250.817,336.979c0.336,0.168,0.672,0.336,1.007,0.841c0.673,0.84,1.681,2.354,2.521,5.211l-0.336,0.167
				c1.512,9.917-5.042,25.547-10.756,40.506c-3.697-1.345-7.396-2.521-11.261-3.361c-3.194-2.018-5.042-3.53-8.236-5.547
				c1.345-5.378,18.488-24.875,26.22-38.321C250.145,336.643,250.481,336.811,250.817,336.979z"/>
			<path fill="#F49765" d="M388.975,305.549c0.168,0.168,0.504,0.336,0.84,0.673c0.168,0.167,0.336,0.167,0.504,0.336
				c7.563,16.136,12.773,32.104,11.262,48.238c-0.337-0.168-0.841-0.337-1.513-0.841c-2.689-8.067-9.749-16.472-9.917-25.715
				c-0.84-6.555-2.018-12.941-3.025-19.497C386.116,306.558,387.293,304.541,388.975,305.549z"/>
			<path id="path3345_10_" fill="#F49765" d="M410.318,314.793c-1.344-3.697-1.344-8.572-4.369-11.093
				c-1.513-2.522-4.537-0.84-6.556,0.841c-2.353,2.353-0.505,5.546-0.167,7.898c0.672,2.017,1.848,6.051,4.201,2.858
				c1.177,0.672,2.353,2.017,3.697,0C408.471,313.616,408.975,315.97,410.318,314.793z M399.395,324.541
				c3.361,1.513,3.865,6.219,4.033,10.085c-0.336,2.018,0.504,6.22-1.848,6.891c-2.018-1.344-4.539-0.336-6.051-2.521
				c-0.336,2.186-2.523,3.026-3.026,1.009c-1.513-2.186-3.192-5.211-2.017-8.571c0.504-2.857,3.193-4.202,5.378-3.529
				C397.209,327.23,397.713,325.045,399.395,324.541z M383.764,292.271c1.512,3.024,4.033,5.546,4.033,9.411
				c0.673,1.682,0.168,5.883-2.354,4.202c-2.52-1.681-3.024-5.546-4.369-8.235c-1.85-1.176-1.682-6.051,1.345-6.051
				C382.924,291.767,383.428,291.935,383.764,292.271z M383.932,280.17c2.855,0.336,5.379,2.017,6.891,4.37
				c2.018,1.008,1.008,4.707-1.512,4.873c-2.019,3.362-4.707-0.166-5.547-2.017c-1.008-1.849-1.681-4.538-0.504-6.891l0.168-0.336
				H383.932L383.932,280.17z"/>
			<path fill="#F49765" d="M125.77,152.097c-0.336-0.168-0.504-0.168-1.008-0.336c-0.168-0.168-0.336-0.168-0.504-0.337
				c-17.984,1.178-34.959,4.203-48.909,13.279c0.336,0.167,0.672,0.504,1.345,0.84c8.571-1.513,19.496,0.504,27.899-3.53
				c6.387-2.353,12.774-4.37,18.993-6.723C126.274,154.955,127.619,153.106,125.77,152.097z"/>
			<path fill="#F49765" d="M167.452,152.097c-6.387-1.345-17.816,3.53-21.009,5.714c-0.168,0.504-0.504,1.009-0.673,1.513
				l15.968,14.455l25.379,11.933c20.842,3.361,42.187,10.588,63.701,18.993c0.336-0.168,0.504-0.504,0.84-0.673
				c-9.246-6.219-15.127-16.472-24.876-22.186C210.311,168.232,193,156.635,167.452,152.097z"/>
			<path fill="#F49765" d="M241.236,205.209c-18.32-6.891-36.472-12.605-53.951-15.463l0,0
				c-24.875,14.791-63.7,21.682-71.264,28.908c0.168,1.345-0.167,1.177-0.504,2.689c-1.848,6.723-0.672,13.278,3.026,17.144
				c2.185,0.84,4.537,1.345,7.731,0.84c20.672-8.74,45.044-14.623,73.449-17.815C213.505,215.293,226.783,207.226,241.236,205.209z"
				/>
			<path fill="#F49765" d="M142.409,161.51c-4.37,0.672-10.924-4.202-15.63-0.673c-8.404,2.185-18.32,6.219-22.187,15.631
				c-2.017,3.53-13.278,6.891-5.042,6.386c5.546-2.017,10.084-2.856,11.597,1.008c15.631,1.008,30.925-5.715,46.389-8.74
				L142.409,161.51z"/>
			<path fill="#F49765" d="M183.083,188.233l-22.522-10.756v0.84c-16.303,4.37-35.295,6.052-48.741,13.11
				c-0.168,1.513-0.504,1.513-1.681,3.529c-3.362,8.572,1.849,11.261,4.202,17.144C114.005,214.621,159.721,201.343,183.083,188.233
				z"/>
			<path fill="#F49765" d="M234.177,225.041c-1.68-1.008-3.362-1.344-6.219-1.176c-7.899,3.865-12.605,6.891-24.203,11.429
				c-6.723,1.176-10.924,1.68-15.294,2.352l-7.396,7.563c0,2.522-0.841,5.21-2.69,7.732c-2.184,2.857-5.378,5.714-9.916,8.908
				c-2.69,7.059-5.883,14.118-10.084,20.505c1.848-0.168,3.361-0.168,4.37,0c1.176,0.336,1.849,0.84,2.521,1.177
				c22.691-15.631,21.009-12.438,27.9-16.135c12.438-14.958,27.732-28.069,42.86-41.346
				C235.69,225.882,234.85,225.377,234.177,225.041z"/>
			<path fill="#F49765" d="M237.875,228.403c-15.127,13.278-30.589,26.388-42.69,41.178l0.168,0.168
				c-12.102,21.01-22.522,42.355-29.414,64.541c2.185-0.336,3.866,0.336,4.707,3.865c0.672,2.354,2.017,3.697,3.697,4.202
				c17.313-38.321,40.842-74.793,63.364-111.434C237.708,230.084,237.708,229.244,237.875,228.403z"/>
			<path fill="#F49765" d="M184.091,238.487c-8.739,1.513-20,4.37-51.935,12.941c0.168,2.521-0.336,5.042-1.512,7.564
				c16.471-5.547,34.118-12.774,48.237-15.296l0.168-0.167L184.091,238.487z"/>
			<path fill="#F49765" d="M178.376,246.891c-14.285,2.689-33.109,10.252-50.254,15.967c-0.167,0.336-0.504,0.504-0.672,0.841
				c-6.555,4.874-6.219,10.757-4.538,16.808c-0.841,1.682-0.841,1.008-1.849,2.857c5.042,0.84,25.211-12.438,45.379-23.026l0,0
				l0.504-0.336c4.538-3.194,7.563-5.883,9.413-8.404C177.705,249.748,178.041,248.404,178.376,246.891z"/>
			<path fill="#F49765" d="M191.318,271.43c-4.033,1.682-6.05,1.85-24.707,14.623l0.337,0.168
				c-8.74,13.278-14.959,28.069-21.682,42.859c2.689,1.681,5.042,3.529,7.06,6.219c2.857,3.529,6.891,1.345,10.589-0.336
				C169.301,313.28,179.553,292.104,191.318,271.43z"/>
			<path fill="#F49765" d="M166.948,265.211c-15.63,8.908-31.766,17.313-47.733,26.725c-2.521,5.042-4.201,10.42-1.848,14.79
				c2.185,2.689,3.193,2.521,5.714,4.875c5.378,0,22.522-22.188,33.447-26.556l0.168-0.336
				C160.897,278.825,164.091,272.103,166.948,265.211z"/>
			<path fill="#F49765" d="M164.931,287.061c-0.336-0.168-0.672-0.336-1.176-0.504c-1.177-0.168-3.026-0.168-5.882,0.336v0.336
				c-9.749,3.362-20.505,16.472-31.43,28.573c2.857,2.521,5.883,5.211,8.403,8.067c3.363,1.849,5.546,2.688,8.908,4.538
				c4.202-3.53,13.614-27.564,22.017-40.674C165.435,287.396,165.267,287.229,164.931,287.061z"/>
			<path fill="#F49765" d="M111.315,131.256c-17.815,4.539-33.951,7.059-46.724,6.052c7.059-17.817,16.639-9.916,18.152-10.757
				C93.332,124.701,104.929,122.012,111.315,131.256z"/>
			<path fill="#F49765" d="M115.181,139.324c-17.312-4.034-33.446,2.185-49.246,10.42c0,0.168,0.168,0.504,0.336,0.672
				c16.64-0.672,32.271-0.504,50.086-7.563C115.853,141.677,115.517,140.5,115.181,139.324L115.181,139.324z"/>
			<path fill="#F49765" d="M82.575,167.729"/>
			<path fill="#F49765" d="M246.783,208.57c-12.773,0.168-24.539,6.051-36.977,12.101c22.187-2.353,26.892-5.378,33.951-8.236
				C244.767,210.924,245.607,209.747,246.783,208.57z"/>
			<path id="path3965_10_" fill="#F49765" d="M107.45,137.979c4.033-0.672,8.404-2.857,12.101-1.512
				c3.026,0,2.857,3.362,2.353,6.051c-1.008,3.194-4.706,3.026-7.059,3.867c-2.185,0.336-6.219,1.344-4.538-2.354
				c-1.177-0.673-3.025-1.009-1.681-3.193C109.298,139.156,107.114,139.66,107.45,137.979z M103.752,152.097
				c-3.025-2.185-7.396-0.336-10.924,1.345c-1.681,1.345-5.715,2.521-5.378,4.874c2.185,1.177,2.521,3.698,5.21,4.034
				c-1.849,1.345-1.681,3.53,0.673,3.026c2.688,0.336,6.219,0.336,8.571-2.186c2.353-1.848,2.353-4.706,0.673-6.219
				C102.408,155.291,104.088,153.778,103.752,152.097z M140.392,150.248c-3.361,0-6.891-0.84-10.42,0.841
				c-1.849,0.168-5.378,2.521-2.689,4.034c2.857,1.344,6.387,0,9.412,0c2.018,1.008,6.219-1.513,4.707-4.034
				C141.232,150.752,140.896,150.417,140.392,150.248z M151.149,144.534c-1.681-2.352-4.371-3.697-7.228-3.866
				c-1.849-1.345-4.874,1.345-3.698,3.53c-2.017,3.193,2.353,4.034,4.37,3.866c2.186,0,4.875-0.673,6.556-2.858l0.167-0.336
				L151.149,144.534L151.149,144.534z"/>
		</g>
	</g>
	<path id="path4533_10_" opacity="0.94" fill="#1F3038" enable-background="new    " d="M264.6,139.66
		c1.008,0.168,1.848,0.84,2.521,1.849c1.177,1.849,1.681,4.538,1.681,6.723l0,0c0.338,5.883,1.85,11.43,3.697,16.639
		c3.363,8.74,8.404,17.647,6.723,29.076v0.673l0,0v0.841l-1.176,0.167v-0.84l0,0v-0.841l0,0c1.681-10.756-3.193-19.328-6.555-28.236
		l0,0c-2.018-5.545-3.697-11.093-4.034-17.311l0,0l0,0c0-1.85-0.505-4.539-1.513-6.051c-0.84,1.344-3.193-0.168-4.538,0.336
		c-1.177,0.336-0.841-1.177-0.504-1.849C262.246,139.828,263.591,139.492,264.6,139.66z M347.459,182.855
		c2.186,1.008,3.867,2.857,4.371,5.546c-0.168,1.176-1.85,1.681-2.354,1.008c-1.008-1.008-2.689-1.681-2.521-5.211
		c-1.848-0.84-4.201-0.84-6.555-0.167l0,0l0,0c-19.16,3.866-32.773,2.689-52.607,8.235l0,0c-2.354,0.84-4.537,2.017-6.555,3.697
		l-0.674-1.009c2.186-1.848,4.707-3.193,7.061-4.033l0,0c20.002-5.545,33.447-4.37,52.607-8.235l0,0
		C342.754,181.846,345.275,182.014,347.459,182.855z"/>
</g>
</svg>
