<svg xmlns="http://www.w3.org/2000/svg" width="376" height="376" viewBox="0 0 376 376"><path fill="#2c323a" d="M-1.5-1h378v378h-378z"/><path fill="#bfd7ea" d="M1 .5h374v179.891H1z"/><path d="M140.876 31.15v4.723h-1.188v3.086h-.888v3.355h-.841v4.852h-.728v79.425h-3.586v14.219h3.586v13.07h8.417v-4.973h2.477V90.443h-2.477V47.166h-.719v-4.852h-.749v-3.355h-.7v-3.086h-1.198V31.15h-1.406zm78.235 46.621v106.724h8.417V77.771h-8.417zM74.653 108.197v36.187h4.494v-4.753h21.608v-12.712H87.814v-11.383h-2.976v2.167h-4.364v9.216h-1.327v-18.722h-4.494zm163.55 4.174v12.432h2.775v8.107h4.772v-15.807h-2.985v-4.732h-4.562zm-139.675.778v10.086h5.552v-10.086h-5.552zm103.767.201v8.308h-1.988v-5.732h-5.361v16.597h5.361v-2.377h7.151v-8.487h-1.598v-8.308h-3.565zm-110.717.988v7.908h2.977v-7.908h-2.977zm166.664 1.587v5.732h-3.574v7.31h-7.538v14.02h8.936v-3.555h5.742v-1.787h2.787v-6.312h6.15v-6.32h-6.15v-9.088h-6.353z" fill="#a5acb5"/><path d="M172.581 86.276v27.87h-22.268v58.868h28.968v-7.397h9.518v10.158h31.349v-7.923h9.529v29.255h19.046v-4.111h38.9v-52.521h-38.9v-19.612h-13.29v-16.706h-27.496v20.259h-14.591v-38.14h-20.765zM2.545 98.568v54.757h14.591V98.568H2.545zm108.869 0v19.925H89.202v15.835H61.468v38.553h21.785v12.382h5.949v40.296h30.157v-75.027h13.378V98.568h-21.323z" fill="#747f8c"/><path fill="#343940" d="M135 166.5H84.585v1.24h-7.156V71.291H10.122v50.632H-2v142.133h12.122v5.444h98.463v-38.24H135zM377 79.46h-41.139V55.434h-67.296v73.195h-15.713V269.5H377z"/><g fill="#8a98a8"><path d="M93.749 121.563h1.403v1.402h-1.403zM95.784 121.563h1.404v1.402h-1.404zM97.9 121.563h1.403v1.402H97.9zM93.749 123.603h1.403v1.403h-1.403zM95.784 123.603h1.404v1.403h-1.404zM97.9 123.603h1.403v1.403H97.9zM93.749 125.782h1.403v1.404h-1.403zM95.784 125.782h1.404v1.404h-1.404zM97.9 125.782h1.403v1.404H97.9zM99.937 125.782h1.401v1.404h-1.401zM101.971 125.782h1.403v1.404h-1.403zM104.007 125.782h1.402v1.404h-1.402zM106.121 125.782h1.404v1.404h-1.404zM93.749 127.823h1.403v1.403h-1.403zM95.784 127.823h1.404v1.403h-1.404zM97.9 127.823h1.403v1.403H97.9zM99.937 127.823h1.401v1.403h-1.401zM101.971 127.823h1.403v1.403h-1.403zM104.007 127.823h1.402v1.403h-1.402zM106.121 127.823h1.404v1.403h-1.404zM114.446 101.3h1.404v1.403h-1.404zM116.482 101.3h1.403v1.403h-1.403zM118.597 101.3h1.404v1.403h-1.404zM120.632 101.3h1.403v1.403h-1.403zM122.668 101.3h1.403v1.403h-1.403zM126.819 101.3h1.403v1.403h-1.403zM128.855 101.3h1.401v1.403h-1.401zM114.446 103.341h1.404v1.403h-1.404zM116.482 103.341h1.403v1.403h-1.403zM118.597 103.341h1.404v1.403h-1.404zM120.632 103.341h1.403v1.403h-1.403zM122.668 103.341h1.403v1.403h-1.403zM126.819 103.341h1.403v1.403h-1.403zM128.855 103.341h1.401v1.403h-1.401zM114.446 105.521h1.404v1.403h-1.404zM116.482 105.521h1.403v1.403h-1.403zM118.597 105.521h1.404v1.403h-1.404zM120.632 105.521h1.403v1.403h-1.403zM122.668 105.521h1.403v1.403h-1.403zM126.819 105.521h1.403v1.403h-1.403zM128.855 105.521h1.401v1.403h-1.401zM114.446 107.562h1.404v1.403h-1.404zM116.482 107.562h1.403v1.403h-1.403zM118.597 107.562h1.404v1.403h-1.404zM120.632 107.562h1.403v1.403h-1.403zM122.668 107.562h1.403v1.403h-1.403zM124.703 107.562h1.404v1.403h-1.404zM126.819 107.562h1.403v1.403h-1.403zM128.855 107.562h1.401v1.403h-1.401zM128.855 115.947h1.401v1.402h-1.401zM128.855 117.987h1.401v1.402h-1.401zM128.855 122.533h1.401v1.403h-1.401zM128.855 124.574h1.401v1.402h-1.401zM128.855 126.754h1.401v1.403h-1.401zM114.446 128.794h1.404v1.404h-1.404zM116.482 128.794h1.403v1.404h-1.403zM118.597 128.794h1.404v1.404h-1.404zM120.632 128.794h1.403v1.404h-1.403zM122.668 128.794h1.403v1.404h-1.403zM124.703 128.794h1.404v1.404h-1.404zM126.819 128.794h1.403v1.404h-1.403zM128.855 128.794h1.401v1.404h-1.401zM93.749 132.523h1.403v1.404h-1.403zM95.784 132.523h1.404v1.404h-1.404zM97.9 132.523h1.403v1.404H97.9zM99.937 132.523h1.401v1.404h-1.401zM101.971 132.523h1.403v1.404h-1.403zM104.007 132.523h1.402v1.404h-1.402zM106.121 132.523h1.404v1.404h-1.404zM108.157 132.523h1.402v1.404h-1.402zM93.749 134.564h1.403v1.403h-1.403zM95.784 134.564h1.404v1.403h-1.404zM97.9 134.564h1.403v1.403H97.9zM99.937 134.564h1.401v1.403h-1.401zM101.971 134.564h1.403v1.403h-1.403zM104.007 134.564h1.402v1.403h-1.402zM106.121 134.564h1.404v1.403h-1.404zM108.157 134.564h1.402v1.403h-1.402zM93.749 136.744h1.403v1.403h-1.403zM95.784 136.744h1.404v1.403h-1.404zM97.9 136.744h1.403v1.403H97.9zM99.937 136.744h1.401v1.403h-1.401zM101.971 136.744h1.403v1.403h-1.403zM104.007 136.744h1.402v1.403h-1.402zM106.121 136.744h1.404v1.403h-1.404zM108.157 136.744h1.402v1.403h-1.402zM93.749 138.785h1.403v1.402h-1.403zM95.784 138.785h1.404v1.402h-1.404zM97.9 138.785h1.403v1.402H97.9zM99.937 138.785h1.401v1.402h-1.401zM101.971 138.785h1.403v1.402h-1.403zM104.007 138.785h1.402v1.402h-1.402zM106.121 138.785h1.404v1.402h-1.404zM108.157 138.785h1.402v1.402h-1.402zM93.749 142.786h1.403v1.402h-1.403zM95.784 142.786h1.404v1.402h-1.404zM97.9 142.786h1.403v1.402H97.9zM99.937 142.786h1.401v1.402h-1.401zM101.971 142.786h1.403v1.402h-1.403zM104.007 142.786h1.402v1.402h-1.402zM106.121 142.786h1.404v1.402h-1.404zM108.157 142.786h1.402v1.402h-1.402zM93.749 144.825h1.403v1.404h-1.403zM95.784 144.825h1.404v1.404h-1.404zM97.9 144.825h1.403v1.404H97.9zM99.937 144.825h1.401v1.404h-1.401zM101.971 144.825h1.403v1.404h-1.403zM104.007 144.825h1.402v1.404h-1.402zM106.121 144.825h1.404v1.404h-1.404zM108.157 144.825h1.402v1.404h-1.402zM93.749 147.006h1.403v1.403h-1.403zM95.784 147.006h1.404v1.403h-1.404zM97.9 147.006h1.403v1.403H97.9zM99.937 147.006h1.401v1.403h-1.401zM101.971 147.006h1.403v1.403h-1.403zM104.007 147.006h1.402v1.403h-1.402zM106.121 147.006h1.404v1.403h-1.404zM108.157 147.006h1.402v1.403h-1.402zM93.749 149.047h1.403v1.402h-1.403zM95.784 149.047h1.404v1.402h-1.404zM97.9 149.047h1.403v1.402H97.9zM99.937 149.047h1.401v1.402h-1.401zM101.971 149.047h1.403v1.402h-1.403zM104.007 149.047h1.402v1.402h-1.402zM106.121 149.047h1.404v1.402h-1.404zM108.157 149.047h1.402v1.402h-1.402zM174.942 103.656h1.404v1.403h-1.404zM176.979 103.656h1.404v1.403h-1.404zM187.315 103.656h1.401v1.403h-1.401zM189.352 103.656h1.401v1.403h-1.401zM174.942 105.837h1.404v1.402h-1.404zM176.979 105.837h1.404v1.402h-1.404zM187.315 105.837h1.401v1.402h-1.401zM189.352 105.837h1.401v1.402h-1.401zM174.942 107.877h1.404v1.403h-1.404zM176.979 107.877h1.404v1.403h-1.404zM187.315 107.877h1.401v1.403h-1.401zM189.352 107.877h1.401v1.403h-1.401zM174.942 112.261h1.404v1.403h-1.404zM176.979 112.261h1.404v1.403h-1.404zM187.315 112.261h1.401v1.403h-1.401zM189.352 112.261h1.401v1.403h-1.401zM174.942 114.301h1.404v1.404h-1.404zM176.979 114.301h1.404v1.404h-1.404zM179.095 114.301h1.401v1.404h-1.401zM181.128 114.301h1.404v1.404h-1.404zM183.164 114.301h1.403v1.404h-1.403zM185.2 114.301h1.403v1.404H185.2zM187.315 114.301h1.401v1.404h-1.401zM189.352 114.301h1.401v1.404h-1.401zM179.095 116.482h1.401v1.402h-1.401zM181.128 116.482h1.404v1.402h-1.404zM183.164 116.482h1.403v1.402h-1.403zM185.2 116.482h1.403v1.402H185.2zM187.315 116.482h1.401v1.402h-1.401zM189.352 116.482h1.401v1.402h-1.401zM179.095 118.522h1.401v1.402h-1.401zM181.128 118.522h1.404v1.402h-1.404zM183.164 118.522h1.403v1.402h-1.403zM185.2 118.522h1.403v1.402H185.2zM187.315 118.522h1.401v1.402h-1.401zM189.352 118.522h1.401v1.402h-1.401zM174.942 122.523h1.404v1.402h-1.404zM176.979 122.523h1.404v1.402h-1.404zM179.095 122.523h1.401v1.402h-1.401zM174.942 124.563h1.404v1.404h-1.404zM176.979 124.563h1.404v1.404h-1.404zM179.095 124.563h1.401v1.404h-1.401zM174.942 126.743h1.404v1.404h-1.404zM176.979 126.743h1.404v1.404h-1.404zM179.095 126.743h1.401v1.404h-1.401zM174.942 128.784h1.404v1.402h-1.404zM176.979 128.784h1.404v1.402h-1.404zM179.095 128.784h1.401v1.402h-1.401zM181.128 128.784h1.404v1.402h-1.404zM183.164 128.784h1.403v1.402h-1.403zM185.2 128.784h1.403v1.402H185.2zM187.315 128.784h1.401v1.402h-1.401zM189.352 128.784h1.401v1.402h-1.401zM153.975 117.379h1.401v1.402h-1.401zM156.011 117.379h1.401v1.402h-1.401zM158.124 117.379h1.403v1.402h-1.403zM153.975 119.418h1.401v1.404h-1.401zM156.011 119.418h1.401v1.404h-1.401zM158.124 119.418h1.403v1.404h-1.403zM153.975 121.599h1.401v1.404h-1.401zM156.011 121.599h1.401v1.404h-1.401zM158.124 121.599h1.403v1.404h-1.403zM153.975 123.64h1.401v1.402h-1.401zM156.011 123.64h1.401v1.402h-1.401zM158.124 123.64h1.403v1.402h-1.403zM160.16 123.64h1.403v1.402h-1.403zM162.196 123.64h1.403v1.402h-1.403zM164.231 123.64h1.404v1.402h-1.404zM166.345 123.64h1.404v1.402h-1.404zM168.381 123.64h1.404v1.402h-1.404zM153.975 127.641h1.401v1.402h-1.401zM156.011 127.641h1.401v1.402h-1.401zM158.124 127.641h1.403v1.402h-1.403zM160.16 127.641h1.403v1.402h-1.403zM162.196 127.641h1.403v1.402h-1.403zM164.231 127.641h1.404v1.402h-1.404zM166.345 127.641h1.404v1.402h-1.404zM168.381 127.641h1.404v1.402h-1.404zM153.975 129.681h1.401v1.404h-1.401zM156.011 129.681h1.401v1.404h-1.401zM158.124 129.681h1.403v1.404h-1.403zM160.16 129.681h1.403v1.404h-1.403zM162.196 129.681h1.403v1.404h-1.403zM164.231 129.681h1.404v1.404h-1.404zM166.345 129.681h1.404v1.404h-1.404zM168.381 129.681h1.404v1.404h-1.404zM153.975 131.86h1.401v1.404h-1.401zM156.011 131.86h1.401v1.404h-1.401zM158.124 131.86h1.403v1.404h-1.403zM160.16 131.86h1.403v1.404h-1.403zM162.196 131.86h1.403v1.404h-1.403zM164.231 131.86h1.404v1.404h-1.404zM166.345 131.86h1.404v1.404h-1.404zM168.381 131.86h1.404v1.404h-1.404zM153.975 133.901h1.401v1.403h-1.401zM156.011 133.901h1.401v1.403h-1.401zM158.124 133.901h1.403v1.403h-1.403zM160.16 133.901h1.403v1.403h-1.403zM162.196 133.901h1.403v1.403h-1.403zM164.231 133.901h1.404v1.403h-1.404zM166.345 133.901h1.404v1.403h-1.404zM168.381 133.901h1.404v1.403h-1.404zM209.585 110.284h1.403v1.402h-1.403zM211.62 110.284h1.404v1.402h-1.404zM213.736 110.284h1.403v1.402h-1.403zM215.772 110.284h1.401v1.402h-1.401zM221.957 110.284h1.404v1.402h-1.404zM223.993 110.284h1.404v1.402h-1.404zM209.585 112.323h1.403v1.404h-1.403zM211.62 112.323h1.404v1.404h-1.404zM213.736 112.323h1.403v1.404h-1.403zM215.772 112.323h1.401v1.404h-1.401zM217.808 112.323h1.402v1.404h-1.402zM219.842 112.323h1.403v1.404h-1.403zM221.957 112.323h1.404v1.404h-1.404zM223.993 112.323h1.404v1.404h-1.404zM226.146 106.063h1.403v1.404h-1.403zM226.146 108.104h1.403v1.402h-1.403zM226.146 110.284h1.403v1.402h-1.403zM228.261 110.284h1.404v1.402h-1.404zM230.297 110.284h1.401v1.402h-1.401zM226.146 112.323h1.403v1.404h-1.403zM228.261 112.323h1.404v1.404h-1.404zM230.297 112.323h1.401v1.404h-1.401zM232.417 106.063h1.404v1.404h-1.404zM232.417 110.284h1.404v1.402h-1.404zM232.417 112.323h1.404v1.404h-1.404zM209.585 117.945h1.403v1.402h-1.403zM211.62 117.945h1.404v1.402h-1.404zM213.736 117.945h1.403v1.402h-1.403zM215.772 117.945h1.401v1.402h-1.401zM217.808 117.945h1.402v1.402h-1.402zM219.842 117.945h1.403v1.402h-1.403zM221.957 117.945h1.404v1.402h-1.404zM223.993 117.945h1.404v1.402h-1.404zM209.585 119.984h1.403v1.403h-1.403zM211.62 119.984h1.404v1.403h-1.404zM213.736 119.984h1.403v1.403h-1.403zM215.772 119.984h1.401v1.403h-1.401zM217.808 119.984h1.402v1.403h-1.402zM219.842 119.984h1.403v1.403h-1.403zM209.585 122.165h1.403v1.403h-1.403zM211.62 122.165h1.404v1.403h-1.404zM217.808 122.165h1.402v1.403h-1.402zM219.842 122.165h1.403v1.403h-1.403zM209.585 124.205h1.403v1.403h-1.403zM211.62 124.205h1.404v1.403h-1.404zM217.808 124.205h1.402v1.403h-1.402zM219.842 124.205h1.403v1.403h-1.403zM226.146 117.945h1.403v1.402h-1.403zM228.261 117.945h1.404v1.402h-1.404zM230.297 117.945h1.401v1.402h-1.401zM228.261 119.984h1.404v1.403h-1.404zM230.297 119.984h1.401v1.403h-1.401zM228.261 122.165h1.404v1.403h-1.404zM230.297 122.165h1.401v1.403h-1.401zM228.261 124.205h1.404v1.403h-1.404zM230.297 124.205h1.401v1.403h-1.401zM232.417 117.945h1.404v1.402h-1.404zM232.417 119.984h1.404v1.403h-1.404zM209.462 128.779h1.4v1.403h-1.4zM211.495 128.779h1.403v1.403h-1.403zM213.61 128.779h1.404v1.403h-1.404zM215.646 128.779h1.403v1.403h-1.403zM217.683 128.779h1.403v1.403h-1.403zM219.719 128.779h1.403v1.403h-1.403zM221.832 128.779h1.403v1.403h-1.403zM209.462 130.821h1.4v1.402h-1.4zM211.495 130.821h1.403v1.402h-1.403zM213.61 130.821h1.404v1.402h-1.404zM215.646 130.821h1.403v1.402h-1.403zM217.683 130.821h1.403v1.402h-1.403zM219.719 130.821h1.403v1.402h-1.403zM221.832 130.821h1.403v1.402h-1.403zM223.868 130.821h1.403v1.402h-1.403zM209.462 133.001h1.4v1.402h-1.4zM211.495 133.001h1.403v1.402h-1.403zM215.646 133.001h1.403v1.402h-1.403zM217.683 133.001h1.403v1.402h-1.403zM219.719 133.001h1.403v1.402h-1.403zM221.832 133.001h1.403v1.402h-1.403zM223.868 133.001h1.403v1.402h-1.403zM209.462 135.041h1.4v1.403h-1.4zM211.495 135.041h1.403v1.403h-1.403zM213.61 135.041h1.404v1.403h-1.404zM215.646 135.041h1.403v1.403h-1.403zM217.683 135.041h1.403v1.403h-1.403zM228.136 128.779h1.403v1.403h-1.403zM230.172 128.779h1.403v1.403h-1.403zM226.021 130.821h1.403v1.402h-1.403zM228.136 130.821h1.403v1.402h-1.403zM230.172 130.821h1.403v1.402h-1.403zM226.021 133.001h1.403v1.402h-1.403zM228.136 133.001h1.403v1.402h-1.403zM230.172 133.001h1.403v1.402h-1.403zM230.172 135.041h1.403v1.403h-1.403zM232.294 130.821h1.401v1.402h-1.401zM232.294 133.001h1.401v1.402h-1.401zM232.294 135.041h1.401v1.403h-1.401zM174.942 91.354h1.404v1.402h-1.404zM176.979 91.354h1.404v1.402h-1.404zM179.095 91.354h1.401v1.402h-1.401zM181.128 91.354h1.404v1.402h-1.404zM183.164 91.354h1.403v1.402h-1.403zM185.2 91.354h1.403v1.402H185.2zM187.315 91.354h1.401v1.402h-1.401zM189.352 91.354h1.401v1.402h-1.401zM174.942 93.395h1.404v1.404h-1.404zM176.979 93.395h1.404v1.404h-1.404zM179.095 93.395h1.401v1.404h-1.401zM181.128 93.395h1.404v1.404h-1.404zM183.164 93.395h1.403v1.404h-1.403zM185.2 93.395h1.403v1.404H185.2zM187.315 93.395h1.401v1.404h-1.401zM189.352 93.395h1.401v1.404h-1.401z"/></g><path fill="#2c323a" d="M292.112 147.625V182.38H233.75v-44.699H117.025v84.927H90.088V205H-3v172h381V147.625z"/><path d="M357.461 322.507c0 11.02-8.936 19.952-19.957 19.952-11.02 0-19.953-8.933-19.953-19.952 0-11.024 8.934-19.956 19.953-19.956 11.021 0 19.957 8.931 19.957 19.956z" fill="#b3cc4a"/><g fill="#78abd3"><path d="M357.5 322.499c0 11.046-8.955 20.001-20 20.001s-20-8.955-20-20.001 8.955-19.999 20-19.999 20 8.953 20 19.999zm-16.078-14.173l.152-.01.08-.045.176.058.043-.094-.195-.124-.09.081-.107.045-.137.023-.164.016.029-.131-.104-.085-.168-.056-.1.004-.004.088-.043.075.102.086-.014.124.111.01-.031.068.123.05-.055.066.02.128.008.004.137.022.219.008.168-.045v-.098l.094.088.154.008.164-.036.174-.076-.172-.041-.172-.064-.186-.063-.133-.018-.079-.066zm7.375 3.206l.125.021.01-.089-.09-.056-.068.033.023.091m-.045-.222l.145.054.027-.069-.037-.107-.057.009-.063-.093-.117-.038.053.124.049.12zm.246.147l.078-.008-.021-.086-.043-.06-.029.056.015.098m-.762-1.345l.121.028-.063-.092-.124-.048-.072-.084.053.117.085.079zm4.311 5.739l.045-.071.068-.014-.066-.153-.084.037.037.201m4.808 7.391l.012-.042v-.124l-.014.019.002.147m-19.509 19.244h-.021l.043-.001h-.082l-.105.001-.064.003m-2.086-20.412l.154.069.115.069.053-.141-.143.019-.179-.016m2.221 20.382l-.047.008v.007l-.043.008h.146l.066-.006-.043-.004.09-.008-.02-.005h-.149zm4.232-8.875l.195-.032.08-.085-.008-.146-.223.062.057.018.008.117-.109.066zm-2.492-.389l.113.075m-4.724-3.037l.035.056-.035.041.07.02.107-.022-.043-.098-.066-.058-.068.061m6.992 1.505l.033.097.049-.084.082-.015-.063-.068-.02.083-.081-.013zm.246.395l.119.084m-4.312-1.586l.162-.004.055-.131-.055.08-.109-.024-.053.079m-1.311-1.818l-.039-.068-.094-.004-.146.051-.092-.069m.524.262l.068-.165-.145-.138m.444.736v-.15l-.188-.123m.332.275l.117.165m0 .163l.15.26m.204.215l.119-.121-.162-.081m.389.126l.129.025m.414.198l-.207-.065-.119.078m-2.985-1.012l.166-.028m1.713-3.432l.119-.058.047-.112m.383-1.734l.178-.036.176-.032.174-.091-.09-.057-.131.062-.131.032-.154.033-.022.089m-1.235-5.48l.115-.022-.139.134.111.007.072-.082-.01.144.061-.197-.043-.087-.167.103zm-.5 1.087l.117.067.137.066-.041-.146-.084-.037-.129.05zm.934-6.8l-.045.098.02.137.133.055.105-.042.16.039.02-.091-.029-.13-.104-.063-.137-.021-.123.018m-.654-1.985l.037.091-.002.118-.07.091-.027.129.053.12.189.039.111-.088.088-.125.105-.059.023-.108-.1-.051.061-.113-.027-.076-.119-.045-.031-.094.008-.132-.08-.016-.059.117-.105.079-.055.123zm-.266-.047l.084.071-.008-.132-.076.061m-.146.653l.104.09.131.069.084-.049.012-.068-.172-.05-.159.008m-.578-.206l-.064.14.074.062.02-.108.043-.089-.073-.005m-.372.707l.094.033.002-.112-.096.079m0-1.086l.107.041.031.062.088.034.076-.025-.068-.103-.141-.047-.093.038m-.169.019l-.01.075.053.014.063-.086-.106-.003m.072.107l-.051.089.072.071.148-.011.098-.108-.066-.03h-.1l-.101-.011zm-.846.29l.039.065.09-.047.107-.074-.125.005-.111.051m-6.473-4.371l-.225.13m-.962.875l-.078.069-.012.053.084-.083.006-.039m-.969 1.477l.043.016.059-.077-.102.061zm-.027.164l-.006.08.063-.083-.057.003zm.023.267l.008.063.063-.005m-.032.702l.105.069.039.024.07-.034-.016-.062-.198.003zm.143.145l.039.075.057.056.084-.043.004-.109-.094.047-.09-.026zm3.125-1.679l-.105.028.012.104-.119.131.064.089.041-.119.086-.097.021-.136zm-1.133.846l-.076.103-.033.094.051.062.076-.029.025-.08-.021-.075-.022-.075zm-.709 2.027l-.117.184.096.044.107-.015.082.079.084-.09.008-.08.109.072.055-.095-.129-.038-.119-.028-.176-.033zm16.672-.928l-.059-.134m-1.755-.098l.111.079.031-.058-.142-.021zm12.728 1.006l-.051-.077-.029-.043-.021-.024.01.024.029.059-.039-.04-.047-.058-.029-.022-.012.005-.035-.02m-2.073-2.774l.045.052-.119-.127-.102-.107-.131-.133-.02-.022-.021-.022-.094-.1m-6.843-4.418l-.043-.031-.01-.015-.133-.032-.025.003-.143-.055-.119-.039-.193-.073-.158-.065-.123-.039-.115-.051-.172-.061-.145-.039.107.038.109.033.096.037.119.042.094.037.148.061.184.068.094.041.162.056.137.048.129.036m-16.498.811l-.043.02-.051.039-.127.072-.074.054-.059.046.098-.062.039-.014.074-.038.018.016.074-.061.109-.061.141-.072.164-.077.102-.045.131-.052.129-.055.047-.034-.123.042-.047.007-.029.004.031-.024-.063.022-.541.273zm-.227.171l-.021.027-.025.028m-.125.083l-.053.052-.066.067-.047.056.047-.048.086-.051.035-.043-.002-.033zm-.252.25l-.045.036-.025.058.055-.052.015-.042zm-.172.221l-.006.036m.154.243l-.055.009-.051.072.025.019.053-.009-.012-.038.04-.053zm3.676-1.786l-.096.02-.018.048.123-.039-.009-.029zm-2.75 2.513l.004.113.08-.023.012-.06-.096-.03zm1.75-2.175l-.111.001-.057-.016-.082-.003-.111.031-.082.007-.066-.006-.098.011-.078.004-.053-.001-.02-.014-.072.021-.111.026-.033-.009-.09.015-.018-.017-.146.043.027.014-.025.025-.094.047-.131.055.08-.015.09-.04.068-.019.1-.038.082-.025.066-.003.021.018.037.006-.02.029-.088.051-.145.062.1-.024.127-.029.127-.03.113-.021.115-.018.127-.025.07.011.086.003.115-.012.098-.002.1-.019.053-.037-.111.016-.002-.024.042-.049zm1.027 3.544l-.09-.097-.098.018.018.089m0 0l-.055.065.041.131.137-.075.047-.131-.17.01zm2.989-2.268l-.131.012-.168.075.068.037.184-.004.078-.062-.031-.058zm.177.077l-.076-.034-.035.036.049.031.062-.033m-.171.415l-.164-.023-.207.051-.082.056.072.067.146-.062.145-.071.09-.018zm9.339.309l-.137-.086-.111-.01-.006.1.135.033.119-.037m-3.441.502l-.072-.054-.135-.008-.072-.076-.068-.004-.105.062-.041-.053-.098-.009-.064.076.125.008.08-.022.139.052.105-.033.068.061h.138m-.113.136l-.033-.083-.125-.043-.02.049-.125.011-.094.064.152.011.102-.048.061.048.082-.009m.185-.029l-.076-.055-.021.056.097-.001m.196.325l.006-.051-.041-.047.072-.021-.012-.061-.072-.05-.078.027-.115-.011-.004.037.141.057-.059.019-.014.044.176.057m5.806 5.131l.055-.039-.072-.135-.035.112.052.062m.945-.299l-.123-.076.043.07m.213.401l.098-.016m.094.825l-.059-.19-.121-.133.035.169.094.071.051.083m.502-3.858l.061-.02-.072-.085-.07-.084-.014.095.095.094m-.174-.12l.045.004-.047-.085-.061.038.063.043m5.48 3.2l.055-.037.09.093.047.009-.014-.08.059.011-.08-.126.053-.021-.109-.055-.082-.044v-.082l-.094-.021-.033.054-.021.065.053.128.076.106zm.444-.01l-.021-.102-.006-.081.021-.035-.041-.138-.043-.141-.061-.066.061.129-.051-.043.039.121-.004.062.041.116-.029-.015.01.101.084.092zm-.524-1.696l.049.019-.033-.098-.066-.113-.061-.07-.037-.076-.031-.009-.133-.175.086.137.063.108.051.093.055.075.057.109zm.106.699l.055.033-.061-.1-.086-.094.092.161m-.52-.203l-.053-.041.031.06m.155.117l.055.042m-4.116 9.703l.121-.019m.528-.158l.119-.098m2.885 1.316l.088.044.016-.094-.033-.144-.023.118-.048.076zm.211-.101l.057.047.043-.089-.043-.062-.061.032.004.072zm.228-.316l.039-.126-.086-.16.035-.085-.025-.084-.023.071.014.098.012.217.034.069m-33.941-3.613l.021-.004m.016.051l-.012.078.006.054.045-.058-.008-.064-.031-.01m-.008.46l-.029.105.018.101.041-.17-.03-.036m-.012.35l.018.098m-.018.071l-.01.088-.025.061.018.04.025.022.016-.126-.02-.025-.004-.06m33.432-8.293l-.033-.106-.041-.123-.037-.107-.049-.02-.053-.106-.029.052-.006.008.041.119.061.148.076.1.102.146-.032-.111zm-.25 3.026l-.025-.125-.072-.109.117.098.082.052.074.098.111.131-.111.009-.078-.051-.098-.103m.352.412l.076.069.1.041.111.103.107.122.088-.01-.064-.134.012-.08-.088-.118-.09-.099-.096-.087-.096-.066-.105-.009.063.159.01.08-.028.029m.755-.178l.094.018.004-.064.074-.065.021-.081h.07l.018-.116-.068-.097-.07-.032-.107-.13-.092-.147.039.162.016.162-.002.113-.041.048-.006.098.05.131m-21.443 21.745l-.027.117.111.085-.109.037.111.063.113-.06-.086-.117-.113-.125zm4.555-4.548l.111.006.107.108.139.03.111-.051.113.032.109.002-.055-.109-.137-.052-.166-.031-.164-.031-.141.049-.027.047zm-2.067-1.328l.211.024.061-.104.186.021.113-.069.109-.071.158.045.215.045-.164.041.104.089.16.039.24.017.105.089.133.033.162.064.162-.019.055.054.021.135.16.112.246.009.055.109-.113.075-.084.077.221.006.164-.024.164.003.164.03h.166l.107-.055.164-.025-.027-.055-.08.001-.109-.104-.164-.027-.111.026.031-.134-.139-.025-.162-.031-.162-.109-.135-.06-.133-.085-.158-.085-.16-.06-.16-.009-.105-.115-.131-.059-.133-.065-.16-.01-.156-.066-.162-.015-.162.04-.16.012-.16.011-.166.064-.109.066-.008.107-.164.037zm3.34 1.301l.223.102.051-.055.168-.002.141.023.139-.031.166.021.139.15.109-.136-.002-.079.164-.062.004.076.164-.033.189-.064.166-.012.111.097.107-.139-.143-.12-.275-.032.133-.087-.191.012-.061-.103-.189-.015-.166-.017-.217.011-.109.055-.191-.073-.195.005-.105.083.162-.004.084.104.002.104.141.129-.137.081-.166.004-.141-.051-.166-.022-.109.08zm2.43-.022l.137.012.139-.04.133-.015.078-.086-.111-.065-.191.02-.193.019.008.155zm-3.623-2.192l.021.112-.082.076.156.141.076.168.057-.107-.078-.108.004-.111-.076-.169-.078-.002zm3.398-8.616l.162.067.068.077.139.035.154.008.129-.021-.094-.104-.119-.037-.139-.039-.152-.004-.148.018zm.192 1.088l.09.075.152.066.209.057-.016-.112.104-.104-.174.054-.135.021-.148-.036-.035-.113-.047.092m-3.973-5.234l.141-.012.162-.126.002-.027-.105-.009-.127.046-.073.128zm.586-.003l-.031.193.063.086.08-.136.023-.137-.135-.006zm4.449 4.618l.066.137.156-.094.197-.009.168-.039.168-.04.154-.01.027.112-.092.112.141-.001.068-.199.082-.053h.121l-.01.184.088-.115.037.138.133-.037-.014-.178-.012-.179-.1.062.006-.184-.064.047-.033.164-.072-.043.008-.121.111-.215-.152.073-.084-.097.064-.171-.121-.027-.143.038-.133.066-.156-.084.066-.105-.135-.023-.133.15.027-.187.041-.128.043-.19.006-.183-.102.027-.115.117-.041.126-.018.155-.051.188-.006.211-.07.192-.043.159.08.013-.088.137-.07.104zm-5.498-5.179l.203.029-.018.166.148-.01.123-.125.105-.099.113.011.117.097.117.118.154-.126-.146-.094-.059-.142-.1-.121-.154-.127-.125-.148-.018-.169-.166.116-.061.13-.061.184v.197l-.172.113m1.572-1.171l.053.162.156-.022.092-.08.021-.136-.064-.107-.152-.001-.106.184m-1.322-1.443l.072.148.043.169.072.142.162.134.166.019.229.075.123-.013.168.145.104-.05.121-.151.063.136.197.16-.045.212.148-.104.096.159.164.104.049.159.053.135-.088.108-.1.14-.115.109.133.16-.145.112h-.193l-.217-.061-.029.107-.086.026-.059.132.08.142.23.008.113-.083.162.028.152.08.145.054.131.078.006.141.139.103.123.05.164.044.061.079.156.071.156.041.164.01-.018-.135-.137-.1-.148-.123-.129-.102-.078-.132.189.068.156.096.184.089.197-.023v-.221l-.137-.122-.041-.164-.117-.095-.178-.12-.004-.009-.1-.146.006-.22.256.136.104.183.188.086.016-.169.154-.08.006-.137.047-.202-.123-.09-.156-.085-.162-.087-.143-.116-.203.022-.189-.117-.02-.16.156-.069-.16-.113.033-.14-.119-.147-.174-.093-.184-.174-.135-.073-.172-.021-.006-.158-.035-.101-.15.024-.109-.064-.104-.033-.129.098-.123-.008-.113.084.053-.151-.053-.146.049-.136-.039-.08-.123.015-.154.084-.141.113-.041.151-.035.13.014.131-.088-.116.02-.13.018-.128.072-.121.072-.077.162-.065-.135-.023-.152-.021-.113.06-.137.104-.086.119-.076.118-.051.174zm-.285-1.104l.086.08.119.079.059-.155-.025-.115-.094-.025-.145.136m.285-.566l-.053.099.041.144.152.012.059.091-.012.125-.07.116-.033.15.156.102.16.047.148.037.162.021.117-.086.127.089.168-.04.064-.119.012-.117-.143-.087-.129-.011-.143-.047-.178.049-.16-.063-.094-.103.057-.047-.07-.075-.012-.09-.135-.029-.07-.101-.121-.067zm.83-1.152l-.02.141.066.107.154.023.119-.023.156.015.168-.025-.111.076-.174.033-.078.055-.115-.062-.086.147.08.06-.027.128.016.115-.102.021-.148.149.125.093h-.182l-.031.119.063.061-.098.022-.127.069-.033.118.133.051.203.053.105-.039.104.039.096-.043.035.101.174-.063.107-.117-.107-.13.127-.093-.02-.1.16-.02.061-.146v-.145l.064-.146.152-.068.078-.143.057-.112.1-.112.102-.148-.012-.067.064-.09.043-.079-.018-.06-.088-.023-.082-.058-.125-.019-.115-.037-.117.007-.082.03-.098-.021-.172.028-.094.087-.123.057-.09.044-.016.059-.111-.019-.11.1zm-1.158.344l-.014.062.072.084-.1.058.012.08.105.083.086.029-.008.132.102-.021.119.021.094.016.064-.074.004-.078-.094-.133-.066.11-.08.101-.061-.035.025-.104.057-.108-.037-.113-.094-.032-.041-.074-.08-.033-.065.029zm-.375.715l-.014.131-.039.098.012.141.148-.015-.01.183.184.058.109-.132.041-.121.051-.107-.07-.114-.123-.052-.094.061-.068.112-.018-.129-.029-.097-.08-.017zm-1.275-.626l-.037.132.08.039.057.08.145-.033.113-.052.039.104.176-.048.057-.1.121-.021-.018-.103-.115.032-.086-.07-.109-.005-.127.013-.154.039-.142-.007zm.14.507l.066.09.037.084.131-.028v.122l-.131-.001-.012.076.076.071.104.015.127-.029.127-.01.146.088.111.021.09-.112.094-.096-.07-.084-.053-.13.047-.141-.096.031-.117.057.035.07-.07.062-.016.107-.129-.089.031-.108v-.093l-.051-.117-.076-.066-.117.057-.152.079-.132.074zm-1.277.36l-.004.175-.09.184.162.02.111.045.189-.071.186-.139.186-.011.162-.006.172-.009-.037-.15.023-.148-.129-.085-.055-.142-.158-.016-.152-.05-.105.166-.148.102-.166.075-.147.06zm15.158 26.801l.08-.101.17-.144.078-.103.168-.15.059-.095.031-.083.055-.098.109-.104.031-.087.059-.116.076-.13.008-.081.025-.092.006-.082.047-.107.055-.141.152-.137.133-.143.141-.176.09-.14.111-.149.076-.09.148-.145.084-.126.127-.153.082-.125.082-.146.084-.148.041-.159-.006-.1-.031-.102-.031-.104-.055-.094-.152.051-.137.1-.135.056-.086-.026-.133.018-.092-.028-.086-.028-.135-.006-.139-.004-.139-.009-.145.066-.146.111-.145.069-.145.007-.145.068-.146.006-.148.048-.15.121-.176.112.055-.14-.074-.066-.045-.081-.154.104-.049-.063-.205.042-.152.019-.178-.014-.18.068-.107.075-.105.22-.076-.014.053-.117.053-.183-.182.024-.158.073-.158.034-.133.104-.002.141-.053.178-.076-.136-.191.119.031-.149.051-.14.135-.126.105-.113.131-.169.023-.199-.184.04-.059-.154-.109-.14-.006-.151-.164-.08-.109-.036-.164-.039-.139-.051-.164-.02-.139-.004-.105.004-.166.001-.164.018-.164.043-.162.063-.166.04-.191.021-.08-.065-.006-.006-.117-.043-.17-.052-.135.05.021-.119-.063-.104-.172-.059-.17-.06-.197-.056-.25.091.051-.174-.064-.132-.195-.014-.145-.022-.107.042-.123-.104-.115-.076.275-.094-.193.032-.225.033-.195.028-.164.142-.168.071-.197-.003-.143-.03-.061-.066-.141.018-.141.038-.197.019-.201.039-.057-.09-.035-.118-.141-.062-.17-.012-.145.009-.063-.191-.139.083.057.118-.137.08-.145.06-.143.052.002.17.119.162.002.163-.201.058-.029-.117-.088-.093.086-.145.084-.1-.059-.119-.09-.141.17-.059.086-.123-.057-.069-.119-.023-.109.079-.084.104-.143.051-.113.076-.17.075-.23-.019-.086.096-.141-.022-.143.048-.086.097-.029.143v.145l-.145.02-.086.118-.174.115-.002.21-.143-.143-.115-.1-.111-.098-.145-.098-.145-.034-.141-.051-.17-.009-.09.088-.172.038-.174.033-.201.032-.113-.079-.145-.012-.053-.125-.141-.086-.141-.106-.08-.128-.082-.13-.051-.127.061-.116.006-.145.063-.166.006-.146.006-.173.09-.116.01-.227-.055-.059-.135-.062-.006-.006-.125-.14-.139-.038-.109-.042-.166.006-.164-.049-.168.029h-.166l-.188-.078-.199.044-.129-.098-.133-.075.17-.074.098-.188.012-.155.047-.252.07.14.094-.141.043-.177.037-.151.039-.154.068-.15.145-.112.01-.131-.074-.064-.16-.025-.131-.047h-.16l-.162.025-.162-.001-.158-.006-.109.035-.047.177-.039.127-.064.093-.014.131-.109.033-.115.057.02.082-.189.009.004-.048-.184-.069-.191.036-.186-.014-.189.004-.105-.026-.09-.128-.15-.092-.148-.09-.086-.159-.061-.151-.055-.177-.084-.132-.061-.123-.031-.146.066-.089-.133-.152-.025-.172.072-.115.025-.156.027-.159.029-.16.076-.145.076-.148.098-.114v-.141l.029-.162-.02-.175.057-.155.115-.082.164-.065.162-.072.148.011.111-.057.111-.058-.047-.155.104-.028-.023.134.156-.047.125.003.172.015.135.086.141.061.135-.057.131.141.006.115.143.059.174.005.107-.034.094.043.064.098.059-.048-.135-.136.008-.056.08-.042.033-.079-.123-.022-.125.012-.096-.047.004-.005.09-.126.137.109.156-.056.121.021.145.051.082-.069.037.121.148.021.15-.007.148-.004.092.095.141.079.039.145.15-.008.131-.071.15-.009.119.126.111.206.072.037.039.173-.035.134-.008.113.105-.021-.061.163.02.113.094.119.068.147.068.17.127.12.047.141.129-.019.082-.047.088-.162.033-.191.008-.193-.068-.198-.066-.2.004-.111-.094-.176-.041-.169-.066-.177-.018-.168-.012-.171.084-.164.082-.164.154-.134.152-.075.152-.104.1-.106.078-.112.148-.079.123-.024.123-.108.121-.112.17-.024.072-.083-.143-.004.146-.11.094.002.049-.086v-.118l-.117-.002-.145-.002.121-.055.094-.029.07.033.07.114-.07-.114-.021-.146-.047-.115-.115-.118.002-.114.027-.146-.16-.119.135.03-.018-.115-.02-.174.045-.112.113-.058-.049.114v.117l-.047.144.113.061-.023.085h.092l-.045.114-.049.173.07-.025.047-.173.094-.146.068-.087-.115-.2-.043-.175.09.06.068.115.135-.115.088-.173.041-.168.002-.009-.088-.058.086-.117.131-.09.129-.062.133-.002.131-.006.129-.064.039-.117.068.084.105-.065.004.061.17-.07-.006-.113.004.085-.129.009-.051-.144-.088-.053.059-.089-.023-.086.057-.122.076-.12-.002-.061.121-.063.141-.069.076-.152.064.055.141-.071.119-.065.115-.099-.012-.119.182-.02.158-.074.166-.139-.008.119.158-.052-.146.141-.094.065-.131.136-.045.149.059.141.135.074.109-.13.109-.136.066-.123.121-.019.152-.108.229-.125.189-.094.021-.119.127-.084.115-.14-.178-.083-.012-.176-.07-.047-.049.157-.094.162.025.145-.123-.008-.131.076-.162-.003-.195-.089-.146-.041-.102-.163-.045-.198.02-.15-.188.082-.174-.157.232-.023.105-.074.121-.104-.016-.115-.088-.076-.158-.037-.164.047-.166.048-.145.104-.127.065-.146.102-.125.127-.088.15-.088.123-.094.122-.154.068.092-.125.072-.119.092-.12.068-.123.086-.15.125-.127.139-.157.152-.012.02-.15.084-.124.156-.075.129-.016.146-.018.162-.051.125.012.006-.003.129-.019.143-.021.119.039.158-.058.201-.036.082-.135.066-.129.061-.135.156-.122.203-.074.104-.143.082-.107-.129-.21-.004-.15-.178-.136-.146.036-.053-.135-.201.014.133-.149-.117-.062-.184.011-.092-.101-.213.011-.064-.135-.176-.057-.102-.097-.033-.168.057-.126-.109-.065-.023-.115-.113-.097-.121-.154-.105-.155-.131-.152-.115-.155-.076-.104-.068.122-.061.092.076.104-.053.15-.123.099-.045.116-.172.104-.143-.187-.107-.019-.102-.135-.01-.112v-.169l-.055-.139.018-.143-.129-.019-.129.008-.131-.079.035-.112-.127-.079-.113-.11-.127-.081-.188.059h-.107l-.148-.059-.162-.031-.109.08-.006.141.092.086-.049.137-.061.14.082.085.02.172-.006.141-.094.135-.119.026-.023.112.104.115.102.062.057.198.027.146.041.2-.006.229-.104.142-.154.136-.154.112-.158.076.059.146.043.148.008.202-.008.17.078.177-.135.169-.186.108.008.116-.137-.126-.061-.149-.1-.122-.074-.151-.123-.158.047-.169.018-.141-.035-.145-.002-.005.076-.254-.154-.099-.195-.021-.197-.024-.174-.168-.15-.075-.119-.079-.08-.159-.15-.141-.174-.09-.156-.146-.15.028-.119.029.029-.109-.025-.153.037-.136-.018-.211-.107-.052-.121-.002-.018-.148.053-.163.072-.189.08-.123.086-.124.129-.145.117-.118.121-.028.047-.159.156-.025.168-.022.029-.168.148-.166.221.04.146-.144.145-.145.033-.163.182-.195-.082-.119.176-.003.045.087.174.075.17-.118.188-.12.053-.184-.154-.097.021-.159.148-.067.021-.198-.17-.056-.004-.11-.152-.066-.146-.019-.031.157-.023.186-.035.182-.16.089-.025.131-.109.039-.08-.202.059-.155.031-.132-.074-.177-.178.188-.047-.173-.041-.146-.104-.104.166-.102-.02-.166-.051-.119-.045-.146-.016-.169.102-.081-.012-.11.107-.029.115.026.096-.115.104-.108.068-.065-.074-.073-.17-.085-.199.004-.086.113-.018.13-.033.151-.047.126-.057.148-.115.052-.107.145-.119.15.049.209.145.176-.123.108-.004.166-.168.126-.041-.006-.098.137-.086-.133.055-.167.002-.007.203-.068-.029-.203-.109-.2-.137.128-.158.063.129.184-.121.075-.088.173-.162-.021-.186-.122-.104-.137-.131-.163-.029-.208-.162-.018-.17-.015-.141.055.082.129-.111.104-.088-.104-.063-.123-.174-.027-.182-.034-.088-.112-.119-.07.098-.075.125.024.029-.146-.076-.145-.133-.099-.072-.135-.066-.15-.006-.156-.139-.102-.152.077-.055-.068.137-.141-.217.075-.025-.094.092-.147.035-.201-.188.096-.111-.024.086-.12-.164-.034-.18-.034-.127.005.002-.103-.086-.06-.139.01-.125.077-.008-.153.037-.14.014-.141-.064-.124.021-.104.029-.122-.051-.091-.07-.071.027-.123-.051-.105.029-.157-.039-.107-.033-.094.1-.132-.043-.145.076-.071.037-.144-.17-.047-.033-.109-.15-.072-.037-.087-.143-.054-.156.017-.123-.009-.053-.104-.029-.095-.162.025-.115.116-.1.146-.16.098-.104.131-.127.118-.111-.001-.008-.16.135-.052-.002-.083-.08-.08-.076-.085-.127-.064-.057.074-.031.104-.104-.004-.105.068-.057.168.027.124-.045.124.084.053.055.069.004.005-.131.024-.127.104-.16.036-.035-.127-.135-.033.072-.135-.078-.053-.104.02-.154-.02-.205.019-.131.138-.152.099-.152.135-.121.113.004.104.131.05-.172.141-.102.015-.121.1.059.052.02.178-.137.162.104-.019-.01.096.037.063-.174.08-.178.071-.111-.033-.135-.024-.115-.074-.154-.001-.035-.116-.082-.087-.125-.021-.076-.104-.123-.083-.072.062.102.106.098.07.057.091.08.045.059.103.086.088.066.087.129-.021.09.06.121.081.135-.002.148.051.129.063.113.008.143-.008.02-.122.109-.024.1.048h.145l.156-.053.125.011.137.06.033.086h-.121l-.086-.076-.178.088-.166.025-.031.093-.115-.004.064.107.131.033.129.021.041.098.168-.032.162-.125-.008.127.043.096-.035.122-.035.181-.012.164.064.114.066.115-.004.155.037.112.113.011-.125.13-.002.147-.053.179-.029.152v.142l-.104.154-.047.177-.094.156-.107.188.168-.156.125-.172.127-.116.025-.155.045.059.123-.078-.074.128-.002.007-.092.068-.105.147-.105.101.111-.002.107-.052-.051.118-.039.127-.043-.133-.133.021-.109.14.068.038-.1.101-.059.114-.025.102v.131l-.053.156.141-.149.086-.202.061-.154.008.103.055.056-.088.075-.066.142-.033.135.006.132.115.034-.154.09-.029.094-.127-.006-.068.183.014.135-.063.226.039.159-.08.163-.018.141-.07.091.027.184.068.136.055.162.01.164.021.165.033.141.139-.001-.1.143.016.122-.029.162-.057.025-.027.162-.137.114.02-.058-.098-.004.146-.071-.045-.144-.102-.081-.078-.177-.061.062-.025.094-.043.149-.061.176-.049.104-.055.108.092.144-.121-.098-.064.099-.063.13-.105.101-.094.145-.105.136-.135.145-.146.137-.078.155-.016.131-.059.17-.102.134-.129.113-.043.072.014.12-.01.133-.057.101-.055.133.006.149.035.133-.068.087.08.095.039-.074.047.074-.055.024-.02.162-.037-.135-.053.136-.004.135.066.049-.066.125-.055.063.047.173.006.175.025.222-.064.146-.006.005.131.155.096.136.078.123.07.047-.023.112.068.047.064.172v.163l-.027.178.01.2-.014.152.018.137-.029.076.043.122-.049.13.049.061-.047.188.094.123.072.199.045.147.045.148-.045.129-.127.019-.129-.104.086.17.006.125.061.099.08.136.098.057.055.146.1.144.016.189-.045.153-.094.07.146.168.078.157.072.185.104.166.035.249.191-.077-.053-.173-.07-.206-.105-.057-.029-.159.055-.031-.055-.147.029-.102-.041-.198.004-.177-.078-.221-.033-.198-.07-.159.01-.177-.037-.175-.057-.188-.033-.171-.072-.134-.021-.14.068-.116.008-.151.029-.141.059-.093.104.155.088.021.049.119.082.106-.047.131.004.188-.018.114.035.174.01.19.072.219.074.222.141.101-.047.156.107.204.035.135.064.032.033.137-.072.08-.023.079.09.13.154.161.043.221.084.158.086.149.076.207.066.142.086.181.07.141v.227l.076.116-.02.101-.113.065.031.097-.111.037.064.192.086.193.002.009.154.142.127.158.074.165.184.149.168.086.072.026.109.146.154.188.143.102.145.1.141.125.148.075.145.123.145.121.176.079.18.103.174.1.191-.027.166-.033.158.042.129.058.127.083.125.104.072.094.123.159.127.13.098.122.156.109.158.082.164.033.158.104.076.09.139.025.16.104.137.023.193.032.059-.065.105.142-.113-.019.107.141.104.114.135.145.133.115.137.115-.004.12-.033.118.049.124.115.041.053.053.119-.081.082.106.191.118.111.106-.031.138.172.04.082.079.086-.038.172.039.17.062.084.1.174.014.023.163.146-.014.174-.056-.145-.104-.025-.095.145-.036.115-.063.088-.113.113.005.145.077.084.124.113.003-.086.088.084.168.145.122.113.117-.027.111.025.181v.134l.031.136-.061.131.115.09-.115.107-.088.147-.203-.01-.119.126.031.108-.146.014.061.108-.176.055-.232.069-.025.156-.002.009-.148.071v.122l-.145.032.059.166v.119l-.057.034.117.047.145.128.029-.115.143.009-.055.072-.059.115-.113.031-.174.064-.172.084v.095l.059.115.119.122-.117.063.119.064.174.066.115.078.115.098.063.127.172.08.117.108.061.107.059.104.057.103.176.137.059.1.115.101.057.065.115.065.059.094.113.125-.025.088.143.093.111.058.111.059.227.071.168.013.166.068.223.05.111.011.166.051.166.033.105.064.111.021.162.056-.004.079.021.089.047.095-.033.075-.006.073.025.067-.033.071-.033.069-.086.071-.006.064-.006.063-.029.063.02.059-.006.05-.082.044.047.062-.113.081-.006.052-.084.057-.029.052-.082.051.047.031.018.062-.102.025-.033.046.021.048.02.04-.006.025.047.023-.107.056.02.033-.074.025-.031.034-.078.033-.098.032-.055.029-.049.028-.07.01-.004.026-.115.001-.051.028.066.018-.004.016.021.017.02.015-.115.019-.004.019-.023.002-.021.009v.009h.02l.045.006h.105l.047-.006h.129l-.068.006.063.003-.066.004-.006.01-.068.007h.041l-.09.005h.041l-.105.003.166.011.229-.011.221-.01.189-.009.174-.013.166-.015.195-.013.156-.013.213-.022.119-.012.121-.015.082-.011.014-.014.021-.004-.008-.002.078-.009.182-.028-.162.021.141-.021.068-.008.127-.017.035-.008-.021-.004-.201.032-.117.011.023-.013-.025-.008.1-.019.119-.01.123-.013.213-.029.186-.036.037-.011-.031-.003.09-.025.063-.021-.072.003.041-.021h.055l.199-.034.199-.037.137-.029.184-.038.182-.041.143-.036.17-.044.068-.032.139-.047.121-.047.01-.024-.107.021-.041-.011.1-.048-.072-.002-.205.028-.029-.015.066-.034.113.002.184-.041.076-.004.148-.026.162-.044.176-.041.141-.038.152-.057.135-.055.047-.032.158-.063.15-.074.08-.056.139-.062.16-.07.162-.075.125-.075.131-.077.082-.066.129-.081.148-.093.141-.075.082-.041.082-.072.061-.066.014-.052.047-.082.033-.063.145-.094.146-.097.168-.108.146-.099.15-.077.186-.109.082-.015.15-.116.139-.058-.025-.027.193-.09.131-.048.137-.06.141-.072.137-.062.031-.063.152-.101.152-.102.037-.092m-13.174-25.974l.008.102-.027.118.104.037.037.154.025.176.162-.063.166-.007.086-.168.027-.176-.107-.094.15-.105.004-.162-.123.03-.105-.062-.119.018-.064.086.014.164-.131-.059-.107.011zm-1.638-.362l.051.126-.104.066.02.126.127.11.133.065.064.143-.174-.002-.139-.081-.121-.056-.105.178.063.14.137.076-.07.22.156.058.191.061.209.008.172.016.17-.043.039.14.092.137.158.014.164-.046v-.127l.139.022.086-.134-.15-.114-.102-.132-.039-.147.111-.157.033-.174.039-.126.154-.102.102-.085-.023-.106-.139-.047-.16.105-.141.112-.074-.153-.133-.014-.045-.107-.182.035.086-.168-.088-.051-.133.027-.139-.014-.131.014-.066.066-.125.024-.113.097zm-5.559 3.126l-.133.156-.004.126-.09.158-.047.159.002.213.076-.17v-.127l.094-.066.08-.168.154-.089-.072-.079-.06-.113zm-.23 1.502l-.029.209.039.154.039.151-.064.061.049.119.01.122.072.063-.051.071.064.163.055.119.109.015.006-.184-.029-.206v-.188l.029-.202-.068-.14-.094-.155-.047-.163-.09-.009zm15.281-4.554l-.061-.06.02-.126-.145-.101.031-.098.104.061.125.08.109-.024.068-.098-.127-.118-.111-.092-.164-.038-.162-.011-.146-.021.135-.027.145-.03-.074-.089-.15-.093-.094.028-.004-.089-.01-.071.061-.08-.1-.075-.113.028.057-.174-.096-.107-.064.067-.113-.143-.139-.098-.168-.069-.1.052-.098-.077-.018-.101.135-.057-.084-.072-.172-.065-.129-.026-.121-.114-.131-.064-.047-.094-.1-.085-.098-.111-.09-.126-.057-.105-.105-.178-.146-.004-.115.081.045.106-.066.021.037.085.01.096-.037.103-.08-.122-.02-.095-.025-.052-.09-.041-.043.064.074.052-.035.058-.102-.075-.146.113.008-.075.092-.058.072-.108-.01-.103-.123-.005-.098.032-.094-.032-.145-.003-.121.078-.146.066-.063.108-.111.125-.027.126.033.113-.141.034.037.131-.186-.047-.191.118-.1.112.064.084-.008.085-.104.003-.051.08-.076.12-.033.133.16-.018.049.089-.041.167-.188.071-.102.084-.133.057-.043.12.006.007.094.078.098-.019.035.099.127.058-.119.037-.084.075.08.061.127.052-.055.068.092.068.17.047.092-.072.156-.033.143-.021.166.078.152.016.033.102.105.086.139.118.053.145.123.105.061.118.033.182.094.108.014.157.08.064.131-.034.027-.116.131.154.146.014.102.136-.209-.037-.154.032.031.185.037.183.178.076.15-.101.043-.165.135.157.07.234-.186.056-.039.15.029.193.057.181.092.146.059.154.201.113.129.165.074.185.133.072.064.131.229.191.08.091.16.152.143.132.232.131.213-.051h.162l.148.094.24.025.072-.095-.018-.18-.068-.158-.047-.165-.014-.182-.17-.174.066-.156.012-.193-.057-.161-.08-.151-.189-.159.137-.032-.037-.141.105-.121.172-.091.084-.175.031-.147.016-.149-.035-.141-.049-.136-.01-.164.025-.117.125-.086.053-.145.072-.122.045-.145.021-.128-.008-.148-.002-.147-.035-.12-.115.062-.164.028-.031.14zm1.324.985l.088-.041.033-.104.1-.018.02.145-.027.176.131-.118.18.074.035.164.162-.151.154-.03.152-.075.004-.178.055-.101-.018-.164.033-.177-.078-.183-.16-.124-.141.035-.166-.114-.043.094-.111-.002.047.12-.01.102-.096.02-.055.103.029.091-.111-.009.123.122-.051.13-.156-.132-.146-.019-.09.037.064.061-.059.053.076.09.032.123zm-9.139-7.583l-.162-.037-.104.032-.063.066-.076.079-.096.013-.031.076.004.08.055.032.102-.019.051-.028.154-.001-.018-.093.221-.011.061-.084-.098-.105zm3.127-.048l-.127.039-.154-.006-.131.028v.098l.07.067.1.051.072-.032.057-.079.064-.091.049-.075zm.412.477l-.006-.087-.111-.052-.027-.089-.129-.047-.098-.043-.104.01.008.083-.055.08.045.07.092.041.02.068-.039.05.047.056.031.057.148-.051.059-.079.119-.067zm4.25.208l.031-.098.018-.084-.07-.104-.1-.104-.1-.032.021.103-.063.067-.107.052-.133.035-.145.001-.16-.009-.16-.006-.156-.002-.176-.016-.158.003-.174-.03-.182-.024-.145-.047-.168-.032-.156-.024-.117.061.051.067.16.027.125-.013.162.056.121.079.195.046.146.011.102.005.166.061.084-.032.201-.009.174.022.057-.053.133.042.18.005.074-.037.135.048.134-.035zm6.028 8.64l.127.064.107-.011.055-.134.021-.146-.021-.18.051-.15-.092-.115-.098-.113-.137-.1-.123-.069-.039-.162-.146-.084-.111-.026-.07.067-.08.08-.012.136.074.146.084-.025.039.098-.049.077-.057.088.063.108.088-.026.02.124.129.01.043-.068.084.182.104.15-.054.079zm-29.653 4.669l-.037.082-.029.001-.041.145-.031.057-.004.1.029-.021.027.016.025.056.033-.003.006-.09.021-.084.002-.086-.002-.083v-.09zm11.274-15.794l-.113.044-.064.032-.064.043-.029.03-.01.021.029.014-.039.038-.021.04-.055.057.045.01.033.011.09-.002.092-.009.064.007.023.022.008.03.012.025.084-.02.068.001.025.027.139-.046.125-.039.055-.004.141-.051.113-.057.02-.056.137-.075-.01.032.064.011.09-.048.008-.042.063.01.063.012.117-.059.143-.043.049.004-.094.061-.051.063-.059.061-.047.064-.014.062-.023.048-.051.065-.047.053.008.037-.004.047-.055.061.012.04-.051.062-.125.08-.137.081-.125.073-.078.022-.025.058-.158.071-.082.065-.102.057.023.014.041.013-.045.047-.121.054-.098.057-.045.047-.096.025.018-.06-.084.02-.084.063-.074.086-.01.043-.102.063-.115.113.096-.029.094-.063.078.037.041.055-.004.075.037.061.037.062-.061.095-.068.087-.104.062-.041.081-.098-.053-.092.008-.109.024.004.082.021.068.033.058-.037.063h.107l.082.034-.053.113-.07.032-.012-.065-.012.003-.107-.017-.139-.015-.066-.022.035-.082.004-.077-.055-.034-.037-.065-.02-.084-.061-.039-.029-.068-.02-.076.025-.079.078-.067-.096.02-.059-.034.041-.069-.084-.024-.082-.021-.117-.004-.104.014-.133.028-.109.024-.15.031-.137.023-.17.056-.121.027-.088.015-.094.029-.02.069.014.058.064.04h.107l.004.061-.092.091.105-.025.105-.004.02.049-.047.083-.074.063.014.042.145-.062.131-.024.061.028-.008.052-.105.055-.002.045.141-.034.082-.052.104-.008.055.045.123-.07.006-.052.121-.026.063.04.049.058.082.021.092.012-.033.086-.096.064.039.056-.029.089-.154.012.057.063.012.065-.016.077-.09.104-.119.079-.127.065.113.022.014.083.035.082.047.069.051.07-.021.079.053.066v.094l.037.071-.057.127-.111.104.094.051.117-.063.168-.069.162-.051.111-.041.035-.085.127-.015-.076.12.039.081.023.037.002.006.023.022.137.019.129-.08.068.072-.133.036-.141.054-.053.087.027.058-.076.111-.137.043-.098.094-.129.135-.076.118.127-.006.092.035.156-.037-.018.11.098.024.068.055.148-.131.146-.112.078-.154.027-.127.145-.07.125-.094.137-.116.113-.122.131-.091.135-.088.006-.003.029-.021.117-.097.094-.107.125-.105.061-.12.086-.107.084-.104.094-.108-.174-.005-.146.028-.045-.046.021-.069.111-.017.104-.077.102-.002-.051.071.061.024.113-.088-.064-.049-.035-.057.123-.098.129-.122.088-.131.107-.112.146-.073.078.057h.137l.123-.043.111-.079.127-.092.063-.098.08-.066.063-.072.082.028.123-.028.07-.052.111-.017.131.035.139-.055.131-.085.182-.052.131-.057.133-.056.162-.066-.107-.017.121-.062-.01-.047-.094-.024-.123-.027.16-.06.162-.092.111-.012.063-.044.014-.055.117-.014.154.022-.031-.066-.039-.064.029-.069.119-.011.15.023.137.046-.018.082.037.081.186.035.174-.021.225-.015.17-.041-.02-.057-.082-.04.121-.043.203-.025h.162l.018.067.137-.023.141.01.098-.025.105-.042.107.089-.029.062.119.001.041-.032-.131-.03-.035-.068.1-.007.084.019.104.021.057-.044-.072-.038.129-.036.123-.031.109-.003-.064.07-.006.002-.104.028-.119.079-.115.063-.121.082-.088.069.012.089.051.071.102.051.107.022.131.007.111-.007.025-.047.113-.003-.08.094.117.013h.139l-.141.063.15.062.121-.059.125-.074.012-.09.16.01-.021-.064.236-.009-.043.056.199-.022.123.018.115-.046.145-.005.184-.011.135-.034.113-.034.043-.053-.002-.075.17.024.158.014.17.03.162.035.035-.098.068-.071-.107-.063-.012-.078.145.015.047.087.068.07.094.033.033.058.109-.007-.076-.091.082-.001.041.062.104.009.02-.072-.1-.083-.016-.052.135.08.131.08-.082.064-.109.037-.059.075.033.081.057-.01-.039-.065.049-.047.1-.023.115.014.141-.036-.004-.068.021-.069.119-.027.102-.051.074-.074-.158-.081.141.014.094-.051.057-.075.164-.004.127-.015.176.019.15.026.051.099-.211-.042-.135-.004-.148.01-.072.042-.113.023.035.092-.09.054-.109.06-.088.058-.088.058.004.084-.131.026-.008.004-.102.03-.061.043.084.091-.074.016-.02.062.123.023.125-.025.131-.025.113-.05.129-.023.176.024.102-.036.037-.066.121-.021.068-.032-.055-.065.049-.075-.027-.064.148-.019.037.068v.067l.074.074.033.075.08.064.023.09.094.08.061.121-.006.099.117.004.01-.056-.025-.079.051-.047.021-.062.109.016.078.036.08-.024.047.057-.135.04.117.047.16.04.072.076.102.064.111.006-.016.075-.121.033.137.051.137.052.125.074.131.051.146.072.109.065.16-.016.129.062.074.082-.059.049.018.077-.156-.038-.102-.091-.088.044-.031.053.074.091.029.103.063-.081.166-.011.162.02.004-.059.139-.008.133.047.006.066.037.089.141.059.135.09.146.08.09-.042.111-.043.047.109.004.078-.018.084.02.078.123.049.08-.063-.047-.075.146.009.074.128-.066.088-.018.102-.148-.015-.127-.012-.15-.014-.078.083-.041.071-.129.04.066-.075v-.008l-.004-.095.029-.089-.02-.083-.027-.091-.01-.097-.094-.108-.135-.098-.137-.058-.145.001-.102.028-.045.08-.021.085-.047.084-.053.082-.021.097.008.106.027.117-.104-.004-.016.077.082.071.016.101-.07.094-.012-.1-.143-.103-.049.074-.047.081-.018.1.211.092-.131.005.133.093-.193-.028.072.071.119.062-.066.063.098.092.148.094.072.12.002.007.01.098.008.008.162.1.059.104.111.027.023-.044.113.107-.109-.019.082.077-.162-.063.107.103.082.104.082-.031.053.139.133.109-.105-.133-.025-.099-.027-.115.164.154.131.07.135.121.135.094.129.075.131.088.158.1.096.123.18.144.121.114.123.117-.086.03.121.104.094.101.002.122.115.136.084.125.082.137.111.015.088.099.131.047.127.057.139.004.092.097.102.031-.002-.106.082.115.123.079.086-.011.096-.068.045-.095-.055-.146-.09-.115-.111-.156.01-.065-.094-.089.08-.028.176.053.152.026.01.002.166.037.148.028.129-.019.094.083.123.015.096.048.002-.094.004-.082-.098-.036-.119-.127v-.093l-.002-.08-.17-.133-.17-.098-.125-.076-.148-.063-.1-.062-.105-.137-.084-.123-.043.023-.08-.103-.08-.057-.1-.008-.094.045-.096.043-.125-.037-.156-.074-.154-.063-.082-.064-.16-.127-.109-.114-.088-.096-.088-.114-.111-.065-.115-.098-.066.051-.113-.079-.076-.014-.064-.071-.111-.066.012-.068-.016-.067-.039-.073.082-.062.156.032.068.079.172.096.145.119.174.129.146.13.162.09.152.037.145-.004.158.089.102.032.061-.065.064-.038.027-.098-.049-.118-.078-.126-.08-.125-.078-.122-.045-.137.09-.061-.053-.086.104-.019-.006.107.133.124.09.07.043.134-.018.099.055.119.047.111.094.107.125.039.117.009.006-.065.146.047.145.051.088.09-.008.069-.09.01-.061.039.043.107.154.102.104.08.168.067.143.047.15.105.207.225.057.094.008.085h-.01l-.127-.018.033.13.053.141.096.142.027.132.068.158-.025.062-.049.058-.045-.085-.098-.001.066.098.021.108.041.084.064.113-.008.084-.092-.079-.084.094-.072-.041-.082.041-.137-.126-.137-.137-.039-.116-.094-.05-.012.081-.094-.053-.121-.098-.094-.047.01.099.092.104.01.115.064.096.092.075.145.083.121.056.084-.03.141.083.104.008.039.075.078-.007.061.104.092.067-.061.043-.018.098.061.092-.029.134.029.113.113.078.039-.047.066.044.055.108-.061.031-.137-.093.012.065.105.103.082.101.076.11.072.126.018.122.035.151.018.12.078.094.104.096.021.098.045.474-.121-.051-.041.092.15.053.16.104-.039.093-.025.122-.107-.023-.027.115.006.116-.025.104.131.103.074-.027.037-.079.104-.033.07-.09.051.011.111.007.057.068.076.016.096-.026.119.052.133.141.131.146.094.106.123.16.008.009.031.093-.016.104-.063.079-.086.123-.029.182-.098.071-.084.107-.051.144-.063.112-.129.062.061.16-.043.116.027.103.17.075.082.118.08.069.123.098.078.119.088.154.107.163.033.146.092.141.094.041.045-.073.092.142.096.129.064.138.047-.129.072-.068.012-.117.043-.077.102-.027.064.033.133.063.08-.049-.031-.2.014-.135.037-.127.055-.113.049-.108.049-.108-.057-.167-.063-.213-.006-.014-.541-1.189v-.011l-.006-.118-.002-.141-.043-.181-.029-.146-.139-.108-.121-.094-.027-.158-.037-.127.068-.066.047-.102.084-.052.006-.122-.066-.142-.041-.154-.018-.136-.076-.112-.025-.104.031-.073.049-.024.033-.089.123.083.105.035.105-.011.082.053.01-.092.104-.013.104.004.061-.046.008-.122.076-.015.059-.032.021-.045.094.03.037-.094.072.047.094.029.092.066.055.094.09.11.055.047-.002-.063v-.006l-.055-.073-.057-.112-.09-.078-.041-.126-.092-.08-.051.05-.115-.125-.076-.107.033-.047.014-.079.072.042.018-.046-.08-.094-.086.021-.051.049-.053.047-.053.065-.035.062-.078-.107.002.152-.059.063-.061.045-.059-.003-.102-.06-.102-.034-.064.046-.064.025-.084.014-.082-.047-.082-.09-.064-.001-.08-.078.004-.069-.057-.132.023-.072.061.072.086.047h.063l-.041-.087-.082-.073.084-.058.104.058h.061l.08.06.061-.06.059-.002.016-.088.094-.064.094-.033.051-.062.068-.036.049-.049.098.089.135.117.115.089.047-.036.086.014.064.009.104.023.078-.005-.006-.131-.043-.158.059-.007-.008-.098.051-.037-.123-.102.01-.085-.018.051-.066-.038-.02.049-.041.023-.066-.025-.059.006-.082-.006-.131-.113.072-.025-.02-.094-.063-.072-.047.006-.02-.093-.068-.087v-.078l-.039-.091-.008-.093.057-.009-.043-.104.094.129.055.037.008.005.129.121-.061-.169.063.069.121.079.043.007.033.064-.035.022.074.068.008-.066.012-.053.076.071.027-.039.088.118-.031-.097-.031-.097.064.072-.039-.109.039-.061-.004-.07-.104-.186-.096-.099-.027-.096-.014-.103.047.001-.008-.066-.072-.107-.035-.079-.109-.142-.104-.13-.018-.086-.029-.062-.119-.144.043.021.098.109.047.018.082.082.125.102.084.061.113.128.131.141.113.129.107.114.104.113.121.15.09.122.084.166.068.131-.012.024.07.09.01.058-.066-.075.041.119.064.134.088.162.082.147.053.119-.002.072.039.122.002.073-.002.053.021.106.018.104.047.137-.064-.027.029.121-.004.092.01.103-.074-.061-.006.089.01.122.035.137.049.151.092.204.004.006.266.323.008.004.051.123.041.12-.004.09-.051.038-.051.074-.021.141-.008.107-.045.053-.01.001-.035-.001-.094-.104-.031.084-.049.07-.018.105-.021.138-.008.137-.041.067-.059.069-.084-.058.008.104-.043.051-.084-.075-.041-.121-.057-.156-.078-.141-.084-.069-.041.029-.123-.09-.029-.099-.082-.14.039.187-.109-.057-.029.081v.116l.041.131.004.119-.063.11.02.119-.066.108.035.138-.008.115-.049.031-.047.091-.031.115-.004.099-.029.099.004.131-.023.151-.035.163.002.006.002.559.004.009.041.119-.006.189-.025.117-.1.051-.021.1-.061.127-.023.101-.129.044-.088-.034-.035.113.072.173.061.137.051.151.049.154-.006.196-.035.155-.012.162.033.171.006.167.059.086.039.158v.131l.137.22.086.043.061.201.023.179.008.189-.043.181.02.18-.057.196-.094.168.01.179.047.169.008.14-.041.165-.004.116.041.169.027.149.035.208-.014.196-.004.182.01.162.035.236.008.164-.027.134.039.156.039.155.109.01.113.035.004.004.047.134-.023.155.107.072.076.104.047.138.031.152.016.172.014.17.055.187-.025.178-.012.165-.057.153.094-.017.082.083.055.142.021.152.037.157.09-.019.09-.017.066-.112.057.162.082-.043.078.04.066.059.084-.023.09.021.076.037.035.114.035.09.045.074.1.023.09-.046.088-.044.078.014.113-.061.09.016.068-.007.082-.027.092-.027.072-.069.057-.072.059-.2.074-.156.043-.178.068-.158.066-.155.047-.118.057-.116.09-.132.055-.098.066-.072.035-.163.041-.15.002-.009.162-.638.004-.024.01-.145.041-.179.035-.143.037-.119.039-.164.041-.139.037-.078.047-.019.037.105.029.129.041-.061.027-.12.021-.143.021-.146.023-.122.016-.122.016-.102.016.104.018-.081.018.043.018.021.006.187.006.163-.002.145-.006.166.012-.041-.006.166.002.123v.047l-.006.098-.018.203.006.061v.083l.006.021.012-.086c.053-.591.078-1.187.078-1.789 0-11.046-8.955-19.999-20-19.999-2.563 0-5 .479-7.252 1.355m19.269 10.948l.059-.057-.039-.16.102-.089-.094-.113.023-.121.094-.075-.021-.151-.008-.015-.111-.538-.006-.015-.037-.136-.1-.12-.102-.028-.076.053h-.01l-.559-.024h-.01l-.123-.038-.148-.074-.109-.023-.086.056-.039.085-.039-.115-.068-.119-.098-.127-.078-.095-.104-.056-.045.106-.037.084-.02.11-.098-.124-.047-.168-.08-.028-.029.127-.057.111.096.125.066.12.084.079-.076.028.018.074h.1l.045-.083.109.158.092.07-.008-.11.109.098.043.158.041-.077.09.067-.076-.149.115.015.129.177.115.025.006-.135.002-.137.092.131.113.014.033-.07.092.135.113.085-.018.098-.084.113.078.029.063.12.041-.084.133.107.008.108.021.138.076.031.025-.117.061-.052.098-.019-.02-.15.084.135-.035.072-.039.085.076.155.047.147.042.163zM21.569 317.385h.64l-.086 1.79v.512c0 1.45.299 3.282.896 4.646 1.577 3.582 4.519 3.88 5.755 3.88 3.155 0 5.243-2.43 5.243-5.499 0-2.899-1.705-5.414-3.41-8.101l-1.107-1.747c-1.706-2.686-2.687-4.859-2.687-6.949 0-3.581 2.729-7.417 8.015-7.417 1.62 0 3.24.383 5.158 1.576.383.257.683.513 1.065.513.171 0 .427-.085.554-.256l.555-.853h.768l-1.833 9.506h-.768l-.17-2.643c-.171-2.687-.64-6.82-4.988-6.82-3.283 0-4.774 2.6-4.774 4.944 0 1.918 1.023 4.008 2.601 6.48l1.705 2.685c1.663 2.601 3.453 4.989 3.453 8.058 0 4.604-3.837 7.417-8.781 7.417-2.132 0-5.329-.597-8.484-3.964l-1.449 1.704h-.94l3.069-9.462zM58.137 314.188c3.582.767 5.713 3.453 5.713 6.735 0 2.004-.767 5.115-4.774 6.608-2.345.853-6.48 1.065-8.611 1.065h-10.36l.085-.896 1.534-.127c.427-.043 1.705-.171 2.26-1.963l7.205-22.849c.042-.171.298-.853.298-1.534 0-1.152-.938-1.407-2.303-1.407h-.341l.043-.811h7.119c.597 0 1.151-.042 1.748-.042 1.108 0 3.538.256 5.372 1.193 2.813 1.449 3.452 3.88 3.452 5.926 0 3.026-1.578 5.201-3.666 6.395-1.364.81-3.282 1.235-4.775 1.364v.343zm-10.784 13.47c.81.085 1.791.129 2.855.129 2.175 0 4.604-.256 6.224-1.108 2.559-1.364 3.453-3.795 3.453-6.736 0-1.022-.127-5.542-5.328-5.542h-3.069l-4.135 13.257zm7.63-14.195c4.858 0 8.014-3.538 8.014-7.93 0-4.092-2.515-5.626-4.817-5.626-2.003 0-2.516 1.279-2.771 2.046l-3.581 11.51h3.155zM78.119 323.779c-.171.598-.469 1.236-.469 1.962 0 1.79 1.619 2.002 3.153 2.002h.512v.854H68.868v-.896l1.918-.086c1.151-.041 2.217-.554 2.942-2.855l7.844-24.896h-6.096l-5.074 5.925h-.767l2.003-6.778h23.959l-2.047 7.119h-.725l-.938-6.266h-6.309l-7.459 23.915z"/><path d="M92.921 313.847c.298-.725.384-.98.384-1.364 0-.512-.256-.597-.341-.597-.384 0-.981.512-1.748 1.449-.341.427-.768.98-2.43 3.155l-.683-.427c.683-1.109 2.003-3.027 3.112-4.22.938-1.023 2.472-2.304 3.922-2.304 1.406 0 1.449 1.151 1.449 1.493 0 .811-.427 2.516-.639 3.197 1.576-2.218 3.751-4.774 6.606-4.774 1.663 0 2.814.938 2.814 2.302 0 1.322-.981 1.918-1.748 1.918-1.023 0-1.321-.81-1.492-1.322-.213-.596-.47-1.107-1.449-1.107-1.066 0-2.686.853-5.286 5.244-1.961 3.282-4.136 8.142-5.585 12.106h-2.941l6.055-14.749zM113.162 322.543c-3.282 5.286-6.224 6.564-8.355 6.564-1.705 0-3.367-.938-3.367-3.41 0-3.282 2.813-7.161 4.561-9.293 4.008-4.945 7.418-6.734 9.933-6.734 1.535 0 2.431.81 2.857 1.832l2.002-1.832h1.536l-5.244 10.614c-2.003 4.093-2.472 5.371-2.472 5.968 0 .427.212.596.426.596h.085c.725-.084 2.771-2.343 3.581-3.324l.512-.597.469.469-1.278 1.578c-1.024 1.278-3.794 4.134-5.415 4.134-.597 0-1.363-.383-1.363-1.492 0-1.107.596-2.557 1.278-4.39l.254-.683zm2.643-12.106c-2.686 0-5.67 4.093-7.076 6.139-1.108 1.62-4.263 6.309-4.263 9.208 0 1.406.81 1.96 1.705 1.96 1.193 0 3.538-.979 7.289-6.948.343-.554 4.051-6.479 4.051-8.654 0-.981-.598-1.705-1.706-1.705zM127.248 314.657c.596-1.45.682-1.962.682-2.26 0-.47-.213-.512-.384-.512-.341 0-1.108.255-3.026 2.941l-1.151 1.619-.64-.383.938-1.406c1.45-2.175 3.539-4.987 5.756-4.987 1.406 0 1.449 1.106 1.449 1.661 0 .981-.17 1.663-1.023 3.751l-1.406 3.496c1.066-1.79 2.898-4.434 4.902-6.438.811-.81 2.686-2.557 4.774-2.557.427 0 1.961.086 1.961 1.833 0 1.236-.683 2.771-1.449 4.477l-4.221 9.549c-.128.255-.34.852-.34 1.15 0 .341.255.383.383.383.767 0 2.729-2.386 3.709-3.708l.64.512c-1.962 2.345-2.473 2.941-2.941 3.41-1.066 1.065-2.388 1.918-3.538 1.918-.598 0-1.535-.34-1.535-1.576 0-.896.511-2.089 1.491-4.221l4.136-9.038c.17-.383.554-1.192.554-1.96 0-.641-.469-.854-.724-.854-.896 0-2.814 1.577-4.86 4.349-1.407 1.918-4.519 6.394-7.077 12.789h-2.855l5.795-13.938zM145.694 319.26c-.384-.596-1.024-1.79-1.024-3.238 0-3.582 2.941-6.438 6.14-6.438 1.96 0 3.41 1.15 3.41 2.344 0 .895-.768 1.45-1.535 1.45-.98 0-1.406-.683-1.79-1.193-.597-.768-.98-1.28-1.833-1.28-1.065 0-2.217.896-2.217 3.028 0 .639.086 1.448.767 2.6l2.005 3.325a7.215 7.215 0 0 1 1.022 3.666c0 3.452-2.217 5.584-5.712 5.584-3.112 0-5.286-1.364-5.286-2.813 0-.725.554-1.577 1.577-1.577.98 0 1.32.64 1.62 1.407.213.469.81 2.217 2.643 2.217 1.364 0 2.941-1.066 2.941-3.197 0-1.448-.768-2.686-1.193-3.411l-1.535-2.474zM163.824 301.101c.086-.214.213-.81.213-.938 0-.384-.725-.639-1.747-.639-.214 0-.427 0-.682.042v-.769l6.223-.084-10.998 25.877c-.256.554-.554 1.193-.554 1.747 0 .427.17.469.256.469.639 0 2.429-1.662 4.646-4.902l.555.555c-1.408 2.089-5.031 6.607-7.333 6.607-.725 0-1.364-.427-1.364-1.534 0-.726.341-1.834.64-2.516l10.145-23.915zM174.529 322.543c-3.282 5.286-6.224 6.564-8.355 6.564-1.705 0-3.367-.938-3.367-3.41 0-3.282 2.813-7.161 4.561-9.293 4.008-4.945 7.418-6.734 9.933-6.734 1.535 0 2.431.81 2.857 1.832l2.003-1.832h1.534l-5.243 10.614c-2.004 4.093-2.472 5.371-2.472 5.968 0 .427.212.596.426.596h.085c.726-.084 2.771-2.343 3.581-3.324l.512-.597.469.469-1.278 1.578c-1.024 1.278-3.794 4.134-5.415 4.134-.597 0-1.363-.383-1.363-1.492 0-1.107.596-2.557 1.278-4.39l.254-.683zm2.644-12.106c-2.686 0-5.67 4.093-7.078 6.139-1.107 1.62-4.262 6.309-4.262 9.208 0 1.406.811 1.96 1.704 1.96 1.194 0 3.539-.979 7.29-6.948.342-.554 4.051-6.479 4.051-8.654 0-.981-.598-1.705-1.705-1.705zM186.547 324.419c-.426.896-.766 1.577-.766 2.132 0 .469.212.597.383.597.938 0 3.794-3.197 4.859-4.392l.64.598c-1.833 2.216-5.328 5.712-7.46 5.712-.469 0-1.535-.171-1.535-1.534 0-.384.043-.811.598-2.089l6.011-14.068h-2.857l.384-1.407h3.155l1.236-3.069 3.794-1.748-2.004 4.817h3.836l-.426 1.407h-4.007l-5.841 13.044zM200.164 314.06c.512-1.151.553-1.237.553-1.62v-.086c0-.169-.041-.426-.383-.426-1.15 0-3.625 3.624-4.52 4.817l-.553-.427c2.727-4.178 5.498-6.606 7.418-6.606.852 0 1.277.554 1.277 1.449 0 1.192-.852 2.686-1.107 3.324l-4.646 10.999c-.215.469-.383.81-.383 1.151 0 .255.168.384.34.384 1.023 0 3.41-3.112 4.178-4.306l.598.512c-2.09 3.153-4.775 5.882-6.736 5.882-.469 0-1.535-.17-1.535-1.492 0-.895.383-1.874 1.322-4.05l4.177-9.505zm3.709-11.297c-1.066 0-1.92-.895-1.92-2.003 0-1.194.896-2.047 2.004-2.047 1.152 0 2.047.895 2.047 1.919 0 1.15-.981 2.131-2.131 2.131zM220.689 315.467c0 3.708-1.705 7.247-3.41 9.507-2.258 2.941-4.9 4.134-7.119 4.134-2.898 0-4.732-2.344-4.732-5.84 0-3.495 1.664-6.906 3.326-9.166 2.389-3.197 5.158-4.476 7.205-4.476 2.344 0 4.73 1.663 4.73 5.841zm-2.898 1.875c.768-2.13.854-3.367.854-4.05 0-2.174-1.449-2.685-2.344-2.685-1.92 0-3.752 2.6-5.457 5.583-2.559 4.392-3.369 7.632-3.369 9.336 0 1.748.854 2.771 2.217 2.771 1.92 0 3.326-2.046 4.094-3.154 1.831-2.728 3.196-5.498 4.005-7.801zM227.658 314.657c.596-1.45.682-1.962.682-2.26 0-.47-.213-.512-.385-.512-.342 0-1.107.255-3.025 2.941l-1.152 1.619-.639-.383.938-1.406c1.449-2.175 3.537-4.987 5.756-4.987 1.404 0 1.449 1.106 1.449 1.661 0 .981-.172 1.663-1.023 3.751l-1.406 3.496c1.064-1.79 2.898-4.434 4.902-6.438.811-.81 2.686-2.557 4.773-2.557.428 0 1.961.086 1.961 1.833 0 1.236-.682 2.771-1.449 4.477l-4.221 9.549c-.127.255-.34.852-.34 1.15 0 .341.254.383.383.383.768 0 2.729-2.386 3.709-3.708l.641.512c-1.963 2.345-2.475 2.941-2.941 3.41-1.066 1.065-2.389 1.918-3.539 1.918-.598 0-1.535-.34-1.535-1.576 0-.896.512-2.089 1.492-4.221l4.135-9.038c.17-.383.555-1.192.555-1.96 0-.641-.469-.854-.725-.854-.895 0-2.814 1.577-4.861 4.349-1.406 1.918-4.518 6.394-7.076 12.789h-2.855l5.796-13.938zM244.471 324.12a2.385 2.385 0 0 1 2.389 2.388c0 1.279-1.109 2.345-2.389 2.345-1.322 0-2.387-1.065-2.387-2.345 0-1.364 1.021-2.388 2.387-2.388zM262.094 323.396c-2.729 4.562-5.115 5.67-7.248 5.67-3.707 0-3.879-3.368-3.879-4.092 0-3.496 2.174-7.205 4.049-9.635 2.602-3.411 5.5-5.669 8.654-5.669 1.494 0 2.73.638 2.73 2.002 0 1.108-.811 1.663-1.621 1.663-.895 0-1.363-.597-1.363-1.364 0-.255.041-.427.17-.682.084-.128.213-.299.213-.513 0-.169-.129-.425-.598-.425-1.406 0-3.154 1.32-4.475 3.197-.854 1.236-2.217 3.579-3.496 6.692-1.152 2.813-1.535 4.519-1.535 5.628 0 1.236.469 2.429 1.705 2.429 2.217 0 4.646-3.026 6.225-5.286l.469.385zM280.408 315.467c0 3.708-1.705 7.247-3.41 9.507-2.26 2.941-4.902 4.134-7.119 4.134-2.9 0-4.732-2.344-4.732-5.84 0-3.495 1.662-6.906 3.324-9.166 2.389-3.197 5.16-4.476 7.205-4.476 2.344 0 4.732 1.663 4.732 5.841zm-2.9 1.875c.77-2.13.854-3.367.854-4.05 0-2.174-1.449-2.685-2.344-2.685-1.92 0-3.752 2.6-5.457 5.583-2.557 4.392-3.367 7.632-3.367 9.336 0 1.748.852 2.771 2.215 2.771 1.92 0 3.326-2.046 4.094-3.154 1.833-2.728 3.196-5.498 4.005-7.801zM287.588 314.06c.127-.342.469-1.279.469-1.62 0-.086 0-.554-.342-.554-.725 0-1.748 1.15-3.666 3.837l-.555.768-.639-.427c.342-.512 1.791-2.729 2.984-4.093.596-.682 2.088-2.259 3.795-2.259.383 0 1.363.127 1.363 1.491 0 1.194-.768 3.197-1.066 3.923l-1.363 3.452c1.15-1.961 2.643-4.049 4.219-5.712 2.303-2.473 4.094-3.24 5.373-3.24.512 0 2.045.086 2.045 1.918 0 .597-.17 1.364-.809 2.941l-1.877 4.52c1.109-1.747 2.814-4.263 4.434-6.011.854-.938 3.24-3.368 5.629-3.368 1.363 0 1.918.938 1.918 1.96 0 1.45-.896 3.199-1.578 4.69l-3.709 8.271c-.639 1.449-.725 1.619-.725 2.004 0 .128 0 .425.256.425.682 0 2.387-1.704 3.838-3.665l.639.512c-1.662 2.131-4.135 5.285-6.438 5.285-1.064 0-1.535-.81-1.535-1.533 0-1.408 1.152-3.496 1.748-4.818l3.496-7.674c.682-1.491.938-2.216.938-2.77 0-.512-.34-.854-.768-.854-1.107 0-4.049 2.303-8.143 9.251-1.449 2.473-2.898 5.414-4.006 7.887h-2.9l5.926-14.281c.172-.383.555-1.407.555-1.962 0-.596-.342-.895-.725-.895-.98 0-3.07 1.705-5.457 5.116-2.514 3.538-4.773 7.802-6.479 12.021h-2.857l6.012-14.536z"/><g><path d="M22.359 335.449c2.072 0 3.49 1.364 3.49 3.385 0 2.02-1.425 3.392-3.498 3.392h-2.826v4.101H18.5V335.45h3.859zm-2.834 5.857h2.593c1.673 0 2.676-.927 2.676-2.472 0-1.546-.995-2.465-2.676-2.465h-2.593v4.937zM27.043 338.208h.935v1.439h.03c.279-.965 1.048-1.53 2.058-1.53.265 0 .506.046.634.083v.987c-.136-.06-.422-.112-.769-.112-1.153 0-1.893.904-1.893 2.216v5.035h-.995v-8.118zM31.081 342.264c0-2.533 1.455-4.146 3.687-4.146s3.693 1.613 3.693 4.146c0 2.532-1.462 4.153-3.693 4.153s-3.687-1.621-3.687-4.153zm6.362 0c0-2.028-1.025-3.257-2.676-3.257-1.644 0-2.669 1.236-2.669 3.257 0 2.027 1.025 3.256 2.669 3.256 1.651 0 2.676-1.229 2.676-3.256zM40.061 339.045H38.93v-.837h1.131v-.928c0-1.424.656-2.05 2.005-2.05.249 0 .468.022.671.067v.837a2.866 2.866 0 0 0-.588-.06c-.724 0-1.078.347-1.085 1.221v.912h1.65v.837h-1.65v7.281h-1.003v-7.28zM50.184 344.027c-.241 1.387-1.576 2.39-3.34 2.39-2.246 0-3.679-1.576-3.679-4.131 0-2.518 1.433-4.169 3.618-4.169 2.134 0 3.506 1.546 3.506 3.958v.437h-6.091v.053c0 1.84 1.056 2.971 2.668 2.971 1.222 0 2.088-.618 2.329-1.508h.989zm-5.986-2.329h5.05c-.015-1.613-1.01-2.699-2.479-2.699-1.456 0-2.48 1.086-2.571 2.699zM54.366 338.117c1.643 0 2.834.98 2.917 2.375h-.958c-.098-.92-.844-1.53-1.989-1.53-1.086 0-1.899.558-1.899 1.379 0 .664.482 1.048 1.515 1.305l1.244.301c1.628.407 2.246.995 2.246 2.148 0 1.372-1.304 2.322-3.128 2.322-1.741 0-2.993-.995-3.106-2.375h1.011c.12.928.927 1.538 2.155 1.538 1.214 0 2.059-.558 2.059-1.417 0-.687-.415-1.063-1.516-1.334l-1.372-.348c-1.401-.354-2.096-1.018-2.096-2.088-.001-1.341 1.243-2.276 2.917-2.276zM61.571 338.117c1.644 0 2.834.98 2.917 2.375h-.957c-.098-.92-.845-1.53-1.99-1.53-1.085 0-1.899.558-1.899 1.379 0 .664.482 1.048 1.516 1.305l1.243.301c1.628.407 2.246.995 2.246 2.148 0 1.372-1.304 2.322-3.128 2.322-1.741 0-2.992-.995-3.105-2.375h1.01c.121.928.928 1.538 2.156 1.538 1.214 0 2.058-.558 2.058-1.417 0-.687-.414-1.063-1.515-1.334l-1.372-.348c-1.402-.354-2.096-1.018-2.096-2.088-.001-1.341 1.243-2.276 2.916-2.276zM65.866 335.932a.675.675 0 1 1 .679.671.685.685 0 0 1-.679-.671zm.181 2.276h.995v8.118h-.995v-8.118zM68.432 342.264c0-2.533 1.455-4.146 3.687-4.146s3.693 1.613 3.693 4.146c0 2.532-1.462 4.153-3.693 4.153s-3.687-1.621-3.687-4.153zm6.362 0c0-2.028-1.025-3.257-2.676-3.257-1.644 0-2.669 1.236-2.669 3.257 0 2.027 1.025 3.256 2.669 3.256 1.651 0 2.676-1.229 2.676-3.256zM77.188 338.208h.935v1.515h.03c.452-1.01 1.364-1.605 2.676-1.605 1.787 0 2.88 1.146 2.88 2.985v5.224h-.995v-5.065c0-1.433-.784-2.254-2.163-2.254-1.447 0-2.367 1.033-2.367 2.548v4.771h-.995v-8.119zM85.024 344.064c0-1.387 1.04-2.193 2.984-2.329l2.495-.166v-.693c0-1.184-.746-1.869-2.058-1.869-1.131 0-1.922.58-2.103 1.545h-.958c.083-1.424 1.364-2.435 3.068-2.435 1.861 0 3.045 1.04 3.045 2.676v5.533h-.947v-1.553h-.022c-.438.987-1.538 1.644-2.782 1.644-1.621 0-2.722-.95-2.722-2.353zm5.48-.791v-.897l-2.374.166c-1.364.091-2.088.618-2.088 1.53 0 .874.769 1.47 1.899 1.47 1.455 0 2.563-.987 2.563-2.269zM93.293 334.975h.995v11.352h-.995v-11.352zM100.729 346.326h-1.025v-10.877h3.89c2.125 0 3.482 1.243 3.482 3.181 0 1.538-.875 2.698-2.329 3.075l2.63 4.621h-1.198l-2.502-4.455h-2.947v4.455zm0-5.367h2.781c1.575 0 2.502-.844 2.502-2.299 0-1.439-.957-2.291-2.54-2.291h-2.743v4.59zM114.963 346.326h-.942v-1.522h-.022c-.445.995-1.417 1.613-2.698 1.613-1.771 0-2.865-1.146-2.865-2.978v-5.231h.995v5.065c0 1.447.776 2.246 2.148 2.246 1.417 0 2.382-1.003 2.382-2.54v-4.771h1.003v8.118zM119.453 338.117c1.644 0 2.834.98 2.917 2.375h-.957c-.098-.92-.845-1.53-1.99-1.53-1.085 0-1.899.558-1.899 1.379 0 .664.482 1.048 1.516 1.305l1.243.301c1.628.407 2.246.995 2.246 2.148 0 1.372-1.304 2.322-3.128 2.322-1.741 0-2.992-.995-3.105-2.375h1.01c.121.928.928 1.538 2.156 1.538 1.214 0 2.058-.558 2.058-1.417 0-.687-.414-1.063-1.515-1.334l-1.372-.348c-1.402-.354-2.096-1.018-2.096-2.088-.001-1.341 1.243-2.276 2.916-2.276zM126.659 338.117c1.643 0 2.834.98 2.917 2.375h-.958c-.098-.92-.844-1.53-1.989-1.53-1.086 0-1.899.558-1.899 1.379 0 .664.482 1.048 1.515 1.305l1.244.301c1.628.407 2.246.995 2.246 2.148 0 1.372-1.304 2.322-3.128 2.322-1.741 0-2.993-.995-3.106-2.375h1.011c.12.928.927 1.538 2.155 1.538 1.214 0 2.059-.558 2.059-1.417 0-.687-.415-1.063-1.516-1.334l-1.372-.348c-1.401-.354-2.096-1.018-2.096-2.088-.001-1.341 1.243-2.276 2.917-2.276zM130.954 335.932a.674.674 0 1 1 0 0zm.181 2.276h.995v8.118h-.995v-8.118zM133.525 344.064c0-1.387 1.04-2.193 2.984-2.329l2.495-.166v-.693c0-1.184-.746-1.869-2.058-1.869-1.131 0-1.922.58-2.103 1.545h-.958c.083-1.424 1.364-2.435 3.068-2.435 1.861 0 3.045 1.04 3.045 2.676v5.533h-.949v-1.553h-.022c-.438.987-1.538 1.644-2.782 1.644-1.619 0-2.72-.95-2.72-2.353zm5.48-.791v-.897l-2.374.166c-1.364.091-2.088.618-2.088 1.53 0 .874.769 1.47 1.899 1.47 1.455 0 2.563-.987 2.563-2.269zM141.745 338.208h.935v1.515h.03c.452-1.01 1.364-1.605 2.676-1.605 1.786 0 2.879 1.146 2.879 2.985v5.224h-.994v-5.065c0-1.433-.784-2.254-2.164-2.254-1.447 0-2.366 1.033-2.366 2.548v4.771h-.995v-8.119zM156.474 346.326v-9.942h-3.641v-.935h8.313v.935h-3.641v9.942h-1.031zM160.938 338.208h.935v1.439h.03c.278-.965 1.048-1.53 2.058-1.53.264 0 .505.046.633.083v.987c-.136-.06-.422-.112-.769-.112-1.153 0-1.892.904-1.892 2.216v5.035h-.995v-8.118zM165.092 344.064c0-1.387 1.04-2.193 2.984-2.329l2.495-.166v-.693c0-1.184-.746-1.869-2.058-1.869-1.131 0-1.922.58-2.103 1.545h-.958c.083-1.424 1.364-2.435 3.068-2.435 1.861 0 3.045 1.04 3.045 2.676v5.533h-.949v-1.553h-.022c-.438.987-1.538 1.644-2.782 1.644-1.62 0-2.72-.95-2.72-2.353zm5.479-.791v-.897l-2.374.166c-1.364.091-2.088.618-2.088 1.53 0 .874.769 1.47 1.899 1.47 1.456 0 2.563-.987 2.563-2.269zM173.312 338.208h.935v1.515h.03c.452-1.01 1.364-1.605 2.676-1.605 1.786 0 2.879 1.146 2.879 2.985v5.224h-.994v-5.065c0-1.433-.784-2.254-2.164-2.254-1.447 0-2.366 1.033-2.366 2.548v4.771h-.995v-8.119zM184.241 338.117c1.643 0 2.834.98 2.917 2.375h-.958c-.098-.92-.844-1.53-1.989-1.53-1.086 0-1.899.558-1.899 1.379 0 .664.482 1.048 1.515 1.305l1.244.301c1.628.407 2.246.995 2.246 2.148 0 1.372-1.304 2.322-3.128 2.322-1.741 0-2.993-.995-3.106-2.375h1.011c.12.928.927 1.538 2.155 1.538 1.214 0 2.059-.558 2.059-1.417 0-.687-.415-1.063-1.516-1.334l-1.372-.348c-1.401-.354-2.096-1.018-2.096-2.088-.001-1.341 1.243-2.276 2.917-2.276zM188.758 334.975h.995v11.352h-.995v-11.352zM191.199 344.064c0-1.387 1.041-2.193 2.985-2.329l2.495-.166v-.693c0-1.184-.746-1.869-2.058-1.869-1.131 0-1.923.58-2.103 1.545h-.958c.083-1.424 1.364-2.435 3.067-2.435 1.862 0 3.046 1.04 3.046 2.676v5.533h-.95v-1.553h-.021c-.438.987-1.539 1.644-2.782 1.644-1.619 0-2.721-.95-2.721-2.353zm5.481-.791v-.897l-2.374.166c-1.364.091-2.089.618-2.089 1.53 0 .874.77 1.47 1.9 1.47 1.455 0 2.563-.987 2.563-2.269zM200.619 336.263v1.945h1.605v.837h-1.605v5.246c0 .844.332 1.206 1.086 1.206.105 0 .498-.022.559-.03v.852c-.107.03-.543.053-.754.053-1.342 0-1.885-.58-1.885-2.042v-5.284h-1.162v-.837h1.162v-1.945h.994zM203.316 335.932c0-.377.309-.679.678-.679a.674.674 0 0 1 0 1.35.684.684 0 0 1-.678-.671zm.18 2.276h.996v8.118h-.996v-8.118zM205.885 342.264c0-2.533 1.455-4.146 3.686-4.146 2.232 0 3.693 1.613 3.693 4.146 0 2.532-1.461 4.153-3.693 4.153-2.231 0-3.686-1.621-3.686-4.153zm6.361 0c0-2.028-1.025-3.257-2.676-3.257-1.643 0-2.668 1.236-2.668 3.257 0 2.027 1.025 3.256 2.668 3.256 1.651 0 2.676-1.229 2.676-3.256zM214.641 338.208h.936v1.515h.029c.453-1.01 1.365-1.605 2.676-1.605 1.787 0 2.879 1.146 2.879 2.985v5.224h-.994v-5.065c0-1.433-.783-2.254-2.164-2.254-1.447 0-2.365 1.033-2.365 2.548v4.771h-.996v-8.119zM226.965 343.371c.113 1.305 1.342 2.193 3.045 2.193 1.629 0 2.797-.889 2.797-2.11 0-1.018-.701-1.62-2.314-2.027l-1.348-.347c-2.014-.513-2.91-1.364-2.91-2.797 0-1.756 1.582-3.008 3.723-3.008 2.119 0 3.672 1.252 3.732 2.978h-1.033c-.098-1.229-1.184-2.043-2.729-2.043-1.508 0-2.623.837-2.623 2.035 0 .936.678 1.485 2.275 1.893l1.176.302c2.188.55 3.107 1.387 3.107 2.901 0 1.907-1.539 3.159-3.943 3.159-2.275 0-3.875-1.259-3.988-3.129h1.033zM241.881 344.027c-.24 1.387-1.576 2.39-3.34 2.39-2.246 0-3.678-1.576-3.678-4.131 0-2.518 1.432-4.169 3.617-4.169 2.135 0 3.506 1.546 3.506 3.958v.437h-6.09v.053c0 1.84 1.055 2.971 2.668 2.971 1.221 0 2.088-.618 2.328-1.508h.989zm-5.985-2.329h5.049c-.014-1.613-1.01-2.699-2.479-2.699-1.454 0-2.48 1.086-2.57 2.699zM243.367 338.208h.936v1.439h.029c.279-.965 1.049-1.53 2.059-1.53.264 0 .504.046.633.083v.987c-.137-.06-.422-.112-.77-.112-1.152 0-1.891.904-1.891 2.216v5.035h-.996v-8.118zM251.758 346.326h-1.055l-3.031-8.118h1.049l2.494 7.056h.023l2.502-7.056h1.041l-3.023 8.118zM255.629 335.932a.674.674 0 1 1 0 0zm.182 2.276h.994v8.118h-.994v-8.118zM264.193 340.764c-.195-.995-1.047-1.757-2.344-1.757-1.59 0-2.639 1.281-2.639 3.257 0 2.013 1.057 3.256 2.646 3.256 1.244 0 2.111-.633 2.344-1.696h.988c-.234 1.53-1.539 2.594-3.332 2.594-2.209 0-3.664-1.591-3.664-4.153 0-2.511 1.447-4.146 3.648-4.146 1.9 0 3.145 1.214 3.34 2.646h-.987zM273.059 344.027c-.24 1.387-1.574 2.39-3.338 2.39-2.246 0-3.68-1.576-3.68-4.131 0-2.518 1.434-4.169 3.619-4.169 2.133 0 3.504 1.546 3.504 3.958v.437h-6.09v.053c0 1.84 1.055 2.971 2.668 2.971 1.221 0 2.088-.618 2.33-1.508h.987zm-5.985-2.329h5.051c-.016-1.613-1.01-2.699-2.48-2.699-1.456 0-2.481 1.086-2.571 2.699zM277.242 338.117c1.643 0 2.834.98 2.916 2.375h-.957c-.098-.92-.844-1.53-1.99-1.53-1.084 0-1.898.558-1.898 1.379 0 .664.482 1.048 1.516 1.305l1.242.301c1.629.407 2.246.995 2.246 2.148 0 1.372-1.303 2.322-3.127 2.322-1.742 0-2.992-.995-3.105-2.375h1.01c.121.928.928 1.538 2.156 1.538 1.213 0 2.057-.558 2.057-1.417 0-.687-.414-1.063-1.514-1.334l-1.373-.348c-1.402-.354-2.096-1.018-2.096-2.088-.001-1.341 1.243-2.276 2.917-2.276z"/></g></g><g fill="#434d57"><path d="M302.251 154.123h8.862v8.862h-8.862zM315.107 154.123h8.862v8.862h-8.862zM328.462 154.123h8.862v8.862h-8.862zM341.318 154.123h8.862v8.862h-8.862zM354.175 154.123h8.862v8.862h-8.862zM367.031 154.123h8.862v8.862h-8.862zM302.251 167.009h8.862v8.862h-8.862zM315.107 167.009h8.862v8.862h-8.862zM328.462 167.009h8.862v8.862h-8.862zM341.318 167.009h8.862v8.862h-8.862zM354.175 167.009h8.862v8.862h-8.862zM367.031 167.009h8.862v8.862h-8.862zM302.251 180.778h8.862v8.861h-8.862zM315.107 180.778h8.862v8.861h-8.862zM328.462 180.778h8.862v8.861h-8.862zM341.318 180.778h8.862v8.861h-8.862zM354.175 180.778h8.862v8.861h-8.862zM367.031 180.778h8.862v8.861h-8.862zM302.251 193.664h8.862v8.861h-8.862zM315.107 193.664h8.862v8.861h-8.862zM328.462 193.664h8.862v8.861h-8.862zM341.318 193.664h8.862v8.861h-8.862zM354.175 193.664h8.862v8.861h-8.862zM367.031 193.664h8.862v8.861h-8.862z"/></g><g fill="#434d57"><path d="M124.322 150.24h8.86v8.862h-8.86zM137.177 150.24h8.862v8.862h-8.862zM150.533 150.24h8.862v8.862h-8.862zM163.39 150.24h8.862v8.862h-8.862zM176.246 150.24h8.86v8.862h-8.86zM189.101 150.24h8.862v8.862h-8.862zM202.457 150.24h8.862v8.862h-8.862zM215.313 150.24h8.862v8.862h-8.862zM124.322 163.126h8.86v8.862h-8.86zM137.177 163.126h8.862v8.862h-8.862zM150.533 163.126h8.862v8.862h-8.862zM163.39 163.126h8.862v8.862h-8.862zM176.246 163.126h8.86v8.862h-8.86zM189.101 163.126h8.862v8.862h-8.862zM202.457 163.126h8.862v8.862h-8.862zM215.313 163.126h8.862v8.862h-8.862zM124.322 176.894h8.86v8.863h-8.86zM137.177 176.894h8.862v8.863h-8.862zM150.533 176.894h8.862v8.863h-8.862zM163.39 176.894h8.862v8.863h-8.862zM176.246 176.894h8.86v8.863h-8.86zM124.322 189.78h8.86v8.862h-8.86zM137.177 189.78h8.862v8.862h-8.862zM150.533 189.78h8.862v8.862h-8.862zM163.39 189.78h8.862v8.862h-8.862zM176.246 189.78h8.86v8.862h-8.86zM189.101 189.78h8.862v8.862h-8.862zM202.457 189.78h8.862v8.862h-8.862zM215.313 189.78h8.862v8.862h-8.862zM124.322 210.609h8.86v8.862h-8.86zM137.177 210.609h8.862v8.862h-8.862zM150.533 210.609h8.862v8.862h-8.862zM163.39 210.609h8.862v8.862h-8.862zM176.246 210.609h8.86v8.862h-8.86zM189.101 210.609h8.862v8.862h-8.862zM202.457 210.609h8.862v8.862h-8.862zM215.313 210.609h8.862v8.862h-8.862zM124.322 223.495h8.86v8.862h-8.86zM137.177 223.495h8.862v8.862h-8.862zM150.533 223.495h8.862v8.862h-8.862zM163.39 223.495h8.862v8.862h-8.862zM176.246 223.495h8.86v8.862h-8.86zM189.101 223.495h8.862v8.862h-8.862zM202.457 223.495h8.862v8.862h-8.862zM215.313 223.495h8.862v8.862h-8.862z"/></g><g fill="#454c55"><path d="M65.999 78.514h4.789v4.788h-4.789zM65.999 85.476h4.789v4.79h-4.789zM65.999 92.916h4.789v4.789h-4.789zM65.999 99.88h4.789v4.79h-4.789zM65.999 115.759h4.789v4.789h-4.789zM65.999 122.722h4.789v4.789h-4.789zM65.999 153.005h4.789v4.788h-4.789zM65.999 159.968h4.789v4.788h-4.789zM65.999 167.407h4.789v4.79h-4.789zM65.999 174.371h4.789v4.789h-4.789zM65.999 188.661h4.789v4.788h-4.789zM65.999 195.624h4.789v4.789h-4.789zM59.052 78.514h4.789v4.788h-4.789zM59.052 85.476h4.789v4.79h-4.789zM59.052 92.916h4.789v4.789h-4.789zM59.052 99.88h4.789v4.79h-4.789zM59.052 115.759h4.789v4.789h-4.789zM59.052 122.722h4.789v4.789h-4.789zM59.052 153.005h4.789v4.788h-4.789zM59.052 159.968h4.789v4.788h-4.789zM59.052 167.407h4.789v4.79h-4.789zM59.052 174.371h4.789v4.789h-4.789zM51.834 78.514h4.79v4.788h-4.79zM51.834 85.476h4.79v4.79h-4.79zM51.834 92.916h4.79v4.789h-4.79zM51.834 99.88h4.79v4.79h-4.79zM51.834 115.759h4.79v4.789h-4.79zM51.834 122.722h4.79v4.789h-4.79zM51.834 153.005h4.79v4.788h-4.79zM51.834 159.968h4.79v4.788h-4.79zM51.834 167.407h4.79v4.79h-4.79zM51.834 174.371h4.79v4.789h-4.79zM44.888 78.514h4.79v4.788h-4.79zM44.888 85.476h4.79v4.79h-4.79zM44.888 92.916h4.79v4.789h-4.79zM44.888 99.88h4.79v4.79h-4.79zM44.888 115.759h4.79v4.789h-4.79zM44.888 122.722h4.79v4.789h-4.79zM44.888 153.005h4.79v4.788h-4.79zM44.888 159.968h4.79v4.788h-4.79zM44.888 167.407h4.79v4.79h-4.79zM44.888 174.371h4.79v4.789h-4.79zM37.941 78.514h4.788v4.788h-4.788zM37.941 85.476h4.788v4.79h-4.788zM37.941 92.916h4.788v4.789h-4.788zM37.941 99.88h4.788v4.79h-4.788zM37.941 115.759h4.788v4.789h-4.788zM37.941 122.722h4.788v4.789h-4.788zM37.941 130.162h4.788v4.789h-4.788zM37.941 137.125h4.788v4.789h-4.788zM37.941 153.005h4.788v4.788h-4.788zM37.941 159.968h4.788v4.788h-4.788zM37.941 167.407h4.788v4.79h-4.788zM37.941 174.371h4.788v4.789h-4.788zM30.994 78.514h4.788v4.788h-4.788zM30.994 85.476h4.788v4.79h-4.788zM30.994 92.916h4.788v4.789h-4.788zM30.994 99.88h4.788v4.79h-4.788zM30.994 115.759h4.788v4.789h-4.788zM30.994 122.722h4.788v4.789h-4.788zM30.994 130.162h4.788v4.789h-4.788zM30.994 137.125h4.788v4.789h-4.788zM30.994 153.005h4.788v4.788h-4.788zM30.994 159.968h4.788v4.788h-4.788zM30.994 167.407h4.788v4.79h-4.788zM30.994 174.371h4.788v4.789h-4.788zM23.777 78.514h4.788v4.788h-4.788zM23.777 85.476h4.788v4.79h-4.788zM23.777 92.916h4.788v4.789h-4.788zM23.777 99.88h4.788v4.79h-4.788zM23.777 115.759h4.788v4.789h-4.788zM23.777 122.722h4.788v4.789h-4.788zM23.777 130.162h4.788v4.789h-4.788zM23.777 137.125h4.788v4.789h-4.788zM23.777 153.005h4.788v4.788h-4.788zM23.777 159.968h4.788v4.788h-4.788zM23.777 167.407h4.788v4.79h-4.788zM23.777 174.371h4.788v4.789h-4.788zM16.829 78.514h4.789v4.788h-4.789zM16.829 85.476h4.789v4.79h-4.789zM16.829 92.916h4.789v4.789h-4.789zM16.829 99.88h4.789v4.79h-4.789zM16.829 115.759h4.789v4.789h-4.789zM16.829 122.722h4.789v4.789h-4.789zM16.829 130.162h4.789v4.789h-4.789zM16.829 137.125h4.789v4.789h-4.789zM16.829 153.005h4.789v4.788h-4.789zM16.829 159.968h4.789v4.788h-4.789zM16.829 167.407h4.789v4.79h-4.789zM16.829 174.371h4.789v4.789h-4.789zM16.829 188.661h4.789v4.788h-4.789zM16.829 195.624h4.789v4.789h-4.789z"/></g><g fill="#454c55"><path d="M274.804 121.945h4.788v4.788h-4.788zM274.804 114.981h4.788v4.789h-4.788zM274.804 107.542h4.788v4.788h-4.788zM274.804 100.578h4.788v4.789h-4.788zM274.804 83.641h4.788v4.789h-4.788zM274.804 76.678h4.788v4.788h-4.788zM274.804 69.237h4.788v4.788h-4.788zM274.804 62.273h4.788v4.79h-4.788zM281.751 121.945h4.788v4.788h-4.788zM281.751 114.981h4.788v4.789h-4.788zM281.751 107.542h4.788v4.788h-4.788zM281.751 100.578h4.788v4.789h-4.788zM281.751 83.641h4.788v4.789h-4.788zM281.751 76.678h4.788v4.788h-4.788zM281.751 69.237h4.788v4.788h-4.788zM281.751 62.273h4.788v4.79h-4.788zM288.968 121.945h4.788v4.788h-4.788zM288.968 114.981h4.788v4.789h-4.788zM288.968 107.542h4.788v4.788h-4.788zM288.968 100.578h4.788v4.789h-4.788zM288.968 83.641h4.788v4.789h-4.788zM288.968 76.678h4.788v4.788h-4.788zM288.968 69.237h4.788v4.788h-4.788zM288.968 62.273h4.788v4.79h-4.788zM295.915 121.945h4.789v4.788h-4.789zM295.915 114.981h4.789v4.789h-4.789zM295.915 69.237h4.789v4.788h-4.789zM295.915 62.273h4.789v4.79h-4.789zM302.862 121.945h4.789v4.788h-4.789zM302.862 114.981h4.789v4.789h-4.789zM302.862 69.237h4.789v4.788h-4.789zM302.862 62.273h4.789v4.79h-4.789zM309.811 121.945h4.788v4.788h-4.788zM309.811 107.542h4.788v4.788h-4.788zM309.811 100.578h4.788v4.789h-4.788zM309.811 83.641h4.788v4.789h-4.788zM309.811 76.678h4.788v4.788h-4.788zM309.811 69.237h4.788v4.788h-4.788zM309.811 62.273h4.788v4.79h-4.788zM317.027 121.945h4.788v4.788h-4.788zM317.027 107.542h4.788v4.788h-4.788zM317.027 100.578h4.788v4.789h-4.788zM317.027 83.641h4.788v4.789h-4.788zM317.027 76.678h4.788v4.788h-4.788zM317.027 69.237h4.788v4.788h-4.788zM317.027 62.273h4.788v4.79h-4.788zM323.973 121.945h4.79v4.788h-4.79zM323.973 107.542h4.79v4.788h-4.79zM323.973 100.578h4.79v4.789h-4.79zM323.973 83.641h4.79v4.789h-4.79zM323.973 76.678h4.79v4.788h-4.79zM323.973 69.237h4.79v4.788h-4.79zM323.973 62.273h4.79v4.79h-4.79zM368.855 86.633h4.788v4.79h-4.788zM368.855 93.597h4.788v4.788h-4.788zM368.855 101.037h4.788v4.788h-4.788zM368.855 108h4.788v4.789h-4.788zM368.855 121.332h4.788v4.789h-4.788zM368.855 128.296h4.788v4.788h-4.788zM368.855 135.736h4.788v4.788h-4.788zM361.907 86.633h4.789v4.79h-4.789zM361.907 101.037h4.789v4.788h-4.789zM361.907 108h4.789v4.789h-4.789zM361.907 121.332h4.789v4.789h-4.789zM361.907 128.296h4.789v4.788h-4.789zM361.907 135.736h4.789v4.788h-4.789zM354.69 86.633h4.789v4.79h-4.789zM354.69 93.597h4.789v4.788h-4.789zM354.69 101.037h4.789v4.788h-4.789zM354.69 108h4.789v4.789h-4.789zM354.69 121.332h4.789v4.789h-4.789zM354.69 128.296h4.789v4.788h-4.789zM354.69 135.736h4.789v4.788h-4.789zM347.743 86.633h4.788v4.79h-4.788zM347.743 93.597h4.788v4.788h-4.788zM347.743 101.037h4.788v4.788h-4.788zM347.743 108h4.788v4.789h-4.788zM347.743 121.332h4.788v4.789h-4.788zM347.743 128.296h4.788v4.788h-4.788zM347.743 135.736h4.788v4.788h-4.788z"/></g></svg>