<svg xmlns="http://www.w3.org/2000/svg" width="640" height="360" viewBox="0 0 640 360"><path fill="#2c323a" d="M.918 0h640v360h-640z"/><path fill="#bfd7ea" d="M120 1h400v359H120z"/><path d="M274.212 32.15v4.723h-1.188v3.086h-.888v3.355h-.841v4.852h-.728v79.425h-3.586v14.219h3.586v13.07h8.417v-4.973h2.477V91.443h-2.477V48.166h-.719v-4.852h-.749v-3.355h-.7v-3.086h-1.198V32.15h-1.406zm78.235 46.621v106.724h8.418V78.771h-8.418zM207.99 109.197v36.187h4.494v-4.753h21.608v-12.712h-12.941v-11.383h-2.976v2.167h-4.364v9.216h-1.327v-18.722h-4.494zm163.549 4.174v12.432h2.775v8.107h4.773v-15.807h-2.986v-4.732h-4.562zm-139.674.778v10.086h5.552v-10.086h-5.552zm103.766.201v8.308h-1.988v-5.732h-5.361v16.597h5.361v-2.377h7.152v-8.487h-1.598v-8.308h-3.566zm-110.716.988v7.908h2.977v-7.908h-2.977zm166.663 1.587v5.732h-3.574v7.31h-7.537v14.02h8.936v-3.555h5.742v-1.787h2.787v-6.312h6.15v-6.32h-6.15v-9.088h-6.354z" fill="#a5acb5"/><path d="M305.917 87.276v27.87H283.65v58.868h28.968v-7.397h9.517v10.158h31.35v-7.923h9.529v29.255h19.045v-4.111h38.9v-52.521h-38.9v-19.612H368.77v-16.706h-27.496v20.259h-14.592v-38.14h-20.765zM135.881 99.568v54.757h14.591V99.568h-14.591zm108.869 0v19.925h-22.212v15.835h-27.734v38.553h21.785v12.382h5.949v40.296h30.157v-75.027h13.378V99.568H244.75z" fill="#747f8c"/><g fill="#8a98a8"><path d="M227.085 122.563h1.403v1.402h-1.403zM229.121 122.563h1.404v1.402h-1.404zM231.237 122.563h1.403v1.402h-1.403zM227.085 124.603h1.403v1.403h-1.403zM229.121 124.603h1.404v1.403h-1.404zM231.237 124.603h1.403v1.403h-1.403zM227.085 126.782h1.403v1.404h-1.403zM229.121 126.782h1.404v1.404h-1.404zM231.237 126.782h1.403v1.404h-1.403zM233.273 126.782h1.401v1.404h-1.401zM235.307 126.782h1.403v1.404h-1.403zM237.343 126.782h1.402v1.404h-1.402zM239.458 126.782h1.404v1.404h-1.404zM227.085 128.823h1.403v1.403h-1.403zM229.121 128.823h1.404v1.403h-1.404zM231.237 128.823h1.403v1.403h-1.403zM233.273 128.823h1.401v1.403h-1.401zM235.307 128.823h1.403v1.403h-1.403zM237.343 128.823h1.402v1.403h-1.402zM239.458 128.823h1.404v1.403h-1.404zM247.783 102.3h1.404v1.403h-1.404zM249.819 102.3h1.403v1.403h-1.403zM251.933 102.3h1.404v1.403h-1.404zM253.968 102.3h1.403v1.403h-1.403zM256.004 102.3h1.403v1.403h-1.403zM260.156 102.3h1.403v1.403h-1.403zM262.192 102.3h1.401v1.403h-1.401zM247.783 104.341h1.404v1.403h-1.404zM249.819 104.341h1.403v1.403h-1.403zM251.933 104.341h1.404v1.403h-1.404zM253.968 104.341h1.403v1.403h-1.403zM256.004 104.341h1.403v1.403h-1.403zM260.156 104.341h1.403v1.403h-1.403zM262.192 104.341h1.401v1.403h-1.401zM247.783 106.521h1.404v1.403h-1.404zM249.819 106.521h1.403v1.403h-1.403zM251.933 106.521h1.404v1.403h-1.404zM253.968 106.521h1.403v1.403h-1.403zM256.004 106.521h1.403v1.403h-1.403zM260.156 106.521h1.403v1.403h-1.403zM262.192 106.521h1.401v1.403h-1.401zM247.783 108.562h1.404v1.403h-1.404zM249.819 108.562h1.403v1.403h-1.403zM251.933 108.562h1.404v1.403h-1.404zM253.968 108.562h1.403v1.403h-1.403zM256.004 108.562h1.403v1.403h-1.403zM258.04 108.562h1.404v1.403h-1.404zM260.156 108.562h1.403v1.403h-1.403zM262.192 108.562h1.401v1.403h-1.401zM262.192 116.947h1.401v1.402h-1.401zM262.192 118.987h1.401v1.402h-1.401zM262.192 123.533h1.401v1.403h-1.401zM262.192 125.574h1.401v1.402h-1.401zM262.192 127.754h1.401v1.403h-1.401zM247.783 129.794h1.404v1.404h-1.404zM249.819 129.794h1.403v1.404h-1.403zM251.933 129.794h1.404v1.404h-1.404zM253.968 129.794h1.403v1.404h-1.403zM256.004 129.794h1.403v1.404h-1.403zM258.04 129.794h1.404v1.404h-1.404zM260.156 129.794h1.403v1.404h-1.403zM262.192 129.794h1.401v1.404h-1.401zM227.085 133.523h1.403v1.404h-1.403zM229.121 133.523h1.404v1.404h-1.404zM231.237 133.523h1.403v1.404h-1.403zM233.273 133.523h1.401v1.404h-1.401zM235.307 133.523h1.403v1.404h-1.403zM237.343 133.523h1.402v1.404h-1.402zM239.458 133.523h1.404v1.404h-1.404zM241.494 133.523h1.402v1.404h-1.402zM227.085 135.564h1.403v1.403h-1.403zM229.121 135.564h1.404v1.403h-1.404zM231.237 135.564h1.403v1.403h-1.403zM233.273 135.564h1.401v1.403h-1.401zM235.307 135.564h1.403v1.403h-1.403zM237.343 135.564h1.402v1.403h-1.402zM239.458 135.564h1.404v1.403h-1.404zM241.494 135.564h1.402v1.403h-1.402zM227.085 137.744h1.403v1.403h-1.403zM229.121 137.744h1.404v1.403h-1.404zM231.237 137.744h1.403v1.403h-1.403zM233.273 137.744h1.401v1.403h-1.401zM235.307 137.744h1.403v1.403h-1.403zM237.343 137.744h1.402v1.403h-1.402zM239.458 137.744h1.404v1.403h-1.404zM241.494 137.744h1.402v1.403h-1.402zM227.085 139.785h1.403v1.402h-1.403zM229.121 139.785h1.404v1.402h-1.404zM231.237 139.785h1.403v1.402h-1.403zM233.273 139.785h1.401v1.402h-1.401zM235.307 139.785h1.403v1.402h-1.403zM237.343 139.785h1.402v1.402h-1.402zM239.458 139.785h1.404v1.402h-1.404zM241.494 139.785h1.402v1.402h-1.402zM227.085 143.786h1.403v1.402h-1.403zM229.121 143.786h1.404v1.402h-1.404zM231.237 143.786h1.403v1.402h-1.403zM233.273 143.786h1.401v1.402h-1.401zM235.307 143.786h1.403v1.402h-1.403zM237.343 143.786h1.402v1.402h-1.402zM239.458 143.786h1.404v1.402h-1.404zM241.494 143.786h1.402v1.402h-1.402zM227.085 145.825h1.403v1.404h-1.403zM229.121 145.825h1.404v1.404h-1.404zM231.237 145.825h1.403v1.404h-1.403zM233.273 145.825h1.401v1.404h-1.401zM235.307 145.825h1.403v1.404h-1.403zM237.343 145.825h1.402v1.404h-1.402zM239.458 145.825h1.404v1.404h-1.404zM241.494 145.825h1.402v1.404h-1.402zM227.085 148.006h1.403v1.403h-1.403zM229.121 148.006h1.404v1.403h-1.404zM231.237 148.006h1.403v1.403h-1.403zM233.273 148.006h1.401v1.403h-1.401zM235.307 148.006h1.403v1.403h-1.403zM237.343 148.006h1.402v1.403h-1.402zM239.458 148.006h1.404v1.403h-1.404zM241.494 148.006h1.402v1.403h-1.402zM227.085 150.047h1.403v1.402h-1.403zM229.121 150.047h1.404v1.402h-1.404zM231.237 150.047h1.403v1.402h-1.403zM233.273 150.047h1.401v1.402h-1.401zM235.307 150.047h1.403v1.402h-1.403zM237.343 150.047h1.402v1.402h-1.402zM239.458 150.047h1.404v1.402h-1.404zM241.494 150.047h1.402v1.402h-1.402zM308.279 104.656h1.404v1.403h-1.404zM310.315 104.656h1.404v1.403h-1.404zM320.652 104.656h1.401v1.403h-1.401zM322.688 104.656h1.402v1.403h-1.402zM308.279 106.837h1.404v1.402h-1.404zM310.315 106.837h1.404v1.402h-1.404zM320.652 106.837h1.401v1.402h-1.401zM322.688 106.837h1.402v1.402h-1.402zM308.279 108.877h1.404v1.403h-1.404zM310.315 108.877h1.404v1.403h-1.404zM320.652 108.877h1.401v1.403h-1.401zM322.688 108.877h1.402v1.403h-1.402zM308.279 113.261h1.404v1.403h-1.404zM310.315 113.261h1.404v1.403h-1.404zM320.652 113.261h1.401v1.403h-1.401zM322.688 113.261h1.402v1.403h-1.402zM308.279 115.301h1.404v1.404h-1.404zM310.315 115.301h1.404v1.404h-1.404zM312.431 115.301h1.401v1.404h-1.401zM314.464 115.301h1.404v1.404h-1.404zM316.5 115.301h1.403v1.404H316.5zM318.537 115.301h1.403v1.404h-1.403zM320.652 115.301h1.401v1.404h-1.401zM322.688 115.301h1.402v1.404h-1.402zM312.431 117.482h1.401v1.402h-1.401zM314.464 117.482h1.404v1.402h-1.404zM316.5 117.482h1.403v1.402H316.5zM318.537 117.482h1.403v1.402h-1.403zM320.652 117.482h1.401v1.402h-1.401zM322.688 117.482h1.402v1.402h-1.402zM312.431 119.522h1.401v1.402h-1.401zM314.464 119.522h1.404v1.402h-1.404zM316.5 119.522h1.403v1.402H316.5zM318.537 119.522h1.403v1.402h-1.403zM320.652 119.522h1.401v1.402h-1.401zM322.688 119.522h1.402v1.402h-1.402zM308.279 123.523h1.404v1.402h-1.404zM310.315 123.523h1.404v1.402h-1.404zM312.431 123.523h1.401v1.402h-1.401zM308.279 125.563h1.404v1.404h-1.404zM310.315 125.563h1.404v1.404h-1.404zM312.431 125.563h1.401v1.404h-1.401zM308.279 127.743h1.404v1.404h-1.404zM310.315 127.743h1.404v1.404h-1.404zM312.431 127.743h1.401v1.404h-1.401zM308.279 129.784h1.404v1.402h-1.404zM310.315 129.784h1.404v1.402h-1.404zM312.431 129.784h1.401v1.402h-1.401zM314.464 129.784h1.404v1.402h-1.404zM316.5 129.784h1.403v1.402H316.5zM318.537 129.784h1.403v1.402h-1.403zM320.652 129.784h1.401v1.402h-1.401zM322.688 129.784h1.402v1.402h-1.402zM287.311 118.379h1.401v1.402h-1.401zM289.347 118.379h1.401v1.402h-1.401zM291.46 118.379h1.403v1.402h-1.403zM287.311 120.418h1.401v1.404h-1.401zM289.347 120.418h1.401v1.404h-1.401zM291.46 120.418h1.403v1.404h-1.403zM287.311 122.599h1.401v1.404h-1.401zM289.347 122.599h1.401v1.404h-1.401zM291.46 122.599h1.403v1.404h-1.403zM287.311 124.64h1.401v1.402h-1.401zM289.347 124.64h1.401v1.402h-1.401zM291.46 124.64h1.403v1.402h-1.403zM293.497 124.64h1.403v1.402h-1.403zM295.533 124.64h1.403v1.402h-1.403zM297.568 124.64h1.404v1.402h-1.404zM299.681 124.64h1.404v1.402h-1.404zM301.717 124.64h1.404v1.402h-1.404zM287.311 128.641h1.401v1.402h-1.401zM289.347 128.641h1.401v1.402h-1.401zM291.46 128.641h1.403v1.402h-1.403zM293.497 128.641h1.403v1.402h-1.403zM295.533 128.641h1.403v1.402h-1.403zM297.568 128.641h1.404v1.402h-1.404zM299.681 128.641h1.404v1.402h-1.404zM301.717 128.641h1.404v1.402h-1.404zM287.311 130.681h1.401v1.404h-1.401zM289.347 130.681h1.401v1.404h-1.401zM291.46 130.681h1.403v1.404h-1.403zM293.497 130.681h1.403v1.404h-1.403zM295.533 130.681h1.403v1.404h-1.403zM297.568 130.681h1.404v1.404h-1.404zM299.681 130.681h1.404v1.404h-1.404zM301.717 130.681h1.404v1.404h-1.404zM287.311 132.86h1.401v1.404h-1.401zM289.347 132.86h1.401v1.404h-1.401zM291.46 132.86h1.403v1.404h-1.403zM293.497 132.86h1.403v1.404h-1.403zM295.533 132.86h1.403v1.404h-1.403zM297.568 132.86h1.404v1.404h-1.404zM299.681 132.86h1.404v1.404h-1.404zM301.717 132.86h1.404v1.404h-1.404zM287.311 134.901h1.401v1.403h-1.401zM289.347 134.901h1.401v1.403h-1.401zM291.46 134.901h1.403v1.403h-1.403zM293.497 134.901h1.403v1.403h-1.403zM295.533 134.901h1.403v1.403h-1.403zM297.568 134.901h1.404v1.403h-1.404zM299.681 134.901h1.404v1.403h-1.404zM301.717 134.901h1.404v1.403h-1.404zM342.922 111.284h1.402v1.402h-1.402zM344.957 111.284h1.404v1.402h-1.404zM347.072 111.284h1.404v1.402h-1.404zM349.109 111.284h1.4v1.402h-1.4zM355.293 111.284h1.404v1.402h-1.404zM357.33 111.284h1.404v1.402h-1.404zM342.922 113.323h1.402v1.404h-1.402zM344.957 113.323h1.404v1.404h-1.404zM347.072 113.323h1.404v1.404h-1.404zM349.109 113.323h1.4v1.404h-1.4zM351.145 113.323h1.402v1.404h-1.402zM353.178 113.323h1.404v1.404h-1.404zM355.293 113.323h1.404v1.404h-1.404zM357.33 113.323h1.404v1.404h-1.404zM359.482 107.063h1.402v1.404h-1.402zM359.482 109.104h1.402v1.402h-1.402zM359.482 111.284h1.402v1.402h-1.402zM361.598 111.284h1.404v1.402h-1.404zM363.633 111.284h1.402v1.402h-1.402zM359.482 113.323h1.402v1.404h-1.402zM361.598 113.323h1.404v1.404h-1.404zM363.633 113.323h1.402v1.404h-1.402zM365.754 107.063h1.404v1.404h-1.404zM365.754 111.284h1.404v1.402h-1.404zM365.754 113.323h1.404v1.404h-1.404zM342.922 118.945h1.402v1.402h-1.402zM344.957 118.945h1.404v1.402h-1.404zM347.072 118.945h1.404v1.402h-1.404zM349.109 118.945h1.4v1.402h-1.4zM351.145 118.945h1.402v1.402h-1.402zM353.178 118.945h1.404v1.402h-1.404zM355.293 118.945h1.404v1.402h-1.404zM357.33 118.945h1.404v1.402h-1.404zM342.922 120.984h1.402v1.403h-1.402zM344.957 120.984h1.404v1.403h-1.404zM347.072 120.984h1.404v1.403h-1.404zM349.109 120.984h1.4v1.403h-1.4zM351.145 120.984h1.402v1.403h-1.402zM353.178 120.984h1.404v1.403h-1.404zM342.922 123.165h1.402v1.403h-1.402zM344.957 123.165h1.404v1.403h-1.404zM351.145 123.165h1.402v1.403h-1.402zM353.178 123.165h1.404v1.403h-1.404zM342.922 125.205h1.402v1.403h-1.402zM344.957 125.205h1.404v1.403h-1.404zM351.145 125.205h1.402v1.403h-1.402zM353.178 125.205h1.404v1.403h-1.404zM359.482 118.945h1.402v1.402h-1.402zM361.598 118.945h1.404v1.402h-1.404zM363.633 118.945h1.402v1.402h-1.402zM361.598 120.984h1.404v1.403h-1.404zM363.633 120.984h1.402v1.403h-1.402zM361.598 123.165h1.404v1.403h-1.404zM363.633 123.165h1.402v1.403h-1.402zM361.598 125.205h1.404v1.403h-1.404zM363.633 125.205h1.402v1.403h-1.402zM365.754 118.945h1.404v1.402h-1.404zM365.754 120.984h1.404v1.403h-1.404zM342.799 129.779h1.4v1.403h-1.4zM344.832 129.779h1.402v1.403h-1.402zM346.947 129.779h1.404v1.403h-1.404zM348.982 129.779h1.404v1.403h-1.404zM351.02 129.779h1.402v1.403h-1.402zM353.055 129.779h1.404v1.403h-1.404zM355.168 129.779h1.404v1.403h-1.404zM342.799 131.821h1.4v1.402h-1.4zM344.832 131.821h1.402v1.402h-1.402zM346.947 131.821h1.404v1.402h-1.404zM348.982 131.821h1.404v1.402h-1.404zM351.02 131.821h1.402v1.402h-1.402zM353.055 131.821h1.404v1.402h-1.404zM355.168 131.821h1.404v1.402h-1.404zM357.205 131.821h1.402v1.402h-1.402zM342.799 134.001h1.4v1.402h-1.4zM344.832 134.001h1.402v1.402h-1.402zM348.982 134.001h1.404v1.402h-1.404zM351.02 134.001h1.402v1.402h-1.402zM353.055 134.001h1.404v1.402h-1.404zM355.168 134.001h1.404v1.402h-1.404zM357.205 134.001h1.402v1.402h-1.402zM342.799 136.041h1.4v1.403h-1.4zM344.832 136.041h1.402v1.403h-1.402zM346.947 136.041h1.404v1.403h-1.404zM348.982 136.041h1.404v1.403h-1.404zM351.02 136.041h1.402v1.403h-1.402zM361.473 129.779h1.402v1.403h-1.402zM363.508 129.779h1.404v1.403h-1.404zM359.357 131.821h1.402v1.402h-1.402zM361.473 131.821h1.402v1.402h-1.402zM363.508 131.821h1.404v1.402h-1.404zM359.357 134.001h1.402v1.402h-1.402zM361.473 134.001h1.402v1.402h-1.402zM363.508 134.001h1.404v1.402h-1.404zM363.508 136.041h1.404v1.403h-1.404zM365.631 131.821h1.4v1.402h-1.4zM365.631 134.001h1.4v1.402h-1.4zM365.631 136.041h1.4v1.403h-1.4z"/></g><path d="M401.902 56.434v73.195h-15.715v149.955h15.715v1.676h60.605v10.615h67.299V80.46h-60.609V56.434h-67.295zM143.458 72.291v50.632h-40.664v142.133h40.664v22.004h31.168v.346h67.295V168.74h-31.156V72.291h-67.307z" fill="#454c55"/><g fill="#555e6a"><path d="M150.166 79.513h4.789v4.788h-4.789zM157.114 79.513h4.788v4.788h-4.788zM164.331 79.513h4.788v4.788h-4.788zM171.278 79.513h4.788v4.788h-4.788zM178.224 79.513h4.79v4.788h-4.79zM185.17 79.513h4.79v4.788h-4.79zM192.388 79.513h4.789v4.788h-4.789zM199.335 79.513h4.789v4.788h-4.789zM150.166 86.475h4.789v4.79h-4.789zM157.114 86.475h4.788v4.79h-4.788zM164.331 86.475h4.788v4.79h-4.788zM171.278 86.475h4.788v4.79h-4.788zM178.224 86.475h4.79v4.79h-4.79zM185.17 86.475h4.79v4.79h-4.79zM192.388 86.475h4.789v4.79h-4.789zM199.335 86.475h4.789v4.79h-4.789zM150.166 93.916h4.789v4.79h-4.789zM157.114 93.916h4.788v4.79h-4.788zM164.331 93.916h4.788v4.79h-4.788zM171.278 93.916h4.788v4.79h-4.788zM178.224 93.916h4.79v4.79h-4.79zM185.17 93.916h4.79v4.79h-4.79zM192.388 93.916h4.789v4.79h-4.789zM199.335 93.916h4.789v4.79h-4.789zM150.166 100.88h4.789v4.79h-4.789zM157.114 100.88h4.788v4.79h-4.788zM164.331 100.88h4.788v4.79h-4.788zM171.278 100.88h4.788v4.79h-4.788zM178.224 100.88h4.79v4.79h-4.79zM185.17 100.88h4.79v4.79h-4.79zM192.388 100.88h4.789v4.79h-4.789zM199.335 100.88h4.789v4.79h-4.789zM150.166 116.76h4.789v4.788h-4.789zM157.114 116.76h4.788v4.788h-4.788zM164.331 116.76h4.788v4.788h-4.788zM171.278 116.76h4.788v4.788h-4.788zM178.224 116.76h4.79v4.788h-4.79zM185.17 116.76h4.79v4.788h-4.79zM192.388 116.76h4.789v4.788h-4.789zM199.335 116.76h4.789v4.788h-4.789zM150.166 123.722h4.789v4.79h-4.789zM157.114 123.722h4.788v4.79h-4.788zM164.331 123.722h4.788v4.79h-4.788zM171.278 123.722h4.788v4.79h-4.788zM178.224 123.722h4.79v4.79h-4.79zM185.17 123.722h4.79v4.79h-4.79zM192.388 123.722h4.789v4.79h-4.789zM199.335 123.722h4.789v4.79h-4.789zM150.166 131.162h4.789v4.79h-4.789zM157.114 131.162h4.788v4.79h-4.788zM164.331 131.162h4.788v4.79h-4.788zM171.278 131.162h4.788v4.79h-4.788zM150.166 138.125h4.789v4.79h-4.789zM157.114 138.125h4.788v4.79h-4.788zM164.331 138.125h4.788v4.79h-4.788zM171.278 138.125h4.788v4.79h-4.788zM150.166 154.005h4.789v4.788h-4.789zM157.114 154.005h4.788v4.788h-4.788zM164.331 154.005h4.788v4.788h-4.788zM171.278 154.005h4.788v4.788h-4.788zM178.224 154.005h4.79v4.788h-4.79zM185.17 154.005h4.79v4.788h-4.79zM192.388 154.005h4.789v4.788h-4.789zM199.335 154.005h4.789v4.788h-4.789zM150.166 160.968h4.789v4.788h-4.789zM157.114 160.968h4.788v4.788h-4.788zM164.331 160.968h4.788v4.788h-4.788zM171.278 160.968h4.788v4.788h-4.788zM178.224 160.968h4.79v4.788h-4.79zM185.17 160.968h4.79v4.788h-4.79zM192.388 160.968h4.789v4.788h-4.789zM199.335 160.968h4.789v4.788h-4.789zM150.166 168.407h4.789v4.79h-4.789zM157.114 168.407h4.788v4.79h-4.788zM164.331 168.407h4.788v4.79h-4.788zM171.278 168.407h4.788v4.79h-4.788zM178.224 168.407h4.79v4.79h-4.79zM185.17 168.407h4.79v4.79h-4.79zM192.388 168.407h4.789v4.79h-4.789zM199.335 168.407h4.789v4.79h-4.789zM150.166 175.371h4.789v4.79h-4.789zM157.114 175.371h4.788v4.79h-4.788zM164.331 175.371h4.788v4.79h-4.788zM171.278 175.371h4.788v4.79h-4.788zM178.224 175.371h4.79v4.79h-4.79zM185.17 175.371h4.79v4.79h-4.79zM192.388 175.371h4.789v4.79h-4.789zM199.335 175.371h4.789v4.79h-4.789zM150.166 189.661h4.789v4.788h-4.789zM199.335 189.661h4.789v4.788h-4.789zM150.166 196.624h4.789v4.79h-4.789zM199.335 196.624h4.789v4.79h-4.789zM408.141 63.273h4.787v4.79h-4.787zM415.088 63.273h4.787v4.79h-4.787zM422.305 63.273h4.787v4.79h-4.787zM429.252 63.273h4.789v4.79h-4.789zM436.199 63.273h4.789v4.79h-4.789zM443.146 63.273h4.789v4.79h-4.789zM450.363 63.273h4.789v4.79h-4.789zM457.309 63.273h4.791v4.79h-4.791zM408.141 70.237h4.787v4.788h-4.787zM415.088 70.237h4.787v4.788h-4.787zM422.305 70.237h4.787v4.788h-4.787zM429.252 70.237h4.789v4.788h-4.789zM436.199 70.237h4.789v4.788h-4.789zM443.146 70.237h4.789v4.788h-4.789zM450.363 70.237h4.789v4.788h-4.789zM457.309 70.237h4.791v4.788h-4.791zM408.141 77.678h4.787v4.788h-4.787zM415.088 77.678h4.787v4.788h-4.787zM422.305 77.678h4.787v4.788h-4.787zM443.146 77.678h4.789v4.788h-4.789zM450.363 77.678h4.789v4.788h-4.789zM457.309 77.678h4.791v4.788h-4.791zM408.141 84.64h4.787v4.79h-4.787zM415.088 84.64h4.787v4.79h-4.787zM422.305 84.64h4.787v4.79h-4.787zM443.146 84.64h4.789v4.79h-4.789zM450.363 84.64h4.789v4.79h-4.789zM457.309 84.64h4.791v4.79h-4.791zM408.141 101.578h4.787v4.79h-4.787zM415.088 101.578h4.787v4.79h-4.787zM422.305 101.578h4.787v4.79h-4.787zM443.146 101.578h4.789v4.79h-4.789zM450.363 101.578h4.789v4.79h-4.789zM457.309 101.578h4.791v4.79h-4.791zM408.141 108.542h4.787v4.788h-4.787zM415.088 108.542h4.787v4.788h-4.787zM422.305 108.542h4.787v4.788h-4.787zM443.146 108.542h4.789v4.788h-4.789zM450.363 108.542h4.789v4.788h-4.789zM457.309 108.542h4.791v4.788h-4.791zM408.141 115.981h4.787v4.79h-4.787zM415.088 115.981h4.787v4.79h-4.787zM422.305 115.981h4.787v4.79h-4.787zM429.252 115.981h4.789v4.79h-4.789zM436.199 115.981h4.789v4.79h-4.789zM408.141 122.945h4.787v4.788h-4.787zM415.088 122.945h4.787v4.788h-4.787zM422.305 122.945h4.787v4.788h-4.787zM429.252 122.945h4.789v4.788h-4.789zM436.199 122.945h4.789v4.788h-4.789zM443.146 122.945h4.789v4.788h-4.789zM450.363 122.945h4.789v4.788h-4.789zM457.309 122.945h4.791v4.788h-4.791zM481.08 87.633h4.787v4.79h-4.787zM488.027 87.633h4.789v4.79h-4.789zM495.244 87.633h4.789v4.79h-4.789zM502.191 87.633h4.789v4.79h-4.789zM481.08 94.597h4.787v4.788h-4.787zM488.027 94.597h4.789v4.788h-4.789zM502.191 94.597h4.789v4.788h-4.789zM481.08 102.037h4.787v4.788h-4.787zM488.027 102.037h4.789v4.788h-4.789zM495.244 102.037h4.789v4.788h-4.789zM502.191 102.037h4.789v4.788h-4.789zM481.08 109h4.787v4.79h-4.787zM488.027 109h4.789v4.79h-4.789zM495.244 109h4.789v4.79h-4.789zM502.191 109h4.789v4.79h-4.789zM481.08 122.332h4.787v4.79h-4.787zM488.027 122.332h4.789v4.79h-4.789zM495.244 122.332h4.789v4.79h-4.789zM502.191 122.332h4.789v4.79h-4.789zM481.08 129.296h4.787v4.788h-4.787zM488.027 129.296h4.789v4.788h-4.789zM495.244 129.296h4.789v4.788h-4.789zM502.191 129.296h4.789v4.788h-4.789zM481.08 136.736h4.787v4.788h-4.787zM488.027 136.736h4.789v4.788h-4.789zM495.244 136.736h4.789v4.788h-4.789zM502.191 136.736h4.789v4.788h-4.789z"/></g><path d="M510.771 0v147.621h-85.322v35.759h-58.363v-44.699H250.362v84.928h-26.938v-20.114h-92.346V.771H.918v277.348H106.7v2.481h86.422v11.175h173.964v-2.234h66.219v-3.354h108.869v-8.839h98.744V0H510.771z" fill="#2c323a"/><g fill="#434d57"><path d="M22.367 12.26h8.863v8.863h-8.863zM35.224 12.26h8.86v8.863h-8.86zM48.578 12.26h8.862v8.863h-8.862zM61.434 12.26h8.862v8.863h-8.862zM74.291 12.26h8.863v8.863h-8.863zM87.148 12.26h8.861v8.863h-8.861zM100.501 12.26h8.862v8.863h-8.862zM113.358 12.26h8.862v8.863h-8.862zM22.367 25.146h8.863v8.861h-8.863zM35.224 25.146h8.86v8.861h-8.86zM48.578 25.146h8.862v8.861h-8.862zM61.434 25.146h8.862v8.861h-8.862zM74.291 25.146h8.863v8.861h-8.863zM87.148 25.146h8.861v8.861h-8.861zM100.501 25.146h8.862v8.861h-8.862zM113.358 25.146h8.862v8.861h-8.862zM22.367 38.915h8.863v8.861h-8.863zM35.224 38.915h8.86v8.861h-8.86zM48.578 38.915h8.862v8.861h-8.862zM61.434 38.915h8.862v8.861h-8.862zM74.291 38.915h8.863v8.861h-8.863zM87.148 38.915h8.861v8.861h-8.861zM100.501 38.915h8.862v8.861h-8.862zM113.358 38.915h8.862v8.861h-8.862zM22.367 51.8h8.863v8.862h-8.863zM35.224 51.8h8.86v8.862h-8.86zM48.578 51.8h8.862v8.862h-8.862zM61.434 51.8h8.862v8.862h-8.862zM74.291 51.8h8.863v8.862h-8.863zM87.148 51.8h8.861v8.862h-8.861zM100.501 51.8h8.862v8.862h-8.862zM113.358 51.8h8.862v8.862h-8.862zM22.367 80.395h8.863v8.862h-8.863zM35.224 80.395h8.86v8.862h-8.86zM48.578 80.395h8.862v8.862h-8.862zM61.434 80.395h8.862v8.862h-8.862zM74.291 80.395h8.863v8.862h-8.863zM87.148 80.395h8.861v8.862h-8.861zM100.501 80.395h8.862v8.862h-8.862zM113.358 80.395h8.862v8.862h-8.862zM22.367 93.282h8.863v8.861h-8.863zM35.224 93.282h8.86v8.861h-8.86zM48.578 93.282h8.862v8.861h-8.862zM61.434 93.282h8.862v8.861h-8.862zM74.291 93.282h8.863v8.861h-8.863zM87.148 93.282h8.861v8.861h-8.861zM100.501 93.282h8.862v8.861h-8.862zM113.358 93.282h8.862v8.861h-8.862zM22.367 107.051h8.863v8.861h-8.863zM35.224 107.051h8.86v8.861h-8.86zM48.578 107.051h8.862v8.861h-8.862zM61.434 107.051h8.862v8.861h-8.862zM74.291 107.051h8.863v8.861h-8.863zM87.148 107.051h8.861v8.861h-8.861zM100.501 107.051h8.862v8.861h-8.862zM113.358 107.051h8.862v8.861h-8.862zM22.367 119.936h8.863v8.861h-8.863zM35.224 119.936h8.86v8.861h-8.86zM48.578 119.936h8.862v8.861h-8.862zM61.434 119.936h8.862v8.861h-8.862zM74.291 119.936h8.863v8.861h-8.863zM87.148 119.936h8.861v8.861h-8.861zM100.501 119.936h8.862v8.861h-8.862zM113.358 119.936h8.862v8.861h-8.862zM22.367 150.65h8.863v8.861h-8.863zM35.224 150.65h8.86v8.861h-8.86zM48.578 150.65h8.862v8.861h-8.862zM61.434 150.65h8.862v8.861h-8.862zM74.291 150.65h8.863v8.861h-8.863zM87.148 150.65h8.861v8.861h-8.861zM100.501 150.65h8.862v8.861h-8.862zM113.358 150.65h8.862v8.861h-8.862zM22.367 163.535h8.863v8.863h-8.863zM35.224 163.535h8.86v8.863h-8.86zM48.578 163.535h8.862v8.863h-8.862zM87.148 163.535h8.861v8.863h-8.861zM100.501 163.535h8.862v8.863h-8.862zM113.358 163.535h8.862v8.863h-8.862zM22.367 177.305h8.863v8.861h-8.863zM35.224 177.305h8.86v8.861h-8.86zM48.578 177.305h8.862v8.861h-8.862zM87.148 177.305h8.861v8.861h-8.861zM100.501 177.305h8.862v8.861h-8.862zM113.358 177.305h8.862v8.861h-8.862zM22.367 190.19h8.863v8.861h-8.863zM35.224 190.19h8.86v8.861h-8.86zM48.578 190.19h8.862v8.861h-8.862zM87.148 190.19h8.861v8.861h-8.861zM100.501 190.19h8.862v8.861h-8.862zM113.358 190.19h8.862v8.861h-8.862zM521.557 12.26h8.863v8.863h-8.863zM534.414 12.26h8.863v8.863h-8.863zM547.771 12.26h8.861v8.863h-8.861zM560.627 12.26h8.859v8.863h-8.859zM573.48 12.26h8.863v8.863h-8.863zM586.338 12.26h8.863v8.863h-8.863zM599.695 12.26h8.861v8.863h-8.861zM612.551 12.26h8.861v8.863h-8.861zM521.557 25.146h8.863v8.861h-8.863zM534.414 25.146h8.863v8.861h-8.863zM547.771 25.146h8.861v8.861h-8.861zM560.627 25.146h8.859v8.861h-8.859zM573.48 25.146h8.863v8.861h-8.863zM586.338 25.146h8.863v8.861h-8.863zM599.695 25.146h8.861v8.861h-8.861zM612.551 25.146h8.861v8.861h-8.861zM521.557 38.915h8.863v8.861h-8.863zM534.414 38.915h8.863v8.861h-8.863zM547.771 38.915h8.861v8.861h-8.861zM560.627 38.915h8.859v8.861h-8.859zM573.48 38.915h8.863v8.861h-8.863zM586.338 38.915h8.863v8.861h-8.863zM599.695 38.915h8.861v8.861h-8.861zM612.551 38.915h8.861v8.861h-8.861zM521.557 51.8h8.863v8.862h-8.863zM534.414 51.8h8.863v8.862h-8.863zM547.771 51.8h8.861v8.862h-8.861zM560.627 51.8h8.859v8.862h-8.859zM573.48 51.8h8.863v8.862h-8.863zM586.338 51.8h8.863v8.862h-8.863zM599.695 51.8h8.861v8.862h-8.861zM612.551 51.8h8.861v8.862h-8.861zM521.557 80.395h8.863v8.862h-8.863zM534.414 80.395h8.863v8.862h-8.863zM547.771 80.395h8.861v8.862h-8.861zM560.627 80.395h8.859v8.862h-8.859zM573.48 80.395h8.863v8.862h-8.863zM586.338 80.395h8.863v8.862h-8.863zM599.695 80.395h8.861v8.862h-8.861zM612.551 80.395h8.861v8.862h-8.861zM521.557 93.282h8.863v8.861h-8.863zM534.414 93.282h8.863v8.861h-8.863zM547.771 93.282h8.861v8.861h-8.861zM560.627 93.282h8.859v8.861h-8.859zM573.48 93.282h8.863v8.861h-8.863zM586.338 93.282h8.863v8.861h-8.863zM599.695 93.282h8.861v8.861h-8.861zM612.551 93.282h8.861v8.861h-8.861zM521.557 107.051h8.863v8.861h-8.863zM534.414 107.051h8.863v8.861h-8.863zM547.771 107.051h8.861v8.861h-8.861zM560.627 107.051h8.859v8.861h-8.859zM573.48 107.051h8.863v8.861h-8.863zM586.338 107.051h8.863v8.861h-8.863zM599.695 107.051h8.861v8.861h-8.861zM612.551 107.051h8.861v8.861h-8.861zM521.557 119.936h8.863v8.861h-8.863zM534.414 119.936h8.863v8.861h-8.863zM547.771 119.936h8.861v8.861h-8.861zM560.627 119.936h8.859v8.861h-8.859zM573.48 119.936h8.863v8.861h-8.863zM586.338 119.936h8.863v8.861h-8.863zM599.695 119.936h8.861v8.861h-8.861zM612.551 119.936h8.861v8.861h-8.861zM521.557 150.65h8.863v8.861h-8.863zM534.414 150.65h8.863v8.861h-8.863zM547.771 150.65h8.861v8.861h-8.861zM560.627 150.65h8.859v8.861h-8.859zM573.48 150.65h8.863v8.861h-8.863zM586.338 150.65h8.863v8.861h-8.863zM599.695 150.65h8.861v8.861h-8.861zM612.551 150.65h8.861v8.861h-8.861zM521.557 163.535h8.863v8.863h-8.863zM534.414 163.535h8.863v8.863h-8.863zM547.771 163.535h8.861v8.863h-8.861zM560.627 163.535h8.859v8.863h-8.859zM573.48 163.535h8.863v8.863h-8.863zM586.338 163.535h8.863v8.863h-8.863zM599.695 163.535h8.861v8.863h-8.861zM612.551 163.535h8.861v8.863h-8.861zM521.557 177.305h8.863v8.861h-8.863zM534.414 177.305h8.863v8.861h-8.863zM547.771 177.305h8.861v8.861h-8.861zM560.627 177.305h8.859v8.861h-8.859zM573.48 177.305h8.863v8.861h-8.863zM586.338 177.305h8.863v8.861h-8.863zM599.695 177.305h8.861v8.861h-8.861zM612.551 177.305h8.861v8.861h-8.861zM521.557 190.19h8.863v8.861h-8.863zM534.414 190.19h8.863v8.861h-8.863zM547.771 190.19h8.861v8.861h-8.861zM560.627 190.19h8.859v8.861h-8.859zM573.48 190.19h8.863v8.861h-8.863zM586.338 190.19h8.863v8.861h-8.863zM599.695 190.19h8.861v8.861h-8.861zM612.551 190.19h8.861v8.861h-8.861zM257.659 151.24h8.86v8.862h-8.86zM270.513 151.24h8.862v8.862h-8.862zM283.87 151.24h8.862v8.862h-8.862zM296.726 151.24h8.862v8.862h-8.862zM309.583 151.24h8.86v8.862h-8.86zM322.438 151.24h8.861v8.862h-8.861zM335.793 151.24h8.863v8.862h-8.863zM348.65 151.24h8.861v8.862h-8.861zM257.659 164.126h8.86v8.862h-8.86zM270.513 164.126h8.862v8.862h-8.862zM283.87 164.126h8.862v8.862h-8.862zM296.726 164.126h8.862v8.862h-8.862zM309.583 164.126h8.86v8.862h-8.86zM322.438 164.126h8.861v8.862h-8.861zM335.793 164.126h8.863v8.862h-8.863zM348.65 164.126h8.861v8.862h-8.861zM257.659 177.893h8.86v8.863h-8.86zM270.513 177.893h8.862v8.863h-8.862zM283.87 177.893h8.862v8.863h-8.862zM296.726 177.893h8.862v8.863h-8.862zM309.583 177.893h8.86v8.863h-8.86zM257.659 190.78h8.86v8.862h-8.86zM270.513 190.78h8.862v8.862h-8.862zM283.87 190.78h8.862v8.862h-8.862zM296.726 190.78h8.862v8.862h-8.862zM309.583 190.78h8.86v8.862h-8.86zM322.438 190.78h8.861v8.862h-8.861zM335.793 190.78h8.863v8.862h-8.863zM348.65 190.78h8.861v8.862h-8.861zM435.588 155.123h8.861v8.862h-8.861zM448.443 155.123h8.863v8.862h-8.863zM461.799 155.123h8.861v8.862h-8.861zM474.654 155.123h8.863v8.862h-8.863zM487.512 155.123h8.861v8.862h-8.861zM500.367 155.123h8.863v8.862h-8.863zM435.588 168.01h8.861v8.861h-8.861zM448.443 168.01h8.863v8.861h-8.863zM461.799 168.01h8.861v8.861h-8.861zM474.654 168.01h8.863v8.861h-8.863zM487.512 168.01h8.861v8.861h-8.861zM500.367 168.01h8.863v8.861h-8.863zM435.588 181.778h8.861v8.861h-8.861zM448.443 181.778h8.863v8.861h-8.863zM461.799 181.778h8.861v8.861h-8.861zM474.654 181.778h8.863v8.861h-8.863zM487.512 181.778h8.861v8.861h-8.861zM500.367 181.778h8.863v8.861h-8.863zM435.588 194.664h8.861v8.861h-8.861zM448.443 194.664h8.863v8.861h-8.863zM461.799 194.664h8.861v8.861h-8.861zM474.654 194.664h8.863v8.861h-8.863zM487.512 194.664h8.861v8.861h-8.861zM500.367 194.664h8.863v8.861h-8.863zM257.659 211.61h8.86v8.861h-8.86zM270.513 211.61h8.862v8.861h-8.862zM283.87 211.61h8.862v8.861h-8.862zM296.726 211.61h8.862v8.861h-8.862zM309.583 211.61h8.86v8.861h-8.86zM322.438 211.61h8.861v8.861h-8.861zM335.793 211.61h8.863v8.861h-8.863zM348.65 211.61h8.861v8.861h-8.861zM257.659 224.495h8.86v8.862h-8.86zM270.513 224.495h8.862v8.862h-8.862zM283.87 224.495h8.862v8.862h-8.862zM296.726 224.495h8.862v8.862h-8.862zM309.583 224.495h8.86v8.862h-8.86zM322.438 224.495h8.861v8.862h-8.861zM335.793 224.495h8.863v8.862h-8.863zM348.65 224.495h8.861v8.862h-8.861z"/></g><g fill="#8a98a8"><path d="M308.279 92.354h1.404v1.402h-1.404zM310.315 92.354h1.404v1.402h-1.404zM312.431 92.354h1.401v1.402h-1.401zM314.464 92.354h1.404v1.402h-1.404zM316.5 92.354h1.403v1.402H316.5zM318.537 92.354h1.403v1.402h-1.403zM320.652 92.354h1.401v1.402h-1.401zM322.688 92.354h1.402v1.402h-1.402zM308.279 94.395h1.404v1.404h-1.404zM310.315 94.395h1.404v1.404h-1.404zM312.431 94.395h1.401v1.404h-1.401zM314.464 94.395h1.404v1.404h-1.404zM316.5 94.395h1.403v1.404H316.5zM318.537 94.395h1.403v1.404h-1.403zM320.652 94.395h1.401v1.404h-1.401zM322.688 94.395h1.402v1.404h-1.402z"/></g><path fill="#2c323a" d="M.918 240h640v120h-640z"/><g fill="#78abd3"><path d="M435.75 287.479c1.521 0 2.748 1.216 2.748 2.722 0 1.457-1.275 2.673-2.748 2.673-1.521 0-2.746-1.216-2.746-2.673 0-1.557 1.176-2.722 2.746-2.722zM44.905 279.803h.737l-.1 2.04v.582c0 1.652.344 3.741 1.03 5.298 1.814 4.081 5.2 4.422 6.623 4.422 3.631 0 6.033-2.771 6.033-6.27 0-3.304-1.961-6.169-3.924-9.232l-1.274-1.99c-1.963-3.062-3.091-5.542-3.091-7.921 0-4.083 3.14-8.455 9.222-8.455 1.863 0 3.729.437 5.936 1.798.443.291.786.582 1.228.582.195 0 .49-.096.639-.291l.636-.972h.884l-2.109 10.836h-.885l-.195-3.013c-.197-3.062-.735-7.775-5.74-7.775-3.778 0-5.495 2.965-5.495 5.638 0 2.186 1.179 4.567 2.993 7.385l1.963 3.062c1.912 2.965 3.973 5.686 3.973 9.184 0 5.247-4.415 8.454-10.105 8.454-2.453 0-6.131-.679-9.763-4.52l-1.668 1.944h-1.079l3.531-10.786zM99.407 276.157c4.122.875 6.575 3.936 6.575 7.676 0 2.285-.882 5.832-5.493 7.532-2.698.973-7.458 1.215-9.91 1.215H78.658l.098-1.02 1.766-.146c.49-.049 1.963-.193 2.599-2.234l8.292-26.045c.049-.193.344-.972.344-1.749 0-1.312-1.079-1.604-2.648-1.604h-.393l.049-.921h8.192c.687 0 1.324-.052 2.012-.052 1.275 0 4.072.295 6.182 1.363 3.237 1.65 3.972 4.42 3.972 6.752 0 3.45-1.813 5.93-4.218 7.288-1.57.925-3.777 1.412-5.496 1.557v.388zm-12.412 15.355c.934.098 2.063.146 3.289.146 2.503 0 5.3-.292 7.163-1.263 2.942-1.556 3.973-4.324 3.973-7.678 0-1.166-.146-6.316-6.131-6.316h-3.533l-4.761 15.111zm8.784-16.183c5.592 0 9.222-4.03 9.222-9.034 0-4.666-2.894-6.415-5.544-6.415-2.305 0-2.894 1.458-3.187 2.333l-4.123 13.116h3.632zM133.651 287.091c-.195.68-.538 1.408-.538 2.234 0 2.04 1.863 2.284 3.629 2.284h.59v.971h-14.326v-1.02l2.208-.098c1.325-.049 2.55-.631 3.384-3.255l9.028-28.376h-7.017l-5.838 6.753h-.882l2.307-7.725h27.568l-2.354 8.113h-.833l-1.079-7.142h-7.261l-8.586 27.261zM160.145 275.769c.342-.826.44-1.116.44-1.557 0-.58-.294-.679-.392-.679-.443 0-1.13.583-2.012 1.651-.393.487-.884 1.117-2.797 3.597l-.784-.487c.784-1.262 2.305-3.449 3.581-4.81 1.079-1.165 2.845-2.623 4.512-2.623 1.619 0 1.67 1.313 1.67 1.699 0 .924-.493 2.868-.737 3.645 1.816-2.525 4.317-5.442 7.604-5.442 1.914 0 3.239 1.07 3.239 2.625 0 1.506-1.128 2.186-2.012 2.186-1.177 0-1.521-.921-1.717-1.506-.246-.68-.539-1.263-1.669-1.263-1.226 0-3.091.972-6.082 5.977-2.258 3.74-4.759 9.281-6.428 13.799h-3.384l6.968-16.812zM195.219 285.681c-3.775 6.024-7.161 7.482-9.614 7.482-1.963 0-3.875-1.069-3.875-3.886 0-3.743 3.237-8.165 5.249-10.594 4.611-5.637 8.535-7.678 11.43-7.678 1.767 0 2.797.924 3.287 2.089l2.307-2.089h1.765l-6.032 12.1c-2.307 4.665-2.847 6.123-2.847 6.803 0 .486.245.68.491.68h.098c.833-.097 3.188-2.672 4.121-3.79l.588-.68.54.535-1.472 1.797c-1.177 1.458-4.366 4.713-6.23 4.713-.687 0-1.57-.437-1.57-1.7s.688-2.915 1.472-5.005l.292-.777zm3.042-13.801c-3.091 0-6.524 4.665-8.143 6.999-1.276 1.845-4.905 7.191-4.905 10.495 0 1.603.931 2.235 1.961 2.235 1.374 0 4.072-1.118 8.389-7.921.394-.632 4.661-7.387 4.661-9.864 0-1.117-.687-1.944-1.963-1.944zM220.976 276.692c.688-1.652.785-2.236.785-2.576 0-.533-.244-.583-.441-.583-.394 0-1.276.291-3.483 3.353l-1.324 1.848-.736-.439 1.079-1.602c1.669-2.48 4.071-5.687 6.623-5.687 1.619 0 1.668 1.265 1.668 1.896 0 1.117-.196 1.895-1.177 4.274l-1.619 3.986c1.226-2.042 3.335-5.055 5.642-7.339.933-.922 3.091-2.914 5.494-2.914.49 0 2.258.096 2.258 2.088 0 1.41-.786 3.159-1.668 5.104l-4.857 10.883c-.148.293-.394.972-.394 1.313 0 .39.295.436.442.436.883 0 3.14-2.719 4.268-4.227l.736.585c-2.256 2.673-2.846 3.353-3.386 3.886-1.226 1.216-2.746 2.187-4.07 2.187-.688 0-1.768-.387-1.768-1.798 0-1.021.589-2.381 1.718-4.811l4.758-10.299c.197-.438.639-1.362.639-2.236 0-.729-.541-.973-.834-.973-1.03 0-3.238 1.798-5.594 4.956-1.618 2.188-5.199 7.289-8.143 14.577h-3.287l6.671-15.888zM251.932 281.94c-.441-.681-1.179-2.042-1.179-3.694 0-4.08 3.386-7.336 7.064-7.336 2.257 0 3.925 1.312 3.925 2.673 0 1.021-.882 1.65-1.766 1.65-1.128 0-1.619-.777-2.061-1.359-.687-.876-1.128-1.458-2.109-1.458-1.228 0-2.551 1.02-2.551 3.45 0 .729.098 1.651.883 2.964l2.306 3.79a8.154 8.154 0 0 1 1.177 4.178c0 3.935-2.55 6.365-6.572 6.365-3.582 0-6.084-1.554-6.084-3.207 0-.825.639-1.796 1.815-1.796 1.128 0 1.52.728 1.863 1.604.245.533.933 2.525 3.042 2.525 1.57 0 3.386-1.216 3.386-3.646 0-1.651-.883-3.059-1.374-3.886l-1.765-2.817zM283.279 261.241c.098-.244.244-.924.244-1.069 0-.437-.834-.73-2.012-.73-.244 0-.488 0-.785.05v-.875l7.163-.097-12.656 29.494c-.294.63-.638 1.36-.638 1.99 0 .487.195.536.294.536.736 0 2.797-1.896 5.348-5.588l.638.633c-1.619 2.379-5.789 7.53-8.439 7.53-.833 0-1.568-.486-1.568-1.75 0-.825.392-2.088.735-2.866l11.676-27.258zM305.306 285.681c-3.776 6.024-7.162 7.482-9.614 7.482-1.963 0-3.876-1.069-3.876-3.886 0-3.743 3.236-8.165 5.249-10.594 4.61-5.637 8.535-7.678 11.431-7.678 1.767 0 2.797.924 3.286 2.089l2.306-2.089h1.767l-6.034 12.1c-2.307 4.665-2.846 6.123-2.846 6.803 0 .486.246.68.491.68h.098c.834-.097 3.188-2.672 4.121-3.79l.59-.68.538.535-1.471 1.797c-1.177 1.458-4.367 4.713-6.23 4.713-.688 0-1.571-.437-1.571-1.7s.688-2.915 1.474-5.005l.291-.777zm3.042-13.801c-3.091 0-6.525 4.665-8.144 6.999-1.275 1.845-4.905 7.191-4.905 10.495 0 1.603.931 2.235 1.961 2.235 1.374 0 4.072-1.118 8.389-7.921.395-.632 4.662-7.387 4.662-9.864 0-1.117-.688-1.944-1.963-1.944zM328.902 287.819c-.49 1.02-.883 1.797-.883 2.429 0 .536.246.681.439.681 1.08 0 4.367-3.646 5.594-5.004l.736.681c-2.109 2.525-6.133 6.51-8.586 6.51-.539 0-1.766-.194-1.766-1.75 0-.437.051-.922.688-2.381l6.916-16.034h-3.285l.441-1.604h3.629l1.424-3.498 4.365-1.993-2.305 5.491h4.414l-.49 1.604h-4.611l-6.72 14.868zM355.051 276.012c.586-1.312.637-1.408.637-1.846v-.099c0-.193-.051-.484-.441-.484-1.322 0-4.17 4.13-5.199 5.49l-.641-.486c3.141-4.763 6.332-7.532 8.537-7.532.982 0 1.473.633 1.473 1.652 0 1.36-.98 3.062-1.273 3.79l-5.35 12.538c-.246.532-.441.921-.441 1.31 0 .292.195.439.393.439 1.18 0 3.924-3.549 4.807-4.909l.689.583c-2.404 3.596-5.496 6.705-7.754 6.705-.537 0-1.766-.194-1.766-1.7 0-1.02.443-2.138 1.521-4.616l4.808-10.835zm4.267-12.877c-1.227 0-2.209-1.021-2.209-2.282 0-1.361 1.033-2.333 2.307-2.333 1.324 0 2.355 1.02 2.355 2.186 0 1.312-1.128 2.429-2.453 2.429zM388.803 277.614c0 4.229-1.963 8.261-3.924 10.836-2.602 3.354-5.643 4.713-8.193 4.713-3.336 0-5.447-2.672-5.447-6.657 0-3.984 1.914-7.871 3.826-10.446 2.75-3.644 5.938-5.102 8.293-5.102 2.697 0 5.445 1.896 5.445 6.656zm-3.336 2.138c.883-2.429.98-3.838.98-4.615 0-2.478-1.668-3.062-2.697-3.062-2.209 0-4.318 2.965-6.279 6.366-2.943 5.003-3.877 8.697-3.877 10.64 0 1.992.982 3.16 2.553 3.16 2.207 0 3.826-2.333 4.707-3.598 2.111-3.109 3.681-6.266 4.613-8.891zM406.904 276.692c.688-1.652.783-2.236.783-2.576 0-.533-.242-.583-.439-.583-.393 0-1.275.291-3.484 3.353l-1.324 1.848-.734-.439 1.078-1.602c1.668-2.48 4.072-5.687 6.623-5.687 1.619 0 1.668 1.265 1.668 1.896 0 1.117-.197 1.895-1.176 4.274l-1.619 3.986c1.225-2.042 3.334-5.055 5.641-7.339.932-.922 3.09-2.914 5.494-2.914.49 0 2.258.096 2.258 2.088 0 1.41-.787 3.159-1.668 5.104l-4.857 10.883c-.148.293-.393.972-.393 1.313 0 .39.295.436.441.436.883 0 3.141-2.719 4.268-4.227l.736.585c-2.256 2.673-2.846 3.353-3.385 3.886-1.227 1.216-2.746 2.187-4.072 2.187-.686 0-1.766-.387-1.766-1.798 0-1.021.588-2.381 1.717-4.811l4.758-10.299c.197-.438.639-1.362.639-2.236 0-.729-.541-.973-.834-.973-1.033 0-3.238 1.798-5.592 4.956-1.619 2.188-5.201 7.289-8.145 14.577h-3.287l6.671-15.888zM465.822 286.653c-3.139 5.196-5.887 6.462-8.34 6.462-4.268 0-4.465-3.838-4.465-4.665 0-3.985 2.504-8.212 4.662-10.98 2.992-3.887 6.328-6.464 9.959-6.464 1.715 0 3.141.729 3.141 2.285 0 1.262-.934 1.894-1.865 1.894-1.031 0-1.57-.68-1.57-1.553 0-.293.049-.487.195-.778.1-.146.246-.34.246-.583 0-.195-.146-.486-.688-.486-1.619 0-3.631 1.507-5.15 3.645-.982 1.409-2.551 4.081-4.021 7.628-1.326 3.208-1.77 5.151-1.77 6.414 0 1.41.541 2.771 1.963 2.771 2.553 0 5.348-3.45 7.164-6.025l.539.435zM497.811 277.614c0 4.229-1.963 8.261-3.928 10.836-2.598 3.354-5.641 4.713-8.191 4.713-3.336 0-5.445-2.672-5.445-6.657 0-3.984 1.914-7.871 3.826-10.446 2.746-3.644 5.936-5.102 8.291-5.102 2.699 0 5.447 1.896 5.447 6.656zm-3.338 2.138c.885-2.429.982-3.838.982-4.615 0-2.478-1.668-3.062-2.699-3.062-2.207 0-4.316 2.965-6.279 6.366-2.943 5.003-3.877 8.697-3.877 10.64 0 1.992.982 3.16 2.553 3.16 2.209 0 3.826-2.333 4.709-3.598 2.109-3.109 3.681-6.266 4.611-8.891zM516.156 276.012c.148-.388.541-1.459.541-1.846 0-.099 0-.633-.393-.633-.836 0-2.012 1.312-4.221 4.373l-.637.875-.736-.487c.393-.581 2.061-3.109 3.436-4.662.684-.778 2.402-2.577 4.365-2.577.441 0 1.57.147 1.57 1.701 0 1.36-.885 3.645-1.227 4.47l-1.57 3.938c1.326-2.235 3.041-4.618 4.855-6.511 2.65-2.819 4.709-3.694 6.182-3.694.59 0 2.355.097 2.355 2.187 0 .68-.195 1.556-.934 3.353l-2.158 5.151c1.277-1.992 3.24-4.859 5.102-6.852.982-1.069 3.73-3.839 6.477-3.839 1.57 0 2.209 1.069 2.209 2.234 0 1.652-1.031 3.646-1.814 5.346l-4.268 9.426c-.738 1.652-.836 1.848-.836 2.284 0 .146 0 .484.295.484.785 0 2.748-1.941 4.414-4.178l.736.584c-1.914 2.429-4.758 6.024-7.406 6.024-1.227 0-1.77-.922-1.77-1.749 0-1.603 1.326-3.983 2.014-5.489l4.023-8.748c.785-1.699 1.078-2.524 1.078-3.157 0-.584-.391-.973-.885-.973-1.273 0-4.658 2.625-9.369 10.545-1.668 2.817-3.336 6.172-4.611 8.988h-3.336l6.818-16.278c.199-.436.641-1.602.641-2.234 0-.68-.393-1.021-.836-1.021-1.127 0-3.531 1.944-6.279 5.832-2.895 4.033-5.492 8.892-7.455 13.701h-3.289l6.919-16.568z"/></g><g fill="#78abd3"><path d="M48.369 311.321h-2.997v6.639h-1.499v-15.781h4.54c1.539.043 2.729.497 3.564 1.36.836.864 1.257 1.891 1.266 3.079-.029 1.275-.494 2.368-1.393 3.276-.9.907-2.059 1.382-3.481 1.427zm-2.997-7.622v6.046h2.909c1.095-.028 1.915-.342 2.458-.938.545-.598.817-1.284.817-2.056 0-.839-.259-1.552-.777-2.135s-1.291-.889-2.321-.917h-3.086zM60.836 307.515c-.887.029-1.565.307-2.031.832a2.63 2.63 0 0 0-.699 1.803v7.811h-1.5V306.26h1.411v1.202c.363-.442.78-.789 1.254-1.044a4.832 4.832 0 0 1 1.565-.51v1.607zM69.341 305.722c1.945.087 3.461.778 4.542 2.072 1.079 1.294 1.626 2.677 1.642 4.149-.016 1.582-.566 3.013-1.659 4.292-1.091 1.28-2.648 1.96-4.667 2.041-2.088-.103-3.644-.828-4.665-2.176-1.021-1.349-1.528-2.735-1.521-4.157.022-1.53.59-2.93 1.699-4.198 1.109-1.269 2.652-1.943 4.629-2.023zm-4.729 6.221a5.343 5.343 0 0 0 1.182 3.375c.781.986 1.899 1.507 3.358 1.559 1.488-.044 2.651-.537 3.492-1.478.84-.938 1.267-2.063 1.282-3.368-.009-1.284-.414-2.404-1.221-3.363-.808-.958-1.947-1.463-3.419-1.513-1.466.05-2.608.557-3.427 1.52-.816.962-1.231 2.051-1.247 3.268zM80.977 307.373v10.587h-1.499v-10.587h-1.633v-1.291h1.543c-.015-1.485.301-2.543.95-3.166.647-.623 1.694-.928 3.136-.913v1.345c-.873.016-1.509.202-1.909.558-.4.357-.596.813-.588 1.368v.809h2.453v1.291h-2.453zM98.309 312.436H87.394c.008 1.029.403 2.01 1.191 2.941.79.934 1.907 1.434 3.35 1.5 1.073-.014 1.961-.27 2.664-.767a4.535 4.535 0 0 0 1.565-1.882h1.732c-.37 1.014-1.043 1.929-2.02 2.74-.979.813-2.229 1.249-3.755 1.308-1.82-.051-3.319-.669-4.494-1.854-1.178-1.185-1.79-2.707-1.833-4.565 0-1.546.53-2.937 1.592-4.172 1.063-1.238 2.672-1.891 4.825-1.964 1.866.044 3.342.687 4.43 1.931 1.089 1.244 1.645 2.838 1.668 4.784zm-1.69-1.256c-.146-.949-.586-1.849-1.31-2.701-.727-.853-1.821-1.311-3.287-1.368-1.384.037-2.46.452-3.23 1.248a4.782 4.782 0 0 0-1.355 2.821h9.182zM100.804 314.229h1.589c-.009.68.172 1.283.539 1.813.365.527.944.807 1.736.836.726-.022 1.271-.244 1.639-.662.365-.42.549-.886.549-1.406-.028-.786-.321-1.349-.878-1.684a8.398 8.398 0 0 0-1.897-.83 5.427 5.427 0 0 1-1.888-1.012c-.548-.456-.828-1.205-.845-2.248 0-.788.294-1.526.879-2.215.582-.689 1.476-1.055 2.674-1.099 1.059.007 1.896.297 2.511.869.614.573.927 1.357.941 2.357h-1.685c0-.504-.164-.924-.49-1.263-.325-.341-.799-.518-1.421-.53-.556.021-.996.214-1.321.578-.326.365-.492.77-.499 1.215.022.713.309 1.217.859 1.509.553.29 1.193.541 1.921.75a4.837 4.837 0 0 1 1.932 1.06c.56.499.854 1.319.883 2.455-.007.954-.35 1.775-1.03 2.462-.683.684-1.641 1.05-2.877 1.093-1.317-.059-2.285-.499-2.904-1.323-.617-.824-.924-1.733-.917-2.725zM111.04 314.229h1.588a3.04 3.04 0 0 0 .539 1.813c.366.527.945.807 1.736.836.727-.022 1.271-.244 1.639-.662.366-.42.549-.886.549-1.406-.029-.786-.322-1.349-.877-1.684a8.457 8.457 0 0 0-1.897-.83 5.432 5.432 0 0 1-1.889-1.012c-.549-.456-.829-1.205-.844-2.248 0-.788.292-1.526.878-2.215.584-.689 1.477-1.055 2.675-1.099 1.057.007 1.896.297 2.51.869.614.573.929 1.357.943 2.357h-1.688c0-.504-.163-.924-.487-1.263-.328-.341-.801-.518-1.423-.53-.556.021-.996.214-1.32.578-.325.365-.492.77-.499 1.215.021.713.309 1.217.86 1.509.551.29 1.19.541 1.92.75.729.206 1.372.561 1.932 1.06s.852 1.319.882 2.455c-.008.954-.35 1.775-1.031 2.462-.682.684-1.641 1.05-2.877 1.093-1.316-.059-2.284-.499-2.902-1.323-.618-.824-.923-1.733-.917-2.725zM123.553 302.179v2.418h-1.499v-2.418h1.499zm-1.499 3.903h1.499v11.878h-1.499v-11.878zM133.145 305.722c1.947.087 3.461.778 4.542 2.072 1.08 1.294 1.629 2.677 1.643 4.149-.014 1.582-.568 3.013-1.661 4.292-1.091 1.28-2.646 1.96-4.667 2.041-2.087-.103-3.644-.828-4.663-2.176-1.022-1.349-1.53-2.735-1.521-4.157.021-1.53.589-2.93 1.699-4.198 1.108-1.269 2.653-1.943 4.628-2.023zm-4.729 6.221a5.35 5.35 0 0 0 1.182 3.375c.781.986 1.901 1.507 3.358 1.559 1.488-.044 2.651-.537 3.49-1.478.841-.938 1.269-2.063 1.283-3.368-.006-1.284-.414-2.404-1.22-3.363-.809-.958-1.948-1.463-3.42-1.513-1.465.05-2.607.557-3.426 1.52-.816.962-1.234 2.051-1.247 3.268zM152.74 317.96h-1.5v-7.273a3.709 3.709 0 0 0-.753-2.357c-.519-.688-1.403-1.051-2.654-1.088-1.348.037-2.311.439-2.887 1.208-.577.771-.857 1.666-.844 2.686v6.825h-1.498v-11.79h1.498v1.345c.348-.48.892-.882 1.631-1.203a5.968 5.968 0 0 1 2.275-.503c1.475.029 2.627.489 3.46 1.377.832.891 1.257 2.014 1.271 3.37v7.403zM162.343 305.722c.866.007 1.723.21 2.57.606s1.533.924 2.061 1.581l-.044-1.827h1.499v11.878h-1.499l.044-1.892a5.91 5.91 0 0 1-1.948 1.567c-.789.405-1.761.618-2.915.641-2.088-.116-3.626-.85-4.619-2.198-.992-1.348-1.483-2.684-1.476-4.003.021-1.633.587-3.085 1.699-4.352 1.108-1.27 2.653-1.936 4.628-2.001zm0 1.433c-1.554.063-2.731.604-3.529 1.618-.802 1.014-1.2 2.099-1.2 3.258 0 1.146.392 2.222 1.179 3.231.783 1.011 1.949 1.548 3.495 1.614 1.452-.066 2.591-.605 3.42-1.619s1.252-2.104 1.267-3.271c-.015-1.181-.43-2.267-1.244-3.258-.817-.991-1.943-1.515-3.388-1.573zM172.346 302.179h1.5v15.781h-1.5v-15.781zM189.244 310.379h1.642c1.088-.036 1.914-.384 2.476-1.043.563-.659.846-1.402.846-2.226a3.382 3.382 0 0 0-.923-2.385c-.621-.679-1.588-1.034-2.898-1.071h-3.275v14.306h-1.498v-15.781h5.042c1.567.028 2.82.5 3.751 1.416.933.915 1.41 2.102 1.433 3.561.007 1.026-.308 2.021-.943 2.979-.637.958-1.625 1.503-2.966 1.634l3.909 6.191h-1.864l-4.732-7.581zM199.579 313.508v-7.426h1.499v7.295c-.015.934.248 1.74.788 2.423.54.681 1.428 1.041 2.665 1.077 1.347-.044 2.301-.456 2.863-1.236.563-.78.836-1.684.821-2.712v-6.847h1.499v11.878h-1.499v-1.357c-.34.505-.806.905-1.398 1.204-.591.299-1.34.455-2.242.47-1.576-.043-2.799-.51-3.669-1.399-.869-.891-1.312-2.013-1.327-3.37zM212.856 314.229h1.589c-.008.68.172 1.283.537 1.813.367.527.946.807 1.738.836.726-.022 1.272-.244 1.638-.662.367-.42.549-.886.549-1.406-.028-.786-.32-1.349-.877-1.684a8.429 8.429 0 0 0-1.896-.83 5.418 5.418 0 0 1-1.888-1.012c-.548-.456-.83-1.205-.846-2.248 0-.788.293-1.526.878-2.215.585-.689 1.477-1.055 2.676-1.099 1.059.007 1.895.297 2.51.869.615.573.928 1.357.942 2.357h-1.685c0-.504-.166-.924-.491-1.263-.324-.341-.799-.518-1.421-.53-.555.021-.995.214-1.32.578-.326.365-.493.77-.5 1.215.021.713.311 1.217.86 1.509.551.29 1.192.541 1.92.75a4.837 4.837 0 0 1 1.932 1.06c.56.499.854 1.319.883 2.455-.007.954-.352 1.775-1.031 2.462-.681.684-1.64 1.05-2.876 1.093-1.317-.059-2.285-.499-2.903-1.323-.619-.824-.924-1.733-.918-2.725zM223.093 314.229h1.589c-.008.68.172 1.283.538 1.813.364.527.945.807 1.736.836.727-.022 1.271-.244 1.639-.662.365-.42.549-.886.549-1.406-.03-.786-.322-1.349-.876-1.684a8.454 8.454 0 0 0-1.899-.83 5.445 5.445 0 0 1-1.888-1.012c-.547-.456-.828-1.205-.843-2.248 0-.788.292-1.526.877-2.215.585-.689 1.477-1.055 2.675-1.099 1.058.007 1.896.297 2.51.869.614.573.928 1.357.944 2.357h-1.688c0-.504-.164-.924-.488-1.263-.328-.341-.801-.518-1.423-.53-.555.021-.994.214-1.32.578-.326.365-.492.77-.499 1.215.02.713.309 1.217.859 1.509.553.29 1.191.541 1.921.75a4.86 4.86 0 0 1 1.933 1.06c.559.499.852 1.319.881 2.455-.008.954-.35 1.775-1.031 2.462-.682.684-1.642 1.05-2.877 1.093-1.315-.059-2.283-.499-2.903-1.323-.618-.824-.924-1.733-.916-2.725zM235.605 302.179v2.418h-1.498v-2.418h1.498zm-1.498 3.903h1.498v11.878h-1.498v-11.878zM245.197 305.722c.866.007 1.722.21 2.569.606s1.535.924 2.062 1.581l-.045-1.827h1.498v11.878h-1.498l.045-1.892a5.898 5.898 0 0 1-1.95 1.567c-.787.405-1.759.618-2.915.641-2.086-.116-3.626-.85-4.617-2.198-.991-1.348-1.485-2.684-1.477-4.003.022-1.633.588-3.085 1.699-4.352 1.111-1.27 2.653-1.936 4.629-2.001zm0 1.433c-1.555.063-2.73.604-3.53 1.618-.798 1.014-1.199 2.099-1.199 3.258 0 1.146.393 2.222 1.177 3.231.785 1.011 1.95 1.548 3.496 1.614 1.453-.066 2.592-.605 3.42-1.619.83-1.014 1.252-2.104 1.268-3.271-.016-1.181-.431-2.267-1.244-3.258-.814-.991-1.944-1.515-3.388-1.573zM265.335 317.96h-1.497v-7.273a3.705 3.705 0 0 0-.755-2.357c-.518-.688-1.402-1.051-2.653-1.088-1.347.037-2.31.439-2.887 1.208-.578.771-.858 1.666-.844 2.686v6.825H255.2v-11.79h1.499v1.345c.349-.48.892-.882 1.633-1.203a5.947 5.947 0 0 1 2.274-.503c1.473.029 2.627.489 3.459 1.377.832.891 1.256 2.014 1.27 3.37v7.403zM283.932 303.654H280.7v14.306h-1.498v-14.306h-3.229v-1.476h7.959v1.476zM290.981 307.515c-.887.029-1.563.307-2.031.832a2.635 2.635 0 0 0-.699 1.803v7.811h-1.499V306.26h1.41v1.202a4.155 4.155 0 0 1 1.256-1.044 4.82 4.82 0 0 1 1.563-.51v1.607zM299.487 305.722c.865.007 1.722.21 2.568.606.849.396 1.535.924 2.061 1.581l-.045-1.827h1.499v11.878h-1.499l.045-1.892a5.87 5.87 0 0 1-1.948 1.567c-.789.405-1.761.618-2.915.641-2.088-.116-3.627-.85-4.618-2.198-.992-1.348-1.483-2.684-1.477-4.003.021-1.633.59-3.085 1.697-4.352 1.112-1.27 2.655-1.936 4.632-2.001zm0 1.433c-1.555.063-2.732.604-3.531 1.618s-1.199 2.099-1.199 3.258c0 1.146.392 2.222 1.177 3.231.786 1.011 1.95 1.548 3.497 1.614 1.452-.066 2.59-.605 3.42-1.619.829-1.014 1.252-2.104 1.266-3.271-.014-1.181-.429-2.267-1.243-3.258-.816-.991-1.945-1.515-3.387-1.573zM319.627 317.96h-1.499v-7.273a3.7 3.7 0 0 0-.757-2.357c-.517-.688-1.402-1.051-2.653-1.088-1.346.037-2.309.439-2.886 1.208-.576.771-.859 1.666-.845 2.686v6.825h-1.498v-11.79h1.498v1.345c.349-.48.894-.882 1.633-1.203a5.956 5.956 0 0 1 2.276-.503c1.473.029 2.626.489 3.458 1.377.834.891 1.257 2.014 1.272 3.37v7.403zM322.768 314.229h1.588c-.008.68.172 1.283.537 1.813.365.527.947.807 1.738.836.727-.022 1.27-.244 1.637-.662.365-.42.549-.886.549-1.406-.027-.786-.32-1.349-.875-1.684a8.462 8.462 0 0 0-1.9-.83 5.458 5.458 0 0 1-1.887-1.012c-.549-.456-.83-1.205-.844-2.248 0-.788.291-1.526.879-2.215.584-.689 1.475-1.055 2.674-1.099 1.059.007 1.896.297 2.508.869.617.573.93 1.357.943 2.357h-1.688c0-.504-.16-.924-.486-1.263-.326-.341-.799-.518-1.422-.53-.555.021-.996.214-1.32.578-.326.365-.494.77-.5 1.215.021.713.309 1.217.861 1.509.549.29 1.191.541 1.92.75a4.843 4.843 0 0 1 1.932 1.06c.561.499.852 1.319.883 2.455-.008.954-.352 1.775-1.031 2.462-.682.684-1.641 1.05-2.877 1.093-1.318-.059-2.285-.499-2.904-1.323-.617-.824-.923-1.733-.915-2.725zM333.779 302.179h1.5v15.781h-1.5v-15.781zM344.871 305.722c.865.007 1.723.21 2.57.606s1.533.924 2.059 1.581l-.043-1.827h1.496v11.878h-1.496l.043-1.892a5.896 5.896 0 0 1-1.947 1.567c-.789.405-1.76.618-2.916.641-2.086-.116-3.627-.85-4.617-2.198-.992-1.348-1.484-2.684-1.477-4.003.021-1.633.588-3.085 1.697-4.352 1.11-1.27 2.655-1.936 4.631-2.001zm0 1.433c-1.555.063-2.732.604-3.531 1.618s-1.197 2.099-1.197 3.258c0 1.146.391 2.222 1.176 3.231.783 1.011 1.951 1.548 3.496 1.614 1.449-.066 2.59-.605 3.42-1.619.828-1.014 1.25-2.104 1.266-3.271-.016-1.181-.43-2.267-1.242-3.258-.818-.991-1.945-1.515-3.388-1.573zM355.963 317.96v-10.357h-2.32v-1.521h2.32v-3.903h1.498v3.903h2.32v1.521h-2.32v10.357h-1.498zM363.967 302.179v2.418h-1.498v-2.418h1.498zm-1.498 3.903h1.498v11.878h-1.498v-11.878zM373.559 305.722c1.947.087 3.461.778 4.541 2.072s1.629 2.677 1.645 4.149c-.016 1.582-.57 3.013-1.66 4.292-1.092 1.28-2.648 1.96-4.67 2.041-2.086-.103-3.641-.828-4.662-2.176-1.023-1.349-1.529-2.735-1.521-4.157.021-1.53.588-2.93 1.699-4.198 1.108-1.269 2.651-1.943 4.628-2.023zm-4.731 6.221a5.334 5.334 0 0 0 1.184 3.375c.779.986 1.902 1.507 3.357 1.559 1.488-.044 2.652-.537 3.492-1.478.84-.938 1.268-2.063 1.283-3.368-.008-1.284-.414-2.404-1.221-3.363-.809-.958-1.949-1.463-3.42-1.513-1.467.05-2.609.557-3.426 1.52-.817.962-1.231 2.051-1.249 3.268zM393.154 317.96h-1.5v-7.273a3.694 3.694 0 0 0-.756-2.357c-.516-.688-1.4-1.051-2.65-1.088-1.348.037-2.311.439-2.887 1.208-.578.771-.859 1.666-.844 2.686v6.825h-1.5v-11.79h1.5v1.345c.348-.48.891-.882 1.631-1.203s1.5-.488 2.275-.503c1.473.029 2.627.489 3.459 1.377.832.891 1.256 2.014 1.271 3.37v7.403zM404.289 313.465h1.51c.008.758.238 1.475.693 2.148.457.674 1.225 1.033 2.305 1.077.961-.021 1.699-.338 2.215-.946.514-.608.775-1.383.781-2.323-.043-1.103-.416-1.868-1.119-2.303a9.108 9.108 0 0 0-2.432-1.021 6.896 6.896 0 0 1-2.438-1.188c-.707-.542-1.076-1.471-1.104-2.784-.008-.983.334-1.924 1.025-2.82s1.773-1.377 3.248-1.443c1.338.036 2.344.462 3.014 1.28.67.815 1.018 1.778 1.039 2.887h-1.455a3.28 3.28 0 0 0-.666-1.805c-.406-.547-1.051-.839-1.932-.876-.91.037-1.594.336-2.049.897s-.684 1.174-.684 1.837c.037.904.408 1.548 1.111 1.932.703.382 1.518.705 2.443.967.924.263 1.74.683 2.453 1.264.711.579 1.092 1.535 1.143 2.87.016 1.313-.348 2.478-1.088 3.494-.742 1.017-1.953 1.558-3.643 1.625-1.479-.067-2.578-.588-3.295-1.564-.716-.979-1.075-2.045-1.075-3.205zM428.713 312.436h-10.912c.006 1.029.404 2.01 1.193 2.941.787.934 1.904 1.434 3.346 1.5 1.074-.014 1.963-.27 2.664-.767a4.522 4.522 0 0 0 1.566-1.882h1.732c-.371 1.014-1.043 1.929-2.02 2.74-.979.813-2.229 1.249-3.754 1.308-1.82-.051-3.32-.669-4.496-1.854-1.178-1.185-1.789-2.707-1.832-4.565 0-1.546.531-2.937 1.592-4.172 1.064-1.238 2.672-1.891 4.826-1.964 1.865.044 3.342.687 4.43 1.931 1.089 1.244 1.643 2.838 1.665 4.784zm-1.686-1.256c-.15-.949-.586-1.849-1.313-2.701-.725-.853-1.82-1.311-3.285-1.368-1.383.037-2.461.452-3.23 1.248a4.794 4.794 0 0 0-1.355 2.821h9.183zM436.219 307.515c-.887.029-1.564.307-2.033.832a2.64 2.64 0 0 0-.699 1.803v7.811h-1.498V306.26h1.41v1.202a4.167 4.167 0 0 1 1.256-1.044 4.81 4.81 0 0 1 1.564-.51v1.607zM442.357 317.96l-4.695-11.878h1.598l3.865 9.624 3.963-9.624h1.633l-4.951 11.878h-1.413zM452.727 302.179v2.418h-1.498v-2.418h1.498zm-1.498 3.903h1.498v11.878h-1.498v-11.878zM468.047 314.229a6.035 6.035 0 0 1-2.119 2.895c-.994.74-2.213 1.124-3.664 1.153-1.969-.081-3.502-.754-4.6-2.019-1.102-1.264-1.658-2.717-1.672-4.357.029-1.589.617-3 1.764-4.232 1.148-1.231 2.67-1.881 4.564-1.946 1.375.021 2.563.396 3.563 1.126a6.157 6.157 0 0 1 2.164 2.811h-1.686a5.44 5.44 0 0 0-1.609-1.777c-.668-.471-1.51-.713-2.533-.726-1.502.058-2.648.57-3.436 1.536-.787.965-1.186 2.049-1.193 3.252.008 1.204.398 2.31 1.172 3.319.771 1.011 1.912 1.548 3.416 1.614 1.057-.022 1.939-.291 2.65-.805.711-.513 1.207-1.129 1.488-1.844h1.731zM483.645 312.436h-10.912c.006 1.029.406 2.01 1.195 2.941.787.934 1.902 1.434 3.346 1.5 1.074-.014 1.963-.27 2.666-.767a4.547 4.547 0 0 0 1.564-1.882h1.73c-.369 1.014-1.043 1.929-2.021 2.74-.975.813-2.227 1.249-3.75 1.308-1.822-.051-3.322-.669-4.496-1.854-1.18-1.185-1.789-2.707-1.834-4.565 0-1.546.531-2.937 1.594-4.172 1.063-1.238 2.672-1.891 4.824-1.964 1.865.044 3.342.687 4.43 1.931 1.089 1.244 1.644 2.838 1.664 4.784zm-1.688-1.256c-.146-.949-.584-1.849-1.309-2.701s-1.82-1.311-3.285-1.368c-1.387.037-2.463.452-3.232 1.248a4.806 4.806 0 0 0-1.355 2.821h9.181zM486.143 314.229h1.59a3.04 3.04 0 0 0 .539 1.813c.365.527.945.807 1.736.836.725-.022 1.271-.244 1.639-.662.365-.42.549-.886.549-1.406-.031-.786-.322-1.349-.877-1.684a8.466 8.466 0 0 0-1.898-.83 5.423 5.423 0 0 1-1.887-1.012c-.549-.456-.828-1.205-.844-2.248 0-.788.291-1.526.877-2.215.584-.689 1.477-1.055 2.674-1.099 1.059.007 1.896.297 2.51.869.615.573.93 1.357.943 2.357h-1.686c0-.504-.164-.924-.49-1.263-.326-.341-.799-.518-1.42-.53-.555.021-.996.214-1.322.578-.324.365-.49.77-.498 1.215.021.713.307 1.217.859 1.509.551.29 1.191.541 1.92.75.73.206 1.375.561 1.932 1.06.559.499.854 1.319.885 2.455-.008.954-.352 1.775-1.033 2.462-.682.684-1.641 1.05-2.877 1.093-1.318-.059-2.285-.499-2.902-1.323-.621-.824-.925-1.733-.919-2.725z"/></g><path d="M602.25 293.284c0 13.775-11.168 24.941-24.943 24.941s-24.943-11.166-24.943-24.941c0-13.777 11.168-24.943 24.943-24.943s24.943 11.166 24.943 24.943z" fill="#b3cc4a"/><path d="M602.301 293.276c0 13.807-11.193 25-25 25-13.809 0-25-11.193-25-25s11.191-25 25-25c13.806 0 25 11.194 25 25zm-20.098-17.716l.189-.012.1-.057.221.072.053-.117-.242-.154-.115.102-.133.055-.168.029-.207.021.037-.164-.131-.105-.209-.07-.127.004-.004.111-.051.094.123.107-.016.154.141.012-.041.086.154.063-.068.082.023.16.01.006.17.027.275.01.209-.057.004-.121.113.109.193.01.205-.045.219-.096-.215-.053-.217-.078-.23-.08-.166-.021-.099-.084zm9.217 4.007l.158.025.012-.109-.113-.072-.084.043.027.113m-.057-.277l.182.066.035-.088-.047-.133-.07.01-.078-.115-.146-.047.064.154.06.153zm.311.184l.094-.01-.023-.107-.055-.076-.039.072.023.121m-.953-1.682l.152.035-.08-.113-.156-.063-.09-.104.066.146.108.099zm5.386 7.172l.057-.088.088-.018-.086-.191-.104.047.045.25m6.012 9.24l.016-.053-.002-.154-.016.023.002.184m-24.389 24.057h-.025l.055-.004h-.102l-.135.004-.078.002m-2.607-25.516l.193.088.145.088.066-.178-.178.023-.226-.021m2.777 25.479l-.059.01v.008l-.055.01h.184l.084-.008-.053-.004.111-.01-.025-.006h-.187zm5.291-11.094l.244-.041.1-.107-.01-.18-.279.076.072.021.008.146-.135.085zm-3.115-.485l.143.092m-5.909-3.797l.045.072-.043.049.088.025.135-.027-.055-.123-.084-.072-.086.076m8.741 1.883l.041.121.063-.107.104-.018-.078-.084-.025.102-.105-.014zm.308.492l.148.105m-5.39-1.982l.203-.004.068-.164-.068.1-.135-.031-.068.099m-1.637-2.271l-.049-.086-.117-.004-.186.063-.113-.088m.657.328l.082-.205-.18-.172m.553.92v-.188l-.234-.156m.415.346l.146.207m.001.203l.188.326m.255.268l.148-.15-.203-.104m.487.158l.162.033m.516.246l-.258-.082-.148.098m-3.731-1.266l.207-.033m2.139-4.289l.15-.072.059-.141m.48-2.17l.221-.043.219-.041.219-.115-.111-.07-.162.078-.166.039-.193.043-.027.109m-1.543-6.847l.143-.027-.174.166.143.01.088-.104-.012.18.074-.246-.053-.109-.209.13zm-.625 1.357l.145.086.172.082-.053-.182-.105-.047-.159.061zm1.164-8.5l-.053.123.023.172.164.068.133-.053.201.049.023-.115-.035-.16-.131-.08-.17-.025-.155.021m-.814-2.481l.045.115-.004.146-.086.113-.033.162.064.15.236.049.139-.111.111-.156.129-.074.031-.135-.123-.063.076-.141-.037-.098-.148-.055-.039-.119.012-.162-.1-.021-.074.148-.133.098-.066.154zm-.334-.058l.104.09-.01-.164-.094.074m-.182.814l.129.113.164.086.104-.061.016-.086-.215-.063-.198.011m-.724-.254l-.078.172.092.078.023-.135.055-.111-.092-.004m-.463.881l.117.041.004-.141-.121.1m-.002-1.357l.137.051.039.078.111.043.092-.033-.082-.127-.178-.059-.119.047m-.211.025l-.014.094.068.016.076-.105-.13-.005m.09.131l-.063.113.09.09.186-.016.123-.135-.084-.037h-.123l-.129-.015zm-1.057.363l.049.082.111-.057.137-.096-.156.008-.141.063m-8.09-5.462l-.283.162m-1.201 1.093l-.098.088-.014.064.104-.104.008-.048m-1.209 1.848l.053.02.072-.098-.125.078zm-.037.205l-.006.1.08-.104-.074.004zm.031.332l.008.08.078-.008m-.039.879l.131.086.051.031.088-.041-.02-.078-.25.002zm.177.18l.053.094.066.07.105-.053.006-.137-.117.059-.113-.033zm3.909-2.098l-.133.035.014.129-.148.166.082.109.051-.148.107-.121.027-.17zm-1.416 1.059l-.098.129-.039.115.063.078.094-.037.033-.102-.027-.092-.026-.091zm-.887 2.533l-.148.23.121.055.135-.018.104.098.104-.113.01-.1.137.092.068-.121-.16-.047-.15-.035-.221-.041zm20.838-1.16l-.072-.166m-2.196-.123l.141.098.039-.072-.18-.026zm15.912 1.258l-.064-.098-.037-.053-.027-.031.014.031.035.072-.047-.051-.061-.072-.037-.027-.014.008-.043-.027m-2.59-3.465l.057.064-.15-.16-.127-.133-.164-.166-.023-.029-.025-.027-.121-.123m-8.554-5.524l-.053-.037-.014-.018-.164-.041-.033.002-.178-.066-.15-.051-.242-.09-.195-.082-.156-.051-.143-.063-.215-.074-.182-.049.137.047.135.041.121.047.146.051.119.047.186.076.23.086.115.053.203.068.17.061.163.043m-20.623 1.014l-.053.025-.064.049-.158.09-.092.068-.072.057.121-.078.049-.016.094-.047.02.018.094-.074.137-.076.176-.092.205-.096.129-.057.162-.064.162-.068.057-.043-.154.053-.057.01-.037.004.039-.031-.08.029-.678.339zm-.281.215l-.029.033-.029.035m-.159.104l-.064.066-.084.082-.057.072.057-.061.109-.064.045-.055-.006-.04zm-.315.312l-.055.045-.033.074.07-.066.018-.053zm-.215.277l-.006.045m.194.303l-.07.012-.064.092.033.023.066-.012-.014-.047.049-.068zm4.594-2.232l-.119.023-.023.063.154-.051-.012-.035zm-3.438 3.142l.006.141.1-.029.014-.076-.12-.036zm2.186-2.719l-.137.002-.07-.021-.104-.002-.139.037-.104.01-.084-.008-.119.014-.102.006-.064-.004-.025-.016-.09.025-.137.033-.043-.012-.113.018-.02-.02-.186.055.035.016-.031.033-.117.057-.162.068.098-.018.113-.051.084-.021.125-.049.105-.031.08-.002.027.021.047.006-.023.037-.111.063-.182.078.125-.029.158-.039.16-.037.143-.025.143-.021.158-.031.088.012.107.004.143-.014.125-.002.123-.023.068-.047-.143.02-.002-.031.053-.061zm1.285 4.428l-.113-.119-.121.021.023.109m0 .001l-.07.084.051.162.172-.092.059-.166-.212.012zm3.734-2.832l-.162.014-.213.094.086.047.229-.006.1-.076-.04-.073zm.223.096l-.096-.043-.045.045.063.039.078-.041m-.217.519l-.203-.031-.26.064-.102.07.088.084.184-.076.182-.09.111-.021zm11.676.385l-.17-.107-.139-.012-.01.123.17.043.149-.047m-4.303.629l-.088-.068-.17-.01-.09-.096-.086-.006-.131.078-.051-.064-.123-.014-.082.098.158.01.098-.029.176.066.131-.043.086.076.172.002m-.142.168l-.039-.104-.156-.055-.025.063-.156.014-.117.08.191.014.127-.061.074.061.101-.012m.234-.035l-.096-.068-.027.07.123-.002m.244.406l.006-.064-.051-.059.092-.027-.014-.076-.092-.061-.1.033-.143-.014-.004.047.174.07-.072.023-.018.057.222.071m7.258 6.414l.068-.049-.09-.17-.043.141.065.078m1.182-.375l-.152-.096.051.088m.267.502l.121-.018m.117 1.03l-.072-.238-.152-.166.045.211.117.088.062.105m.629-4.822l.074-.025-.088-.105-.09-.105-.018.119.122.116m-.219-.151l.057.006-.057-.105-.078.047.078.052m6.85 4.002l.07-.049.113.115.057.014-.018-.102.076.014-.102-.158.066-.025-.139-.068-.102-.055v-.102l-.117-.027-.043.066-.025.084.066.158.098.135zm.556-.016l-.027-.125-.006-.104.025-.043-.051-.174-.055-.176-.074-.08.076.16-.063-.055.045.15-.004.078.053.145-.037-.018.012.127.106.115zm-.654-2.119l.061.025-.043-.123-.084-.143-.072-.086-.047-.098-.041-.01-.166-.219.107.17.078.137.066.115.068.094.073.138zm.133.873l.066.041-.076-.123-.105-.117.115.199m-.649-.252l-.068-.051.037.074m.195.147l.066.051m-5.14 12.131l.15-.023m.659-.202l.148-.121m3.608 1.645l.107.057.021-.117-.041-.18-.031.146-.056.094zm.263-.125l.07.057.051-.109-.051-.076-.076.039.006.089zm.286-.395l.047-.158-.105-.199.043-.107-.031-.105-.029.09.018.123.014.271.043.085m-42.428-4.515l.027-.006m.02.064l-.016.096.01.068.057-.072-.012-.08-.039-.012m-.01.574l-.035.131.021.127.051-.215-.037-.043m-.016.438l.023.121m-.019.09l-.014.111-.031.074.021.051.031.029.02-.158-.023-.033-.004-.074m41.787-10.365l-.043-.133-.051-.154-.045-.133-.063-.027-.064-.131-.039.064-.006.008.051.15.076.186.096.125.127.182-.039-.137zm-.312 3.781l-.031-.156-.092-.137.148.123.1.064.094.123.139.162-.139.01-.098-.063-.121-.126m.437.516l.098.088.125.049.139.129.135.152.109-.012-.082-.168.014-.1-.107-.146-.113-.125-.119-.107-.119-.084-.133-.01.076.199.014.1-.037.035m.946-.223l.117.021.006-.08.092-.082.029-.102.088.002.021-.146-.088-.121-.086-.041-.135-.162-.113-.184.047.203.02.203-.002.141-.051.061-.006.121.061.166m-26.803 27.182l-.033.146.139.105-.137.047.139.078.141-.072-.105-.148-.144-.156zm5.695-5.686l.137.006.135.137.174.037.139-.063.141.039.137.002-.068-.135-.17-.066-.207-.039-.207-.039-.174.061-.037.06zm-2.586-1.66l.264.029.076-.127.232.025.143-.088.137-.088.199.057.266.055-.203.051.127.111.201.049.301.021.131.109.168.043.201.08.203-.023.066.068.029.168.199.141.307.01.068.137-.141.096-.104.096.273.008.207-.031.205.004.205.037h.205l.137-.066.205-.033-.035-.068-.102.002-.135-.131-.205-.035-.139.033.037-.166-.172-.033-.203-.039-.201-.137-.17-.072-.164-.107-.199-.107-.201-.074-.201-.01-.133-.145-.162-.074-.166-.08-.199-.014-.197-.084-.199-.018-.203.051-.201.014-.201.016-.205.078-.139.086-.008.133-.204.042zm4.174 1.627l.279.125.066-.066.207-.004.176.029.172-.039.209.027.174.188.137-.17-.002-.098.205-.076.004.096.205-.043.238-.08.205-.016.141.121.135-.174-.18-.15-.344-.039.166-.109-.238.016-.074-.129-.238-.018-.207-.021-.273.014-.135.068-.24-.092-.242.008-.135.102.205-.004.105.131.002.129.176.16-.172.104-.207.004-.176-.063-.207-.029-.137.098zm3.037-.03l.174.016.172-.051.168-.018.098-.109-.141-.082-.238.027-.242.023.009.194zm-4.527-2.74l.027.141-.102.098.193.176.096.207.07-.133-.096-.137.004-.139-.096-.209-.096-.004zm4.248-10.767l.203.082.086.098.172.045.193.01.162-.027-.117-.131-.15-.047-.172-.049-.191-.006-.186.025zm.24 1.357l.111.096.189.084.264.07-.021-.143.129-.131-.215.068-.17.025-.186-.043-.043-.145-.058.119m-4.967-6.541l.174-.016.203-.158.004-.031-.131-.014-.158.057-.092.162zm.733-.004l-.039.24.08.109.1-.17.027-.17-.168-.009zm5.56 5.774l.082.17.197-.117.246-.012.211-.049.209-.049.191-.012.035.141-.113.141.176-.004.086-.248.104-.066h.148l-.012.23.109-.145.047.174.166-.047-.016-.223-.016-.223-.125.076.008-.229-.08.059-.043.203-.088-.053.008-.152.141-.268-.191.09-.105-.119.082-.215-.152-.033-.178.047-.166.084-.195-.105.084-.133-.172-.029-.164.188.035-.232.051-.16.055-.238.008-.227-.129.033-.145.146-.051.158-.021.193-.063.236-.01.262-.088.242-.053.197.1.016-.109.17-.094.132zm-6.871-6.475l.254.037-.021.207.184-.012.154-.156.133-.123.143.014.145.119.146.148.193-.156-.182-.117-.074-.18-.123-.148-.195-.16-.154-.186-.023-.211-.205.145-.076.162-.076.23v.246l-.223.141m1.967-1.463l.064.203.195-.029.113-.102.029-.168-.082-.133-.189-.004-.13.233m-1.656-1.805l.092.186.055.211.092.178.201.166.207.025.287.094.152-.018.209.18.131-.061.15-.189.078.168.248.203-.059.264.186-.131.121.199.205.129.061.199.064.168-.107.137-.125.174-.145.137.166.201-.18.141h-.242l-.271-.076-.035.135-.109.033-.07.164.1.178.285.008.143-.102.203.035.191.1.178.066.164.098.008.176.174.129.154.063.205.055.076.098.195.09.193.053.207.012-.023-.17-.17-.125-.184-.154-.162-.127-.1-.162.236.084.195.119.23.113.246-.031v-.277l-.172-.152-.049-.203-.145-.119-.223-.15-.006-.01-.127-.184.008-.275.32.172.129.227.236.107.02-.211.193-.1.006-.172.059-.254-.154-.111-.195-.105-.203-.109-.178-.145-.256.029-.234-.148-.025-.199.195-.086-.199-.145.041-.172-.146-.186-.219-.115-.23-.219-.168-.092-.217-.025-.004-.195-.047-.127-.186.029-.139-.078-.129-.043-.16.121-.152-.008-.145.105.066-.189-.066-.184.063-.168-.049-.102-.156.018-.191.107-.176.141-.049.189-.045.16.016.164-.109-.145.023-.162.023-.158.088-.152.092-.098.201-.08-.168-.031-.189-.027-.141.076-.172.131-.105.148-.098.148-.063.216zm-.354-1.38l.105.102.15.098.072-.193-.029-.145-.121-.031-.177.169m.354-.707l-.063.125.049.178.191.016.074.113-.016.156-.088.146-.043.186.195.127.201.059.188.047.201.027.146-.109.158.111.209-.049.082-.15.014-.146-.178-.107-.16-.014-.18-.059-.223.061-.199-.078-.117-.127.07-.061-.086-.094-.016-.111-.168-.037-.09-.125-.151-.085zm1.041-1.44l-.025.176.084.135.191.029.146-.029.197.018.211-.033-.141.098-.217.041-.098.068-.143-.078-.109.186.102.074-.035.16.02.143-.127.027-.186.188.156.115h-.227l-.039.148.078.076-.121.027-.158.086-.043.148.166.063.254.066.131-.049.131.049.119-.055.045.127.215-.08.137-.146-.135-.162.158-.115-.023-.125.199-.025.074-.182v-.182l.08-.182.193-.084.098-.178.07-.141.123-.143.127-.184-.016-.086.082-.111.055-.1-.023-.074-.109-.027-.104-.074-.156-.023-.143-.045-.146.008-.104.037-.123-.025-.213.035-.117.107-.154.072-.113.055-.018.072-.141-.023-.135.127zm-1.449.43l-.016.076.09.107-.125.072.014.1.133.104.105.037-.008.164.127-.025.148.025.117.02.082-.094.002-.096-.115-.168-.084.139-.102.125-.074-.043.031-.129.072-.135-.047-.143-.115-.041-.053-.092-.1-.041-.082.038zm-.467.894l-.02.164-.047.123.014.176.186-.02-.012.227.23.074.135-.164.053-.154.063-.133-.09-.143-.154-.064-.113.074-.088.141-.021-.16-.037-.121-.099-.02zm-1.598-.783l-.045.166.1.049.07.1.184-.041.141-.064.047.129.221-.061.07-.125.15-.025-.02-.129-.146.039-.105-.086-.135-.006-.162.016-.193.049-.177-.011zm.176.635l.084.111.047.105.164-.035v.152l-.164-.002-.016.096.096.09.129.018.16-.037.156-.012.186.109.139.025.111-.141.117-.119-.088-.104-.066-.162.061-.176-.121.037-.145.072.043.088-.088.076-.021.135-.16-.111.039-.137.002-.113-.063-.148-.098-.082-.146.07-.189.1-.169.095zm-1.596.449l-.004.221-.113.229.203.023.139.057.236-.09.232-.174.23-.014.205-.006.215-.012-.047-.188.027-.186-.158-.105-.07-.178-.197-.02-.191-.063-.131.207-.184.129-.209.092-.183.078zm18.947 33.5l.102-.125.211-.18.098-.127.211-.188.072-.119.041-.105.066-.121.137-.129.039-.109.074-.146.096-.16.008-.102.033-.115.006-.104.059-.133.068-.176.191-.17.166-.18.176-.221.113-.172.137-.189.098-.111.184-.18.105-.158.158-.191.104-.158.104-.182.104-.186.053-.199-.008-.123-.039-.127-.039-.133-.068-.117-.191.064-.17.123-.17.07-.105-.033-.168.021-.111-.033-.109-.037-.17-.006-.172-.006-.174-.012-.18.086-.182.139-.182.086-.18.01-.184.084-.182.008-.186.059-.189.152-.219.139.066-.172-.092-.084-.057-.102-.191.129-.063-.078-.256.053-.189.023-.223-.018-.225.084-.133.096-.133.273-.098-.016.068-.148.064-.229-.227.031-.197.092-.197.041-.168.131v.178l-.066.223-.098-.17-.236.148.039-.188.064-.174.166-.158.131-.143.166-.211.029-.248-.23.051-.072-.193-.139-.174-.006-.189-.205-.102-.137-.043-.205-.049-.174-.064-.205-.025-.172-.006-.135.006-.205.002-.207.021-.203.053-.205.08-.205.051-.24.025-.1-.082-.01-.008-.145-.053-.213-.066-.168.063.027-.15-.078-.127-.213-.074-.215-.074-.246-.07-.313.113.063-.217-.08-.164-.246-.018-.178-.027-.137.051-.15-.127-.145-.098.346-.115-.244.039-.281.041-.244.035-.205.178-.209.09-.246-.004-.18-.037-.076-.082-.174.02-.178.047-.246.023-.252.051-.07-.113-.043-.148-.178-.076-.213-.014-.18.012-.078-.24-.172.104.07.148-.172.1-.18.072-.178.066.002.213.148.201.004.205-.254.072-.035-.148-.109-.113.105-.182.105-.123-.074-.15-.109-.176.213-.072.104-.154-.068-.088-.146-.027-.139.098-.105.129-.18.063-.141.096-.213.096-.287-.025-.107.121-.176-.029-.18.063-.107.119-.035.178v.18l-.182.027-.107.146-.217.145-.002.262-.18-.18-.143-.123-.141-.121-.18-.123-.182-.041-.174-.064-.215-.012-.109.111-.215.047-.217.041-.254.041-.141-.1-.18-.016-.064-.156-.178-.105-.176-.135-.102-.16-.102-.16-.063-.16.074-.145.008-.182.078-.207.008-.184.008-.217.113-.145.01-.283-.068-.072-.168-.078-.006-.008-.16-.172-.172-.051-.135-.051-.209.008-.205-.061-.209.035h-.209l-.234-.098-.248.055-.16-.123-.168-.094.213-.09.123-.238.014-.193.059-.314.088.174.117-.176.055-.221.047-.189.049-.191.084-.188.182-.141.012-.164-.094-.082-.197-.031-.164-.059h-.201l-.203.033-.201-.004-.199-.006-.137.043-.061.223-.047.158-.082.115-.016.164-.139.041-.141.07.023.104-.238.012.006-.061-.229-.086-.24.045-.232-.018-.238.004-.129-.031-.113-.16-.188-.115-.186-.113-.109-.197-.074-.189-.066-.221-.107-.164-.076-.156-.039-.182.084-.111-.166-.189-.031-.215.09-.143.033-.197.033-.199.035-.199.098-.182.094-.184.121-.143.002-.178.035-.201-.023-.221.07-.193.145-.102.203-.082.205-.092.186.016.137-.07.139-.072-.057-.195.129-.035-.029.168.195-.059.156.004.215.018.17.107.176.076.168-.07.162.176.008.143.18.074.217.006.135-.043.117.055.08.121.072-.061-.168-.17.01-.07.1-.051.043-.098-.154-.029-.156.014-.121-.059.004-.006.115-.158.168.139.197-.07.152.025.18.064.104-.088.045.152.186.027.188-.01.188-.006.113.121.178.098.047.18.189-.01.162-.088.189-.012.146.156.141.26.092.045.047.217-.043.168-.01.141.131-.025-.076.203.023.143.117.148.088.184.086.213.158.15.057.176.164-.023.102-.059.107-.201.045-.24.01-.24-.086-.248-.086-.252.008-.139-.119-.219-.051-.213-.082-.219-.021-.213-.018-.213.105-.205.105-.205.193-.166.189-.094.189-.131.125-.135.098-.141.184-.098.154-.029.154-.137.152-.141.211-.029.092-.105-.178-.004.18-.139.117.002.063-.107v-.146l-.146-.002-.178-.004.148-.066.117-.037.088.041.088.143-.088-.143-.025-.182-.059-.145-.145-.148.002-.143.033-.182-.199-.148.17.039-.023-.145-.025-.217.057-.143.143-.072-.059.143-.002.148-.057.178.139.076-.027.107h.113l-.057.143-.061.217.088-.033.061-.217.113-.182.086-.107-.143-.252-.053-.219.111.074.084.145.17-.145.109-.217.053-.209.002-.01-.111-.074.107-.145.164-.111.164-.078.164-.004.164-.006.16-.08.051-.146.084.105.131-.082.004.074.215-.086-.008-.145.006.109-.162.01-.064-.18-.109-.064.074-.113-.031-.107.072-.152.096-.15-.004-.074.152-.08.178-.086.092-.191.084.068.174-.088.148-.084.145-.123-.016-.148.229-.023.195-.094.209-.174-.008.15.195-.064-.184.174-.115.084-.164.168-.057.188.072.176.168.092.139-.162.137-.168.082-.156.152-.021.189-.137.285-.156.236-.115.027-.15.158-.105.146-.174-.223-.104-.016-.221-.086-.059-.063.197-.117.201.031.182-.154-.01-.16.096-.205-.004-.244-.111-.184-.051-.127-.203-.057-.248.025-.189-.234.104-.217-.195.289-.031.133-.092.15-.131-.02-.143-.107-.096-.199-.049-.207.059-.207.063-.18.127-.158.084-.184.125-.156.16-.109.188-.111.154-.115.152-.195.084.117-.154.09-.15.113-.15.086-.154.109-.186.154-.16.174-.195.189-.016.027-.188.102-.154.197-.096.16-.02.186-.021.201-.063.156.014.008-.002.16-.023.18-.027.15.051.197-.074.248-.045.105-.168.082-.162.076-.168.195-.152.252-.092.133-.18.1-.135-.16-.262-.006-.188-.221-.168-.186.043-.064-.168-.252.016.166-.184-.146-.078-.23.014-.113-.127-.266.016-.08-.17-.219-.07-.127-.121-.043-.211.07-.156-.137-.084-.029-.143-.141-.121-.152-.191-.131-.195-.166-.191-.143-.193-.096-.129-.086.152-.072.115.092.129-.064.188-.154.123-.057.146-.215.129-.178-.232-.133-.023-.129-.17-.012-.139v-.213l-.07-.172.021-.18-.16-.023-.16.01-.162-.098.045-.141-.16-.1-.143-.137-.156-.102-.234.072h-.137l-.186-.072-.201-.039-.137.1-.01.176.115.109-.059.17-.078.174.102.107.027.213-.008.176-.117.17-.15.033-.027.139.127.145.129.078.068.248.035.182.051.248-.008.287-.127.178-.193.17-.193.139-.195.098.072.18.053.186.01.252-.012.215.098.221-.166.211-.234.135.012.145-.172-.156-.076-.188-.121-.152-.096-.189-.154-.197.063-.211.018-.176-.041-.18-.004-.008.098-.316-.193-.125-.246-.025-.246-.029-.217-.211-.188-.096-.148-.098-.104-.199-.188-.176-.215-.113-.197-.182-.188.035-.148.037.035-.137-.029-.191.045-.17-.021-.264-.135-.066-.152-.002-.02-.186.063-.203.092-.236.104-.154.104-.156.162-.18.148-.146.15-.035.059-.201.195-.031.209-.029.037-.207.184-.209.279.051.184-.18.178-.182.041-.203.229-.244-.102-.15.219-.002.055.109.219.092.211-.146.234-.15.068-.23-.193-.119.025-.199.186-.084.029-.248-.213-.07-.006-.137-.189-.084-.186-.023-.037.197-.031.23-.043.229-.199.111-.033.164-.137.049-.1-.254.074-.193.037-.164-.092-.221-.221.234-.061-.217-.051-.182-.129-.131.207-.127-.023-.209-.063-.148-.057-.184-.021-.209.129-.104-.018-.137.137-.037.143.033.123-.143.127-.137.086-.082-.094-.092-.211-.105-.25.006-.107.141-.021.16-.041.191-.061.156-.07.186-.145.064-.133.182-.15.188.061.262.184.219-.156.135-.004.209-.209.156-.055-.006-.119.17-.107-.166.07-.207v-.01l.254-.086-.037-.254-.135-.248-.172.158-.197.078.16.23-.152.094-.107.215-.205-.025-.23-.154-.131-.17-.162-.205-.037-.26-.201-.02-.215-.02-.176.068.104.162-.139.129-.111-.131-.078-.154-.217-.031-.227-.045-.109-.141-.148-.086.119-.094.16.029.035-.184-.094-.18-.168-.121-.09-.17-.084-.188-.008-.195-.172-.129-.191.098-.068-.084.172-.178-.271.096-.031-.117.115-.186.043-.25-.234.119-.139-.031.105-.15-.205-.043-.223-.043-.16.006.002-.129-.105-.072-.174.012-.156.096-.01-.191.045-.174.018-.176-.08-.156.027-.129.037-.152-.064-.113-.086-.09.031-.152-.063-.133.037-.195-.049-.135-.041-.117.123-.166-.051-.182.092-.088.047-.178-.213-.059-.039-.139-.189-.09-.047-.109-.178-.066-.193.021-.154-.012-.068-.129-.035-.119-.203.033-.143.145-.125.184-.199.121-.131.164-.158.148-.139-.004-.01-.199.168-.064-.002-.104-.102-.102-.094-.105-.16-.078-.068.092-.041.129-.129-.004-.133.086-.07.209.035.156-.057.154.105.064.068.088.004.008-.164.029-.158.131-.199.045-.045-.16-.17-.041.092-.166-.098-.068-.129.025-.193-.025-.258.023-.162.172-.191.125-.188.168-.154.143.006.129.162.061-.213.176-.127.018-.152.127.072.063.025.225-.17.201.129-.023-.012.121.045.078-.217.1-.221.09-.141-.043-.17-.029-.141-.092-.193-.002-.045-.145-.102-.109-.156-.025-.098-.131-.152-.104-.09.078.125.131.125.088.07.115.098.055.074.129.109.109.08.109.162-.027.111.076.152.1.17-.002.186.064.16.076.143.01.176-.01.025-.152.137-.031.125.063h.18l.195-.068.156.014.172.074.041.107h-.15l-.109-.096-.219.111-.209.033-.037.113-.146-.004.082.135.162.041.162.025.049.123.213-.041.201-.156-.01.158.055.119-.045.154-.045.225-.012.205.078.145.084.143-.006.195.047.141.141.014-.154.16-.004.186-.064.223-.039.189v.18l-.127.191-.059.221-.119.197-.133.234.209-.197.156-.213.16-.146.029-.193.057.072.156-.1-.094.162-.004.008-.115.086-.131.184-.133.127.141-.004.135-.064-.064.146-.049.16-.055-.166-.164.027-.137.174.086.049-.125.125-.074.143-.031.127v.164l-.064.193.174-.184.109-.254.072-.191.014.125.066.072-.111.092-.082.18-.041.166.008.166.145.043-.195.111-.035.117-.158-.006-.084.227.016.168-.078.283.049.197-.1.205-.021.176-.09.113.035.23.086.17.066.201.016.207.023.205.045.176.172-.002-.125.18.02.152-.037.201-.07.033-.035.201-.17.145.025-.074-.123-.004.184-.088-.057-.18-.127-.102-.098-.221-.078.076-.029.117-.055.188-.074.219-.063.131-.066.137.113.178-.15-.121-.082.123-.078.162-.133.125-.115.182-.131.168-.168.182-.186.17-.096.195-.021.164-.072.213-.127.168-.162.139-.053.092.018.15-.014.166-.072.125-.066.166.008.188.043.166-.084.107.1.119.049-.092.059.092-.068.031-.023.201-.049-.168-.064.17-.006.168.082.063-.08.156-.07.078.061.215.006.219.033.277-.082.182-.008.008.162.195.121.168.1.154.086.059-.029.141.086.059.08.215v.203l-.033.223.012.25-.016.191.02.17-.037.096.057.152-.063.162.061.074-.059.236.119.154.088.248.057.186.055.184-.055.162-.158.023-.162-.131.107.213.008.156.078.123.098.168.125.07.064.186.127.18.02.236-.057.191-.117.088.182.209.1.197.092.23.129.209.041.311.24-.098-.066-.215-.086-.26-.133-.068-.037-.201.068-.037-.068-.184.035-.129-.049-.248.004-.221-.098-.275-.041-.248-.088-.199.012-.221-.047-.219-.07-.234-.043-.213-.088-.168-.027-.174.084-.145.012-.191.037-.176.072-.115.129.195.111.025.061.15.1.131-.059.164.008.236-.021.143.043.217.012.236.09.275.094.275.174.127-.059.195.137.256.043.168.08.039.043.172-.092.102-.027.098.111.162.193.201.053.275.105.197.107.189.096.258.082.176.107.227.086.176.004.283.096.145-.027.127-.143.082.041.121-.141.045.082.24.107.244.002.008.195.18.158.195.092.207.229.188.209.107.092.033.137.182.191.234.18.129.18.123.176.156.186.094.18.154.182.152.221.098.223.129.219.123.238-.031.207-.043.199.051.162.074.16.102.154.133.09.117.154.197.158.162.121.154.195.137.199.102.203.041.199.131.096.113.172.031.201.129.17.029.244.041.072-.082.131.178-.141-.023.133.176.131.143.168.18.166.145.172.145-.008.15-.039.146.061.156.143.051.066.066.148-.102.102.133.242.148.139.131-.041.174.215.049.104.1.109-.047.213.049.213.078.105.123.217.018.029.203.182-.016.219-.072-.18-.127-.033-.121.182-.043.145-.078.109-.143.143.008.178.096.107.154.143.004-.109.111.105.207.182.152.141.148-.035.139.033.227v.168l.039.168-.076.164.145.113-.145.133-.109.186-.254-.012-.148.156.039.135-.184.018.074.137-.219.068-.291.086-.031.193-.004.012-.184.09v.152l-.182.039.074.209.002.148-.074.043.148.061.18.158.037-.145.178.012-.068.092-.072.143-.145.039-.215.08-.215.105v.119l.072.145.148.15-.145.08.148.08.217.084.145.098.145.121.076.158.217.102.145.137.076.133.074.129.07.129.219.172.074.123.143.125.074.082.141.082.074.117.143.156-.033.111.178.115.141.072.139.072.283.09.209.016.209.086.279.063.139.014.205.063.207.043.135.078.139.025.203.072-.006.098.027.109.061.121-.043.094-.008.09.031.086-.043.088-.039.086-.107.09-.008.08-.006.08-.039.08.023.072-.006.063-.104.055.059.078-.141.1-.008.066-.104.07-.037.064-.102.064.059.037.021.076-.129.033-.039.057.025.061.023.049-.006.033.059.029-.135.068.025.043-.094.031-.039.041-.098.043-.123.041-.066.037-.061.035-.09.012-.004.031-.146.004-.063.033.084.021-.004.021.027.02.023.02-.145.023-.004.021-.029.004-.025.01v.01l.023.002.053.008h.133l.059-.01h.16l-.084.01.078.002-.082.006-.008.012-.084.008.051.002-.111.006h.051l-.135.004.207.012.287-.012.275-.014.238-.012.217-.014.209-.018.244-.018.193-.016.268-.027.148-.016.15-.018.104-.014.018-.018.025-.004-.008-.002.096-.014.229-.033-.203.025.176-.027.086-.008.158-.021.043-.01-.025-.004-.252.039-.146.014.029-.016-.031-.01.123-.023.15-.012.152-.016.268-.039.23-.043.047-.016-.039-.002.113-.033.076-.025-.088.002.051-.025h.068l.246-.041.254-.049.17-.035.227-.047.229-.053.176-.045.213-.057.088-.039.172-.059.15-.059.014-.031-.133.025-.053-.012.125-.061-.088-.002-.26.035-.035-.018.082-.043.143.002.227-.051.098-.006.186-.031.203-.057.219-.049.176-.051.189-.068.17-.068.059-.041.197-.08.189-.092.098-.068.174-.078.201-.09.201-.092.158-.094.162-.098.102-.082.162-.102.188-.115.176-.094.102-.053.104-.092.074-.082.016-.064.059-.102.043-.078.18-.117.184-.121.211-.135.182-.125.189-.096.23-.137.102-.018.189-.146.174-.072-.029-.033.238-.113.164-.059.172-.074.178-.092.168-.076.039-.078.191-.125.191-.127.041-.099m-16.466-32.467l.01.127-.033.148.129.047.047.191.031.221.203-.08.205-.008.109-.211.035-.221-.137-.117.189-.131.006-.203-.154.039-.133-.076-.148.02-.08.109.018.205-.164-.074-.133.014zm-2.047-.451l.061.156-.129.084.025.156.158.139.166.082.08.178-.217-.002-.172-.102-.152-.068-.131.223.078.172.17.098-.088.273.197.072.238.074.262.012.215.02.211-.055.051.176.113.17.199.018.205-.057-.002-.16.174.027.105-.166-.186-.143-.129-.166-.049-.184.139-.197.043-.217.049-.158.191-.125.129-.107-.029-.133-.174-.059-.199.131-.176.141-.094-.191-.166-.016-.055-.135-.229.043.109-.209-.113-.064-.164.033-.174-.016-.164.016-.082.086-.156.029-.138.121zm-6.949 3.906l-.166.197-.004.156-.113.197-.059.199.002.268.096-.215-.002-.158.119-.082.1-.211.195-.109-.092-.1-.076-.142zm-.288 1.879l-.039.262.049.191.051.189-.08.074.061.15.012.152.092.078-.063.088.078.205.066.15.139.018.008-.229-.039-.26v-.236l.039-.252-.088-.174-.115-.195-.059-.203-.112-.008zm19.102-5.693l-.078-.074.025-.156-.18-.127.039-.123.129.076.156.1.135-.029.086-.123-.158-.146-.139-.115-.205-.047-.203-.014-.182-.025.168-.035.182-.039-.094-.111-.186-.115-.121.035-.002-.111-.014-.088.074-.102-.123-.094-.141.037.07-.219-.119-.133-.082.084-.141-.178-.174-.123-.209-.086-.127.064-.121-.098-.021-.125.166-.07-.104-.092-.213-.08-.164-.033-.15-.145-.162-.078-.059-.117-.125-.109-.121-.139-.113-.156-.07-.133-.131-.221-.186-.004-.145.1.059.133-.084.027.045.105.014.121-.045.127-.102-.152-.023-.119-.033-.064-.109-.051-.057.08.094.064-.043.074-.129-.094-.184.141.01-.094.115-.074.092-.135-.014-.127-.152-.008-.121.041-.119-.039-.18-.004-.152.096-.184.084-.078.137-.139.154-.035.158.043.143-.174.041.043.164-.232-.057-.24.146-.123.141.08.105-.008.105-.131.002-.063.102-.096.15-.041.166.199-.021.063.111-.051.207-.234.09-.129.105-.166.07-.053.15.008.01.119.096.121-.023.043.123.158.074-.146.047-.105.092.098.076.158.064-.066.086.115.086.211.059.117-.092.193-.041.178-.027.207.098.189.02.043.127.133.109.172.146.066.182.152.131.076.146.043.229.117.135.016.197.1.08.164-.041.037-.146.164.193.18.016.127.172-.26-.049-.193.041.039.23.047.229.221.096.188-.125.055-.207.168.197.09.293-.232.07-.049.188.035.24.072.227.113.182.072.193.254.143.16.205.092.23.168.092.082.16.283.24.1.113.203.191.178.164.289.164.266-.063h.203l.186.115.301.033.092-.119-.023-.225-.086-.197-.059-.207-.018-.227-.213-.219.084-.193.014-.242-.07-.201-.1-.189-.238-.199.172-.041-.047-.176.133-.148.215-.115.104-.219.039-.186.021-.184-.045-.176-.059-.172-.014-.205.031-.146.154-.107.068-.182.09-.152.057-.18.025-.158-.008-.186-.004-.186-.045-.15-.143.078-.205.035-.041.174zm1.654 1.23l.109-.051.043-.131.125-.021.023.18-.033.221.164-.146.223.09.045.207.201-.189.193-.037.189-.096.006-.221.068-.127-.021-.203.041-.221-.098-.23-.201-.154-.176.045-.207-.145-.055.119-.137-.004.059.15-.014.127-.121.023-.068.129.039.115-.141-.014.154.154-.063.16-.195-.164-.186-.021-.109.047.08.074-.074.066.098.111.039.157zm-11.424-9.476l-.201-.047-.131.039-.078.084-.096.1-.119.014-.039.096.006.102.068.039.127-.023.063-.035.191-.002-.02-.115.275-.014.074-.105-.12-.133zm3.911-.063l-.16.049-.193-.006-.164.035v.121l.088.084.127.064.092-.039.068-.1.082-.115.06-.093zm.513.598l-.008-.107-.139-.064-.033-.111-.16-.059-.123-.053-.131.01.012.105-.07.1.057.086.117.053.023.086-.051.061.059.07.041.07.186-.063.072-.1.148-.084zm5.313.262l.039-.123.021-.105-.088-.131-.123-.131-.125-.041.027.131-.078.084-.135.064-.166.043-.182.002-.199-.012-.199-.008-.197-.002-.219-.02-.199.004-.217-.037-.227-.031-.18-.059-.211-.041-.195-.029-.146.074.063.086.203.033.154-.016.203.07.152.1.242.055.184.016.127.006.209.074.105-.039.248-.012.221.029.068-.066.166.051.225.008.092-.047.17.061.167-.041zm7.533 10.799l.16.08.135-.014.068-.168.027-.182-.027-.225.063-.188-.117-.143-.119-.145-.172-.123-.154-.086-.047-.203-.182-.105-.141-.033-.09.086-.098.1-.018.17.094.182.105-.033.049.123-.061.096-.07.111.078.135.109-.033.025.154.16.012.053-.084.105.229.129.188-.064.099zm-37.062 5.835l-.047.102-.037.002-.051.18-.041.07-.004.125.037-.025.035.021.031.066.041-.002.006-.111.027-.105.002-.109-.002-.104.003-.11zm14.089-19.744l-.141.057-.082.039-.08.055-.037.037-.012.027.039.016-.049.049-.029.049-.068.07.059.012.039.016.113-.004.115-.012.08.01.027.027.012.039.014.031.105-.025.084.004.033.033.174-.059.156-.049.068-.004.176-.064.141-.068.027-.07.168-.096-.012.041.08.014.111-.061.012-.051.078.012.076.014.148-.072.176-.055.063.004-.115.076-.064.078-.074.076-.059.08-.016.076-.031.063-.061.08-.059.066.008.047-.004.059-.068.076.014.049-.063.076-.156.102-.172.102-.156.092-.096.027-.035.072-.197.09-.102.082-.127.068.029.018.053.018-.059.057-.148.068-.125.07-.055.059-.119.03.023-.072-.105.023-.105.078-.092.109-.014.053-.127.078-.143.143.121-.037.117-.078.096.047.051.068-.006.094.047.076.047.076-.074.119-.088.109-.129.076-.049.102-.123-.066-.115.01-.137.029.006.104.027.084.041.072-.045.082h.133l.102.041-.064.143-.09.041-.016-.082-.012.002-.137-.02-.172-.018-.084-.029.043-.104.008-.096-.068-.041-.049-.082-.023-.105-.076-.051-.035-.084-.023-.096.031-.098.096-.086-.121.023-.072-.041.051-.088-.104-.029-.102-.027-.148-.004-.129.018-.164.033-.139.031-.189.041-.17.027-.213.07-.148.033-.113.018-.115.039-.023.086.016.072.08.049h.137l.004.076-.115.113.133-.031.131-.006.025.061-.061.105-.094.078.018.051.184-.076.162-.031.078.035-.014.066-.131.068-.002.055.176-.041.102-.064.131-.012.068.059.152-.09.01-.064.15-.031.076.049.063.072.104.025.113.014-.041.109-.119.08.047.07-.035.109-.193.016.072.078.016.082-.02.098-.115.129-.146.1-.16.082.143.027.016.104.045.102.059.088.063.086-.025.1.066.084v.117l.045.088-.072.16-.139.129.119.064.146-.08.209-.088.203-.063.137-.051.047-.105.158-.02-.094.15.049.102.029.047v.006l.029.027.174.023.158-.1.086.092-.166.045-.176.066-.066.107.037.074-.098.137-.17.055-.123.117-.162.168-.094.148.158-.006.115.043.195-.047-.021.139.121.031.088.068.184-.164.184-.141.096-.193.035-.158.182-.088.156-.117.17-.145.143-.152.164-.115.166-.111.008-.002.039-.027.145-.121.117-.133.156-.133.076-.15.107-.133.105-.131.115-.135-.217-.008-.184.037-.055-.059.025-.086.139-.021.131-.096.127-.002-.063.09.076.029.141-.109-.082-.063-.043-.07.154-.121.16-.152.109-.164.133-.141.186-.09.098.07.17-.002.154-.053.141-.1.158-.113.078-.123.1-.082.076-.09.104.033.156-.035.088-.064.139-.02.162.043.174-.068.162-.105.227-.064.166-.072.166-.068.201-.084-.135-.02.152-.078-.012-.059-.115-.031-.156-.031.199-.076.205-.113.137-.016.078-.055.02-.068.146-.018.193.027-.041-.084-.049-.078.037-.088.148-.014.188.029.17.059-.021.102.047.102.232.043.219-.025.279-.018.213-.053-.025-.07-.102-.049.152-.053.254-.033h.203l.02.084.17-.027.176.012.125-.033.131-.051.135.109-.037.076.148.004.051-.041-.162-.039-.043-.084.121-.01.109.023.127.027.072-.057-.092-.047.162-.045.152-.039.137-.004-.078.088-.01.002-.129.037-.15.098-.143.08-.15.104-.111.086.016.109.061.09.131.064.135.027.16.008.143-.008.029-.059.143-.004-.1.117.146.016h.172l-.176.08.188.076.152-.074.154-.092.016-.113.203.012-.029-.078.295-.012-.053.068.248-.027.154.021.143-.057.184-.006.23-.014.166-.043.143-.043.055-.066-.004-.094.213.031.195.016.215.039.203.045.043-.123.084-.088-.135-.08-.014-.098.182.02.057.109.086.086.119.041.041.074.137-.01-.096-.113.102-.002.053.078.131.012.023-.092-.127-.104-.018-.064.166.1.164.102-.102.08-.135.047-.074.094.041.1.07-.012-.049-.082.061-.059.127-.029.145.018.176-.045-.008-.086.027-.088.15-.033.127-.063.092-.094-.197-.102.176.018.115-.063.072-.096.205-.004.16-.02.217.025.189.033.063.121-.264-.051-.166-.006-.186.012-.09.053-.145.029.045.115-.109.066-.139.074-.111.072-.109.072.004.105-.162.033-.01.004-.127.037-.076.055.105.113-.094.021-.023.076.152.029.158-.033.164-.031.141-.063.16-.029.221.031.125-.045.047-.084.154-.025.084-.041-.068-.08.061-.094-.033-.08.184-.025.047.086.002.084.09.094.045.094.098.08.031.113.117.1.076.15-.01.123.148.006.014-.07-.035-.1.064-.059.027-.076.137.021.098.045.1-.031.059.07-.17.051.148.059.197.049.092.098.129.078.137.008-.018.094-.15.043.17.063.17.066.158.09.16.064.186.092.137.082.199-.021.162.076.092.104-.074.061.023.098-.195-.047-.129-.115-.109.055-.037.066.092.113.037.129.078-.102.205-.014.205.025.004-.074.174-.01.166.059.006.084.049.111.176.072.168.113.182.1.113-.055.139-.053.061.139.006.096-.025.105.025.098.154.061.098-.08-.055-.092.182.012.092.158-.082.111-.021.125-.188-.018-.156-.016-.188-.016-.1.104-.051.09-.162.049.084-.094-.002-.01-.002-.119.035-.109-.023-.104-.035-.115-.012-.121-.117-.135-.17-.123-.17-.072-.18.002-.129.037-.055.1-.025.105-.059.105-.066.102-.029.121.01.135.035.145-.129-.006-.02.098.102.088.02.127-.088.117-.012-.125-.18-.127-.061.094-.061.1-.02.125.262.115-.162.006.164.115-.24-.035.09.09.148.076-.082.078.121.115.186.115.09.15.004.01.012.121.012.012.201.123.072.131.139.035.029-.057.141.135-.135-.023.104.098-.205-.08.137.129.102.129.102-.037.066.172.166.139-.131-.166-.031-.125-.035-.143.205.191.164.088.168.152.166.115.162.096.166.109.195.123.121.156.223.178.152.145.154.146-.109.037.154.129.115.127.006.152.143.17.105.154.104.172.135.018.111.125.164.059.16.07.172.006.113.119.129.039-.004-.133.105.145.152.1.105-.016.121-.084.057-.119-.07-.184-.109-.143-.139-.197.01-.08-.117-.111.102-.035.219.064.191.033.012.004.205.047.188.035.16-.025.117.104.154.02.119.061.006-.117.002-.104-.119-.043-.15-.16v-.115l-.002-.1-.213-.166-.215-.123-.154-.096-.186-.078-.123-.076-.135-.172-.102-.154-.057.029-.102-.127-.098-.072-.125-.01-.117.057-.119.055-.158-.047-.193-.092-.193-.08-.102-.08-.199-.158-.139-.143-.107-.121-.113-.143-.139-.08-.143-.123-.084.063-.141-.098-.098-.016-.078-.09-.141-.084.014-.086-.018-.084-.051-.09.104-.078.195.039.088.1.213.121.182.148.217.162.184.16.201.113.191.047.182-.004.197.109.125.039.076-.082.08-.047.035-.121-.061-.148-.098-.156-.1-.156-.1-.152-.057-.172.113-.074-.064-.107.129-.025-.006.135.164.156.113.088.051.166-.02.123.066.15.061.139.117.133.154.051.146.012.008-.084.184.061.182.063.109.113-.008.086-.113.012-.076.049.055.135.191.125.129.102.211.084.178.059.188.133.26.281.07.117.012.104h-.016l-.158-.021.041.162.066.176.121.178.031.164.088.199-.035.079-.063.072-.055-.105-.123-.002.086.121.023.137.053.105.08.141-.01.105-.113-.098-.107.115-.09-.051-.102.053-.172-.158-.17-.17-.049-.146-.119-.063-.012.1-.119-.064-.148-.121-.121-.061.016.125.111.131.014.143.08.119.115.096.18.102.154.07.104-.037.178.104.125.01.051.094.098-.008.076.129.113.084-.074.055-.021.121.074.115-.035.166.035.145.145.096.045-.059.086.055.066.137-.076.039-.17-.115.014.08.133.127.104.127.094.139.09.158.023.15.045.189.02.152.098.115.133.121.023.121.057.594-.152-.064-.049.113.188.068.199.129-.049.113-.033.152-.131-.027-.037.152.008.145-.033.133.162.127.094-.033.047-.1.131-.043.086-.111.066.014.137.008.07.086.098.02.117-.033.148.064.166.178.166.182.115.135.154.199.008.01.041.115-.02.133-.08.098-.105.154-.039.229-.119.088-.105.135-.063.18-.08.141-.16.078.074.197-.053.146.035.129.213.094.102.148.1.086.154.121.098.15.109.193.135.203.043.18.113.178.117.051.057-.092.113.178.121.16.078.174.061-.162.09-.084.014-.148.055-.096.127-.035.082.041.164.08.104-.063-.041-.248.018-.17.047-.16.066-.139.063-.137.061-.137-.07-.207-.078-.268-.008-.018-.676-1.484v-.014l-.008-.148-.002-.176-.055-.227-.037-.182-.172-.137-.15-.117-.035-.195-.049-.16.086-.082.061-.127.104-.064.006-.152-.082-.178-.049-.193-.025-.17-.092-.139-.033-.133.039-.09.063-.031.041-.109.152.102.133.045.133-.014.102.064.012-.113.129-.016.129.004.078-.057.006-.152.098-.02.074-.039.025-.057.117.039.047-.119.092.059.115.039.115.08.068.119.113.137.066.061v-.08l-.002-.008-.068-.092-.07-.141-.111-.098-.051-.158-.117-.1-.064.063-.141-.156-.096-.135.043-.059.016-.098.09.053.02-.059-.098-.115-.107.025-.063.061-.066.059-.066.082-.045.076-.098-.133.002.191-.072.076-.076.057-.074-.002-.125-.076-.127-.041-.08.055-.08.033-.105.018-.104-.059-.102-.113-.082-.002-.1-.096.004-.088-.07-.164.029-.09.076.09.107.059h.078l-.051-.109-.102-.092.104-.072.129.072h.076l.102.074.074-.074.074-.002.02-.111.117-.078.115-.043.064-.078.086-.043.061-.061.123.109.168.146.143.111.059-.045.107.016.084.012.125.029.1-.004-.008-.164-.053-.197.072-.01-.008-.123.064-.047-.156-.127.012-.104-.021.063-.084-.049-.023.063-.051.027-.082-.031-.076.01-.1-.01-.166-.141.092-.031-.023-.117-.08-.092-.057.008-.025-.115-.084-.109-.002-.098-.049-.113-.01-.115.072-.012-.055-.131.117.16.068.049.01.006.16.15-.076-.211.078.088.15.098.055.01.041.078-.041.029.092.086.01-.084.014-.066.096.09.033-.049.109.146-.037-.119-.039-.121.078.092-.047-.139.049-.076-.004-.088-.131-.23-.119-.123-.035-.121-.014-.129.057.004-.012-.086-.088-.133-.045-.098-.139-.18-.129-.16-.02-.109-.039-.076-.146-.178.051.025.125.139.059.021.1.102.158.127.105.076.141.16.164.176.143.16.133.143.129.143.15.188.113.152.107.207.084.164-.016.031.09.111.012.072-.084-.094.053.148.078.168.111.203.104.184.064.148-.002.092.049.152.004.09-.006.066.027.135.023.131.057.17-.08-.035.037.152-.002.113.01.129-.09-.074-.01.109.012.152.043.17.063.191.115.254.004.008.332.404.01.004.064.154.051.15-.006.113-.064.045-.061.094-.027.176-.012.135-.055.066-.012.002-.045-.002-.115-.131-.041.107-.059.086-.023.133-.029.172-.01.172-.051.084-.072.086-.105-.072.01.131-.053.063-.105-.094-.051-.152-.07-.193-.098-.176-.105-.088-.053.039-.152-.113-.035-.125-.104-.172.047.23-.137-.07-.037.102.004.145.051.166.002.148-.076.137.023.148-.082.137.043.172-.008.145-.063.037-.059.115-.039.143-.006.125-.035.121.004.166-.029.189-.043.203.002.008.002.697.004.012.053.148-.008.236-.031.148-.123.063-.027.125-.076.158-.029.125-.16.057-.109-.045-.045.143.088.217.078.17.061.189.063.193-.006.246-.045.193-.016.201.043.215.008.207.07.109.051.197v.162l.17.275.107.053.076.252.027.225.012.236-.051.227.021.223-.07.248-.119.209.016.223.057.211.01.174-.051.207-.006.146.053.211.035.186.043.262-.018.246-.004.225.01.203.047.295.008.205-.035.168.051.195.049.193.135.012.143.045.006.006.059.166-.029.195.133.09.096.129.059.172.039.191.02.215.016.213.07.23-.031.223-.016.207-.07.191.117-.021.104.105.068.176.023.191.049.197.113-.023.109-.021.084-.141.07.203.102-.053.1.049.082.074.105-.029.113.025.094.047.047.143.043.113.055.094.125.027.111-.057.109-.055.1.016.141-.076.111.021.088-.01.1-.035.117-.031.09-.088.072-.092.072-.248.092-.197.053-.223.088-.195.082-.195.059-.146.07-.146.111-.164.068-.121.084-.092.045-.203.051-.189.004-.012.201-.797.006-.029.012-.182.051-.223.045-.178.047-.15.049-.203.049-.174.049-.098.057-.023.047.133.037.16.053-.074.033-.152.027-.178.027-.182.027-.152.02-.152.02-.127.02.129.021-.102.021.055.023.025.006.232.008.203-.002.182-.008.209.016-.053-.008.207.002.154v.059l-.006.121-.023.256.008.076v.102l.008.027.014-.109c.066-.736.1-1.482.1-2.234 0-13.807-11.193-25-25-25-3.205 0-6.252.598-9.066 1.695m24.078 13.677l.074-.07-.049-.201.127-.109-.117-.145.029-.15.117-.094-.027-.189-.01-.018-.141-.674-.006-.018-.047-.168-.123-.15-.129-.035-.094.064h-.014l-.695-.029-.014-.002-.154-.045-.184-.096-.137-.027-.109.068-.049.107-.049-.145-.084-.148-.123-.158-.1-.121-.125-.066-.057.131-.049.105-.025.139-.121-.156-.057-.211-.1-.035-.039.16-.07.139.121.156.08.15.107.098-.098.035.025.094h.123l.055-.104.137.197.115.088-.008-.137.137.123.053.195.051-.096.111.086-.096-.189.146.02.162.221.143.033.006-.17.002-.17.115.164.145.016.039-.086.115.166.141.107-.021.123-.104.141.096.037.08.148.051-.105.164.135.012.135.027.174.096.039.031-.146.074-.066.125-.023-.027-.188.105.17-.043.092-.051.105.098.193.057.184.054.202z" fill="#78abd3"/></svg>