<svg xmlns="http://www.w3.org/2000/svg" xmlns:xlink="http://www.w3.org/1999/xlink" width="640" height="360" viewBox="0 0 640 360"><symbol id="b" viewBox="-46.712 -179.967 93.423 359.934"><path fill="#60717B" d="M-23.363-81.711H1.139v-63.811h-24.502z"/><path fill="#60717B" d="M-8.554-39.546h41.023v-105.976H-8.554z"/><path fill="#70513C" d="M34.104-103.736l3.435-3.442v84.252l-3.435 3.44z"/><path fill="#9E735A" d="M24.933 51.011c0-2.292-2.291-4.586-4.585-4.586h-42.986c-2.292 0-4.586 2.294-4.586 4.586v46.424c0 2.292 2.294 4.583 4.586 4.583h42.986c2.294 0 4.585-2.291 4.585-4.583V51.011z"/><g fill="#7F5B42"><path d="M-26.649 97.435c0 2.292 2.292 4.583 4.584 4.583h42.982c2.296 0 4.59-2.291 4.59-4.583V51.011c0-2.292-2.294-4.586-4.59-4.586"/><path d="M37.539-104.884c0-1.722-1.715-3.439-3.436-3.439h-68.777c-1.721 0-3.439 1.718-3.439 3.439V73.361c0 1.719 1.719 3.439 3.439 3.439h68.777c1.721 0 3.436-1.721 3.436-3.439v-178.245z"/></g><path fill="#997153" d="M37.539-176.525c0-1.719-1.715-3.441-3.436-3.441h-68.777c-1.721 0-3.439 1.723-3.439 3.441V1.72c0 1.72 1.719 3.439 3.439 3.439h68.777c1.721 0 3.436-1.72 3.436-3.439v-178.245z"/><path fill="#845E44" d="M34.104 5.159c1.721 0 3.436-1.72 3.436-3.439v-178.245c0-1.719-1.715-3.441-3.436-3.441"/><path fill="#BC8F71" d="M-34.674-179.967c-1.721 0-3.439 1.723-3.439 3.441V1.72c0 1.72 1.719 3.439 3.439 3.439"/><path fill="#7F5B42" d="M-34.674 5.159l-3.439-4.012V-30.95l75.652-76.228v84.252L10.034 5.159z"/><path fill="#9E7B64" d="M-27.225-169.649c0-.574-.569-1.146-1.146-1.146-.568 0-1.147.572-1.147 1.146v141.563c0 .573.579 1.148 1.147 1.148.577 0 1.146-.575 1.146-1.148v-141.563z"/><path fill="#70513C" d="M-27.225-42.41v14.324c0 .573-.569 1.148-1.146 1.148-.568 0-1.147-.575-1.147-1.148v-12.035l2.293-2.289z"/><path fill="#9E7B64" d="M-19.2-169.649c0-.574-.571-1.146-1.148-1.146-.568 0-1.143.572-1.143 1.146v141.563c0 .573.574 1.148 1.143 1.148.577 0 1.148-.575 1.148-1.148v-141.563z"/><path fill="#9E7B64" d="M-19.2-169.649c0-.574-.571-1.146-1.148-1.146-.568 0-1.143.572-1.143 1.146v141.563c0 .573.574 1.148 1.143 1.148.577 0 1.148-.575 1.148-1.148v-141.563zM-11.176-169.649c0-.574-.574-1.146-1.145-1.146-.576 0-1.147.572-1.147 1.146v141.563c0 .573.571 1.148 1.147 1.148.57 0 1.145-.575 1.145-1.148v-141.563z"/><g fill="#70513C"><path d="M-11.176-57.888v30.375c0 .575-.574 1.147-1.145 1.147-.576 0-1.147-.572-1.147-1.147v-28.083l2.292-2.292zM-19.2-50.436v22.35c0 .573-.571 1.148-1.148 1.148-.568 0-1.143-.575-1.143-1.148v-20.059l2.291-2.291z"/></g><path fill="#9E7B64" d="M-3.148-169.649c0-.574-.575-1.146-1.148-1.146s-1.146.572-1.146 1.146v141.563c0 .573.573 1.148 1.146 1.148s1.148-.575 1.148-1.148v-141.563z"/><path fill="#70513C" d="M-3.148-65.911v38.398c0 .575-.575 1.147-1.148 1.147s-1.146-.572-1.146-1.147v-36.105l2.294-2.293z"/><path fill="#9E7B64" d="M4.873-169.649c0-.574-.579-1.146-1.144-1.146-.577 0-1.149.572-1.149 1.146v141.563c0 .573.572 1.148 1.149 1.148.564 0 1.144-.575 1.144-1.148v-141.563z"/><path fill="#70513C" d="M4.873-73.937v46.424c0 .575-.579 1.147-1.144 1.147-.577 0-1.149-.572-1.149-1.147v-44.13l2.293-2.294z"/><path fill="#9E7B64" d="M12.896-169.649c0-.574-.574-1.146-1.146-1.146-.573 0-1.146.572-1.146 1.146v141.563c0 .573.573 1.148 1.146 1.148.571 0 1.146-.575 1.146-1.148v-141.563z"/><path fill="#70513C" d="M11.75-26.938c-.573 0-1.146-.575-1.146-1.148v-52.155l2.292-2.291v53.875c0 1.144-.575 1.719-1.146 1.719z"/><path fill="#9E7B64" d="M20.917-169.649c0-.574-.569-1.146-1.141-1.146-.572 0-1.146.572-1.146 1.146v141.563c0 .573.574 1.148 1.146 1.148.571 0 1.141-.575 1.141-1.148v-141.563z"/><path fill="#70513C" d="M19.776-26.938c-.572 0-1.146-.575-1.146-1.148v-60.178l2.287-2.292v62.47c0 .573-.569 1.148-1.141 1.148z"/><path fill="#9E7B64" d="M28.944-169.649c0-.574-.575-1.146-1.146-1.146-.574 0-1.145.572-1.145 1.146v141.563c0 .573.57 1.148 1.145 1.148.571 0 1.146-.575 1.146-1.148v-141.563z"/><path fill="#70513C" d="M27.798-26.938c-.574 0-1.145-.575-1.145-1.148v-68.198l2.291-2.297v70.495c0 .573-.575 1.148-1.146 1.148z"/><g fill="#4F3E32"><path d="M39.264-69.349c0-1.148-1.148-2.294-2.292-2.294h-74.511c-1.149 0-2.297 1.146-2.297 2.294 0 1.146 1.147 2.294 2.297 2.294h74.511c1.143 0 2.292-1.148 2.292-2.294zM39.264-80.241c0-1.145-1.148-2.291-2.292-2.291h-74.511c-1.149 0-2.297 1.146-2.297 2.291 0 1.146 1.147 2.293 2.297 2.293h74.511c1.143 0 2.292-1.148 2.292-2.293zM39.264-132.394c0-1.146-1.148-2.294-2.292-2.294h-74.511c-1.149 0-2.297 1.147-2.297 2.294 0 1.145 1.147 2.29 2.297 2.29h74.511c1.143 0 2.292-.571 2.292-2.29zM39.264-142.71c0-1.148-1.148-2.292-2.292-2.292h-74.511c-1.149 0-2.297 1.144-2.297 2.292 0 1.143 1.147 2.292 2.297 2.292h74.511c1.143 0 2.292-1.149 2.292-2.292z"/></g><g><path fill="#AF8366" d="M46.141-26.365a5.137 5.137 0 0 0-5.16-5.157h-82.533a5.137 5.137 0 0 0-5.159 5.157v83.106a5.138 5.138 0 0 0 5.159 5.159H41.55a5.138 5.138 0 0 0 5.161-5.159v-83.106h-.57z"/><path fill="#9E735A" d="M-46.712 56.741a5.138 5.138 0 0 0 5.159 5.159H41.55a5.138 5.138 0 0 0 5.161-5.159v-83.106a5.136 5.136 0 0 0-5.161-5.157"/><g fill="#997153"><path d="M46.141-26.365a5.137 5.137 0 0 0-5.16-5.157h-82.533a5.137 5.137 0 0 0-5.159 5.157"/><path d="M32.382 15.477c0-17.77-14.33-44.134-32.67-44.134-17.764 0-32.667 26.364-32.667 44.134 0 17.763 14.328 32.668 32.667 32.668 17.77-.574 32.67-14.906 32.67-32.668z"/></g></g><g><path fill="#EDEADA" d="M-.288 48.145c18.042 0 32.67-14.627 32.67-32.668 0-18.043-14.628-32.671-32.67-32.671-18.04 0-32.667 14.628-32.667 32.671 0 18.041 14.627 32.668 32.667 32.668z"/><path fill="#DBD6C1" d="M-.288 47.571c-10.314 0-19.483-4.584-25.214-12.036l45.85-45.85c7.45 5.729 12.034 14.901 12.034 25.214 0 18.34-14.9 32.672-32.67 32.672z"/><path fill="#D7CF87" d="M-.288-20.058c-19.483 0-34.962 15.472-34.962 34.957 0 19.488 15.479 34.965 34.962 34.965 19.492 0 34.964-15.477 34.964-34.965 0-18.911-15.472-34.957-34.964-34.957zm0 65.337c-16.621 0-29.802-13.183-29.802-29.803 0-16.622 13.181-29.806 29.802-29.806 16.622 0 29.805 13.184 29.805 29.806 0 16.621-13.183 29.803-29.805 29.803z"/><path fill="#4F3E32" d="M40.406 75.655c0-.575-.573-1.146-1.143-1.146h-78.524c-.575 0-1.146.571-1.146 1.146 0 .573.57 1.146 1.146 1.146h77.945c.58 0 1.722-.572 1.722-1.146z"/></g><g><path fill="#427852" d="M-31.809 66.484c0-.574-.574-1.146-1.146-1.146-.573 0-1.147.572-1.147 1.146v4.013c0 .572.574 1.146 1.147 1.146.572 0 1.146-.574 1.146-1.146v-4.013zM-24.931 66.484c0-.574-.571-1.146-1.148-1.146-.57 0-1.146.572-1.146 1.146v4.013c0 .572.575 1.146 1.146 1.146.577 0 1.148-.574 1.148-1.146v-4.013zM-18.627 66.484c0-.574-.573-1.146-1.145-1.146-.577 0-1.146.572-1.146 1.146v4.013c0 .572.568 1.146 1.146 1.146.571 0 1.145-.574 1.145-1.146v-4.013z"/><path fill="#1F3625" d="M-12.32 66.484c0-.574-.576-1.146-1.147-1.146-.573 0-1.147.572-1.147 1.146v4.013c0 .572.574 1.146 1.147 1.146.571 0 1.147-.574 1.147-1.146v-4.013z"/><path fill="#427852" d="M-5.443 66.484c0-.574-.573-1.146-1.148-1.146-.57 0-1.145.572-1.145 1.146v4.013c0 .572.574 1.146 1.145 1.146.575 0 1.148-.574 1.148-1.146v-4.013z"/><path fill="#1F3625" d="M.861 66.484c0-.574-.574-1.146-1.149-1.146-.57 0-1.144.572-1.144 1.146v4.013c0 .572.573 1.146 1.144 1.146.575 0 1.149-.574 1.149-1.146v-4.013z"/><path fill="#427852" d="M7.167 66.484c0-.574-.577-1.146-1.147-1.146-.577 0-1.146.572-1.146 1.146v4.013c0 .572.569 1.146 1.146 1.146.57 0 1.147-.574 1.147-1.146v-4.013z"/><path fill="#1F3625" d="M13.472 66.484c0-.574-.576-1.146-1.15-1.146-.571 0-1.145.572-1.145 1.146v4.013c0 .572.573 1.146 1.145 1.146.574 0 1.15-.574 1.15-1.146v-4.013z"/><path fill="#427852" d="M20.348 66.484c0-.574-.571-1.146-1.144-1.146-.574 0-1.152.572-1.152 1.146v4.013c0 .572.578 1.146 1.152 1.146.572 0 1.144-.574 1.144-1.146v-4.013z"/><path fill="#1F3625" d="M26.653 66.484c0-.574-.575-1.146-1.146-1.146-.574 0-1.149.572-1.149 1.146v4.013c0 .572.575 1.146 1.149 1.146.571 0 1.146-.574 1.146-1.146v-4.013z"/><path fill="#427852" d="M32.957 66.484c0-.574-.575-1.146-1.148-1.146-.571 0-1.146.572-1.146 1.146v4.013c0 .572.574 1.146 1.146 1.146.573 0 1.148-.574 1.148-1.146v-4.013z"/></g><g><path fill="#AF8366" d="M1.432 16.621c0-1.145-.57-1.722-1.72-1.722-1.144 0-1.716.577-1.716 1.722v24.071c0 1.148.572 1.721 1.716 1.721 1.149 0 1.72-.572 1.72-1.721V16.621z"/><path fill="#4F3E32" d="M16.334 15.477c0-1.147-1.145-2.296-2.295-2.296H-.858c-1.146 0-2.29 1.148-2.29 2.296 0 1.145 1.145 2.29 2.29 2.29h14.897c1.15 0 2.295-1.146 2.295-2.29z"/></g><g><path fill="#997153" d="M-.288 18.342a2.865 2.865 0 1 0 0-5.73 2.862 2.862 0 0 0-2.86 2.865 2.864 2.864 0 0 0 2.86 2.865z"/><g fill="#4F3E32"><path d="M-38.688 75.655c0-.575-.572-1.146-1.147-1.146-.57 0-1.144.571-1.144 1.146v11.463c0 .572.573 1.146 1.144 1.146.575 0 1.147-.573 1.147-1.146V75.655z"/><path d="M-36.965 80.813c0-.573-.574-1.144-1.148-1.144h-4.586c-.573 0-1.144.57-1.144 1.144 0 .573.57 1.147 1.144 1.147h4.586c1.148-.574 1.148-1.147 1.148-1.147zM40.406 75.655c0-.575-.573-1.146-1.143-1.146-.579 0-1.148.571-1.148 1.146v11.463c0 .572.569 1.146 1.148 1.146.569 0 1.143-.573 1.143-1.146V75.655z"/><path d="M42.702 80.813c0-.573-.578-1.144-1.152-1.144h-4.578c-.579 0-1.147.57-1.147 1.144 0 .573.568 1.147 1.147 1.147h4.578c.574-.574 1.152-1.147 1.152-1.147zM.287 167.355c0-.571-.575-1.144-1.146-1.144-.573 0-1.146.572-1.146 1.144v11.465c0 .572.572 1.146 1.146 1.146.57 0 1.146-.574 1.146-1.146v-11.465z"/><path d="M2.58 172.515c0-.571-.572-1.146-1.148-1.146h-4.58c-.575 0-1.148.574-1.148 1.146 0 .575.573 1.148 1.148 1.148h4.58c.576-.573 1.148-1.148 1.148-1.148z"/></g><path fill="#604533" d="M34.104 95.715l-34.962 75.08-34.962-75.08z"/><path fill="#422E20" d="M18.63 95.715l-19.488 75.08-19.491-75.08z"/><path fill="#7F5B42" d="M36.393 94.568c0-.573-.568-.573-.568-.573h-73.363c-.574 0-.574.573-.574.573 0 .574.574.574.574.574H35.25c.574.573 1.143.001 1.143-.574z"/></g></symbol><symbol id="c" viewBox="-50 -14.814 100 29.63"><g transform="scale(4.00216 4.0011)"><path fill="#FFF" d="M12.328-2.828a.708.708 0 0 0-.709-.709h-23.236a.71.71 0 0 0-.711.709v5.656c0 .392.318.71.711.71h23.235a.71.71 0 0 0 .71-.71v-5.656z"/><path fill="#A6A6A6" d="M11.618-3.703h-23.235a.876.876 0 0 0-.876.874v5.656a.876.876 0 0 0 .876.875h23.235a.877.877 0 0 0 .876-.875v-5.656a.877.877 0 0 0-.876-.874z"/><path d="M12.328-2.828a.708.708 0 0 0-.709-.709h-23.236a.71.71 0 0 0-.711.709v5.656c0 .392.318.71.711.71h23.235a.71.71 0 0 0 .71-.71v-5.656z"/><path fill="#FFF" d="M-6.914.039c-.005.597.489.887.511.901a1.1 1.1 0 0 1-.866.468c-.364.038-.717-.218-.903-.218-.189 0-.475.214-.783.208a1.153 1.153 0 0 1-.97-.592c-.42-.727-.107-1.794.295-2.381.201-.288.436-.609.743-.597.301.012.413.192.777.192.36 0 .465-.192.779-.185.323.005.526.289.72.579.233.329.326.654.329.671-.006.002-.626.239-.632.954zm-.593 1.755c.162.202.273.478.242.757-.234-.01-.527-.162-.696-.36-.149-.175-.283-.46-.248-.729.263-.02.533.133.702.332z"/><linearGradient id="a" gradientUnits="userSpaceOnUse" x1="1928.221" y1="-2096.557" x2="1928.221" y2="-2098.001" gradientTransform="matrix(74.1746 0 0 -74.1346 -143019.234 -155431.172)"><stop offset="0" stop-color="#1a1a1a" stop-opacity=".1"/><stop offset=".123" stop-color="#212121" stop-opacity=".151"/><stop offset=".308" stop-color="#353535" stop-opacity=".227"/><stop offset=".532" stop-color="#575757" stop-opacity=".318"/><stop offset=".783" stop-color="#858585" stop-opacity=".421"/><stop offset="1" stop-color="#b3b3b3" stop-opacity=".51"/></linearGradient><path fill="url(#a)" d="M11.618 3.703H-.828l4.875-7.405h7.571c.483 0 .875.392.876.875v5.655a.878.878 0 0 1-.876.875z"/><path fill="#FFF" d="M-2.555-2.131h-.421l-.23.724h-.801l-.219-.724h-.409l.794 2.464h.49l.796-2.464zm-.721 1.027l-.208.644a8.54 8.54 0 0 0-.124.464h-.007c-.025-.105-.064-.26-.118-.464l-.204-.644h.661zm2.757-.117c0-.302-.082-.541-.246-.717a.723.723 0 0 0-.548-.234c-.235 0-.405.084-.507.252v-.932h-.395v1.914c0 .19-.005.384-.015.584h.347l.022-.282h.007c.132.212.332.318.6.318.21 0 .385-.083.525-.248.14-.166.21-.385.21-.655zm-.402-.014a.733.733 0 0 1-.117.428.404.404 0 0 1-.344.175.407.407 0 0 1-.265-.097.448.448 0 0 1-.155-.254.49.49 0 0 1-.018-.12V-1.4c0-.129.04-.238.119-.327a.394.394 0 0 1 .309-.134c.149 0 .265.058.347.172a.758.758 0 0 1 .124.454zm2.446.014c0-.302-.082-.541-.246-.717a.723.723 0 0 0-.548-.234c-.235 0-.405.084-.508.252v-.932h-.395v1.914c0 .19-.005.384-.015.584H.16l.022-.282h.007c.132.212.331.318.6.318a.659.659 0 0 0 .526-.248c.14-.166.21-.385.21-.655zm-.402-.014a.733.733 0 0 1-.117.428.404.404 0 0 1-.344.175.407.407 0 0 1-.265-.097.448.448 0 0 1-.155-.254.538.538 0 0 1-.019-.12V-1.4c0-.129.04-.238.119-.327a.394.394 0 0 1 .309-.134c.149 0 .265.058.347.172a.758.758 0 0 1 .125.454zM3.81-1.44c0-.21-.073-.38-.219-.512-.16-.144-.384-.216-.671-.216-.265 0-.478.051-.638.154l.091.329c.173-.103.363-.154.57-.154.149 0 .265.034.347.101a.324.324 0 0 1 .126.268c0 .1-.035.184-.103.252a.943.943 0 0 1-.34.19c-.432.161-.648.397-.648.706a.62.62 0 0 0 .229.497c.152.129.354.194.605.194a1.2 1.2 0 0 0 .56-.117L3.62-.069a.988.988 0 0 1-.474.113.479.479 0 0 1-.327-.103.292.292 0 0 1-.099-.223.3.3 0 0 1 .114-.241c.065-.059.185-.122.358-.19.212-.086.368-.185.468-.3.1-.114.15-.257.15-.427zm1.309.789h-.435v-.863c0-.219.077-.329.23-.329.071 0 .129.006.175.019l.011-.3a.892.892 0 0 0-.306-.043.475.475 0 0 0-.366.143c-.088.095-.132.254-.132.478v.896h-.259v.296h.259v.325l.388.117v-.442h.435v-.297zm1.96-.577c0-.273-.078-.497-.234-.673-.163-.181-.38-.27-.651-.27-.261 0-.468.086-.623.259a.944.944 0 0 0-.233.654c0 .275.08.501.239.676.16.175.375.263.646.263.261 0 .47-.086.629-.259.152-.167.227-.384.227-.65zm-.409-.009a.79.79 0 0 1-.106.419.391.391 0 0 1-.355.212.396.396 0 0 1-.362-.212.808.808 0 0 1-.106-.427c0-.163.035-.303.106-.42a.398.398 0 0 1 .359-.212c.151 0 .269.072.355.215a.812.812 0 0 1 .109.425zm1.693.535a.581.581 0 0 1-.125.011.373.373 0 0 1-.322-.157.591.591 0 0 1-.098-.351v-.932h-.395v1.217c0 .186-.004.373-.012.559h.344l.014-.34h.011a.612.612 0 0 0 .197.282.474.474 0 0 0 .285.095.731.731 0 0 0 .099-.007l.002-.377zm1.765-.457a.975.975 0 0 0-.014-.179H8.93c.005-.175.062-.31.172-.402a.591.591 0 0 1 .387-.124c.175 0 .336.028.479.084l.062-.274a1.488 1.488 0 0 0-.596-.11c-.275 0-.492.081-.649.243-.157.162-.236.38-.236.653 0 .268.073.491.22.669.153.189.36.284.621.284.256 0 .45-.095.582-.285a.96.96 0 0 0 .156-.559zm-.376.103a.532.532 0 0 1-.077.304.345.345 0 0 1-.315.165.373.373 0 0 1-.314-.161.6.6 0 0 1-.116-.308h.822zM-4.121 1.204c-.11 0-.205.005-.284.014V2.41c.111.017.223.025.334.025.453 0 .661-.223.661-.586.001-.418-.245-.645-.711-.645zm.067 1.079a.868.868 0 0 1-.156-.012v-.907c.023-.003.068-.005.131-.005.297 0 .466.169.466.485-.001.282-.154.439-.441.439zm1.295-1.088c-.255 0-.421.19-.421.449 0 .27.169.462.435.462.252 0 .42-.182.42-.448.001-.272-.174-.463-.434-.463zm.007.77c-.14 0-.23-.131-.23-.315 0-.18.092-.311.228-.311.137 0 .228.14.228.314.001.179-.089.312-.226.312zm1.883.123l-.273-.873h-.178l-.113.379a2.764 2.764 0 0 0-.07.282h-.004a1.844 1.844 0 0 0-.07-.282l-.121-.379h-.18l-.257.873h.2l.099-.415c.023-.099.043-.192.059-.28h.004c.014.073.038.165.072.278l.124.417h.158l.119-.408a3.24 3.24 0 0 0 .07-.288h.005c.012.09.032.185.059.288l.106.408h.191zm1.005-.873h-.194v.502c0 .154-.06.232-.176.232-.115 0-.194-.099-.194-.214v-.52h-.194v.624c0 .077-.002.16-.007.25h.171l.009-.135h.005a.314.314 0 0 0 .277.153c.183 0 .304-.14.304-.368l-.001-.524zm.536 0H.477v1.274h.194V1.215zm.707-.02c-.255 0-.421.19-.421.449 0 .27.169.462.435.462.252 0 .421-.182.421-.448 0-.272-.174-.463-.435-.463zm.007.77c-.14 0-.23-.131-.23-.315 0-.18.092-.311.228-.311.137 0 .228.14.228.314.001.179-.089.312-.226.312zm1.193-.75l-.014.101H2.56a.297.297 0 0 0-.255-.12c-.156 0-.267.11-.267.257 0 .216.187.327.51.327v.016c0 .115-.061.173-.182.173a.409.409 0 0 1-.228-.065l-.04.128a.555.555 0 0 0 .3.076c.228 0 .344-.12.344-.361v-.324c0-.088.004-.156.012-.208h-.175zm-.027.435c-.215 0-.324-.052-.324-.176 0-.092.056-.137.133-.137.099 0 .19.076.19.178v.135zm1.132-.435l-.009.14h-.006c-.056-.106-.149-.16-.28-.16-.211 0-.367.185-.367.446 0 .273.162.466.382.466.117 0 .2-.04.246-.119h.004v.501h.196V1.451c0-.084.002-.164.007-.236h-.173zm-.029.514c0 .122-.081.227-.204.227-.144 0-.232-.127-.232-.307 0-.176.091-.297.228-.297.122 0 .208.106.208.232v.145zm1.426-.534c-.255 0-.42.19-.42.449 0 .27.169.462.435.462.252 0 .42-.182.42-.448.001-.272-.174-.463-.435-.463zm.008.77c-.14 0-.23-.131-.23-.315 0-.18.092-.311.228-.311.137 0 .228.14.228.314 0 .179-.09.312-.226.312zm1.471-.75h-.194v.502c0 .154-.059.232-.176.232-.115 0-.194-.099-.194-.214v-.52h-.194v.624c0 .077-.002.16-.007.25h.171l.009-.135h.005a.314.314 0 0 0 .277.153c.183 0 .304-.14.304-.369v-.523zm1.306.728h-.214v-.424c0-.108.038-.162.113-.162.034 0 .063.004.086.009l.005-.147a.41.41 0 0 0-.15-.022c-.153 0-.244.084-.244.306v.441h-.128v.145h.127v.16l.191.058v-.218h.214v-.146zm1.027-.728h-.194v.498c0 .156-.059.236-.176.236-.101 0-.194-.068-.194-.207v-.527h-.194v1.274h.194v-.524h.004c.061.095.15.142.263.142.184 0 .298-.144.298-.372v-.52h-.001zm1.053.39h-.583c.004-.165.113-.259.275-.259.086 0 .165.014.235.041l.03-.135a.726.726 0 0 0-.293-.054c-.273 0-.435.173-.435.44 0 .268.165.469.413.469.223 0 .363-.165.363-.415a.32.32 0 0 0-.005-.087zm-.178.139c0 .135-.068.23-.192.23-.112 0-.2-.097-.212-.23h.404z"/></g></symbol><path fill="#BCD2DE" d="M0 0h640v360H0z"/><path fill="#8E99A1" d="M237.623 114.697h31.318v186.676h-31.318z"/><path fill="#787C86" d="M369.527 142.194h31.318v186.677h-31.318z"/><path fill="#8E99A1" d="M402.061 192.299h31.318v147.262h-31.318z"/><path fill="#787C86" d="M210.008 158.463h31.318V345.14h-31.318z"/><path fill="#8E99A1" d="M140.768 165.36h24.497v121.33h-24.497z"/><path fill="#435563" d="M129.446 251.484H53.665v-15.953h-24.5v63.813h24.5v-2.846h75.781zM325.922 260.918h-76.354v-15.953h-20.512v-22.221h-24.502v63.811h20.512v22.222h24.502v-2.845h76.354z"/><path fill="#E68F5B" d="M598.916 275.137c0-41.414-33.572-74.986-74.984-74.986s-74.986 33.572-74.986 74.986c0 13.938 3.813 26.98 10.438 38.158H588.48a74.646 74.646 0 0 0 10.436-38.158z"/><path fill="#1D2C36" d="M68.948 175.093h41.021v140.524H68.948z"/><g fill="#60717B"><path d="M76.561 188.334h5.732v5.73h-5.732zM76.561 199.225h5.732v5.73h-5.732zM76.561 210.686h5.732v5.734h-5.732zM76.561 221.574h5.732v5.734h-5.732zM76.561 232.467h5.732v5.73h-5.732zM76.561 243.357h5.732v5.73h-5.732zM76.561 254.244h5.732v5.732h-5.732zM76.561 265.137h5.732v5.729h-5.732zM86.306 188.334h5.731v5.73h-5.731zM86.306 199.225h5.731v5.73h-5.731zM86.306 210.686h5.731v5.734h-5.731zM86.306 221.574h5.731v5.734h-5.731zM86.306 232.467h5.731v5.73h-5.731zM86.306 243.357h5.731v5.73h-5.731zM86.306 254.244h5.731v5.732h-5.731zM86.306 265.137h5.731v5.729h-5.731zM96.62 188.334h5.733v5.73H96.62zM96.62 199.225h5.733v5.73H96.62zM96.62 210.686h5.733v5.734H96.62zM96.62 221.574h5.733v5.734H96.62zM96.62 232.467h5.733v5.73H96.62zM96.62 243.357h5.733v5.73H96.62zM96.62 254.244h5.733v5.732H96.62zM96.62 265.137h5.733v5.729H96.62z"/></g><path fill="#1D2C36" d="M463.246 224.465h24.506v63.816h-24.506z"/><g fill="#60717B"><path d="M467.762 229.893h3.438v3.438h-3.438zM467.762 236.424h3.438v3.439h-3.438zM467.762 243.303h3.438v3.441h-3.438zM467.762 249.838h3.438v3.439h-3.438zM467.762 256.373h3.438v3.436h-3.438zM467.762 262.904h3.438v3.439h-3.438zM467.762 269.436h3.438v3.441h-3.438zM467.762 275.973h3.438v3.436h-3.438zM473.604 229.893h3.441v3.438h-3.441zM473.604 236.424h3.441v3.439h-3.441zM473.604 243.303h3.441v3.441h-3.441zM473.604 249.838h3.441v3.439h-3.441zM473.604 256.373h3.441v3.436h-3.441zM473.604 262.904h3.441v3.439h-3.441zM473.604 269.436h3.441v3.441h-3.441zM473.604 275.973h3.441v3.436h-3.441zM479.797 229.893h3.439v3.438h-3.439zM479.797 236.424h3.439v3.439h-3.439zM479.797 243.303h3.439v3.441h-3.439zM479.797 249.838h3.439v3.439h-3.439zM479.797 256.373h3.439v3.436h-3.439zM479.797 262.904h3.439v3.439h-3.439zM479.797 269.436h3.439v3.441h-3.439zM479.797 275.973h3.439v3.436h-3.439z"/></g><path fill="#1D2C36" d="M433.811 218.98h31.59v82.277h-31.59z"/><g fill="#60717B"><path d="M439.631 225.98h4.432v4.43h-4.432zM439.631 234.402h4.432v4.434h-4.432zM439.631 243.271h4.432v4.43h-4.432zM439.631 251.691h4.432v4.436h-4.432zM439.631 260.117h4.432v4.432h-4.432zM439.631 268.545h4.432v4.434h-4.432zM439.631 276.967h4.432v4.436h-4.432zM439.631 285.393h4.432v4.434h-4.432zM447.168 225.98h4.432v4.43h-4.432zM447.168 234.402h4.432v4.434h-4.432zM447.168 243.271h4.432v4.43h-4.432zM447.168 251.691h4.432v4.436h-4.432zM447.168 260.117h4.432v4.432h-4.432zM447.168 268.545h4.432v4.434h-4.432zM447.168 276.967h4.432v4.436h-4.432zM447.168 285.393h4.432v4.434h-4.432zM455.15 225.98h4.432v4.43h-4.432zM455.15 234.402h4.432v4.434h-4.432zM455.15 243.271h4.432v4.43h-4.432zM455.15 251.691h4.432v4.436h-4.432zM455.15 260.117h4.432v4.432h-4.432zM455.15 268.545h4.432v4.434h-4.432zM455.15 276.967h4.432v4.436h-4.432zM455.15 285.393h4.432v4.434h-4.432z"/></g><path fill="#435563" d="M581.971 237.445h24.506v63.813h-24.506z"/><g fill="#60717B"><path d="M586.484 242.873h3.439v3.438h-3.439zM586.484 249.404h3.439v3.439h-3.439zM586.484 256.285h3.439v3.438h-3.439zM586.484 262.814h3.439v3.439h-3.439zM586.484 269.352h3.439v3.438h-3.439zM586.484 275.885h3.439v3.436h-3.439zM586.484 282.418h3.439v3.441h-3.439zM586.484 288.951h3.439v3.439h-3.439zM592.332 242.873h3.439v3.438h-3.439zM592.332 249.404h3.439v3.439h-3.439zM592.332 256.285h3.439v3.438h-3.439zM592.332 262.814h3.439v3.439h-3.439zM592.332 269.352h3.439v3.438h-3.439zM592.332 275.885h3.439v3.436h-3.439zM592.332 282.418h3.439v3.441h-3.439zM592.332 288.951h3.439v3.439h-3.439zM598.521 242.873h3.438v3.438h-3.438zM598.521 249.404h3.438v3.439h-3.438zM598.521 256.285h3.438v3.438h-3.438zM598.521 262.814h3.438v3.439h-3.438zM598.521 269.352h3.438v3.438h-3.438zM598.521 275.885h3.438v3.436h-3.438zM598.521 282.418h3.438v3.441h-3.438zM598.521 288.951h3.438v3.439h-3.438z"/></g><path fill="#787C86" d="M552.703 251.801h24.502v63.816h-24.502z"/><path fill="#435563" d="M531.051 237.557h24.5v63.816h-24.5z"/><path fill="#787C86" d="M511.678 244.965h24.502v63.813h-24.502z"/><path fill="#435563" d="M411.965 244.965v15.953h-78.059v45.014h78.059v2.845h24.5v-63.812zM266.092 222.744h24.502v92.873h-24.502zM119.357 244.965h51.792v63.813h-51.792z"/><path fill="#1D2C36" d="M163.532 188.848h41.022v105.98h-41.022z"/><g fill="#60717B"><path d="M171.149 195.09h5.73v5.729h-5.73zM171.149 205.98h5.73v5.73h-5.73zM171.149 217.439h5.73v5.736h-5.73zM171.149 228.334h5.73v5.729h-5.73zM171.149 239.219h5.73v5.734h-5.73zM171.149 250.111h5.73v5.732h-5.73zM171.149 261.002h5.73v5.73h-5.73zM171.149 271.891h5.73v5.732h-5.73zM180.89 195.09h5.732v5.729h-5.732zM180.89 205.98h5.732v5.73h-5.732zM180.89 217.439h5.732v5.736h-5.732zM180.89 228.334h5.732v5.729h-5.732zM180.89 239.219h5.732v5.734h-5.732zM180.89 250.111h5.732v5.732h-5.732zM180.89 261.002h5.732v5.73h-5.732zM180.89 271.891h5.732v5.732h-5.732zM191.206 195.09h5.731v5.729h-5.731zM191.206 205.98h5.731v5.73h-5.731zM191.206 217.439h5.731v5.736h-5.731zM191.206 228.334h5.731v5.729h-5.731zM191.206 239.219h5.731v5.734h-5.731zM191.206 250.111h5.731v5.732h-5.731zM191.206 261.002h5.731v5.73h-5.731zM191.206 271.891h5.731v5.732h-5.731z"/></g><path fill="#435563" d="M35.329 222.744H10.827v16.522H0v63.82h24.502v-16.531h10.827z"/><path fill="#1D2C36" d="M598.855 180.579h41.025v105.976h-41.025z"/><g fill="#60717B"><path d="M606.477 192.299h5.725v5.734h-5.725zM606.477 203.193h5.725v5.727h-5.725zM606.477 214.656h5.725v5.732h-5.725zM606.477 225.543h5.725v5.732h-5.725zM606.477 236.434h5.725v5.727h-5.725zM606.477 247.322h5.725v5.732h-5.725zM606.477 258.215h5.725v5.73h-5.725zM606.477 269.105h5.725v5.73h-5.725zM616.217 192.299h5.73v5.734h-5.73zM616.217 203.193h5.73v5.727h-5.73zM616.217 214.656h5.73v5.732h-5.73zM616.217 225.543h5.73v5.732h-5.73zM616.217 236.434h5.73v5.727h-5.73zM616.217 247.322h5.73v5.732h-5.73zM616.217 258.215h5.73v5.73h-5.73zM616.217 269.105h5.73v5.73h-5.73zM626.527 192.299h5.734v5.734h-5.734zM626.527 203.193h5.734v5.727h-5.734zM626.527 214.656h5.734v5.732h-5.734zM626.527 225.543h5.734v5.732h-5.734zM626.527 236.434h5.734v5.727h-5.734zM626.527 247.322h5.734v5.732h-5.734zM626.527 258.215h5.734v5.73h-5.734zM626.527 269.105h5.734v5.73h-5.734z"/></g><path fill="#016687" d="M0 284.232h640v35H0z"/><path fill="#087A9D" d="M0 318.9V360h640v-41.1z"/><use xlink:href="#b" width="93.423" height="359.934" x="-46.712" y="-179.967" transform="matrix(1 0 0 -1 320.8 180.034)" overflow="visible"/><g><path fill="#ECF0F1" d="M0 0h299.945v41.53H0z"/><path fill="#1279BF" d="M283.187 24.149c-.102.124-.203.249-.307.368-.105.118-.211.235-.322.35-.111.111-.227.22-.348.325a6.808 6.808 0 0 1-1.078.79c-.131.073-.26.146-.395.209a6.704 6.704 0 0 1-.986.367 9.544 9.544 0 0 1-.51.131c-.172.033-.348.065-.518.089-.074.011-.15.022-.227.028-.074.007-.148.014-.225.019-.074.004-.15.006-.229.008h-.227c-.051-.003-.104-.003-.156-.007-.051-.001-.102-.006-.154-.01a2.983 2.983 0 0 1-.158-.014c-.051-.005-.102-.012-.152-.018a5.45 5.45 0 0 1-.616-.121c-.1-.023-.201-.053-.299-.082a4.221 4.221 0 0 1-.301-.096l1.256 1.853c.027.003.057.004.086.005l.084.003c.029.002.059.002.086.002.027.001.059.004.084.004.1.002.199.006.299.002.1-.001.199-.002.299-.006.098-.002.197-.008.293-.013a6.797 6.797 0 0 0 1.174-.156c.148-.029.291-.066.436-.107a5.54 5.54 0 0 0 .426-.133c.146-.046.287-.1.424-.159.139-.056.277-.117.414-.185.135-.067.27-.134.402-.207.131-.072.264-.144.393-.223.109-.065.215-.133.32-.208.107-.073.209-.146.313-.226.104-.077.203-.155.307-.233.102-.078.203-.155.307-.23l.098-2.5c-.098.132-.193.257-.293.381z"/><path fill="none" d="M251.955 3.691h34.146v34.147h-34.146z"/><path fill="#1279BF" d="M277.076 22.232c.01.005.016.01.025.013.006.005.016.008.023.011.008.005.018.009.023.013.225.103.449.211.672.322.223.111.443.223.668.327.221.105.447.206.672.292a5.065 5.065 0 0 0 .941.259c.086.013.172.024.256.035.086.011.174.017.26.022.084.007.174.009.26.012.08.002.162.002.244 0l.246-.009c.084-.005.164-.009.244-.017.084-.005.164-.016.244-.024.123-.013.24-.03.359-.055.121-.022.238-.05.357-.078a6.361 6.361 0 0 0 .7-.238c.115-.045.229-.098.342-.154.111-.057.225-.117.332-.181a5.46 5.46 0 0 0 .328-.204c.109-.067.215-.143.32-.217.086-.062.168-.129.252-.197a6.45 6.45 0 0 0 .25-.216c.082-.07.162-.148.244-.221.082-.075.164-.151.248-.222l.047-2.167c-.07.106-.139.214-.211.321-.072.105-.143.209-.221.311-.072.1-.152.2-.23.299a7.23 7.23 0 0 1-.533.56c-.098.09-.197.177-.299.261a4.392 4.392 0 0 1-.64.442 4.876 4.876 0 0 1-.814.375 4.351 4.351 0 0 1-.424.134 4.28 4.28 0 0 1-.428.094c-.059.008-.119.019-.176.025-.063.009-.121.013-.184.019-.059.004-.119.006-.18.009-.061 0-.121.002-.182 0-.049 0-.096-.002-.143-.005a2.194 2.194 0 0 1-.143-.009 2.231 2.231 0 0 1-.145-.013l-.137-.018a4.57 4.57 0 0 1-.694-.166c-.113-.035-.223-.076-.336-.118a14.632 14.632 0 0 1-1.199-.508c-.289-.134-.572-.279-.855-.423-.283-.15-.563-.299-.844-.45l-.84-.46 1.27 2.198c.015.006.023.011.031.016z"/><path fill="#F8951D" d="M280.021 28.33c-.947-.199-1.828-.72-2.73-1.121-1.641-.725-3.16-1.919-4.881-2.3a2.786 2.786 0 0 0-.631-.069c-.273 0-.551.033-.82.086a4.582 4.582 0 0 0-1.488.552c-.424.258-.82.608-1.158 1.012-.395.472-.705 1.055-1.002 1.632l.006-2.623c.145-.392.51-.616.807-.86a6.031 6.031 0 0 1 1.426-.885c.514-.232 1.061-.409 1.609-.463.129-.012.258-.017.385-.017.459 0 .918.069 1.367.17.467.11.91.317 1.361.518 1.725.753 3.35 1.846 5.096 2.528.113.042.227.081.34.118l-2.523-4.23c-1.594-.711-3.084-1.822-4.76-2.179a2.807 2.807 0 0 0-.627-.067c-.275 0-.555.034-.826.085a4.637 4.637 0 0 0-1.488.547 4.602 4.602 0 0 0-1.156.977c-.396.459-.707 1.018-1.004 1.581l.01-2.536c.266-.282.51-.598.805-.834.439-.356.92-.655 1.424-.873.518-.224 1.063-.393 1.611-.442.139-.013.275-.02.412-.02.451 0 .9.063 1.34.165.467.101.91.321 1.359.511.496.212.98.453 1.463.704l-6.65-11.146-14.371 23.827h28.604l-2.533-4.248a4.816 4.816 0 0 1-.777-.1z"/><g><path fill="#3498DB" d="M18.901 7.984l.739 1.804-1.782.728c-1.243.536-1.915 1.458-2.019 2.769.049.428.151.852.304 1.268l3.136 7.374c.274.605.41 1.283.41 2.023a4.416 4.416 0 0 1-.943 2.764 5.141 5.141 0 0 1-2.352 1.741l-1.683.645-.767-1.866 1.717-.595c.628-.208 1.126-.552 1.492-1.043a2.667 2.667 0 0 0 .548-1.647c0-.476-.084-.925-.256-1.344l-3.141-7.299a6.882 6.882 0 0 1-.461-2.022 4.908 4.908 0 0 1 .907-2.767c.58-.821 1.375-1.434 2.386-1.842l1.765-.691zM28.96 20.557L25.511 24.1l-1.378-1.369 2.731-2.768-.1-.258c-.357-.745-.854-1.114-1.483-1.114-.748 0-1.281.4-1.596 1.205-.317.806-.474 1.742-.474 2.809 0 1.05.155 1.987.468 2.809.311.815.828 1.225 1.551 1.225.234 0 .471-.061.715-.191.243-.127.43-.305.563-.533l.15-.233 1.763 1.01-.305.444c-.856 1.224-1.835 1.837-2.936 1.837-.923 0-1.676-.319-2.259-.953-.584-.635-1.004-1.441-1.264-2.424a11.993 11.993 0 0 1-.385-3.042c.021-1.096.154-2.102.399-3.015.245-.916.656-1.672 1.232-2.275.574-.604 1.333-.916 2.276-.947.665 0 1.25.172 1.761.513.51.345.922.797 1.244 1.361.319.562.541 1.169.667 1.822l.109.544zM35.753 27.444c-.167.339-.439.653-.818.939-.378.287-.855.431-1.433.431-1.252-.022-2.111-.635-2.583-1.838-.472-1.206-.708-2.664-.708-4.371 0-1.71.251-3.18.753-4.404.503-1.225 1.384-1.875 2.644-1.94.652 0 1.23.241 1.732.727l.413.334V6.921h1.788v21.637h-1.788v-1.114zm-1.79-.804c.782 0 1.3-.273 1.555-.827.256-.551.385-1.354.385-2.407v-.958c-.008-.295-.025-.713-.048-1.266-.022-.553-.09-1.012-.202-1.389a1.866 1.866 0 0 0-.579-.905c-.276-.229-.661-.346-1.16-.346-1.259.082-1.889 1.387-1.889 3.906.021 1.572.195 2.643.521 3.205.325.562.797.89 1.417.987zM45.214 29.873v-2.016c-.602.704-1.248 1.058-1.936 1.058-2.499 0-3.783-2.061-3.854-6.184 0-1.063.111-2.077.335-3.047.225-.969.615-1.777 1.169-2.43.555-.651 1.285-.998 2.195-1.043.713 0 1.273.292 1.682.877l.359.444v-.906h1.79v13.199c0 .836-.068 1.565-.2 2.19-.133.626-.38 1.154-.742 1.587-.264.317-.625.563-1.088.74a4.268 4.268 0 0 1-1.541.266c-1.241 0-2.176-.372-2.812-1.115l.896-2.506c.025.525.211.966.557 1.323.348.357.807.538 1.38.538.771-.073 1.265-.385 1.485-.931.216-.546.325-1.228.325-2.044zm-3.978-7.244c.013 1.302.172 2.297.475 2.989.302.69.843 1.049 1.618 1.074.756 0 1.267-.299 1.534-.887.267-.592.401-1.461.401-2.606v-.645a87.3 87.3 0 0 0-.047-1.3c-.023-.567-.09-1.038-.199-1.415a1.861 1.861 0 0 0-.578-.921c-.276-.239-.663-.365-1.16-.377-.73 0-1.256.363-1.571 1.103-.32.734-.493 1.636-.522 2.7a.652.652 0 0 1 .049.285zM56.377 20.557L52.931 24.1l-1.379-1.369 2.73-2.768-.099-.258c-.356-.745-.853-1.114-1.484-1.114-.748 0-1.28.4-1.596 1.205-.314.806-.473 1.742-.473 2.809 0 1.05.157 1.987.466 2.809.311.815.83 1.225 1.552 1.225.233 0 .47-.061.714-.191.244-.127.433-.305.564-.533l.15-.233 1.765 1.01-.307.444c-.856 1.224-1.835 1.837-2.936 1.837-.921 0-1.675-.319-2.258-.953-.584-.635-1.003-1.441-1.263-2.424a11.903 11.903 0 0 1-.385-3.042c.02-1.096.15-2.102.399-3.015.246-.916.654-1.672 1.23-2.275.575-.604 1.335-.916 2.276-.947.665 0 1.253.172 1.762.513.51.345.924.797 1.243 1.361a5.87 5.87 0 0 1 .668 1.822l.107.544zM61.431 29.258l-1.657-.752-2.73-11.879 1.633-.416 2.042 10.121 2.657-9.756h.049l2.63 9.705 2.144-10.069 1.708.416-3.085 12.632-1.664-.752-1.733-7.063-1.994 7.813zM73.66 10.619l-1.019 2.979-1.169-2.979h2.188zm-2.062 17.939V16.575h1.961v11.982h-1.961zM80.984 26.28l.691 2.016c-.444.451-1.007.678-1.688.678-.944 0-1.707-.31-2.291-.931-.583-.618-.997-1.406-1.243-2.361a12.336 12.336 0 0 1-.369-3.076c0-1.072.127-2.073.377-3.003.252-.931.674-1.7 1.267-2.302.591-.604 1.361-.916 2.309-.932.669 0 1.214.206 1.638.619l-.691 1.964a6.126 6.126 0 0 0-.416-.27c-.072-.038-.231-.069-.475-.09-.724 0-1.243.4-1.552 1.201-.312.805-.478 1.741-.492 2.813 0 1.09.141 2.035.427 2.834.284.801.787 1.199 1.51 1.199.178 0 .318-.013.421-.043a.994.994 0 0 0 .287-.132c.09-.056.187-.12.29-.184zM83.234 28.505V6.921h1.939v21.584h-1.939zm5.945.469l-3.751-7.431 2.498-5.458 1.84.85-2.299 4.607 3.503 6.37-1.791 1.062zM103.709 17.839l3.495 6.837 1.608-1.889L110.041 24l-2.043 2.279 1.196 2.278-1.403.899-.94-1.964c-1.052.914-2.295 1.373-3.728 1.373-1.447-.025-2.565-.524-3.356-1.497-.792-.977-1.187-2.191-1.187-3.653 0-.173.016-.43.05-.776.091-.876.284-1.656.582-2.338.299-.684.637-1.269 1.021-1.757.381-.489.827-.977 1.334-1.465a74.98 74.98 0 0 1-.964-1.854 9.404 9.404 0 0 1-.489-1.286 7.383 7.383 0 0 1-.288-1.702c0-.729.16-1.424.479-2.085a4.145 4.145 0 0 1 1.319-1.602 3.148 3.148 0 0 1 1.88-.608c1.25.024 2.207.403 2.868 1.134.661.73.99 1.699.99 2.902a4.475 4.475 0 0 1-.352 1.689 5.894 5.894 0 0 1-.844 1.405c-.342.42-.717.824-1.125 1.211l-1.332 1.256zm-1.329 1.17a5.918 5.918 0 0 0-1.08 1.338 6.583 6.583 0 0 0-.636 1.498c-.147.522-.272 1.13-.375 1.822.011.984.279 1.817.802 2.497.524.681 1.235 1.02 2.132 1.02 1.068 0 2.013-.369 2.835-1.107l-3.678-7.068zm-.814-6.73c0 .652.11 1.276.335 1.869.225.592.565 1.295 1.017 2.114l.685-.595c1.281-1.104 1.921-2.286 1.921-3.545 0-.444-.083-.826-.254-1.15a1.814 1.814 0 0 0-.701-.754 1.935 1.935 0 0 0-1.018-.271c-.584 0-1.062.218-1.431.653-.37.433-.554.992-.554 1.679zM120.513 20.557v7.948h-1.939v-7.948h-1.583l.693-2.015h.891V8.604h5.485l.691 2.015h-4.294v7.923h3.346v2.015h-3.29zM133.428 20.557L129.98 24.1l-1.377-1.369 2.73-2.768-.1-.258c-.357-.745-.852-1.114-1.482-1.114-.749 0-1.281.4-1.596 1.205-.316.806-.475 1.742-.475 2.809 0 1.05.158 1.987.468 2.809.313.815.829 1.225 1.551 1.225.234 0 .471-.061.713-.191.246-.127.432-.305.566-.533l.148-.233 1.765 1.01-.304.444c-.857 1.224-1.835 1.837-2.936 1.837-.922 0-1.675-.319-2.261-.953-.584-.635-1.005-1.441-1.262-2.424a11.903 11.903 0 0 1-.385-3.042c.019-1.096.152-2.102.398-3.015.244-.916.654-1.672 1.23-2.275.576-.604 1.335-.916 2.279-.947.665 0 1.251.172 1.761.513.507.345.923.797 1.242 1.361.322.562.543 1.169.667 1.822l.108.544zM136.981 18.435c.321-.607.671-1.096 1.045-1.465.375-.37.842-.551 1.402-.551h.307l-.667 1.963c-.396.086-.656.147-.786.187-.13.042-.285.148-.462.33-.235.223-.437.633-.599 1.223-.162.594-.241 1.282-.241 2.063v6.32h-1.74v-11.93h1.74v1.86zM144.658 29.258L143 28.505l-2.73-11.879 1.633-.416 2.044 10.121 2.656-9.756h.049l2.632 9.705 2.144-10.069 1.706.416-3.085 12.632-1.665-.752-1.732-7.063-1.994 7.814zM161.66 20.557l-3.446 3.543-1.376-1.369 2.73-2.768-.098-.258c-.359-.745-.854-1.114-1.485-1.114-.746 0-1.282.4-1.594 1.205-.318.806-.475 1.742-.475 2.809 0 1.05.156 1.987.467 2.809.312.815.83 1.225 1.552 1.225.233 0 .471-.061.715-.191.243-.127.43-.305.564-.533l.147-.233 1.765 1.01-.305.444c-.858 1.224-1.834 1.837-2.937 1.837-.921 0-1.675-.319-2.259-.953-.584-.635-1.005-1.441-1.263-2.424a11.948 11.948 0 0 1-.386-3.042c.021-1.096.154-2.102.4-3.015.244-.916.654-1.672 1.231-2.275.575-.604 1.334-.916 2.277-.947.667 0 1.251.172 1.761.513.509.345.924.797 1.245 1.361a5.97 5.97 0 0 1 .667 1.822l.103.544zM168.457 27.444c-.167.339-.44.653-.818.939-.38.287-.855.431-1.434.431-1.251-.022-2.113-.635-2.583-1.838-.473-1.206-.71-2.664-.71-4.371 0-1.71.253-3.18.756-4.404.503-1.225 1.382-1.875 2.643-1.94.652 0 1.229.241 1.732.727l.413.334V6.921h1.787v21.637h-1.787v-1.114zm-1.791-.804c.781 0 1.301-.273 1.557-.827.254-.551.381-1.354.381-2.407v-.958c-.008-.295-.023-.713-.045-1.266-.023-.553-.089-1.012-.204-1.389a1.852 1.852 0 0 0-.579-.905c-.273-.229-.661-.346-1.16-.346-1.258.082-1.888 1.387-1.888 3.906.022 1.572.193 2.643.52 3.205s.798.89 1.418.987zM177.667 27.493c-.583.914-1.314 1.373-2.193 1.373-.783-.03-1.415-.348-1.901-.952s-.836-1.36-1.048-2.267a13.743 13.743 0 0 1-.349-2.86c0-1.107.123-2.159.369-3.151.245-.989.621-1.802 1.133-2.43.512-.626 1.143-.957 1.895-.996.719 0 1.316.273 1.79.827l.406.44v-.902h1.738v12.03h-1.839v-1.112zm-1.788-.853h.049c.762 0 1.267-.246 1.52-.735.251-.49.377-1.24.377-2.242V22.6c-.009-.308-.026-.752-.047-1.331-.023-.579-.089-1.063-.2-1.457a1.966 1.966 0 0 0-.583-.96c-.28-.245-.668-.365-1.166-.365-.62.044-1.09.498-1.407 1.36a8.118 8.118 0 0 0-.481 2.829c.057 2.643.704 3.964 1.938 3.964z"/><path fill="#2B2B2B" d="M191.681 27.681c-.48.753-1.083 1.13-1.809 1.13a2.03 2.03 0 0 1-1.564-.781c-.4-.5-.686-1.121-.861-1.868a11.29 11.29 0 0 1-.288-2.358c0-.909.102-1.776.302-2.591.202-.819.513-1.487.933-2.002.422-.515.944-.79 1.561-.822.592 0 1.084.228 1.472.679l.336.364v-.739h1.432v9.904h-1.515v-.916zm-1.474-.702h.042c.626 0 1.042-.203 1.248-.609.209-.401.31-1.016.31-1.842v-.878c-.006-.25-.019-.616-.037-1.095a5.43 5.43 0 0 0-.164-1.201 1.584 1.584 0 0 0-.481-.788c-.228-.204-.55-.305-.958-.305-.51.036-.896.412-1.162 1.125a6.655 6.655 0 0 0-.394 2.327c.048 2.175.58 3.266 1.596 3.266zM196.476 20.219c.266-.499.552-.899.861-1.204.309-.303.695-.455 1.156-.455h.251l-.548 1.62a8.153 8.153 0 0 0-.648.15c-.107.035-.233.126-.38.275-.196.184-.359.518-.493 1.006-.133.49-.199 1.054-.199 1.699v5.203h-1.434v-9.821h1.434v1.527zM203.621 26.685l.57 1.658c-.369.369-.832.558-1.393.558-.777 0-1.407-.256-1.888-.765-.479-.512-.821-1.159-1.023-1.947a10.179 10.179 0 0 1-.303-2.534c0-.881.104-1.704.312-2.472.205-.767.553-1.399 1.04-1.896.491-.499 1.123-.755 1.904-.769.55 0 1 .17 1.351.511l-.57 1.62a3.805 3.805 0 0 0-.342-.222c-.06-.035-.191-.058-.394-.077-.594 0-1.02.33-1.277.991-.257.664-.392 1.432-.404 2.313 0 .897.116 1.677.349 2.337.235.658.65.988 1.246.988.148 0 .262-.012.346-.037a.824.824 0 0 0 .237-.11c.072-.047.151-.099.239-.147zM206.981 23.011v5.502h-1.433V10.738h1.433v8.651c.196-.275.473-.506.831-.685.36-.186.742-.274 1.147-.274.722 0 1.318.303 1.792.918.474.608.712 1.583.712 2.92v6.289h-1.433v-6.25a3.48 3.48 0 0 0-.265-1.371c-.179-.422-.533-.633-1.06-.633-.53 0-.922.132-1.171.394a1.71 1.71 0 0 0-.466.938 9.3 9.3 0 0 0-.087 1.376zM215.247 13.785l-.841 2.455-.962-2.455h1.803zm-1.699 14.773v-9.866h1.616v9.866h-1.616zM218.439 20.117h-1.428l.396-1.387h1.033v-7.991h1.431v7.954h1.931l-.482 1.425h-1.448v8.441h-1.431v-8.442zM228.95 21.967l-2.838 2.92-1.136-1.13 2.248-2.28-.081-.212c-.293-.609-.702-.916-1.222-.916-.615 0-1.055.331-1.312.994-.262.664-.393 1.434-.393 2.31 0 .869.129 1.64.384 2.313.258.675.686 1.012 1.279 1.012.191 0 .387-.051.587-.16.201-.106.357-.252.467-.439l.12-.192 1.453.832-.251.366c-.703 1.009-1.509 1.514-2.416 1.514-.759 0-1.38-.26-1.861-.786-.48-.518-.829-1.185-1.04-1.992a9.776 9.776 0 0 1-.319-2.508c.017-.904.125-1.729.327-2.483.203-.752.541-1.376 1.016-1.873.474-.496 1.1-.758 1.877-.781.547 0 1.031.141 1.448.422.42.282.761.657 1.024 1.121.263.462.447.964.551 1.5l.088.448zM233.934 26.685l.57 1.658c-.367.369-.829.558-1.393.558-.774 0-1.404-.256-1.885-.765-.481-.512-.822-1.159-1.024-1.947a10.18 10.18 0 0 1-.301-2.534c0-.881.101-1.704.309-2.472.207-.767.555-1.399 1.043-1.896.487-.499 1.121-.755 1.902-.769.551 0 1.001.17 1.349.511l-.57 1.62a3.915 3.915 0 0 0-.339-.222c-.061-.035-.194-.058-.396-.077-.593 0-1.02.33-1.277.991-.256.664-.393 1.432-.405 2.313 0 .897.118 1.677.351 2.337.235.658.649.988 1.244.988.148 0 .264-.012.348-.037a.818.818 0 0 0 .236-.11c.074-.047.153-.099.238-.147zM236.772 20.117h-1.425l.395-1.387h1.031v-7.991h1.433v7.954h1.931l-.482 1.425h-1.448v8.441h-1.433v-8.442zM243.222 18.284l1.143 1.275-.742.709c-.248.26-.434.503-.549.719s-.207.495-.273.835a2.2 2.2 0 0 0 .51 1.148l.313.428c.631.803.949 1.563.949 2.279 0 .826-.436 1.655-1.303 2.492l-.82.811-1.205-1.17.74-.706a6.51 6.51 0 0 0 .676-.694c.133-.169.207-.384.23-.651 0-.545-.189-1.056-.572-1.529l-.379-.474c-.504-.641-.777-1.331-.818-2.065a4.282 4.282 0 0 1 .525-1.79c.123-.214.264-.407.42-.573.158-.169.377-.374.654-.611.277-.236.445-.382.501-.433z"/></g></g><use xlink:href="#c" width="100" height="29.63" x="-50" y="-14.814" transform="matrix(1 0 0 -1 572.295 339.451)" overflow="visible"/></svg>