<svg xmlns="http://www.w3.org/2000/svg" width="360" height="360" viewBox="0 0 360 360"><path fill="#33ACE3" d="M-5-5h370v288H-5z"/><path fill="#3AA9AE" d="M-5 318h370v47H-5z"/><path fill="#016081" d="M-5 283h370v35H-5z"/><path fill="#1F4564" d="M-5 251.75h370V283H-5z"/><path fill="#2D6592" d="M-5 207.242h370v45H-5z"/><path fill="#33ACE3" d="M0 0h360v283H0z"/><path fill="#F8F9F7" d="M340.428 27.444l-.551.773.669-.673.367 2.195-.005-2.225.772.551-.672-.669 2.195-.368-2.225.005.55-.772-.669.672-.367-2.194.005 2.224-.772-.55.672.67-2.194.366z"/><path fill="#57BAE7" d="M281.081 60.113l-.771 1.082.936-.942.515 3.073-.007-3.115 1.081.771-.941-.937 3.072-.514-3.115.008.771-1.082-.937.941-.514-3.072.007 3.114-1.081-.771.941.937-3.072.515z"/><path fill="#98D4ED" d="M132.671 26.92l-.881 1.236 1.07-1.075.588 3.511-.008-3.56 1.235.881-1.075-1.071 3.511-.587-3.56.008.882-1.236-1.072 1.076-.587-3.511.008 3.559-1.236-.881 1.076 1.071-3.511.587z"/><path fill="#76C6EA" d="M29.919 22.943l-1.083 1.517 1.316-1.321.721 4.31-.01-4.37 1.517 1.083-1.32-1.315 4.309-.721-4.369.009 1.082-1.517-1.314 1.321-.722-4.31.009 4.37-1.515-1.082 1.32 1.314-4.311.721z"/><path fill="#57BAE7" d="M18.062 48.695l1.259-1.265.692 4.131-.01-4.189 1.453 1.037-1.266-1.26 4.131-.691-4.187.01 1.037-1.454-1.26 1.265-.691-4.131.009 4.189-1.455-1.037 1.266 1.26-2.243.375v.312l2.302-.006z"/><path fill="#98D4ED" d="M229.438 28.337l-.661.928.804-.807.44 2.633-.006-2.67.926.662-.805-.804 2.633-.441-2.67.007.661-.928-.804.808-.44-2.634.006 2.67-.926-.661.805.803-2.632.44z"/><path fill="#9BD4EE" d="M254.072 47.667l-1.309 1.835 1.591-1.597.872 5.212-.013-5.284 1.834 1.309-1.597-1.59 5.213-.872-5.284.011 1.308-1.834-1.589 1.597-.872-5.212.01 5.284-1.834-1.308 1.597 1.59-5.211.872z"/><path fill="#F8F9F7" d="M305.568 28.343l-1.047 1.47 1.274-1.28.697 4.173-.01-4.23 1.469 1.047-1.279-1.273 4.174-.698-4.231.01 1.047-1.469-1.273 1.278-.698-4.173.01 4.232-1.469-1.048 1.28 1.272-4.174.699zM197.549 70.396l-1.764 2.471 2.143-2.152 1.174 7.022-.016-7.12 2.471 1.764-2.151-2.143 7.022-1.174-7.119.016 1.763-2.472-2.142 2.152-1.176-7.022.017 7.119-2.472-1.762 2.152 2.141-7.023 1.175z"/><path fill="#76C6EA" d="M148.449 61.44l-1.322 1.856 1.607-1.615.881 5.27-.011-5.344 1.855 1.324-1.615-1.609 5.271-.881-5.344.012 1.323-1.855-1.608 1.615-.882-5.271.013 5.344-1.855-1.323 1.615 1.607-5.272.882z"/><path fill="#45B3E5" d="M90.437 36.344c-22.743-.756-16.331-2.816-37.386.329H39.719c-2.424 1.034-3.91 2.425-3.91 3.956 0 .448 6.619.765 15.971.951l-.57.125c.441-.039.886-.075 1.328-.11.974.018 1.972.035 2.995.05-2.497.2-4.675.796-6.969 1.266l4.385-.242c3.206-.244 6.13-.54 9.033-.883-.357.534-.583.965-.756 1.329.013-.07.576-.619 1.396-1.386 1.217.011 2.449.02 3.694.026-.002.005-.007.017-.005.019l.066.083.033.042-.099.748c.089-.183.24-.499.426-.889 3.205.017 6.481.023 9.738.019-.102.015-.202.033-.305.049 2.765.017 5.826.048 8.45.088a26.85 26.85 0 0 1 5.817-5.57z"/><path fill="#6CC2E9" d="M58.545 31.122a65.421 65.421 0 0 1 1.665-.268c-7.398-.046-12.663.009-1.665.268z"/><path fill="#F6F9FC" d="M89.806 20.501a26.553 26.553 0 0 0-15.33 4.85 26.839 26.839 0 0 0-5.816 5.568 26.548 26.548 0 0 0-5.537 16.26c0 14.731 11.949 26.678 26.684 26.678 14.731 0 26.678-11.947 26.678-26.678s-11.948-26.678-26.679-26.678z"/><path fill="#F6F9FC" d="M89.806 20.501a26.553 26.553 0 0 0-15.33 4.85 26.839 26.839 0 0 0-5.816 5.568 26.548 26.548 0 0 0-5.537 16.26c0 .36.013.717.028 1.073.835.065.725.106.003.128l.001.074 1.599.01c.128-.472.23-.854.292-1.076l-.068.905.022.052.046.1a.074.074 0 0 1-.004.023c.853.008 1.696.019 2.528.032.561-.929.947-1.593.955-1.678-.118.44-.272.961-.518 1.609a84.707 84.707 0 0 1 6.182-1.07l3.001-.293c-1.57.569-3.061 1.29-4.77 1.532.7.018 1.384.039 2.05.061.304-.043.607-.087.91-.134l-.392.151c6.4.225 10.931.609 10.931 1.152 0 1.852-1.018 3.536-2.676 4.788h-9.125c-4.582 1.21-7.259 1.783-9.283 1.973 3.808 10.087 13.549 17.267 24.97 17.267 14.731 0 26.678-11.947 26.678-26.678s-11.946-26.679-26.677-26.679z"/><path fill="#3DB0E4" d="M58.09 48.442c.068-.018.139-.041.208-.059-3.672-.04-8.11-.145-9.63-.266l-3.166.517c-7.099.217-12.268.616-12.268 1.196 0 1.852 1.017 3.536 2.675 4.788h7.462l-1.095.154c16.525.354 17.48 2.294 22.56 1.818a26.575 26.575 0 0 1-1.682-8.137 656.23 656.23 0 0 0-5.064-.011z"/><path fill="#C8E7F6" d="M83.244 54.618c1.658-1.252 2.676-2.936 2.676-4.788 0-.543-4.53-.927-10.931-1.152l.392-.151c-.303.047-.606.091-.91.134-.666-.022-1.35-.043-2.05-.061 1.709-.243 3.199-.963 4.77-1.532l-3.001.293a85.44 85.44 0 0 0-6.182 1.07c.245-.647.399-1.169.518-1.609-.008.085-.395.749-.955 1.678-.832-.013-1.676-.023-2.528-.032a.074.074 0 0 0 .004-.023l-.047-.1-.023-.051.068-.905c-.062.221-.164.604-.292 1.076l-1.599-.01c.135 2.853.72 5.587 1.682 8.137 2.024-.19 4.701-.762 9.283-1.973h9.125z"/><path fill="#C8E7F6" d="M85.755 51.089c-1.604.251-2.511.532-2.511.846 0 .821.122 1.621.348 2.395 1.084-.912 1.848-2.019 2.163-3.241z"/><path fill="#F6F9FC" d="M99.012 72.225c.056-.021.109-.044.164-.065-1.941 0-3.881-.009-5.79-.03-.146.663-.265 1.2-.335 1.511l.078-1.272-.026-.071-.053-.14c-.002-.004.003-.023.004-.033-.98-.011-1.951-.026-2.91-.044a95.046 95.046 0 0 0-.853 1.764c.171.003.342.013.515.013 2.815 0 5.528-.439 8.077-1.249-5.682-.321-3.256-.417 1.129-.384zM82.2 71.854a61.9 61.9 0 0 0-1.046.188l.449-.213c-.786-.034-1.541-.07-2.273-.109a26.69 26.69 0 0 0 2.749.997c.8-.336 1.613-.627 2.48-.777-.805-.025-1.592-.055-2.359-.086zM84.5 73.328c1.52.307 3.086.478 4.687.514.117-.489.254-1.021.453-1.665a83.754 83.754 0 0 1-5.14 1.151z"/><path fill="#48B4E5" d="M70.422 65.501c-.887 1.4-1.398 3.002-1.398 4.71 0 .681 4.167 1.184 10.307 1.509a26.717 26.717 0 0 1-8.909-6.219z"/><path fill="#76C6EA" d="M97.883 72.609c.488.027 1.013.056 1.623.087.437-.167.874-.311 1.312-.452-.627-.008-1.231-.015-1.806-.019-.371.137-.749.263-1.129.384z"/><path fill="#48B4E5" d="M126.587 63.485h-8.59l1.262-.217c-3.07-.08-5.655-.22-7.888-.393a26.754 26.754 0 0 1-12.195 9.285c.628 0 1.255.003 1.881.001-.08.025-.16.057-.239.083 4.227.058 9.334.204 11.084.375l3.644-.727c8.172-.305 14.12-.865 14.12-1.68-.001-2.603-1.171-4.967-3.079-6.727z"/><path fill="#76C6EA" d="M97.883 72.609c.38-.121.758-.247 1.129-.384-4.385-.033-6.811.063-1.129.384z"/><path fill="#CEE9F6" d="M93.054 72.125c-.001.009-.006.029-.004.033l.053.14.026.071-.078 1.272c.07-.311.189-.849.335-1.511 1.909.021 3.849.029 5.79.03a26.747 26.747 0 0 0 12.195-9.285c-17.105-1.325-12.395-4.671-28.767.609h-10.5a10.097 10.097 0 0 0-1.682 2.017 26.748 26.748 0 0 0 8.908 6.219c.732.039 1.487.075 2.273.109l-.449.213a61.9 61.9 0 0 1 1.046-.188c.767.031 1.554.06 2.359.085-.867.15-1.681.441-2.48.777.793.239 1.6.446 2.421.611a84.504 84.504 0 0 0 5.14-1.15 25.516 25.516 0 0 0-.453 1.665l.104.002c.194-.42.49-1.029.853-1.764.959.019 1.929.034 2.91.045z"/><path fill="#CEE9F6" d="M93.054 72.125c-.001.009-.006.029-.004.033l.053.14.026.071-.078 1.272c.07-.311.189-.849.335-1.511 1.909.021 3.849.029 5.79.03a26.747 26.747 0 0 0 12.195-9.285c-17.105-1.325-12.395-4.671-28.767.609h-10.5a10.097 10.097 0 0 0-1.682 2.017 26.748 26.748 0 0 0 8.908 6.219c.732.039 1.487.075 2.273.109l-.449.213a61.9 61.9 0 0 1 1.046-.188c.767.031 1.554.06 2.359.085-.867.15-1.681.441-2.48.777.793.239 1.6.446 2.421.611a84.504 84.504 0 0 0 5.14-1.15 25.516 25.516 0 0 0-.453 1.665l.104.002c.194-.42.49-1.029.853-1.764.959.019 1.929.034 2.91.045z"/><path fill="#CEE9F6" d="M93.054 72.125c-.001.009-.006.029-.004.033l.053.14.026.071-.078 1.272c.07-.311.189-.849.335-1.511 1.909.021 3.849.029 5.79.03a26.747 26.747 0 0 0 12.195-9.285c-17.105-1.325-12.395-4.671-28.767.609h-10.5a10.097 10.097 0 0 0-1.682 2.017 26.748 26.748 0 0 0 8.908 6.219c.732.039 1.487.075 2.273.109l-.449.213a61.9 61.9 0 0 1 1.046-.188c.767.031 1.554.06 2.359.085-.867.15-1.681.441-2.48.777.793.239 1.6.446 2.421.611a84.504 84.504 0 0 0 5.14-1.15 25.516 25.516 0 0 0-.453 1.665l.104.002c.194-.42.49-1.029.853-1.764.959.019 1.929.034 2.91.045z"/><path fill="#45B3E5" d="M141.589 40.566h-4.152l1.79-.127c-11.334-.123-18.188-.476-22.937-.816l.05.08a172.61 172.61 0 0 1-.951-.084 26.513 26.513 0 0 1 1.063 6.287c1.252.01 2.517.021 3.759.036-.018-.056-.038-.109-.056-.164 3.746.042 7.092.099 8.624.16l5.173-.428c2.972-.046 5.736-.102 8.203-.167l-.566-4.777z"/><path fill="#A6D9F1" d="M112.892 46.156a62.382 62.382 0 0 1 1.643-.267 730.355 730.355 0 0 0-4.186-.014c-4.675 0-6.17.076 2.543.281z"/><path fill="#A6D9F1" d="M91.436 40.739H78.104c-2.424 1.034-3.909 2.425-3.909 3.956 0 .448 6.619.765 15.97.951l-.57.125c.442-.039.887-.075 1.329-.111.974.019 1.972.036 2.995.051-2.497.2-4.675.796-6.969 1.266l4.385-.242c3.206-.245 6.13-.54 9.033-.883a9.855 9.855 0 0 0-.747 1.309c.078-.123.62-.649 1.387-1.367 1.216.011 2.448.02 3.693.026l-.004.019.066.083.033.042-.099.748.426-.889c2.532.013 5.109.02 7.687.02l2.052-.001-.327.048 1.917.015a26.513 26.513 0 0 0-1.063-6.287c-3.46-.311-5.584-.571-8.152-.571-3.271 0-7.289.421-15.801 1.692z"/><g fill="#387EB6"><path d="M47.805 278.776V167.282h-4.67l-.151-13.28-4.247.073c-3.805-7.419-10.445-12.343-18.004-12.424l-.046-2.224-1.17-58.162-.38 58.162-.016 2.288c-7.303.591-13.583 5.65-17.121 12.995l-2 .034V283.5h47.805v-4.724zM107.646 94.95H90.733l-.4-29.526-.661-54.2-1.396 54.183-.792 29.543H70.246v11.713h-8.659V283.5h54.727V106.663h-8.668zM190.446 278.776v4.724h90.857V144.394h-90.857zM335.304 155.665c0-10.141-8.108-18.368-18.192-18.596l-.291-24.58-.531-49.872-1.117 49.852-.572 24.703c-9.294 1.04-16.521 8.918-16.521 18.493 0 .535.035 1.061.078 1.584h-9.535V283.5h56.13V157.249h-9.527c.039-.523.078-1.049.078-1.584zM135.338 113.89h47.04V283.5h-47.04z"/></g><g fill="#2D6592"><path d="M0 207.242h57.755V283.5H0zM344.751 207.242H360V283.5h-15.249zM297.041 220.87h39.291v62.63h-39.291zM78.769 176.896l-.349-30.169-.735 30.16-.582 22.958h-9.27V283.5h84.941v-83.655H79.063zM281.355 206.802h-18.139v12.489h-59.634V283.5h84.941v-64.209h-7.168z"/></g><path fill="#1F4564" d="M310.192 251.75v-20.515h-42.223v46.845h-1.699v-40.158h-41.024v40.158h-17.175v-25.728h-65.247v14.36h-11.025v11.368h-4.907v-46.845H111.06v-4.987H72.364v4.987H56.528v46.845H52.66v-46.845H11.736v20.515H1.625v31.75H360v-31.75z"/><path fill="#016081" d="M0 283h360v35H0z"/><path fill="#3AA9AE" d="M0 318h360v42H0z"/><g fill="#016081"><path d="M41.528 332.267c0-.704-17.784-1.293-41.528-1.438v2.879c23.745-.145 41.528-.734 41.528-1.441zM72.422 321.158c0-1.646-29.256-2.981-65.34-2.981-2.394 0-4.756.006-7.083.018v5.937c2.326.012 4.689.018 7.083.018 36.085-.002 65.34-1.339 65.34-2.992zM43.612 352.792c-15.832 0-30.037.194-39.723.503.203.655.4 1.31.605 1.966 9.67.292 23.613.479 39.117.479 29.188 0 52.852-.66 52.852-1.476.001-.813-23.663-1.472-52.851-1.472zM273.316 339.912c-9.636-.284-23.275-.462-38.412-.462-15.832 0-30.037.194-39.723.503.203.655.4 1.31.605 1.966 9.67.292 23.613.479 39.117.479 15.079 0 28.674-.177 38.303-.459 11.401.28 27.55.459 45.476.459 15.843 0 30.3-.14 41.317-.368v-2.211c-11.018-.229-25.475-.368-41.317-.368-17.869-.001-33.974.176-45.366.461zM59.121 326.008c.739.655 1.456 1.31 2.2 1.966 35.129.292 85.784.479 142.106.479 64.612 0 121.774-.245 156.573-.621v-1.706c-34.799-.375-91.961-.62-156.573-.62-57.515-.001-109.12.193-144.306.502zM120.259 347.502c-10.226 0-19.4.194-25.656.503.131.655.259 1.31.391 1.966 6.246.292 15.251.479 25.265.479 18.852 0 34.136-.66 34.136-1.476 0-.813-15.285-1.472-34.136-1.472z"/></g><g fill="#3AA9AE"><path d="M141.43 308.355c0-.813-43.936-1.472-98.127-1.472A5959.3 5959.3 0 0 0 0 307.034v2.645c13.064.097 27.753.151 43.303.151 54.191.001 98.127-.659 98.127-1.475zM214.737 321.899c59.892 0 108.45-1.114 108.45-2.491 0-1.373-48.559-2.486-108.45-2.486-32.487 0-61.636.329-81.511.85.417 1.106.821 2.212 1.242 3.32 19.844.493 48.455.807 80.269.807zM249.771 289.449c.417.655.821 1.31 1.242 1.966 19.843.292 48.454.479 80.269.479 9.943 0 19.57-.019 28.719-.053v-2.842a7747.89 7747.89 0 0 0-28.719-.053c-32.488 0-61.636.195-81.511.503zM78.463 301.73c0-.813-23.664-1.472-52.852-1.472-9.296 0-18.023.067-25.612.186v2.577c7.589.117 16.315.185 25.612.185 29.188 0 52.852-.66 52.852-1.476zM86.154 290.926c-28.508 0-54.558.09-74.418.238l.95 1.467c19.742.145 45.405.231 73.469.23 62.318 0 112.844-.432 112.844-.968s-50.527-.967-112.845-.967zM246.053 307.73c.435.655.857 1.31 1.296 1.966 20.699.292 50.546.479 83.732.479 9.997 0 19.687-.017 28.919-.049v-2.85c-9.232-.032-18.921-.049-28.919-.049-33.889.001-64.296.195-85.028.503z"/></g><g><path fill="#9E735A" d="M204.229 134.071c0 2.242-2.241 4.486-4.484 4.486h-42.047c-2.242 0-4.486-2.244-4.486-4.486V88.662c0-2.241 2.244-4.483 4.486-4.483h42.047c2.243 0 4.484 2.242 4.484 4.483v45.409z"/><path fill="#7F5B42" d="M153.775 88.662c0-2.241 2.242-4.483 4.484-4.483h42.043c2.246 0 4.489 2.242 4.489 4.483v45.409c0 2.242-2.243 4.486-4.489 4.486"/><path fill="#7F5B42" d="M216.561 286.559c0 1.685-1.678 3.363-3.361 3.363h-67.273c-1.683 0-3.365-1.679-3.365-3.363v-174.35c0-1.682 1.682-3.364 3.365-3.364H213.2c1.684 0 3.361 1.682 3.361 3.364v174.35z"/><path fill="#70513C" d="M213.199 285.436l3.362 3.366v-82.409l-3.362-3.366z"/><path fill="#997153" d="M216.561 356.634c0 1.681-1.678 3.366-3.361 3.366h-67.273c-1.683 0-3.365-1.686-3.365-3.366V182.285c0-1.682 1.682-3.364 3.365-3.364H213.2c1.684 0 3.361 1.682 3.361 3.364v174.349z"/><path fill="#845E44" d="M213.199 178.921c1.684 0 3.361 1.682 3.361 3.364v174.349c0 1.681-1.678 3.366-3.361 3.366"/><path fill="#BC8F71" d="M145.926 360c-1.683 0-3.365-1.686-3.365-3.366V182.285c0-1.682 1.682-3.364 3.365-3.364"/><path fill="#7F5B42" d="M145.926 178.921l-3.364 3.924v31.396l73.999 74.561v-82.409l-26.904-27.472z"/><g><path fill="#9E7B64" d="M153.212 349.908c0 .562-.557 1.122-1.122 1.122-.556 0-1.122-.561-1.122-1.122v-138.47c0-.56.566-1.123 1.122-1.123.565 0 1.122.563 1.122 1.123v138.47z"/><path fill="#70513C" d="M153.212 225.451v-14.013c0-.56-.557-1.123-1.122-1.123-.556 0-1.122.563-1.122 1.123v11.773l2.244 2.24z"/><path fill="#9E7B64" d="M161.062 349.908c0 .562-.559 1.122-1.124 1.122-.556 0-1.118-.561-1.118-1.122v-138.47c0-.56.562-1.123 1.118-1.123.564 0 1.124.563 1.124 1.123v138.47z"/><path fill="#9E7B64" d="M161.062 349.908c0 .562-.559 1.122-1.124 1.122-.556 0-1.118-.561-1.118-1.122v-138.47c0-.56.562-1.123 1.118-1.123.564 0 1.124.563 1.124 1.123v138.47zM168.911 349.908c0 .562-.562 1.122-1.12 1.122-.563 0-1.123-.561-1.123-1.122v-138.47c0-.56.559-1.123 1.123-1.123.558 0 1.12.563 1.12 1.123v138.47z"/><g fill="#70513C"><path d="M168.911 240.59v-29.711c0-.563-.562-1.123-1.12-1.123-.563 0-1.123.56-1.123 1.123v27.468l2.243 2.243zM161.062 233.3v-21.861c0-.56-.559-1.123-1.124-1.123-.556 0-1.118.563-1.118 1.123v19.62l2.242 2.241z"/></g><path fill="#9E7B64" d="M176.762 349.908c0 .562-.563 1.122-1.123 1.122-.561 0-1.122-.561-1.122-1.122v-138.47c0-.56.561-1.123 1.122-1.123s1.123.563 1.123 1.123v138.47z"/><path fill="#70513C" d="M176.762 248.438v-37.559c0-.563-.563-1.123-1.123-1.123-.561 0-1.122.56-1.122 1.123v35.316l2.245 2.243z"/><path fill="#9E7B64" d="M184.609 349.908c0 .562-.566 1.122-1.12 1.122-.564 0-1.123-.561-1.123-1.122v-138.47c0-.56.559-1.123 1.123-1.123.554 0 1.12.563 1.12 1.123v138.47z"/><path fill="#70513C" d="M184.609 256.287v-45.408c0-.563-.566-1.123-1.12-1.123-.564 0-1.123.56-1.123 1.123v43.165l2.243 2.243z"/><path fill="#9E7B64" d="M192.455 349.908c0 .562-.561 1.122-1.119 1.122-.561 0-1.123-.561-1.123-1.122v-138.47c0-.56.563-1.123 1.123-1.123.559 0 1.119.563 1.119 1.123v138.47z"/><path fill="#70513C" d="M191.336 210.315c-.561 0-1.123.563-1.123 1.123v51.016l2.242 2.241v-52.698c0-1.118-.56-1.682-1.119-1.682z"/><path fill="#9E7B64" d="M200.302 349.908c0 .562-.557 1.122-1.115 1.122-.561 0-1.121-.561-1.121-1.122v-138.47c0-.56.561-1.123 1.121-1.123.559 0 1.115.563 1.115 1.123v138.47z"/><path fill="#70513C" d="M199.187 210.315c-.561 0-1.121.563-1.121 1.123v58.863l2.236 2.242v-61.105c0-.559-.557-1.123-1.115-1.123z"/><path fill="#9E7B64" d="M208.153 349.908c0 .562-.563 1.122-1.121 1.122-.563 0-1.12-.561-1.12-1.122v-138.47c0-.56.558-1.123 1.12-1.123.559 0 1.121.563 1.121 1.123v138.47z"/><path fill="#70513C" d="M207.032 210.315c-.563 0-1.12.563-1.12 1.123v66.709l2.241 2.246v-68.955c0-.559-.562-1.123-1.121-1.123z"/></g><g fill="#1F4564"><path d="M218.248 251.8c0 1.124-1.124 2.244-2.242 2.244h-72.882c-1.125 0-2.247-1.12-2.247-2.244 0-1.121 1.122-2.243 2.247-2.243h72.882c1.118 0 2.242 1.122 2.242 2.243zM218.248 262.454c0 1.119-1.124 2.241-2.242 2.241h-72.882c-1.125 0-2.247-1.122-2.247-2.241 0-1.121 1.122-2.243 2.247-2.243h72.882c1.118 0 2.242 1.122 2.242 2.243zM218.248 313.467c0 1.121-1.124 2.243-2.242 2.243h-72.882c-1.125 0-2.247-1.122-2.247-2.243 0-1.12 1.122-2.24 2.247-2.24h72.882c1.118 0 2.242.558 2.242 2.24zM218.248 323.559c0 1.123-1.124 2.241-2.242 2.241h-72.882c-1.125 0-2.247-1.118-2.247-2.241 0-1.118 1.122-2.242 2.247-2.242h72.882c1.118-.001 2.242 1.123 2.242 2.242z"/></g><g><path fill="#AF8366" d="M216.108 198.889c0 2.451-1.818 4.411-4.087 4.411h-65.373c-2.27 0-4.087-1.96-4.087-4.411v-71.058c0-2.451 1.817-4.411 4.087-4.411h65.823c2.273 0 4.088 1.96 4.088 4.411v71.058h-.451z"/><path fill="#9E735A" d="M142.562 127.831c0-2.451 1.817-4.411 4.087-4.411h65.823c2.273 0 4.088 1.96 4.088 4.411v71.058c0 2.451-1.814 4.411-4.088 4.411"/><path fill="#997153" d="M216.108 198.889c0 2.451-1.818 4.411-4.087 4.411h-65.373c-2.27 0-4.087-1.96-4.087-4.411"/></g><path fill="#1F4564" d="M219.365 110.119c0 1.565-.562 3.122-1.117 3.122h-76.809c-.563 0-1.121-1.557-1.121-3.122 0-1.563.558-3.119 1.121-3.119h76.242c.567 0 1.684 1.555 1.684 3.119z"/><g fill="#3AA9AE"><path d="M155.456 119.564c0 .501-.559 1-1.123 1-.558 0-1.121-.499-1.121-1v-3.5c0-.499.563-1 1.121-1 .564 0 1.123.501 1.123 1v3.5zM167.791 119.564c0 .501-.563 1-1.123 1-.561 0-1.122-.499-1.122-1v-3.5c0-.499.562-1 1.122-1 .559 0 1.123.501 1.123 1v3.5zM180.684 119.564c0 .501-.562 1-1.124 1-.558 0-1.119-.499-1.119-1v-3.5c0-.499.561-1 1.119-1 .562 0 1.124.501 1.124 1v3.5zM193.02 119.564c0 .501-.564 1-1.125 1-.559 0-1.119-.499-1.119-1v-3.5c0-.499.561-1 1.119-1 .561 0 1.125.501 1.125 1v3.5zM205.912 119.564c0 .501-.563 1-1.121 1-.562 0-1.125-.499-1.125-1v-3.5c0-.499.563-1 1.125-1 .559 0 1.121.501 1.121 1v3.5zM147.607 115.064c-.561 0-1.123.501-1.123 1v3.5c0 .501.562 1 1.123 1 .56 0 1.121-.499 1.121-1v-3.5c.001-.499-.561-1-1.121-1M160.502 115.064c-.564 0-1.12.501-1.12 1v3.5c0 .501.556 1 1.12 1 .559 0 1.12-.499 1.12-1v-3.5c0-.499-.56-1-1.12-1M173.394 115.064c-.558 0-1.119.501-1.119 1v3.5c0 .501.562 1 1.119 1 .563 0 1.124-.499 1.124-1v-3.5c0-.499-.561-1-1.124-1M185.729 115.064c-.564 0-1.12.501-1.12 1v3.5c0 .501.556 1 1.12 1 .558 0 1.122-.499 1.122-1v-3.5c.001-.499-.564-1-1.122-1M198.626 115.064c-.561 0-1.126.501-1.126 1v3.5c0 .501.565 1 1.126 1s1.119-.499 1.119-1v-3.5c0-.499-.558-1-1.119-1M210.956 115.064c-.56 0-1.121.501-1.121 1v3.5c0 .501.562 1 1.121 1s1.122-.499 1.122-1v-3.5c0-.499-.562-1-1.122-1"/></g><g><circle fill="#EDEADA" stroke="#1F4564" stroke-width="3.913" cx="179.561" cy="163.36" r="28.366"/><path fill="#DBD6C1" d="M207.927 163.36c0-15.667-12.699-28.366-28.366-28.366-8.347 0-15.85 3.605-21.041 9.343l39.34 40.691c6.156-5.205 10.067-12.978 10.067-21.668z"/><path fill="#EDEADA" d="M158.52 144.336a28.264 28.264 0 0 0-7.326 19.023c0 15.667 12.7 28.366 28.366 28.366a28.25 28.25 0 0 0 18.3-6.698l-39.34-40.691z"/><g><g fill="#1F4564"><path d="M179.56 136.462v1.577M176.75 136.608l.163 1.57M173.968 137.047l.326 1.545M171.247 137.777l.49 1.502M168.618 138.787l.645 1.442M166.113 140.066l.786 1.364M163.75 141.6l.928 1.276M161.56 143.368l1.06 1.177M159.572 145.36l1.173 1.056M157.797 147.55l1.279.928M156.266 149.91l1.368.79M154.987 152.418l1.442.645M153.977 155.047l1.502.489M153.25 157.768l1.542.326M152.808 160.55l1.573.163M152.662 163.36h1.577M152.808 166.173l1.573-.167M153.25 168.951l1.542-.326M153.977 171.672l1.502-.489M154.987 174.301l1.442-.645M156.266 176.81l1.368-.79M157.797 179.17l1.279-.928M159.572 181.36l1.173-1.056M161.56 183.351l1.06-1.173M163.75 185.123l.928-1.28M166.113 186.653l.786-1.364M168.618 187.932l.645-1.442M171.247 188.942l.49-1.502M173.968 189.669l.326-1.542M176.75 190.112l.163-1.57M179.56 190.26v-1.58M182.373 190.112l-.166-1.57M185.155 189.669l-.33-1.542M187.872 188.942l-.489-1.502M190.501 187.932l-.64-1.442M193.01 186.653l-.79-1.364M195.37 185.123l-.925-1.28M197.56 183.351l-1.056-1.173M199.551 181.36l-1.173-1.056M201.323 179.17l-1.28-.928M202.857 176.81l-1.368-.79M204.133 174.301l-1.439-.645M205.142 171.672l-1.502-.489M205.872 168.951l-1.545-.326M206.312 166.173l-1.57-.167M206.46 163.36h-1.58M206.312 160.55l-1.57.163M205.872 157.768l-1.545.326M205.142 155.047l-1.502.489M204.133 152.418l-1.439.645M202.857 149.91l-1.368.79M201.323 147.55l-1.28.928M199.551 145.36l-1.173 1.056M197.56 143.368l-1.056 1.177M195.37 141.6l-.925 1.276M193.01 140.066l-.79 1.364M190.501 138.787l-.64 1.442M187.872 137.777l-.489 1.502M185.155 137.047l-.33 1.545M182.373 136.608l-.166 1.57"/></g><g fill="#1F4564"><path d="M180.29 136.462l-.73 1.577-.702-1.577zM166.744 139.701l.155 1.73-1.396-1.014zM156.631 149.279l1.003 1.42-1.719-.18zM152.662 162.63l1.577.73-1.577.701zM155.901 176.176l1.733-.156-1.017 1.396zM165.479 186.292l1.42-1.003-.18 1.715zM178.83 190.26l.73-1.58.701 1.58zM192.38 187.022l-.16-1.733 1.396 1.017zM202.492 177.44l-1.003-1.42 1.719.18zM206.46 164.09l-1.58-.73 1.58-.702zM203.222 150.543l-1.733.156 1.017-1.396zM193.644 140.43l-1.424 1 .18-1.718z"/></g><g fill="#1F4564"><path d="M177.14 143.818l-.422 1.485c-.032.11-.053.209-.067.294a1.615 1.615 0 0 0-.022.266c0 .156.029.266.089.336.06.071.16.107.298.107h.035v.297h-1.13v-.297c.117-.014.223-.092.312-.238.092-.145.184-.379.276-.701l.546-1.864-.922-3.777h-.195v-.277h1.815v.277h-.294l.52 2.105.32-1.085c.031-.106.052-.202.07-.294.014-.092.021-.18.021-.266 0-.159-.028-.276-.088-.347-.06-.07-.16-.106-.294-.106h-.04v-.287h1.124v.287c-.113.014-.216.092-.308.237-.089.146-.185.38-.287.712l-.436 1.474 1.013 4.15h.177v.297h-1.817v-.297h.3l-.594-2.488zm2.193 2.785v-.297h.35v-6.584h-.35v-.276h1.828v.276h-.35v6.584h.35v.297h-1.828zm2.04 0v-.297h.355v-6.584h-.354v-.276h1.828v.276h-.35v6.584h.35v.297h-1.828zM168.579 147.135l.376 1.499c.028.11.06.209.088.287.032.081.071.16.117.24.078.135.16.217.245.249.088.032.19.014.308-.057l.028-.018.149.255-.978.567-.149-.258c.096-.071.146-.192.153-.365.007-.17-.029-.422-.11-.748l-.457-1.889-2.686-2.81-.17.096-.138-.24 1.57-.908.137.241-.255.145 1.506 1.563-.265-1.098a2.325 2.325 0 0 0-.086-.287 1.673 1.673 0 0 0-.113-.241c-.081-.139-.163-.227-.251-.255-.086-.032-.188-.015-.309.053l-.032.017-.141-.248.97-.56.146.249c-.092.07-.142.187-.146.357-.007.17.029.422.107.759l.358 1.495 2.951 3.086.156-.088.149.258-1.573.907-.15-.258.263-.153-1.768-1.842zm3.292 1.318l-.15-.259.306-.177-3.292-5.701-.305.177-.138-.24 1.584-.915.138.24-.305.175 3.292 5.7.305-.176.149.258-1.584.918zM162.45 153.913l1.073 1.11c.078.08.156.152.22.205.067.053.141.103.22.149.134.078.244.106.336.092.092-.014.17-.082.24-.202l.018-.032.259.149-.563.978-.259-.15c.046-.11.028-.237-.05-.389-.081-.152-.237-.35-.47-.592l-1.34-1.406-3.731-1.092-.1.17-.24-.138.907-1.57.24.139-.148.255 2.087.599-.78-.819a2.3 2.3 0 0 0-.22-.205 1.44 1.44 0 0 0-.22-.153c-.137-.081-.254-.113-.346-.095-.089.017-.17.085-.238.202l-.018.031-.248-.145.56-.97.248.145c-.046.106-.028.233.053.382.078.153.238.351.472.603l1.06 1.116 4.099 1.197.088-.152.259.149-.907 1.573-.259-.149.153-.262-2.456-.723zM162.803 165.819h-.297v-.355h-6.584v.355h-.276v-1.829h.276v.351h6.584v-.35h.297v1.828zm-2.785-3.104l1.485.421c.11.032.21.054.294.068.085.014.174.021.266.021.156 0 .27-.028.336-.089.071-.06.107-.159.107-.294v-.035h.297v1.13h-.297c-.014-.117-.092-.223-.238-.315-.145-.092-.379-.184-.701-.277l-1.864-.545-3.777.921v.195h-.277v-1.814h.277v.294l2.105-.521-1.085-.319a1.748 1.748 0 0 0-.56-.092c-.163 0-.276.028-.347.089-.07.06-.106.155-.106.294v.039h-.287v-1.124h.287c.014.114.092.217.237.309.146.088.38.184.709.287l1.474.439 4.15-1.013v-.178h.297v1.818h-.298v-.301l-2.484.592zM166.396 174.071l.309.532-5.446 4.33.113.194-.241.139-.879-1.524.241-.138.192.333 3.681-2.934-3.554 1.378-.184.078a2.91 2.91 0 0 0-.149.075.852.852 0 0 0-.298.248.255.255 0 0 0-.017.251l-.241.138-.38-.659.242-.138.01.021c.036.064.124.086.27.064.141-.021.36-.088.662-.202l5.67-2.186zm-.648-1.127l-.259.15-.177-.306-5.701 3.292.177.305-.24.138-.915-1.584.24-.138.178.305 5.701-3.292-.177-.305.259-.149.914 1.584zm-1.024-1.768l-.259.149-.177-.305-5.701 3.292.177.305-.24.138-.915-1.58.237-.139.177.305 5.702-3.292-.174-.304.259-.15.914 1.581zm-1.02-1.771l-.26.148-.176-.304-5.702 3.291.178.305-.241.138-.915-1.58.241-.138.178.304 5.7-3.291-.173-.305.259-.149.91 1.58zM172.629 178.706l.532.308-2.548 6.474.195.113-.138.24-1.524-.878.138-.24.33.19 1.722-4.379-2.388 2.973c-.043.057-.086.106-.121.16-.035.049-.064.095-.089.138-.085.148-.13.272-.134.368a.263.263 0 0 0 .11.227l-.139.237-.659-.379.139-.237.02.01c.065.036.153.01.263-.081.113-.092.27-.259.471-.507l3.82-4.737zm-1.123-.649l-.149.259-.305-.177-3.291 5.701.304.177-.138.241-1.584-.914.138-.241.305.174 3.292-5.702-.305-.173.149-.259 1.584.914zm-1.772-1.02l-.149.258-.304-.177-3.292 5.701.305.178-.139.24-1.583-.914.138-.24.304.173 3.292-5.701-.305-.174.15-.258 1.583.914zM180.208 180.116h.613l1.028 6.881h.223v.28h-1.758v-.28h.383l-.698-4.656-.581 3.767c-.01.07-.018.134-.025.198-.007.06-.007.117-.007.167 0 .17.021.297.067.382a.25.25 0 0 0 .21.142v.28h-.762v-.28h.024c.075 0 .135-.067.188-.198.053-.135.103-.358.156-.677l.94-6.006zm-1.297 0v.298h-.35v6.583h.35v.28h-1.828v-.28h.35v-6.583h-.35v-.298h1.828zM187.614 178.057l.531-.308 4.33 5.446.195-.113.138.24-1.523.88-.139-.242.333-.19-2.933-3.682 1.378 3.554c.025.067.053.127.078.184.025.053.05.103.074.145.085.149.17.248.252.301.081.05.163.057.251.018l.139.237-.66.383-.138-.24.022-.012c.063-.035.085-.127.06-.269a3.621 3.621 0 0 0-.202-.662l-2.186-5.67zM195.232 169.73l.258.15-.177.304 5.701 3.292.178-.305.24.138-.914 1.584-.24-.138.173-.305-5.701-3.292-.177.305-.259-.149.918-1.583zm-1.857 3.218l.308-.532 6.474 2.552.113-.195.241.138-.878 1.523-.241-.138.19-.333-4.379-1.722 2.973 2.388c.057.043.11.085.16.12.05.036.095.065.138.09.149.084.273.13.365.134a.26.26 0 0 0 .227-.11l.24.138-.379.66-.24-.139.01-.021c.036-.064.007-.149-.081-.262-.089-.114-.259-.27-.507-.471l-4.734-3.82zM196.316 160.482h.298v.351h6.583v-.35h.276v1.828h-.276v-.351h-6.583v.35h-.298v-1.828zm0 2.045h.298v.35h6.583v-.35h.276v1.828h-.276v-.35h-6.583v.35h-.298v-1.828zm0 2.04h.298v.352h6.583v-.351h.276v1.828h-.276v-.35h-6.583v.35h-.298v-1.828zM193.145 153.375l.258-.15.178.306 5.7-3.292-.176-.305.24-.138.915 1.58-.241.138-.177-.304-5.702 3.291.178.305-.26.149-.913-1.58zm1.02 1.768l.255-.15.178.306 5.7-3.292-.173-.305.237-.138.915 1.58-.241.138-.174-.304-5.701 3.291.177.305-.259.149-.914-1.58zM187.217 148.432l.149-.259.304.177 3.292-5.701-.305-.177.139-.238 1.583.915-.141.237-.302-.174-3.291 5.702.3.173-.148.259z"/></g><path fill="#1F4564" d="M179.56 168.466l-.77-1.294.348-3.812-.337-3.948.454-14.573H179v-.805h.315l-.393-3.2.638-3.185.641 3.186-.393 3.2h.315v.804h-.255l.454 14.573-.34 3.948.347 3.812z"/><path fill="#1F4564" d="M179.56 168.466l-.77-1.294.348-3.812-.337-3.948.454-6.186H179v-.808h.315l-.393-3.196.638-3.19.641 3.19-.393 3.196h.315v.808h-.255l.454 6.186-.34 3.948.347 3.812z"/><circle cy="271.724" cx="-20.704" fill="#5D657B" r=".352" transform="matrix(3.5433 0 0 3.5433 252.92 -799.442)"/></g></g><g><path fill="#96BCBC" d="M146.377 86.969h65.251l-32.625-70.064z"/><path fill="#9EC6C6" d="M160.814 86.969h36.376l-18.187-70.064z"/></g><g><path fill="#3F607A" d="M197.19 86.969h-36.375l-.877 3.375h38.128z"/><path fill="#1F4564" d="M213.076 90.08l-1.448-3.11H197.19l.876 3.375h14.813a.662.662 0 0 0 .197-.265zM146.377 86.969l-1.082 2.324-.318.683c.057.174.135.306.238.368h14.724l.876-3.375h-14.438z"/></g></g><path fill="#FFF" d="M344.532 342.527c-.019-2.099 1.721-3.121 1.799-3.168-.983-1.436-2.509-1.63-3.045-1.646-1.283-.135-2.525.767-3.179.767-.665 0-1.67-.755-2.754-.732-1.394.021-2.699.829-3.414 2.082-1.477 2.556-.374 6.312 1.039 8.376.708 1.012 1.534 2.142 2.616 2.101 1.059-.042 1.454-.674 2.732-.674 1.266 0 1.637.674 2.74.65 1.137-.019 1.852-1.017 2.535-2.037.817-1.16 1.146-2.302 1.158-2.361-.023-.008-2.203-.841-2.227-3.358zm-2.084-6.173c.57-.712.959-1.681.851-2.663-.823.036-1.854.569-2.447 1.267-.525.613-.995 1.619-.875 2.565.926.068 1.877-.469 2.471-1.169z"/></svg>