<svg xmlns="http://www.w3.org/2000/svg" width="640" height="360" viewBox="0 0 640 360"><path fill="#fff" d="M0 0h640v360H0z"/><path d="M40 359.75c-21.918 0-39.75-17.831-39.75-39.749v-280C.25 18.082 18.082.25 40 .25h560.001c21.918 0 39.749 17.832 39.749 39.751v280c0 21.918-17.831 39.749-39.749 39.749H40z" fill="#f8f8f8"/><path d="M600.001.5c21.78 0 39.499 17.72 39.499 39.501v280c0 21.78-17.719 39.499-39.499 39.499H40C18.22 359.5.5 341.781.5 320.001v-280C.5 18.22 18.219.5 40 .5h560.001m0-.5H40C18 0 0 18 0 40.001v280C0 342.001 18 360 40 360h560.001C622 360 640 341.999 640 320.001v-280C640 18 622 0 600.001 0z" fill="#95a5a6"/><circle cx="594" cy="180" r="24.667" fill="#f8f8f8" stroke="#7f8c8d" stroke-width=".5" stroke-miterlimit="10"/><g fill="#2b2b2b"><circle cx="54.666" cy="230.999" r="6"/><circle cx="25.333" cy="180" r="5.333"/><path d="M58 152.333v55.333c0 2-1.333 3.333-3.333 3.333s-3.333-1.333-3.333-3.333v-55.333c0-2 1.333-3.333 3.333-3.333 1.999 0 3.333 2 3.333 3.333z"/></g><path fill="#31669d" d="M79.5 25.302h481v307.665h-481z"/><path d="M560 25.802v306.665H80V25.802h480m1-1H79v308.665h482V24.802z" fill="#262626"/><path fill="#2980b9" d="M80 318.524h479.998v13.942H80z"/><path fill="#6171a1" d="M80 25.802h480v276.791H80z"/><path d="M550.297 255.217c0-42.018-35.262-76.082-78.758-76.082-43.498 0-78.76 34.064-78.76 76.082 0 15.991 5.118 30.832 13.846 43.081h129.829c8.728-12.249 13.843-27.09 13.843-43.081z" fill="#6477a7"/><path d="M546.549 261.967c0-40.012-33.58-72.449-75.002-72.449-41.419 0-74.995 32.438-74.995 72.449 0 13.238 3.679 25.649 10.101 36.331h129.792c6.423-10.682 10.104-23.093 10.104-36.331z" fill="#7e8fb0"/><path d="M529.271 269.674c0-31.066-25.186-56.25-56.25-56.25-31.065 0-56.25 25.184-56.25 56.25a55.959 55.959 0 0 0 7.83 28.624h96.839a55.999 55.999 0 0 0 7.831-28.624z" fill="#dae3d9"/><g><path fill="#394042" d="M202.672 204.945h30.772v79.5h-30.772z"/><path fill="#424a4c" d="M208.386 209.627h4.298v4.298h-4.298zM208.386 217.797h4.298v4.299h-4.298zM208.386 226.394h4.298v4.302h-4.298zM208.386 234.564h4.298v4.298h-4.298zM208.386 242.73h4.298v4.301h-4.298zM208.386 250.9h4.298v4.301h-4.298zM208.386 259.07h4.298v4.299h-4.298zM208.386 267.238h4.298v4.301h-4.298zM215.693 209.627h4.3v4.298h-4.3zM215.693 217.797h4.3v4.299h-4.3z"/><path fill="#d6ddcc" d="M215.693 226.394h4.3v4.302h-4.3z"/><path fill="#424a4c" d="M215.693 234.564h4.3v4.298h-4.3zM215.693 242.73h4.3v4.301h-4.3zM215.693 250.9h4.3v4.301h-4.3zM215.693 259.07h4.3v4.299h-4.3zM215.693 267.238h4.3v4.301h-4.3zM223.432 209.627h4.299v4.298h-4.299zM223.432 217.797h4.299v4.299h-4.299zM223.432 226.394h4.299v4.302h-4.299zM223.432 234.564h4.299v4.298h-4.299zM223.432 242.73h4.299v4.301h-4.299z"/><path fill="#d6ddcc" d="M223.432 250.9h4.299v4.301h-4.299z"/><path fill="#424a4c" d="M223.432 259.07h4.299v4.299h-4.299zM223.432 267.238h4.299v4.301h-4.299z"/><g><path fill="#394042" d="M131.721 194.627h30.771v79.5h-30.771z"/><path fill="#6477a7" d="M137.432 199.309h4.3v4.3h-4.3z"/><path fill="#424a4c" d="M137.432 207.479h4.3v4.299h-4.3zM137.432 216.075h4.3v4.302h-4.3zM137.432 224.243h4.3v4.301h-4.3zM137.432 232.414h4.3v4.298h-4.3zM137.432 240.584h4.3v4.299h-4.3zM137.432 248.75h4.3v4.301h-4.3zM137.432 256.922h4.3v4.297h-4.3zM144.741 199.309h4.3v4.3h-4.3zM144.741 207.479h4.3v4.299h-4.3zM144.741 216.075h4.3v4.302h-4.3z"/><path fill="#d6ddcc" d="M144.741 224.243h4.3v4.301h-4.3z"/><path fill="#424a4c" d="M144.741 232.414h4.3v4.298h-4.3zM144.741 240.584h4.3v4.299h-4.3zM144.741 248.75h4.3v4.301h-4.3zM144.741 256.922h4.3v4.297h-4.3zM152.479 199.309h4.301v4.3h-4.301zM152.479 207.479h4.301v4.299h-4.301zM152.479 216.075h4.301v4.302h-4.301zM152.479 224.243h4.301v4.301h-4.301zM152.479 232.414h4.301v4.298h-4.301zM152.479 240.584h4.301v4.299h-4.301zM152.479 248.75h4.301v4.301h-4.301zM152.479 256.922h4.301v4.297h-4.301z"/></g><g><path fill="#394042" d="M427.499 231.662h18.383v47.871h-18.383z"/><path fill="#424a4c" d="M430.886 235.734h2.579v2.578h-2.579zM430.886 240.634h2.579v2.579h-2.579zM430.886 245.794h2.579v2.581h-2.579zM430.886 250.695h2.579v2.58h-2.579zM430.886 255.598h2.579v2.577h-2.579zM430.886 260.498h2.579v2.58h-2.579zM430.886 265.397h2.579v2.581h-2.579zM430.886 270.301h2.579v2.578h-2.579zM435.27 235.734h2.581v2.578h-2.581z"/><path fill="#e1dca9" d="M435.27 240.634h2.581v2.579h-2.581z"/><path fill="#424a4c" d="M435.27 245.794h2.581v2.581h-2.581zM435.27 250.695h2.581v2.58h-2.581zM435.27 255.598h2.581v2.577h-2.581zM435.27 260.498h2.581v2.58h-2.581zM435.27 265.397h2.581v2.581h-2.581zM435.27 270.301h2.581v2.578h-2.581zM439.915 235.734h2.58v2.578h-2.58zM439.915 240.634h2.58v2.579h-2.58zM439.915 245.794h2.58v2.581h-2.58zM439.915 250.695h2.58v2.58h-2.58zM439.915 255.598h2.58v2.577h-2.58zM439.915 260.498h2.58v2.58h-2.58zM439.915 265.397h2.58v2.581h-2.58zM439.915 270.301h2.58v2.578h-2.58z"/></g><g><path fill="#394042" d="M405.419 227.549h23.696v61.719h-23.696z"/><path fill="#424a4c" d="M409.783 232.799h3.325v3.324h-3.325zM409.783 239.117h3.325v3.326h-3.325zM409.783 245.77h3.325v3.324h-3.325zM409.783 252.087h3.325v3.327h-3.325zM409.783 258.406h3.325v3.325h-3.325z"/><path fill="#d6ddcc" d="M409.783 264.728h3.325v3.327h-3.325z"/><path fill="#424a4c" d="M409.783 271.047h3.325v3.326h-3.325zM409.783 277.367h3.325v3.326h-3.325z"/><path fill="#e1dca9" d="M415.438 232.799h3.325v3.324h-3.325z"/><path fill="#424a4c" d="M415.438 239.117h3.325v3.326h-3.325zM415.438 245.77h3.325v3.324h-3.325zM415.438 252.087h3.325v3.327h-3.325zM415.438 258.406h3.325v3.325h-3.325zM415.438 264.728h3.325v3.327h-3.325zM415.438 271.047h3.325v3.326h-3.325zM415.438 277.367h3.325v3.326h-3.325z"/><path fill="#d6ddcc" d="M421.426 232.799h3.325v3.324h-3.325z"/><path fill="#424a4c" d="M421.426 239.117h3.325v3.326h-3.325zM421.426 245.77h3.325v3.324h-3.325zM421.426 252.087h3.325v3.327h-3.325zM421.426 258.406h3.325v3.325h-3.325zM421.426 264.728h3.325v3.327h-3.325zM421.426 271.047h3.325v3.326h-3.325zM421.426 277.367h3.325v3.326h-3.325z"/></g><g><path fill="#394042" d="M516.56 241.399h18.383v47.868H516.56z"/><path fill="#e1dca9" d="M519.944 245.471h2.581v2.579h-2.581z"/><path fill="#424a4c" d="M519.944 250.371h2.581v2.58h-2.581zM519.944 255.531h2.581v2.58h-2.581zM519.944 260.431h2.581v2.579h-2.581zM519.944 265.334h2.581v2.579h-2.581zM519.944 270.234h2.581v2.578h-2.581zM519.944 275.136h2.581v2.581h-2.581zM519.944 280.037h2.581v2.578h-2.581zM524.332 245.471h2.579v2.579h-2.579zM524.332 250.371h2.579v2.58h-2.579zM524.332 255.531h2.579v2.58h-2.579zM524.332 260.431h2.579v2.579h-2.579zM524.332 265.334h2.579v2.579h-2.579zM524.332 270.234h2.579v2.578h-2.579zM524.332 275.136h2.579v2.581h-2.579zM524.332 280.037h2.579v2.578h-2.579zM528.974 245.471h2.58v2.579h-2.58zM528.974 250.371h2.58v2.58h-2.58zM528.974 255.531h2.58v2.58h-2.58zM528.974 260.431h2.58v2.579h-2.58zM528.974 265.334h2.58v2.579h-2.58zM528.974 270.234h2.58v2.578h-2.58zM528.974 275.136h2.58v2.581h-2.58zM528.974 280.037h2.58v2.578h-2.58z"/></g><path fill="#424a4c" d="M494.604 252.169h18.381v47.87h-18.381z"/><path fill="#424a4c" d="M478.362 241.483h18.379v47.872h-18.379z"/><path fill="#424a4c" d="M463.83 247.041h18.379v47.868H463.83zM389.031 247.041h18.379v47.868h-18.379z"/><path fill="#424a4c" d="M330.477 259.007h63.258v33.768h-63.258zM88.122 230.371h18.38v47.868h-18.38zM279.606 252.169h18.379v47.87h-18.379z"/><path fill="#424a4c" d="M103.508 247.041h18.379v47.868h-18.379zM263.364 241.483h18.38v47.872h-18.38zM233.444 230.371h18.38v47.868h-18.38z"/><path fill="#424a4c" d="M248.831 247.041h18.38v47.868h-18.38zM174.035 247.041h18.376v47.868h-18.376z"/><path fill="#424a4c" d="M115.477 259.007h63.257v33.768h-63.257zM261.227 259.007h63.26v33.768h-63.26zM80 242.766h18.38v47.873H80z"/><g><path fill="#394042" d="M529.225 198.741H560v79.498h-30.775z"/><path fill="#424a4c" d="M534.94 207.533h4.297v4.301h-4.297zM534.94 215.705h4.297v4.297h-4.297zM534.94 224.305h4.297v4.299h-4.297zM534.94 232.471h4.297v4.301h-4.297zM534.94 240.641h4.297v4.297h-4.297zM534.94 248.809h4.297v4.301h-4.297zM534.94 256.979h4.297v4.299h-4.297zM534.94 265.15h4.297v4.297h-4.297zM542.249 207.533h4.298v4.301h-4.298z"/><path fill="#d6ddcc" d="M542.249 215.705h4.298v4.297h-4.298z"/><path fill="#424a4c" d="M542.249 224.305h4.298v4.299h-4.298zM542.249 232.471h4.298v4.301h-4.298zM542.249 240.641h4.298v4.297h-4.298z"/><path fill="#d6ddcc" d="M542.249 248.809h4.298v4.301h-4.298z"/><path fill="#424a4c" d="M542.249 256.979h4.298v4.299h-4.298zM542.249 265.15h4.298v4.297h-4.298zM549.983 207.533h4.301v4.301h-4.301z"/><path fill="#dddac0" d="M549.983 215.705h4.301v4.297h-4.301z"/><path fill="#424a4c" d="M549.983 224.305h4.301v4.299h-4.301zM549.983 232.471h4.301v4.301h-4.301zM549.983 240.641h4.301v4.297h-4.301zM549.983 248.809h4.301v4.301h-4.301zM549.983 256.979h4.301v4.299h-4.301zM549.983 265.15h4.301v4.297h-4.301z"/></g></g><g><path d="M201.487 138.33c-1.926 0-3.746.38-5.491.928-5.529-7.948-14.704-13.174-25.123-13.174-10.418 0-19.59 5.226-25.123 13.174-1.744-.548-3.563-.928-5.493-.928-10.144 0-18.37 8.226-18.37 18.369h97.975c-.004-10.149-8.228-18.369-18.375-18.369z" fill="#7281a9"/><path d="M248.671 134.203c-1.926 0-3.747.376-5.491.927-5.527-7.949-14.704-13.178-25.122-13.178-10.419 0-19.592 5.229-25.122 13.178-1.747-.551-3.567-.927-5.494-.927-10.144 0-18.369 8.221-18.369 18.365h97.972c-.001-10.147-8.227-18.365-18.374-18.365z" fill="#4d597f"/><path d="M440.34 141.246c0-14.385 11.662-26.042 26.046-26.042 2.172 0 4.25.343 6.263.843 6.796-7.341 16.429-12.005 27.224-12.005 20.546 0 37.21 16.656 37.21 37.205H440.34z" fill="#576590"/></g><g><path fill="#31669d" d="M345.002 270.546H80v32.912h480v-32.912z"/><path fill="#2d73ab" d="M80 291.626v17.686h480v-17.686z"/></g><g><path fill="#424a4c" d="M303.119 259.628H321.5v47.868h-18.381z"/><path fill="#424a4c" d="M314.229 227.998h30.772v79.498h-30.772z"/><path fill="#70513c" d="M346.227 276.149l2.577 2.582v-63.2l-2.577-2.581z"/><path d="M339.348 160.068c0 1.719-1.719 3.44-3.439 3.44h-32.245c-1.72 0-3.44-1.721-3.44-3.44v-34.824c0-1.719 1.721-3.438 3.44-3.438h32.245c1.721 0 3.439 1.719 3.439 3.438v34.824z" fill="#9e735a"/><g fill="#7f5b42"><path d="M300.653 125.244c0-1.719 1.72-3.438 3.44-3.438h32.242c1.722 0 3.442 1.719 3.442 3.438v34.824c0 1.719-1.721 3.44-3.442 3.44"/><path d="M348.804 277.011c0 1.291-1.286 2.58-2.577 2.58h-51.592c-1.291 0-2.58-1.289-2.58-2.58V143.302c0-1.29 1.289-2.58 2.58-2.58h51.592c1.291 0 2.577 1.29 2.577 2.58v133.709z"/></g><path d="M348.804 330.752c0 1.289-1.286 2.581-2.577 2.581h-51.592c-1.291 0-2.58-1.292-2.58-2.581V197.043c0-1.289 1.289-2.579 2.58-2.579h51.592c1.291 0 2.577 1.29 2.577 2.579v133.709z" fill="#997153"/><path d="M346.227 194.464c1.291 0 2.577 1.29 2.577 2.579v133.709c0 1.289-1.286 2.581-2.577 2.581" fill="#845e44"/><path d="M294.635 333.333c-1.291 0-2.58-1.292-2.58-2.581V197.043c0-1.289 1.289-2.579 2.58-2.579" fill="#bc8f71"/><path fill="#7f5b42" d="M294.635 194.464l-2.58 3.009v24.077l56.749 57.181v-63.2l-20.633-21.067z"/><path d="M300.223 325.594c0 .431-.427.86-.86.86-.427 0-.86-.43-.86-.86V219.401c0-.43.434-.861.86-.861.434 0 .86.432.86.861v106.193z" fill="#9e7b64"/><path d="M300.223 230.146v-10.745c0-.43-.427-.861-.86-.861-.427 0-.86.432-.86.861v9.027l1.72 1.718z" fill="#70513c"/><path d="M306.242 325.594c0 .431-.429.86-.861.86-.427 0-.857-.43-.857-.86V219.401c0-.43.431-.861.857-.861.433 0 .861.432.861.861v106.193z" fill="#9e7b64"/><path d="M306.242 325.594c0 .431-.429.86-.861.86-.427 0-.857-.43-.857-.86V219.401c0-.43.431-.861.857-.861.433 0 .861.432.861.861v106.193zM312.262 325.594c0 .431-.431.86-.858.86-.433 0-.861-.43-.861-.86V219.401c0-.43.429-.861.861-.861.428 0 .858.432.858.861v106.193z" fill="#9e7b64"/><g fill="#70513c"><path d="M312.262 241.757v-22.785c0-.432-.431-.861-.858-.861-.433 0-.861.43-.861.861v21.066l1.719 1.719zM306.242 236.167v-16.766c0-.43-.429-.861-.861-.861-.427 0-.857.432-.857.861v15.047l1.718 1.719z"/></g><path d="M318.282 325.594c0 .431-.432.86-.86.86-.43 0-.86-.43-.86-.86V219.401c0-.43.431-.861.86-.861s.86.432.86.861v106.193z" fill="#9e7b64"/><path d="M318.282 247.775v-28.804c0-.432-.432-.861-.86-.861-.43 0-.86.43-.86.861v27.084l1.72 1.72z" fill="#70513c"/><path d="M324.301 325.594c0 .431-.435.86-.858.86-.433 0-.862-.43-.862-.86V219.401c0-.43.43-.861.862-.861.424 0 .858.432.858.861v106.193z" fill="#9e7b64"/><path d="M324.301 253.796v-34.824c0-.432-.435-.861-.858-.861-.433 0-.862.43-.862.861v33.104l1.72 1.72z" fill="#70513c"/><path d="M330.318 325.594c0 .431-.431.86-.858.86-.431 0-.86-.43-.86-.86V219.401c0-.43.43-.861.86-.861.428 0 .858.432.858.861v106.193z" fill="#9e7b64"/><path d="M329.46 218.54c-.431 0-.86.432-.86.861v39.123l1.719 1.72v-40.413c-.001-.859-.431-1.291-.859-1.291z" fill="#70513c"/><path d="M336.336 325.594c0 .431-.428.86-.856.86-.43 0-.86-.43-.86-.86V219.401c0-.43.431-.861.86-.861s.856.432.856.861v106.193z" fill="#9e7b64"/><path d="M335.479 218.54c-.43 0-.86.432-.86.861v45.143l1.717 1.719v-46.861c0-.43-.428-.862-.857-.862z" fill="#70513c"/><path d="M342.357 325.594c0 .431-.432.86-.86.86-.43 0-.858-.43-.858-.86V219.401c0-.43.429-.861.858-.861s.86.432.86.861v106.193z" fill="#9e7b64"/><path d="M341.497 218.54c-.43 0-.858.432-.858.861v51.159l1.719 1.722v-52.881c-.001-.429-.432-.861-.861-.861z" fill="#70513c"/><g fill="#4f3e32"><path d="M350.099 250.354c0 .861-.862 1.721-1.721 1.721h-55.894c-.861 0-1.722-.859-1.722-1.721 0-.859.86-1.721 1.722-1.721h55.894c.858.001 1.721.862 1.721 1.721zM350.099 258.524c0 .859-.862 1.72-1.721 1.72h-55.894c-.861 0-1.722-.86-1.722-1.72 0-.859.86-1.719 1.722-1.719h55.894c.858.001 1.721.86 1.721 1.719zM350.099 297.646c0 .86-.862 1.722-1.721 1.722h-55.894c-.861 0-1.722-.861-1.722-1.722 0-.858.86-1.718 1.722-1.718h55.894c.858.001 1.721.43 1.721 1.718zM350.099 305.386c0 .861-.862 1.72-1.721 1.72h-55.894c-.861 0-1.722-.858-1.722-1.72 0-.857.86-1.719 1.722-1.719h55.894c.858 0 1.721.861 1.721 1.719z"/></g><g><path d="M355.258 218.11a3.855 3.855 0 0 1-3.872 3.869h-61.91a3.854 3.854 0 0 1-3.871-3.869v-62.341a3.855 3.855 0 0 1 3.871-3.87h62.338a3.854 3.854 0 0 1 3.871 3.87v62.341h-.427z" fill="#af8366"/><path d="M285.604 155.769a3.855 3.855 0 0 1 3.871-3.87h62.338a3.854 3.854 0 0 1 3.871 3.87v62.341c0 2.15-1.72 3.869-3.871 3.869" fill="#9e735a"/><g fill="#997153"><path d="M355.258 218.11a3.855 3.855 0 0 1-3.872 3.869h-61.91a3.854 3.854 0 0 1-3.871-3.869"/><path d="M344.936 186.725c0 13.328-10.749 33.106-24.507 33.106-13.325 0-24.505-19.778-24.505-33.106 0-13.326 10.748-24.506 24.505-24.506 13.33.429 24.507 11.18 24.507 24.506z"/></g></g><g><circle cx="320.429" cy="186.725" r="24.507" fill="#edeada"/><path d="M320.429 162.648c-7.737 0-14.615 3.438-18.914 9.029l34.394 34.394c5.589-4.297 9.027-11.178 9.027-18.914 0-13.758-11.177-24.509-24.507-24.509z" fill="#dbd6c1"/><path d="M320.429 213.38c-14.615 0-26.227-11.606-26.227-26.224 0-14.619 11.611-26.228 26.227-26.228 14.621 0 26.228 11.609 26.228 26.228-.001 14.187-11.607 26.224-26.228 26.224zm0-49.013c-12.468 0-22.355 9.889-22.355 22.357s9.888 22.356 22.355 22.356c12.47 0 22.357-9.889 22.357-22.356 0-12.468-9.888-22.357-22.357-22.357z" fill="#d7cf87"/><path d="M350.955 141.582c0 .431-.43.859-.856.859h-58.904c-.432 0-.859-.429-.859-.859 0-.431.428-.859.859-.859h58.47c.434-.001 1.29.428 1.29.859z" fill="#4f3e32"/></g><g><path d="M296.784 148.46c0 .431-.431.86-.86.86-.43 0-.86-.429-.86-.86v-3.01c0-.43.431-.86.86-.86.43 0 .86.431.86.86v3.01zM301.943 148.46c0 .431-.429.86-.861.86-.429 0-.859-.429-.859-.86v-3.01c0-.43.431-.86.859-.86.433 0 .861.431.861.86v3.01zM306.672 148.46c0 .431-.43.86-.858.86-.433 0-.859-.429-.859-.86v-3.01c0-.43.427-.86.859-.86.429 0 .858.431.858.86v3.01z" fill="#427852"/><path d="M311.403 148.46c0 .431-.433.86-.861.86-.43 0-.86-.429-.86-.86v-3.01c0-.43.431-.86.86-.86s.861.431.861.86v3.01z" fill="#1f3625"/><path d="M316.562 148.46c0 .431-.43.86-.86.86s-.859-.429-.859-.86v-3.01c0-.43.43-.86.859-.86.431 0 .86.431.86.86v3.01z" fill="#427852"/><path d="M321.291 148.46c0 .431-.431.86-.862.86-.428 0-.857-.429-.857-.86v-3.01c0-.43.43-.86.857-.86.432 0 .862.431.862.86v3.01z" fill="#1f3625"/><path d="M326.021 148.46c0 .431-.434.86-.86.86-.433 0-.86-.429-.86-.86v-3.01c0-.43.428-.86.86-.86.427 0 .86.431.86.86v3.01z" fill="#427852"/><path d="M330.751 148.46c0 .431-.433.86-.863.86-.428 0-.858-.429-.858-.86v-3.01c0-.43.431-.86.858-.86.431 0 .863.431.863.86v3.01z" fill="#1f3625"/><path d="M335.908 148.46c0 .431-.429.86-.858.86-.431 0-.863-.429-.863-.86v-3.01c0-.43.433-.86.863-.86s.858.431.858.86v3.01z" fill="#427852"/><path d="M340.639 148.46c0 .431-.432.86-.86.86-.431 0-.862-.429-.862-.86v-3.01c0-.43.432-.86.862-.86.429 0 .86.431.86.86v3.01z" fill="#1f3625"/><path d="M345.368 148.46c0 .431-.433.86-.863.86-.428 0-.858-.429-.858-.86v-3.01c0-.43.431-.86.858-.86.431 0 .863.431.863.86v3.01z" fill="#427852"/></g><g><path d="M321.719 185.865c0 .859-.428 1.291-1.29 1.291-.857 0-1.287-.432-1.287-1.291v-18.057c0-.861.43-1.291 1.287-1.291.862 0 1.29.43 1.29 1.291v18.057z" fill="#af8366"/><path d="M332.898 186.725c0 .859-.859 1.721-1.722 1.721H320c-.859 0-1.719-.861-1.719-1.721 0-.859.859-1.719 1.719-1.719h11.176c.863 0 1.722.859 1.722 1.719z" fill="#4f3e32"/></g><g><path d="M320.429 184.574a2.15 2.15 0 1 1 0 4.298 2.148 2.148 0 1 1 0-4.298z" fill="#997153"/><g fill="#4f3e32"><path d="M291.623 141.582c0 .431-.429.859-.86.859-.428 0-.858-.429-.858-.859v-8.599c0-.43.431-.86.858-.86.432 0 .86.431.86.86v8.599z"/><path d="M292.916 137.713c0 .429-.432.857-.861.857h-3.439c-.431 0-.858-.429-.858-.857 0-.431.428-.862.858-.862h3.439c.861.432.861.862.861.862zM350.955 141.582c0 .431-.43.859-.856.859-.435 0-.862-.429-.862-.859v-8.599c0-.43.428-.86.862-.86.427 0 .856.431.856.86v8.599z"/><path d="M352.677 137.713c0 .429-.433.857-.863.857h-3.436c-.435 0-.86-.429-.86-.857 0-.431.426-.862.86-.862h3.436c.43.432.863.862.863.862zM320.86 72.793c0 .428-.432.858-.859.858-.43 0-.859-.43-.859-.858v-8.601c0-.429.43-.86.859-.86.428 0 .859.431.859.86v8.601z"/><path d="M322.58 68.923c0 .428-.429.859-.861.859h-3.437c-.432 0-.86-.431-.86-.859 0-.432.429-.861.86-.861h3.437c.432.43.861.861.861.861z"/></g><path fill="#604533" d="M346.227 126.534l-26.226-56.321-26.227 56.321z"/><path fill="#422e20" d="M334.619 126.534l-14.618-56.321-14.62 56.321z"/><path d="M347.943 127.394c0 .43-.426.43-.426.43h-55.033c-.43 0-.43-.43-.43-.43 0-.43.43-.43.43-.43h54.603c.431-.43.856 0 .856.43z" fill="#7f5b42"/></g></g><g><path d="M422.209 80.986a.783.783 0 1 1-1.567.003.783.783 0 0 1 1.567-.003z" fill="#dae3d9"/><circle cx="512.867" cy="47.751" r=".737" fill="#dae3d9"/><circle cx="473.097" cy="82.508" r=".736" fill="#dae3d9"/><path d="M423.825 74.915c0 .407-.329.74-.735.74a.739.739 0 0 1 0-1.477c.406 0 .735.331.735.737zM178.733 91.516a1.032 1.032 0 1 1-2.064.002 1.032 1.032 0 0 1 2.064-.002z" fill="#99a4c0"/><circle cx="409.783" cy="52.309" r=".738" fill="#dae3d9"/><path d="M386.73 173.042a.738.738 0 0 1-1.476 0 .738.738 0 0 1 1.476 0z" fill="#99a4c0"/><circle cx="150.621" cy="51.572" r=".738" fill="#dae3d9"/><circle cx="230.507" cy="58.334" r=".738" fill="#dae3d9"/><circle cx="155.768" cy="59.271" r=".937" fill="#99a4c0"/><circle cx="145.012" cy="69.166" r=".737" fill="#dae3d9"/></g><g><path fill="#ecf0f1" d="M79.911 25.802h225v31.153h-225z"/><path d="M292.34 43.917c-.075.093-.151.187-.23.275s-.158.177-.242.263a5.772 5.772 0 0 1-.787.657 5.574 5.574 0 0 1-.282.179 4.67 4.67 0 0 1-.297.157 5.285 5.285 0 0 1-.738.275 7.424 7.424 0 0 1-.383.099c-.13.024-.26.049-.389.066-.056.009-.113.017-.169.021s-.113.011-.169.014a3.18 3.18 0 0 1-.17.006h-.171c-.039-.002-.079-.002-.117-.005a1.542 1.542 0 0 1-.116-.008 2.346 2.346 0 0 1-.118-.01l-.115-.014a3.034 3.034 0 0 1-.232-.039 3.028 3.028 0 0 1-.229-.052c-.076-.018-.151-.04-.226-.062a4.51 4.51 0 0 1-.225-.071l.942 1.39.064.004.063.003.064.001.063.003c.075.002.149.005.224.002a8.37 8.37 0 0 0 .224-.005c.074-.002.148-.006.222-.01l.221-.016a5.339 5.339 0 0 0 .659-.102c.109-.022.218-.05.326-.08.109-.029.215-.063.321-.1.108-.035.214-.075.317-.119.104-.042.207-.088.31-.139.102-.05.202-.101.301-.155.099-.054.198-.107.294-.167a4.802 4.802 0 0 0 .475-.326c.079-.058.154-.116.23-.175.077-.059.152-.116.231-.173l.072-1.875c-.07.102-.142.196-.218.288z" fill="#1279bf"/><path fill="none" d="M268.912 28.571h25.615v25.616h-25.615z"/><path d="M287.757 42.479c.007.004.012.008.019.01a.06.06 0 0 0 .018.009l.017.01c.17.077.337.158.505.241.167.083.333.167.501.245.166.079.334.154.504.219a3.801 3.801 0 0 0 .707.194 4.365 4.365 0 0 0 .385.043c.063.005.13.007.195.009h.184l.184-.007c.063-.004.123-.007.184-.013.062-.003.122-.012.182-.018.092-.01.181-.022.271-.041.091-.017.179-.038.268-.059a3.85 3.85 0 0 0 .264-.082c.088-.029.175-.061.261-.097a4.284 4.284 0 0 0 .505-.251c.084-.048.165-.1.246-.152.082-.051.16-.107.239-.163.065-.046.127-.097.189-.148.064-.053.125-.105.187-.161.062-.053.123-.111.184-.166.062-.056.123-.113.186-.166l.035-1.626c-.052.08-.104.161-.158.241a6.818 6.818 0 0 1-.339.458c-.06.07-.123.141-.187.209a7.03 7.03 0 0 1-.212.211 3.959 3.959 0 0 1-.46.374 3.546 3.546 0 0 1-.546.307 3.914 3.914 0 0 1-.628.228 3.18 3.18 0 0 1-.322.07c-.044.007-.09.015-.132.02-.046.007-.091.01-.137.014l-.135.007h-.136c-.036 0-.072-.002-.107-.004a1.715 1.715 0 0 1-.106-.007c-.037-.002-.072-.006-.109-.01a2.585 2.585 0 0 1-.367-.066 3.872 3.872 0 0 1-.507-.16 12.163 12.163 0 0 1-.901-.382 21.182 21.182 0 0 1-.641-.317 126.73 126.73 0 0 1-.633-.337l-.63-.346.953 1.649.02.011z" fill="#1279bf"/><path d="M289.966 47.053c-.711-.148-1.372-.54-2.048-.84-1.231-.544-2.372-1.44-3.662-1.726a2.093 2.093 0 0 0-.474-.052c-.205 0-.414.025-.616.065a3.436 3.436 0 0 0-1.116.414 3.57 3.57 0 0 0-.868.759c-.297.354-.529.792-.751 1.225l.003-1.968c.109-.294.382-.462.606-.646a4.59 4.59 0 0 1 1.07-.664 3.884 3.884 0 0 1 1.207-.347c.096-.009.192-.013.288-.013.345 0 .69.052 1.026.128.351.083.683.237 1.021.389 1.293.564 2.513 1.385 3.822 1.896.084.032.169.061.255.089l-1.894-3.173c-1.195-.533-2.313-1.366-3.57-1.635a2.13 2.13 0 0 0-.471-.05c-.207 0-.416.025-.619.063a3.48 3.48 0 0 0-1.117.41 3.471 3.471 0 0 0-.867.732c-.299.345-.531.764-.753 1.187l.006-1.903c.199-.211.382-.448.604-.626a4.644 4.644 0 0 1 1.069-.654 3.968 3.968 0 0 1 1.208-.332c.104-.01.207-.015.31-.015.338 0 .675.047 1.005.123.35.076.683.241 1.02.384.371.158.735.34 1.098.527l-4.99-8.36-10.78 17.874h21.457l-1.901-3.187a3.267 3.267 0 0 1-.578-.074z" fill="#f8951d"/><g><path d="M94.09 31.792l.554 1.354-1.337.546c-.933.402-1.437 1.094-1.515 2.077.038.321.114.639.229.951l2.352 5.531c.206.454.308.962.308 1.518 0 .768-.236 1.459-.708 2.073a3.85 3.85 0 0 1-1.764 1.306l-1.263.484-.576-1.399 1.289-.446a2.218 2.218 0 0 0 1.119-.782c.274-.365.412-.775.412-1.235a2.63 2.63 0 0 0-.192-1.008l-2.355-5.476a5.146 5.146 0 0 1-.347-1.517 3.685 3.685 0 0 1 .681-2.076c.435-.616 1.032-1.075 1.79-1.381l1.323-.52zM101.635 41.223l-2.586 2.658-1.034-1.027 2.049-2.076-.075-.193c-.268-.559-.64-.835-1.113-.835-.561 0-.961.3-1.197.903-.238.604-.356 1.307-.356 2.107 0 .787.117 1.49.351 2.106.233.611.622.919 1.164.919.175 0 .354-.046.536-.144.182-.096.323-.229.423-.399l.112-.175 1.323.757-.229.333c-.642.919-1.376 1.379-2.202 1.379-.692 0-1.257-.239-1.695-.715-.438-.476-.753-1.081-.948-1.818a8.994 8.994 0 0 1-.289-2.282 9.376 9.376 0 0 1 .3-2.262c.184-.687.491-1.254.924-1.707.431-.452 1-.687 1.708-.71.499 0 .938.129 1.321.385.382.259.692.598.934 1.021.239.422.406.877.5 1.367l.079.408zM106.731 46.389c-.126.255-.33.49-.614.705-.284.215-.642.323-1.075.323-.939-.017-1.583-.477-1.938-1.379-.354-.904-.531-1.999-.531-3.278 0-1.283.188-2.386.565-3.305.377-.919 1.039-1.405 1.983-1.455.489 0 .923.181 1.3.545l.31.251v-7.803h1.341v16.23h-1.341v-.834zm-1.342-.603c.586 0 .975-.205 1.166-.62.192-.413.288-1.016.288-1.806v-.719a62.315 62.315 0 0 0-.036-.949 4.258 4.258 0 0 0-.152-1.042 1.394 1.394 0 0 0-.435-.679c-.207-.173-.496-.26-.87-.26-.945.062-1.417 1.04-1.417 2.93.016 1.18.146 1.982.391 2.404s.599.668 1.065.741zM113.828 48.211v-1.513c-.451.528-.936.794-1.452.794-1.875 0-2.838-1.546-2.892-4.639 0-.797.083-1.558.251-2.286.168-.727.461-1.333.877-1.822.416-.489.964-.749 1.646-.783.535 0 .955.219 1.261.658l.27.333v-.68h1.342v9.901c0 .627-.051 1.174-.15 1.643-.1.47-.285.866-.557 1.191a1.933 1.933 0 0 1-.816.555 3.192 3.192 0 0 1-1.156.199c-.931 0-1.632-.279-2.109-.837l.672-1.88c.019.394.158.725.417.992.261.269.605.404 1.036.404.578-.055.949-.289 1.113-.698.165-.409.247-.919.247-1.532zm-2.984-5.434c.009.977.128 1.724.355 2.242.227.519.632.787 1.214.806.567 0 .95-.224 1.151-.665.2-.444.301-1.097.301-1.955v-.483a81.893 81.893 0 0 0-.035-.976 4.521 4.521 0 0 0-.15-1.061 1.403 1.403 0 0 0-.433-.691c-.208-.179-.498-.273-.87-.282-.548 0-.942.272-1.179.827-.239.551-.369 1.228-.391 2.025a.476.476 0 0 1 .037.213zM122.202 41.223l-2.585 2.658-1.034-1.027 2.048-2.076-.075-.193c-.268-.559-.639-.835-1.113-.835-.561 0-.959.3-1.197.903-.236.604-.355 1.307-.355 2.107 0 .787.118 1.49.35 2.106.234.611.623.919 1.164.919.175 0 .354-.046.536-.144.182-.096.324-.229.423-.399l.113-.175 1.323.757-.229.333c-.643.919-1.376 1.379-2.203 1.379-.691 0-1.257-.239-1.694-.715-.438-.476-.752-1.081-.947-1.818a8.95 8.95 0 0 1-.289-2.282 9.279 9.279 0 0 1 .299-2.262c.185-.687.491-1.254.923-1.707.432-.452 1.001-.687 1.708-.71.499 0 .94.129 1.322.385.382.259.692.598.932 1.021.241.422.408.877.501 1.367l.079.408zM125.993 47.75l-1.243-.564-2.048-8.911 1.225-.312 1.533 7.592 1.993-7.318h.037l1.973 7.28 1.608-7.554 1.281.312-2.314 9.476-1.248-.564-1.3-5.298-1.497 5.861zM135.166 33.768l-.764 2.234-.877-2.234h1.641zm-1.547 13.456v-8.988h1.472v8.988h-1.472zM140.661 45.516l.518 1.512c-.333.338-.755.509-1.266.509-.708 0-1.28-.232-1.719-.698-.438-.464-.748-1.055-.933-1.771a9.287 9.287 0 0 1-.276-2.308c0-.805.094-1.556.283-2.253.189-.698.505-1.275.95-1.728.443-.453 1.021-.687 1.732-.698.501 0 .911.154 1.228.464l-.518 1.474a4.458 4.458 0 0 0-.312-.202c-.054-.028-.174-.052-.356-.067-.543 0-.932.3-1.165.9-.234.604-.358 1.306-.369 2.11 0 .817.106 1.525.32 2.126.213.601.591.899 1.133.899.133 0 .238-.01.315-.032s.148-.054.215-.1c.069-.041.142-.089.22-.137zM142.348 47.185V30.994h1.455v16.191h-1.455zm4.46.352l-2.814-5.574 1.875-4.094 1.38.638-1.725 3.456 2.627 4.778-1.343.796zM157.708 39.184l2.622 5.129 1.207-1.417.921.91-1.533 1.71.897 1.708-1.052.675-.705-1.473c-.789.686-1.722 1.029-2.797 1.029-1.085-.019-1.924-.394-2.518-1.123-.594-.732-.891-1.643-.891-2.74 0-.13.012-.322.038-.582a5.867 5.867 0 0 1 .437-1.754c.224-.513.477-.952.765-1.318.286-.366.621-.732 1-1.099a58.368 58.368 0 0 1-.723-1.391 7.167 7.167 0 0 1-.367-.965 5.54 5.54 0 0 1-.215-1.276c0-.547.12-1.068.359-1.564.237-.496.568-.896.99-1.201a2.358 2.358 0 0 1 1.41-.456c.938.018 1.655.302 2.151.851.496.548.743 1.274.743 2.177a3.347 3.347 0 0 1-.264 1.267 4.419 4.419 0 0 1-.633 1.054c-.256.315-.538.618-.845.908s-.64.602-.997.941zm-.997.878a4.456 4.456 0 0 0-.811 1.003c-.207.359-.366.732-.477 1.124s-.205.848-.282 1.366c.008.738.209 1.363.602 1.873.393.511.926.765 1.6.765.801 0 1.511-.276 2.127-.831l-2.759-5.3zm-.612-5.049c0 .489.083.957.252 1.401s.424.972.763 1.586l.514-.446c.96-.828 1.441-1.715 1.441-2.659 0-.333-.063-.619-.19-.862a1.355 1.355 0 0 0-.525-.565 1.445 1.445 0 0 0-.764-.203c-.438 0-.796.163-1.074.489-.279.325-.417.744-.417 1.259zM170.313 41.223v5.962h-1.455v-5.962h-1.188l.52-1.512h.668v-7.455h4.115l.519 1.512h-3.221v5.943h2.509v1.512h-2.467zM180 41.223l-2.586 2.658-1.033-1.027 2.048-2.076-.075-.193c-.268-.559-.639-.835-1.112-.835-.562 0-.96.3-1.197.903-.237.604-.355 1.307-.355 2.107 0 .787.118 1.49.351 2.106.234.611.622.919 1.164.919.176 0 .353-.046.535-.144.184-.096.324-.229.424-.399l.111-.175 1.324.757-.229.333c-.642.919-1.376 1.379-2.202 1.379-.692 0-1.257-.239-1.696-.715-.438-.476-.753-1.081-.947-1.818a8.95 8.95 0 0 1-.289-2.282 9.279 9.279 0 0 1 .299-2.262c.183-.687.491-1.254.923-1.707.432-.452 1.001-.687 1.709-.71.499 0 .938.129 1.321.385.381.259.692.598.932 1.021.241.422.407.877.5 1.367l.08.408zM182.666 39.631c.241-.456.504-.822.784-1.099.281-.277.632-.414 1.052-.414h.23l-.5 1.474c-.296.064-.493.11-.589.14-.098.031-.213.111-.346.248-.177.167-.328.474-.449.917a5.933 5.933 0 0 0-.181 1.548v4.74h-1.305v-8.949h1.305v1.395zM188.425 47.75l-1.244-.564-2.048-8.911 1.225-.312 1.533 7.592 1.993-7.318h.037l1.974 7.28 1.608-7.554 1.28.312-2.314 9.476-1.249-.564-1.3-5.298-1.495 5.861zM201.179 41.223l-2.585 2.658-1.033-1.027 2.048-2.076-.074-.193c-.27-.559-.641-.835-1.114-.835-.56 0-.961.3-1.196.903-.239.604-.357 1.307-.357 2.107 0 .787.117 1.49.351 2.106.234.611.622.919 1.165.919.174 0 .353-.046.536-.144.182-.096.323-.229.423-.399l.111-.175 1.324.757-.229.333c-.644.919-1.376 1.379-2.203 1.379-.691 0-1.256-.239-1.695-.715-.438-.476-.754-1.081-.947-1.818a8.95 8.95 0 0 1-.29-2.282 9.426 9.426 0 0 1 .3-2.262c.183-.687.491-1.254.923-1.707.431-.452 1.001-.687 1.708-.71.5 0 .938.129 1.321.385.381.259.692.598.934 1.021.239.422.405.877.5 1.367l.079.408zM206.277 46.389c-.125.255-.33.49-.614.705-.284.215-.641.323-1.075.323-.938-.017-1.585-.477-1.937-1.379-.355-.904-.533-1.999-.533-3.278 0-1.283.19-2.386.567-3.305.377-.919 1.037-1.405 1.983-1.455.489 0 .922.181 1.299.545l.31.251v-7.803h1.34v16.23h-1.34v-.834zm-1.343-.603c.585 0 .976-.205 1.167-.62.191-.413.286-1.016.286-1.806v-.719a94.146 94.146 0 0 0-.034-.949 4.254 4.254 0 0 0-.153-1.042 1.392 1.392 0 0 0-.434-.679c-.206-.173-.496-.26-.87-.26-.944.062-1.417 1.04-1.417 2.93.017 1.18.145 1.982.39 2.404.245.422.6.668 1.065.741zM213.187 46.426c-.437.686-.985 1.029-1.646 1.029a1.838 1.838 0 0 1-1.426-.714c-.364-.453-.627-1.021-.786-1.7a10.273 10.273 0 0 1-.261-2.146c0-.83.092-1.619.276-2.363.184-.742.466-1.353.85-1.823.384-.47.857-.718 1.421-.747.54 0 .987.205 1.342.62l.305.33v-.677h1.303v9.024h-1.379v-.833zm-1.342-.64h.037c.572 0 .95-.185 1.14-.551.188-.368.283-.931.283-1.683v-.797c-.006-.23-.019-.564-.035-.998-.018-.435-.067-.798-.15-1.093s-.229-.533-.437-.72c-.21-.185-.501-.274-.875-.274-.465.033-.817.374-1.056 1.021a6.084 6.084 0 0 0-.361 2.122c.043 1.982.528 2.973 1.454 2.973z" fill="#3498db"/><path d="M223.698 46.567c-.36.565-.812.848-1.357.848a1.522 1.522 0 0 1-1.173-.586c-.3-.375-.515-.841-.646-1.401a8.565 8.565 0 0 1-.216-1.769c0-.683.077-1.333.227-1.944.151-.614.385-1.115.7-1.502.316-.387.708-.593 1.171-.616.445 0 .813.171 1.104.509l.252.273v-.555h1.074v7.43h-1.136v-.687zm-1.105-.526h.031c.469 0 .782-.152.937-.457.156-.301.232-.763.232-1.382v-.659a68.57 68.57 0 0 0-.028-.82 4.04 4.04 0 0 0-.123-.901 1.193 1.193 0 0 0-.361-.591c-.171-.152-.413-.229-.719-.229-.383.027-.672.31-.872.844a5.003 5.003 0 0 0-.295 1.746c.037 1.63.436 2.449 1.198 2.449zM227.295 40.969c.2-.375.415-.675.646-.903.231-.228.521-.341.867-.341h.188l-.411 1.215c-.245.05-.406.089-.485.112-.081.026-.175.095-.286.207-.146.138-.27.389-.369.755-.1.367-.15.791-.15 1.274v3.902h-1.076v-7.367h1.076v1.146zM232.655 45.819l.428 1.244a1.415 1.415 0 0 1-1.044.418c-.583 0-1.055-.192-1.416-.573-.359-.384-.616-.869-.767-1.461a7.61 7.61 0 0 1-.228-1.9c0-.661.078-1.278.234-1.854.154-.575.415-1.05.78-1.422.368-.374.842-.566 1.427-.577.413 0 .75.128 1.014.383l-.428 1.216a2.542 2.542 0 0 0-.257-.166c-.044-.026-.144-.044-.295-.058-.446 0-.765.247-.958.743-.192.497-.294 1.074-.303 1.735 0 .673.086 1.258.262 1.753.176.493.488.741.935.741a.975.975 0 0 0 .259-.027.641.641 0 0 0 .178-.083c.054-.037.113-.075.179-.112zM235.176 43.064v4.127h-1.075V33.857h1.075v6.49a1.66 1.66 0 0 1 .624-.515 1.85 1.85 0 0 1 .86-.205c.541 0 .989.228 1.344.688.355.457.534 1.188.534 2.191v4.717h-1.075v-4.688c0-.371-.066-.712-.199-1.028-.134-.316-.4-.475-.795-.475-.398 0-.691.099-.879.295a1.291 1.291 0 0 0-.349.704 7.002 7.002 0 0 0-.065 1.033zM241.376 36.143l-.63 1.841-.722-1.841h1.352zm-1.274 11.081v-7.4h1.212v7.4h-1.212zM243.771 40.892H242.7l.297-1.04h.774v-5.995h1.074v5.967h1.448l-.362 1.068h-1.086v6.332h-1.074v-6.332zM251.656 42.281l-2.129 2.19-.852-.848 1.686-1.71-.061-.159c-.22-.457-.526-.687-.917-.687-.461 0-.791.248-.984.745-.196.498-.294 1.076-.294 1.733 0 .651.097 1.23.288 1.735.193.506.514.759.959.759a.914.914 0 0 0 .44-.119.867.867 0 0 0 .351-.33l.09-.145 1.09.624-.188.274c-.528.757-1.132 1.136-1.813 1.136-.57 0-1.035-.195-1.396-.589-.36-.389-.622-.889-.78-1.494a7.35 7.35 0 0 1-.24-1.882 7.84 7.84 0 0 1 .246-1.863c.151-.563.405-1.032.761-1.404.355-.372.825-.568 1.408-.586.411 0 .773.105 1.086.316.315.212.571.493.769.841.197.347.335.724.413 1.125l.067.338zM255.394 45.819l.428 1.244c-.275.277-.623.418-1.044.418-.581 0-1.054-.192-1.414-.573-.361-.384-.617-.869-.768-1.461a7.612 7.612 0 0 1-.226-1.9c0-.661.076-1.278.231-1.854.155-.575.417-1.05.783-1.422.365-.374.84-.566 1.426-.577.414 0 .751.128 1.012.383l-.428 1.216a2.624 2.624 0 0 0-.254-.166c-.046-.026-.145-.044-.296-.058-.445 0-.765.247-.958.743-.192.497-.294 1.074-.304 1.735 0 .673.088 1.258.263 1.753.176.493.487.741.933.741a.997.997 0 0 0 .261-.027.641.641 0 0 0 .178-.083c.054-.037.114-.075.177-.112zM257.523 40.892h-1.069l.295-1.04h.773v-5.995h1.075v5.967h1.448l-.362 1.068h-1.086v6.332h-1.075v-6.332zM262.362 39.518l.856.956-.555.532a2.59 2.59 0 0 0-.414.54 2.275 2.275 0 0 0-.204.626c.037.308.163.596.382.861l.235.321c.472.603.71 1.173.71 1.71 0 .619-.327 1.241-.977 1.869l-.616.608-.904-.878.556-.53c.239-.22.409-.395.507-.521a.894.894 0 0 0 .172-.488c0-.409-.142-.792-.429-1.146l-.284-.355c-.378-.48-.583-.998-.614-1.549.032-.469.161-.917.394-1.344.092-.16.199-.305.315-.43.119-.126.283-.279.491-.458.21-.176.335-.286.379-.324z" fill="#2b2b2b"/></g></g></svg>