<?xml version="1.0" encoding="utf-8"?>
<!-- Generator: Adobe Illustrator 14.0.0, SVG Export Plug-In . SVG Version: 6.00 Build 43363)  -->
<!DOCTYPE svg PUBLIC "-//W3C//DTD SVG 1.1//EN" "http://www.w3.org/Graphics/SVG/1.1/DTD/svg11.dtd">
<svg version="1.1" id="Layer_1" xmlns="http://www.w3.org/2000/svg" xmlns:xlink="http://www.w3.org/1999/xlink" x="0px" y="0px"
	 width="1200px" height="1200px" viewBox="0 0 1200 1200" style="enable-background:new 0 0 1200 1200;" xml:space="preserve">
<rect style="fill:#7E8FB0;" width="1200" height="1200"/>
<path style="opacity:0.61;fill:#262626;" d="M1105.127,121.063H98.875C59.342,121.063,27,153.404,27,192.939v503.125
	c0,39.531,32.342,71.874,71.875,71.874h1006.252c39.529,0,71.873-32.347,71.873-71.874V192.939
	C1177,153.404,1144.656,121.063,1105.127,121.063z"/>
<g>
	<g id="phone">
		<path style="fill:#F8F8F8;" d="M96.875,765.489c-39.384,0-71.425-32.041-71.425-71.425V190.939
			c0-39.385,32.041-71.428,71.425-71.428h1006.252c39.383,0,71.424,32.042,71.424,71.428v503.125
			c0,39.384-32.041,71.425-71.424,71.425H96.875z"/>
		<path style="fill:#95A5A6;" d="M1103.127,119.961c18.879,0,36.68,7.405,50.125,20.85c13.445,13.445,20.85,31.249,20.85,50.129
			v503.125c0,18.877-7.404,36.679-20.85,50.124c-13.445,13.446-31.247,20.852-50.125,20.852H96.875
			c-18.879,0-36.682-7.404-50.126-20.85s-20.85-31.247-20.85-50.126V190.939c0-18.881,7.405-36.684,20.85-50.129
			c13.445-13.445,31.247-20.85,50.126-20.85H1103.127 M1103.127,119.063H96.875C57.342,119.063,25,151.404,25,190.939v503.125
			c0,39.531,32.342,71.874,71.875,71.874h1006.252c39.529,0,71.873-32.347,71.873-71.874V190.939
			C1175,151.404,1142.656,119.063,1103.127,119.063L1103.127,119.063z"/>
	</g>
	
		<circle id="phone-button" style="fill:#F8F8F8;stroke:#7F8C8D;stroke-width:0.8984;stroke-miterlimit:10;" cx="1092.345" cy="442.5" r="44.324"/>
	<g id="phone-speaker">
		<circle style="fill:#2B2B2B;" cx="123.228" cy="534.139" r="10.781"/>
		<g>
			<circle style="fill:#2B2B2B;" cx="70.52" cy="442.5" r="9.583"/>
			<path style="fill:#2B2B2B;" d="M129.218,392.787v99.426c0,3.593-2.396,5.988-5.99,5.988l0,0c-3.593,0-5.989-2.396-5.989-5.988
				v-99.426c0-3.596,2.396-5.989,5.989-5.989l0,0C126.822,386.798,129.218,390.391,129.218,392.787z"/>
		</g>
	</g>
	<g id="backghround-water">
		<g id="background-water">
			<rect x="167.852" y="164.526" style="fill:#31669D;" width="864.297" height="552.837"/>
			<path style="fill:#262626;" d="M1031.25,165.425v551.04h-862.5v-551.04H1031.25 M1033.047,163.628h-1.797h-862.5h-1.797v1.797
				v551.04v1.797h1.797h862.5h1.797v-1.797v-551.04V163.628L1033.047,163.628z"/>
		</g>
		<g>
			<rect id="stream-behind-ben" x="168.75" y="691.412" style="fill:#2980B9;" width="862.496" height="25.053"/>
		</g>
	</g>
	<g id="background">
		<rect x="168.75" y="165.425" style="fill:#6171A1;" width="862.5" height="497.36"/>
	</g>
	<g>
		<g>
			<path style="fill:#6477A7;" d="M1013.815,577.656c0-75.501-63.361-136.711-141.52-136.711
				c-78.159,0-141.521,61.21-141.521,136.711c0,28.734,9.195,55.4,24.879,77.41h233.287
				C1004.623,633.057,1013.815,606.391,1013.815,577.656z"/>
		</g>
		<path style="fill:#7E8FB0;" d="M1007.08,589.784c0-71.896-60.339-130.184-134.77-130.184
			c-74.425,0-134.756,58.287-134.756,130.184c0,23.788,6.61,46.089,18.149,65.282h233.22
			C1000.467,635.873,1007.08,613.572,1007.08,589.784z"/>
		<path style="fill:#DAE3D9;" d="M976.034,603.632c0-55.82-45.255-101.072-101.074-101.072s-101.073,45.252-101.073,101.072
			c0,18.788,5.139,36.367,14.07,51.435h174.007C970.887,639.999,976.034,622.42,976.034,603.632z"/>
	</g>
	<g id="buildings">
		<g>
			<rect x="389.177" y="487.323" style="fill:#394042;" width="55.294" height="142.853"/>
			<g>
				<rect x="399.443" y="495.736" style="fill:#424A4C;" width="7.723" height="7.724"/>
				<rect x="399.443" y="510.416" style="fill:#424A4C;" width="7.723" height="7.725"/>
				<rect x="399.443" y="525.864" style="fill:#424A4C;" width="7.723" height="7.729"/>
				<rect x="399.443" y="540.544" style="fill:#424A4C;" width="7.723" height="7.724"/>
				<rect x="399.443" y="555.219" style="fill:#424A4C;" width="7.723" height="7.729"/>
				<rect x="399.443" y="569.899" style="fill:#424A4C;" width="7.723" height="7.728"/>
				<rect x="399.443" y="584.579" style="fill:#424A4C;" width="7.723" height="7.725"/>
				<rect x="399.443" y="599.256" style="fill:#424A4C;" width="7.723" height="7.729"/>
				<rect x="412.574" y="495.736" style="fill:#424A4C;" width="7.726" height="7.724"/>
				<rect x="412.574" y="510.416" style="fill:#424A4C;" width="7.726" height="7.725"/>
				<rect x="412.574" y="525.864" style="fill:#D6DDCC;" width="7.726" height="7.729"/>
				<rect x="412.574" y="540.544" style="fill:#424A4C;" width="7.726" height="7.724"/>
				<rect x="412.574" y="555.219" style="fill:#424A4C;" width="7.726" height="7.729"/>
				<rect x="412.574" y="569.899" style="fill:#424A4C;" width="7.726" height="7.728"/>
				<rect x="412.574" y="584.579" style="fill:#424A4C;" width="7.726" height="7.725"/>
				<rect x="412.574" y="599.256" style="fill:#424A4C;" width="7.726" height="7.729"/>
				<rect x="426.479" y="495.736" style="fill:#424A4C;" width="7.726" height="7.724"/>
				<rect x="426.479" y="510.416" style="fill:#424A4C;" width="7.726" height="7.725"/>
				<rect x="426.479" y="525.864" style="fill:#424A4C;" width="7.726" height="7.729"/>
				<rect x="426.479" y="540.544" style="fill:#424A4C;" width="7.726" height="7.724"/>
				<rect x="426.479" y="555.219" style="fill:#424A4C;" width="7.726" height="7.729"/>
				<rect x="426.479" y="569.899" style="fill:#D6DDCC;" width="7.726" height="7.728"/>
				<rect x="426.479" y="584.579" style="fill:#424A4C;" width="7.726" height="7.725"/>
				<rect x="426.479" y="599.256" style="fill:#424A4C;" width="7.726" height="7.729"/>
			</g>
		</g>
		<g>
			<rect x="261.686" y="468.783" style="fill:#394042;" width="55.293" height="142.852"/>
			<g>
				<rect x="271.948" y="477.194" style="fill:#6477A7;" width="7.726" height="7.727"/>
				<rect x="271.948" y="491.876" style="fill:#424A4C;" width="7.726" height="7.724"/>
				<rect x="271.948" y="507.322" style="fill:#424A4C;" width="7.726" height="7.73"/>
				<rect x="271.948" y="522" style="fill:#424A4C;" width="7.726" height="7.727"/>
				<rect x="271.948" y="536.683" style="fill:#424A4C;" width="7.726" height="7.722"/>
				<rect x="271.948" y="551.361" style="fill:#424A4C;" width="7.726" height="7.726"/>
				<rect x="271.948" y="566.035" style="fill:#424A4C;" width="7.726" height="7.728"/>
				<rect x="271.948" y="580.72" style="fill:#424A4C;" width="7.726" height="7.721"/>
				<rect x="285.082" y="477.194" style="fill:#424A4C;" width="7.726" height="7.727"/>
				<rect x="285.082" y="491.876" style="fill:#424A4C;" width="7.726" height="7.724"/>
				<rect x="285.082" y="507.322" style="fill:#424A4C;" width="7.726" height="7.73"/>
				<rect x="285.082" y="522" style="fill:#D6DDCC;" width="7.726" height="7.727"/>
				<rect x="285.082" y="536.683" style="fill:#424A4C;" width="7.726" height="7.722"/>
				<rect x="285.082" y="551.361" style="fill:#424A4C;" width="7.726" height="7.726"/>
				<rect x="285.082" y="566.035" style="fill:#424A4C;" width="7.726" height="7.728"/>
				<rect x="285.082" y="580.72" style="fill:#424A4C;" width="7.726" height="7.721"/>
				<rect x="298.985" y="477.194" style="fill:#424A4C;" width="7.729" height="7.727"/>
				<rect x="298.985" y="491.876" style="fill:#424A4C;" width="7.729" height="7.724"/>
				<rect x="298.985" y="507.322" style="fill:#424A4C;" width="7.729" height="7.73"/>
				<rect x="298.985" y="522" style="fill:#424A4C;" width="7.729" height="7.727"/>
				<rect x="298.985" y="536.683" style="fill:#424A4C;" width="7.729" height="7.722"/>
				<rect x="298.985" y="551.361" style="fill:#424A4C;" width="7.729" height="7.726"/>
				<rect x="298.985" y="566.035" style="fill:#424A4C;" width="7.729" height="7.728"/>
				<rect x="298.985" y="580.72" style="fill:#424A4C;" width="7.729" height="7.721"/>
			</g>
		</g>
		<g id="building-lights_3_">
			<rect x="793.163" y="535.331" style="fill:#394042;" width="33.029" height="86.018"/>
			<g>
				<rect x="799.248" y="542.648" style="fill:#424A4C;" width="4.634" height="4.631"/>
				<rect x="799.248" y="551.451" style="fill:#424A4C;" width="4.634" height="4.634"/>
				<rect x="799.248" y="560.723" style="fill:#424A4C;" width="4.634" height="4.64"/>
				<rect x="799.248" y="569.53" style="fill:#424A4C;" width="4.634" height="4.637"/>
				<rect x="799.248" y="578.34" style="fill:#424A4C;" width="4.634" height="4.631"/>
				<rect x="799.248" y="587.144" style="fill:#424A4C;" width="4.634" height="4.637"/>
				<rect x="799.248" y="595.949" style="fill:#424A4C;" width="4.634" height="4.638"/>
				<rect x="799.248" y="604.761" style="fill:#424A4C;" width="4.634" height="4.632"/>
				<rect x="807.124" y="542.648" style="fill:#424A4C;" width="4.64" height="4.631"/>
				<rect x="807.124" y="551.451" style="fill:#E1DCA9;" width="4.64" height="4.634"/>
				<rect x="807.124" y="560.723" style="fill:#424A4C;" width="4.64" height="4.64"/>
				<rect x="807.124" y="569.53" style="fill:#424A4C;" width="4.64" height="4.637"/>
				<rect x="807.124" y="578.34" style="fill:#424A4C;" width="4.64" height="4.631"/>
				<rect x="807.124" y="587.144" style="fill:#424A4C;" width="4.64" height="4.637"/>
				<rect x="807.124" y="595.949" style="fill:#424A4C;" width="4.64" height="4.638"/>
				<rect x="807.124" y="604.761" style="fill:#424A4C;" width="4.64" height="4.632"/>
				<rect x="815.473" y="542.648" style="fill:#424A4C;" width="4.635" height="4.631"/>
				<rect x="815.473" y="551.451" style="fill:#424A4C;" width="4.635" height="4.634"/>
				<rect x="815.473" y="560.723" style="fill:#424A4C;" width="4.635" height="4.64"/>
				<rect x="815.473" y="569.53" style="fill:#424A4C;" width="4.635" height="4.637"/>
				<rect x="815.473" y="578.34" style="fill:#424A4C;" width="4.635" height="4.631"/>
				<rect x="815.473" y="587.144" style="fill:#424A4C;" width="4.635" height="4.637"/>
				<rect x="815.473" y="595.949" style="fill:#424A4C;" width="4.635" height="4.638"/>
				<rect x="815.473" y="604.761" style="fill:#424A4C;" width="4.635" height="4.632"/>
			</g>
		</g>
		<g id="building-lights_2_">
			<rect x="753.488" y="527.939" style="fill:#394042;" width="42.579" height="110.9"/>
			<g>
				<rect x="761.329" y="537.374" style="fill:#424A4C;" width="5.975" height="5.972"/>
				<rect x="761.329" y="548.727" style="fill:#424A4C;" width="5.975" height="5.978"/>
				<rect x="761.329" y="560.68" style="fill:#424A4C;" width="5.975" height="5.974"/>
				<rect x="761.329" y="572.031" style="fill:#424A4C;" width="5.975" height="5.979"/>
				<rect x="761.329" y="583.386" style="fill:#424A4C;" width="5.975" height="5.977"/>
				<rect x="761.329" y="594.745" style="fill:#D6DDCC;" width="5.975" height="5.979"/>
				<rect x="761.329" y="606.101" style="fill:#424A4C;" width="5.975" height="5.976"/>
				<rect x="761.329" y="617.458" style="fill:#424A4C;" width="5.975" height="5.976"/>
				<rect x="771.49" y="537.374" style="fill:#E1DCA9;" width="5.974" height="5.972"/>
				<rect x="771.49" y="548.727" style="fill:#424A4C;" width="5.974" height="5.978"/>
				<rect x="771.49" y="560.68" style="fill:#424A4C;" width="5.974" height="5.974"/>
				<rect x="771.49" y="572.031" style="fill:#424A4C;" width="5.974" height="5.979"/>
				<rect x="771.49" y="583.386" style="fill:#424A4C;" width="5.974" height="5.977"/>
				<rect x="771.49" y="594.745" style="fill:#424A4C;" width="5.974" height="5.979"/>
				<rect x="771.49" y="606.101" style="fill:#424A4C;" width="5.974" height="5.976"/>
				<rect x="771.49" y="617.458" style="fill:#424A4C;" width="5.974" height="5.976"/>
				<rect x="782.25" y="537.374" style="fill:#D6DDCC;" width="5.975" height="5.972"/>
				<rect x="782.25" y="548.727" style="fill:#424A4C;" width="5.975" height="5.978"/>
				<rect x="782.25" y="560.68" style="fill:#424A4C;" width="5.975" height="5.974"/>
				<rect x="782.25" y="572.031" style="fill:#424A4C;" width="5.975" height="5.979"/>
				<rect x="782.25" y="583.386" style="fill:#424A4C;" width="5.975" height="5.977"/>
				<rect x="782.25" y="594.745" style="fill:#424A4C;" width="5.975" height="5.979"/>
				<rect x="782.25" y="606.101" style="fill:#424A4C;" width="5.975" height="5.976"/>
				<rect x="782.25" y="617.458" style="fill:#424A4C;" width="5.975" height="5.976"/>
			</g>
		</g>
		<g id="building-lights_1_">
			<rect x="953.192" y="552.827" style="fill:#394042;" width="33.032" height="86.013"/>
			<g>
				<rect x="959.276" y="560.144" style="fill:#E1DCA9;" width="4.637" height="4.633"/>
				<rect x="959.276" y="568.948" style="fill:#424A4C;" width="4.637" height="4.635"/>
				<rect x="959.276" y="578.22" style="fill:#424A4C;" width="4.637" height="4.637"/>
				<rect x="959.276" y="587.022" style="fill:#424A4C;" width="4.637" height="4.636"/>
				<rect x="959.276" y="595.835" style="fill:#424A4C;" width="4.637" height="4.635"/>
				<rect x="959.276" y="604.639" style="fill:#424A4C;" width="4.637" height="4.634"/>
				<rect x="959.276" y="613.447" style="fill:#424A4C;" width="4.637" height="4.638"/>
				<rect x="959.276" y="622.254" style="fill:#424A4C;" width="4.637" height="4.633"/>
				<rect x="967.159" y="560.144" style="fill:#424A4C;" width="4.635" height="4.633"/>
				<rect x="967.159" y="568.948" style="fill:#424A4C;" width="4.635" height="4.635"/>
				<rect x="967.159" y="578.22" style="fill:#424A4C;" width="4.635" height="4.637"/>
				<rect x="967.159" y="587.022" style="fill:#424A4C;" width="4.635" height="4.636"/>
				<rect x="967.159" y="595.835" style="fill:#424A4C;" width="4.635" height="4.635"/>
				<rect x="967.159" y="604.639" style="fill:#424A4C;" width="4.635" height="4.634"/>
				<rect x="967.159" y="613.447" style="fill:#424A4C;" width="4.635" height="4.638"/>
				<rect x="967.159" y="622.254" style="fill:#424A4C;" width="4.635" height="4.633"/>
				<rect x="975.5" y="560.144" style="fill:#424A4C;" width="4.635" height="4.633"/>
				<rect x="975.5" y="568.948" style="fill:#424A4C;" width="4.635" height="4.635"/>
				<rect x="975.5" y="578.22" style="fill:#424A4C;" width="4.635" height="4.637"/>
				<rect x="975.5" y="587.022" style="fill:#424A4C;" width="4.635" height="4.636"/>
				<rect x="975.5" y="595.835" style="fill:#424A4C;" width="4.635" height="4.635"/>
				<rect x="975.5" y="604.639" style="fill:#424A4C;" width="4.635" height="4.634"/>
				<rect x="975.5" y="613.447" style="fill:#424A4C;" width="4.635" height="4.638"/>
				<rect x="975.5" y="622.254" style="fill:#424A4C;" width="4.635" height="4.633"/>
			</g>
		</g>
		<rect id="building_14_" x="913.741" y="572.178" style="fill:#424A4C;" width="33.027" height="86.018"/>
		<rect id="building_13_" x="884.559" y="552.979" style="fill:#424A4C;" width="33.022" height="86.021"/>
		<rect id="building_12_" x="858.445" y="562.964" style="fill:#424A4C;" width="33.024" height="86.014"/>
		<rect id="building_11_" x="724.041" y="562.964" style="fill:#424A4C;" width="33.024" height="86.014"/>
		<rect id="building_10_" x="618.825" y="584.465" style="fill:#424A4C;" width="113.667" height="60.677"/>
		<rect id="building_9_" x="183.345" y="533.01" style="fill:#424A4C;" width="33.027" height="86.014"/>
		<rect id="building_8_" x="527.419" y="572.178" style="fill:#424A4C;" width="33.022" height="86.018"/>
		<rect id="building_7_" x="210.991" y="562.964" style="fill:#424A4C;" width="33.023" height="86.014"/>
		<rect id="building_6_" x="498.233" y="552.979" style="fill:#424A4C;" width="33.026" height="86.021"/>
		<rect id="building_5_" x="444.471" y="533.01" style="fill:#424A4C;" width="33.026" height="86.014"/>
		<rect id="building_4_" x="472.119" y="562.964" style="fill:#424A4C;" width="33.024" height="86.014"/>
		<rect id="building_3_" x="337.72" y="562.964" style="fill:#424A4C;" width="33.018" height="86.014"/>
		<rect id="building_2_" x="232.497" y="584.465" style="fill:#424A4C;" width="113.665" height="60.677"/>
		<rect id="building_1_" x="494.392" y="584.465" style="fill:#424A4C;" width="113.67" height="60.677"/>
		<rect id="building" x="168.75" y="555.282" style="fill:#424A4C;" width="33.026" height="86.021"/>
		<g id="building-lights">
			<rect x="975.95" y="476.176" style="fill:#394042;" width="55.3" height="142.848"/>
			<g>
				<rect x="986.221" y="491.974" style="fill:#424A4C;" width="7.722" height="7.729"/>
				<rect x="986.221" y="506.657" style="fill:#424A4C;" width="7.722" height="7.722"/>
				<rect x="986.221" y="522.109" style="fill:#424A4C;" width="7.722" height="7.726"/>
				<rect x="986.221" y="536.784" style="fill:#424A4C;" width="7.722" height="7.727"/>
				<rect x="986.221" y="551.464" style="fill:#424A4C;" width="7.722" height="7.721"/>
				<rect x="986.221" y="566.141" style="fill:#424A4C;" width="7.722" height="7.728"/>
				<rect x="986.221" y="580.821" style="fill:#424A4C;" width="7.722" height="7.725"/>
				<rect x="986.221" y="595.505" style="fill:#424A4C;" width="7.722" height="7.721"/>
				<rect x="999.354" y="491.974" style="fill:#424A4C;" width="7.723" height="7.729"/>
				<rect x="999.354" y="506.657" style="fill:#D6DDCC;" width="7.723" height="7.722"/>
				<rect x="999.354" y="522.109" style="fill:#424A4C;" width="7.723" height="7.726"/>
				<rect x="999.354" y="536.784" style="fill:#424A4C;" width="7.723" height="7.727"/>
				<rect x="999.354" y="551.464" style="fill:#424A4C;" width="7.723" height="7.721"/>
				<rect x="999.354" y="566.141" style="fill:#D6DDCC;" width="7.723" height="7.728"/>
				<rect x="999.354" y="580.821" style="fill:#424A4C;" width="7.723" height="7.725"/>
				<rect x="999.354" y="595.505" style="fill:#424A4C;" width="7.723" height="7.721"/>
				<rect x="1013.251" y="491.974" style="fill:#424A4C;" width="7.729" height="7.729"/>
				<rect x="1013.251" y="506.657" style="fill:#DDDAC0;" width="7.729" height="7.722"/>
				<rect x="1013.251" y="522.109" style="fill:#424A4C;" width="7.729" height="7.726"/>
				<rect x="1013.251" y="536.784" style="fill:#424A4C;" width="7.729" height="7.727"/>
				<rect x="1013.251" y="551.464" style="fill:#424A4C;" width="7.729" height="7.721"/>
				<rect x="1013.251" y="566.141" style="fill:#424A4C;" width="7.729" height="7.728"/>
				<rect x="1013.251" y="580.821" style="fill:#424A4C;" width="7.729" height="7.725"/>
				<rect x="1013.251" y="595.505" style="fill:#424A4C;" width="7.729" height="7.721"/>
			</g>
		</g>
	</g>
	<g id="clouds">
		<g>
			<path style="fill:#7281A9;" d="M387.047,367.624c-3.46,0-6.73,0.681-9.867,1.668c-9.935-14.282-26.42-23.674-45.142-23.674
				c-18.72,0-35.2,9.392-45.144,23.674c-3.133-0.987-6.402-1.668-9.87-1.668c-18.228,0-33.009,14.779-33.009,33.007h176.049
				C420.058,382.395,405.278,367.624,387.047,367.624z"/>
		</g>
		<g>
			<path style="fill:#4D597F;" d="M471.831,360.209c-3.462,0-6.733,0.673-9.867,1.664c-9.933-14.282-26.422-23.678-45.143-23.678
				c-18.72,0-35.203,9.396-45.141,23.678c-3.14-0.991-6.409-1.664-9.871-1.664c-18.228,0-33.008,14.771-33.008,33h176.042
				C504.844,374.975,490.064,360.209,471.831,360.209z"/>
		</g>
		<g>
			<path style="fill:#576590;" d="M816.235,372.864c0-25.848,20.956-46.794,46.802-46.794c3.902,0,7.637,0.613,11.254,1.512
				c12.211-13.188,29.52-21.568,48.916-21.568c36.919,0,66.863,29.929,66.863,66.851H816.235z"/>
		</g>
	</g>
	<g id="water-mask">
		<polygon style="fill:#31669D;" points="644.926,614.185 555.075,614.185 168.75,614.185 168.75,679.006 555.075,679.006 
			644.926,679.006 1031.25,679.006 1031.25,614.185 		"/>
		<polygon style="fill:#2D73AB;" points="168.75,655.704 168.75,672.446 168.75,673.795 168.75,690.536 1031.25,690.536 
			1031.25,673.795 1031.25,672.446 1031.25,655.704 		"/>
	</g>
	<g id="BEN">
		<rect x="569.668" y="585.582" style="fill:#424A4C;" width="33.027" height="86.012"/>
		<rect x="589.63" y="528.746" style="fill:#424A4C;" width="55.295" height="142.848"/>
		<g>
			<polygon style="fill:#70513C;" points="647.126,615.269 651.756,619.908 651.756,506.345 647.126,501.708 			"/>
			<g>
				<path style="fill:#9E735A;" d="M634.766,406.685c0,3.09-3.089,6.181-6.18,6.181h-57.94c-3.091,0-6.184-3.091-6.184-6.181V344.11
					c0-3.09,3.093-6.179,6.184-6.179h57.94c3.091,0,6.18,3.089,6.18,6.179V406.685z"/>
				<g>
					<path style="fill:#7F5B42;" d="M565.236,344.11c0-3.09,3.091-6.179,6.182-6.179h57.936c3.095,0,6.186,3.089,6.186,6.179v62.574
						c0,3.09-3.091,6.181-6.186,6.181"/>
					<path style="fill:#7F5B42;" d="M651.756,616.816c0,2.319-2.311,4.636-4.63,4.636h-92.705c-2.318,0-4.635-2.316-4.635-4.636
						V376.56c0-2.32,2.316-4.637,4.635-4.637h92.705c2.319,0,4.63,2.316,4.63,4.637V616.816z"/>
				</g>
				<path style="fill:#997153;" d="M651.756,713.383c0,2.315-2.311,4.638-4.63,4.638h-92.705c-2.318,0-4.635-2.322-4.635-4.638
					V473.124c0-2.315,2.316-4.634,4.635-4.634h92.705c2.319,0,4.63,2.318,4.63,4.634V713.383z"/>
				<path style="fill:#845E44;" d="M647.126,468.49c2.319,0,4.63,2.318,4.63,4.634v240.259c0,2.315-2.311,4.638-4.63,4.638"/>
				<path style="fill:#BC8F71;" d="M554.421,718.021c-2.318,0-4.635-2.322-4.635-4.638V473.124c0-2.315,2.316-4.634,4.635-4.634"/>
				<polygon style="fill:#7F5B42;" points="554.421,468.49 549.786,473.896 549.786,517.159 651.756,619.908 651.756,506.345 
					614.684,468.49 				"/>
				<path style="fill:#9E7B64;" d="M564.462,704.114c0,0.774-0.767,1.546-1.544,1.546l0,0c-0.768,0-1.547-0.771-1.547-1.546V513.3
					c0-0.773,0.779-1.549,1.547-1.549l0,0c0.777,0,1.544,0.775,1.544,1.549V704.114z"/>
				<path style="fill:#70513C;" d="M564.462,532.607V513.3c0-0.773-0.767-1.549-1.544-1.549c-0.768,0-1.547,0.775-1.547,1.549v16.22
					L564.462,532.607z"/>
				<path id="SVGCleanerId_0_3_" style="fill:#9E7B64;" d="M575.279,704.114c0,0.774-0.771,1.546-1.549,1.546l0,0
					c-0.767,0-1.539-0.771-1.539-1.546V513.3c0-0.773,0.772-1.549,1.539-1.549l0,0c0.777,0,1.549,0.775,1.549,1.549V704.114z"/>
				<g>
					<path id="SVGCleanerId_0_2_" style="fill:#9E7B64;" d="M575.279,704.114c0,0.774-0.771,1.546-1.549,1.546l0,0
						c-0.767,0-1.539-0.771-1.539-1.546V513.3c0-0.773,0.772-1.549,1.539-1.549l0,0c0.777,0,1.549,0.775,1.549,1.549V704.114z"/>
				</g>
				<path style="fill:#9E7B64;" d="M586.096,704.114c0,0.774-0.775,1.546-1.543,1.546l0,0c-0.776,0-1.548-0.771-1.548-1.546V513.3
					c0-0.773,0.771-1.549,1.548-1.549l0,0c0.768,0,1.543,0.775,1.543,1.549V704.114z"/>
				<g>
					<path style="fill:#70513C;" d="M586.096,553.47v-40.943c0-0.775-0.775-1.548-1.543-1.548c-0.776,0-1.548,0.772-1.548,1.548
						v37.854L586.096,553.47z"/>
					<path style="fill:#70513C;" d="M575.279,543.425V513.3c0-0.773-0.771-1.549-1.549-1.549c-0.767,0-1.539,0.775-1.539,1.549
						v27.037L575.279,543.425z"/>
				</g>
				<path style="fill:#9E7B64;" d="M596.913,704.114c0,0.774-0.776,1.546-1.545,1.546l0,0c-0.771,0-1.546-0.771-1.546-1.546V513.3
					c0-0.773,0.774-1.549,1.546-1.549l0,0c0.769,0,1.545,0.775,1.545,1.549V704.114z"/>
				<path style="fill:#70513C;" d="M596.913,564.283v-51.757c0-0.775-0.776-1.548-1.545-1.548c-0.771,0-1.546,0.772-1.546,1.548
					v48.667L596.913,564.283z"/>
				<path style="fill:#9E7B64;" d="M607.729,704.114c0,0.774-0.781,1.546-1.543,1.546l0,0c-0.778,0-1.55-0.771-1.55-1.546V513.3
					c0-0.773,0.771-1.549,1.55-1.549l0,0c0.762,0,1.543,0.775,1.543,1.549V704.114z"/>
				<path style="fill:#70513C;" d="M607.729,575.103v-62.576c0-0.775-0.781-1.548-1.543-1.548c-0.778,0-1.55,0.772-1.55,1.548
					v59.483L607.729,575.103z"/>
				<path style="fill:#9E7B64;" d="M618.541,704.114c0,0.774-0.774,1.546-1.543,1.546l0,0c-0.774,0-1.546-0.771-1.546-1.546V513.3
					c0-0.773,0.771-1.549,1.546-1.549l0,0c0.769,0,1.543,0.775,1.543,1.549V704.114z"/>
				<path style="fill:#70513C;" d="M616.998,511.751c-0.774,0-1.546,0.775-1.546,1.549v70.299l3.089,3.09v-72.616
					C618.541,512.526,617.767,511.751,616.998,511.751z"/>
				<path style="fill:#9E7B64;" d="M629.354,704.114c0,0.774-0.768,1.546-1.538,1.546l0,0c-0.771,0-1.546-0.771-1.546-1.546V513.3
					c0-0.773,0.774-1.549,1.546-1.549l0,0c0.771,0,1.538,0.775,1.538,1.549V704.114z"/>
				<path style="fill:#70513C;" d="M627.815,511.751c-0.771,0-1.546,0.775-1.546,1.549v81.115l3.084,3.089V513.3
					C629.354,512.526,628.586,511.751,627.815,511.751z"/>
				<path style="fill:#9E7B64;" d="M640.174,704.114c0,0.774-0.775,1.546-1.546,1.546l0,0c-0.771,0-1.543-0.771-1.543-1.546V513.3
					c0-0.773,0.771-1.549,1.543-1.549l0,0c0.771,0,1.546,0.775,1.546,1.549V704.114z"/>
				<path style="fill:#70513C;" d="M638.628,511.751c-0.771,0-1.543,0.775-1.543,1.549v91.928l3.089,3.092V513.3
					C640.174,512.526,639.398,511.751,638.628,511.751z"/>
				<g>
					<path style="fill:#4F3E32;" d="M654.082,568.919c0,1.548-1.548,3.091-3.09,3.091H550.558c-1.547,0-3.093-1.543-3.093-3.091l0,0
						c0-1.546,1.546-3.093,3.093-3.093h100.435C652.534,565.826,654.082,567.373,654.082,568.919L654.082,568.919z"/>
					<path style="fill:#4F3E32;" d="M654.082,583.599c0,1.544-1.548,3.09-3.09,3.09H550.558c-1.547,0-3.093-1.546-3.093-3.09l0,0
						c0-1.544,1.546-3.089,3.093-3.089h100.435C652.534,580.51,654.082,582.055,654.082,583.599L654.082,583.599z"/>
					<path style="fill:#4F3E32;" d="M654.082,653.896c0,1.546-1.548,3.095-3.09,3.095H550.558c-1.547,0-3.093-1.549-3.093-3.095l0,0
						c0-1.542,1.546-3.086,3.093-3.086h100.435C652.534,650.81,654.082,651.581,654.082,653.896L654.082,653.896z"/>
					<path style="fill:#4F3E32;" d="M654.082,667.802c0,1.548-1.548,3.091-3.09,3.091H550.558c-1.547,0-3.093-1.543-3.093-3.091l0,0
						c0-1.539,1.546-3.087,3.093-3.087h100.435C652.534,664.715,654.082,666.263,654.082,667.802L654.082,667.802z"/>
				</g>
			</g>
		</g>
		<g>
			<path style="fill:#AF8366;" d="M663.354,510.979c0,3.865-3.096,6.953-6.958,6.953H545.15c-3.862,0-6.955-3.088-6.955-6.953
				V398.961c0-3.864,3.093-6.955,6.955-6.955h112.014c3.866,0,6.956,3.091,6.956,6.955v112.018H663.354z"/>
			<path style="fill:#9E735A;" d="M538.195,398.961c0-3.864,3.093-6.955,6.955-6.955h112.014c3.866,0,6.956,3.091,6.956,6.955
				v112.018c0,3.865-3.09,6.953-6.956,6.953"/>
			<g>
				<path style="fill:#997153;" d="M663.354,510.979c0,3.865-3.096,6.953-6.958,6.953H545.15c-3.862,0-6.955-3.088-6.955-6.953"/>
				<path style="fill:#997153;" d="M644.808,454.583c0,23.949-19.315,59.489-44.038,59.489c-23.943,0-44.03-35.54-44.03-59.489
					c0-23.945,19.312-44.033,44.03-44.033C624.722,411.321,644.808,430.638,644.808,454.583z"/>
			</g>
		</g>
		<g>
			<path style="fill:#EDEADA;" d="M600.77,410.55c24.321,0,44.038,19.712,44.038,44.033c0,24.317-19.717,44.036-44.038,44.036
				c-24.315,0-44.03-19.719-44.03-44.036C556.739,430.262,576.454,410.55,600.77,410.55z"/>
			<path style="fill:#DBD6C1;" d="M600.77,411.321c-13.902,0-26.262,6.176-33.985,16.223l61.802,61.801
				c10.042-7.721,16.222-20.085,16.222-33.986C644.808,430.638,624.722,411.321,600.77,411.321z"/>
			<path style="fill:#D7CF87;" d="M600.77,502.48c-26.262,0-47.125-20.856-47.125-47.122c0-26.269,20.863-47.129,47.125-47.129
				c26.274,0,47.128,20.86,47.128,47.129C647.897,480.851,627.044,502.48,600.77,502.48z M600.77,414.41
				c-22.402,0-40.169,17.769-40.169,40.173c0,22.402,17.767,40.172,40.169,40.172c22.408,0,40.174-17.77,40.174-40.172
				C640.943,432.179,623.178,414.41,600.77,414.41z"/>
			<path style="fill:#4F3E32;" d="M655.622,373.468c0,0.771-0.771,1.545-1.54,1.545H548.24c-0.775,0-1.544-0.773-1.544-1.545l0,0
				c0-0.775,0.769-1.545,1.544-1.545h105.063C654.082,371.923,655.622,372.692,655.622,373.468L655.622,373.468z"/>
		</g>
		<g>
			<path style="fill:#427852;" d="M558.285,385.827c0,0.774-0.774,1.546-1.546,1.546l0,0c-0.772,0-1.548-0.771-1.548-1.546v-5.407
				c0-0.772,0.775-1.548,1.548-1.548l0,0c0.771,0,1.546,0.775,1.546,1.548V385.827z"/>
			<path style="fill:#427852;" d="M567.555,385.827c0,0.774-0.771,1.546-1.547,1.546l0,0c-0.771,0-1.546-0.771-1.546-1.546v-5.407
				c0-0.772,0.774-1.548,1.546-1.548l0,0c0.776,0,1.547,0.775,1.547,1.548V385.827z"/>
			<path style="fill:#427852;" d="M576.051,385.827c0,0.774-0.771,1.546-1.543,1.546l0,0c-0.777,0-1.544-0.771-1.544-1.546v-5.407
				c0-0.772,0.767-1.548,1.544-1.548l0,0c0.771,0,1.543,0.775,1.543,1.548V385.827z"/>
			<path style="fill:#1F3625;" d="M584.553,385.827c0,0.774-0.776,1.546-1.548,1.546l0,0c-0.771,0-1.546-0.771-1.546-1.546v-5.407
				c0-0.772,0.774-1.548,1.546-1.548l0,0c0.771,0,1.548,0.775,1.548,1.548V385.827z"/>
			<path style="fill:#427852;" d="M593.822,385.827c0,0.774-0.772,1.546-1.547,1.546l0,0c-0.771,0-1.544-0.771-1.544-1.546v-5.407
				c0-0.772,0.772-1.548,1.544-1.548l0,0c0.774,0,1.547,0.775,1.547,1.548V385.827z"/>
			<path style="fill:#1F3625;" d="M602.319,385.827c0,0.774-0.774,1.546-1.55,1.546l0,0c-0.768,0-1.539-0.771-1.539-1.546v-5.407
				c0-0.772,0.771-1.548,1.539-1.548l0,0c0.775,0,1.55,0.775,1.55,1.548V385.827z"/>
			<path style="fill:#427852;" d="M610.819,385.827c0,0.774-0.779,1.546-1.544,1.546l0,0c-0.779,0-1.547-0.771-1.547-1.546v-5.407
				c0-0.772,0.768-1.548,1.547-1.548l0,0c0.765,0,1.544,0.775,1.544,1.548V385.827z"/>
			<path style="fill:#1F3625;" d="M619.317,385.827c0,0.774-0.776,1.546-1.551,1.546l0,0c-0.769,0-1.543-0.771-1.543-1.546v-5.407
				c0-0.772,0.774-1.548,1.543-1.548l0,0c0.774,0,1.551,0.775,1.551,1.548V385.827z"/>
			<path style="fill:#427852;" d="M628.586,385.827c0,0.774-0.771,1.546-1.542,1.546l0,0c-0.774,0-1.552-0.771-1.552-1.546v-5.407
				c0-0.772,0.777-1.548,1.552-1.548l0,0c0.771,0,1.542,0.775,1.542,1.548V385.827z"/>
			<path style="fill:#1F3625;" d="M637.085,385.827c0,0.774-0.775,1.546-1.546,1.546l0,0c-0.773,0-1.549-0.771-1.549-1.546v-5.407
				c0-0.772,0.775-1.548,1.549-1.548l0,0c0.771,0,1.546,0.775,1.546,1.548V385.827z"/>
			<path style="fill:#427852;" d="M645.584,385.827c0,0.774-0.776,1.546-1.551,1.546l0,0c-0.769,0-1.544-0.771-1.544-1.546v-5.407
				c0-0.772,0.775-1.548,1.544-1.548l0,0c0.774,0,1.551,0.775,1.551,1.548V385.827z"/>
		</g>
		<g>
			<path style="fill:#AF8366;" d="M603.089,453.039c0,1.544-0.77,2.319-2.319,2.319l0,0c-1.539,0-2.311-0.775-2.311-2.319v-32.445
				c0-1.548,0.771-2.32,2.311-2.32l0,0c1.55,0,2.319,0.772,2.319,2.32V453.039z"/>
			<path style="fill:#4F3E32;" d="M623.178,454.583c0,1.545-1.545,3.092-3.094,3.092h-20.082c-1.543,0-3.089-1.547-3.089-3.092l0,0
				c0-1.544,1.546-3.088,3.089-3.088h20.082C621.633,451.495,623.178,453.039,623.178,454.583L623.178,454.583z"/>
		</g>
		<g>
			<path style="fill:#997153;" d="M600.77,450.719c2.139,0,3.866,1.731,3.866,3.864c0,2.134-1.728,3.86-3.866,3.86
				c-2.127,0-3.856-1.727-3.856-3.86C596.913,452.45,598.643,450.719,600.77,450.719z"/>
			<g>
				<g>
					<path style="fill:#4F3E32;" d="M549.011,373.468c0,0.771-0.771,1.545-1.546,1.545l0,0c-0.769,0-1.543-0.773-1.543-1.545
						v-15.451c0-0.774,0.774-1.546,1.543-1.546l0,0c0.775,0,1.546,0.771,1.546,1.546V373.468z"/>
					<path style="fill:#4F3E32;" d="M551.334,366.515c0,0.772-0.776,1.541-1.548,1.541h-6.18c-0.774,0-1.543-0.769-1.543-1.541l0,0
						c0-0.771,0.769-1.547,1.543-1.547h6.18C551.334,365.743,551.334,366.515,551.334,366.515L551.334,366.515z"/>
					<path style="fill:#4F3E32;" d="M655.622,373.468c0,0.771-0.771,1.545-1.54,1.545l0,0c-0.779,0-1.548-0.773-1.548-1.545v-15.451
						c0-0.774,0.769-1.546,1.548-1.546l0,0c0.769,0,1.54,0.771,1.54,1.546V373.468z"/>
					<path style="fill:#4F3E32;" d="M658.715,366.515c0,0.772-0.775,1.541-1.551,1.541h-6.172c-0.78,0-1.547-0.769-1.547-1.541l0,0
						c0-0.771,0.767-1.547,1.547-1.547h6.172C657.939,365.743,658.715,366.515,658.715,366.515L658.715,366.515z"/>
					<path style="fill:#4F3E32;" d="M601.545,249.864c0,0.769-0.775,1.541-1.543,1.541l0,0c-0.771,0-1.543-0.772-1.543-1.541
						v-15.456c0-0.771,0.771-1.544,1.543-1.544l0,0c0.768,0,1.543,0.773,1.543,1.544V249.864z"/>
					<path style="fill:#4F3E32;" d="M604.636,242.909c0,0.77-0.769,1.543-1.547,1.543h-6.176c-0.776,0-1.545-0.773-1.545-1.543l0,0
						c0-0.776,0.769-1.549,1.545-1.549h6.176C603.867,242.133,604.636,242.909,604.636,242.909L604.636,242.909z"/>
				</g>
				<polygon style="fill:#604533;" points="647.126,346.429 600.002,245.226 552.877,346.429 				"/>
				<polygon style="fill:#422E20;" points="626.27,346.429 600.002,245.226 573.73,346.429 				"/>
				<path style="fill:#7F5B42;" d="M650.212,347.973c0,0.772-0.767,0.772-0.767,0.772h-98.888c-0.771,0-0.771-0.772-0.771-0.772l0,0
					c0-0.771,0.771-0.771,0.771-0.771h98.114C649.445,346.429,650.212,347.201,650.212,347.973L650.212,347.973z"/>
			</g>
		</g>
	</g>
	<g id="STARS">
		<path style="fill:#DAE3D9;" d="M783.658,264.584c0,0.78-0.63,1.412-1.408,1.412c-0.78,0-1.408-0.632-1.408-1.412
			c0-0.773,0.628-1.404,1.408-1.404C783.028,263.18,783.658,263.811,783.658,264.584z"/>
		<circle style="fill:#DAE3D9;" cx="946.559" cy="204.864" r="1.325"/>
		<path style="fill:#DAE3D9;" d="M876.419,267.32c0,0.729-0.593,1.322-1.32,1.322c-0.732,0-1.326-0.593-1.326-1.322
			c0-0.733,0.594-1.324,1.326-1.324C875.826,265.996,876.419,266.587,876.419,267.32z"/>
		<path style="fill:#99A4C0;" d="M786.561,253.675c0,0.731-0.592,1.328-1.321,1.328c-0.73,0-1.326-0.597-1.326-1.328
			c0-0.729,0.596-1.325,1.326-1.325C785.969,252.35,786.561,252.945,786.561,253.675z"/>
		<path style="fill:#99A4C0;" d="M346.162,283.507c0,1.023-0.832,1.854-1.85,1.854c-1.025,0-1.857-0.831-1.857-1.854
			s0.832-1.852,1.857-1.852C345.33,281.655,346.162,282.483,346.162,283.507z"/>
		<circle style="fill:#DAE3D9;" cx="761.329" cy="213.054" r="1.326"/>
		<path style="fill:#99A4C0;" d="M719.906,429.999c0,0.731-0.597,1.324-1.322,1.324c-0.734,0-1.331-0.593-1.331-1.324
			c0-0.729,0.597-1.322,1.331-1.322C719.31,428.677,719.906,429.27,719.906,429.999z"/>
		<g>
			<path style="fill:#DAE3D9;" d="M296.973,211.73c0,0.729-0.593,1.323-1.322,1.323c-0.734,0-1.33-0.594-1.33-1.323
				c0-0.73,0.595-1.325,1.33-1.325C296.379,210.405,296.973,211,296.973,211.73z"/>
		</g>
		<g>
			<circle style="fill:#DAE3D9;" cx="439.192" cy="223.883" r="1.325"/>
		</g>
		<g>
			<path style="fill:#99A4C0;" d="M306.58,225.566c0,0.931-0.756,1.686-1.686,1.686c-0.925,0-1.683-0.755-1.683-1.686
				c0-0.933,0.758-1.684,1.683-1.684C305.824,223.883,306.58,224.634,306.58,225.566z"/>
		</g>
		<g>
			<circle style="fill:#DAE3D9;" cx="285.57" cy="243.344" r="1.324"/>
		</g>
	</g>
</g>
<rect x="45.713" y="869.486" style="fill:#ECF0F1;stroke:#000000;stroke-width:2;stroke-opacity:0.59;" width="1108.574" height="153.494"/>
<g>
	<path style="fill:#1279BF;" d="M1092.354,958.74c-0.374,0.458-0.748,0.918-1.136,1.356c-0.383,0.44-0.779,0.871-1.192,1.294
		c-0.41,0.414-0.837,0.813-1.286,1.204c-0.409,0.365-0.823,0.711-1.254,1.055c-0.432,0.343-0.885,0.666-1.339,0.981
		c-0.453,0.304-0.911,0.605-1.387,0.878c-0.479,0.271-0.959,0.539-1.461,0.777c-0.577,0.264-1.176,0.508-1.783,0.741
		c-0.611,0.225-1.228,0.432-1.854,0.614c-0.625,0.181-1.268,0.341-1.893,0.486c-0.638,0.121-1.276,0.24-1.915,0.326
		c-0.272,0.044-0.555,0.081-0.832,0.107c-0.277,0.022-0.559,0.051-0.832,0.066c-0.272,0.018-0.559,0.024-0.836,0.028
		c-0.286,0-0.563,0-0.846,0c-0.189-0.011-0.383-0.011-0.576-0.022c-0.181-0.006-0.37-0.021-0.572-0.041
		c-0.186-0.009-0.388-0.029-0.581-0.047c-0.189-0.02-0.374-0.044-0.568-0.068c-0.383-0.046-0.766-0.116-1.145-0.191
		c-0.374-0.072-0.753-0.153-1.127-0.255c-0.369-0.086-0.739-0.196-1.109-0.304c-0.369-0.11-0.739-0.221-1.104-0.35l4.645,6.847
		c0.097,0.009,0.202,0.014,0.313,0.021c0.097,0,0.202,0.009,0.313,0.011c0.101,0.007,0.211,0.007,0.313,0.007
		c0.109,0.004,0.22,0.013,0.321,0.013c0.365,0.009,0.727,0.024,1.096,0.009c0.37-0.002,0.735-0.009,1.105-0.021
		c0.36-0.009,0.73-0.029,1.087-0.051c0.365-0.022,0.722-0.047,1.092-0.075c0.541-0.048,1.092-0.121,1.633-0.202
		c0.533-0.086,1.083-0.188,1.616-0.297c0.541-0.112,1.065-0.247,1.603-0.395c0.537-0.146,1.061-0.311,1.584-0.493
		c0.528-0.174,1.048-0.369,1.559-0.588c0.516-0.204,1.021-0.431,1.527-0.68c0.502-0.246,0.99-0.497,1.483-0.769
		c0.489-0.262,0.978-0.527,1.453-0.82c0.409-0.24,0.801-0.493,1.188-0.771c0.392-0.269,0.774-0.544,1.153-0.837
		c0.388-0.283,0.757-0.574,1.132-0.862c0.383-0.286,0.752-0.57,1.135-0.852l0.357-9.238
		C1093.076,957.82,1092.729,958.283,1092.354,958.74z"/>
	<g>
		<rect x="976.915" y="883.128" style="fill:none;" width="126.207" height="126.21"/>
		<path style="fill:#1279BF;" d="M1069.771,951.651c0.031,0.02,0.058,0.039,0.093,0.048c0.026,0.022,0.049,0.035,0.084,0.044
			c0.035,0.021,0.062,0.035,0.083,0.049c0.837,0.381,1.664,0.779,2.492,1.188c0.814,0.407,1.633,0.821,2.465,1.206
			c0.814,0.392,1.643,0.762,2.479,1.081c0.841,0.321,1.686,0.581,2.553,0.779c0.305,0.065,0.617,0.13,0.93,0.176
			c0.321,0.049,0.634,0.093,0.946,0.13c0.316,0.037,0.643,0.063,0.955,0.081c0.317,0.026,0.643,0.035,0.96,0.047
			c0.304,0.002,0.603,0.002,0.911,0c0.295-0.012,0.607-0.021,0.902-0.035c0.308-0.021,0.607-0.035,0.907-0.064
			c0.303-0.013,0.598-0.057,0.897-0.086c0.453-0.046,0.894-0.109,1.334-0.2c0.449-0.083,0.88-0.191,1.32-0.29
			c0.44-0.124,0.876-0.251,1.304-0.405c0.431-0.143,0.854-0.297,1.285-0.474c0.422-0.171,0.836-0.362,1.25-0.567
			c0.423-0.211,0.836-0.434,1.232-0.669c0.414-0.238,0.823-0.493,1.215-0.753c0.405-0.249,0.788-0.53,1.18-0.801
			c0.321-0.228,0.63-0.479,0.938-0.733c0.313-0.26,0.617-0.521,0.916-0.795c0.304-0.26,0.604-0.548,0.907-0.818
			s0.607-0.555,0.92-0.816l0.167-8.01c-0.255,0.394-0.515,0.792-0.774,1.187c-0.265,0.392-0.533,0.776-0.819,1.148
			c-0.269,0.372-0.555,0.742-0.858,1.109c-0.286,0.346-0.603,0.691-0.915,1.028c-0.335,0.35-0.691,0.704-1.044,1.039
			c-0.365,0.332-0.73,0.655-1.109,0.964c-0.374,0.316-0.761,0.601-1.157,0.88c-0.392,0.269-0.806,0.524-1.211,0.755
			c-0.479,0.28-0.969,0.531-1.479,0.76c-0.502,0.227-1.018,0.44-1.523,0.625c-0.516,0.193-1.043,0.35-1.567,0.495
			c-0.52,0.141-1.057,0.262-1.589,0.348c-0.221,0.035-0.44,0.073-0.651,0.095c-0.221,0.035-0.444,0.051-0.674,0.07
			c-0.216,0.014-0.44,0.022-0.665,0.031c-0.225,0-0.444,0.007-0.673,0c-0.177,0-0.356-0.009-0.524-0.018
			c-0.185-0.005-0.356-0.02-0.523-0.033c-0.185-0.009-0.356-0.028-0.541-0.051c-0.163-0.018-0.34-0.039-0.498-0.065
			c-0.444-0.064-0.881-0.147-1.303-0.256c-0.423-0.095-0.846-0.225-1.259-0.356c-0.423-0.13-0.837-0.277-1.246-0.434
			c-0.414-0.147-0.823-0.313-1.224-0.476c-1.083-0.434-2.157-0.902-3.218-1.406c-1.062-0.495-2.104-1.028-3.157-1.563
			c-1.043-0.553-2.077-1.101-3.116-1.66c-1.039-0.567-2.069-1.14-3.104-1.701l4.692,8.126
			C1069.701,951.62,1069.736,951.634,1069.771,951.651z"/>
		<path style="fill:#F8951D;" d="M1080.654,974.189c-3.504-0.732-6.758-2.661-10.086-4.138c-6.07-2.681-11.691-7.099-18.044-8.503
			c-0.766-0.176-1.545-0.255-2.337-0.255c-1.009,0-2.034,0.125-3.029,0.321c-1.906,0.363-3.781,1.023-5.498,2.042
			c-1.567,0.951-3.028,2.245-4.278,3.738c-1.466,1.747-2.61,3.902-3.707,6.035l0.018-9.696c0.542-1.45,1.889-2.277,2.984-3.18
			c1.634-1.374,3.407-2.431,5.274-3.273c1.897-0.856,3.918-1.51,5.947-1.708c0.471-0.042,0.946-0.063,1.413-0.063
			c1.703,0,3.402,0.255,5.062,0.632c1.722,0.411,3.363,1.168,5.032,1.917c6.374,2.779,12.379,6.82,18.832,9.337
			c0.414,0.158,0.836,0.297,1.25,0.439l-9.319-15.634c-5.895-2.626-11.405-6.73-17.591-8.054c-0.761-0.174-1.54-0.246-2.324-0.246
			c-1.017,0-2.047,0.125-3.046,0.313c-1.91,0.356-3.764,1.01-5.507,2.021c-1.571,0.916-3.021,2.157-4.271,3.609
			c-1.47,1.697-2.614,3.762-3.706,5.847l0.03-9.381c0.978-1.037,1.885-2.206,2.972-3.08c1.629-1.313,3.403-2.423,5.27-3.227
			c1.906-0.827,3.927-1.452,5.947-1.635c0.515-0.049,1.025-0.073,1.531-0.073c1.664,0,3.324,0.233,4.948,0.605
			c1.722,0.376,3.363,1.19,5.022,1.891c1.827,0.781,3.623,1.678,5.41,2.6l-24.581-41.19l-53.115,88.066h105.716l-9.363-15.7
			C1082.556,974.528,1081.601,974.386,1080.654,974.189z"/>
	</g>
</g>
<g>
	<g>
		<path style="fill:#3498DB;" d="M115.572,898.995l2.731,6.667l-6.588,2.69c-4.594,1.982-7.076,5.39-7.464,10.234
			c0.185,1.583,0.559,3.149,1.127,4.687l11.589,27.255c1.015,2.234,1.519,4.739,1.519,7.475c0,3.784-1.162,7.188-3.489,10.213
			c-2.326,3.035-5.228,5.175-8.689,6.437l-6.223,2.386l-2.837-6.896l6.348-2.196c2.322-0.766,4.16-2.043,5.517-3.854
			c1.351-1.8,2.024-3.82,2.024-6.088c0-1.761-0.308-3.422-0.946-4.965l-11.604-26.977c-0.951-2.423-1.521-4.91-1.708-7.475
			c0.092-3.774,1.21-7.182,3.354-10.229c2.145-3.037,5.085-5.298,8.82-6.803L115.572,898.995z"/>
		<path style="fill:#3498DB;" d="M152.745,945.464l-12.741,13.099l-5.094-5.064l10.097-10.229l-0.37-0.951
			c-1.32-2.751-3.154-4.115-5.482-4.115c-2.765,0-4.735,1.477-5.899,4.452c-1.173,2.98-1.754,6.436-1.754,10.383
			c0,3.88,0.576,7.342,1.729,10.378c1.149,3.015,3.064,4.529,5.736,4.529c0.862,0,1.743-0.227,2.642-0.706
			c0.897-0.474,1.593-1.127,2.082-1.971l0.55-0.862l6.52,3.732l-1.129,1.638c-3.161,4.527-6.777,6.795-10.849,6.795
			c-3.412,0-6.194-1.178-8.352-3.521c-2.156-2.345-3.711-5.329-4.668-8.959c-0.944-3.618-1.424-7.377-1.424-11.244
			c0.079-4.053,0.567-7.771,1.479-11.146c0.902-3.381,2.419-6.174,4.55-8.41c2.122-2.226,4.931-3.381,8.415-3.497
			c2.456,0,4.626,0.638,6.511,1.896c1.882,1.277,3.407,2.945,4.598,5.03c1.18,2.077,2.001,4.318,2.467,6.732L152.745,945.464z"/>
		<path style="fill:#3498DB;" d="M177.854,970.917c-0.62,1.257-1.624,2.419-3.024,3.476c-1.397,1.059-3.16,1.591-5.295,1.591
			c-4.625-0.081-7.801-2.346-9.549-6.795c-1.74-4.454-2.614-9.845-2.614-16.15c0-6.324,0.929-11.754,2.784-16.281
			c1.859-4.527,5.117-6.923,9.771-7.169c2.408,0,4.547,0.89,6.402,2.683l1.525,1.237v-38.443h6.607v79.968h-6.607V970.917z
			 M171.243,967.945c2.888,0,4.803-1.011,5.744-3.055c0.944-2.038,1.418-5.006,1.418-8.896v-3.544
			c-0.026-1.092-0.088-2.635-0.177-4.675c-0.079-2.045-0.33-3.744-0.748-5.133c-0.414-1.374-1.122-2.487-2.14-3.349
			c-1.017-0.847-2.44-1.278-4.285-1.278c-4.655,0.304-6.979,5.124-6.979,14.435c0.075,5.813,0.718,9.768,1.924,11.846
			C167.204,966.376,168.947,967.589,171.243,967.945z"/>
		<path style="fill:#3498DB;" d="M212.825,979.895v-7.45c-2.226,2.602-4.613,3.911-7.158,3.911c-9.235,0-13.98-7.618-14.245-22.857
			c0-3.923,0.409-7.671,1.237-11.261c0.832-3.579,2.275-6.57,4.322-8.979c2.05-2.412,4.75-3.69,8.113-3.86
			c2.635,0,4.706,1.079,6.211,3.244l1.332,1.64v-3.348h6.614v48.784c0,3.088-0.251,5.782-0.739,8.091
			c-0.493,2.313-1.404,4.268-2.743,5.873c-0.973,1.168-2.307,2.077-4.019,2.73c-1.713,0.658-3.614,0.982-5.696,0.982
			c-4.587,0-8.043-1.378-10.394-4.125l3.313-9.262c0.09,1.941,0.777,3.57,2.058,4.891c1.286,1.322,2.98,1.992,5.103,1.992
			c2.848-0.271,4.673-1.425,5.484-3.44C212.42,985.431,212.825,982.912,212.825,979.895z M198.122,953.119
			c0.044,4.812,0.629,8.494,1.752,11.047c1.118,2.558,3.114,3.881,5.978,3.973c2.796,0,4.685-1.103,5.675-3.277
			c0.983-2.191,1.479-5.405,1.479-9.632v-2.383c-0.028-1.112-0.088-2.703-0.171-4.808c-0.089-2.091-0.335-3.834-0.74-5.228
			c-0.4-1.397-1.115-2.524-2.135-3.405c-1.021-0.878-2.449-1.345-4.285-1.391c-2.701,0-4.643,1.343-5.811,4.076
			c-1.178,2.712-1.82,6.049-1.927,9.979C198.064,952.322,198.122,952.668,198.122,953.119z"/>
		<path style="fill:#3498DB;" d="M254.079,945.464l-12.735,13.099l-5.096-5.064l10.09-10.229l-0.367-0.951
			c-1.319-2.751-3.15-4.115-5.487-4.115c-2.763,0-4.729,1.477-5.895,4.452c-1.162,2.98-1.748,6.436-1.748,10.383
			c0,3.88,0.581,7.342,1.722,10.378c1.153,3.015,3.068,4.529,5.735,4.529c0.865,0,1.743-0.227,2.642-0.706
			c0.898-0.474,1.598-1.127,2.084-1.971l0.558-0.862l6.52,3.732l-1.132,1.638c-3.165,4.527-6.781,6.795-10.851,6.795
			c-3.407,0-6.194-1.178-8.352-3.521c-2.156-2.345-3.706-5.329-4.666-8.959c-0.95-3.618-1.422-7.377-1.422-11.244
			c0.075-4.053,0.56-7.771,1.475-11.146c0.907-3.381,2.419-6.174,4.548-8.41c2.126-2.226,4.935-3.381,8.417-3.497
			c2.456,0,4.631,0.638,6.51,1.896c1.88,1.277,3.412,2.945,4.592,5.03c1.188,2.077,2.01,4.318,2.468,6.732L254.079,945.464z"/>
		<path style="fill:#3498DB;" d="M272.759,977.619l-6.123-2.778l-10.09-43.906l6.033-1.536l7.552,37.404l9.816-36.058h0.181
			l9.725,35.871l7.924-37.218l6.308,1.536l-11.398,46.685l-6.15-2.778l-6.407-26.102L272.759,977.619z"/>
		<path style="fill:#3498DB;" d="M317.955,908.735l-3.764,11.007l-4.318-11.007H317.955z M310.333,975.032v-44.287h7.253v44.287
			H310.333z"/>
		<path style="fill:#3498DB;" d="M345.028,966.616l2.549,7.448c-1.64,1.666-3.722,2.507-6.238,2.507c-3.49,0-6.308-1.146-8.47-3.438
			c-2.154-2.286-3.685-5.196-4.593-8.727c-0.905-3.546-1.358-7.33-1.358-11.368c0-3.965,0.462-7.667,1.391-11.101
			c0.934-3.442,2.489-6.281,4.685-8.511c2.184-2.232,5.029-3.381,8.533-3.442c2.472,0,4.488,0.761,6.051,2.286l-2.549,7.262
			c-0.757-0.516-1.271-0.852-1.539-0.995c-0.266-0.141-0.855-0.255-1.756-0.334c-2.674,0-4.59,1.477-5.738,4.439
			c-1.153,2.974-1.764,6.431-1.813,10.396c0,4.027,0.52,7.517,1.575,10.475c1.049,2.958,2.912,4.433,5.582,4.433
			c0.656,0,1.176-0.051,1.555-0.161c0.381-0.109,0.73-0.266,1.061-0.488C344.284,967.087,344.646,966.854,345.028,966.616z"/>
		<path style="fill:#3498DB;" d="M353.342,974.841v-79.776h7.166v79.776H353.342z M375.314,976.571l-13.866-27.465l9.235-20.17
			l6.801,3.141l-8.498,17.029l12.944,23.543L375.314,976.571z"/>
		<path style="fill:#3498DB;" d="M429.016,935.418l12.92,25.269l5.942-6.979l4.543,4.483l-7.554,8.426l4.42,8.416l-5.182,3.326
			l-3.478-7.259c-3.887,3.378-8.484,5.073-13.778,5.073c-5.344-0.093-9.482-1.939-12.405-5.533
			c-2.923-3.61-4.389-8.094-4.389-13.501c0-0.641,0.06-1.587,0.188-2.87c0.332-3.236,1.05-6.117,2.154-8.64
			c1.101-2.526,2.349-4.692,3.769-6.495c1.406-1.805,3.057-3.607,4.926-5.415c-1.734-3.277-2.923-5.555-3.562-6.85
			c-0.634-1.32-1.234-2.892-1.809-4.754c-0.566-1.875-0.921-3.96-1.062-6.29c0-2.692,0.595-5.263,1.77-7.706
			c1.169-2.445,2.8-4.418,4.878-5.919c2.084-1.496,4.397-2.249,6.946-2.249c4.622,0.09,8.152,1.487,10.598,4.192
			c2.441,2.701,3.661,6.28,3.661,10.726c-0.045,2.248-0.479,4.325-1.299,6.242c-0.823,1.913-1.864,3.649-3.121,5.19
			c-1.264,1.552-2.65,3.046-4.16,4.473C432.423,932.205,430.78,933.748,429.016,935.418z M424.107,939.743
			c-1.643,1.541-2.976,3.191-3.993,4.941c-1.021,1.77-1.805,3.607-2.351,5.54c-0.546,1.929-1.008,4.173-1.391,6.731
			c0.039,3.638,1.032,6.715,2.967,9.229c1.937,2.516,4.563,3.766,7.88,3.766c3.944,0,7.443-1.36,10.479-4.094L424.107,939.743z
			 M421.092,914.869c0,2.408,0.414,4.713,1.241,6.905c0.83,2.188,2.089,4.785,3.76,7.813l2.528-2.201
			c4.734-4.078,7.101-8.447,7.101-13.103c0-1.638-0.31-3.049-0.939-4.246c-0.621-1.201-1.479-2.137-2.586-2.786
			c-1.107-0.669-2.357-1.002-3.764-1.002c-2.159,0-3.925,0.806-5.292,2.413C421.774,910.263,421.092,912.327,421.092,914.869z"/>
		<path style="fill:#3498DB;" d="M491.124,945.464v29.377h-7.171v-29.377h-5.85l2.562-7.448h3.288v-36.731h20.276l2.558,7.451
			h-15.869v29.28h12.36v7.448H491.124z"/>
		<path style="fill:#3498DB;" d="M538.852,945.464l-12.739,13.099l-5.089-5.064l10.09-10.229l-0.37-0.951
			c-1.32-2.751-3.147-4.115-5.48-4.115c-2.765,0-4.732,1.477-5.899,4.452c-1.166,2.98-1.752,6.436-1.752,10.383
			c0,3.88,0.581,7.342,1.73,10.378c1.153,3.015,3.063,4.529,5.731,4.529c0.867,0,1.739-0.227,2.637-0.706
			c0.907-0.474,1.594-1.127,2.091-1.971l0.551-0.862l6.52,3.732l-1.127,1.638c-3.161,4.527-6.779,6.795-10.847,6.795
			c-3.412,0-6.194-1.178-8.355-3.521c-2.157-2.345-3.716-5.329-4.666-8.959c-0.951-3.618-1.422-7.377-1.422-11.244
			c0.07-4.053,0.563-7.771,1.475-11.146c0.897-3.381,2.417-6.174,4.543-8.41c2.126-2.226,4.935-3.381,8.426-3.497
			c2.456,0,4.622,0.638,6.506,1.896c1.875,1.277,3.412,2.945,4.592,5.03c1.188,2.077,2.003,4.318,2.465,6.732L538.852,945.464z"/>
		<path style="fill:#3498DB;" d="M551.987,937.622c1.188-2.248,2.483-4.051,3.865-5.41c1.382-1.367,3.112-2.043,5.182-2.043h1.136
			l-2.466,7.262c-1.461,0.318-2.43,0.541-2.905,0.687c-0.479,0.156-1.048,0.55-1.703,1.222c-0.872,0.825-1.616,2.333-2.215,4.519
			c-0.599,2.194-0.894,4.738-0.894,7.626v23.357h-6.432v-44.096h6.432V937.622z"/>
		<path style="fill:#3498DB;" d="M580.361,977.619l-6.128-2.778l-10.092-43.906l6.04-1.536l7.552,37.404l9.816-36.058h0.181
			l9.73,35.871l7.924-37.218l6.309,1.536l-11.401,46.685l-6.157-2.778l-6.404-26.102L580.361,977.619z"/>
		<path style="fill:#3498DB;" d="M643.203,945.464l-12.74,13.099l-5.084-5.064l10.09-10.229l-0.365-0.951
			c-1.325-2.751-3.156-4.115-5.49-4.115c-2.755,0-4.731,1.477-5.89,4.452c-1.175,2.98-1.756,6.436-1.756,10.383
			c0,3.88,0.572,7.342,1.726,10.378c1.153,3.015,3.063,4.529,5.735,4.529c0.858,0,1.739-0.227,2.646-0.706
			c0.894-0.474,1.59-1.127,2.082-1.971l0.546-0.862l6.52,3.732l-1.127,1.638c-3.169,4.527-6.774,6.795-10.851,6.795
			c-3.403,0-6.189-1.178-8.347-3.521c-2.161-2.345-3.715-5.329-4.671-8.959c-0.95-3.618-1.426-7.377-1.426-11.244
			c0.075-4.053,0.572-7.771,1.479-11.146c0.902-3.381,2.416-6.174,4.547-8.41c2.122-2.226,4.931-3.381,8.417-3.497
			c2.461,0,4.627,0.638,6.511,1.896c1.88,1.277,3.407,2.945,4.596,5.03c1.18,2.077,1.998,4.318,2.47,6.732L643.203,945.464z"/>
		<path style="fill:#3498DB;" d="M668.321,970.917c-0.621,1.257-1.629,2.419-3.024,3.476c-1.404,1.059-3.156,1.591-5.3,1.591
			c-4.622-0.081-7.81-2.346-9.544-6.795c-1.748-4.454-2.623-9.845-2.623-16.15c0-6.324,0.938-11.754,2.79-16.281
			c1.867-4.527,5.115-6.923,9.773-7.169c2.407,0,4.542,0.89,6.4,2.683l1.527,1.237v-38.443h6.604v79.968h-6.604V970.917z
			 M661.705,967.945c2.883,0,4.803-1.011,5.749-3.055c0.942-2.038,1.408-5.006,1.408-8.896v-3.544
			c-0.03-1.092-0.088-2.635-0.162-4.675c-0.089-2.045-0.335-3.744-0.753-5.133c-0.414-1.374-1.127-2.487-2.14-3.349
			c-1.017-0.847-2.443-1.278-4.288-1.278c-4.652,0.304-6.981,5.124-6.981,14.435c0.079,5.813,0.718,9.768,1.924,11.846
			C657.664,966.376,659.411,967.589,661.705,967.945z"/>
		<path style="fill:#3498DB;" d="M702.362,971.1c-2.152,3.378-4.851,5.073-8.104,5.073c-2.892-0.11-5.233-1.285-7.029-3.518
			c-1.792-2.231-3.086-5.029-3.874-8.379c-0.774-3.332-1.211-6.865-1.285-10.569c0-4.088,0.453-7.977,1.36-11.644
			c0.902-3.658,2.297-6.665,4.186-8.984c1.897-2.313,4.227-3.535,7.004-3.681c2.659,0,4.864,1.013,6.612,3.056l1.505,1.626v-3.335
			h6.423v44.466h-6.797V971.1z M695.751,967.945h0.18c2.817,0,4.685-0.909,5.617-2.714c0.925-1.815,1.392-4.585,1.392-8.291v-3.927
			c-0.031-1.134-0.093-2.78-0.172-4.917c-0.084-2.14-0.33-3.929-0.739-5.387c-0.405-1.45-1.127-2.625-2.153-3.543
			c-1.029-0.911-2.469-1.352-4.31-1.352c-2.293,0.163-4.023,1.842-5.203,5.029c-1.184,3.207-1.778,6.687-1.778,10.453
			C688.8,963.065,691.19,967.945,695.751,967.945z"/>
	</g>
	<g>
		<path style="fill:#2B2B2B;" d="M754.156,971.795c-1.778,2.784-4.002,4.176-6.687,4.176c-2.368-0.091-4.292-1.055-5.784-2.888
			c-1.475-1.847-2.536-4.143-3.184-6.905c-0.646-2.747-0.994-5.652-1.061-8.714c0-3.363,0.379-6.565,1.118-9.579
			c0.744-3.026,1.893-5.496,3.447-7.399c1.558-1.906,3.486-2.921,5.771-3.037c2.192,0,4.002,0.843,5.441,2.507l1.241,1.349v-2.735
			h5.287v36.607h-5.591V971.795z M748.711,969.2h0.154c2.307,0,3.848-0.749,4.613-2.252c0.766-1.481,1.145-3.757,1.145-6.808v-3.249
			c-0.022-0.924-0.07-2.275-0.141-4.041c-0.071-1.768-0.273-3.237-0.607-4.441c-0.326-1.193-0.921-2.159-1.774-2.91
			c-0.846-0.753-2.034-1.127-3.539-1.127c-1.889,0.135-3.315,1.525-4.297,4.158c-0.973,2.626-1.457,5.498-1.457,8.602
			C742.983,965.168,744.956,969.2,748.711,969.2z"/>
		<path style="fill:#2B2B2B;" d="M771.875,944.214c0.985-1.847,2.042-3.323,3.183-4.45c1.14-1.123,2.566-1.68,4.27-1.68h0.929
			l-2.024,5.984c-1.206,0.247-1.999,0.438-2.391,0.557c-0.4,0.128-0.862,0.463-1.408,1.02c-0.723,0.678-1.33,1.913-1.818,3.72
			c-0.493,1.807-0.739,3.896-0.739,6.277v19.229h-5.301v-36.302h5.301V944.214z"/>
		<path style="fill:#2B2B2B;" d="M798.283,968.106l2.108,6.132c-1.365,1.366-3.073,2.058-5.146,2.058
			c-2.87,0-5.203-0.946-6.978-2.821c-1.773-1.894-3.037-4.286-3.781-7.2c-0.744-2.907-1.118-6.039-1.118-9.363
			c0-3.257,0.383-6.297,1.149-9.136c0.757-2.835,2.042-5.175,3.848-7.006c1.809-1.843,4.146-2.791,7.034-2.844
			c2.034,0,3.693,0.631,4.992,1.888l-2.108,5.989c-0.626-0.434-1.048-0.709-1.269-0.818c-0.216-0.13-0.7-0.218-1.452-0.284
			c-2.192,0-3.769,1.22-4.72,3.662c-0.95,2.445-1.448,5.292-1.492,8.549c0,3.315,0.428,6.198,1.29,8.638
			c0.867,2.428,2.403,3.651,4.604,3.651c0.546,0,0.969-0.042,1.281-0.135c0.304-0.088,0.594-0.227,0.871-0.409
			C797.671,968.478,797.957,968.289,798.283,968.106z"/>
		<path style="fill:#2B2B2B;" d="M810.705,954.534v20.336h-5.3v-65.699h5.3v31.977c0.723-1.019,1.748-1.871,3.073-2.533
			c1.325-0.683,2.737-1.01,4.234-1.01c2.668,0,4.873,1.12,6.621,3.389c1.752,2.254,2.637,5.857,2.637,10.799v23.24h-5.296v-23.1
			c0-1.831-0.321-3.506-0.978-5.066c-0.664-1.561-1.977-2.34-3.917-2.34c-1.964,0-3.408,0.486-4.332,1.453
			c-0.934,0.973-1.51,2.128-1.722,3.469C810.815,950.806,810.705,952.494,810.705,954.534z"/>
		<path style="fill:#2B2B2B;" d="M841.251,920.436l-3.107,9.068l-3.553-9.068H841.251z M834.974,975.032v-36.464h5.97v36.464
			H834.974z"/>
		<path style="fill:#2B2B2B;" d="M853.054,943.835h-5.278l1.461-5.126h3.817v-29.538h5.291v29.397h7.127l-1.778,5.267h-5.349v31.197
			h-5.291V943.835z"/>
		<path style="fill:#2B2B2B;" d="M891.897,950.676l-10.49,10.792l-4.195-4.178l8.307-8.423l-0.299-0.786
			c-1.079-2.252-2.589-3.381-4.513-3.381c-2.271,0-3.9,1.222-4.847,3.671c-0.973,2.454-1.452,5.301-1.452,8.54
			c0,3.207,0.479,6.063,1.417,8.549c0.955,2.494,2.536,3.74,4.728,3.74c0.709,0,1.436-0.188,2.175-0.588
			c0.739-0.396,1.316-0.931,1.722-1.627l0.449-0.711l5.37,3.075l-0.929,1.352c-2.602,3.729-5.582,5.595-8.932,5.595
			c-2.809,0-5.098-0.959-6.881-2.9c-1.77-1.913-3.06-4.381-3.839-7.36c-0.788-2.991-1.184-6.084-1.184-9.271
			c0.065-3.341,0.471-6.392,1.21-9.18c0.753-2.78,2.003-5.087,3.755-6.923c1.753-1.831,4.063-2.8,6.938-2.886
			c2.021,0,3.812,0.52,5.353,1.561c1.554,1.041,2.813,2.428,3.786,4.143c0.968,1.708,1.65,3.563,2.033,5.545L891.897,950.676z"/>
		<path style="fill:#2B2B2B;" d="M910.315,968.106l2.108,6.132c-1.355,1.366-3.063,2.058-5.142,2.058
			c-2.865,0-5.194-0.946-6.968-2.821c-1.783-1.894-3.038-4.286-3.791-7.2c-0.743-2.907-1.109-6.039-1.109-9.363
			c0-3.257,0.379-6.297,1.141-9.136c0.766-2.835,2.052-5.175,3.86-7.006c1.801-1.843,4.134-2.791,7.026-2.844
			c2.042,0,3.697,0.631,4.982,1.888l-2.108,5.989c-0.611-0.434-1.03-0.709-1.25-0.818c-0.229-0.13-0.713-0.218-1.462-0.284
			c-2.196,0-3.768,1.22-4.719,3.662c-0.951,2.445-1.452,5.292-1.497,8.549c0,3.315,0.432,6.198,1.299,8.638
			c0.867,2.428,2.395,3.651,4.596,3.651c0.542,0,0.969-0.042,1.286-0.135c0.313-0.088,0.594-0.227,0.871-0.409
			C909.708,968.478,910.008,968.289,910.315,968.106z"/>
		<path style="fill:#2B2B2B;" d="M920.811,943.835h-5.266l1.457-5.126h3.809v-29.538h5.295v29.397h7.132l-1.778,5.267h-5.354v31.197
			h-5.295V943.835z"/>
		<path style="fill:#2B2B2B;" d="M944.651,937.063l4.213,4.71l-2.729,2.624c-0.924,0.964-1.606,1.864-2.042,2.661
			c-0.423,0.792-0.757,1.829-0.999,3.086c0.176,1.514,0.797,2.932,1.879,4.243l1.162,1.581c2.329,2.971,3.5,5.779,3.5,8.425
			c0,3.051-1.606,6.117-4.815,9.21l-3.033,2.997l-4.455-4.325l2.738-2.612c1.18-1.083,2.012-1.943,2.505-2.566
			c0.479-0.625,0.762-1.417,0.845-2.405c0-2.015-0.704-3.902-2.117-5.648l-1.396-1.752c-1.866-2.364-2.87-4.915-3.033-7.631
			c0.163-2.307,0.802-4.517,1.946-6.621c0.453-0.788,0.981-1.499,1.549-2.112c0.59-0.623,1.396-1.378,2.422-2.259
			C943.815,937.789,944.437,937.252,944.651,937.063z"/>
	</g>
</g>
<g>
	<path style="fill:#FFFFFF;" d="M1152.299,1168.506c0,4.703-3.813,8.514-8.516,8.514c-0.004,0-0.008,0-0.008,0H864.803
		c-4.707,0.006-8.527-3.807-8.535-8.514v-67.893c0.008-4.707,3.824-8.521,8.535-8.523h278.969c4.707,0,8.523,3.814,8.523,8.521
		c0,0.002,0,0.002,0,0.002L1152.299,1168.506L1152.299,1168.506z"/>
	<path style="fill:#262626;" d="M1143.775,1179H864.803c-5.801-0.002-10.504-4.695-10.516-10.494v-67.889
		c0.012-5.801,4.715-10.502,10.516-10.506h278.969c5.801,0.008,10.504,4.705,10.516,10.506v67.889
		C1154.291,1174.295,1149.564,1179,1143.775,1179L1143.775,1179z"/>
	<path style="fill:#2B2B2B;" d="M1152.299,1168.506c0,4.703-3.813,8.514-8.516,8.514c-0.004,0-0.008,0-0.008,0H864.803
		c-4.707,0.006-8.527-3.807-8.535-8.514v-67.893c0.008-4.707,3.824-8.521,8.535-8.523h278.969c4.707,0,8.523,3.814,8.523,8.521
		c0,0.002,0,0.002,0,0.002L1152.299,1168.506L1152.299,1168.506z"/>
	<path style="fill:#FFFFFF;" d="M921.275,1134.088c-0.063-7.164,5.867-10.65,6.141-10.813c-3.359-4.896-8.566-5.564-10.398-5.619
		c-4.371-0.459-8.617,2.617-10.844,2.617c-2.273,0-5.703-2.572-9.398-2.496c-4.762,0.072-9.211,2.826-11.652,7.104
		c-5.039,8.721-1.281,21.535,3.547,28.584c2.414,3.453,5.234,7.307,8.93,7.17c3.613-0.146,4.961-2.301,9.32-2.301
		c4.32,0,5.59,2.301,9.355,2.215c3.879-0.061,6.32-3.469,8.648-6.951c2.793-3.955,3.91-7.854,3.957-8.053
		C928.791,1145.514,921.35,1142.672,921.275,1134.088L921.275,1134.088z M914.162,1113.02c1.941-2.43,3.273-5.734,2.902-9.088
		c-2.813,0.123-6.328,1.943-8.355,4.32c-1.793,2.094-3.395,5.525-2.98,8.754C908.889,1117.24,912.135,1115.412,914.162,1113.02
		L914.162,1113.02z"/>
	<g>
		<path style="fill:#FFFFFF;" d="M973.607,1160.139h-5.047l-2.766-8.688h-9.617l-2.633,8.688h-4.918l9.527-29.58h5.883
			L973.607,1160.139L973.607,1160.139z M964.959,1147.805l-2.5-7.725c-0.266-0.789-0.762-2.646-1.492-5.572h-0.09
			c-0.293,1.258-0.762,3.117-1.406,5.572l-2.457,7.725H964.959z M998.061,1149.213c0,3.627-0.984,6.494-2.957,8.6
			c-1.766,1.873-3.957,2.809-6.574,2.809c-2.828,0-4.859-1.006-6.094-3.025v11.193h-4.742v-22.969c0-2.279-0.059-4.615-0.172-7.012
			h4.168l0.262,3.381h0.09c1.582-2.547,3.98-3.82,7.199-3.82c2.52,0,4.621,0.994,6.301,2.982
			C997.221,1143.346,998.061,1145.965,998.061,1149.213L998.061,1149.213z M993.232,1149.385c0-2.076-0.469-3.787-1.406-5.137
			c-1.023-1.402-2.398-2.105-4.125-2.105c-1.172,0-2.234,0.393-3.184,1.164c-0.949,0.777-1.574,1.793-1.863,3.051
			c-0.133,0.471-0.203,0.955-0.223,1.443v3.559c0,1.549,0.477,2.859,1.43,3.93c0.949,1.066,2.188,1.604,3.707,1.604
			c1.785,0,3.176-0.691,4.172-2.063C992.736,1153.453,993.232,1151.639,993.232,1149.385z M1022.604,1149.213
			c0,3.627-0.988,6.494-2.961,8.6c-1.766,1.873-3.957,2.809-6.578,2.809c-2.824,0-4.855-1.006-6.09-3.025v11.193h-4.742v-22.969
			c0-2.279-0.059-4.615-0.176-7.012h4.168l0.266,3.381h0.09c1.578-2.547,3.977-3.82,7.199-3.82c2.516,0,4.617,0.994,6.301,2.982
			C1021.756,1143.346,1022.604,1145.965,1022.604,1149.213L1022.604,1149.213z M1017.771,1149.385c0-2.076-0.469-3.787-1.41-5.137
			c-1.023-1.402-2.395-2.105-4.121-2.105c-1.168,0-2.23,0.393-3.188,1.164c-0.949,0.777-1.57,1.793-1.863,3.051
			c-0.145,0.588-0.219,1.066-0.219,1.443v3.559c0,1.549,0.477,2.859,1.422,3.93c0.953,1.064,2.188,1.604,3.715,1.604
			c1.789,0,3.176-0.691,4.168-2.063C1017.271,1153.453,1017.771,1151.639,1017.771,1149.385z M1050.037,1151.842
			c0,2.518-0.879,4.566-2.629,6.146c-1.926,1.725-4.613,2.59-8.059,2.59c-3.184,0-5.738-0.615-7.664-1.844l1.098-3.949
			c2.078,1.23,4.363,1.844,6.848,1.844c1.789,0,3.176-0.404,4.168-1.207c0.996-0.805,1.496-1.879,1.496-3.223
			c0-1.201-0.414-2.209-1.23-3.029c-0.82-0.818-2.176-1.58-4.082-2.281c-5.18-1.932-7.773-4.756-7.773-8.473
			c0-2.428,0.918-4.414,2.742-5.969c1.828-1.551,4.254-2.326,7.27-2.326c2.691,0,4.934,0.469,6.715,1.404l-1.188,3.863
			c-1.68-0.908-3.57-1.361-5.688-1.361c-1.672,0-2.984,0.412-3.922,1.23c-0.789,0.73-1.188,1.621-1.188,2.68
			c0,1.168,0.453,2.137,1.359,2.896c0.789,0.701,2.227,1.463,4.301,2.281c2.551,1.027,4.422,2.223,5.621,3.596
			C1049.439,1148.086,1050.037,1149.799,1050.037,1151.842L1050.037,1151.842z M1065.752,1142.365h-5.227v10.357
			c0,2.633,0.922,3.947,2.766,3.947c0.848,0,1.551-0.072,2.105-0.221l0.133,3.6c-0.934,0.348-2.164,0.523-3.688,0.523
			c-1.871,0-3.332-0.57-4.391-1.713c-1.051-1.143-1.582-3.057-1.582-5.75v-10.752h-3.109v-3.557h3.109v-3.906l4.656-1.404v5.311
			h5.227V1142.365L1065.752,1142.365z M1089.279,1149.299c0,3.279-0.938,5.971-2.809,8.076c-1.961,2.166-4.566,3.246-7.813,3.246
			c-3.137,0-5.629-1.037-7.488-3.111c-1.859-2.078-2.789-4.697-2.789-7.855c0-3.305,0.961-6.012,2.875-8.117
			c1.918-2.107,4.504-3.162,7.75-3.162c3.133,0,5.648,1.041,7.551,3.117C1088.377,1143.506,1089.279,1146.107,1089.279,1149.299
			L1089.279,1149.299z M1084.365,1149.408c0-1.955-0.422-3.631-1.27-5.033c-0.992-1.693-2.414-2.541-4.258-2.541
			c-1.898,0-3.355,0.848-4.348,2.541c-0.852,1.402-1.273,3.107-1.273,5.121c0,1.957,0.422,3.637,1.273,5.035
			c1.023,1.693,2.453,2.541,4.305,2.541c1.813,0,3.234-0.865,4.262-2.584C1083.928,1153.053,1084.365,1151.365,1084.365,1149.408
			L1084.365,1149.408z M1104.693,1142.977c-0.492-0.088-0.992-0.133-1.492-0.131c-1.668,0-2.957,0.627-3.863,1.889
			c-0.789,1.113-1.184,2.518-1.184,4.213v11.191h-4.742v-14.611c0.004-2.24-0.039-4.479-0.137-6.717h4.129l0.172,4.082h0.133
			c0.504-1.402,1.289-2.533,2.371-3.381c0.988-0.74,2.191-1.141,3.426-1.143c0.438,0,0.832,0.031,1.184,0.086L1104.693,1142.977z
			 M1125.896,1148.465c0.012,0.721-0.047,1.441-0.176,2.15h-14.219c0.051,2.107,0.742,3.721,2.063,4.832
			c1.199,0.992,2.746,1.488,4.652,1.488c2.105,0,4.027-0.332,5.754-1.006l0.742,3.287c-2.02,0.881-4.402,1.318-7.152,1.318
			c-3.309,0-5.906-0.973-7.797-2.916c-1.883-1.945-2.828-4.559-2.828-7.834c0-3.213,0.875-5.893,2.637-8.029
			c1.84-2.279,4.328-3.42,7.457-3.42c3.078,0,5.402,1.141,6.984,3.42C1125.268,1143.564,1125.896,1145.805,1125.896,1148.465
			L1125.896,1148.465z M1121.377,1147.236c0.031-1.408-0.281-2.619-0.922-3.645c-0.82-1.32-2.082-1.977-3.777-1.977
			c-1.547,0-2.813,0.643-3.773,1.932c-0.789,1.023-1.258,2.256-1.402,3.686L1121.377,1147.236L1121.377,1147.236z"/>
	</g>
	<g>
		<path style="fill:#FFFFFF;" d="M954.811,1120.1c-1.316,0-2.457-0.064-3.406-0.174v-14.301c1.328-0.205,2.668-0.307,4.012-0.303
			c5.438,0,7.941,2.674,7.941,7.033C963.357,1117.383,960.4,1120.1,954.811,1120.1z M955.607,1107.156
			c-0.734,0-1.359,0.045-1.875,0.15v10.873c0.277,0.043,0.816,0.064,1.574,0.064c3.563,0,5.59-2.027,5.59-5.824
			C960.896,1109.035,959.061,1107.156,955.607,1107.156z M971.158,1120.209c-3.063,0-5.051-2.287-5.051-5.393
			c0-3.236,2.031-5.545,5.223-5.545c3.02,0,5.051,2.18,5.051,5.373C976.381,1117.922,974.287,1120.209,971.158,1120.209
			L971.158,1120.209z M971.248,1110.975c-1.684,0-2.762,1.574-2.762,3.775c0,2.158,1.102,3.732,2.738,3.732
			c1.641,0,2.738-1.684,2.738-3.777C973.963,1112.57,972.885,1110.975,971.248,1110.975L971.248,1110.975z M993.854,1109.488
			l-3.281,10.482h-2.137l-1.359-4.553c-0.336-1.113-0.617-2.242-0.84-3.385h-0.047c-0.168,1.143-0.496,2.287-0.84,3.385
			l-1.445,4.553h-2.156l-3.086-10.482h2.395l1.184,4.982c0.281,1.188,0.52,2.309,0.715,3.365h0.043
			c0.172-0.881,0.453-1.984,0.863-3.342l1.488-5.004h1.898l1.426,4.896c0.344,1.188,0.625,2.352,0.844,3.453h0.063
			c0.152-1.078,0.387-2.225,0.711-3.453l1.273-4.896L993.854,1109.488L993.854,1109.488z M1005.928,1119.971h-2.332v-6.02
			c0-1.854-0.711-2.783-2.113-2.783c-1.383,0-2.332,1.188-2.332,2.568v6.234h-2.328v-7.486c0-0.928-0.023-1.92-0.086-2.998h2.047
			l0.109,1.617h0.066c0.625-1.121,1.898-1.832,3.324-1.832c2.199,0,3.645,1.684,3.645,4.422V1119.971L1005.928,1119.971z
			 M1012.354,1119.971h-2.336v-15.293h2.336V1119.971z M1020.846,1120.209c-3.059,0-5.047-2.287-5.047-5.393
			c0-3.236,2.027-5.545,5.219-5.545c3.023,0,5.051,2.18,5.051,5.373C1026.072,1117.922,1023.975,1120.209,1020.846,1120.209
			L1020.846,1120.209z M1020.936,1110.975c-1.684,0-2.762,1.574-2.762,3.775c0,2.158,1.102,3.732,2.734,3.732
			c1.641,0,2.742-1.684,2.742-3.777C1023.65,1112.57,1022.576,1110.975,1020.936,1110.975L1020.936,1110.975z M1035.256,1119.971
			l-0.168-1.207h-0.063c-0.711,0.971-1.75,1.445-3.066,1.445c-1.879,0-3.215-1.316-3.215-3.086c0-2.588,2.246-3.926,6.129-3.926
			v-0.193c0-1.381-0.73-2.072-2.176-2.072c-1.035,0-1.941,0.262-2.742,0.779l-0.473-1.531c0.969-0.605,2.18-0.908,3.602-0.908
			c2.738,0,4.121,1.445,4.121,4.338v3.861c0,1.057,0.047,1.877,0.152,2.502L1035.256,1119.971L1035.256,1119.971z M1034.936,1114.75
			c-2.59,0-3.887,0.627-3.887,2.113c0,1.1,0.668,1.639,1.598,1.639c1.188,0,2.289-0.906,2.289-2.135V1114.75z M1048.521,1119.971
			l-0.109-1.684h-0.066c-0.668,1.271-1.793,1.922-3.363,1.922c-2.531,0-4.402-2.223-4.402-5.352c0-3.277,1.941-5.588,4.59-5.588
			c1.406,0,2.398,0.475,2.957,1.426h0.047v-6.018h2.336v12.467c0,1.014,0.023,1.963,0.086,2.826H1048.521L1048.521,1119.971z
			 M1048.174,1113.803c0-1.467-0.969-2.719-2.453-2.719c-1.727,0-2.785,1.531-2.785,3.688c0,2.113,1.098,3.561,2.738,3.561
			c1.465,0,2.5-1.273,2.5-2.783V1113.803L1048.174,1113.803z M1065.295,1120.209c-3.063,0-5.047-2.287-5.047-5.393
			c0-3.236,2.027-5.545,5.223-5.545c3.02,0,5.047,2.18,5.047,5.373C1070.521,1117.922,1068.428,1120.209,1065.295,1120.209
			L1065.295,1120.209z M1065.381,1110.975c-1.68,0-2.758,1.574-2.758,3.775c0,2.158,1.102,3.732,2.738,3.732
			c1.641,0,2.738-1.684,2.738-3.777C1068.104,1112.57,1067.025,1110.975,1065.381,1110.975L1065.381,1110.975z M1083.049,1119.971
			h-2.332v-6.02c0-1.854-0.711-2.783-2.113-2.783c-1.383,0-2.328,1.188-2.328,2.568v6.234h-2.332v-7.486
			c0-0.928-0.023-1.92-0.086-2.998h2.047l0.109,1.617h0.066c0.625-1.121,1.898-1.834,3.32-1.834c2.203,0,3.648,1.684,3.648,4.422
			V1119.971z M1098.729,1111.234h-2.566v5.092c0,1.295,0.449,1.941,1.359,1.941c0.41,0,0.754-0.045,1.031-0.109l0.066,1.77
			c-0.453,0.174-1.059,0.26-1.809,0.26c-1.836,0-2.934-1.012-2.934-3.666v-5.287h-1.531v-1.746h1.531v-1.922l2.285-0.689v2.609
			h2.566V1111.234z M1111.064,1119.971h-2.328v-5.975c0-1.877-0.711-2.826-2.117-2.826c-1.207,0-2.332,0.82-2.332,2.48v6.32h-2.328
			v-15.293h2.328v6.297h0.047c0.734-1.143,1.797-1.705,3.152-1.705c2.219,0,3.578,1.725,3.578,4.467V1119.971L1111.064,1119.971z
			 M1123.701,1115.289h-6.992c0.043,1.986,1.359,3.105,3.305,3.105c1.031,0,1.984-0.174,2.824-0.496l0.363,1.619
			c-0.992,0.432-2.16,0.646-3.52,0.646c-3.277,0-5.219-2.072-5.219-5.283c0-3.215,1.988-5.631,4.957-5.631
			c2.68,0,4.359,1.984,4.359,4.984C1123.795,1114.588,1123.768,1114.941,1123.701,1115.289L1123.701,1115.289z M1121.564,1113.629
			c0-1.619-0.816-2.76-2.305-2.76c-1.34,0-2.398,1.164-2.551,2.76H1121.564L1121.564,1113.629z"/>
	</g>
	
		<linearGradient id="SVGID_1_" gradientUnits="userSpaceOnUse" x1="-11.7344" y1="399.9834" x2="-11.7344" y2="404.305" gradientTransform="matrix(74.1746 0 0 -74.1346 1944.6626 30831.875)">
		<stop  offset="0" style="stop-color:#1A1A1A;stop-opacity:0.1"/>
		<stop  offset="0.123" style="stop-color:#212121;stop-opacity:0.151"/>
		<stop  offset="0.308" style="stop-color:#353535;stop-opacity:0.227"/>
		<stop  offset="0.532" style="stop-color:#575757;stop-opacity:0.318"/>
		<stop  offset="0.783" style="stop-color:#858585;stop-opacity:0.421"/>
		<stop  offset="1" style="stop-color:#B3B3B3;stop-opacity:0.51"/>
	</linearGradient>
	<path style="fill:url(#SVGID_1_);" d="M1143.775,1090.111H994.35l58.527,88.889h90.898c5.801-0.004,10.504-4.701,10.512-10.5
		v-67.883C1154.279,1094.816,1149.576,1090.117,1143.775,1090.111z"/>
</g>
</svg>
