<svg xmlns="http://www.w3.org/2000/svg" width="1200" height="1200" viewBox="0 0 1200 1200"><path fill="#7e8fb0" d="M0 0h1200v1200H0z"/><path d="M1105.127 121.063H98.875C59.342 121.063 27 153.404 27 192.939v503.125c0 39.531 32.342 71.874 71.875 71.874h1006.252c39.529 0 71.873-32.347 71.873-71.874V192.939c0-39.535-32.344-71.876-71.873-71.876z" opacity=".61" fill="#262626"/><path d="M96.875 765.489c-39.384 0-71.425-32.041-71.425-71.425V190.939c0-39.385 32.041-71.428 71.425-71.428h1006.252c39.383 0 71.424 32.042 71.424 71.428v503.125c0 39.384-32.041 71.425-71.424 71.425H96.875z" fill="#f8f8f8"/><path d="M1103.127 119.961c18.879 0 36.68 7.405 50.125 20.85s20.85 31.249 20.85 50.129v503.125c0 18.877-7.404 36.679-20.85 50.124-13.445 13.446-31.247 20.852-50.125 20.852H96.875c-18.879 0-36.682-7.404-50.126-20.85s-20.85-31.247-20.85-50.126V190.939c0-18.881 7.405-36.684 20.85-50.129s31.247-20.85 50.126-20.85h1006.252m0-.897H96.875C57.342 119.063 25 151.404 25 190.939v503.125c0 39.531 32.342 71.874 71.875 71.874h1006.252c39.529 0 71.873-32.347 71.873-71.874V190.939c0-39.535-32.344-71.876-71.873-71.876z" fill="#95a5a6"/><circle cx="1092.345" cy="442.5" r="44.324" fill="#f8f8f8" stroke="#7f8c8d" stroke-width=".898" stroke-miterlimit="10"/><g fill="#2b2b2b"><circle cx="123.228" cy="534.139" r="10.781"/><circle cx="70.52" cy="442.5" r="9.583"/><path d="M129.218 392.787v99.426c0 3.593-2.396 5.988-5.99 5.988-3.593 0-5.989-2.396-5.989-5.988v-99.426c0-3.596 2.396-5.989 5.989-5.989 3.594 0 5.99 3.593 5.99 5.989z"/></g><path fill="#31669d" d="M167.852 164.526h864.297v552.837H167.852z"/><path d="M1031.25 165.425v551.04h-862.5v-551.04h862.5m1.797-1.797H166.953v554.634h866.094V163.628z" fill="#262626"/><path fill="#2980b9" d="M168.75 691.412h862.496v25.053H168.75z"/><path fill="#6171a1" d="M168.75 165.425h862.5v497.36h-862.5z"/><path d="M1013.815 577.656c0-75.501-63.361-136.711-141.52-136.711-78.159 0-141.521 61.21-141.521 136.711 0 28.734 9.195 55.4 24.879 77.41H988.94c15.683-22.009 24.875-48.675 24.875-77.41z" fill="#6477a7"/><path d="M1007.08 589.784c0-71.896-60.339-130.184-134.77-130.184-74.425 0-134.756 58.287-134.756 130.184 0 23.788 6.61 46.089 18.149 65.282h233.22c11.544-19.193 18.157-41.494 18.157-65.282z" fill="#7e8fb0"/><path d="M976.034 603.632c0-55.82-45.255-101.072-101.074-101.072s-101.073 45.252-101.073 101.072c0 18.788 5.139 36.367 14.07 51.435h174.007c8.923-15.068 14.07-32.647 14.07-51.435z" fill="#dae3d9"/><g><path fill="#394042" d="M389.177 487.323h55.294v142.853h-55.294z"/><path fill="#424a4c" d="M399.443 495.736h7.723v7.724h-7.723zM399.443 510.416h7.723v7.725h-7.723zM399.443 525.864h7.723v7.729h-7.723zM399.443 540.544h7.723v7.724h-7.723zM399.443 555.219h7.723v7.729h-7.723zM399.443 569.899h7.723v7.728h-7.723zM399.443 584.579h7.723v7.725h-7.723zM399.443 599.256h7.723v7.729h-7.723zM412.574 495.736h7.726v7.724h-7.726zM412.574 510.416h7.726v7.725h-7.726z"/><path fill="#d6ddcc" d="M412.574 525.864h7.726v7.729h-7.726z"/><path fill="#424a4c" d="M412.574 540.544h7.726v7.724h-7.726zM412.574 555.219h7.726v7.729h-7.726zM412.574 569.899h7.726v7.728h-7.726zM412.574 584.579h7.726v7.725h-7.726zM412.574 599.256h7.726v7.729h-7.726zM426.479 495.736h7.726v7.724h-7.726zM426.479 510.416h7.726v7.725h-7.726zM426.479 525.864h7.726v7.729h-7.726zM426.479 540.544h7.726v7.724h-7.726zM426.479 555.219h7.726v7.729h-7.726z"/><path fill="#d6ddcc" d="M426.479 569.899h7.726v7.728h-7.726z"/><path fill="#424a4c" d="M426.479 584.579h7.726v7.725h-7.726zM426.479 599.256h7.726v7.729h-7.726z"/><g><path fill="#394042" d="M261.686 468.783h55.293v142.852h-55.293z"/><path fill="#6477a7" d="M271.948 477.194h7.726v7.727h-7.726z"/><path fill="#424a4c" d="M271.948 491.876h7.726v7.724h-7.726zM271.948 507.322h7.726v7.73h-7.726zM271.948 522h7.726v7.727h-7.726zM271.948 536.683h7.726v7.722h-7.726zM271.948 551.361h7.726v7.726h-7.726zM271.948 566.035h7.726v7.728h-7.726zM271.948 580.72h7.726v7.721h-7.726zM285.082 477.194h7.726v7.727h-7.726zM285.082 491.876h7.726v7.724h-7.726zM285.082 507.322h7.726v7.73h-7.726z"/><path fill="#d6ddcc" d="M285.082 522h7.726v7.727h-7.726z"/><path fill="#424a4c" d="M285.082 536.683h7.726v7.722h-7.726zM285.082 551.361h7.726v7.726h-7.726zM285.082 566.035h7.726v7.728h-7.726zM285.082 580.72h7.726v7.721h-7.726zM298.985 477.194h7.729v7.727h-7.729zM298.985 491.876h7.729v7.724h-7.729zM298.985 507.322h7.729v7.73h-7.729zM298.985 522h7.729v7.727h-7.729zM298.985 536.683h7.729v7.722h-7.729zM298.985 551.361h7.729v7.726h-7.729zM298.985 566.035h7.729v7.728h-7.729zM298.985 580.72h7.729v7.721h-7.729z"/></g><g><path fill="#394042" d="M793.163 535.331h33.029v86.018h-33.029z"/><path fill="#424a4c" d="M799.248 542.648h4.634v4.631h-4.634zM799.248 551.451h4.634v4.634h-4.634zM799.248 560.723h4.634v4.64h-4.634zM799.248 569.53h4.634v4.637h-4.634zM799.248 578.34h4.634v4.631h-4.634zM799.248 587.144h4.634v4.637h-4.634zM799.248 595.949h4.634v4.638h-4.634zM799.248 604.761h4.634v4.632h-4.634zM807.124 542.648h4.64v4.631h-4.64z"/><path fill="#e1dca9" d="M807.124 551.451h4.64v4.634h-4.64z"/><path fill="#424a4c" d="M807.124 560.723h4.64v4.64h-4.64zM807.124 569.53h4.64v4.637h-4.64zM807.124 578.34h4.64v4.631h-4.64zM807.124 587.144h4.64v4.637h-4.64zM807.124 595.949h4.64v4.638h-4.64zM807.124 604.761h4.64v4.632h-4.64zM815.473 542.648h4.635v4.631h-4.635zM815.473 551.451h4.635v4.634h-4.635zM815.473 560.723h4.635v4.64h-4.635zM815.473 569.53h4.635v4.637h-4.635zM815.473 578.34h4.635v4.631h-4.635zM815.473 587.144h4.635v4.637h-4.635zM815.473 595.949h4.635v4.638h-4.635zM815.473 604.761h4.635v4.632h-4.635z"/></g><g><path fill="#394042" d="M753.488 527.939h42.579v110.9h-42.579z"/><path fill="#424a4c" d="M761.329 537.374h5.975v5.972h-5.975zM761.329 548.727h5.975v5.978h-5.975zM761.329 560.68h5.975v5.974h-5.975zM761.329 572.031h5.975v5.979h-5.975zM761.329 583.386h5.975v5.977h-5.975z"/><path fill="#d6ddcc" d="M761.329 594.745h5.975v5.979h-5.975z"/><path fill="#424a4c" d="M761.329 606.101h5.975v5.976h-5.975zM761.329 617.458h5.975v5.976h-5.975z"/><path fill="#e1dca9" d="M771.49 537.374h5.974v5.972h-5.974z"/><path fill="#424a4c" d="M771.49 548.727h5.974v5.978h-5.974zM771.49 560.68h5.974v5.974h-5.974zM771.49 572.031h5.974v5.979h-5.974zM771.49 583.386h5.974v5.977h-5.974zM771.49 594.745h5.974v5.979h-5.974zM771.49 606.101h5.974v5.976h-5.974zM771.49 617.458h5.974v5.976h-5.974z"/><path fill="#d6ddcc" d="M782.25 537.374h5.975v5.972h-5.975z"/><path fill="#424a4c" d="M782.25 548.727h5.975v5.978h-5.975zM782.25 560.68h5.975v5.974h-5.975zM782.25 572.031h5.975v5.979h-5.975zM782.25 583.386h5.975v5.977h-5.975zM782.25 594.745h5.975v5.979h-5.975zM782.25 606.101h5.975v5.976h-5.975zM782.25 617.458h5.975v5.976h-5.975z"/></g><g><path fill="#394042" d="M953.192 552.827h33.032v86.013h-33.032z"/><path fill="#e1dca9" d="M959.276 560.144h4.637v4.633h-4.637z"/><path fill="#424a4c" d="M959.276 568.948h4.637v4.635h-4.637zM959.276 578.22h4.637v4.637h-4.637zM959.276 587.022h4.637v4.636h-4.637zM959.276 595.835h4.637v4.635h-4.637zM959.276 604.639h4.637v4.634h-4.637zM959.276 613.447h4.637v4.638h-4.637zM959.276 622.254h4.637v4.633h-4.637zM967.159 560.144h4.635v4.633h-4.635zM967.159 568.948h4.635v4.635h-4.635zM967.159 578.22h4.635v4.637h-4.635zM967.159 587.022h4.635v4.636h-4.635zM967.159 595.835h4.635v4.635h-4.635zM967.159 604.639h4.635v4.634h-4.635zM967.159 613.447h4.635v4.638h-4.635zM967.159 622.254h4.635v4.633h-4.635zM975.5 560.144h4.635v4.633H975.5zM975.5 568.948h4.635v4.635H975.5zM975.5 578.22h4.635v4.637H975.5zM975.5 587.022h4.635v4.636H975.5zM975.5 595.835h4.635v4.635H975.5zM975.5 604.639h4.635v4.634H975.5zM975.5 613.447h4.635v4.638H975.5zM975.5 622.254h4.635v4.633H975.5z"/></g><path fill="#424a4c" d="M913.741 572.178h33.027v86.018h-33.027z"/><path fill="#424a4c" d="M884.559 552.979h33.022V639h-33.022z"/><path fill="#424a4c" d="M858.445 562.964h33.024v86.014h-33.024zM724.041 562.964h33.024v86.014h-33.024z"/><path fill="#424a4c" d="M618.825 584.465h113.667v60.677H618.825zM183.345 533.01h33.027v86.014h-33.027zM527.419 572.178h33.022v86.018h-33.022z"/><path fill="#424a4c" d="M210.991 562.964h33.023v86.014h-33.023zM498.233 552.979h33.026V639h-33.026zM444.471 533.01h33.026v86.014h-33.026z"/><path fill="#424a4c" d="M472.119 562.964h33.024v86.014h-33.024zM337.72 562.964h33.018v86.014H337.72z"/><path fill="#424a4c" d="M232.497 584.465h113.665v60.677H232.497zM494.392 584.465h113.67v60.677h-113.67zM168.75 555.282h33.026v86.021H168.75z"/><g><path fill="#394042" d="M975.95 476.176h55.3v142.848h-55.3z"/><path fill="#424a4c" d="M986.221 491.974h7.722v7.729h-7.722zM986.221 506.657h7.722v7.722h-7.722zM986.221 522.109h7.722v7.726h-7.722zM986.221 536.784h7.722v7.727h-7.722zM986.221 551.464h7.722v7.721h-7.722zM986.221 566.141h7.722v7.728h-7.722zM986.221 580.821h7.722v7.725h-7.722zM986.221 595.505h7.722v7.721h-7.722zM999.354 491.974h7.723v7.729h-7.723z"/><path fill="#d6ddcc" d="M999.354 506.657h7.723v7.722h-7.723z"/><path fill="#424a4c" d="M999.354 522.109h7.723v7.726h-7.723zM999.354 536.784h7.723v7.727h-7.723zM999.354 551.464h7.723v7.721h-7.723z"/><path fill="#d6ddcc" d="M999.354 566.141h7.723v7.728h-7.723z"/><path fill="#424a4c" d="M999.354 580.821h7.723v7.725h-7.723zM999.354 595.505h7.723v7.721h-7.723zM1013.251 491.974h7.729v7.729h-7.729z"/><path fill="#dddac0" d="M1013.251 506.657h7.729v7.722h-7.729z"/><path fill="#424a4c" d="M1013.251 522.109h7.729v7.726h-7.729zM1013.251 536.784h7.729v7.727h-7.729zM1013.251 551.464h7.729v7.721h-7.729zM1013.251 566.141h7.729v7.728h-7.729zM1013.251 580.821h7.729v7.725h-7.729zM1013.251 595.505h7.729v7.721h-7.729z"/></g></g><g><path d="M387.047 367.624c-3.46 0-6.73.681-9.867 1.668-9.935-14.282-26.42-23.674-45.142-23.674-18.72 0-35.2 9.392-45.144 23.674-3.133-.987-6.402-1.668-9.87-1.668-18.228 0-33.009 14.779-33.009 33.007h176.049c-.006-18.236-14.786-33.007-33.017-33.007z" fill="#7281a9"/><path d="M471.831 360.209c-3.462 0-6.733.673-9.867 1.664-9.933-14.282-26.422-23.678-45.143-23.678-18.72 0-35.203 9.396-45.141 23.678-3.14-.991-6.409-1.664-9.871-1.664-18.228 0-33.008 14.771-33.008 33h176.042c.001-18.234-14.779-33-33.012-33z" fill="#4d597f"/><path d="M816.235 372.864c0-25.848 20.956-46.794 46.802-46.794 3.902 0 7.637.613 11.254 1.512 12.211-13.188 29.52-21.568 48.916-21.568 36.919 0 66.863 29.929 66.863 66.851H816.235z" fill="#576590"/></g><g><path fill="#31669d" d="M644.926 614.185H168.75v64.821h862.5v-64.821z"/><path fill="#2d73ab" d="M168.75 655.704v34.832h862.5v-34.832z"/></g><g><path fill="#424a4c" d="M569.668 585.582h33.027v86.012h-33.027z"/><path fill="#424a4c" d="M589.63 528.746h55.295v142.848H589.63z"/><path fill="#70513c" d="M647.126 615.269l4.63 4.639V506.345l-4.63-4.637z"/><path d="M634.766 406.685c0 3.09-3.089 6.181-6.18 6.181h-57.94c-3.091 0-6.184-3.091-6.184-6.181V344.11c0-3.09 3.093-6.179 6.184-6.179h57.94c3.091 0 6.18 3.089 6.18 6.179v62.575z" fill="#9e735a"/><g fill="#7f5b42"><path d="M565.236 344.11c0-3.09 3.091-6.179 6.182-6.179h57.936c3.095 0 6.186 3.089 6.186 6.179v62.574c0 3.09-3.091 6.181-6.186 6.181"/><path d="M651.756 616.816c0 2.319-2.311 4.636-4.63 4.636h-92.705c-2.318 0-4.635-2.316-4.635-4.636V376.56c0-2.32 2.316-4.637 4.635-4.637h92.705c2.319 0 4.63 2.316 4.63 4.637v240.256z"/></g><path d="M651.756 713.383c0 2.315-2.311 4.638-4.63 4.638h-92.705c-2.318 0-4.635-2.322-4.635-4.638V473.124c0-2.315 2.316-4.634 4.635-4.634h92.705c2.319 0 4.63 2.318 4.63 4.634v240.259z" fill="#997153"/><path d="M647.126 468.49c2.319 0 4.63 2.318 4.63 4.634v240.259c0 2.315-2.311 4.638-4.63 4.638" fill="#845e44"/><path d="M554.421 718.021c-2.318 0-4.635-2.322-4.635-4.638V473.124c0-2.315 2.316-4.634 4.635-4.634" fill="#bc8f71"/><path fill="#7f5b42" d="M554.421 468.49l-4.635 5.406v43.263l101.97 102.749V506.345l-37.072-37.855z"/><path d="M564.462 704.114c0 .774-.767 1.546-1.544 1.546-.768 0-1.547-.771-1.547-1.546V513.3c0-.773.779-1.549 1.547-1.549.777 0 1.544.775 1.544 1.549v190.814z" fill="#9e7b64"/><path d="M564.462 532.607V513.3c0-.773-.767-1.549-1.544-1.549-.768 0-1.547.775-1.547 1.549v16.22l3.091 3.087z" fill="#70513c"/><path d="M575.279 704.114c0 .774-.771 1.546-1.549 1.546-.767 0-1.539-.771-1.539-1.546V513.3c0-.773.772-1.549 1.539-1.549.777 0 1.549.775 1.549 1.549v190.814z" fill="#9e7b64"/><path d="M575.279 704.114c0 .774-.771 1.546-1.549 1.546-.767 0-1.539-.771-1.539-1.546V513.3c0-.773.772-1.549 1.539-1.549.777 0 1.549.775 1.549 1.549v190.814zM586.096 704.114c0 .774-.775 1.546-1.543 1.546-.776 0-1.548-.771-1.548-1.546V513.3c0-.773.771-1.549 1.548-1.549.768 0 1.543.775 1.543 1.549v190.814z" fill="#9e7b64"/><g fill="#70513c"><path d="M586.096 553.47v-40.943c0-.775-.775-1.548-1.543-1.548-.776 0-1.548.772-1.548 1.548v37.854l3.091 3.089zM575.279 543.425V513.3c0-.773-.771-1.549-1.549-1.549-.767 0-1.539.775-1.539 1.549v27.037l3.088 3.088z"/></g><path d="M596.913 704.114c0 .774-.776 1.546-1.545 1.546-.771 0-1.546-.771-1.546-1.546V513.3c0-.773.774-1.549 1.546-1.549.769 0 1.545.775 1.545 1.549v190.814z" fill="#9e7b64"/><path d="M596.913 564.283v-51.757c0-.775-.776-1.548-1.545-1.548-.771 0-1.546.772-1.546 1.548v48.667l3.091 3.09z" fill="#70513c"/><path d="M607.729 704.114c0 .774-.781 1.546-1.543 1.546-.778 0-1.55-.771-1.55-1.546V513.3c0-.773.771-1.549 1.55-1.549.762 0 1.543.775 1.543 1.549v190.814z" fill="#9e7b64"/><path d="M607.729 575.103v-62.576c0-.775-.781-1.548-1.543-1.548-.778 0-1.55.772-1.55 1.548v59.483l3.093 3.093z" fill="#70513c"/><path d="M618.541 704.114c0 .774-.774 1.546-1.543 1.546-.774 0-1.546-.771-1.546-1.546V513.3c0-.773.771-1.549 1.546-1.549.769 0 1.543.775 1.543 1.549v190.814z" fill="#9e7b64"/><path d="M616.998 511.751c-.774 0-1.546.775-1.546 1.549v70.299l3.089 3.09v-72.616c0-1.547-.774-2.322-1.543-2.322z" fill="#70513c"/><path d="M629.354 704.114c0 .774-.768 1.546-1.538 1.546-.771 0-1.546-.771-1.546-1.546V513.3c0-.773.774-1.549 1.546-1.549.771 0 1.538.775 1.538 1.549v190.814z" fill="#9e7b64"/><path d="M627.815 511.751c-.771 0-1.546.775-1.546 1.549v81.115l3.084 3.089V513.3c.001-.774-.767-1.549-1.538-1.549z" fill="#70513c"/><path d="M640.174 704.114c0 .774-.775 1.546-1.546 1.546s-1.543-.771-1.543-1.546V513.3c0-.773.771-1.549 1.543-1.549.771 0 1.546.775 1.546 1.549v190.814z" fill="#9e7b64"/><path d="M638.628 511.751c-.771 0-1.543.775-1.543 1.549v91.928l3.089 3.092V513.3c0-.774-.776-1.549-1.546-1.549z" fill="#70513c"/><g fill="#4f3e32"><path d="M654.082 568.919c0 1.548-1.548 3.091-3.09 3.091H550.558c-1.547 0-3.093-1.543-3.093-3.091 0-1.546 1.546-3.093 3.093-3.093h100.435c1.541 0 3.089 1.547 3.089 3.093zM654.082 583.599c0 1.544-1.548 3.09-3.09 3.09H550.558c-1.547 0-3.093-1.546-3.093-3.09 0-1.544 1.546-3.089 3.093-3.089h100.435c1.541 0 3.089 1.545 3.089 3.089zM654.082 653.896c0 1.546-1.548 3.095-3.09 3.095H550.558c-1.547 0-3.093-1.549-3.093-3.095 0-1.542 1.546-3.086 3.093-3.086h100.435c1.541 0 3.089.771 3.089 3.086zM654.082 667.802c0 1.548-1.548 3.091-3.09 3.091H550.558c-1.547 0-3.093-1.543-3.093-3.091 0-1.539 1.546-3.087 3.093-3.087h100.435c1.541 0 3.089 1.548 3.089 3.087z"/></g><g><path d="M663.354 510.979a6.927 6.927 0 0 1-6.958 6.953H545.15a6.925 6.925 0 0 1-6.955-6.953V398.961a6.927 6.927 0 0 1 6.955-6.955h112.014a6.926 6.926 0 0 1 6.956 6.955v112.018h-.766z" fill="#af8366"/><path d="M538.195 398.961a6.927 6.927 0 0 1 6.955-6.955h112.014a6.926 6.926 0 0 1 6.956 6.955v112.018a6.923 6.923 0 0 1-6.956 6.953" fill="#9e735a"/><g fill="#997153"><path d="M663.354 510.979a6.927 6.927 0 0 1-6.958 6.953H545.15a6.925 6.925 0 0 1-6.955-6.953"/><path d="M644.808 454.583c0 23.949-19.315 59.489-44.038 59.489-23.943 0-44.03-35.54-44.03-59.489 0-23.945 19.312-44.033 44.03-44.033 23.952.771 44.038 20.088 44.038 44.033z"/></g></g><g><path d="M600.77 410.55c24.321 0 44.038 19.712 44.038 44.033 0 24.317-19.717 44.036-44.038 44.036-24.315 0-44.03-19.719-44.03-44.036-.001-24.321 19.714-44.033 44.03-44.033z" fill="#edeada"/><path d="M600.77 411.321c-13.902 0-26.262 6.176-33.985 16.223l61.802 61.801c10.042-7.721 16.222-20.085 16.222-33.986-.001-24.721-20.087-44.038-44.039-44.038z" fill="#dbd6c1"/><path d="M600.77 502.48c-26.262 0-47.125-20.856-47.125-47.122 0-26.269 20.863-47.129 47.125-47.129 26.274 0 47.128 20.86 47.128 47.129-.001 25.493-20.854 47.122-47.128 47.122zm0-88.07c-22.402 0-40.169 17.769-40.169 40.173 0 22.402 17.767 40.172 40.169 40.172 22.408 0 40.174-17.77 40.174-40.172-.001-22.404-17.766-40.173-40.174-40.173z" fill="#d7cf87"/><path d="M655.622 373.468c0 .771-.771 1.545-1.54 1.545H548.24c-.775 0-1.544-.773-1.544-1.545 0-.775.769-1.545 1.544-1.545h105.063c.779 0 2.319.769 2.319 1.545z" fill="#4f3e32"/></g><g><path d="M558.285 385.827c0 .774-.774 1.546-1.546 1.546s-1.548-.771-1.548-1.546v-5.407c0-.772.775-1.548 1.548-1.548.771 0 1.546.775 1.546 1.548v5.407zM567.555 385.827c0 .774-.771 1.546-1.547 1.546-.771 0-1.546-.771-1.546-1.546v-5.407c0-.772.774-1.548 1.546-1.548.776 0 1.547.775 1.547 1.548v5.407zM576.051 385.827c0 .774-.771 1.546-1.543 1.546-.777 0-1.544-.771-1.544-1.546v-5.407c0-.772.767-1.548 1.544-1.548.771 0 1.543.775 1.543 1.548v5.407z" fill="#427852"/><path d="M584.553 385.827c0 .774-.776 1.546-1.548 1.546-.771 0-1.546-.771-1.546-1.546v-5.407c0-.772.774-1.548 1.546-1.548.771 0 1.548.775 1.548 1.548v5.407z" fill="#1f3625"/><path d="M593.822 385.827c0 .774-.772 1.546-1.547 1.546-.771 0-1.544-.771-1.544-1.546v-5.407c0-.772.772-1.548 1.544-1.548.774 0 1.547.775 1.547 1.548v5.407z" fill="#427852"/><path d="M602.319 385.827c0 .774-.774 1.546-1.55 1.546-.768 0-1.539-.771-1.539-1.546v-5.407c0-.772.771-1.548 1.539-1.548.775 0 1.55.775 1.55 1.548v5.407z" fill="#1f3625"/><path d="M610.819 385.827c0 .774-.779 1.546-1.544 1.546-.779 0-1.547-.771-1.547-1.546v-5.407c0-.772.768-1.548 1.547-1.548.765 0 1.544.775 1.544 1.548v5.407z" fill="#427852"/><path d="M619.317 385.827c0 .774-.776 1.546-1.551 1.546-.769 0-1.543-.771-1.543-1.546v-5.407c0-.772.774-1.548 1.543-1.548.774 0 1.551.775 1.551 1.548v5.407z" fill="#1f3625"/><path d="M628.586 385.827c0 .774-.771 1.546-1.542 1.546-.774 0-1.552-.771-1.552-1.546v-5.407c0-.772.777-1.548 1.552-1.548.771 0 1.542.775 1.542 1.548v5.407z" fill="#427852"/><path d="M637.085 385.827c0 .774-.775 1.546-1.546 1.546-.773 0-1.549-.771-1.549-1.546v-5.407c0-.772.775-1.548 1.549-1.548.771 0 1.546.775 1.546 1.548v5.407z" fill="#1f3625"/><path d="M645.584 385.827c0 .774-.776 1.546-1.551 1.546-.769 0-1.544-.771-1.544-1.546v-5.407c0-.772.775-1.548 1.544-1.548.774 0 1.551.775 1.551 1.548v5.407z" fill="#427852"/></g><g><path d="M603.089 453.039c0 1.544-.77 2.319-2.319 2.319-1.539 0-2.311-.775-2.311-2.319v-32.445c0-1.548.771-2.32 2.311-2.32 1.55 0 2.319.772 2.319 2.32v32.445z" fill="#af8366"/><path d="M623.178 454.583c0 1.545-1.545 3.092-3.094 3.092h-20.082c-1.543 0-3.089-1.547-3.089-3.092 0-1.544 1.546-3.088 3.089-3.088h20.082c1.549 0 3.094 1.544 3.094 3.088z" fill="#4f3e32"/></g><g><path d="M600.77 450.719a3.863 3.863 0 1 1 0 7.724 3.859 3.859 0 0 1-3.856-3.86 3.862 3.862 0 0 1 3.856-3.864z" fill="#997153"/><g fill="#4f3e32"><path d="M549.011 373.468c0 .771-.771 1.545-1.546 1.545-.769 0-1.543-.773-1.543-1.545v-15.451c0-.774.774-1.546 1.543-1.546.775 0 1.546.771 1.546 1.546v15.451z"/><path d="M551.334 366.515c0 .772-.776 1.541-1.548 1.541h-6.18c-.774 0-1.543-.769-1.543-1.541 0-.771.769-1.547 1.543-1.547h6.18c1.548.775 1.548 1.547 1.548 1.547zM655.622 373.468c0 .771-.771 1.545-1.54 1.545-.779 0-1.548-.773-1.548-1.545v-15.451c0-.774.769-1.546 1.548-1.546.769 0 1.54.771 1.54 1.546v15.451z"/><path d="M658.715 366.515c0 .772-.775 1.541-1.551 1.541h-6.172c-.78 0-1.547-.769-1.547-1.541 0-.771.767-1.547 1.547-1.547h6.172a971.2 971.2 0 0 0 1.551 1.547zM601.545 249.864c0 .769-.775 1.541-1.543 1.541-.771 0-1.543-.772-1.543-1.541v-15.456c0-.771.771-1.544 1.543-1.544.768 0 1.543.773 1.543 1.544v15.456z"/><path d="M604.636 242.909c0 .77-.769 1.543-1.547 1.543h-6.176c-.776 0-1.545-.773-1.545-1.543 0-.776.769-1.549 1.545-1.549h6.176c.778.773 1.547 1.549 1.547 1.549z"/></g><path fill="#604533" d="M647.126 346.429l-47.124-101.203-47.125 101.203z"/><path fill="#422e20" d="M626.27 346.429l-26.268-101.203-26.272 101.203z"/><path d="M650.212 347.973c0 .772-.767.772-.767.772h-98.888c-.771 0-.771-.772-.771-.772 0-.771.771-.771.771-.771h98.114c.774-.773 1.541-.001 1.541.771z" fill="#7f5b42"/></g></g><g><path d="M783.658 264.584a1.408 1.408 0 1 1 0 0z" fill="#dae3d9"/><circle cx="946.559" cy="204.864" r="1.325" fill="#dae3d9"/><path d="M876.419 267.32a1.323 1.323 0 1 1-2.646-.002 1.323 1.323 0 0 1 2.646.002z" fill="#dae3d9"/><path d="M786.561 253.675c0 .731-.592 1.328-1.321 1.328a1.33 1.33 0 0 1-1.326-1.328c0-.729.596-1.325 1.326-1.325.729 0 1.321.595 1.321 1.325zM346.162 283.507a1.855 1.855 0 0 1-1.85 1.854c-1.025 0-1.857-.831-1.857-1.854s.832-1.852 1.857-1.852c1.018 0 1.85.828 1.85 1.852z" fill="#99a4c0"/><circle cx="761.329" cy="213.054" r="1.326" fill="#dae3d9"/><path d="M719.906 429.999a1.326 1.326 0 0 1-2.653 0 1.325 1.325 0 1 1 2.653 0z" fill="#99a4c0"/><path d="M296.973 211.73c0 .729-.593 1.323-1.322 1.323-.734 0-1.33-.594-1.33-1.323a1.326 1.326 0 0 1 2.652 0z" fill="#dae3d9"/><circle cx="439.192" cy="223.883" r="1.325" fill="#dae3d9"/><path d="M306.58 225.566c0 .931-.756 1.686-1.686 1.686a1.684 1.684 0 1 1 1.686-1.686z" fill="#99a4c0"/><circle cx="285.57" cy="243.344" r="1.324" fill="#dae3d9"/></g><path fill="#ecf0f1" stroke="#000" stroke-width="2" stroke-opacity=".59" d="M45.713 869.486h1108.574v153.494H45.713z"/><g><path d="M1092.354 958.74c-.374.458-.748.918-1.136 1.356-.383.44-.779.871-1.192 1.294-.41.414-.837.813-1.286 1.204-.409.365-.823.711-1.254 1.055-.432.343-.885.666-1.339.981a23.34 23.34 0 0 1-1.387.878c-.479.271-.959.539-1.461.777-.577.264-1.176.508-1.783.741a27.93 27.93 0 0 1-1.854.614 36.52 36.52 0 0 1-1.893.486c-.638.121-1.276.24-1.915.326-.272.044-.555.081-.832.107-.277.022-.559.051-.832.066-.272.018-.559.024-.836.028h-.846c-.189-.011-.383-.011-.576-.022a8.791 8.791 0 0 1-.572-.041c-.186-.009-.388-.029-.581-.047-.189-.02-.374-.044-.568-.068a15.355 15.355 0 0 1-1.145-.191 15.215 15.215 0 0 1-1.127-.255c-.369-.086-.739-.196-1.109-.304-.369-.11-.739-.221-1.104-.35l4.645 6.847c.097.009.202.014.313.021.097 0 .202.009.313.011.101.007.211.007.313.007.109.004.22.013.321.013.365.009.727.024 1.096.009a40.725 40.725 0 0 0 2.192-.072c.365-.022.722-.047 1.092-.075a27.563 27.563 0 0 0 1.633-.202 39.785 39.785 0 0 0 1.616-.297 25.476 25.476 0 0 0 1.603-.395 23.814 23.814 0 0 0 1.584-.493 19.247 19.247 0 0 0 1.559-.588 20.625 20.625 0 0 0 1.527-.68c.502-.246.99-.497 1.483-.769.489-.262.978-.527 1.453-.82.409-.24.801-.493 1.188-.771.392-.269.774-.544 1.153-.837.388-.283.757-.574 1.132-.862.383-.286.752-.57 1.135-.852l.357-9.238c-.358.488-.705.951-1.08 1.408z" fill="#1279bf"/><path fill="none" d="M976.915 883.128h126.207v126.21H976.915z"/><path d="M1069.771 951.651c.031.02.058.039.093.048a.194.194 0 0 0 .084.044c.035.021.062.035.083.049.837.381 1.664.779 2.492 1.188.814.407 1.633.821 2.465 1.206.814.392 1.643.762 2.479 1.081.841.321 1.686.581 2.553.779.305.065.617.13.93.176.321.049.634.093.946.13.316.037.643.063.955.081.317.026.643.035.96.047.304.002.603.002.911 0 .295-.012.607-.021.902-.035.308-.021.607-.035.907-.064.303-.013.598-.057.897-.086.453-.046.894-.109 1.334-.2.449-.083.88-.191 1.32-.29.44-.124.876-.251 1.304-.405.431-.143.854-.297 1.285-.474a19.288 19.288 0 0 0 2.482-1.236c.414-.238.823-.493 1.215-.753.405-.249.788-.53 1.18-.801.321-.228.63-.479.938-.733.313-.26.617-.521.916-.795.304-.26.604-.548.907-.818s.607-.555.92-.816l.167-8.01c-.255.394-.515.792-.774 1.187-.265.392-.533.776-.819 1.148-.269.372-.555.742-.858 1.109-.286.346-.603.691-.915 1.028-.335.35-.691.704-1.044 1.039-.365.332-.73.655-1.109.964-.374.316-.761.601-1.157.88-.392.269-.806.524-1.211.755-.479.28-.969.531-1.479.76-.502.227-1.018.44-1.523.625-.516.193-1.043.35-1.567.495-.52.141-1.057.262-1.589.348-.221.035-.44.073-.651.095-.221.035-.444.051-.674.07-.216.014-.44.022-.665.031-.225 0-.444.007-.673 0a9.85 9.85 0 0 1-.524-.018c-.185-.005-.356-.02-.523-.033a7.064 7.064 0 0 1-.541-.051 9.8 9.8 0 0 1-.498-.065 12.153 12.153 0 0 1-1.303-.256 15.28 15.28 0 0 1-1.259-.356c-.423-.13-.837-.277-1.246-.434a29.3 29.3 0 0 1-1.224-.476 56.362 56.362 0 0 1-3.218-1.406c-1.062-.495-2.104-1.028-3.157-1.563-1.043-.553-2.077-1.101-3.116-1.66-1.039-.567-2.069-1.14-3.104-1.701l4.692 8.126c.034.015.069.029.104.046z" fill="#1279bf"/><path d="M1080.654 974.189c-3.504-.732-6.758-2.661-10.086-4.138-6.07-2.681-11.691-7.099-18.044-8.503a10.395 10.395 0 0 0-2.337-.255c-1.009 0-2.034.125-3.029.321-1.906.363-3.781 1.023-5.498 2.042-1.567.951-3.028 2.245-4.278 3.738-1.466 1.747-2.61 3.902-3.707 6.035l.018-9.696c.542-1.45 1.889-2.277 2.984-3.18 1.634-1.374 3.407-2.431 5.274-3.273 1.897-.856 3.918-1.51 5.947-1.708.471-.042.946-.063 1.413-.063 1.703 0 3.402.255 5.062.632 1.722.411 3.363 1.168 5.032 1.917 6.374 2.779 12.379 6.82 18.832 9.337.414.158.836.297 1.25.439l-9.319-15.634c-5.895-2.626-11.405-6.73-17.591-8.054a10.409 10.409 0 0 0-2.324-.246c-1.017 0-2.047.125-3.046.313a17.183 17.183 0 0 0-5.507 2.021c-1.571.916-3.021 2.157-4.271 3.609-1.47 1.697-2.614 3.762-3.706 5.847l.03-9.381c.978-1.037 1.885-2.206 2.972-3.08 1.629-1.313 3.403-2.423 5.27-3.227 1.906-.827 3.927-1.452 5.947-1.635a16.15 16.15 0 0 1 1.531-.073c1.664 0 3.324.233 4.948.605 1.722.376 3.363 1.19 5.022 1.891 1.827.781 3.623 1.678 5.41 2.6l-24.581-41.19-53.115 88.066h105.716l-9.363-15.7a17.477 17.477 0 0 1-2.856-.377z" fill="#f8951d"/></g><g><g fill="#3498db"><path d="M115.572 898.995l2.731 6.667-6.588 2.69c-4.594 1.982-7.076 5.39-7.464 10.234a20.3 20.3 0 0 0 1.127 4.687l11.589 27.255c1.015 2.234 1.519 4.739 1.519 7.475 0 3.784-1.162 7.188-3.489 10.213-2.326 3.035-5.228 5.175-8.689 6.437l-6.223 2.386-2.837-6.896 6.348-2.196c2.322-.766 4.16-2.043 5.517-3.854 1.351-1.8 2.024-3.82 2.024-6.088 0-1.761-.308-3.422-.946-4.965l-11.604-26.977a25.386 25.386 0 0 1-1.708-7.475c.092-3.774 1.21-7.182 3.354-10.229 2.145-3.037 5.085-5.298 8.82-6.803l6.519-2.561zM152.745 945.464l-12.741 13.099-5.094-5.064 10.097-10.229-.37-.951c-1.32-2.751-3.154-4.115-5.482-4.115-2.765 0-4.735 1.477-5.899 4.452-1.173 2.98-1.754 6.436-1.754 10.383 0 3.88.576 7.342 1.729 10.378 1.149 3.015 3.064 4.529 5.736 4.529.862 0 1.743-.227 2.642-.706.897-.474 1.593-1.127 2.082-1.971l.55-.862 6.52 3.732-1.129 1.638c-3.161 4.527-6.777 6.795-10.849 6.795-3.412 0-6.194-1.178-8.352-3.521-2.156-2.345-3.711-5.329-4.668-8.959a44.421 44.421 0 0 1-1.424-11.244c.079-4.053.567-7.771 1.479-11.146.902-3.381 2.419-6.174 4.55-8.41 2.122-2.226 4.931-3.381 8.415-3.497 2.456 0 4.626.638 6.511 1.896 1.882 1.277 3.407 2.945 4.598 5.03a21.937 21.937 0 0 1 2.467 6.732l.386 2.011zM177.854 970.917c-.62 1.257-1.624 2.419-3.024 3.476-1.397 1.059-3.16 1.591-5.295 1.591-4.625-.081-7.801-2.346-9.549-6.795-1.74-4.454-2.614-9.845-2.614-16.15 0-6.324.929-11.754 2.784-16.281 1.859-4.527 5.117-6.923 9.771-7.169 2.408 0 4.547.89 6.402 2.683l1.525 1.237v-38.443h6.607v79.968h-6.607v-4.117zm-6.611-2.972c2.888 0 4.803-1.011 5.744-3.055.944-2.038 1.418-5.006 1.418-8.896v-3.544a263.09 263.09 0 0 0-.177-4.675c-.079-2.045-.33-3.744-.748-5.133-.414-1.374-1.122-2.487-2.14-3.349-1.017-.847-2.44-1.278-4.285-1.278-4.655.304-6.979 5.124-6.979 14.435.075 5.813.718 9.768 1.924 11.846 1.204 2.08 2.947 3.293 5.243 3.649zM212.825 979.895v-7.45c-2.226 2.602-4.613 3.911-7.158 3.911-9.235 0-13.98-7.618-14.245-22.857 0-3.923.409-7.671 1.237-11.261.832-3.579 2.275-6.57 4.322-8.979 2.05-2.412 4.75-3.69 8.113-3.86 2.635 0 4.706 1.079 6.211 3.244l1.332 1.64v-3.348h6.614v48.784c0 3.088-.251 5.782-.739 8.091-.493 2.313-1.404 4.268-2.743 5.873-.973 1.168-2.307 2.077-4.019 2.73-1.713.658-3.614.982-5.696.982-4.587 0-8.043-1.378-10.394-4.125l3.313-9.262c.09 1.941.777 3.57 2.058 4.891 1.286 1.322 2.98 1.992 5.103 1.992 2.848-.271 4.673-1.425 5.484-3.44.802-2.02 1.207-4.539 1.207-7.556zm-14.703-26.776c.044 4.812.629 8.494 1.752 11.047 1.118 2.558 3.114 3.881 5.978 3.973 2.796 0 4.685-1.103 5.675-3.277.983-2.191 1.479-5.405 1.479-9.632v-2.383a382.804 382.804 0 0 0-.171-4.808c-.089-2.091-.335-3.834-.74-5.228-.4-1.397-1.115-2.524-2.135-3.405-1.021-.878-2.449-1.345-4.285-1.391-2.701 0-4.643 1.343-5.811 4.076-1.178 2.712-1.82 6.049-1.927 9.979.127.252.185.598.185 1.049zM254.079 945.464l-12.735 13.099-5.096-5.064 10.09-10.229-.367-.951c-1.319-2.751-3.15-4.115-5.487-4.115-2.763 0-4.729 1.477-5.895 4.452-1.162 2.98-1.748 6.436-1.748 10.383 0 3.88.581 7.342 1.722 10.378 1.153 3.015 3.068 4.529 5.735 4.529.865 0 1.743-.227 2.642-.706.898-.474 1.598-1.127 2.084-1.971l.558-.862 6.52 3.732-1.132 1.638c-3.165 4.527-6.781 6.795-10.851 6.795-3.407 0-6.194-1.178-8.352-3.521-2.156-2.345-3.706-5.329-4.666-8.959-.95-3.618-1.422-7.377-1.422-11.244.075-4.053.56-7.771 1.475-11.146.907-3.381 2.419-6.174 4.548-8.41 2.126-2.226 4.935-3.381 8.417-3.497 2.456 0 4.631.638 6.51 1.896 1.88 1.277 3.412 2.945 4.592 5.03a21.533 21.533 0 0 1 2.468 6.732l.39 2.011zM272.759 977.619l-6.123-2.778-10.09-43.906 6.033-1.536 7.552 37.404 9.816-36.058h.181l9.725 35.871 7.924-37.218 6.308 1.536-11.398 46.685-6.15-2.778-6.407-26.102-7.371 28.88zM317.955 908.735l-3.764 11.007-4.318-11.007h8.082zm-7.622 66.297v-44.287h7.253v44.287h-7.253zM345.028 966.616l2.549 7.448c-1.64 1.666-3.722 2.507-6.238 2.507-3.49 0-6.308-1.146-8.47-3.438-2.154-2.286-3.685-5.196-4.593-8.727-.905-3.546-1.358-7.33-1.358-11.368 0-3.965.462-7.667 1.391-11.101.934-3.442 2.489-6.281 4.685-8.511 2.184-2.232 5.029-3.381 8.533-3.442 2.472 0 4.488.761 6.051 2.286l-2.549 7.262c-.757-.516-1.271-.852-1.539-.995-.266-.141-.855-.255-1.756-.334-2.674 0-4.59 1.477-5.738 4.439-1.153 2.974-1.764 6.431-1.813 10.396 0 4.027.52 7.517 1.575 10.475 1.049 2.958 2.912 4.433 5.582 4.433.656 0 1.176-.051 1.555-.161.381-.109.73-.266 1.061-.488.328-.21.69-.443 1.072-.681zM353.342 974.841v-79.776h7.166v79.776h-7.166zm21.972 1.73l-13.866-27.465 9.235-20.17 6.801 3.141-8.498 17.029 12.944 23.543-6.616 3.922zM429.016 935.418l12.92 25.269 5.942-6.979 4.543 4.483-7.554 8.426 4.42 8.416-5.182 3.326-3.478-7.259c-3.887 3.378-8.484 5.073-13.778 5.073-5.344-.093-9.482-1.939-12.405-5.533-2.923-3.61-4.389-8.094-4.389-13.501 0-.641.06-1.587.188-2.87.332-3.236 1.05-6.117 2.154-8.64 1.101-2.526 2.349-4.692 3.769-6.495 1.406-1.805 3.057-3.607 4.926-5.415-1.734-3.277-2.923-5.555-3.562-6.85-.634-1.32-1.234-2.892-1.809-4.754-.566-1.875-.921-3.96-1.062-6.29 0-2.692.595-5.263 1.77-7.706 1.169-2.445 2.8-4.418 4.878-5.919 2.084-1.496 4.397-2.249 6.946-2.249 4.622.09 8.152 1.487 10.598 4.192 2.441 2.701 3.661 6.28 3.661 10.726-.045 2.248-.479 4.325-1.299 6.242a21.793 21.793 0 0 1-3.121 5.19 46.934 46.934 0 0 1-4.16 4.473c-1.509 1.431-3.152 2.974-4.916 4.644zm-4.909 4.325c-1.643 1.541-2.976 3.191-3.993 4.941a24.194 24.194 0 0 0-2.351 5.54c-.546 1.929-1.008 4.173-1.391 6.731.039 3.638 1.032 6.715 2.967 9.229 1.937 2.516 4.563 3.766 7.88 3.766 3.944 0 7.443-1.36 10.479-4.094l-13.591-26.113zm-3.015-24.874c0 2.408.414 4.713 1.241 6.905.83 2.188 2.089 4.785 3.76 7.813l2.528-2.201c4.734-4.078 7.101-8.447 7.101-13.103 0-1.638-.31-3.049-.939-4.246-.621-1.201-1.479-2.137-2.586-2.786-1.107-.669-2.357-1.002-3.764-1.002-2.159 0-3.925.806-5.292 2.413-1.367 1.601-2.049 3.665-2.049 6.207zM491.124 945.464v29.377h-7.171v-29.377h-5.85l2.562-7.448h3.288v-36.731h20.276l2.558 7.451h-15.869v29.28h12.36v7.448h-12.154zM538.852 945.464l-12.739 13.099-5.089-5.064 10.09-10.229-.37-.951c-1.32-2.751-3.147-4.115-5.48-4.115-2.765 0-4.732 1.477-5.899 4.452-1.166 2.98-1.752 6.436-1.752 10.383 0 3.88.581 7.342 1.73 10.378 1.153 3.015 3.063 4.529 5.731 4.529.867 0 1.739-.227 2.637-.706a5.103 5.103 0 0 0 2.091-1.971l.551-.862 6.52 3.732-1.127 1.638c-3.161 4.527-6.779 6.795-10.847 6.795-3.412 0-6.194-1.178-8.355-3.521-2.157-2.345-3.716-5.329-4.666-8.959-.951-3.618-1.422-7.377-1.422-11.244.07-4.053.563-7.771 1.475-11.146.897-3.381 2.417-6.174 4.543-8.41 2.126-2.226 4.935-3.381 8.426-3.497 2.456 0 4.622.638 6.506 1.896 1.875 1.277 3.412 2.945 4.592 5.03 1.188 2.077 2.003 4.318 2.465 6.732l.389 2.011zM551.987 937.622c1.188-2.248 2.483-4.051 3.865-5.41 1.382-1.367 3.112-2.043 5.182-2.043h1.136l-2.466 7.262c-1.461.318-2.43.541-2.905.687-.479.156-1.048.55-1.703 1.222-.872.825-1.616 2.333-2.215 4.519-.599 2.194-.894 4.738-.894 7.626v23.357h-6.432v-44.096h6.432v6.876zM580.361 977.619l-6.128-2.778-10.092-43.906 6.04-1.536 7.552 37.404 9.816-36.058h.181l9.73 35.871 7.924-37.218 6.309 1.536-11.401 46.685-6.157-2.778-6.404-26.102-7.37 28.88zM643.203 945.464l-12.74 13.099-5.084-5.064 10.09-10.229-.365-.951c-1.325-2.751-3.156-4.115-5.49-4.115-2.755 0-4.731 1.477-5.89 4.452-1.175 2.98-1.756 6.436-1.756 10.383 0 3.88.572 7.342 1.726 10.378 1.153 3.015 3.063 4.529 5.735 4.529.858 0 1.739-.227 2.646-.706.894-.474 1.59-1.127 2.082-1.971l.546-.862 6.52 3.732-1.127 1.638c-3.169 4.527-6.774 6.795-10.851 6.795-3.403 0-6.189-1.178-8.347-3.521-2.161-2.345-3.715-5.329-4.671-8.959-.95-3.618-1.426-7.377-1.426-11.244.075-4.053.572-7.771 1.479-11.146.902-3.381 2.416-6.174 4.547-8.41 2.122-2.226 4.931-3.381 8.417-3.497 2.461 0 4.627.638 6.511 1.896 1.88 1.277 3.407 2.945 4.596 5.03 1.18 2.077 1.998 4.318 2.47 6.732l.382 2.011zM668.321 970.917c-.621 1.257-1.629 2.419-3.024 3.476-1.404 1.059-3.156 1.591-5.3 1.591-4.622-.081-7.81-2.346-9.544-6.795-1.748-4.454-2.623-9.845-2.623-16.15 0-6.324.938-11.754 2.79-16.281 1.867-4.527 5.115-6.923 9.773-7.169 2.407 0 4.542.89 6.4 2.683l1.527 1.237v-38.443h6.604v79.968h-6.604v-4.117zm-6.616-2.972c2.883 0 4.803-1.011 5.749-3.055.942-2.038 1.408-5.006 1.408-8.896v-3.544c-.03-1.092-.088-2.635-.162-4.675-.089-2.045-.335-3.744-.753-5.133-.414-1.374-1.127-2.487-2.14-3.349-1.017-.847-2.443-1.278-4.288-1.278-4.652.304-6.981 5.124-6.981 14.435.079 5.813.718 9.768 1.924 11.846 1.202 2.08 2.949 3.293 5.243 3.649zM702.362 971.1c-2.152 3.378-4.851 5.073-8.104 5.073-2.892-.11-5.233-1.285-7.029-3.518-1.792-2.231-3.086-5.029-3.874-8.379-.774-3.332-1.211-6.865-1.285-10.569 0-4.088.453-7.977 1.36-11.644.902-3.658 2.297-6.665 4.186-8.984 1.897-2.313 4.227-3.535 7.004-3.681 2.659 0 4.864 1.013 6.612 3.056l1.505 1.626v-3.335h6.423v44.466h-6.797V971.1zm-6.611-3.155h.18c2.817 0 4.685-.909 5.617-2.714.925-1.815 1.392-4.585 1.392-8.291v-3.927c-.031-1.134-.093-2.78-.172-4.917-.084-2.14-.33-3.929-.739-5.387-.405-1.45-1.127-2.625-2.153-3.543-1.029-.911-2.469-1.352-4.31-1.352-2.293.163-4.023 1.842-5.203 5.029-1.184 3.207-1.778 6.687-1.778 10.453.215 9.769 2.605 14.649 7.166 14.649z"/></g><g fill="#2b2b2b"><path d="M754.156 971.795c-1.778 2.784-4.002 4.176-6.687 4.176-2.368-.091-4.292-1.055-5.784-2.888-1.475-1.847-2.536-4.143-3.184-6.905-.646-2.747-.994-5.652-1.061-8.714 0-3.363.379-6.565 1.118-9.579.744-3.026 1.893-5.496 3.447-7.399 1.558-1.906 3.486-2.921 5.771-3.037 2.192 0 4.002.843 5.441 2.507l1.241 1.349v-2.735h5.287v36.607h-5.591v-3.382zm-5.445-2.595h.154c2.307 0 3.848-.749 4.613-2.252.766-1.481 1.145-3.757 1.145-6.808v-3.249c-.022-.924-.07-2.275-.141-4.041-.071-1.768-.273-3.237-.607-4.441-.326-1.193-.921-2.159-1.774-2.91-.846-.753-2.034-1.127-3.539-1.127-1.889.135-3.315 1.525-4.297 4.158-.973 2.626-1.457 5.498-1.457 8.602.175 8.036 2.148 12.068 5.903 12.068zM771.875 944.214c.985-1.847 2.042-3.323 3.183-4.45 1.14-1.123 2.566-1.68 4.27-1.68h.929l-2.024 5.984c-1.206.247-1.999.438-2.391.557-.4.128-.862.463-1.408 1.02-.723.678-1.33 1.913-1.818 3.72-.493 1.807-.739 3.896-.739 6.277v19.229h-5.301v-36.302h5.301v5.645zM798.283 968.106l2.108 6.132c-1.365 1.366-3.073 2.058-5.146 2.058-2.87 0-5.203-.946-6.978-2.821-1.773-1.894-3.037-4.286-3.781-7.2-.744-2.907-1.118-6.039-1.118-9.363 0-3.257.383-6.297 1.149-9.136.757-2.835 2.042-5.175 3.848-7.006 1.809-1.843 4.146-2.791 7.034-2.844 2.034 0 3.693.631 4.992 1.888l-2.108 5.989c-.626-.434-1.048-.709-1.269-.818-.216-.13-.7-.218-1.452-.284-2.192 0-3.769 1.22-4.72 3.662-.95 2.445-1.448 5.292-1.492 8.549 0 3.315.428 6.198 1.29 8.638.867 2.428 2.403 3.651 4.604 3.651.546 0 .969-.042 1.281-.135.304-.088.594-.227.871-.409.275-.179.561-.368.887-.551zM810.705 954.534v20.336h-5.3v-65.699h5.3v31.977c.723-1.019 1.748-1.871 3.073-2.533a9.1 9.1 0 0 1 4.234-1.01c2.668 0 4.873 1.12 6.621 3.389 1.752 2.254 2.637 5.857 2.637 10.799v23.24h-5.296v-23.1c0-1.831-.321-3.506-.978-5.066-.664-1.561-1.977-2.34-3.917-2.34-1.964 0-3.408.486-4.332 1.453a6.322 6.322 0 0 0-1.722 3.469c-.21 1.357-.32 3.045-.32 5.085zM841.251 920.436l-3.107 9.068-3.553-9.068h6.66zm-6.277 54.596v-36.464h5.97v36.464h-5.97zM853.054 943.835h-5.278l1.461-5.126h3.817v-29.538h5.291v29.397h7.127l-1.778 5.267h-5.349v31.197h-5.291v-31.197zM891.897 950.676l-10.49 10.792-4.195-4.178 8.307-8.423-.299-.786c-1.079-2.252-2.589-3.381-4.513-3.381-2.271 0-3.9 1.222-4.847 3.671-.973 2.454-1.452 5.301-1.452 8.54 0 3.207.479 6.063 1.417 8.549.955 2.494 2.536 3.74 4.728 3.74.709 0 1.436-.188 2.175-.588.739-.396 1.316-.931 1.722-1.627l.449-.711 5.37 3.075-.929 1.352c-2.602 3.729-5.582 5.595-8.932 5.595-2.809 0-5.098-.959-6.881-2.9-1.77-1.913-3.06-4.381-3.839-7.36a36.254 36.254 0 0 1-1.184-9.271c.065-3.341.471-6.392 1.21-9.18.753-2.78 2.003-5.087 3.755-6.923 1.753-1.831 4.063-2.8 6.938-2.886 2.021 0 3.812.52 5.353 1.561 1.554 1.041 2.813 2.428 3.786 4.143a18.186 18.186 0 0 1 2.033 5.545l.318 1.651zM910.315 968.106l2.108 6.132c-1.355 1.366-3.063 2.058-5.142 2.058-2.865 0-5.194-.946-6.968-2.821-1.783-1.894-3.038-4.286-3.791-7.2-.743-2.907-1.109-6.039-1.109-9.363 0-3.257.379-6.297 1.141-9.136.766-2.835 2.052-5.175 3.86-7.006 1.801-1.843 4.134-2.791 7.026-2.844 2.042 0 3.697.631 4.982 1.888l-2.108 5.989c-.611-.434-1.03-.709-1.25-.818-.229-.13-.713-.218-1.462-.284-2.196 0-3.768 1.22-4.719 3.662-.951 2.445-1.452 5.292-1.497 8.549 0 3.315.432 6.198 1.299 8.638.867 2.428 2.395 3.651 4.596 3.651.542 0 .969-.042 1.286-.135.313-.088.594-.227.871-.409.27-.179.57-.368.877-.551zM920.811 943.835h-5.266l1.457-5.126h3.809v-29.538h5.295v29.397h7.132l-1.778 5.267h-5.354v31.197h-5.295v-31.197zM944.651 937.063l4.213 4.71-2.729 2.624c-.924.964-1.606 1.864-2.042 2.661-.423.792-.757 1.829-.999 3.086.176 1.514.797 2.932 1.879 4.243l1.162 1.581c2.329 2.971 3.5 5.779 3.5 8.425 0 3.051-1.606 6.117-4.815 9.21l-3.033 2.997-4.455-4.325 2.738-2.612c1.18-1.083 2.012-1.943 2.505-2.566.479-.625.762-1.417.845-2.405 0-2.015-.704-3.902-2.117-5.648l-1.396-1.752c-1.866-2.364-2.87-4.915-3.033-7.631a16.086 16.086 0 0 1 1.946-6.621c.453-.788.981-1.499 1.549-2.112.59-.623 1.396-1.378 2.422-2.259 1.024-.88 1.646-1.417 1.86-1.606z"/></g></g><g><path d="M1152.299 1168.506a8.515 8.515 0 0 1-8.516 8.514H864.803c-4.707.006-8.527-3.807-8.535-8.514v-67.893a8.537 8.537 0 0 1 8.535-8.523h278.969a8.521 8.521 0 0 1 8.523 8.521v.002l.004 67.893z" fill="#fff"/><path d="M1143.775 1179H864.803c-5.801-.002-10.504-4.695-10.516-10.494v-67.889c.012-5.801 4.715-10.502 10.516-10.506h278.969c5.801.008 10.504 4.705 10.516 10.506v67.889c.003 5.789-4.724 10.494-10.513 10.494z" fill="#262626"/><path d="M1152.299 1168.506a8.515 8.515 0 0 1-8.516 8.514H864.803c-4.707.006-8.527-3.807-8.535-8.514v-67.893a8.537 8.537 0 0 1 8.535-8.523h278.969a8.521 8.521 0 0 1 8.523 8.521v.002l.004 67.893z" fill="#2b2b2b"/><path d="M921.275 1134.088c-.063-7.164 5.867-10.65 6.141-10.813-3.359-4.896-8.566-5.564-10.398-5.619-4.371-.459-8.617 2.617-10.844 2.617-2.273 0-5.703-2.572-9.398-2.496-4.762.072-9.211 2.826-11.652 7.104-5.039 8.721-1.281 21.535 3.547 28.584 2.414 3.453 5.234 7.307 8.93 7.17 3.613-.146 4.961-2.301 9.32-2.301 4.32 0 5.59 2.301 9.355 2.215 3.879-.061 6.32-3.469 8.648-6.951 2.793-3.955 3.91-7.854 3.957-8.053-.09-.031-7.531-2.873-7.606-11.457zm-7.113-21.068c1.941-2.43 3.273-5.734 2.902-9.088-2.813.123-6.328 1.943-8.355 4.32-1.793 2.094-3.395 5.525-2.98 8.754 3.16.234 6.406-1.594 8.433-3.986zM973.607 1160.139h-5.047l-2.766-8.688h-9.617l-2.633 8.688h-4.918l9.527-29.58h5.883l9.571 29.58zm-8.648-12.334l-2.5-7.725c-.266-.789-.762-2.646-1.492-5.572h-.09a225.77 225.77 0 0 1-1.406 5.572l-2.457 7.725h7.945zm33.102 1.408c0 3.627-.984 6.494-2.957 8.6-1.766 1.873-3.957 2.809-6.574 2.809-2.828 0-4.859-1.006-6.094-3.025v11.193h-4.742v-22.969c0-2.279-.059-4.615-.172-7.012h4.168l.262 3.381h.09c1.582-2.547 3.98-3.82 7.199-3.82 2.52 0 4.621.994 6.301 2.982 1.679 1.994 2.519 4.613 2.519 7.861zm-4.829.172c0-2.076-.469-3.787-1.406-5.137-1.023-1.402-2.398-2.105-4.125-2.105-1.172 0-2.234.393-3.184 1.164-.949.777-1.574 1.793-1.863 3.051a6.24 6.24 0 0 0-.223 1.443v3.559c0 1.549.477 2.859 1.43 3.93.949 1.066 2.188 1.604 3.707 1.604 1.785 0 3.176-.691 4.172-2.063.996-1.378 1.492-3.192 1.492-5.446zm29.372-.172c0 3.627-.988 6.494-2.961 8.6-1.766 1.873-3.957 2.809-6.578 2.809-2.824 0-4.855-1.006-6.09-3.025v11.193h-4.742v-22.969c0-2.279-.059-4.615-.176-7.012h4.168l.266 3.381h.09c1.578-2.547 3.977-3.82 7.199-3.82 2.516 0 4.617.994 6.301 2.982 1.675 1.994 2.523 4.613 2.523 7.861zm-4.833.172c0-2.076-.469-3.787-1.41-5.137-1.023-1.402-2.395-2.105-4.121-2.105-1.168 0-2.23.393-3.188 1.164-.949.777-1.57 1.793-1.863 3.051-.145.588-.219 1.066-.219 1.443v3.559c0 1.549.477 2.859 1.422 3.93.953 1.064 2.188 1.604 3.715 1.604 1.789 0 3.176-.691 4.168-2.063.996-1.378 1.496-3.192 1.496-5.446zm32.266 2.457c0 2.518-.879 4.566-2.629 6.146-1.926 1.725-4.613 2.59-8.059 2.59-3.184 0-5.738-.615-7.664-1.844l1.098-3.949c2.078 1.23 4.363 1.844 6.848 1.844 1.789 0 3.176-.404 4.168-1.207.996-.805 1.496-1.879 1.496-3.223 0-1.201-.414-2.209-1.23-3.029-.82-.818-2.176-1.58-4.082-2.281-5.18-1.932-7.773-4.756-7.773-8.473 0-2.428.918-4.414 2.742-5.969 1.828-1.551 4.254-2.326 7.27-2.326 2.691 0 4.934.469 6.715 1.404l-1.188 3.863c-1.68-.908-3.57-1.361-5.688-1.361-1.672 0-2.984.412-3.922 1.23-.789.73-1.188 1.621-1.188 2.68 0 1.168.453 2.137 1.359 2.896.789.701 2.227 1.463 4.301 2.281 2.551 1.027 4.422 2.223 5.621 3.596 1.207 1.376 1.805 3.089 1.805 5.132zm15.715-9.477h-5.227v10.357c0 2.633.922 3.947 2.766 3.947.848 0 1.551-.072 2.105-.221l.133 3.6c-.934.348-2.164.523-3.688.523-1.871 0-3.332-.57-4.391-1.713-1.051-1.143-1.582-3.057-1.582-5.75v-10.752h-3.109v-3.557h3.109v-3.906l4.656-1.404v5.311h5.227v3.565h.001zm23.527 6.934c0 3.279-.938 5.971-2.809 8.076-1.961 2.166-4.566 3.246-7.813 3.246-3.137 0-5.629-1.037-7.488-3.111-1.859-2.078-2.789-4.697-2.789-7.855 0-3.305.961-6.012 2.875-8.117 1.918-2.107 4.504-3.162 7.75-3.162 3.133 0 5.648 1.041 7.551 3.117 1.821 2.013 2.723 4.614 2.723 7.806zm-4.914.109c0-1.955-.422-3.631-1.27-5.033-.992-1.693-2.414-2.541-4.258-2.541-1.898 0-3.355.848-4.348 2.541-.852 1.402-1.273 3.107-1.273 5.121 0 1.957.422 3.637 1.273 5.035 1.023 1.693 2.453 2.541 4.305 2.541 1.813 0 3.234-.865 4.262-2.584.872-1.435 1.309-3.123 1.309-5.08zm20.328-6.431a8.293 8.293 0 0 0-1.492-.131c-1.668 0-2.957.627-3.863 1.889-.789 1.113-1.184 2.518-1.184 4.213v11.191h-4.742v-14.611c.004-2.24-.039-4.479-.137-6.717h4.129l.172 4.082h.133c.504-1.402 1.289-2.533 2.371-3.381a5.733 5.733 0 0 1 3.426-1.143c.438 0 .832.031 1.184.086l.003 4.522zm21.203 5.488c.012.721-.047 1.441-.176 2.15h-14.219c.051 2.107.742 3.721 2.063 4.832 1.199.992 2.746 1.488 4.652 1.488 2.105 0 4.027-.332 5.754-1.006l.742 3.287c-2.02.881-4.402 1.318-7.152 1.318-3.309 0-5.906-.973-7.797-2.916-1.883-1.945-2.828-4.559-2.828-7.834 0-3.213.875-5.893 2.637-8.029 1.84-2.279 4.328-3.42 7.457-3.42 3.078 0 5.402 1.141 6.984 3.42 1.255 1.809 1.883 4.05 1.883 6.71zm-4.519-1.229c.031-1.408-.281-2.619-.922-3.645-.82-1.32-2.082-1.977-3.777-1.977-1.547 0-2.813.643-3.773 1.932-.789 1.023-1.258 2.256-1.402 3.686l9.874.004zM954.811 1120.1c-1.316 0-2.457-.064-3.406-.174v-14.301a25.782 25.782 0 0 1 4.012-.303c5.438 0 7.941 2.674 7.941 7.033-.001 5.028-2.958 7.745-8.547 7.745zm.796-12.944c-.734 0-1.359.045-1.875.15v10.873c.277.043.816.064 1.574.064 3.563 0 5.59-2.027 5.59-5.824 0-3.384-1.835-5.263-5.289-5.263zm15.551 13.053c-3.063 0-5.051-2.287-5.051-5.393 0-3.236 2.031-5.545 5.223-5.545 3.02 0 5.051 2.18 5.051 5.373 0 3.278-2.094 5.565-5.223 5.565zm.09-9.234c-1.684 0-2.762 1.574-2.762 3.775 0 2.158 1.102 3.732 2.738 3.732 1.641 0 2.738-1.684 2.738-3.777.001-2.135-1.077-3.73-2.714-3.73zm22.606-1.487l-3.281 10.482h-2.137l-1.359-4.553a34.707 34.707 0 0 1-.84-3.385h-.047c-.168 1.143-.496 2.287-.84 3.385l-1.445 4.553h-2.156l-3.086-10.482h2.395l1.184 4.982c.281 1.188.52 2.309.715 3.365H983c.172-.881.453-1.984.863-3.342l1.488-5.004h1.898l1.426 4.896c.344 1.188.625 2.352.844 3.453h.063c.152-1.078.387-2.225.711-3.453l1.273-4.896 2.288-.001zm12.074 10.483h-2.332v-6.02c0-1.854-.711-2.783-2.113-2.783-1.383 0-2.332 1.188-2.332 2.568v6.234h-2.328v-7.486c0-.928-.023-1.92-.086-2.998h2.047l.109 1.617h.066c.625-1.121 1.898-1.832 3.324-1.832 2.199 0 3.645 1.684 3.645 4.422v6.278zm6.426 0h-2.336v-15.293h2.336v15.293zm8.492.238c-3.059 0-5.047-2.287-5.047-5.393 0-3.236 2.027-5.545 5.219-5.545 3.023 0 5.051 2.18 5.051 5.373.003 3.278-2.094 5.565-5.223 5.565zm.09-9.234c-1.684 0-2.762 1.574-2.762 3.775 0 2.158 1.102 3.732 2.734 3.732 1.641 0 2.742-1.684 2.742-3.777 0-2.135-1.074-3.73-2.714-3.73zm14.32 8.996l-.168-1.207h-.063c-.711.971-1.75 1.445-3.066 1.445-1.879 0-3.215-1.316-3.215-3.086 0-2.588 2.246-3.926 6.129-3.926v-.193c0-1.381-.73-2.072-2.176-2.072-1.035 0-1.941.262-2.742.779l-.473-1.531c.969-.605 2.18-.908 3.602-.908 2.738 0 4.121 1.445 4.121 4.338v3.861c0 1.057.047 1.877.152 2.502l-2.101-.002zm-.32-5.221c-2.59 0-3.887.627-3.887 2.113 0 1.1.668 1.639 1.598 1.639 1.188 0 2.289-.906 2.289-2.135v-1.617zm13.585 5.221l-.109-1.684h-.066c-.668 1.271-1.793 1.922-3.363 1.922-2.531 0-4.402-2.223-4.402-5.352 0-3.277 1.941-5.588 4.59-5.588 1.406 0 2.398.475 2.957 1.426h.047v-6.018h2.336v12.467c0 1.014.023 1.963.086 2.826h-2.076v.001zm-.347-6.168c0-1.467-.969-2.719-2.453-2.719-1.727 0-2.785 1.531-2.785 3.688 0 2.113 1.098 3.561 2.738 3.561 1.465 0 2.5-1.273 2.5-2.783v-1.747zm17.121 6.406c-3.063 0-5.047-2.287-5.047-5.393 0-3.236 2.027-5.545 5.223-5.545 3.02 0 5.047 2.18 5.047 5.373.003 3.278-2.09 5.565-5.223 5.565zm.086-9.234c-1.68 0-2.758 1.574-2.758 3.775 0 2.158 1.102 3.732 2.738 3.732 1.641 0 2.738-1.684 2.738-3.777.005-2.135-1.074-3.73-2.718-3.73zm17.668 8.996h-2.332v-6.02c0-1.854-.711-2.783-2.113-2.783-1.383 0-2.328 1.188-2.328 2.568v6.234h-2.332v-7.486c0-.928-.023-1.92-.086-2.998h2.047l.109 1.617h.066c.625-1.121 1.898-1.834 3.32-1.834 2.203 0 3.648 1.684 3.648 4.422v6.28zm15.68-8.737h-2.566v5.092c0 1.295.449 1.941 1.359 1.941.41 0 .754-.045 1.031-.109l.066 1.77c-.453.174-1.059.26-1.809.26-1.836 0-2.934-1.012-2.934-3.666v-5.287h-1.531v-1.746h1.531v-1.922l2.285-.689v2.609h2.566v1.747zm12.335 8.737h-2.328v-5.975c0-1.877-.711-2.826-2.117-2.826-1.207 0-2.332.82-2.332 2.48v6.32h-2.328v-15.293h2.328v6.297h.047c.734-1.143 1.797-1.705 3.152-1.705 2.219 0 3.578 1.725 3.578 4.467v6.235zm12.637-4.682h-6.992c.043 1.986 1.359 3.105 3.305 3.105 1.031 0 1.984-.174 2.824-.496l.363 1.619c-.992.432-2.16.646-3.52.646-3.277 0-5.219-2.072-5.219-5.283 0-3.215 1.988-5.631 4.957-5.631 2.68 0 4.359 1.984 4.359 4.984a4.45 4.45 0 0 1-.077 1.056zm-2.137-1.66c0-1.619-.816-2.76-2.305-2.76-1.34 0-2.398 1.164-2.551 2.76h4.856z" fill="#fff"/><linearGradient id="a" gradientUnits="userSpaceOnUse" x1="-11.734" y1="399.983" x2="-11.734" y2="404.305" gradientTransform="matrix(74.1746 0 0 -74.1346 1944.663 30831.875)"><stop offset="0" stop-color="#1a1a1a" stop-opacity=".1"/><stop offset=".123" stop-color="#212121" stop-opacity=".151"/><stop offset=".308" stop-color="#353535" stop-opacity=".227"/><stop offset=".532" stop-color="#575757" stop-opacity=".318"/><stop offset=".783" stop-color="#858585" stop-opacity=".421"/><stop offset="1" stop-color="#b3b3b3" stop-opacity=".51"/></linearGradient><path d="M1143.775 1090.111H994.35l58.527 88.889h90.898c5.801-.004 10.504-4.701 10.512-10.5v-67.883c-.008-5.801-4.711-10.5-10.512-10.506z" fill="url(#a)"/></g></svg>