<svg xmlns="http://www.w3.org/2000/svg" width="640" height="360" viewBox="0 0 640 360"><path fill="#3AA9AE" d="M-5 318h650v47H-5z"/><path fill="#33ACE3" d="M-5-5h650v288H-5z"/><path fill="#016081" d="M-5 283h650v35H-5z"/><path fill="#016081" d="M0 283h640v35H0z"/><path fill="#33ACE3" d="M0 0h640v283H0z"/><path fill="#76C6EA" d="M22.667 58.446l4.275-.715-4.336.01 1.075-1.505-1.305 1.31-.715-4.276.01 4.335-1.506-1.073 1.311 1.304-4.278.716 4.336-.01-1.072 1.505 1.303-1.311.716 4.277-.009-4.335 1.504 1.073z"/><path fill="#F8F9F7" d="M44.676 54.875l2.195-.368-2.225.005.55-.772-.669.672-.367-2.194.005 2.224-.772-.55.672.67-2.194.366 2.225-.005-.551.773.669-.673.367 2.195-.005-2.225.772.551zM464.211 27.396l2.195-.368-2.225.005.55-.772-.668.672-.368-2.194.005 2.224-.772-.55.673.67-2.195.366 2.225-.005-.551.773.669-.673.367 2.195-.005-2.225.772.551z"/><path fill="#EEF5F6" d="M91.884 106.959l2.625-.439-2.661.006.659-.923-.8.803-.439-2.623.005 2.659-.923-.658.804.801-2.624.438 2.66-.005-.658.923.8-.804.439 2.624-.006-2.66.923.659z"/><path fill="#57BAE7" d="M405.097 60.045l3.072-.514-3.115.008.771-1.082-.937.941-.514-3.072.007 3.114-1.081-.771.941.937-3.072.515 3.115-.008-.771 1.082.936-.942.515 3.073-.007-3.115 1.081.771z"/><path fill="#98D4ED" d="M256.803 26.842l3.511-.587-3.56.008.882-1.236-1.072 1.076-.587-3.511.008 3.559-1.235-.881 1.075 1.071-3.511.587 3.56-.008-.881 1.236 1.07-1.075.588 3.511-.008-3.56 1.235.881z"/><path fill="#76C6EA" d="M154.263 22.847l4.309-.721-4.368.009 1.081-1.517-1.314 1.321-.722-4.31.009 4.37-1.515-1.082 1.32 1.314-4.311.721 4.371-.009-1.083 1.517 1.315-1.321.721 4.31-.01-4.37 1.517 1.083z"/><path fill="#57BAE7" d="M143.394 47.149l4.13-.691-4.187.01 1.037-1.454-1.26 1.265-.691-4.131.01 4.189-1.455-1.037 1.265 1.26-4.131.691 4.19-.01-1.037 1.454 1.259-1.265.692 4.131-.01-4.189 1.453 1.037z"/><path fill="#98D4ED" d="M353.339 28.279l2.633-.441-2.67.007.661-.928-.804.808-.44-2.634.007 2.67-.927-.661.805.803-2.632.44 2.67-.006-.662.928.804-.807.441 2.633-.007-2.67.927.662z"/><path fill="#76C6EA" d="M514.509 82.476l3.395-.568-3.442.008.851-1.196-1.036 1.041-.567-3.396.008 3.443-1.196-.853 1.041 1.036-3.397.568 3.444-.008-.853 1.196 1.036-1.041.568 3.396-.007-3.443 1.195.853z"/><path fill="#98D4ED" d="M563.154 96.083l3.852-.644-3.906.009.966-1.356-1.173 1.18-.645-3.852.008 3.905-1.356-.967 1.18 1.175-3.851.645 3.906-.009-.967 1.356 1.174-1.18.644 3.852-.007-3.906 1.355.968z"/><path fill="#9BD4EE" d="M378.653 47.552l5.213-.872-5.284.011 1.308-1.834-1.589 1.597-.872-5.212.01 5.284-1.834-1.308 1.597 1.59-5.211.872 5.284-.013-1.309 1.835 1.591-1.597.872 5.212-.013-5.284 1.834 1.309z"/><path fill="#F8F9F7" d="M429.875 28.25l4.174-.698-4.231.01 1.047-1.469-1.273 1.278-.697-4.173.009 4.232-1.468-1.048 1.279 1.272-4.174.699 4.23-.01-1.046 1.47 1.273-1.28.697 4.173-.009-4.23 1.468 1.047zM322.609 70.238l7.022-1.174-7.119.016 1.763-2.472-2.142 2.152-1.176-7.022.018 7.119-2.473-1.762 2.152 2.141-7.023 1.175 7.121-.015-1.764 2.471 2.143-2.152 1.174 7.022-.016-7.12 2.471 1.764z"/><path fill="#76C6EA" d="M273.047 61.322l5.271-.881-5.343.012 1.322-1.855-1.608 1.615-.882-5.271.013 5.344-1.855-1.323 1.615 1.607-5.271.882 5.343-.012-1.322 1.856 1.608-1.615.88 5.27-.011-5.344 1.855 1.324z"/><path fill="#57BAE7" d="M620.815 21.158l5.088-.851-5.16.011 1.278-1.791-1.551 1.56-.852-5.089.012 5.159-1.791-1.277 1.558 1.552-5.087.851 5.158-.012-1.278 1.792 1.553-1.56.852 5.089-.012-5.159 1.791 1.277z"/><path fill="#45B3E5" d="M174.918 38.718c-22.743-.756-16.331-2.816-37.386.329H124.2c-2.424 1.034-3.91 2.425-3.91 3.956 0 .448 6.619.765 15.971.951l-.57.125c.442-.039.886-.075 1.329-.11.973.018 1.972.035 2.995.05-2.497.2-4.675.796-6.969 1.266l4.385-.242c3.206-.244 6.13-.54 9.033-.883-.358.534-.583.965-.756 1.329.012-.07.576-.619 1.395-1.386 1.217.011 2.449.02 3.694.026-.001.005-.007.017-.005.019l.067.083.033.042-.099.748c.088-.183.24-.499.425-.889 3.206.017 6.481.023 9.738.019-.101.015-.202.033-.304.049 2.765.017 5.826.048 8.45.088a26.823 26.823 0 0 1 5.816-5.57z"/><path fill="#6CC2E9" d="M143.027 33.497a64.712 64.712 0 0 1 1.665-.268c-7.399-.046-12.664.009-1.665.268z"/><path fill="#F6F9FC" d="M174.287 22.876a26.553 26.553 0 0 0-15.33 4.85 26.862 26.862 0 0 0-5.816 5.568 26.548 26.548 0 0 0-5.537 16.26c0 14.731 11.949 26.678 26.683 26.678 14.732 0 26.678-11.947 26.678-26.678s-11.946-26.678-26.678-26.678z"/><path fill="#F6F9FC" d="M174.287 22.876a26.553 26.553 0 0 0-15.33 4.85 26.862 26.862 0 0 0-5.816 5.568 26.548 26.548 0 0 0-5.537 16.26c0 .36.013.717.028 1.073.835.065.725.106.003.128l.001.074 1.599.01c.127-.472.23-.854.292-1.076l-.068.905.023.051.046.1c.001.003-.002.017-.003.023.853.008 1.696.019 2.528.032.56-.929.947-1.593.955-1.678-.118.44-.272.961-.518 1.609a84.8 84.8 0 0 1 6.182-1.07l3-.293c-1.57.569-3.061 1.29-4.769 1.532.7.018 1.384.039 2.049.061.304-.043.607-.087.91-.134l-.391.151c6.4.225 10.93.609 10.93 1.152 0 1.852-1.018 3.536-2.676 4.788H158.6c-4.582 1.21-7.259 1.783-9.284 1.973 3.808 10.087 13.549 17.267 24.97 17.267 14.732 0 26.678-11.947 26.678-26.678s-11.945-26.678-26.677-26.678z"/><path fill="#3DB0E4" d="M142.571 50.816c.069-.018.139-.041.208-.059-3.672-.04-8.111-.145-9.63-.266l-3.167.517c-7.099.217-12.267.616-12.267 1.196 0 1.852 1.017 3.536 2.675 4.788h7.461l-1.095.154c16.526.354 17.48 2.294 22.56 1.818a26.574 26.574 0 0 1-1.681-8.137 656.01 656.01 0 0 0-5.064-.011z"/><path fill="#C8E7F6" d="M167.726 56.993c1.658-1.252 2.676-2.936 2.676-4.788 0-.543-4.53-.927-10.93-1.152.129-.051.26-.101.391-.151-.303.047-.606.091-.91.134-.666-.022-1.349-.043-2.049-.061 1.708-.243 3.199-.963 4.769-1.532l-3 .293a85.344 85.344 0 0 0-6.182 1.07c.246-.647.399-1.169.518-1.609-.008.085-.395.749-.955 1.678-.832-.013-1.676-.023-2.528-.032.001-.006.005-.02.003-.023l-.046-.1-.023-.051.068-.905-.292 1.076-1.599-.01c.134 2.853.72 5.587 1.681 8.137 2.024-.19 4.702-.762 9.284-1.973h9.124z"/><path fill="#C8E7F6" d="M170.236 53.464c-1.604.251-2.511.532-2.511.846 0 .821.123 1.621.348 2.395 1.085-.912 1.849-2.019 2.163-3.241z"/><path fill="#F6F9FC" d="M183.494 74.6l.164-.065c-1.941 0-3.881-.009-5.791-.03-.146.663-.265 1.2-.335 1.511l.078-1.272-.026-.071-.053-.14c-.001-.004.003-.023.004-.033-.981-.011-1.952-.026-2.91-.044a83.642 83.642 0 0 0-.853 1.764c.171.003.342.013.514.013 2.816 0 5.529-.439 8.078-1.249-5.681-.321-3.255-.417 1.13-.384zM166.682 74.229c-.349.06-.699.122-1.046.188l.45-.213c-.786-.034-1.541-.07-2.273-.109.892.381 1.81.713 2.749.997.8-.336 1.613-.627 2.481-.777-.807-.026-1.594-.055-2.361-.086zM168.982 75.703c1.52.307 3.086.478 4.687.514a25.06 25.06 0 0 1 .453-1.665 83.92 83.92 0 0 1-5.14 1.151z"/><path fill="#48B4E5" d="M154.904 67.876c-.887 1.4-1.399 3.002-1.399 4.71 0 .681 4.167 1.184 10.307 1.509a26.738 26.738 0 0 1-8.908-6.219z"/><path fill="#76C6EA" d="M182.365 74.983c.488.027 1.012.056 1.623.087.437-.167.875-.311 1.312-.452-.626-.008-1.231-.015-1.805-.019-.373.137-.75.264-1.13.384z"/><path fill="#48B4E5" d="M211.068 65.859h-8.589l1.261-.217c-3.07-.08-5.655-.22-7.887-.393a26.754 26.754 0 0 1-12.195 9.285c.628 0 1.254.003 1.881.001-.08.025-.161.057-.24.083 4.227.058 9.334.204 11.084.375l3.643-.727c8.172-.305 14.121-.865 14.121-1.68 0-2.602-1.17-4.967-3.079-6.727z"/><path fill="#76C6EA" d="M182.365 74.983c.38-.121.757-.247 1.129-.384-4.385-.032-6.811.064-1.129.384z"/><path fill="#CEE9F6" d="M177.536 74.5c-.001.009-.006.029-.004.033l.053.14.026.071-.078 1.272c.07-.311.189-.849.335-1.511 1.91.021 3.849.029 5.791.03a26.747 26.747 0 0 0 12.195-9.285c-17.105-1.325-12.395-4.671-28.767.609h-10.501a10.092 10.092 0 0 0-1.681 2.017 26.748 26.748 0 0 0 8.908 6.219c.732.039 1.487.075 2.273.109a96.56 96.56 0 0 1-.45.213c.348-.066.698-.128 1.046-.188.767.031 1.554.06 2.359.085-.868.15-1.681.441-2.481.777.793.239 1.6.446 2.421.611a84.674 84.674 0 0 0 5.14-1.15c-.2.644-.336 1.175-.453 1.665l.104.002c.194-.42.49-1.029.853-1.764.959.019 1.93.033 2.911.045z"/><path fill="#CEE9F6" d="M177.536 74.5c-.001.009-.006.029-.004.033l.053.14.026.071-.078 1.272c.07-.311.189-.849.335-1.511 1.91.021 3.849.029 5.791.03a26.747 26.747 0 0 0 12.195-9.285c-17.105-1.325-12.395-4.671-28.767.609h-10.501a10.092 10.092 0 0 0-1.681 2.017 26.748 26.748 0 0 0 8.908 6.219c.732.039 1.487.075 2.273.109a96.56 96.56 0 0 1-.45.213c.348-.066.698-.128 1.046-.188.767.031 1.554.06 2.359.085-.868.15-1.681.441-2.481.777.793.239 1.6.446 2.421.611a84.674 84.674 0 0 0 5.14-1.15c-.2.644-.336 1.175-.453 1.665l.104.002c.194-.42.49-1.029.853-1.764.959.019 1.93.033 2.911.045z"/><path fill="#CEE9F6" d="M177.536 74.5c-.001.009-.006.029-.004.033l.053.14.026.071-.078 1.272c.07-.311.189-.849.335-1.511 1.91.021 3.849.029 5.791.03a26.747 26.747 0 0 0 12.195-9.285c-17.105-1.325-12.395-4.671-28.767.609h-10.501a10.092 10.092 0 0 0-1.681 2.017 26.748 26.748 0 0 0 8.908 6.219c.732.039 1.487.075 2.273.109a96.56 96.56 0 0 1-.45.213c.348-.066.698-.128 1.046-.188.767.031 1.554.06 2.359.085-.868.15-1.681.441-2.481.777.793.239 1.6.446 2.421.611a84.674 84.674 0 0 0 5.14-1.15c-.2.644-.336 1.175-.453 1.665l.104.002c.194-.42.49-1.029.853-1.764.959.019 1.93.033 2.911.045z"/><path fill="#45B3E5" d="M226.07 42.94h-4.152l1.79-.127c-11.334-.123-18.188-.476-22.937-.816l.05.08a172.61 172.61 0 0 1-.951-.084c.593 2.008.96 4.112 1.063 6.287 1.252.01 2.517.021 3.758.036-.017-.056-.038-.109-.055-.164 3.746.042 7.092.099 8.624.16l5.173-.428c2.971-.046 5.736-.102 8.203-.167l-.566-4.777z"/><path fill="#A6D9F1" d="M197.374 48.53a62.31 62.31 0 0 1 1.642-.267 730.028 730.028 0 0 0-4.185-.014c-4.676.001-6.171.077 2.543.281z"/><path fill="#A6D9F1" d="M175.917 43.114h-13.332c-2.424 1.034-3.91 2.425-3.91 3.956 0 .448 6.619.765 15.97.951l-.57.125c.442-.039.886-.075 1.329-.111.973.019 1.972.036 2.995.051-2.497.2-4.675.796-6.969 1.266l4.385-.242c3.207-.245 6.13-.54 9.034-.883a9.855 9.855 0 0 0-.747 1.309c.078-.123.62-.649 1.386-1.367 1.216.011 2.449.02 3.694.026l-.004.019.066.083.033.042-.099.748.426-.889c2.533.013 5.11.02 7.687.02l2.052-.001-.327.048 1.917.015a26.513 26.513 0 0 0-1.063-6.287c-3.46-.311-5.584-.571-8.152-.571-3.27-.001-7.288.42-15.801 1.692z"/><g fill="#387EB6"><path d="M74.427 277.511V122.363L30.65 63.884h-.006V283.5h43.779v-5.989zM114.383 261.991V158.178H82.776V283.5h31.607v-18.509zM187.805 278.776V167.283h-4.67l-.151-13.28-4.247.073c-3.805-7.419-10.445-12.343-18.004-12.424l-.046-2.224-1.17-58.162-.38 58.162-.016 2.288c-7.303.591-13.583 5.65-17.121 12.995l-4.252.072.141 12.501h-4.576v116.218h54.49l.002-4.726zM256.314 106.663h-8.668V94.95h-16.913l-.4-29.526-.661-54.2-1.396 54.183-.792 29.543h-17.238v11.713h-8.659V283.5h54.727v-4.724zM421.303 144.394h-90.857V283.5h90.857v-4.724zM484.751 157.249h-9.527c.041-.523.08-1.049.08-1.584 0-10.141-8.108-18.368-18.192-18.596l-.291-24.58-.531-49.872-1.117 49.852-.572 24.703c-9.294 1.04-16.521 8.918-16.521 18.493 0 .535.035 1.061.078 1.584h-9.535V283.5h56.13V157.249zM553.22 278.776V157.249h-11.226v-20.674h-16.416l-.275-24.086-.247-22.566-.889-.953-.522 23.499-.563 24.106h-14.76v20.674h-11.225v121.527h.001v4.724h56.121v-4.724zM638.054 111.077h-31.518V283.5h31.518v-6.907zM275.338 113.89h47.04V283.5h-47.04z"/></g><path fill="#3AA9AE" d="M0 318v42h640v-42z"/><g fill="#016081"><path d="M89.56 333.264c-.205-.656-.402-1.311-.605-1.966 9.686-.309 23.891-.503 39.723-.503 29.188 0 52.852.659 52.852 1.472 0 .815-23.664 1.476-52.852 1.476-15.505-.001-29.449-.187-39.118-.479zM98.722 323.179c-.253-1.33-.497-2.655-.749-3.982 11.975-.626 29.536-1.02 49.109-1.02 36.084 0 65.34 1.336 65.34 2.981 0 1.652-29.256 2.99-65.34 2.99-19.167 0-36.405-.377-48.36-.969zM144.495 355.261c-.205-.656-.402-1.311-.605-1.966 9.686-.309 23.891-.503 39.723-.503 29.188 0 52.852.659 52.852 1.472 0 .815-23.664 1.476-52.852 1.476-15.505-.001-29.448-.187-39.118-.479zM521.195 340.922c0-.813-27.99-1.472-62.513-1.472-17.869 0-33.975.177-45.366.462-9.636-.284-23.275-.462-38.412-.462-15.832 0-30.037.194-39.723.503.203.655.4 1.31.605 1.966 9.67.292 23.613.479 39.117.479 15.079 0 28.674-.177 38.303-.459 11.401.28 27.55.459 45.476.459 34.523-.001 62.513-.661 62.513-1.476zM44.49 340.445c-.205-.656-.402-1.311-.605-1.966 9.686-.309 23.891-.503 39.723-.503 29.188 0 52.852.659 52.852 1.472 0 .815-23.664 1.476-52.852 1.476-15.504 0-29.448-.187-39.118-.479zM201.32 327.974c-.744-.656-1.461-1.311-2.2-1.966 35.187-.309 86.792-.503 144.306-.503 106.032 0 192 .659 192 1.472 0 .815-85.968 1.476-192 1.476-56.322-.001-106.976-.187-142.106-.479zM234.994 349.971c-.132-.656-.26-1.311-.391-1.966 6.256-.309 15.431-.503 25.656-.503 18.852 0 34.136.659 34.136 1.472 0 .815-15.284 1.476-34.136 1.476-10.014-.001-19.02-.187-25.265-.479zM13.089 331.79c-.132-.656-.26-1.311-.391-1.966 6.256-.309 15.431-.503 25.656-.503 18.852 0 34.136.659 34.136 1.472 0 .815-15.284 1.476-34.136 1.476-10.014 0-19.02-.187-25.265-.479z"/></g><path fill="#2D6592" d="M.799 128.242h34.2V283.5H.799zM119.848 226.248v-19.006H38.354V283.5h79.259v-57.252z"/><path fill="#2D6592" d="M116.767 226.248h-2.384V283.5h83.372v-57.252zM484.751 207.242h58.697V283.5h-58.697zM437.041 220.87h39.291v62.63h-39.291zM590.891 211.036v-9.108h-5.803l-.35-19.778-.362-22.004-.735 21.991-.69 19.791h-7.001v9.108h-5.907V283.5H640v-72.464zM219.063 199.845l-.294-22.949-.349-30.169-.735 30.16-.582 22.958h-9.27V283.5h84.941v-83.655zM421.355 219.291v-12.489h-18.139v12.489h-59.634V283.5h84.941v-64.209z"/><path fill="#1F4564" d="M625.031 278.08h-10.055v-39.309h-65.258v39.309h-14.395v-25.178h-85.131v-21.667h-42.223v46.845h-1.699v-40.158h-41.024v40.158h-17.175v-25.728h-65.247v14.36h-11.025v11.368h-4.907v-46.845H251.06v-4.987h-38.696v4.987h-15.836v46.845h-3.868v-46.845h-42.217v46.845h-9.288v-24.142h-17.96v-7.537H72.07v7.537H54.123v24.142H48.73v-20.842H0V283.5h640v-45.406h-14.969z"/><g fill="#3AA9AE"><path d="M183.303 306.884c-28.736 0-54.563.186-72.508.482-9.668-.296-23.621-.482-39.134-.482-15.832 0-30.037.194-39.723.503.203.655.4 1.31.605 1.966 9.67.292 23.613.479 39.117.479 15.45 0 29.35-.185 39.014-.48l.001.002c17.954.292 43.842.479 72.627.479 54.191 0 98.127-.66 98.127-1.476.001-.814-43.935-1.473-98.126-1.473zM274.469 321.092c-.421-1.108-.825-2.214-1.242-3.32 19.875-.521 49.023-.85 81.511-.85 59.892 0 108.45 1.113 108.45 2.486 0 1.377-48.559 2.491-108.45 2.491-31.815 0-60.426-.314-80.269-.807zM391.013 291.415c-.421-.656-.825-1.311-1.242-1.966 19.875-.309 49.023-.503 81.511-.503 59.892 0 108.45.659 108.45 1.472 0 .815-48.559 1.476-108.45 1.476-31.815 0-60.427-.187-80.269-.479zM126.495 302.728c-.205-.656-.402-1.311-.605-1.966 9.686-.309 23.891-.503 39.723-.503 29.188 0 52.852.659 52.852 1.472 0 .815-23.664 1.476-52.852 1.476-15.505-.001-29.448-.187-39.118-.479zM24.033 296.469l-.359-1.467c7.514-.148 17.369-.238 28.154-.238 23.576 0 42.691.432 42.691.968s-19.115.968-42.691.968c-10.618 0-20.327-.087-27.795-.231zM152.686 292.631l-.95-1.467c19.86-.148 45.911-.238 74.418-.238 62.318 0 112.844.432 112.844.968s-50.526.968-112.844.968c-28.063 0-53.726-.087-73.468-.231zM537.231 298.404l-.359-1.467c7.514-.148 17.369-.238 28.154-.238 23.576 0 42.691.432 42.691.968s-19.115.968-42.691.968c-10.617.001-20.326-.086-27.795-.231zM592.703 308.239c-4.549 0-8.916.017-13.028.047-13.74-.611-57.156-1.059-108.594-1.059-33.889 0-64.296.194-85.028.503.435.655.857 1.31 1.296 1.966 20.699.292 50.546.479 83.732.479 38.995 0 73.383-.257 93.725-.648l.103.418c7.469.145 17.178.231 27.795.23 23.576 0 42.691-.432 42.691-.968s-19.116-.968-42.692-.968z"/></g><path fill="#FFF" d="M630.437 342.527c-.019-2.099 1.721-3.121 1.799-3.168-.983-1.436-2.509-1.63-3.045-1.646-1.283-.135-2.525.767-3.179.767-.665 0-1.67-.755-2.754-.732-1.394.021-2.699.829-3.414 2.082-1.477 2.556-.374 6.312 1.039 8.376.708 1.012 1.534 2.142 2.616 2.101 1.059-.042 1.454-.674 2.732-.674 1.266 0 1.637.674 2.74.65 1.137-.019 1.852-1.017 2.535-2.037.817-1.16 1.146-2.302 1.158-2.361-.024-.008-2.204-.841-2.227-3.358zm-2.084-6.173c.57-.712.959-1.681.851-2.663-.823.036-1.854.569-2.447 1.267-.525.613-.995 1.619-.875 2.565.926.069 1.876-.468 2.471-1.169z"/><path fill="#997153" d="M282.562 360h73.998v5h-73.998z"/><path fill="#70513C" d="M353.199 285.436l3.362 3.366v-82.409l-3.362-3.366z"/><path fill="#9E735A" d="M344.229 134.071c0 2.242-2.241 4.486-4.484 4.486h-42.047c-2.242 0-4.486-2.244-4.486-4.486V88.662c0-2.241 2.244-4.483 4.486-4.483h42.047c2.243 0 4.484 2.242 4.484 4.483v45.409z"/><g fill="#7F5B42"><path d="M293.775 88.662c0-2.241 2.242-4.483 4.484-4.483h42.043c2.246 0 4.489 2.242 4.489 4.483v45.409c0 2.242-2.243 4.486-4.489 4.486"/><path d="M356.561 286.559c0 1.685-1.678 3.363-3.361 3.363h-67.273c-1.683 0-3.365-1.679-3.365-3.363v-174.35c0-1.682 1.682-3.364 3.365-3.364H353.2c1.684 0 3.361 1.682 3.361 3.364v174.35z"/></g><path fill="#997153" d="M356.561 356.634c0 1.681-1.678 3.366-3.361 3.366h-67.273c-1.683 0-3.365-1.686-3.365-3.366V182.285c0-1.682 1.682-3.364 3.365-3.364H353.2c1.684 0 3.361 1.682 3.361 3.364v174.349z"/><path fill="#845E44" d="M353.199 178.921c1.684 0 3.361 1.682 3.361 3.364v174.349c0 1.681-1.678 3.366-3.361 3.366"/><path fill="#BC8F71" d="M285.926 360c-1.683 0-3.365-1.686-3.365-3.366V182.285c0-1.682 1.682-3.364 3.365-3.364"/><path fill="#7F5B42" d="M285.926 178.921l-3.364 3.924v31.396l73.999 74.561v-82.409l-26.904-27.472z"/><path fill="#9E7B64" d="M293.212 349.908c0 .562-.557 1.122-1.122 1.122-.556 0-1.122-.561-1.122-1.122v-138.47c0-.56.566-1.123 1.122-1.123.565 0 1.122.563 1.122 1.123v138.47z"/><path fill="#70513C" d="M293.212 225.451v-14.013c0-.56-.557-1.123-1.122-1.123-.556 0-1.122.563-1.122 1.123v11.773l2.244 2.24z"/><path fill="#9E7B64" d="M301.062 349.908c0 .562-.559 1.122-1.124 1.122-.556 0-1.118-.561-1.118-1.122v-138.47c0-.56.562-1.123 1.118-1.123.564 0 1.124.563 1.124 1.123v138.47z"/><path fill="#9E7B64" d="M301.062 349.908c0 .562-.559 1.122-1.124 1.122-.556 0-1.118-.561-1.118-1.122v-138.47c0-.56.562-1.123 1.118-1.123.564 0 1.124.563 1.124 1.123v138.47zM308.911 349.908c0 .562-.562 1.122-1.12 1.122-.563 0-1.123-.561-1.123-1.122v-138.47c0-.56.559-1.123 1.123-1.123.558 0 1.12.563 1.12 1.123v138.47z"/><g fill="#70513C"><path d="M308.911 240.59v-29.711c0-.563-.562-1.123-1.12-1.123-.563 0-1.123.56-1.123 1.123v27.468l2.243 2.243zM301.062 233.3v-21.861c0-.56-.559-1.123-1.124-1.123-.556 0-1.118.563-1.118 1.123v19.62l2.242 2.241z"/></g><path fill="#9E7B64" d="M316.762 349.908c0 .562-.563 1.122-1.123 1.122-.561 0-1.122-.561-1.122-1.122v-138.47c0-.56.561-1.123 1.122-1.123s1.123.563 1.123 1.123v138.47z"/><path fill="#70513C" d="M316.762 248.438v-37.559c0-.563-.563-1.123-1.123-1.123-.561 0-1.122.56-1.122 1.123v35.316l2.245 2.243z"/><path fill="#9E7B64" d="M324.609 349.908c0 .562-.566 1.122-1.12 1.122-.564 0-1.123-.561-1.123-1.122v-138.47c0-.56.559-1.123 1.123-1.123.554 0 1.12.563 1.12 1.123v138.47z"/><path fill="#70513C" d="M324.609 256.287v-45.408c0-.563-.566-1.123-1.12-1.123-.564 0-1.123.56-1.123 1.123v43.165l2.243 2.243z"/><path fill="#9E7B64" d="M332.455 349.908c0 .562-.561 1.122-1.119 1.122-.561 0-1.123-.561-1.123-1.122v-138.47c0-.56.563-1.123 1.123-1.123.559 0 1.119.563 1.119 1.123v138.47z"/><path fill="#70513C" d="M331.336 210.315c-.561 0-1.123.563-1.123 1.123v51.016l2.242 2.241v-52.698c0-1.118-.56-1.682-1.119-1.682z"/><path fill="#9E7B64" d="M340.302 349.908c0 .562-.557 1.122-1.115 1.122-.561 0-1.121-.561-1.121-1.122v-138.47c0-.56.561-1.123 1.121-1.123.559 0 1.115.563 1.115 1.123v138.47z"/><path fill="#70513C" d="M339.187 210.315c-.561 0-1.121.563-1.121 1.123v58.863l2.236 2.242v-61.105c0-.559-.557-1.123-1.115-1.123z"/><path fill="#9E7B64" d="M348.153 349.908c0 .562-.563 1.122-1.121 1.122-.563 0-1.12-.561-1.12-1.122v-138.47c0-.56.558-1.123 1.12-1.123.559 0 1.121.563 1.121 1.123v138.47z"/><path fill="#70513C" d="M347.032 210.315c-.563 0-1.12.563-1.12 1.123v66.709l2.241 2.246v-68.955c0-.559-.562-1.123-1.121-1.123z"/><g fill="#1F4564"><path d="M358.248 251.8c0 1.124-1.124 2.244-2.242 2.244h-72.882c-1.125 0-2.247-1.12-2.247-2.244 0-1.121 1.122-2.243 2.247-2.243h72.882c1.118 0 2.242 1.122 2.242 2.243zM358.248 262.454c0 1.119-1.124 2.241-2.242 2.241h-72.882c-1.125 0-2.247-1.122-2.247-2.241 0-1.121 1.122-2.243 2.247-2.243h72.882c1.118 0 2.242 1.122 2.242 2.243zM358.248 313.467c0 1.121-1.124 2.243-2.242 2.243h-72.882c-1.125 0-2.247-1.122-2.247-2.243 0-1.12 1.122-2.24 2.247-2.24h72.882c1.118 0 2.242.558 2.242 2.24zM358.248 323.559c0 1.123-1.124 2.241-2.242 2.241h-72.882c-1.125 0-2.247-1.118-2.247-2.241 0-1.118 1.122-2.242 2.247-2.242h72.882c1.118-.001 2.242 1.123 2.242 2.242z"/></g><g><path fill="#AF8366" d="M356.108 198.889c0 2.451-1.818 4.411-4.087 4.411h-65.373c-2.27 0-4.087-1.96-4.087-4.411v-71.058c0-2.451 1.817-4.411 4.087-4.411h65.823c2.273 0 4.088 1.96 4.088 4.411v71.058h-.451z"/><path fill="#9E735A" d="M282.562 127.831c0-2.451 1.817-4.411 4.087-4.411h65.823c2.273 0 4.088 1.96 4.088 4.411v71.058c0 2.451-1.814 4.411-4.088 4.411"/><path fill="#997153" d="M356.108 198.889c0 2.451-1.818 4.411-4.087 4.411h-65.373c-2.27 0-4.087-1.96-4.087-4.411"/></g><path fill="#4F3E32" d="M359.365 109.966c0 .562-.562 1.121-1.117 1.121h-76.809c-.563 0-1.121-.559-1.121-1.121 0-.562.558-1.12 1.121-1.12h76.242c.567 0 1.684.558 1.684 1.12z"/><path fill="#1F4564" d="M295.456 118.936c0 .562-.559 1.122-1.123 1.122-.558 0-1.121-.56-1.121-1.122v-3.925c0-.56.563-1.121 1.121-1.121.564 0 1.123.562 1.123 1.121v3.925zM307.791 118.936c0 .562-.563 1.122-1.123 1.122-.561 0-1.122-.56-1.122-1.122v-3.925c0-.56.562-1.121 1.122-1.121.559 0 1.123.562 1.123 1.121v3.925zM320.684 118.936c0 .562-.562 1.122-1.124 1.122-.558 0-1.119-.56-1.119-1.122v-3.925c0-.56.561-1.121 1.119-1.121.562 0 1.124.562 1.124 1.121v3.925zM333.02 118.936c0 .562-.564 1.122-1.125 1.122-.559 0-1.119-.56-1.119-1.122v-3.925c0-.56.561-1.121 1.119-1.121.561 0 1.125.562 1.125 1.121v3.925z"/><path fill="#96BCBC" d="M319.002 19.6c.386 0 .762-.274.964-.624l-.964-2.07-.964 2.071c.202.349.577.623.964.623z"/><path fill="#1F4564" d="M345.912 118.936c0 .562-.563 1.122-1.121 1.122-.562 0-1.125-.56-1.125-1.122v-3.925c0-.56.563-1.121 1.125-1.121.559 0 1.121.562 1.121 1.121v3.925z"/><g fill="#1F4564"><path d="M287.607 113.89c-.561 0-1.123.562-1.123 1.121v3.925c0 .562.562 1.122 1.123 1.122.56 0 1.121-.56 1.121-1.122v-3.925c.001-.56-.561-1.121-1.121-1.121M300.502 113.89c-.564 0-1.12.562-1.12 1.121v3.925c0 .562.556 1.122 1.12 1.122.559 0 1.12-.56 1.12-1.122v-3.925c0-.56-.56-1.121-1.12-1.121M313.394 113.89c-.558 0-1.119.562-1.119 1.121v3.925c0 .562.562 1.122 1.119 1.122.563 0 1.124-.56 1.124-1.122v-3.925c0-.56-.561-1.121-1.124-1.121M325.729 113.89c-.564 0-1.12.562-1.12 1.121v3.925c0 .562.556 1.122 1.12 1.122.558 0 1.122-.56 1.122-1.122v-3.925c.001-.56-.564-1.121-1.122-1.121M338.626 113.89c-.561 0-1.126.562-1.126 1.121v3.925c0 .562.565 1.122 1.126 1.122s1.119-.56 1.119-1.122v-3.925c0-.56-.558-1.121-1.119-1.121M350.956 113.89c-.56 0-1.121.562-1.121 1.121v3.925c0 .562.562 1.122 1.121 1.122s1.122-.56 1.122-1.122v-3.925c0-.56-.562-1.121-1.122-1.121"/></g><circle fill="#EDEADA" stroke="#1F4564" stroke-width="3.913" cx="319.561" cy="163.36" r="28.366"/><g><path fill="#DBD6C1" d="M347.927 163.36c0-15.667-12.699-28.366-28.366-28.366-8.347 0-15.85 3.605-21.041 9.343l39.34 40.691c6.156-5.205 10.067-12.978 10.067-21.668z"/><path fill="#EDEADA" d="M298.52 144.336a28.264 28.264 0 0 0-7.326 19.023c0 15.667 12.7 28.366 28.366 28.366a28.25 28.25 0 0 0 18.3-6.698l-39.34-40.691z"/></g><g><g fill="#1F4564"><path d="M319.56 136.462v1.577M316.75 136.608l.162 1.57M313.968 137.047l.33 1.545M311.247 137.777l.489 1.502M308.618 138.787l.644 1.442M306.112 140.066l.787 1.364M303.75 141.6l.927 1.276M301.56 143.368l1.059 1.177M299.572 145.36l1.172 1.056M297.8 147.55l1.275.928M296.266 149.91l1.367.79M294.986 152.418l1.443.645M293.977 155.047l1.502.489M293.25 157.768l1.545.326M292.807 160.55l1.574.163M292.662 163.36h1.58M292.807 166.173l1.574-.167M293.25 168.951l1.545-.326M293.977 171.672l1.502-.489M294.986 174.301l1.443-.645M296.266 176.81l1.367-.79M297.8 179.17l1.275-.928M299.572 181.36l1.172-1.056M301.56 183.351l1.059-1.173M303.75 185.123l.927-1.28M306.112 186.653l.787-1.364M308.618 187.932l.644-1.442M311.247 188.942l.489-1.502M313.968 189.669l.33-1.542M316.75 190.112l.162-1.57M319.56 190.26v-1.58M322.373 190.112l-.163-1.57M325.154 189.669l-.33-1.542M327.872 188.942l-.486-1.502M330.501 187.932l-.641-1.442M333.01 186.653l-.79-1.364M335.37 185.123l-.925-1.28M337.56 183.351l-1.057-1.173M339.55 181.36l-1.172-1.056M341.322 179.17l-1.279-.928M342.857 176.81l-1.368-.79M344.132 174.301l-1.438-.645M345.142 171.672l-1.499-.489M345.872 168.951l-1.545-.326M346.311 166.173l-1.57-.167M346.46 163.36h-1.58M346.311 160.55l-1.57.163M345.872 157.768l-1.545.326M345.142 155.047l-1.499.489M344.132 152.418l-1.438.645M342.857 149.91l-1.368.79M341.322 147.55l-1.279.928M339.55 145.36l-1.172 1.056M337.56 143.368l-1.057 1.177M335.37 141.6l-.925 1.276M333.01 140.066l-.79 1.364M330.501 138.787l-.641 1.442M327.872 137.777l-.486 1.502M325.154 137.047l-.33 1.545M322.373 136.608l-.163 1.57"/></g><g fill="#1F4564"><path d="M320.29 136.462l-.73 1.577-.702-1.577zM306.743 139.701l.156 1.73-1.396-1.014zM296.63 149.279l1.003 1.42-1.718-.18zM292.662 162.63l1.58.73-1.58.701zM295.9 176.176l1.733-.156-1.017 1.396zM305.478 186.292l1.421-1.003-.18 1.715zM318.83 190.26l.73-1.58.704 1.58zM332.379 187.022l-.16-1.733 1.397 1.017zM342.492 177.44l-1.003-1.42 1.718.18zM346.46 164.09l-1.58-.73 1.58-.702zM343.222 150.543l-1.733.156 1.017-1.396zM333.644 140.43l-1.424 1 .184-1.718z"/></g><g fill="#1F4564"><path d="M317.143 143.818l-.422 1.485c-.032.11-.053.209-.067.294a1.615 1.615 0 0 0-.021.266c0 .156.028.266.088.336.06.071.16.107.298.107h.035v.297h-1.134v-.297c.117-.014.224-.092.312-.238.092-.145.184-.379.277-.701l.545-1.864-.921-3.777h-.195v-.277h1.814v.277h-.294l.521 2.105.319-1.085c.032-.106.053-.202.07-.294.015-.092.022-.18.022-.266 0-.159-.028-.276-.089-.347-.06-.07-.159-.106-.294-.106h-.032v-.287h1.124v.287c-.114.014-.216.092-.309.237-.088.146-.184.38-.287.712l-.435 1.474 1.013 4.15h.177v.297h-1.818v-.297h.302l-.6-2.488zm2.19 2.785v-.297h.35v-6.584h-.35v-.276h1.828v.276h-.35v6.584h.35v.297h-1.828zm2.04 0v-.297h.355v-6.584h-.355v-.276h1.829v.276h-.35v6.584h.35v.297h-1.829zM308.579 147.135l.375 1.499a1.877 1.877 0 0 0 .206.528c.078.134.16.216.244.248.089.032.192.014.308-.057l.029-.018.149.255-.978.567-.15-.258c.097-.071.146-.192.153-.365.007-.17-.028-.422-.11-.748l-.457-1.889-2.686-2.81-.17.096-.138-.24 1.57-.908.138.241-.255.145 1.506 1.563-.266-1.098a2.325 2.325 0 0 0-.085-.287 1.673 1.673 0 0 0-.113-.241c-.082-.139-.163-.227-.252-.255-.085-.032-.188-.015-.308.053l-.032.017-.142-.248.971-.56.145.249c-.092.07-.141.187-.145.357-.007.17.028.422.106.759l.358 1.495 2.952 3.086.156-.088.149.258-1.574.907-.148-.258.262-.153-1.768-1.842zm3.291 1.318l-.148-.259.304-.177-3.291-5.701-.305.177-.138-.24 1.583-.915.139.24-.305.175 3.292 5.7.304-.176.15.258-1.585.918zM302.449 153.913l1.073 1.11c.078.08.156.152.22.205.067.053.142.103.22.149.134.078.244.106.336.092.092-.014.17-.082.241-.202l.018-.032.259.149-.564.978-.258-.15c.046-.11.028-.237-.05-.389-.082-.152-.237-.35-.471-.592l-1.34-1.406-3.73-1.092-.1.17-.24-.138.906-1.57.241.139-.149.255 2.087.599-.78-.819a2.3 2.3 0 0 0-.219-.205 1.44 1.44 0 0 0-.22-.153c-.138-.081-.255-.113-.347-.095-.088.017-.17.085-.237.202l-.018.031-.248-.145.56-.97.248.145c-.046.106-.028.233.053.382.078.153.237.351.471.603l1.06 1.116 4.1 1.197.088-.152.259.149-.907 1.573-.26-.149.153-.262-2.455-.723zM302.803 165.819h-.298v-.355h-6.583v.355h-.276v-1.829h.276v.351h6.583v-.35h.298v1.828zm-2.781-3.104l1.484.421c.11.032.21.054.294.068.085.014.174.021.266.021.156 0 .27-.028.337-.089.07-.06.106-.159.106-.294v-.035h.298v1.13h-.298c-.014-.117-.092-.223-.237-.315-.146-.092-.38-.184-.702-.277l-1.864-.545-3.777.921v.195h-.276v-1.814h.276v.294l2.105-.521-1.085-.319a1.748 1.748 0 0 0-.56-.092c-.162 0-.276.028-.347.089-.07.06-.106.155-.106.294v.039h-.287v-1.124h.287c.014.114.092.217.237.309.146.088.38.184.71.287l1.473.439 4.15-1.013v-.178h.297v1.818h-.298v-.301l-2.483.592zM306.396 174.071l.308.532-5.446 4.33.114.194-.241.139-.88-1.524.242-.138.191.333 3.682-2.934-3.554 1.378-.185.078a2.91 2.91 0 0 0-.148.075.852.852 0 0 0-.298.248.255.255 0 0 0-.018.251l-.24.138-.38-.659.241-.138.01.021c.036.064.125.086.27.064.142-.021.361-.088.663-.202l5.669-2.186zm-.648-1.127l-.26.15-.176-.306-5.701 3.292.177.305-.241.138-.914-1.584.24-.138.178.305 5.7-3.292-.176-.305.258-.149.915 1.584zm-1.025-1.768l-.258.149-.177-.305-5.702 3.292.178.305-.241.138-.914-1.58.237-.139.177.305 5.701-3.292-.173-.304.258-.15.914 1.581zm-1.02-1.771l-.259.148-.177-.304-5.701 3.291.177.305-.24.138-.915-1.58.241-.138.177.304 5.701-3.291-.173-.305.258-.149.911 1.58zM312.629 178.706l.531.308-2.548 6.474.192.11-.138.24-1.524-.878.138-.241.333.191 1.722-4.38-2.388 2.973c-.042.057-.085.107-.12.16-.036.05-.064.095-.089.138-.085.149-.131.273-.135.368a.263.263 0 0 0 .11.227l-.138.238-.659-.38.138-.237.021.01c.064.036.153.011.263-.08.113-.093.269-.26.47-.507l3.82-4.734zm-1.124-.649l-.148.259-.305-.177-3.292 5.701.305.177-.138.241-1.584-.914.138-.241.305.174 3.291-5.702-.304-.173.149-.259 1.583.914zm-1.771-1.02l-.15.258-.304-.177-3.292 5.701.305.178-.138.24-1.584-.914.138-.24.305.173 3.292-5.701-.305-.174.149-.258 1.584.914zM320.211 180.116h.613l1.028 6.881h.223v.28h-1.757v-.28h.382l-.698-4.656-.58 3.767c-.011.07-.019.134-.026.198-.007.06-.007.117-.007.167 0 .17.022.297.068.382a.25.25 0 0 0 .209.142v.28h-.762v-.28h.025c.074 0 .134-.067.187-.198.054-.135.103-.358.156-.677l.94-6.006zm-1.3 0v.298h-.35v6.583h.35v.28h-1.828v-.28h.35v-6.583h-.35v-.298h1.828zM327.617 178.057l.531-.308 4.33 5.446.195-.113.138.24-1.523.88-.139-.242.334-.19-2.934-3.682 1.378 3.554c.025.067.053.127.078.184.025.053.05.103.074.145.085.149.17.248.252.301.081.05.163.057.252.018l.138.237-.66.383-.138-.24.022-.012c.064-.035.085-.127.06-.269a3.621 3.621 0 0 0-.202-.662l-2.186-5.67zM335.231 169.73l.259.15-.177.304 5.701 3.292.177-.305.241.138-.914 1.584-.241-.138.174-.305-5.702-3.292-.177.305-.258-.149.917-1.583zm-1.856 3.218l.308-.532 6.474 2.552.113-.195.24.138-.878 1.523-.24-.138.19-.333-4.379-1.722 2.973 2.388c.057.043.11.085.16.12.049.036.095.065.137.09.15.084.273.13.365.134a.26.26 0 0 0 .227-.11l.241.138-.379.66-.24-.139.01-.021c.035-.064.007-.149-.082-.262-.088-.114-.258-.27-.506-.471l-4.734-3.82zM336.316 160.482h.297v.351h6.584v-.35h.276v1.828h-.276v-.351h-6.584v.35h-.297v-1.828zm0 2.045h.297v.35h6.584v-.35h.276v1.828h-.276v-.35h-6.584v.35h-.297v-1.828zm0 2.04h.297v.352h6.584v-.351h.276v1.828h-.276v-.35h-6.584v.35h-.297v-1.828zM333.144 153.375l.259-.15.177.306 5.701-3.292-.177-.305.241-.138.914 1.58-.24.138-.178-.304-5.701 3.291.177.305-.258.149-.915-1.58zm1.02 1.768l.256-.15.177.306 5.701-3.292-.173-.305.237-.138.914 1.58-.24.138-.174-.304-5.701 3.291.177.305-.259.149-.914-1.58zM327.216 148.432l.15-.259.304.177 3.292-5.701-.305-.177.138-.238 1.584.915-.138.237-.305-.174-3.292 5.702.305.173-.149.259z"/></g><path fill="#1F4564" d="M319.56 168.466l-.77-1.294.348-3.812-.337-3.948.454-14.573h-.256v-.805h.316l-.393-3.2.637-3.185.642 3.186-.394 3.2h.316v.804h-.255l.453 14.573-.34 3.948.347 3.812z"/><path fill="#1F4564" d="M319.56 168.466l-.77-1.294.348-3.812-.337-3.948.454-6.186h-.256v-.808h.316l-.393-3.196.637-3.19.642 3.19-.394 3.196h.316v.808h-.255l.453 6.186-.34 3.948.347 3.812z"/><circle cy="271.724" cx="18.807" fill="#5D657B" r=".352" transform="matrix(3.5433 0 0 3.5433 252.92 -799.442)"/></g><path fill="#4F3E32" d="M279.758 97.633h2.241v13.454h-2.241zM320.122 13.621h2.243V11.38h-2.243V5.009h-2.241v6.372h-2.243v2.241h2.243v1.38l.106.475h1.978c.016 0 .029.02.045.023l.112-.499v-1.38z"/><path fill="#4F3E32" d="M276.958 103.799h8.019v2.241h-8.019z"/><path fill="#96BCBC" d="M286.377 86.969h65.251l-32.625-70.064z"/><path fill="#4F3E32" d="M357.124 97.633h2.241v13.454h-2.241z"/><path fill="#4F3E32" d="M354.883 103.799h6.728v2.241h-6.728z"/><path fill="#9EC6C6" d="M300.814 86.969h36.376l-18.187-70.064z"/><path fill="#3F607A" d="M337.19 86.969h-36.375l-.877 3.375h38.128z"/><path fill="#1F4564" d="M353.076 90.08l-1.448-3.11H337.19l.876 3.375h14.813a.662.662 0 0 0 .197-.265zM286.377 86.969l-1.082 2.324-.318.683c.057.174.135.306.238.368h14.724l.876-3.375h-14.438z"/><circle fill="#789696" cx="319.002" cy="16.396" r="1"/></svg>